%TF.GenerationSoftware,KiCad,Pcbnew,10.0.1*%
%TF.CreationDate,2026-04-20T20:28:20+02:00*%
%TF.ProjectId,MMS3_hat_stepper_controler,4d4d5333-5f68-4617-945f-737465707065,R0*%
%TF.SameCoordinates,Original*%
%TF.FileFunction,Copper,L1,Top*%
%TF.FilePolarity,Positive*%
%FSLAX46Y46*%
G04 Gerber Fmt 4.6, Leading zero omitted, Abs format (unit mm)*
G04 Created by KiCad (PCBNEW 10.0.1) date 2026-04-20 20:28:20*
%MOMM*%
%LPD*%
G01*
G04 APERTURE LIST*
G04 Aperture macros list*
%AMRoundRect*
0 Rectangle with rounded corners*
0 $1 Rounding radius*
0 $2 $3 $4 $5 $6 $7 $8 $9 X,Y pos of 4 corners*
0 Add a 4 corners polygon primitive as box body*
4,1,4,$2,$3,$4,$5,$6,$7,$8,$9,$2,$3,0*
0 Add four circle primitives for the rounded corners*
1,1,$1+$1,$2,$3*
1,1,$1+$1,$4,$5*
1,1,$1+$1,$6,$7*
1,1,$1+$1,$8,$9*
0 Add four rect primitives between the rounded corners*
20,1,$1+$1,$2,$3,$4,$5,0*
20,1,$1+$1,$4,$5,$6,$7,0*
20,1,$1+$1,$6,$7,$8,$9,0*
20,1,$1+$1,$8,$9,$2,$3,0*%
%AMFreePoly0*
4,1,6,1.000000,0.000000,0.500000,-0.750000,-0.500000,-0.750000,-0.500000,0.750000,0.500000,0.750000,1.000000,0.000000,1.000000,0.000000,$1*%
%AMFreePoly1*
4,1,6,0.500000,-0.750000,-0.650000,-0.750000,-0.150000,0.000000,-0.650000,0.750000,0.500000,0.750000,0.500000,-0.750000,0.500000,-0.750000,$1*%
G04 Aperture macros list end*
%TA.AperFunction,SMDPad,CuDef*%
%ADD10RoundRect,0.140000X0.170000X-0.140000X0.170000X0.140000X-0.170000X0.140000X-0.170000X-0.140000X0*%
%TD*%
%TA.AperFunction,SMDPad,CuDef*%
%ADD11RoundRect,0.100000X-0.100000X0.637500X-0.100000X-0.637500X0.100000X-0.637500X0.100000X0.637500X0*%
%TD*%
%TA.AperFunction,SMDPad,CuDef*%
%ADD12RoundRect,0.140000X0.140000X0.170000X-0.140000X0.170000X-0.140000X-0.170000X0.140000X-0.170000X0*%
%TD*%
%TA.AperFunction,SMDPad,CuDef*%
%ADD13RoundRect,0.140000X-0.140000X-0.170000X0.140000X-0.170000X0.140000X0.170000X-0.140000X0.170000X0*%
%TD*%
%TA.AperFunction,SMDPad,CuDef*%
%ADD14RoundRect,0.225000X-0.225000X-0.250000X0.225000X-0.250000X0.225000X0.250000X-0.225000X0.250000X0*%
%TD*%
%TA.AperFunction,SMDPad,CuDef*%
%ADD15RoundRect,0.225000X0.225000X0.250000X-0.225000X0.250000X-0.225000X-0.250000X0.225000X-0.250000X0*%
%TD*%
%TA.AperFunction,ComponentPad*%
%ADD16C,3.100000*%
%TD*%
%TA.AperFunction,ConnectorPad*%
%ADD17C,4.700000*%
%TD*%
%TA.AperFunction,SMDPad,CuDef*%
%ADD18C,1.000000*%
%TD*%
%TA.AperFunction,SMDPad,CuDef*%
%ADD19RoundRect,0.248889X-0.311111X-0.626111X0.311111X-0.626111X0.311111X0.626111X-0.311111X0.626111X0*%
%TD*%
%TA.AperFunction,SMDPad,CuDef*%
%ADD20RoundRect,0.140000X-0.170000X0.140000X-0.170000X-0.140000X0.170000X-0.140000X0.170000X0.140000X0*%
%TD*%
%TA.AperFunction,SMDPad,CuDef*%
%ADD21RoundRect,0.248889X0.626111X-0.311111X0.626111X0.311111X-0.626111X0.311111X-0.626111X-0.311111X0*%
%TD*%
%TA.AperFunction,ComponentPad*%
%ADD22R,0.900000X2.000000*%
%TD*%
%TA.AperFunction,ComponentPad*%
%ADD23RoundRect,1.025000X1.025000X1.025000X-1.025000X1.025000X-1.025000X-1.025000X1.025000X-1.025000X0*%
%TD*%
%TA.AperFunction,ComponentPad*%
%ADD24C,4.100000*%
%TD*%
%TA.AperFunction,SMDPad,CuDef*%
%ADD25RoundRect,0.250000X1.000000X-1.750000X1.000000X1.750000X-1.000000X1.750000X-1.000000X-1.750000X0*%
%TD*%
%TA.AperFunction,SMDPad,CuDef*%
%ADD26R,1.000000X3.000000*%
%TD*%
%TA.AperFunction,SMDPad,CuDef*%
%ADD27FreePoly0,0.000000*%
%TD*%
%TA.AperFunction,SMDPad,CuDef*%
%ADD28FreePoly1,0.000000*%
%TD*%
%TA.AperFunction,SMDPad,CuDef*%
%ADD29RoundRect,0.250000X2.450000X-1.200000X2.450000X1.200000X-2.450000X1.200000X-2.450000X-1.200000X0*%
%TD*%
%TA.AperFunction,ComponentPad*%
%ADD30R,1.700000X1.700000*%
%TD*%
%TA.AperFunction,ComponentPad*%
%ADD31C,1.700000*%
%TD*%
%TA.AperFunction,SMDPad,CuDef*%
%ADD32O,1.950000X0.570000*%
%TD*%
%TA.AperFunction,SMDPad,CuDef*%
%ADD33RoundRect,0.225000X0.250000X-0.225000X0.250000X0.225000X-0.250000X0.225000X-0.250000X-0.225000X0*%
%TD*%
%TA.AperFunction,SMDPad,CuDef*%
%ADD34R,3.820000X3.030000*%
%TD*%
%TA.AperFunction,SMDPad,CuDef*%
%ADD35RoundRect,0.250000X-0.550000X1.500000X-0.550000X-1.500000X0.550000X-1.500000X0.550000X1.500000X0*%
%TD*%
%TA.AperFunction,SMDPad,CuDef*%
%ADD36R,3.030000X3.820000*%
%TD*%
%TA.AperFunction,SMDPad,CuDef*%
%ADD37RoundRect,0.225000X-0.250000X0.225000X-0.250000X-0.225000X0.250000X-0.225000X0.250000X0.225000X0*%
%TD*%
%TA.AperFunction,ComponentPad*%
%ADD38C,1.440000*%
%TD*%
%TA.AperFunction,ComponentPad*%
%ADD39RoundRect,0.250000X0.550000X-0.550000X0.550000X0.550000X-0.550000X0.550000X-0.550000X-0.550000X0*%
%TD*%
%TA.AperFunction,ComponentPad*%
%ADD40C,1.600000*%
%TD*%
%TA.AperFunction,SMDPad,CuDef*%
%ADD41RoundRect,0.250000X-1.500000X-0.550000X1.500000X-0.550000X1.500000X0.550000X-1.500000X0.550000X0*%
%TD*%
%TA.AperFunction,ComponentPad*%
%ADD42RoundRect,0.250000X-0.600000X-0.725000X0.600000X-0.725000X0.600000X0.725000X-0.600000X0.725000X0*%
%TD*%
%TA.AperFunction,ComponentPad*%
%ADD43O,1.700000X1.950000*%
%TD*%
%TA.AperFunction,SMDPad,CuDef*%
%ADD44RoundRect,0.250000X-0.325000X-0.650000X0.325000X-0.650000X0.325000X0.650000X-0.325000X0.650000X0*%
%TD*%
%TA.AperFunction,SMDPad,CuDef*%
%ADD45RoundRect,0.250000X1.750000X1.000000X-1.750000X1.000000X-1.750000X-1.000000X1.750000X-1.000000X0*%
%TD*%
%TA.AperFunction,SMDPad,CuDef*%
%ADD46RoundRect,0.075000X-0.075000X0.662500X-0.075000X-0.662500X0.075000X-0.662500X0.075000X0.662500X0*%
%TD*%
%TA.AperFunction,SMDPad,CuDef*%
%ADD47RoundRect,0.075000X-0.662500X0.075000X-0.662500X-0.075000X0.662500X-0.075000X0.662500X0.075000X0*%
%TD*%
%TA.AperFunction,HeatsinkPad*%
%ADD48C,0.500000*%
%TD*%
%TA.AperFunction,HeatsinkPad*%
%ADD49R,5.000000X5.000000*%
%TD*%
%TA.AperFunction,SMDPad,CuDef*%
%ADD50RoundRect,0.250000X0.650000X-0.325000X0.650000X0.325000X-0.650000X0.325000X-0.650000X-0.325000X0*%
%TD*%
%TA.AperFunction,SMDPad,CuDef*%
%ADD51RoundRect,0.220000X0.255000X-0.220000X0.255000X0.220000X-0.255000X0.220000X-0.255000X-0.220000X0*%
%TD*%
%TA.AperFunction,SMDPad,CuDef*%
%ADD52RoundRect,0.250000X-1.000000X-0.300000X1.000000X-0.300000X1.000000X0.300000X-1.000000X0.300000X0*%
%TD*%
%TA.AperFunction,ComponentPad*%
%ADD53C,0.500000*%
%TD*%
%TA.AperFunction,SMDPad,CuDef*%
%ADD54RoundRect,0.250000X-0.920000X-1.550000X0.920000X-1.550000X0.920000X1.550000X-0.920000X1.550000X0*%
%TD*%
%TA.AperFunction,SMDPad,CuDef*%
%ADD55RoundRect,0.250000X-0.300000X2.050000X-0.300000X-2.050000X0.300000X-2.050000X0.300000X2.050000X0*%
%TD*%
%TA.AperFunction,SMDPad,CuDef*%
%ADD56RoundRect,0.250002X-5.149998X4.449998X-5.149998X-4.449998X5.149998X-4.449998X5.149998X4.449998X0*%
%TD*%
%TA.AperFunction,SMDPad,CuDef*%
%ADD57RoundRect,0.250000X1.000000X0.900000X-1.000000X0.900000X-1.000000X-0.900000X1.000000X-0.900000X0*%
%TD*%
%TA.AperFunction,ViaPad*%
%ADD58C,0.500000*%
%TD*%
%TA.AperFunction,Conductor*%
%ADD59C,1.000000*%
%TD*%
%TA.AperFunction,Conductor*%
%ADD60C,0.800000*%
%TD*%
%TA.AperFunction,Conductor*%
%ADD61C,0.200000*%
%TD*%
%TA.AperFunction,Conductor*%
%ADD62C,0.300000*%
%TD*%
G04 APERTURE END LIST*
D10*
%TO.P,R8,1*%
%TO.N,/Stepper controller/U_reg_after_jumper*%
X130800000Y-104600000D03*
%TO.P,R8,2*%
%TO.N,Net-(C10-Pad2)*%
X130800000Y-103600000D03*
%TD*%
D11*
%TO.P,U1,1,~{1OE}_1*%
%TO.N,/Bus_switch/SEL1*%
X147875000Y-101337500D03*
%TO.P,U1,2,1B1_2*%
%TO.N,/Bus_switch/Chainbus.RX*%
X147225000Y-101337500D03*
%TO.P,U1,3,1A1_3*%
%TO.N,/Bus_switch/Chainbus_In.RX*%
X146575000Y-101337500D03*
%TO.P,U1,4,1A2_4*%
%TO.N,/Bus_switch/Chainbus_In.TX*%
X145925000Y-101337500D03*
%TO.P,U1,5,1B2_5*%
%TO.N,/Bus_switch/Chainbus.TX*%
X145275000Y-101337500D03*
%TO.P,U1,6,1B3_6*%
%TO.N,/Bus_switch/Chainbus.MISO*%
X144625000Y-101337500D03*
%TO.P,U1,7,1A3_7*%
%TO.N,/Bus_switch/Chainbus_In.MISO*%
X143975000Y-101337500D03*
%TO.P,U1,8,1A4_8*%
%TO.N,/Bus_switch/Chainbus_In.MOSI*%
X143325000Y-101337500D03*
%TO.P,U1,9,1B4_9*%
%TO.N,/Bus_switch/Chainbus.MOSI*%
X142675000Y-101337500D03*
%TO.P,U1,10,1B5_10*%
%TO.N,/Bus_switch/Chainbus.SCK*%
X142025000Y-101337500D03*
%TO.P,U1,11,1A5_11*%
%TO.N,/Bus_switch/Chainbus_In.SCK*%
X141375000Y-101337500D03*
%TO.P,U1,12,GND_12*%
%TO.N,GND*%
X140725000Y-101337500D03*
%TO.P,U1,13,~{2OE}_13*%
%TO.N,/Bus_switch/SEL1*%
X140725000Y-107062500D03*
%TO.P,U1,14,2A1_14*%
%TO.N,/Bus_switch/Chainbus_In.CS*%
X141375000Y-107062500D03*
%TO.P,U1,15,2B1_15*%
%TO.N,/Bus_switch/Chainbus.CS*%
X142025000Y-107062500D03*
%TO.P,U1,16,2B2_16*%
%TO.N,/Bus_switch/Chainbus.SDA*%
X142675000Y-107062500D03*
%TO.P,U1,17,2A2_17*%
%TO.N,/Bus_switch/Chainbus_In.SDA*%
X143325000Y-107062500D03*
%TO.P,U1,18,2A3_18*%
%TO.N,/Bus_switch/Chainbus_In.SCL*%
X143975000Y-107062500D03*
%TO.P,U1,19,2B3_19*%
%TO.N,/Bus_switch/Chainbus.SCL*%
X144625000Y-107062500D03*
%TO.P,U1,20,2B4_20*%
%TO.N,unconnected-(U1-2B4-Pad20)*%
X145275000Y-107062500D03*
%TO.P,U1,21,2A4_21*%
%TO.N,unconnected-(U1-2A4-Pad21)*%
X145925000Y-107062500D03*
%TO.P,U1,22,2A5_22*%
%TO.N,unconnected-(U1-2A5-Pad22)*%
X146575000Y-107062500D03*
%TO.P,U1,23,2B5_23*%
%TO.N,unconnected-(U1-2B5-Pad23)*%
X147225000Y-107062500D03*
%TO.P,U1,24,VCC_24*%
%TO.N,+3V3*%
X147875000Y-107062500D03*
%TD*%
D12*
%TO.P,R19,1*%
%TO.N,+3V3*%
X154700000Y-102200000D03*
%TO.P,R19,2*%
%TO.N,/Bus_switch/Chainbus.SCL*%
X153700000Y-102200000D03*
%TD*%
D13*
%TO.P,R24,1*%
%TO.N,/Bus_switch/Chainbus.MOSI*%
X153900000Y-108800000D03*
%TO.P,R24,2*%
%TO.N,GND*%
X154900000Y-108800000D03*
%TD*%
D14*
%TO.P,C6,1*%
%TO.N,Net-(U3-VCC)*%
X152620000Y-122400000D03*
%TO.P,C6,2*%
%TO.N,GND*%
X154180000Y-122400000D03*
%TD*%
D15*
%TO.P,C24,1*%
%TO.N,Net-(C23-Pad2)*%
X95480000Y-91900000D03*
%TO.P,C24,2*%
%TO.N,GND*%
X93920000Y-91900000D03*
%TD*%
D16*
%TO.P,H1,1,1_1*%
%TO.N,GND*%
X82000000Y-134000000D03*
D17*
X82000000Y-134000000D03*
%TD*%
D13*
%TO.P,R12,1*%
%TO.N,GND*%
X99300000Y-109200000D03*
%TO.P,R12,2*%
%TO.N,Net-(U5-FB)*%
X100300000Y-109200000D03*
%TD*%
D18*
%TO.P,TP4,1,1_1*%
%TO.N,Net-(U3-AIN_IREF)*%
X160850000Y-109550000D03*
%TD*%
D19*
%TO.P,R4,1*%
%TO.N,/Stepper controller/5VOUT*%
X151880000Y-124200000D03*
%TO.P,R4,2*%
%TO.N,Net-(U3-VCC)*%
X154800000Y-124200000D03*
%TD*%
D13*
%TO.P,R9,1*%
%TO.N,Net-(C10-Pad2)*%
X135300000Y-102050000D03*
%TO.P,R9,2*%
%TO.N,GND*%
X136300000Y-102050000D03*
%TD*%
%TO.P,R10,1*%
%TO.N,/Buck Regulator/sw-vin*%
X110800000Y-117400000D03*
%TO.P,R10,2*%
%TO.N,Net-(C20-Pad2)*%
X111800000Y-117400000D03*
%TD*%
D12*
%TO.P,R13,1*%
%TO.N,Net-(U5-FB)*%
X100300000Y-106800000D03*
%TO.P,R13,2*%
%TO.N,U_reg*%
X99300000Y-106800000D03*
%TD*%
D10*
%TO.P,R18,1*%
%TO.N,Net-(C23-Pad2)*%
X96900000Y-92900000D03*
%TO.P,R18,2*%
%TO.N,GND*%
X96900000Y-91900000D03*
%TD*%
D20*
%TO.P,R2,1*%
%TO.N,+3V3*%
X155700000Y-103200000D03*
%TO.P,R2,2*%
%TO.N,/Bus_switch/Chainbus.SCK*%
X155700000Y-104200000D03*
%TD*%
D21*
%TO.P,R6,1*%
%TO.N,Net-(U3-BRA)*%
X157800000Y-112360000D03*
%TO.P,R6,2*%
%TO.N,GND*%
X157800000Y-109440000D03*
%TD*%
D18*
%TO.P,TP1,1,1_1*%
%TO.N,Net-(U3-SWSEL)*%
X156650000Y-122950000D03*
%TD*%
D12*
%TO.P,R21,1*%
%TO.N,+3V3*%
X152200000Y-97700000D03*
%TO.P,R21,2*%
%TO.N,/Bus_switch/Chainbus.RX*%
X151200000Y-97700000D03*
%TD*%
D22*
%TO.P,J4,*%
%TO.N,*%
X101550000Y-136350000D03*
X88050000Y-136350000D03*
D23*
%TO.P,J4,1,Pin_1_1*%
%TO.N,GND*%
X98400000Y-130350000D03*
D24*
%TO.P,J4,2,Pin_2_2*%
%TO.N,Vin*%
X91200000Y-130350000D03*
%TD*%
D12*
%TO.P,R14,1*%
%TO.N,Net-(R14-Pad1)*%
X100300000Y-103800000D03*
%TO.P,R14,2*%
%TO.N,U_reg*%
X99300000Y-103800000D03*
%TD*%
D14*
%TO.P,C20,1*%
%TO.N,/Buck Regulator/sw-vin*%
X111020000Y-116400000D03*
%TO.P,C20,2*%
%TO.N,Net-(C20-Pad2)*%
X112580000Y-116400000D03*
%TD*%
D10*
%TO.P,R23,1*%
%TO.N,+3V3*%
X152800000Y-103300000D03*
%TO.P,R23,2*%
%TO.N,/Bus_switch/Chainbus.SDA*%
X152800000Y-102300000D03*
%TD*%
D25*
%TO.P,C50,1*%
%TO.N,U_reg*%
X121200000Y-112100000D03*
%TO.P,C50,2*%
%TO.N,GND*%
X121200000Y-104100000D03*
%TD*%
D26*
%TO.P,J2,1,Pin_1_1*%
%TO.N,GND*%
X108950000Y-93038272D03*
%TO.P,J2,2,Pin_2_2*%
%TO.N,/Interboard_connector/SEL2*%
X108950000Y-98078272D03*
%TO.P,J2,3,Pin_3_3*%
%TO.N,+5V*%
X111490000Y-93038272D03*
%TO.P,J2,4,Pin_4_4*%
%TO.N,/Interboard_connector/SEL3*%
X111490000Y-98078272D03*
%TO.P,J2,5,Pin_5_5*%
%TO.N,+5V*%
X114030000Y-93038272D03*
%TO.P,J2,6,Pin_6_6*%
%TO.N,/Interboard_connector/SEL4*%
X114030000Y-98078272D03*
%TO.P,J2,7,Pin_7_7*%
%TO.N,GND*%
X116570000Y-93038272D03*
%TO.P,J2,8,Pin_8_8*%
%TO.N,/Interboard_connector/SEL5*%
X116570000Y-98078272D03*
%TO.P,J2,9,Pin_9_9*%
%TO.N,BRD_VIN*%
X119110000Y-93038272D03*
%TO.P,J2,10,Pin_10_10*%
%TO.N,/Interboard_connector/SEL6*%
X119110000Y-98078272D03*
%TO.P,J2,11,Pin_11_11*%
%TO.N,BRD_VIN*%
X121650000Y-93038272D03*
%TO.P,J2,12,Pin_12_12*%
%TO.N,/Interboard_connector/SEL7*%
X121650000Y-98078272D03*
%TO.P,J2,13,Pin_13_13*%
%TO.N,BRD_VIN*%
X124190000Y-93038272D03*
%TO.P,J2,14,Pin_14_14*%
%TO.N,/Interboard_connector/SEL8*%
X124190000Y-98078272D03*
%TO.P,J2,15,Pin_15_15*%
%TO.N,BRD_VIN*%
X126730000Y-93038272D03*
%TO.P,J2,16,Pin_16_16*%
%TO.N,unconnected-(J2-Pin_16-Pad16)*%
X126730000Y-98078272D03*
%TO.P,J2,17,Pin_17_17*%
%TO.N,GND*%
X129270000Y-93038272D03*
%TO.P,J2,18,Pin_18_18*%
%TO.N,/Bus_switch/Chainbus_In.SDA*%
X129270000Y-98078272D03*
%TO.P,J2,19,Pin_19_19*%
%TO.N,GND*%
X131810000Y-93038272D03*
%TO.P,J2,20,Pin_20_20*%
%TO.N,/Bus_switch/Chainbus_In.SCL*%
X131810000Y-98078272D03*
%TO.P,J2,21,Pin_21_21*%
%TO.N,GND*%
X134350000Y-93038272D03*
%TO.P,J2,22,Pin_22_22*%
%TO.N,/Bus_switch/Chainbus_In.CS*%
X134350000Y-98078272D03*
%TO.P,J2,23,Pin_23_23*%
%TO.N,GND*%
X136890000Y-93038272D03*
%TO.P,J2,24,Pin_24_24*%
%TO.N,/Bus_switch/Chainbus_In.SCK*%
X136890000Y-98078272D03*
%TO.P,J2,25,Pin_25_25*%
%TO.N,unconnected-(J2-Pin_25-Pad25)*%
X139430000Y-93038272D03*
%TO.P,J2,26,Pin_26_26*%
%TO.N,/Bus_switch/Chainbus_In.MOSI*%
X139430000Y-98078272D03*
%TO.P,J2,27,Pin_27_27*%
%TO.N,unconnected-(J2-Pin_27-Pad27)*%
X141970000Y-93038272D03*
%TO.P,J2,28,Pin_28_28*%
%TO.N,/Bus_switch/Chainbus_In.MISO*%
X141970000Y-98078272D03*
%TO.P,J2,29,Pin_29_29*%
%TO.N,+12V stby*%
X144510000Y-93038272D03*
%TO.P,J2,30,Pin_30_30*%
%TO.N,/Bus_switch/Chainbus_In.TX*%
X144510000Y-98078272D03*
%TO.P,J2,31,Pin_31_31*%
%TO.N,GND*%
X147050000Y-93038272D03*
%TO.P,J2,32,Pin_32_32*%
%TO.N,/Bus_switch/Chainbus_In.RX*%
X147050000Y-98078272D03*
%TD*%
D27*
%TO.P,JP3,1,A_1*%
%TO.N,U_reg*%
X128010000Y-110800000D03*
D28*
%TO.P,JP3,2,B_2*%
%TO.N,/Stepper controller/U_reg_after_jumper*%
X129460000Y-110800000D03*
%TD*%
D18*
%TO.P,TP7,1,1_1*%
%TO.N,/Stepper controller/U_reg_after_jumper*%
X138600000Y-115700000D03*
%TD*%
D13*
%TO.P,R22,1*%
%TO.N,/Bus_switch/Chainbus.MISO*%
X153900000Y-107900000D03*
%TO.P,R22,2*%
%TO.N,GND*%
X154900000Y-107900000D03*
%TD*%
D12*
%TO.P,R16,1*%
%TO.N,Net-(R16-Pad1)*%
X100300000Y-105800000D03*
%TO.P,R16,2*%
%TO.N,U_reg*%
X99300000Y-105800000D03*
%TD*%
D29*
%TO.P,L1,1,1_1*%
%TO.N,/Buck Regulator/sw*%
X91600000Y-107550000D03*
%TO.P,L1,2,2_2*%
%TO.N,U_reg*%
X91600000Y-97650000D03*
%TD*%
D30*
%TO.P,J3,1,Pin_1_1*%
%TO.N,/Bus_switch/Chainbus.SDA*%
X151170000Y-100000000D03*
D31*
%TO.P,J3,2,Pin_2_2*%
%TO.N,/Bus_switch/Chainbus.SCL*%
X153710000Y-100000000D03*
%TO.P,J3,3,Pin_3_3*%
%TO.N,GND*%
X156250000Y-100000000D03*
%TO.P,J3,4,Pin_4_4*%
%TO.N,+3V3*%
X158790000Y-100000000D03*
%TD*%
D18*
%TO.P,TP6,1,1_1*%
%TO.N,Net-(U3-BRB)*%
X146000000Y-111700000D03*
%TD*%
D14*
%TO.P,C21,1*%
%TO.N,Net-(C20-Pad2)*%
X114020000Y-116400000D03*
%TO.P,C21,2*%
%TO.N,GND*%
X115580000Y-116400000D03*
%TD*%
D32*
%TO.P,U2,1,A0_1*%
%TO.N,GND*%
X168710000Y-102660000D03*
%TO.P,U2,2,A1_2*%
X168710000Y-101390000D03*
%TO.P,U2,3,A2_3*%
X168710000Y-100110000D03*
%TO.P,U2,4,VSS_4*%
X168710000Y-98840000D03*
%TO.P,U2,5,SDA_5*%
%TO.N,/Bus_switch/Chainbus.SDA*%
X163290000Y-98840000D03*
%TO.P,U2,6,SCL_6*%
%TO.N,/Bus_switch/Chainbus.SCL*%
X163290000Y-100110000D03*
%TO.P,U2,7,#WC_7*%
%TO.N,unconnected-(U2-#WC-Pad7)*%
X163290000Y-101390000D03*
%TO.P,U2,8,VCC_8*%
%TO.N,+3V3*%
X163290000Y-102660000D03*
%TD*%
D33*
%TO.P,C3,1*%
%TO.N,+3V3*%
X148875000Y-110567500D03*
%TO.P,C3,2*%
%TO.N,GND*%
X148875000Y-109007500D03*
%TD*%
D21*
%TO.P,R7,1*%
%TO.N,Net-(U3-BRB)*%
X143750000Y-112860000D03*
%TO.P,R7,2*%
%TO.N,GND*%
X143750000Y-109940000D03*
%TD*%
D20*
%TO.P,R25,1*%
%TO.N,+3V3*%
X154600000Y-104500000D03*
%TO.P,R25,2*%
%TO.N,/Bus_switch/SEL1*%
X154600000Y-105500000D03*
%TD*%
D34*
%TO.P,D2,1,K_1*%
%TO.N,BRD_VIN*%
X82200000Y-120970000D03*
%TO.P,D2,2,A_2*%
%TO.N,Vin*%
X82200000Y-127830000D03*
%TD*%
D27*
%TO.P,JP1,1,A_1*%
%TO.N,U_reg*%
X127975000Y-105700000D03*
D28*
%TO.P,JP1,2,B_2*%
%TO.N,/Stepper controller/U_reg_after_jumper*%
X129425000Y-105700000D03*
%TD*%
D22*
%TO.P,J5,*%
%TO.N,*%
X118250000Y-136350000D03*
X104750000Y-136350000D03*
D23*
%TO.P,J5,1,Pin_1_1*%
%TO.N,GND*%
X107900000Y-130350000D03*
D24*
%TO.P,J5,2,Pin_2_2*%
%TO.N,Vin*%
X115100000Y-130350000D03*
%TD*%
D35*
%TO.P,C12,1*%
%TO.N,/Stepper controller/U_reg_after_jumper*%
X134000000Y-113550000D03*
%TO.P,C12,2*%
%TO.N,GND*%
X134000000Y-118950000D03*
%TD*%
D27*
%TO.P,JP2,1,A_1*%
%TO.N,U_reg*%
X127975000Y-108230000D03*
D28*
%TO.P,JP2,2,B_2*%
%TO.N,/Stepper controller/U_reg_after_jumper*%
X129425000Y-108230000D03*
%TD*%
D36*
%TO.P,D6,1,K_1*%
%TO.N,Net-(D5-A)*%
X123930000Y-123100000D03*
%TO.P,D6,2,A_2*%
%TO.N,Net-(D6-A)*%
X117070000Y-123100000D03*
%TD*%
D10*
%TO.P,R26,1*%
%TO.N,/Bus_switch/SEL1*%
X173600000Y-101600000D03*
%TO.P,R26,2*%
%TO.N,Net-(D7-Pad2)*%
X173600000Y-100600000D03*
%TD*%
D14*
%TO.P,C5,1*%
%TO.N,Net-(U3-CP0)*%
X154620000Y-121180000D03*
%TO.P,C5,2*%
%TO.N,Net-(U3-CPI)*%
X156180000Y-121180000D03*
%TD*%
D20*
%TO.P,R5,1*%
%TO.N,/Stepper controller/5VOUT*%
X160700000Y-106850000D03*
%TO.P,R5,2*%
%TO.N,Net-(R5-Pad2)*%
X160700000Y-107850000D03*
%TD*%
D37*
%TO.P,C2,1*%
%TO.N,+3V3*%
X161450000Y-102670000D03*
%TO.P,C2,2*%
%TO.N,GND*%
X161450000Y-104230000D03*
%TD*%
D12*
%TO.P,R1,1*%
%TO.N,+3V3*%
X154200000Y-110600000D03*
%TO.P,R1,2*%
%TO.N,/Bus_switch/Chainbus.CS*%
X153200000Y-110600000D03*
%TD*%
D37*
%TO.P,C7,1*%
%TO.N,/Stepper controller/U_reg_after_jumper*%
X156600000Y-118020000D03*
%TO.P,C7,2*%
%TO.N,Net-(U3-VCP)*%
X156600000Y-119580000D03*
%TD*%
D18*
%TO.P,TP8,1,1_1*%
%TO.N,U_reg*%
X105300000Y-101700000D03*
%TD*%
%TO.P,TP5,1,1_1*%
%TO.N,Net-(U3-BRA)*%
X155400000Y-112050000D03*
%TD*%
D38*
%TO.P,RV1,1,1_1*%
%TO.N,Net-(R5-Pad2)*%
X165295000Y-108460000D03*
%TO.P,RV1,2,2_2*%
%TO.N,Net-(U3-AIN_IREF)*%
X165295000Y-111000000D03*
%TO.P,RV1,3,3_3*%
%TO.N,GND*%
X165295000Y-113540000D03*
%TD*%
D30*
%TO.P,J8,1,Pin_1_1*%
%TO.N,/Buck Regulator/sw-vin*%
X113200000Y-119860000D03*
D31*
%TO.P,J8,2,Pin_2_2*%
%TO.N,Vin*%
X113200000Y-122400000D03*
%TO.P,J8,3,Pin_3_3*%
%TO.N,Net-(D6-A)*%
X113200000Y-124940000D03*
%TD*%
D12*
%TO.P,R15,1*%
%TO.N,Net-(R15-Pad1)*%
X100300000Y-104800000D03*
%TO.P,R15,2*%
%TO.N,U_reg*%
X99300000Y-104800000D03*
%TD*%
D39*
%TO.P,SW1,1*%
%TO.N,unconnected-(SW1-Pad1)*%
X103802500Y-112005000D03*
D40*
%TO.P,SW1,2*%
%TO.N,Net-(U5-FB)*%
X106342500Y-112005000D03*
%TO.P,SW1,3*%
X108882500Y-112005000D03*
%TO.P,SW1,4*%
X111422500Y-112005000D03*
%TO.P,SW1,5*%
%TO.N,Net-(R16-Pad1)*%
X111422500Y-104385000D03*
%TO.P,SW1,6*%
%TO.N,Net-(R15-Pad1)*%
X108882500Y-104385000D03*
%TO.P,SW1,7*%
%TO.N,Net-(R14-Pad1)*%
X106342500Y-104385000D03*
%TO.P,SW1,8*%
%TO.N,unconnected-(SW1-Pad8)*%
X103802500Y-104385000D03*
%TD*%
D34*
%TO.P,D8,1,K_1*%
%TO.N,U_reg*%
X129000000Y-121870000D03*
%TO.P,D8,2,A_2*%
%TO.N,Net-(D5-K)*%
X129000000Y-128730000D03*
%TD*%
D41*
%TO.P,C14,1*%
%TO.N,/Stepper controller/U_reg_after_jumper*%
X168750000Y-119700000D03*
%TO.P,C14,2*%
%TO.N,GND*%
X174150000Y-119700000D03*
%TD*%
D33*
%TO.P,C1,1*%
%TO.N,+3V3*%
X149050000Y-106980000D03*
%TO.P,C1,2*%
%TO.N,GND*%
X149050000Y-105420000D03*
%TD*%
D42*
%TO.P,J6,1,Pin_1_1*%
%TO.N,/Stepper controller/ENCN_DCO*%
X161000000Y-135350000D03*
D43*
%TO.P,J6,2,Pin_2_2*%
%TO.N,/Stepper controller/ENCB_DCEN_CFG4*%
X163500000Y-135350000D03*
%TO.P,J6,3,Pin_3_3*%
%TO.N,/Stepper controller/ENCA_DCIN_CFG5*%
X166000000Y-135350000D03*
%TD*%
D41*
%TO.P,C15,1*%
%TO.N,/Stepper controller/U_reg_after_jumper*%
X168500000Y-126950000D03*
%TO.P,C15,2*%
%TO.N,GND*%
X173900000Y-126950000D03*
%TD*%
D44*
%TO.P,C11,1*%
%TO.N,Net-(C10-Pad2)*%
X135570000Y-104800000D03*
%TO.P,C11,2*%
%TO.N,GND*%
X138530000Y-104800000D03*
%TD*%
D18*
%TO.P,TP2,1,1_1*%
%TO.N,Net-(U3-SWP_DIAG1)*%
X150000000Y-124850000D03*
%TD*%
D45*
%TO.P,C51,1*%
%TO.N,/Buck Regulator/sw-vin*%
X107900000Y-120600000D03*
%TO.P,C51,2*%
%TO.N,GND*%
X99900000Y-120600000D03*
%TD*%
D15*
%TO.P,C18,1*%
%TO.N,+3V3*%
X158780000Y-97300000D03*
%TO.P,C18,2*%
%TO.N,GND*%
X157220000Y-97300000D03*
%TD*%
D13*
%TO.P,R11,1*%
%TO.N,Net-(C20-Pad2)*%
X114050000Y-117400000D03*
%TO.P,R11,2*%
%TO.N,GND*%
X115050000Y-117400000D03*
%TD*%
D36*
%TO.P,D5,1,K_1*%
%TO.N,Net-(D5-K)*%
X130430000Y-134600000D03*
%TO.P,D5,2,A_2*%
%TO.N,Net-(D5-A)*%
X123570000Y-134600000D03*
%TD*%
D46*
%TO.P,U3,1,TST_MODE_1*%
%TO.N,GND*%
X153375000Y-112462500D03*
%TO.P,U3,2,CLK_2*%
X152875000Y-112462500D03*
%TO.P,U3,3,~{CS}_CFG3_3*%
%TO.N,/Bus_switch/Chainbus.CS*%
X152375000Y-112462500D03*
%TO.P,U3,4,SCK_CFG2_4*%
%TO.N,/Bus_switch/Chainbus.SCK*%
X151875000Y-112462500D03*
%TO.P,U3,5,SDI_NAI_CFG1_5*%
%TO.N,/Bus_switch/Chainbus.MOSI*%
X151375000Y-112462500D03*
%TO.P,U3,6,NC_6*%
%TO.N,unconnected-(U3-NC-Pad6)*%
X150875000Y-112462500D03*
%TO.P,U3,7,SDO_NAO_CFG0_7*%
%TO.N,/Bus_switch/Chainbus.MISO*%
X150375000Y-112462500D03*
%TO.P,U3,8,REFL_STEP_8*%
%TO.N,GND*%
X149875000Y-112462500D03*
%TO.P,U3,9,REFR_DIR_9*%
X149375000Y-112462500D03*
%TO.P,U3,10,VCC_IO_10*%
%TO.N,+3V3*%
X148875000Y-112462500D03*
%TO.P,U3,11,SD_MODE_11*%
%TO.N,GND*%
X148375000Y-112462500D03*
%TO.P,U3,12,SPI_MODE_12*%
%TO.N,unconnected-(U3-SPI_MODE-Pad12)*%
X147875000Y-112462500D03*
D47*
%TO.P,U3,13,GNDP_13*%
%TO.N,GND*%
X146462500Y-113875000D03*
%TO.P,U3,14,DNC_14*%
%TO.N,unconnected-(U3-DNC-Pad14)*%
X146462500Y-114375000D03*
%TO.P,U3,15,OB1_15*%
%TO.N,/Stepper controller/OB1*%
X146462500Y-114875000D03*
%TO.P,U3,16,DNC_16*%
%TO.N,unconnected-(U3-DNC-Pad16)*%
X146462500Y-115375000D03*
%TO.P,U3,17,BRB_17*%
%TO.N,Net-(U3-BRB)*%
X146462500Y-115875000D03*
%TO.P,U3,18,DNC_18*%
%TO.N,unconnected-(U3-DNC-Pad18)*%
X146462500Y-116375000D03*
%TO.P,U3,19,OB2_19*%
%TO.N,/Stepper controller/OB2*%
X146462500Y-116875000D03*
%TO.P,U3,20,DNC_20*%
%TO.N,unconnected-(U3-DNC-Pad20)*%
X146462500Y-117375000D03*
%TO.P,U3,21,VS_21*%
%TO.N,/Stepper controller/U_reg_after_jumper*%
X146462500Y-117875000D03*
%TO.P,U3,22,DNC_22*%
%TO.N,unconnected-(U3-DNC-Pad22)*%
X146462500Y-118375000D03*
%TO.P,U3,23,ENCN_DCO_23*%
%TO.N,/Stepper controller/ENCN_DCO*%
X146462500Y-118875000D03*
%TO.P,U3,24,ENCB_DCEN_CFG4_24*%
%TO.N,/Stepper controller/ENCB_DCEN_CFG4*%
X146462500Y-119375000D03*
D46*
%TO.P,U3,25,ENCA_DCIN_CFG5_25*%
%TO.N,/Stepper controller/ENCA_DCIN_CFG5*%
X147875000Y-120787500D03*
%TO.P,U3,26,SWN_DIAG0_26*%
%TO.N,Net-(U3-SWN_DIAG0)*%
X148375000Y-120787500D03*
%TO.P,U3,27,SWP_DIAG1_27*%
%TO.N,Net-(U3-SWP_DIAG1)*%
X148875000Y-120787500D03*
%TO.P,U3,28,SWSEL_28*%
%TO.N,Net-(U3-SWSEL)*%
X149375000Y-120787500D03*
%TO.P,U3,29,~{DRV_EN}_CFG6_29*%
%TO.N,GND*%
X149875000Y-120787500D03*
%TO.P,U3,30,AIN_IREF_30*%
%TO.N,Net-(U3-AIN_IREF)*%
X150375000Y-120787500D03*
%TO.P,U3,31,NC_31*%
%TO.N,unconnected-(U3-NC-Pad31)*%
X150875000Y-120787500D03*
%TO.P,U3,32,GNDA_32*%
%TO.N,GND*%
X151375000Y-120787500D03*
%TO.P,U3,33,5VOUT_33*%
%TO.N,/Stepper controller/5VOUT*%
X151875000Y-120787500D03*
%TO.P,U3,34,VCC_34*%
%TO.N,Net-(U3-VCC)*%
X152375000Y-120787500D03*
%TO.P,U3,35,CP0_35*%
%TO.N,Net-(U3-CP0)*%
X152875000Y-120787500D03*
%TO.P,U3,36,NC_36*%
%TO.N,unconnected-(U3-NC-Pad36)*%
X153375000Y-120787500D03*
D47*
%TO.P,U3,37,CPI_37*%
%TO.N,Net-(U3-CPI)*%
X154787500Y-119375000D03*
%TO.P,U3,38,VCP_38*%
%TO.N,Net-(U3-VCP)*%
X154787500Y-118875000D03*
%TO.P,U3,39,VSA_39*%
%TO.N,/Stepper controller/U_reg_after_jumper*%
X154787500Y-118375000D03*
%TO.P,U3,40,VS_40*%
X154787500Y-117875000D03*
%TO.P,U3,41,DNC_41*%
%TO.N,unconnected-(U3-DNC-Pad41)*%
X154787500Y-117375000D03*
%TO.P,U3,42,OA2_42*%
%TO.N,/Stepper controller/OA2*%
X154787500Y-116875000D03*
%TO.P,U3,43,DNC_43*%
%TO.N,unconnected-(U3-DNC-Pad43)*%
X154787500Y-116375000D03*
%TO.P,U3,44,BRA_44*%
%TO.N,Net-(U3-BRA)*%
X154787500Y-115875000D03*
%TO.P,U3,45,DNC_45*%
%TO.N,unconnected-(U3-DNC-Pad45)*%
X154787500Y-115375000D03*
%TO.P,U3,46,OA1_46*%
%TO.N,/Stepper controller/OA1*%
X154787500Y-114875000D03*
%TO.P,U3,47,DNC_47*%
%TO.N,unconnected-(U3-DNC-Pad47)*%
X154787500Y-114375000D03*
%TO.P,U3,48,GNDP_48*%
%TO.N,GND*%
X154787500Y-113875000D03*
D48*
%TO.P,U3,49,EP_49*%
X152875000Y-114375000D03*
X151750000Y-114375000D03*
X150625000Y-114375000D03*
X149500000Y-114375000D03*
X148375000Y-114375000D03*
X152875000Y-115500000D03*
X151750000Y-115500000D03*
X150625000Y-115500000D03*
X149500000Y-115500000D03*
X148375000Y-115500000D03*
X152875000Y-116625000D03*
X151750000Y-116625000D03*
X150625000Y-116625000D03*
D49*
X150625000Y-116625000D03*
D48*
X149500000Y-116625000D03*
X148375000Y-116625000D03*
X152875000Y-117750000D03*
X151750000Y-117750000D03*
X150625000Y-117750000D03*
X149500000Y-117750000D03*
X148375000Y-117750000D03*
X152875000Y-118875000D03*
X151750000Y-118875000D03*
X150625000Y-118875000D03*
X149500000Y-118875000D03*
X148375000Y-118875000D03*
%TD*%
D20*
%TO.P,R20,1*%
%TO.N,+3V3*%
X149900000Y-96300000D03*
%TO.P,R20,2*%
%TO.N,/Bus_switch/Chainbus.TX*%
X149900000Y-97300000D03*
%TD*%
D50*
%TO.P,C10,1*%
%TO.N,/Stepper controller/U_reg_after_jumper*%
X133600000Y-106680000D03*
%TO.P,C10,2*%
%TO.N,Net-(C10-Pad2)*%
X133600000Y-103720000D03*
%TD*%
D14*
%TO.P,C16,1*%
%TO.N,+5V*%
X167120000Y-92800000D03*
%TO.P,C16,2*%
%TO.N,GND*%
X168680000Y-92800000D03*
%TD*%
D37*
%TO.P,C4,1*%
%TO.N,/Stepper controller/5VOUT*%
X151700000Y-125970000D03*
%TO.P,C4,2*%
%TO.N,GND*%
X151700000Y-127530000D03*
%TD*%
D10*
%TO.P,R3,1*%
%TO.N,/Bus_switch/Chainbus.SCK*%
X156900000Y-104700000D03*
%TO.P,R3,2*%
%TO.N,GND*%
X156900000Y-103700000D03*
%TD*%
D33*
%TO.P,C23,1*%
%TO.N,U_reg*%
X95500000Y-94880000D03*
%TO.P,C23,2*%
%TO.N,Net-(C23-Pad2)*%
X95500000Y-93320000D03*
%TD*%
%TO.P,C8,1*%
%TO.N,/Stepper controller/U_reg_after_jumper*%
X131800000Y-105180000D03*
%TO.P,C8,2*%
%TO.N,Net-(C10-Pad2)*%
X131800000Y-103620000D03*
%TD*%
D10*
%TO.P,R17,1*%
%TO.N,U_reg*%
X96900000Y-95000000D03*
%TO.P,R17,2*%
%TO.N,Net-(C23-Pad2)*%
X96900000Y-94000000D03*
%TD*%
D51*
%TO.P,D7,1*%
%TO.N,GND*%
X175333662Y-102217037D03*
%TO.P,D7,2*%
%TO.N,Net-(D7-Pad2)*%
X175333662Y-100637037D03*
%TD*%
D42*
%TO.P,J7,1,Pin_1_1*%
%TO.N,/Stepper controller/OB1*%
X146500000Y-133655000D03*
D43*
%TO.P,J7,2,Pin_2_2*%
%TO.N,/Stepper controller/OB2*%
X149000000Y-133655000D03*
%TO.P,J7,3,Pin_3_3*%
%TO.N,/Stepper controller/OA2*%
X151500000Y-133655000D03*
%TO.P,J7,4,Pin_4_4*%
%TO.N,/Stepper controller/OA1*%
X154000000Y-133655000D03*
%TD*%
D34*
%TO.P,D4,1,K_1*%
%TO.N,/Buck Regulator/sw*%
X82600000Y-109670000D03*
%TO.P,D4,2,A_2*%
%TO.N,GND*%
X82600000Y-116530000D03*
%TD*%
D52*
%TO.P,U4,1,GND_1*%
%TO.N,GND*%
X165000000Y-97000000D03*
%TO.P,U4,2,VOUT_2*%
%TO.N,+3V3*%
X165000000Y-94700000D03*
%TO.P,U4,3,VIN_3*%
%TO.N,+5V*%
X165000000Y-92400000D03*
D53*
%TO.P,U4,4,VOUT_4*%
%TO.N,+3V3*%
X159030000Y-93700000D03*
X159030000Y-94700000D03*
D54*
X159030000Y-94700000D03*
D53*
X159030000Y-95700000D03*
%TD*%
D18*
%TO.P,TP3,1,1_1*%
%TO.N,Net-(U3-SWN_DIAG0)*%
X153850000Y-126400000D03*
%TD*%
D55*
%TO.P,U5,1,VIN_1*%
%TO.N,/Buck Regulator/sw-vin*%
X95200000Y-112825000D03*
%TO.P,U5,2,OUT_2*%
%TO.N,/Buck Regulator/sw*%
X93500000Y-112825000D03*
%TO.P,U5,3,GND_3*%
%TO.N,GND*%
X91800000Y-112825000D03*
D56*
X91800000Y-121975000D03*
D55*
%TO.P,U5,4,FB_4*%
%TO.N,Net-(U5-FB)*%
X90100000Y-112825000D03*
%TO.P,U5,5,~{ON}/OFF_5*%
%TO.N,GND*%
X88400000Y-112825000D03*
%TD*%
D15*
%TO.P,C22,1*%
%TO.N,Net-(U5-FB)*%
X100330000Y-108000000D03*
%TO.P,C22,2*%
%TO.N,U_reg*%
X98770000Y-108000000D03*
%TD*%
D14*
%TO.P,C9,1*%
%TO.N,Net-(C10-Pad2)*%
X135520000Y-103050000D03*
%TO.P,C9,2*%
%TO.N,GND*%
X137080000Y-103050000D03*
%TD*%
D57*
%TO.P,D3,1*%
%TO.N,GND*%
X140975000Y-110375000D03*
%TO.P,D3,2*%
%TO.N,/Stepper controller/U_reg_after_jumper*%
X136675000Y-110375000D03*
%TD*%
D58*
%TO.N,/Stepper controller/U_reg_after_jumper*%
X164600000Y-120000000D03*
X164600000Y-120800000D03*
X137700000Y-113000000D03*
X136900000Y-113000000D03*
X165400000Y-120800000D03*
X165400000Y-118600000D03*
X137700000Y-114500000D03*
X157700000Y-120000000D03*
X136900000Y-114500000D03*
X136853881Y-115320031D03*
X158350000Y-119350000D03*
X158350000Y-120000000D03*
X157700000Y-119350000D03*
X138500000Y-113000000D03*
X138500000Y-112300000D03*
X165400000Y-120000000D03*
X164600000Y-118600000D03*
X157700000Y-118700000D03*
X136900000Y-113700000D03*
X164600000Y-119300000D03*
X136900000Y-112300000D03*
X137700000Y-113700000D03*
X138500000Y-113700000D03*
X144700000Y-118250000D03*
X137700000Y-112300000D03*
X136775163Y-116119316D03*
X145100000Y-117850000D03*
X138500000Y-114500000D03*
X165400000Y-119300000D03*
%TO.N,/Bus_switch/SEL1*%
X140000000Y-107200000D03*
X141200000Y-105500000D03*
%TO.N,/Bus_switch/Chainbus_In.RX*%
X148200000Y-98050000D03*
%TO.N,/Bus_switch/Chainbus_In.TX*%
X145650000Y-97950000D03*
%TO.N,/Bus_switch/Chainbus.TX*%
X149900000Y-97900000D03*
X145300000Y-100000000D03*
%TO.N,/Bus_switch/Chainbus.MISO*%
X149500000Y-104400000D03*
X153100000Y-107900000D03*
X144600000Y-102400000D03*
X150600000Y-107800000D03*
%TO.N,/Bus_switch/Chainbus_In.MISO*%
X143000000Y-98000000D03*
%TO.N,/Bus_switch/Chainbus_In.MOSI*%
X140450000Y-98000000D03*
%TO.N,/Bus_switch/Chainbus.MOSI*%
X148600000Y-103600000D03*
X151375000Y-108800000D03*
X152900000Y-108800000D03*
X146100000Y-102900000D03*
%TO.N,/Bus_switch/Chainbus.SCK*%
X155700000Y-105100000D03*
X154800000Y-106300000D03*
X148700000Y-102800000D03*
X147100000Y-102900000D03*
%TO.N,/Bus_switch/Chainbus_In.SCK*%
X137850000Y-98050000D03*
%TO.N,GND*%
X170500000Y-102700000D03*
X100750000Y-123600000D03*
X123450000Y-104600000D03*
X133050000Y-92050000D03*
X101550000Y-122900000D03*
X102250000Y-124400000D03*
X99200000Y-124400000D03*
X139750000Y-104800000D03*
X141650000Y-108750000D03*
X115650000Y-93800000D03*
X115650000Y-91750000D03*
X173900000Y-125700000D03*
X98450000Y-125100000D03*
X110100000Y-92950000D03*
X99200000Y-125100000D03*
X174650000Y-128200000D03*
X148150000Y-92950000D03*
X167050000Y-97300000D03*
X173150000Y-125700000D03*
X139700000Y-101250000D03*
X116200000Y-118200000D03*
X102250000Y-125100000D03*
X99200000Y-123600000D03*
X167800000Y-97300000D03*
X132750000Y-119000000D03*
X167800000Y-96600000D03*
X156200000Y-97300000D03*
X99250000Y-122900000D03*
X170550000Y-98800000D03*
X162500000Y-104250000D03*
X130500000Y-94000000D03*
X99950000Y-124400000D03*
X167050000Y-96600000D03*
X173400000Y-120950000D03*
X102300000Y-122900000D03*
X173400000Y-118450000D03*
X155650000Y-108800000D03*
X174900000Y-120950000D03*
X99950000Y-125100000D03*
X152800000Y-127550000D03*
X124200000Y-103800000D03*
X138000000Y-103000000D03*
X155200000Y-122400000D03*
X124200000Y-104600000D03*
X157500000Y-102800000D03*
X170600000Y-100150000D03*
X135250000Y-119750000D03*
X102250000Y-123600000D03*
X116900000Y-115300000D03*
X100750000Y-124400000D03*
X123450000Y-103800000D03*
X123500000Y-103100000D03*
X174650000Y-125700000D03*
X175350000Y-103550000D03*
X148150000Y-94000000D03*
X98500000Y-122900000D03*
X148150000Y-91950000D03*
X116900000Y-116000000D03*
X116950000Y-117500000D03*
X141700000Y-112000000D03*
X116950000Y-116700000D03*
X124250000Y-103100000D03*
X140950000Y-112000000D03*
X98600000Y-110000000D03*
X173150000Y-128200000D03*
X116950000Y-118200000D03*
X174150000Y-120950000D03*
X123450000Y-105300000D03*
X143700000Y-111400000D03*
X124200000Y-105300000D03*
X170500000Y-101350000D03*
X115650000Y-92750000D03*
X174900000Y-118450000D03*
X135250000Y-119000000D03*
X100000000Y-122900000D03*
X150050000Y-105400000D03*
X110100000Y-91950000D03*
X99950000Y-123600000D03*
X140150000Y-108750000D03*
X101500000Y-123600000D03*
X140200000Y-112000000D03*
X133050000Y-94100000D03*
X100750000Y-125100000D03*
X140900000Y-108750000D03*
X130500000Y-92950000D03*
X132750000Y-118250000D03*
X98450000Y-124400000D03*
X135600000Y-92000000D03*
X97600000Y-91900000D03*
X101500000Y-124400000D03*
X92900000Y-91900000D03*
X139709886Y-104149980D03*
X155600000Y-107900000D03*
X157800000Y-108100000D03*
X135250000Y-118250000D03*
X100800000Y-122900000D03*
X132750000Y-119750000D03*
X135600000Y-94050000D03*
X148900000Y-107900000D03*
X135600000Y-93000000D03*
X137050000Y-102050000D03*
X110100000Y-94000000D03*
X173900000Y-128200000D03*
X139750000Y-105450000D03*
X133050000Y-93050000D03*
X98450000Y-123600000D03*
X130500000Y-91950000D03*
X174150000Y-118450000D03*
X101500000Y-125100000D03*
%TO.N,/Bus_switch/Chainbus_In.CS*%
X135400000Y-98050000D03*
%TO.N,/Bus_switch/Chainbus.CS*%
X142900000Y-108700000D03*
X152400000Y-110900000D03*
%TO.N,/Bus_switch/Chainbus.SDA*%
X143600000Y-108500000D03*
%TO.N,/Bus_switch/Chainbus_In.SDA*%
X142200000Y-105600000D03*
X130300000Y-98100000D03*
%TO.N,/Bus_switch/Chainbus_In.SCL*%
X132850000Y-98050000D03*
X143900000Y-105900000D03*
%TO.N,/Bus_switch/Chainbus.SCL*%
X144600000Y-108400000D03*
%TO.N,+3V3*%
X155800000Y-106200000D03*
X150050000Y-107000000D03*
%TO.N,Net-(U5-FB)*%
X102700000Y-110600000D03*
X90100000Y-116200000D03*
%TO.N,Net-(U3-AIN_IREF)*%
X150600000Y-123400000D03*
%TO.N,/Stepper controller/5VOUT*%
X153300000Y-124850000D03*
X161800000Y-106600000D03*
%TO.N,Net-(U3-BRA)*%
X156450000Y-112250000D03*
X156308637Y-115878396D03*
%TO.N,Net-(U3-SWSEL)*%
X149350000Y-123400000D03*
X155950000Y-124000000D03*
%TO.N,Vin*%
X112400000Y-136400000D03*
X114900000Y-134300000D03*
X92400000Y-134300000D03*
X95200000Y-135100000D03*
X114900000Y-133600000D03*
X111000000Y-135700000D03*
X95900000Y-137100000D03*
X111700000Y-134400000D03*
X113500000Y-133600000D03*
X92400000Y-137100000D03*
X111700000Y-135700000D03*
X91100000Y-134300000D03*
X116200000Y-134300000D03*
X92400000Y-135700000D03*
X109600000Y-135700000D03*
X93100000Y-136400000D03*
X91100000Y-135000000D03*
X114200000Y-136400000D03*
X95200000Y-135700000D03*
X115500000Y-137100000D03*
X97300000Y-134400000D03*
X91800000Y-136400000D03*
X97300000Y-137100000D03*
X114200000Y-135700000D03*
X90400000Y-137100000D03*
X93100000Y-134300000D03*
X96600000Y-134400000D03*
X111000000Y-136400000D03*
X115500000Y-135700000D03*
X115500000Y-136400000D03*
X110300000Y-135700000D03*
X93800000Y-137100000D03*
X111000000Y-137100000D03*
X108900000Y-136400000D03*
X113500000Y-136400000D03*
X91800000Y-137100000D03*
X90400000Y-133600000D03*
X92400000Y-133600000D03*
X110300000Y-137100000D03*
X90400000Y-136400000D03*
X94500000Y-135100000D03*
X94500000Y-136400000D03*
X96600000Y-135100000D03*
X95900000Y-135700000D03*
X90400000Y-135000000D03*
X112400000Y-134400000D03*
X93100000Y-137100000D03*
X96600000Y-135700000D03*
X90400000Y-134300000D03*
X108900000Y-134400000D03*
X111000000Y-134400000D03*
X108900000Y-135100000D03*
X113500000Y-135000000D03*
X114200000Y-137100000D03*
X97300000Y-136400000D03*
X94500000Y-137100000D03*
X93800000Y-135700000D03*
X93100000Y-135700000D03*
X93100000Y-133600000D03*
X109600000Y-134400000D03*
X90400000Y-135700000D03*
X116200000Y-137100000D03*
X92400000Y-136400000D03*
X112400000Y-135700000D03*
X112400000Y-137100000D03*
X114200000Y-135000000D03*
X95200000Y-134400000D03*
X93800000Y-134400000D03*
X116200000Y-135000000D03*
X115500000Y-135000000D03*
X92400000Y-135000000D03*
X93800000Y-135100000D03*
X114900000Y-136400000D03*
X115500000Y-134300000D03*
X97300000Y-135100000D03*
X96600000Y-136400000D03*
X110300000Y-135100000D03*
X95900000Y-134400000D03*
X114900000Y-135000000D03*
X108900000Y-135700000D03*
X116200000Y-135700000D03*
X110300000Y-134400000D03*
X110300000Y-136400000D03*
X109600000Y-136400000D03*
X111700000Y-137100000D03*
X109600000Y-137100000D03*
X116200000Y-133600000D03*
X96600000Y-137100000D03*
X113500000Y-137100000D03*
X114900000Y-137100000D03*
X108900000Y-137100000D03*
X113500000Y-134300000D03*
X113500000Y-135700000D03*
X91100000Y-133600000D03*
X91800000Y-134300000D03*
X97300000Y-135700000D03*
X91100000Y-137100000D03*
X91800000Y-135000000D03*
X115500000Y-133600000D03*
X114900000Y-135700000D03*
X109600000Y-135100000D03*
X94500000Y-134400000D03*
X95900000Y-135100000D03*
X112400000Y-135100000D03*
X93100000Y-135000000D03*
X111000000Y-135100000D03*
X111700000Y-135100000D03*
X94500000Y-135700000D03*
X114200000Y-134300000D03*
X95200000Y-137100000D03*
X111700000Y-136400000D03*
X114200000Y-133600000D03*
X116200000Y-136400000D03*
X91100000Y-135700000D03*
X91800000Y-133600000D03*
X93800000Y-136400000D03*
X91100000Y-136400000D03*
X95900000Y-136400000D03*
X95200000Y-136400000D03*
X91800000Y-135700000D03*
%TO.N,/Interboard_connector/SEL2*%
X110250000Y-98000000D03*
%TO.N,+5V*%
X112750000Y-92000000D03*
X112750000Y-93600000D03*
X112750000Y-92850000D03*
X112750000Y-94300000D03*
X167000000Y-91800000D03*
%TO.N,/Interboard_connector/SEL3*%
X112750000Y-98000000D03*
%TO.N,/Interboard_connector/SEL4*%
X115250000Y-98000000D03*
%TO.N,/Interboard_connector/SEL5*%
X117750000Y-98000000D03*
%TO.N,BRD_VIN*%
X78700000Y-124000000D03*
X81800000Y-124800000D03*
X78700000Y-121700000D03*
X122900000Y-92950000D03*
X79300000Y-124000000D03*
X120350000Y-93900000D03*
X79300000Y-121700000D03*
X79300000Y-123200000D03*
X79300000Y-122400000D03*
X78700000Y-124800000D03*
X78700000Y-123200000D03*
X125450000Y-91950000D03*
X78700000Y-122400000D03*
X79300000Y-124800000D03*
X80600000Y-124000000D03*
X120350000Y-92900000D03*
X83000000Y-124800000D03*
X122900000Y-93950000D03*
X125450000Y-92950000D03*
X120350000Y-91900000D03*
X80600000Y-124800000D03*
X81200000Y-124000000D03*
X80000000Y-124000000D03*
X80000000Y-124800000D03*
X82400000Y-124000000D03*
X81800000Y-124000000D03*
X122900000Y-91950000D03*
X81200000Y-124800000D03*
X78700000Y-120900000D03*
X82400000Y-124800000D03*
X83000000Y-124000000D03*
X125450000Y-93950000D03*
X79300000Y-120900000D03*
%TO.N,/Interboard_connector/SEL6*%
X120250000Y-98000000D03*
%TO.N,/Interboard_connector/SEL7*%
X123063272Y-98063272D03*
%TO.N,/Interboard_connector/SEL8*%
X125563272Y-98063272D03*
%TO.N,+12V stby*%
X143400000Y-93050000D03*
%TO.N,Net-(U3-BRB)*%
X145000000Y-112800000D03*
X145000000Y-115900000D03*
%TO.N,/Stepper controller/ENCN_DCO*%
X145192652Y-120967778D03*
%TO.N,/Stepper controller/ENCB_DCEN_CFG4*%
X145987437Y-121762563D03*
%TO.N,/Stepper controller/ENCA_DCIN_CFG5*%
X147012437Y-122787563D03*
%TO.N,Net-(U3-SWN_DIAG0)*%
X148150000Y-123900000D03*
X153300000Y-125900000D03*
%TD*%
%TO.N,/Stepper controller/U_reg_after_jumper*%
D59*
X158125000Y-119125000D02*
X158000000Y-119250000D01*
X158000000Y-119250000D02*
X158000000Y-119800000D01*
D60*
X156495000Y-118125000D02*
X154700000Y-118125000D01*
D61*
X145125000Y-117875000D02*
X145100000Y-117850000D01*
D59*
X157020000Y-118020000D02*
X158125000Y-119125000D01*
D61*
X130800000Y-104600000D02*
X130800000Y-105200000D01*
X146462500Y-117875000D02*
X145125000Y-117875000D01*
D59*
X156600000Y-118020000D02*
X157020000Y-118020000D01*
D61*
X145100000Y-117850000D02*
X144700000Y-118250000D01*
X156600000Y-118020000D02*
X156495000Y-118125000D01*
%TO.N,Net-(C10-Pad2)*%
X130800000Y-103600000D02*
X130800000Y-103000000D01*
%TO.N,/Bus_switch/SEL1*%
X141200000Y-105500000D02*
X141601000Y-105099000D01*
X151920999Y-103620999D02*
X151920999Y-103520999D01*
X140587500Y-107200000D02*
X140725000Y-107062500D01*
X173600000Y-101600000D02*
X169500000Y-105700000D01*
X141601000Y-105099000D02*
X146799000Y-105099000D01*
X169500000Y-105700000D02*
X154000000Y-105700000D01*
X151920999Y-103520999D02*
X150300000Y-101900000D01*
X150300000Y-101900000D02*
X148437500Y-101900000D01*
X146800000Y-105100000D02*
X147875000Y-104025000D01*
X140000000Y-107200000D02*
X140587500Y-107200000D01*
X147875000Y-104025000D02*
X147875000Y-101337500D01*
X146799000Y-105099000D02*
X146800000Y-105100000D01*
X148437500Y-101900000D02*
X147875000Y-101337500D01*
X154000000Y-105700000D02*
X151920999Y-103620999D01*
%TO.N,/Bus_switch/Chainbus.RX*%
X147225000Y-100600001D02*
X149339000Y-98486001D01*
X147225000Y-101337500D02*
X147225000Y-100600001D01*
X150313999Y-98486001D02*
X151100000Y-97700000D01*
X149339000Y-98486001D02*
X150313999Y-98486001D01*
%TO.N,/Bus_switch/Chainbus_In.RX*%
X146575000Y-101337500D02*
X146575000Y-98553272D01*
X146575000Y-98553272D02*
X147050000Y-98078272D01*
X148171728Y-98078272D02*
X148200000Y-98050000D01*
X147050000Y-98078272D02*
X148171728Y-98078272D01*
%TO.N,/Bus_switch/Chainbus_In.TX*%
X144510000Y-98078272D02*
X145925000Y-99493272D01*
X145925000Y-99493272D02*
X145925000Y-101337500D01*
X145521728Y-98078272D02*
X145650000Y-97950000D01*
X144510000Y-98078272D02*
X145521728Y-98078272D01*
%TO.N,/Bus_switch/Chainbus.TX*%
X149900000Y-97900000D02*
X149900000Y-97500000D01*
X145275000Y-101337500D02*
X145275000Y-100025000D01*
X145275000Y-100025000D02*
X145300000Y-100000000D01*
%TO.N,/Bus_switch/Chainbus.MISO*%
X153900000Y-107900000D02*
X153100000Y-107900000D01*
X150375000Y-111375000D02*
X150551000Y-111199000D01*
X144600000Y-101362500D02*
X144625000Y-101337500D01*
X144600000Y-102400000D02*
X144600000Y-101362500D01*
X150551000Y-107800000D02*
X150600000Y-107800000D01*
X150551000Y-105192479D02*
X149758521Y-104400000D01*
X150551000Y-111199000D02*
X150551000Y-107800000D01*
X150375000Y-112462500D02*
X150375000Y-111375000D01*
X150551000Y-107800000D02*
X150551000Y-105192479D01*
X149758521Y-104400000D02*
X149500000Y-104400000D01*
%TO.N,/Bus_switch/Chainbus_In.MISO*%
X141970000Y-98078272D02*
X143975000Y-100083272D01*
X143975000Y-100083272D02*
X143975000Y-101337500D01*
X143000000Y-98000000D02*
X142048272Y-98000000D01*
X142048272Y-98000000D02*
X141970000Y-98078272D01*
%TO.N,/Bus_switch/Chainbus_In.MOSI*%
X139430000Y-98078272D02*
X141700728Y-100349000D01*
X139430000Y-98078272D02*
X140371728Y-98078272D01*
X143325000Y-100600001D02*
X143325000Y-101337500D01*
X141700728Y-100349000D02*
X143073999Y-100349000D01*
X143073999Y-100349000D02*
X143325000Y-100600001D01*
X140371728Y-98078272D02*
X140450000Y-98000000D01*
%TO.N,/Bus_switch/Chainbus.MOSI*%
X150200000Y-103600000D02*
X148600000Y-103600000D01*
X151375000Y-104775000D02*
X150200000Y-103600000D01*
X151375000Y-112462500D02*
X151375000Y-108800000D01*
X143500001Y-102900000D02*
X142675000Y-102074999D01*
X142675000Y-102074999D02*
X142675000Y-101337500D01*
X151375000Y-108800000D02*
X151375000Y-104775000D01*
X153900000Y-108800000D02*
X152900000Y-108800000D01*
X146100000Y-102900000D02*
X143500001Y-102900000D01*
%TO.N,/Bus_switch/Chainbus.SCK*%
X154400000Y-106700000D02*
X154800000Y-106300000D01*
X156100000Y-104700000D02*
X155700000Y-105100000D01*
X152100000Y-104500000D02*
X150400000Y-102800000D01*
X155700000Y-104200000D02*
X155700000Y-105100000D01*
X147100000Y-102900000D02*
X146599000Y-103401000D01*
X156900000Y-104700000D02*
X156100000Y-104700000D01*
X151899000Y-112438500D02*
X151899000Y-110692479D01*
X146599000Y-103401000D02*
X143351001Y-103401000D01*
X151875000Y-112462500D02*
X151899000Y-112438500D01*
X143351001Y-103401000D02*
X142025000Y-102074999D01*
X150400000Y-102800000D02*
X148700000Y-102800000D01*
X142025000Y-102074999D02*
X142025000Y-101337500D01*
X151899000Y-110692479D02*
X152100000Y-110491479D01*
X152100000Y-106700000D02*
X152100000Y-104500000D01*
X152100000Y-106700000D02*
X154400000Y-106700000D01*
X152100000Y-110491479D02*
X152100000Y-106700000D01*
%TO.N,/Bus_switch/Chainbus_In.SCK*%
X136890000Y-98078272D02*
X137821728Y-98078272D01*
X141375000Y-101337500D02*
X141375000Y-100750840D01*
X140453432Y-99829272D02*
X138641000Y-99829272D01*
X141375000Y-100750840D02*
X140453432Y-99829272D01*
X138641000Y-99829272D02*
X136890000Y-98078272D01*
X137821728Y-98078272D02*
X137850000Y-98050000D01*
%TO.N,GND*%
X157220000Y-97300000D02*
X156200000Y-97300000D01*
X139750000Y-104800000D02*
X138530000Y-104800000D01*
X151700000Y-127530000D02*
X152780000Y-127530000D01*
X139750000Y-105450000D02*
X139180000Y-105450000D01*
X138000000Y-103000000D02*
X137130000Y-103000000D01*
X139709886Y-104149980D02*
X139180020Y-104149980D01*
X151375000Y-120787500D02*
X151375000Y-117375000D01*
X168710000Y-101390000D02*
X170460000Y-101390000D01*
X151375000Y-117375000D02*
X150625000Y-116625000D01*
X170560000Y-100110000D02*
X170600000Y-100150000D01*
X149875000Y-117375000D02*
X150625000Y-116625000D01*
X152875000Y-114375000D02*
X150625000Y-116625000D01*
D59*
X93175000Y-120600000D02*
X91800000Y-121975000D01*
D61*
X137150000Y-102050000D02*
X136400000Y-102050000D01*
X148875000Y-109007500D02*
X148875000Y-107925000D01*
X168710000Y-102660000D02*
X170460000Y-102660000D01*
X149375000Y-115375000D02*
X149375000Y-112462500D01*
X165900000Y-97000000D02*
X165000000Y-97000000D01*
X154900000Y-107900000D02*
X155600000Y-107900000D01*
D59*
X99900000Y-120600000D02*
X93175000Y-120600000D01*
D61*
X157800000Y-109440000D02*
X157800000Y-108100000D01*
X161450000Y-104230000D02*
X162480000Y-104230000D01*
X152875000Y-112462500D02*
X152875000Y-114375000D01*
X143750000Y-111350000D02*
X143700000Y-111400000D01*
X155000000Y-122400000D02*
X155200000Y-122400000D01*
D59*
X96400000Y-123900000D02*
X97500000Y-123900000D01*
X88400000Y-112825000D02*
X88400000Y-118575000D01*
X97500000Y-123900000D02*
X98400000Y-123900000D01*
X94475000Y-121975000D02*
X96400000Y-123900000D01*
X91800000Y-121975000D02*
X94475000Y-121975000D01*
D61*
X170510000Y-98840000D02*
X170550000Y-98800000D01*
D59*
X91800000Y-112825000D02*
X91800000Y-121975000D01*
D61*
X96900000Y-91900000D02*
X97600000Y-91900000D01*
X149875000Y-115875000D02*
X150625000Y-116625000D01*
X154180000Y-122400000D02*
X155000000Y-122400000D01*
X154900000Y-108800000D02*
X155650000Y-108800000D01*
X149050000Y-105420000D02*
X150030000Y-105420000D01*
X150625000Y-116625000D02*
X149375000Y-115375000D01*
X139787500Y-101337500D02*
X139700000Y-101250000D01*
D59*
X167709634Y-97000000D02*
X165000000Y-97000000D01*
D61*
X175350000Y-101943655D02*
X175350000Y-103550000D01*
X148375000Y-114375000D02*
X150625000Y-116625000D01*
X168680000Y-94220000D02*
X165900000Y-97000000D01*
X150030000Y-105420000D02*
X150050000Y-105400000D01*
X168710000Y-98840000D02*
X170510000Y-98840000D01*
X139180000Y-105450000D02*
X138530000Y-104800000D01*
D59*
X88400000Y-118575000D02*
X91800000Y-121975000D01*
D61*
X148875000Y-107925000D02*
X148900000Y-107900000D01*
X149875000Y-120787500D02*
X149875000Y-117375000D01*
X99300000Y-109200000D02*
X99300000Y-109300000D01*
X156900000Y-103700000D02*
X156900000Y-103400000D01*
X146462500Y-113875000D02*
X147875000Y-113875000D01*
X170460000Y-102660000D02*
X170500000Y-102700000D01*
X99300000Y-109300000D02*
X98600000Y-110000000D01*
X154787500Y-113875000D02*
X153375000Y-113875000D01*
X137130000Y-103000000D02*
X137080000Y-103050000D01*
X162480000Y-104230000D02*
X162500000Y-104250000D01*
X93920000Y-91900000D02*
X92900000Y-91900000D01*
X168680000Y-92800000D02*
X168680000Y-94220000D01*
X140725000Y-101337500D02*
X139787500Y-101337500D01*
X153375000Y-112462500D02*
X153375000Y-113875000D01*
X148375000Y-112462500D02*
X148375000Y-114375000D01*
X156900000Y-103400000D02*
X157500000Y-102800000D01*
X153375000Y-113875000D02*
X152875000Y-114375000D01*
X152780000Y-127530000D02*
X152800000Y-127550000D01*
D59*
X97500000Y-123900000D02*
X97500000Y-121300000D01*
D61*
X170460000Y-101390000D02*
X170500000Y-101350000D01*
X143750000Y-109940000D02*
X143750000Y-111350000D01*
X153375000Y-113875000D02*
X151750000Y-115500000D01*
X168710000Y-100110000D02*
X170560000Y-100110000D01*
X147875000Y-113875000D02*
X148375000Y-114375000D01*
X149875000Y-112462500D02*
X149875000Y-115875000D01*
D59*
X167800000Y-96909634D02*
X167709634Y-97000000D01*
D61*
X139180020Y-104149980D02*
X138530000Y-104800000D01*
%TO.N,/Bus_switch/Chainbus_In.CS*%
X141375000Y-107062500D02*
X141176000Y-106863500D01*
X141176000Y-106863500D02*
X141176000Y-106276840D01*
X140973160Y-106074000D02*
X140600000Y-106074000D01*
X140600000Y-104328272D02*
X134350000Y-98078272D01*
X135371728Y-98078272D02*
X135400000Y-98050000D01*
X134350000Y-98078272D02*
X135371728Y-98078272D01*
X140600000Y-106074000D02*
X140600000Y-104328272D01*
X141176000Y-106276840D02*
X140973160Y-106074000D01*
%TO.N,/Bus_switch/Chainbus.CS*%
X152700000Y-110600000D02*
X152400000Y-110900000D01*
X142025000Y-107825000D02*
X142025000Y-107062500D01*
X152375000Y-110925000D02*
X152400000Y-110900000D01*
X152375000Y-112462500D02*
X152375000Y-110925000D01*
X142900000Y-108700000D02*
X142025000Y-107825000D01*
X153200000Y-110600000D02*
X152700000Y-110600000D01*
%TO.N,/Bus_switch/Chainbus.SDA*%
X143600000Y-108500000D02*
X143151000Y-108051000D01*
X142800000Y-107187500D02*
X142675000Y-107062500D01*
X152622000Y-98548000D02*
X151170000Y-100000000D01*
X142800000Y-107700000D02*
X142800000Y-107187500D01*
X142874000Y-107848160D02*
X142874000Y-107774000D01*
X143151000Y-108051000D02*
X143076840Y-108051000D01*
X152800000Y-102300000D02*
X152800000Y-101630000D01*
X142874000Y-107774000D02*
X142800000Y-107700000D01*
X163290000Y-98840000D02*
X162998000Y-98548000D01*
X152800000Y-101630000D02*
X151170000Y-100000000D01*
X162998000Y-98548000D02*
X157750000Y-98548000D01*
X157750000Y-98548000D02*
X152622000Y-98548000D01*
X143076840Y-108051000D02*
X142874000Y-107848160D01*
%TO.N,/Bus_switch/Chainbus_In.SDA*%
X130278272Y-98078272D02*
X130300000Y-98100000D01*
X143325000Y-106325001D02*
X143325000Y-107062500D01*
X142599999Y-105600000D02*
X143325000Y-106325001D01*
X129270000Y-98078272D02*
X130278272Y-98078272D01*
X142200000Y-105600000D02*
X142599999Y-105600000D01*
%TO.N,/Bus_switch/Chainbus_In.SCL*%
X143900000Y-105900000D02*
X143900000Y-106987500D01*
X131810000Y-98078272D02*
X132821728Y-98078272D01*
X132821728Y-98078272D02*
X132850000Y-98050000D01*
X143900000Y-106987500D02*
X143975000Y-107062500D01*
%TO.N,/Bus_switch/Chainbus.SCL*%
X163290000Y-100110000D02*
X162600000Y-100110000D01*
X154811000Y-98899000D02*
X153710000Y-100000000D01*
X144600000Y-108400000D02*
X144600000Y-107087500D01*
X154811000Y-98899000D02*
X161389000Y-98899000D01*
X153700000Y-102200000D02*
X153700000Y-100010000D01*
X153700000Y-100010000D02*
X153710000Y-100000000D01*
X144600000Y-107087500D02*
X144625000Y-107062500D01*
X162600000Y-100110000D02*
X161389000Y-98899000D01*
%TO.N,+3V3*%
D59*
X159030000Y-94700000D02*
X159030000Y-97050000D01*
D62*
X154700000Y-103010432D02*
X154600000Y-103110432D01*
X154700000Y-102200000D02*
X154700000Y-103010432D01*
X155200000Y-110600000D02*
X156200000Y-109600000D01*
X154200000Y-110600000D02*
X155200000Y-110600000D01*
X158780000Y-97300000D02*
X158780000Y-95950000D01*
X156400000Y-95700000D02*
X158030000Y-95700000D01*
X148875000Y-110567500D02*
X148875000Y-112462500D01*
X150050000Y-107000000D02*
X147937500Y-107000000D01*
X161450000Y-102660000D02*
X158790000Y-100000000D01*
X154400000Y-97700000D02*
X156400000Y-95700000D01*
X150050000Y-107000000D02*
X150050000Y-109392500D01*
X147937500Y-107000000D02*
X147875000Y-107062500D01*
X154600000Y-103110432D02*
X154500000Y-103010432D01*
X150050000Y-109392500D02*
X148875000Y-110567500D01*
X155779568Y-103010432D02*
X158790000Y-100000000D01*
D59*
X165000000Y-94700000D02*
X159030000Y-94700000D01*
D62*
X154600000Y-104500000D02*
X154600000Y-103110432D01*
X156200000Y-106600000D02*
X155800000Y-106200000D01*
X154410432Y-103300000D02*
X154600000Y-103110432D01*
X149900000Y-96300000D02*
X150800000Y-96300000D01*
X152200000Y-97700000D02*
X154400000Y-97700000D01*
X156200000Y-109600000D02*
X156200000Y-106600000D01*
X163290000Y-102660000D02*
X161450000Y-102660000D01*
X155779568Y-103010432D02*
X154500000Y-103010432D01*
D59*
X159030000Y-97050000D02*
X158780000Y-97300000D01*
D62*
X158780000Y-95950000D02*
X159030000Y-95700000D01*
X150800000Y-96300000D02*
X152200000Y-97700000D01*
X152800000Y-103300000D02*
X154410432Y-103300000D01*
X158030000Y-95700000D02*
X159030000Y-94700000D01*
%TO.N,Net-(U3-VCC)*%
D61*
X154200000Y-124200000D02*
X152620000Y-122620000D01*
X152375000Y-122155000D02*
X152375000Y-120787500D01*
X152620000Y-122400000D02*
X152375000Y-122155000D01*
X154800000Y-124200000D02*
X154200000Y-124200000D01*
X152620000Y-122620000D02*
X152620000Y-122400000D01*
%TO.N,Net-(C23-Pad2)*%
X96900000Y-94000000D02*
X96900000Y-92900000D01*
X95480000Y-92600000D02*
X95480000Y-93300000D01*
X95480000Y-91900000D02*
X95480000Y-92600000D01*
X96150000Y-92990000D02*
X96480000Y-93320000D01*
X95580000Y-93320000D02*
X96150000Y-92750000D01*
X96150000Y-92750000D02*
X96150000Y-92990000D01*
X95500000Y-93320000D02*
X96480000Y-93320000D01*
X96220000Y-93320000D02*
X96900000Y-94000000D01*
X96150000Y-92750000D02*
X96240000Y-92660000D01*
X95480000Y-92600000D02*
X96000000Y-92600000D01*
X96480000Y-92900000D02*
X96240000Y-92660000D01*
X96900000Y-92900000D02*
X96480000Y-92900000D01*
X96000000Y-92600000D02*
X96150000Y-92750000D01*
X96480000Y-93320000D02*
X96900000Y-92900000D01*
X96240000Y-92660000D02*
X95480000Y-91900000D01*
X95500000Y-93320000D02*
X96220000Y-93320000D01*
X95500000Y-93320000D02*
X95580000Y-93320000D01*
X95480000Y-93300000D02*
X95500000Y-93320000D01*
%TO.N,Net-(U5-FB)*%
X100330000Y-106830000D02*
X100300000Y-106800000D01*
X100300000Y-108030000D02*
X100330000Y-108000000D01*
X101300000Y-109200000D02*
X102700000Y-110600000D01*
D59*
X106342500Y-112005000D02*
X111422500Y-112005000D01*
D61*
X90100000Y-112825000D02*
X90100000Y-116200000D01*
X100330000Y-108000000D02*
X100330000Y-106830000D01*
X100300000Y-109200000D02*
X101300000Y-109200000D01*
X100300000Y-109200000D02*
X100300000Y-108030000D01*
X100330000Y-108000000D02*
X100330000Y-108230000D01*
%TO.N,Net-(U3-AIN_IREF)*%
X162300000Y-111000000D02*
X160850000Y-109550000D01*
X150375000Y-120787500D02*
X150375000Y-123175000D01*
X150375000Y-123175000D02*
X150600000Y-123400000D01*
X165295000Y-111000000D02*
X162300000Y-111000000D01*
%TO.N,/Stepper controller/5VOUT*%
X152250000Y-124200000D02*
X151880000Y-124200000D01*
X151875000Y-124195000D02*
X151880000Y-124200000D01*
X152350000Y-124300000D02*
X152250000Y-124200000D01*
X151880000Y-124200000D02*
X152650000Y-124200000D01*
X151880000Y-124200000D02*
X151880000Y-125790000D01*
X151880000Y-125790000D02*
X151700000Y-125970000D01*
X160950000Y-106600000D02*
X160700000Y-106850000D01*
X161800000Y-106600000D02*
X160950000Y-106600000D01*
X152650000Y-124200000D02*
X153300000Y-124850000D01*
X151875000Y-120787500D02*
X151875000Y-124195000D01*
%TO.N,/Buck Regulator/sw-vin*%
D59*
X111560000Y-119860000D02*
X111500000Y-119800000D01*
X112860000Y-119860000D02*
X111900000Y-118900000D01*
D61*
X110800000Y-117400000D02*
X110200000Y-117400000D01*
D59*
X112416598Y-119860000D02*
X111976598Y-120300000D01*
X111976598Y-120300000D02*
X110700000Y-120300000D01*
X113200000Y-119860000D02*
X112416598Y-119860000D01*
X113200000Y-119860000D02*
X112860000Y-119860000D01*
X113200000Y-119860000D02*
X111560000Y-119860000D01*
D61*
X110800000Y-116620000D02*
X111020000Y-116400000D01*
X110800000Y-117400000D02*
X110800000Y-116620000D01*
%TO.N,Net-(C20-Pad2)*%
X114050000Y-117400000D02*
X113580000Y-117400000D01*
X114050000Y-116430000D02*
X114020000Y-116400000D01*
X113580000Y-117400000D02*
X112580000Y-116400000D01*
X113020000Y-117400000D02*
X111800000Y-117400000D01*
X114020000Y-116400000D02*
X113020000Y-117400000D01*
X114050000Y-117400000D02*
X114050000Y-116430000D01*
%TO.N,U_reg*%
D59*
X117900000Y-108800000D02*
X121200000Y-112100000D01*
X129000000Y-121870000D02*
X129000000Y-117300000D01*
X91600000Y-97650000D02*
X93850000Y-95400000D01*
D61*
X99300000Y-103800000D02*
X99300000Y-104800000D01*
D59*
X106100000Y-102200000D02*
X117900000Y-102200000D01*
D61*
X98770000Y-108000000D02*
X98770000Y-107330000D01*
X101400000Y-101700000D02*
X105300000Y-101700000D01*
D59*
X129000000Y-117300000D02*
X124500000Y-112800000D01*
X99300000Y-95400000D02*
X106100000Y-102200000D01*
X93850000Y-95400000D02*
X99300000Y-95400000D01*
X117900000Y-102200000D02*
X117900000Y-108800000D01*
D61*
X98770000Y-107330000D02*
X99300000Y-106800000D01*
X99300000Y-103800000D02*
X101400000Y-101700000D01*
X99300000Y-105800000D02*
X99300000Y-104800000D01*
D59*
X124500000Y-112800000D02*
X124500000Y-110400000D01*
D61*
X99300000Y-106800000D02*
X99300000Y-105800000D01*
%TO.N,Net-(U3-BRA)*%
X157800000Y-112360000D02*
X156560000Y-112360000D01*
X156305241Y-115875000D02*
X156308637Y-115878396D01*
X154787500Y-115875000D02*
X156305241Y-115875000D01*
X156560000Y-112360000D02*
X156450000Y-112250000D01*
X156250000Y-112050000D02*
X156450000Y-112250000D01*
X155400000Y-112050000D02*
X156250000Y-112050000D01*
%TO.N,Net-(U3-SWSEL)*%
X149350000Y-123400000D02*
X149350000Y-120812500D01*
X155950000Y-124000000D02*
X156650000Y-123300000D01*
X149350000Y-120812500D02*
X149375000Y-120787500D01*
X156650000Y-123300000D02*
X156650000Y-122950000D01*
%TO.N,Vin*%
D59*
X109977906Y-125227906D02*
X115100000Y-130350000D01*
X109977906Y-123753896D02*
X109977906Y-125227906D01*
X111331802Y-122400000D02*
X109977906Y-123753896D01*
X113200000Y-122400000D02*
X111331802Y-122400000D01*
%TO.N,Net-(R14-Pad1)*%
D61*
X105292500Y-103335000D02*
X106342500Y-104385000D01*
X100765000Y-103335000D02*
X105292500Y-103335000D01*
X100300000Y-103800000D02*
X100765000Y-103335000D01*
%TO.N,/Interboard_connector/SEL2*%
X109028272Y-98000000D02*
X108950000Y-98078272D01*
X110250000Y-98000000D02*
X109028272Y-98000000D01*
%TO.N,+5V*%
D62*
X165400000Y-92800000D02*
X165000000Y-92400000D01*
X167120000Y-92800000D02*
X165400000Y-92800000D01*
X167000000Y-91800000D02*
X167000000Y-92680000D01*
X167000000Y-92680000D02*
X167120000Y-92800000D01*
%TO.N,/Interboard_connector/SEL3*%
D61*
X111568272Y-98000000D02*
X111490000Y-98078272D01*
X112750000Y-98000000D02*
X111568272Y-98000000D01*
%TO.N,/Interboard_connector/SEL4*%
X114108272Y-98000000D02*
X114030000Y-98078272D01*
X115250000Y-98000000D02*
X114108272Y-98000000D01*
%TO.N,/Interboard_connector/SEL5*%
X116648272Y-98000000D02*
X116570000Y-98078272D01*
X117750000Y-98000000D02*
X116648272Y-98000000D01*
%TO.N,BRD_VIN*%
D59*
X119110000Y-93038272D02*
X119110000Y-92110000D01*
%TO.N,/Interboard_connector/SEL6*%
D61*
X120250000Y-98000000D02*
X119188272Y-98000000D01*
X119188272Y-98000000D02*
X119110000Y-98078272D01*
%TO.N,/Interboard_connector/SEL7*%
X123063272Y-98063272D02*
X121665000Y-98063272D01*
X121665000Y-98063272D02*
X121650000Y-98078272D01*
%TO.N,/Interboard_connector/SEL8*%
X124205000Y-98063272D02*
X124190000Y-98078272D01*
X125563272Y-98063272D02*
X124205000Y-98063272D01*
%TO.N,+12V stby*%
D62*
X144498272Y-93050000D02*
X144510000Y-93038272D01*
X143400000Y-93050000D02*
X144498272Y-93050000D01*
%TO.N,Net-(R16-Pad1)*%
D61*
X101200000Y-106300000D02*
X109507500Y-106300000D01*
X109507500Y-106300000D02*
X111422500Y-104385000D01*
X100700000Y-105800000D02*
X101200000Y-106300000D01*
X100300000Y-105800000D02*
X100700000Y-105800000D01*
%TO.N,/Buck Regulator/sw*%
D59*
X93500000Y-112825000D02*
X93500000Y-109450000D01*
X93500000Y-109450000D02*
X91600000Y-107550000D01*
%TO.N,Net-(U3-BRB)*%
D61*
X144940000Y-112860000D02*
X145000000Y-112800000D01*
X145025000Y-115875000D02*
X145000000Y-115900000D01*
X146000000Y-111700000D02*
X145000000Y-112700000D01*
X143750000Y-112860000D02*
X144940000Y-112860000D01*
X146462500Y-115875000D02*
X145025000Y-115875000D01*
X145000000Y-112700000D02*
X145000000Y-112800000D01*
%TO.N,Net-(D5-A)*%
D59*
X123930000Y-123100000D02*
X123930000Y-134240000D01*
X123930000Y-134240000D02*
X123570000Y-134600000D01*
%TO.N,Net-(D6-A)*%
X115230000Y-124940000D02*
X117070000Y-123100000D01*
X113200000Y-124940000D02*
X115230000Y-124940000D01*
%TO.N,Net-(D7-Pad2)*%
D61*
X175118655Y-100600000D02*
X175350000Y-100368655D01*
X173600000Y-100600000D02*
X175118655Y-100600000D01*
%TO.N,Net-(U3-CP0)*%
X152875000Y-119925000D02*
X152875000Y-120787500D01*
X153051000Y-119749000D02*
X152875000Y-119925000D01*
X154620000Y-120705000D02*
X153664000Y-119749000D01*
X154620000Y-121180000D02*
X154620000Y-120705000D01*
X153664000Y-119749000D02*
X153051000Y-119749000D01*
%TO.N,Net-(U3-CPI)*%
X156180000Y-120767500D02*
X156180000Y-121180000D01*
X154787500Y-119375000D02*
X156180000Y-120767500D01*
%TO.N,Net-(R5-Pad2)*%
X160700000Y-107850000D02*
X164685000Y-107850000D01*
X164685000Y-107850000D02*
X165295000Y-108460000D01*
%TO.N,Net-(U3-VCP)*%
X155895000Y-118875000D02*
X154787500Y-118875000D01*
X156600000Y-119580000D02*
X155895000Y-118875000D01*
%TO.N,Net-(R15-Pad1)*%
X100300000Y-104800000D02*
X100935000Y-105435000D01*
X107832500Y-105435000D02*
X108882500Y-104385000D01*
X100935000Y-105435000D02*
X107832500Y-105435000D01*
%TO.N,Net-(D5-K)*%
D59*
X130430000Y-130160000D02*
X129000000Y-128730000D01*
X130430000Y-134600000D02*
X130430000Y-130160000D01*
%TO.N,/Stepper controller/ENCN_DCO*%
D61*
X160950000Y-135300000D02*
X161000000Y-135350000D01*
X145200000Y-120960430D02*
X145192652Y-120967778D01*
X145225000Y-118875000D02*
X145200000Y-118900000D01*
X146462500Y-118875000D02*
X145225000Y-118875000D01*
X145200000Y-118900000D02*
X145200000Y-120960430D01*
%TO.N,/Stepper controller/ENCB_DCEN_CFG4*%
X145987437Y-119850063D02*
X145987437Y-121762563D01*
X146462500Y-119375000D02*
X145987437Y-119850063D01*
%TO.N,/Stepper controller/ENCA_DCIN_CFG5*%
X147875000Y-121925000D02*
X147875000Y-120787500D01*
X147012437Y-122787563D02*
X147875000Y-121925000D01*
%TO.N,Net-(U3-SWP_DIAG1)*%
X148875000Y-120787500D02*
X148849000Y-120813500D01*
X148849000Y-120813500D02*
X148849000Y-123699000D01*
X148849000Y-123699000D02*
X150000000Y-124850000D01*
%TO.N,/Stepper controller/OB1*%
D59*
X146500000Y-127700000D02*
X140750000Y-121950000D01*
X140750000Y-121950000D02*
X140750000Y-117485844D01*
D61*
X144302503Y-114875000D02*
X144296406Y-114868903D01*
D62*
X146462500Y-114875000D02*
X144302503Y-114875000D01*
D59*
X140750000Y-117485844D02*
X143360844Y-114875000D01*
X146500000Y-133655000D02*
X146500000Y-127700000D01*
X143360844Y-114875000D02*
X144302503Y-114875000D01*
%TO.N,/Stepper controller/OB2*%
D62*
X146462500Y-116875000D02*
X143625000Y-116875000D01*
D59*
X149000000Y-133655000D02*
X149000000Y-127250000D01*
X143000000Y-121250000D02*
X143000000Y-118065686D01*
X143000000Y-118065686D02*
X144095343Y-116970343D01*
X149000000Y-127250000D02*
X143000000Y-121250000D01*
%TO.N,Net-(U3-SWN_DIAG0)*%
D61*
X148375000Y-123675000D02*
X148150000Y-123900000D01*
X153850000Y-126400000D02*
X153350000Y-125900000D01*
X148375000Y-120787500D02*
X148375000Y-123675000D01*
X153350000Y-125900000D02*
X153300000Y-125900000D01*
%TO.N,/Stepper controller/OA2*%
D62*
X154787500Y-116875000D02*
X158275000Y-116875000D01*
D59*
X151500000Y-133655000D02*
X151500000Y-131670158D01*
X160400000Y-122770158D02*
X160400000Y-118800000D01*
X160400000Y-118800000D02*
X158475000Y-116875000D01*
D61*
X158275000Y-116875000D02*
X158400000Y-117000000D01*
D59*
X151500000Y-131670158D02*
X160400000Y-122770158D01*
%TO.N,/Stepper controller/OA1*%
D61*
X158289128Y-114863946D02*
X158364128Y-114788946D01*
D59*
X154000000Y-133655000D02*
X154000000Y-132000000D01*
X157863946Y-114800000D02*
X159229842Y-114800000D01*
X162401000Y-123599000D02*
X160239000Y-125761000D01*
X159229842Y-114800000D02*
X162401000Y-117971158D01*
X162401000Y-117971158D02*
X162401000Y-123599000D01*
D62*
X154751628Y-114863946D02*
X158289128Y-114863946D01*
D59*
X154000000Y-132000000D02*
X160239000Y-125761000D01*
%TD*%
%TA.AperFunction,Conductor*%
%TO.N,/Stepper controller/U_reg_after_jumper*%
G36*
X171143039Y-116869685D02*
G01*
X171188794Y-116922489D01*
X171200000Y-116974000D01*
X171200000Y-126029083D01*
X171196241Y-126059382D01*
X171159905Y-126203582D01*
X171159904Y-126203586D01*
X171149500Y-126335777D01*
X171149500Y-127564208D01*
X171149501Y-127564223D01*
X171159904Y-127696413D01*
X171159905Y-127696417D01*
X171196241Y-127840617D01*
X171200000Y-127870916D01*
X171200000Y-130126000D01*
X171180315Y-130193039D01*
X171127511Y-130238794D01*
X171076000Y-130250000D01*
X163825355Y-130250000D01*
X163758316Y-130230315D01*
X163712561Y-130177511D01*
X163701362Y-130124652D01*
X163725860Y-127870916D01*
X163765160Y-124255254D01*
X163778667Y-124200311D01*
X163791568Y-124174992D01*
X163864553Y-123950368D01*
X163901500Y-123717097D01*
X163901500Y-117853060D01*
X163864554Y-117619795D01*
X163864553Y-117619793D01*
X163864553Y-117619790D01*
X163844447Y-117557912D01*
X163838388Y-117518262D01*
X163844319Y-116972652D01*
X163864732Y-116905830D01*
X163918030Y-116860652D01*
X163968312Y-116850000D01*
X171076000Y-116850000D01*
X171143039Y-116869685D01*
G37*
%TD.AperFunction*%
%TD*%
%TA.AperFunction,Conductor*%
%TO.N,GND*%
G36*
X135693039Y-117769685D02*
G01*
X135738794Y-117822489D01*
X135750000Y-117874000D01*
X135750000Y-120126000D01*
X135730315Y-120193039D01*
X135677511Y-120238794D01*
X135626000Y-120250000D01*
X132374000Y-120250000D01*
X132306961Y-120230315D01*
X132261206Y-120177511D01*
X132250000Y-120126000D01*
X132250000Y-117874000D01*
X132269685Y-117806961D01*
X132322489Y-117761206D01*
X132374000Y-117750000D01*
X135626000Y-117750000D01*
X135693039Y-117769685D01*
G37*
%TD.AperFunction*%
%TD*%
%TA.AperFunction,Conductor*%
%TO.N,GND*%
G36*
X117243039Y-114919685D02*
G01*
X117288794Y-114972489D01*
X117300000Y-115024000D01*
X117300000Y-118376000D01*
X117280315Y-118443039D01*
X117227511Y-118488794D01*
X117176000Y-118500000D01*
X114983980Y-118500000D01*
X114916941Y-118480315D01*
X114887878Y-118454361D01*
X114809702Y-118358486D01*
X114782593Y-118294090D01*
X114794602Y-118225260D01*
X114800000Y-118218753D01*
X114800000Y-118204503D01*
X115300000Y-118204503D01*
X115446195Y-118162031D01*
X115585374Y-118079721D01*
X115585383Y-118079714D01*
X115699714Y-117965383D01*
X115699721Y-117965374D01*
X115782031Y-117826195D01*
X115782033Y-117826190D01*
X115827144Y-117670918D01*
X115827145Y-117670912D01*
X115828790Y-117650000D01*
X115300000Y-117650000D01*
X115300000Y-118204503D01*
X114800000Y-118204503D01*
X114800000Y-117579995D01*
X114838770Y-117440423D01*
X114872489Y-117411206D01*
X114924000Y-117400000D01*
X115050000Y-117400000D01*
X115050000Y-117274000D01*
X115069685Y-117206961D01*
X115122489Y-117161206D01*
X115174000Y-117150000D01*
X115836000Y-117150000D01*
X115903039Y-117169685D01*
X115948794Y-117222489D01*
X115960000Y-117274000D01*
X115960000Y-117362405D01*
X116113481Y-117311548D01*
X116113484Y-117311547D01*
X116257728Y-117222575D01*
X116257732Y-117222572D01*
X116377572Y-117102732D01*
X116377575Y-117102728D01*
X116466542Y-116958492D01*
X116466547Y-116958481D01*
X116519855Y-116797606D01*
X116529999Y-116698322D01*
X116530000Y-116698309D01*
X116530000Y-116650000D01*
X115704000Y-116650000D01*
X115636961Y-116630315D01*
X115591206Y-116577511D01*
X115580000Y-116526000D01*
X115580000Y-116400000D01*
X115454000Y-116400000D01*
X115386961Y-116380315D01*
X115341206Y-116327511D01*
X115330000Y-116276000D01*
X115330000Y-116150000D01*
X115830000Y-116150000D01*
X116529999Y-116150000D01*
X116529999Y-116101692D01*
X116529998Y-116101677D01*
X116519855Y-116002392D01*
X116466547Y-115841518D01*
X116466542Y-115841507D01*
X116377575Y-115697271D01*
X116377572Y-115697267D01*
X116257732Y-115577427D01*
X116257728Y-115577424D01*
X116113492Y-115488457D01*
X116113481Y-115488452D01*
X115952606Y-115435144D01*
X115853322Y-115425000D01*
X115830000Y-115425000D01*
X115830000Y-116150000D01*
X115330000Y-116150000D01*
X115330000Y-115671997D01*
X115519218Y-114990810D01*
X115556127Y-114931487D01*
X115619251Y-114901534D01*
X115638694Y-114900000D01*
X117176000Y-114900000D01*
X117243039Y-114919685D01*
G37*
%TD.AperFunction*%
%TD*%
%TA.AperFunction,Conductor*%
%TO.N,/Buck Regulator/sw-vin*%
G36*
X97193106Y-109505023D02*
G01*
X97208104Y-109509427D01*
X97223094Y-109519057D01*
X97240175Y-109524067D01*
X97266855Y-109547172D01*
X97268042Y-109548541D01*
X97295518Y-109603402D01*
X97297163Y-109610960D01*
X97300000Y-109637331D01*
X97300000Y-111500000D01*
X99574390Y-111500000D01*
X99609322Y-111505022D01*
X99615949Y-111506967D01*
X99626377Y-111510029D01*
X99682518Y-111544856D01*
X99687174Y-111549894D01*
X99690769Y-111553785D01*
X99708968Y-111579327D01*
X100437499Y-112937668D01*
X100900000Y-113800000D01*
X103111097Y-113800000D01*
X103115922Y-113800093D01*
X103120827Y-113800286D01*
X103125676Y-113800571D01*
X103128499Y-113800794D01*
X103188257Y-113805498D01*
X103188258Y-113805498D01*
X103188283Y-113805500D01*
X104416716Y-113805499D01*
X104479317Y-113800571D01*
X104484191Y-113800285D01*
X104489044Y-113800095D01*
X104493895Y-113800000D01*
X106170528Y-113800000D01*
X106178632Y-113800265D01*
X106186709Y-113800794D01*
X106194795Y-113801590D01*
X106211424Y-113803780D01*
X106224425Y-113805492D01*
X106224449Y-113805494D01*
X106224473Y-113805498D01*
X106224489Y-113805500D01*
X106224496Y-113805500D01*
X106460504Y-113805500D01*
X106460507Y-113805500D01*
X106460511Y-113805500D01*
X106490210Y-113801589D01*
X106498291Y-113800794D01*
X106506372Y-113800265D01*
X106514472Y-113800000D01*
X108710528Y-113800000D01*
X108718632Y-113800265D01*
X108726709Y-113800794D01*
X108734795Y-113801590D01*
X108751424Y-113803780D01*
X108764425Y-113805492D01*
X108764449Y-113805494D01*
X108764473Y-113805498D01*
X108764489Y-113805500D01*
X108764496Y-113805500D01*
X109000504Y-113805500D01*
X109000507Y-113805500D01*
X109000511Y-113805500D01*
X109030210Y-113801589D01*
X109038291Y-113800794D01*
X109046372Y-113800265D01*
X109054472Y-113800000D01*
X111250528Y-113800000D01*
X111258632Y-113800265D01*
X111266709Y-113800794D01*
X111274795Y-113801590D01*
X111291424Y-113803780D01*
X111304425Y-113805492D01*
X111304449Y-113805494D01*
X111304473Y-113805498D01*
X111304489Y-113805500D01*
X111304496Y-113805500D01*
X111540504Y-113805500D01*
X111540507Y-113805500D01*
X111540511Y-113805500D01*
X111570210Y-113801589D01*
X111578291Y-113800794D01*
X111586372Y-113800265D01*
X111594472Y-113800000D01*
X111658170Y-113800000D01*
X111693106Y-113805023D01*
X111708104Y-113809427D01*
X111766855Y-113847172D01*
X111768042Y-113848541D01*
X111795518Y-113903402D01*
X111797163Y-113910960D01*
X111800000Y-113937331D01*
X111800000Y-114960858D01*
X111799999Y-114960860D01*
X111800000Y-114960861D01*
X111794976Y-114995795D01*
X111788908Y-115016459D01*
X111759119Y-115067671D01*
X111755120Y-115071811D01*
X111751187Y-115075152D01*
X111751133Y-115075237D01*
X111751035Y-115075281D01*
X111736549Y-115087590D01*
X111566427Y-115205451D01*
X111410464Y-115361414D01*
X111410455Y-115361424D01*
X111410445Y-115361436D01*
X111410112Y-115361870D01*
X111409838Y-115362150D01*
X111408459Y-115363773D01*
X111408347Y-115363677D01*
X111389683Y-115382796D01*
X111373890Y-115395547D01*
X111317149Y-115421250D01*
X111305989Y-115423182D01*
X111284836Y-115425000D01*
X111270000Y-115425000D01*
X111270000Y-115535286D01*
X111267193Y-115561521D01*
X111261706Y-115586868D01*
X111253412Y-115611914D01*
X111193596Y-115743601D01*
X111139696Y-115957515D01*
X111129500Y-116087057D01*
X111129500Y-116127780D01*
X111129499Y-116127783D01*
X111129500Y-116127785D01*
X111124476Y-116162719D01*
X111118457Y-116183215D01*
X111088442Y-116234658D01*
X111084222Y-116239004D01*
X111080683Y-116241986D01*
X111080680Y-116241992D01*
X111080673Y-116241994D01*
X111065339Y-116254921D01*
X110928276Y-116348812D01*
X110928274Y-116348814D01*
X110778823Y-116498264D01*
X110778814Y-116498275D01*
X110721895Y-116581368D01*
X110721892Y-116581370D01*
X110721892Y-116581372D01*
X110698004Y-116607353D01*
X110681456Y-116620860D01*
X110627641Y-116646335D01*
X110621701Y-116647537D01*
X110617079Y-116647999D01*
X110617074Y-116648002D01*
X110617068Y-116648000D01*
X110597107Y-116650000D01*
X110070001Y-116650000D01*
X110070001Y-116698331D01*
X110080144Y-116797612D01*
X110089831Y-116826848D01*
X110089833Y-116826850D01*
X110096055Y-116861591D01*
X110096914Y-116886546D01*
X110079718Y-116953934D01*
X110067972Y-116973794D01*
X110067969Y-116973799D01*
X110067960Y-116973826D01*
X110022857Y-117129070D01*
X110022855Y-117129078D01*
X110022855Y-117129081D01*
X110022854Y-117129087D01*
X110021209Y-117149999D01*
X110021210Y-117150000D01*
X110377671Y-117150000D01*
X110412606Y-117155023D01*
X110427604Y-117159427D01*
X110486355Y-117197172D01*
X110486379Y-117197200D01*
X110486382Y-117197202D01*
X110486383Y-117197204D01*
X110487542Y-117198541D01*
X110515019Y-117253405D01*
X110516664Y-117260964D01*
X110519500Y-117287332D01*
X110519500Y-117508174D01*
X110514477Y-117543108D01*
X110510074Y-117558103D01*
X110472329Y-117616855D01*
X110470960Y-117618042D01*
X110416096Y-117645519D01*
X110408537Y-117647164D01*
X110382169Y-117650000D01*
X110021209Y-117650000D01*
X110022852Y-117670905D01*
X110022854Y-117670912D01*
X110067966Y-117826190D01*
X110067968Y-117826195D01*
X110150278Y-117965374D01*
X110150285Y-117965383D01*
X110264616Y-118079714D01*
X110264625Y-118079721D01*
X110403804Y-118162031D01*
X110550000Y-118204504D01*
X110550001Y-118204502D01*
X110555938Y-118203419D01*
X110570243Y-118195582D01*
X110584892Y-118190094D01*
X110654573Y-118185011D01*
X110654986Y-118185100D01*
X110711839Y-118214245D01*
X110719396Y-118221066D01*
X110738611Y-118243037D01*
X110778809Y-118301718D01*
X110778820Y-118301731D01*
X110928268Y-118451179D01*
X110928274Y-118451184D01*
X111102650Y-118570635D01*
X111102654Y-118570637D01*
X111102662Y-118570641D01*
X111293318Y-118654824D01*
X111293319Y-118654824D01*
X111296080Y-118656043D01*
X111297344Y-118656325D01*
X111501747Y-118704400D01*
X111501749Y-118704400D01*
X111501753Y-118704401D01*
X111501755Y-118704401D01*
X111501758Y-118704402D01*
X111589609Y-118710500D01*
X111731638Y-118710499D01*
X111766569Y-118715520D01*
X111779886Y-118719430D01*
X111838664Y-118757203D01*
X111867690Y-118820758D01*
X111868540Y-118826669D01*
X111861986Y-118887650D01*
X111856401Y-118902623D01*
X111856400Y-118902628D01*
X111850000Y-118962146D01*
X111850000Y-118962155D01*
X111850000Y-119610000D01*
X112587750Y-119610000D01*
X112654789Y-119629685D01*
X112700544Y-119682489D01*
X112710488Y-119751647D01*
X112707524Y-119766095D01*
X112700000Y-119794171D01*
X112700000Y-119925828D01*
X112707524Y-119953905D01*
X112705863Y-120023755D01*
X112666701Y-120081618D01*
X112602473Y-120109123D01*
X112587750Y-120110000D01*
X111850000Y-120110000D01*
X111850000Y-120753777D01*
X111848030Y-120775792D01*
X111844715Y-120794167D01*
X111813441Y-120856647D01*
X111755496Y-120891732D01*
X111743294Y-120895080D01*
X111710483Y-120899500D01*
X111449894Y-120899500D01*
X111213710Y-120899500D01*
X111210553Y-120900000D01*
X111100000Y-120900000D01*
X111100000Y-120917509D01*
X111041140Y-120926831D01*
X111039420Y-120927101D01*
X111039408Y-120927104D01*
X110980437Y-120936445D01*
X110755798Y-121009436D01*
X110596178Y-121090766D01*
X110562773Y-121102150D01*
X110549132Y-121104712D01*
X110479611Y-121097741D01*
X110424898Y-121054292D01*
X110422953Y-121051533D01*
X110401986Y-121000368D01*
X110401664Y-120998423D01*
X110399999Y-120978170D01*
X110399999Y-120850000D01*
X108150000Y-120850000D01*
X108150000Y-122349999D01*
X108602742Y-122349999D01*
X108618787Y-122354422D01*
X108633703Y-122353926D01*
X108637669Y-122355020D01*
X108648522Y-122358206D01*
X108660549Y-122365934D01*
X108666277Y-122367513D01*
X108674999Y-122372717D01*
X108680726Y-122378899D01*
X108707303Y-122395976D01*
X108717762Y-122418874D01*
X108722484Y-122423971D01*
X108724011Y-122432555D01*
X108736332Y-122459530D01*
X108732977Y-122482957D01*
X108734721Y-122492761D01*
X108729927Y-122504254D01*
X108726444Y-122528576D01*
X108726250Y-122529002D01*
X108711711Y-122547925D01*
X108707824Y-122557246D01*
X108700850Y-122562062D01*
X108692135Y-122573407D01*
X108690198Y-122574999D01*
X108672985Y-122586865D01*
X108342643Y-122775631D01*
X108312953Y-122787814D01*
X108282716Y-122795845D01*
X108250885Y-122800000D01*
X105041830Y-122800000D01*
X105041825Y-122799999D01*
X105041823Y-122800000D01*
X105006889Y-122794975D01*
X104991890Y-122790570D01*
X104933144Y-122752827D01*
X104933115Y-122752793D01*
X104933114Y-122752793D01*
X104933113Y-122752791D01*
X104931957Y-122751458D01*
X104904477Y-122696583D01*
X104902832Y-122689021D01*
X104900000Y-122662668D01*
X104900000Y-121649995D01*
X105400001Y-121649995D01*
X105410493Y-121752694D01*
X105410493Y-121752695D01*
X105410494Y-121752697D01*
X105465641Y-121919119D01*
X105465643Y-121919124D01*
X105557684Y-122068345D01*
X105681654Y-122192315D01*
X105830875Y-122284356D01*
X105830880Y-122284358D01*
X105997299Y-122339504D01*
X105997300Y-122339504D01*
X105997302Y-122339505D01*
X105997309Y-122339506D01*
X106100019Y-122349999D01*
X107649999Y-122349999D01*
X107650000Y-122349998D01*
X107650000Y-120850000D01*
X105400001Y-120850000D01*
X105400001Y-121649995D01*
X104900000Y-121649995D01*
X104900000Y-119550007D01*
X105400000Y-119550007D01*
X105400000Y-119550010D01*
X105400000Y-119550013D01*
X105400000Y-120350000D01*
X107650000Y-120350000D01*
X108150000Y-120350000D01*
X110399999Y-120350000D01*
X110399999Y-119550028D01*
X110399998Y-119550013D01*
X110389505Y-119447302D01*
X110334358Y-119280880D01*
X110334356Y-119280875D01*
X110242315Y-119131654D01*
X110118345Y-119007684D01*
X109969124Y-118915643D01*
X109969119Y-118915641D01*
X109929849Y-118902628D01*
X109802699Y-118860494D01*
X109802694Y-118860493D01*
X109699991Y-118850000D01*
X109699986Y-118850000D01*
X108150000Y-118850000D01*
X108150000Y-120350000D01*
X107650000Y-120350000D01*
X107650000Y-118850000D01*
X106100037Y-118850000D01*
X106100028Y-118850000D01*
X106100012Y-118850001D01*
X106100002Y-118850001D01*
X106100002Y-118850002D01*
X105997304Y-118860493D01*
X105997302Y-118860494D01*
X105830887Y-118915638D01*
X105830879Y-118915641D01*
X105830877Y-118915642D01*
X105830875Y-118915643D01*
X105755482Y-118962146D01*
X105681652Y-119007685D01*
X105557685Y-119131652D01*
X105465641Y-119280879D01*
X105465638Y-119280888D01*
X105410494Y-119447299D01*
X105410493Y-119447304D01*
X105400000Y-119550007D01*
X104900000Y-119550007D01*
X104900000Y-117900000D01*
X103669607Y-117900000D01*
X103602568Y-117880315D01*
X103568182Y-117847337D01*
X103553308Y-117826190D01*
X103527741Y-117789839D01*
X103527736Y-117789833D01*
X103527733Y-117789829D01*
X103526576Y-117788494D01*
X103526562Y-117788479D01*
X103526554Y-117788470D01*
X103425100Y-117687078D01*
X103398420Y-117663973D01*
X103380735Y-117649010D01*
X103211605Y-117535932D01*
X103211604Y-117535931D01*
X103211602Y-117535930D01*
X103196719Y-117529871D01*
X103180828Y-117522034D01*
X103179807Y-117521436D01*
X102991404Y-117444662D01*
X102989019Y-117443961D01*
X102976399Y-117440256D01*
X102929666Y-117430089D01*
X102836204Y-117409757D01*
X102801266Y-117404734D01*
X102658172Y-117394500D01*
X102658170Y-117394500D01*
X98324000Y-117394500D01*
X98256961Y-117374815D01*
X98211206Y-117322011D01*
X98200000Y-117270500D01*
X98200000Y-116101671D01*
X110070000Y-116101671D01*
X110070000Y-116101677D01*
X110070000Y-116150000D01*
X110770000Y-116150000D01*
X110770000Y-115424999D01*
X110746705Y-115424999D01*
X110746686Y-115425000D01*
X110746685Y-115425000D01*
X110746661Y-115425002D01*
X110647394Y-115435143D01*
X110647393Y-115435143D01*
X110486522Y-115488449D01*
X110486508Y-115488456D01*
X110486505Y-115488458D01*
X110342286Y-115577413D01*
X110342264Y-115577429D01*
X110342261Y-115577431D01*
X110222431Y-115697261D01*
X110222429Y-115697264D01*
X110222413Y-115697286D01*
X110133458Y-115841505D01*
X110133456Y-115841508D01*
X110133449Y-115841522D01*
X110080143Y-116002394D01*
X110070000Y-116101671D01*
X98200000Y-116101671D01*
X98200000Y-115200000D01*
X96371960Y-115200000D01*
X96371957Y-115199999D01*
X96371956Y-115200000D01*
X96337021Y-115194976D01*
X96323703Y-115191065D01*
X96264926Y-115153289D01*
X96235905Y-115089742D01*
X96234931Y-115082967D01*
X96239498Y-115031617D01*
X96238938Y-115031469D01*
X96238758Y-115031433D01*
X96238760Y-115031421D01*
X96238534Y-115031362D01*
X96239498Y-115027717D01*
X96239504Y-115027700D01*
X96239506Y-115027690D01*
X96249999Y-114924986D01*
X96250000Y-114924973D01*
X96250000Y-113075000D01*
X95341830Y-113075000D01*
X95341825Y-113074999D01*
X95341823Y-113075000D01*
X95306889Y-113069975D01*
X95291890Y-113065570D01*
X95233144Y-113027827D01*
X95233115Y-113027793D01*
X95233114Y-113027793D01*
X95233113Y-113027791D01*
X95231957Y-113026458D01*
X95204477Y-112971583D01*
X95202832Y-112964021D01*
X95200000Y-112937668D01*
X95200000Y-112825000D01*
X95192329Y-112825000D01*
X95192324Y-112824999D01*
X95192322Y-112825000D01*
X95157388Y-112819975D01*
X95142389Y-112815570D01*
X95083643Y-112777827D01*
X95083614Y-112777793D01*
X95083613Y-112777793D01*
X95083612Y-112777791D01*
X95082456Y-112776458D01*
X95054976Y-112721583D01*
X95053331Y-112714021D01*
X95050499Y-112687668D01*
X95050499Y-112575000D01*
X95450000Y-112575000D01*
X96249999Y-112575000D01*
X96249999Y-110725028D01*
X96249998Y-110725013D01*
X96239505Y-110622302D01*
X96184358Y-110455880D01*
X96184356Y-110455875D01*
X96092315Y-110306654D01*
X95968345Y-110182684D01*
X95819124Y-110090643D01*
X95819119Y-110090641D01*
X95819110Y-110090638D01*
X95652699Y-110035494D01*
X95652694Y-110035493D01*
X95549991Y-110025000D01*
X95549986Y-110025000D01*
X95450000Y-110025000D01*
X95450000Y-112575000D01*
X95050499Y-112575000D01*
X95050499Y-110710795D01*
X95050395Y-110709134D01*
X95050275Y-110707950D01*
X95040096Y-110578588D01*
X95006127Y-110443782D01*
X95003315Y-110428769D01*
X95001441Y-110413661D01*
X95000500Y-110398406D01*
X95000500Y-110351475D01*
X95020185Y-110284436D01*
X95021439Y-110282523D01*
X95068308Y-110212468D01*
X95145083Y-110024061D01*
X95164768Y-109957022D01*
X95184917Y-109876138D01*
X95205500Y-109673732D01*
X95205500Y-109623999D01*
X95225185Y-109556961D01*
X95277989Y-109511206D01*
X95329500Y-109500000D01*
X97158170Y-109500000D01*
X97193106Y-109505023D01*
G37*
%TD.AperFunction*%
%TD*%
%TA.AperFunction,Conductor*%
%TO.N,U_reg*%
G36*
X127662900Y-104805023D02*
G01*
X127677898Y-104809427D01*
X127692895Y-104819065D01*
X127710001Y-104824088D01*
X127736675Y-104847201D01*
X127737428Y-104848070D01*
X127765139Y-104904128D01*
X127767658Y-104916292D01*
X127769824Y-104931367D01*
X127786221Y-105132614D01*
X127843224Y-105327922D01*
X127935104Y-105501573D01*
X127935107Y-105501578D01*
X127938374Y-105507752D01*
X127938375Y-105507754D01*
X127969626Y-105554630D01*
X127970043Y-105555271D01*
X127970396Y-105556451D01*
X127984479Y-105585962D01*
X127984782Y-105586934D01*
X127988317Y-105594505D01*
X127984935Y-105596083D01*
X127999998Y-105646314D01*
X128000000Y-105647025D01*
X128000000Y-105744434D01*
X127999999Y-105744436D01*
X128000000Y-105744438D01*
X127994976Y-105779373D01*
X127985619Y-105811236D01*
X127969818Y-105845078D01*
X127938384Y-105892229D01*
X127938364Y-105892261D01*
X127872260Y-106007176D01*
X127872256Y-106007186D01*
X127801600Y-106197960D01*
X127801597Y-106197971D01*
X127801592Y-106197996D01*
X127770791Y-106399063D01*
X127770791Y-106399066D01*
X127781095Y-106602262D01*
X127781096Y-106602268D01*
X127832089Y-106799215D01*
X127834267Y-106804082D01*
X127835698Y-106806571D01*
X127878113Y-106893041D01*
X127888986Y-106926612D01*
X127892540Y-106947257D01*
X127888004Y-107007406D01*
X127885865Y-107013840D01*
X127875391Y-107037055D01*
X127859120Y-107065034D01*
X127859120Y-107065035D01*
X127859119Y-107065036D01*
X127859117Y-107065042D01*
X127794339Y-107257882D01*
X127794338Y-107257888D01*
X127769701Y-107459844D01*
X127769700Y-107459850D01*
X127786221Y-107662614D01*
X127843224Y-107857922D01*
X127935104Y-108031573D01*
X127935107Y-108031578D01*
X127938374Y-108037752D01*
X127938375Y-108037754D01*
X127969626Y-108084630D01*
X127970043Y-108085271D01*
X127970396Y-108086451D01*
X127984479Y-108115962D01*
X127984782Y-108116934D01*
X127988317Y-108124505D01*
X127984935Y-108126083D01*
X127999998Y-108176314D01*
X128000000Y-108177025D01*
X128000000Y-108274434D01*
X127999999Y-108274436D01*
X128000000Y-108274438D01*
X127994976Y-108309373D01*
X127985619Y-108341236D01*
X127969818Y-108375078D01*
X127938384Y-108422229D01*
X127938364Y-108422261D01*
X127872260Y-108537176D01*
X127872256Y-108537186D01*
X127801600Y-108727960D01*
X127801597Y-108727971D01*
X127801592Y-108727996D01*
X127770791Y-108929063D01*
X127770791Y-108929066D01*
X127781095Y-109132262D01*
X127781096Y-109132268D01*
X127832088Y-109329212D01*
X127832095Y-109329229D01*
X127832271Y-109329584D01*
X127904770Y-109477384D01*
X127915645Y-109510961D01*
X127919197Y-109531599D01*
X127914660Y-109591755D01*
X127912521Y-109598188D01*
X127902050Y-109621395D01*
X127894132Y-109635010D01*
X127894118Y-109635038D01*
X127829338Y-109827888D01*
X127804701Y-110029844D01*
X127804700Y-110029850D01*
X127821221Y-110232614D01*
X127821222Y-110232617D01*
X127878224Y-110427920D01*
X127973374Y-110607753D01*
X127973377Y-110607757D01*
X127974844Y-110610530D01*
X127974643Y-110610635D01*
X127980703Y-110622818D01*
X127982661Y-110627636D01*
X127984785Y-110634441D01*
X127986536Y-110637165D01*
X127990870Y-110647826D01*
X127993253Y-110671450D01*
X128000000Y-110694220D01*
X128000000Y-110896934D01*
X127994976Y-110931872D01*
X127985436Y-110964359D01*
X127973946Y-110991250D01*
X127907259Y-111107178D01*
X127907256Y-111107186D01*
X127836600Y-111297960D01*
X127836597Y-111297971D01*
X127836592Y-111297996D01*
X127805791Y-111499063D01*
X127805791Y-111499066D01*
X127816095Y-111702262D01*
X127816096Y-111702268D01*
X127867088Y-111899212D01*
X127867095Y-111899229D01*
X127867271Y-111899584D01*
X127953018Y-112074391D01*
X127954085Y-112076996D01*
X127955692Y-112080006D01*
X127956571Y-112081724D01*
X127961492Y-112088081D01*
X127963149Y-112090221D01*
X127980554Y-112120912D01*
X127991467Y-112148788D01*
X128000000Y-112193991D01*
X128000000Y-112458858D01*
X127999290Y-112472109D01*
X127997399Y-112489703D01*
X127995227Y-112869538D01*
X127995233Y-112873305D01*
X127995211Y-112873378D01*
X127995233Y-112873452D01*
X127985381Y-112907034D01*
X127975644Y-112940372D01*
X127975579Y-112940446D01*
X127975565Y-112940496D01*
X127952459Y-112967175D01*
X127951452Y-112968048D01*
X127896597Y-112995518D01*
X127889039Y-112997163D01*
X127862668Y-113000000D01*
X123091830Y-113000000D01*
X123056889Y-112994975D01*
X123041890Y-112990570D01*
X123026902Y-112980940D01*
X123009824Y-112975932D01*
X122983144Y-112952827D01*
X122981957Y-112951458D01*
X122954477Y-112896583D01*
X122952832Y-112889021D01*
X122950000Y-112862668D01*
X122950000Y-112350000D01*
X119450001Y-112350000D01*
X119450001Y-112858170D01*
X119450000Y-112858176D01*
X119450001Y-112858179D01*
X119444976Y-112893114D01*
X119440571Y-112908112D01*
X119402828Y-112966855D01*
X119402793Y-112966885D01*
X119402792Y-112966887D01*
X119402790Y-112966887D01*
X119401459Y-112968042D01*
X119346598Y-112995518D01*
X119339040Y-112997163D01*
X119312669Y-113000000D01*
X118239468Y-113000000D01*
X118239463Y-112999999D01*
X118239461Y-113000000D01*
X118204527Y-112994975D01*
X118189528Y-112990570D01*
X118130774Y-112952818D01*
X118129172Y-112950970D01*
X118101960Y-112897271D01*
X118100486Y-112890796D01*
X118097416Y-112865656D01*
X118082775Y-112104311D01*
X118048077Y-110300007D01*
X119450000Y-110300007D01*
X119450000Y-110300012D01*
X119450000Y-110300013D01*
X119450000Y-111849999D01*
X119450001Y-111850000D01*
X119450002Y-111850000D01*
X120950000Y-111850000D01*
X121450000Y-111850000D01*
X122949999Y-111850000D01*
X122949999Y-110300028D01*
X122949998Y-110300012D01*
X122939505Y-110197302D01*
X122884358Y-110030880D01*
X122884356Y-110030875D01*
X122792315Y-109881654D01*
X122668345Y-109757684D01*
X122519124Y-109665643D01*
X122519119Y-109665641D01*
X122519110Y-109665638D01*
X122352699Y-109610494D01*
X122352694Y-109610493D01*
X122249991Y-109600000D01*
X122249986Y-109600000D01*
X121450000Y-109600000D01*
X121450000Y-111850000D01*
X120950000Y-111850000D01*
X120950000Y-109600000D01*
X120150037Y-109600000D01*
X120150028Y-109600000D01*
X120150012Y-109600001D01*
X120150002Y-109600001D01*
X120150002Y-109600002D01*
X120047304Y-109610493D01*
X120047302Y-109610494D01*
X119880887Y-109665638D01*
X119880879Y-109665641D01*
X119880877Y-109665642D01*
X119880875Y-109665643D01*
X119781394Y-109727003D01*
X119731652Y-109757685D01*
X119607685Y-109881652D01*
X119607684Y-109881654D01*
X119516276Y-110029850D01*
X119515641Y-110030879D01*
X119515638Y-110030888D01*
X119460494Y-110197299D01*
X119460493Y-110197304D01*
X119450000Y-110300007D01*
X118048077Y-110300007D01*
X118048062Y-110299240D01*
X118035289Y-109635038D01*
X118002739Y-107942498D01*
X118007090Y-107907484D01*
X118011205Y-107892401D01*
X118047807Y-107832945D01*
X118049016Y-107831855D01*
X118103697Y-107803243D01*
X118111545Y-107801400D01*
X118138200Y-107798131D01*
X118993747Y-107786569D01*
X119061044Y-107805346D01*
X119082086Y-107821873D01*
X119116162Y-107855174D01*
X119116165Y-107855176D01*
X119116168Y-107855179D01*
X119285264Y-107968308D01*
X119455681Y-108037752D01*
X119473671Y-108045083D01*
X119473677Y-108045085D01*
X119488687Y-108049492D01*
X119540710Y-108064768D01*
X119621594Y-108084917D01*
X119756531Y-108098639D01*
X119823999Y-108105500D01*
X119824000Y-108105500D01*
X124475990Y-108105500D01*
X124476000Y-108105500D01*
X124487588Y-108105433D01*
X124689743Y-108082519D01*
X124741254Y-108071313D01*
X124832938Y-108046784D01*
X125019527Y-107965692D01*
X125185974Y-107848700D01*
X125238778Y-107802945D01*
X125243483Y-107798131D01*
X125255460Y-107785874D01*
X125338567Y-107700830D01*
X125400000Y-107700000D01*
X125400000Y-107616837D01*
X125468308Y-107514736D01*
X125545083Y-107326329D01*
X125564768Y-107259290D01*
X125584917Y-107178406D01*
X125605500Y-106976000D01*
X125605500Y-104924000D01*
X125625185Y-104856961D01*
X125677989Y-104811206D01*
X125729500Y-104800000D01*
X127627964Y-104800000D01*
X127662900Y-104805023D01*
G37*
%TD.AperFunction*%
%TD*%
%TA.AperFunction,Conductor*%
%TO.N,/Stepper controller/U_reg_after_jumper*%
G36*
X129598608Y-104269685D02*
G01*
X129633864Y-104303919D01*
X129717158Y-104425511D01*
X129748815Y-104471725D01*
X129748820Y-104471731D01*
X129898268Y-104621179D01*
X129898274Y-104621184D01*
X130072650Y-104740635D01*
X130266006Y-104826010D01*
X130266009Y-104826010D01*
X130266013Y-104826012D01*
X130471747Y-104874400D01*
X130471752Y-104874400D01*
X130471758Y-104874402D01*
X130559609Y-104880500D01*
X130853950Y-104880499D01*
X130920989Y-104900183D01*
X130924568Y-104902572D01*
X130942758Y-104915174D01*
X130942761Y-104915176D01*
X131019429Y-104950000D01*
X131143604Y-105006403D01*
X131143605Y-105006403D01*
X131143607Y-105006404D01*
X131357515Y-105060304D01*
X131487067Y-105070500D01*
X132112932Y-105070499D01*
X132177953Y-105065381D01*
X132246328Y-105079745D01*
X132258286Y-105087063D01*
X132330374Y-105137007D01*
X132330377Y-105137008D01*
X132330378Y-105137009D01*
X132389262Y-105163755D01*
X132535317Y-105230096D01*
X132535321Y-105230097D01*
X132753579Y-105285094D01*
X132753582Y-105285094D01*
X132753588Y-105285096D01*
X132885783Y-105295500D01*
X132885785Y-105295499D01*
X132888136Y-105295685D01*
X132927846Y-105305585D01*
X133985068Y-105765247D01*
X134038698Y-105810029D01*
X134055865Y-105848660D01*
X134059901Y-105864677D01*
X134059902Y-105864680D01*
X134152991Y-106069622D01*
X134152997Y-106069632D01*
X134281174Y-106254645D01*
X134281178Y-106254650D01*
X134281181Y-106254654D01*
X134440346Y-106413819D01*
X134440350Y-106413822D01*
X134440354Y-106413825D01*
X134579603Y-106510297D01*
X134625374Y-106542007D01*
X134830317Y-106635096D01*
X134830321Y-106635097D01*
X135048579Y-106690094D01*
X135048581Y-106690094D01*
X135048588Y-106690096D01*
X135180783Y-106700500D01*
X135959216Y-106700499D01*
X136078213Y-106691134D01*
X136137380Y-106701034D01*
X136250000Y-106750000D01*
X138660731Y-106750000D01*
X138727770Y-106769685D01*
X138773525Y-106822489D01*
X138783469Y-106891647D01*
X138781308Y-106902934D01*
X138780291Y-106907170D01*
X138749500Y-107101577D01*
X138749500Y-107298422D01*
X138780290Y-107492826D01*
X138841117Y-107680029D01*
X138928781Y-107852078D01*
X138930476Y-107855405D01*
X138976318Y-107918501D01*
X138983470Y-107938546D01*
X138994977Y-107956451D01*
X138998431Y-107980475D01*
X138999798Y-107984306D01*
X139000000Y-107991386D01*
X139000000Y-108223862D01*
X138991803Y-108265076D01*
X138992622Y-108265342D01*
X138991117Y-108269971D01*
X138991116Y-108269975D01*
X138984641Y-108289904D01*
X138930290Y-108457173D01*
X138899500Y-108651577D01*
X138899500Y-108793553D01*
X138884607Y-108849991D01*
X138885296Y-108850304D01*
X138883454Y-108854357D01*
X138883355Y-108854736D01*
X138882993Y-108855373D01*
X138789903Y-109060318D01*
X138789902Y-109060321D01*
X138734905Y-109278579D01*
X138734904Y-109278586D01*
X138724500Y-109410777D01*
X138724500Y-111339208D01*
X138724501Y-111339223D01*
X138734904Y-111471413D01*
X138734905Y-111471420D01*
X138789902Y-111689678D01*
X138789903Y-111689681D01*
X138882991Y-111894623D01*
X138882992Y-111894625D01*
X138927428Y-111958764D01*
X138949425Y-112025080D01*
X138949500Y-112029380D01*
X138949500Y-112098422D01*
X138980290Y-112292822D01*
X138980290Y-112292823D01*
X138993931Y-112334805D01*
X139000000Y-112373123D01*
X139000000Y-116376000D01*
X138980315Y-116443039D01*
X138927511Y-116488794D01*
X138876000Y-116500000D01*
X135413358Y-116500000D01*
X135346319Y-116480315D01*
X135342742Y-116477928D01*
X135169632Y-116357997D01*
X135169630Y-116357995D01*
X135169626Y-116357993D01*
X135091463Y-116322490D01*
X134964681Y-116264903D01*
X134964678Y-116264902D01*
X134746420Y-116209905D01*
X134746413Y-116209904D01*
X134702347Y-116206436D01*
X134614217Y-116199500D01*
X134614215Y-116199500D01*
X133385791Y-116199500D01*
X133385776Y-116199501D01*
X133253586Y-116209904D01*
X133253579Y-116209905D01*
X133035321Y-116264902D01*
X133035318Y-116264903D01*
X132830377Y-116357991D01*
X132830367Y-116357997D01*
X132694616Y-116452046D01*
X132628299Y-116474043D01*
X132560618Y-116456695D01*
X132513060Y-116405509D01*
X132500000Y-116350118D01*
X132500000Y-113000000D01*
X129124710Y-113000000D01*
X129057671Y-112980315D01*
X129011916Y-112927511D01*
X129000712Y-112875294D01*
X129002883Y-112495452D01*
X129022949Y-112428530D01*
X129054451Y-112397013D01*
X129053977Y-112396426D01*
X129058870Y-112392478D01*
X129058872Y-112392478D01*
X129217226Y-112264746D01*
X129346627Y-112107751D01*
X129846627Y-111357751D01*
X129925878Y-111214968D01*
X129990662Y-111022109D01*
X130015298Y-110820156D01*
X129998777Y-110617379D01*
X129941775Y-110422078D01*
X129846627Y-110242249D01*
X129583524Y-109847594D01*
X129390149Y-109557531D01*
X129369341Y-109490831D01*
X129387896Y-109423471D01*
X129390127Y-109419998D01*
X129811627Y-108787751D01*
X129890878Y-108644968D01*
X129955662Y-108452109D01*
X129980298Y-108250156D01*
X129979055Y-108234904D01*
X129963777Y-108047382D01*
X129963777Y-108047379D01*
X129906775Y-107852078D01*
X129811627Y-107672249D01*
X129385981Y-107033781D01*
X129365174Y-106967084D01*
X129383729Y-106899723D01*
X129385982Y-106896217D01*
X129450650Y-106799215D01*
X129811627Y-106257751D01*
X129890878Y-106114968D01*
X129955662Y-105922109D01*
X129980298Y-105720156D01*
X129963777Y-105517379D01*
X129906775Y-105322078D01*
X129811627Y-105142249D01*
X129600801Y-104826010D01*
X129345317Y-104442783D01*
X129342309Y-104433142D01*
X129335697Y-104425511D01*
X129332078Y-104400348D01*
X129324509Y-104376083D01*
X129327190Y-104366349D01*
X129325753Y-104356353D01*
X129336313Y-104333227D01*
X129343064Y-104308723D01*
X129350582Y-104301983D01*
X129354778Y-104292797D01*
X129376164Y-104279052D01*
X129395092Y-104262087D01*
X129406626Y-104259476D01*
X129413556Y-104255023D01*
X129448491Y-104250000D01*
X129531569Y-104250000D01*
X129598608Y-104269685D01*
G37*
%TD.AperFunction*%
%TD*%
%TA.AperFunction,Conductor*%
%TO.N,GND*%
G36*
X175093039Y-125219685D02*
G01*
X175138794Y-125272489D01*
X175150000Y-125324000D01*
X175150000Y-128576000D01*
X175130315Y-128643039D01*
X175077511Y-128688794D01*
X175026000Y-128700000D01*
X172774000Y-128700000D01*
X172706961Y-128680315D01*
X172661206Y-128627511D01*
X172650000Y-128576000D01*
X172650000Y-125324000D01*
X172669685Y-125256961D01*
X172722489Y-125211206D01*
X172774000Y-125200000D01*
X175026000Y-125200000D01*
X175093039Y-125219685D01*
G37*
%TD.AperFunction*%
%TD*%
%TA.AperFunction,Conductor*%
%TO.N,Net-(C23-Pad2)*%
G36*
X97093039Y-92919685D02*
G01*
X97138794Y-92972489D01*
X97150000Y-93024000D01*
X97150000Y-93595500D01*
X97130315Y-93662539D01*
X97077511Y-93708294D01*
X97026000Y-93719500D01*
X96774000Y-93719500D01*
X96706961Y-93699815D01*
X96661206Y-93647011D01*
X96650000Y-93595500D01*
X96650000Y-93024000D01*
X96669685Y-92956961D01*
X96722489Y-92911206D01*
X96774000Y-92900000D01*
X97026000Y-92900000D01*
X97093039Y-92919685D01*
G37*
%TD.AperFunction*%
%TA.AperFunction,Conductor*%
G36*
X95673039Y-91919685D02*
G01*
X95718794Y-91972489D01*
X95730000Y-92024000D01*
X95730000Y-92253566D01*
X95747166Y-92285004D01*
X95750000Y-92311362D01*
X95750000Y-93196000D01*
X95730315Y-93263039D01*
X95677511Y-93308794D01*
X95626000Y-93320000D01*
X95374000Y-93320000D01*
X95306961Y-93300315D01*
X95261206Y-93247511D01*
X95250000Y-93196000D01*
X95250000Y-92991433D01*
X95232834Y-92959996D01*
X95230000Y-92933638D01*
X95230000Y-92024000D01*
X95249685Y-91956961D01*
X95302489Y-91911206D01*
X95354000Y-91900000D01*
X95606000Y-91900000D01*
X95673039Y-91919685D01*
G37*
%TD.AperFunction*%
%TD*%
%TA.AperFunction,Conductor*%
%TO.N,Net-(C10-Pad2)*%
G36*
X135539273Y-101605023D02*
G01*
X135554960Y-101609629D01*
X135569719Y-101619002D01*
X135585943Y-101623578D01*
X135612863Y-101646403D01*
X135622464Y-101657246D01*
X135641295Y-101685540D01*
X135851081Y-102120098D01*
X135860289Y-102146349D01*
X135866377Y-102172964D01*
X135869500Y-102200613D01*
X135869500Y-102263358D01*
X135869504Y-102263408D01*
X135872316Y-102287655D01*
X135872318Y-102287661D01*
X135916184Y-102387011D01*
X135916187Y-102387016D01*
X136003193Y-102474022D01*
X136002982Y-102474232D01*
X136013099Y-102483070D01*
X136032664Y-102505835D01*
X136050290Y-102532747D01*
X136280866Y-103010365D01*
X136290306Y-103037651D01*
X136296379Y-103065277D01*
X136299253Y-103094001D01*
X136257289Y-105569858D01*
X136255183Y-105576602D01*
X136256293Y-105583581D01*
X136244910Y-105609516D01*
X136236471Y-105636555D01*
X136231052Y-105641091D01*
X136228214Y-105647560D01*
X136204619Y-105663223D01*
X136182900Y-105681408D01*
X136174481Y-105683229D01*
X136170003Y-105686203D01*
X136143881Y-105689852D01*
X136135147Y-105691743D01*
X136132797Y-105691777D01*
X135999325Y-105688733D01*
X135920629Y-105694926D01*
X135916670Y-105694985D01*
X135916486Y-105694933D01*
X135914830Y-105694999D01*
X135378980Y-105694999D01*
X135311941Y-105675314D01*
X135277052Y-105641615D01*
X135213832Y-105550363D01*
X135213819Y-105550346D01*
X135213814Y-105550340D01*
X135055271Y-105391797D01*
X135055267Y-105391794D01*
X135054654Y-105391181D01*
X135054650Y-105391178D01*
X135054645Y-105391174D01*
X134901810Y-105285290D01*
X134901664Y-105285109D01*
X134868186Y-105250443D01*
X134825345Y-105183757D01*
X134825342Y-105183754D01*
X134825341Y-105183752D01*
X134683170Y-105038222D01*
X134629540Y-104993440D01*
X134563401Y-104942713D01*
X134563395Y-104942709D01*
X134385983Y-104843131D01*
X133328768Y-104383472D01*
X133328762Y-104383470D01*
X133171089Y-104329951D01*
X133171087Y-104329950D01*
X133171080Y-104329948D01*
X133139956Y-104322188D01*
X133116816Y-104308632D01*
X133092049Y-104298344D01*
X133083443Y-104289082D01*
X133079671Y-104286872D01*
X133068029Y-104272492D01*
X132999583Y-104173696D01*
X132998644Y-104172112D01*
X132994551Y-104166433D01*
X132994550Y-104166431D01*
X132838568Y-104010449D01*
X132838567Y-104010448D01*
X132838565Y-104010446D01*
X132657242Y-103884825D01*
X132657240Y-103884824D01*
X132456393Y-103793595D01*
X132456390Y-103793594D01*
X132313788Y-103757661D01*
X132313788Y-103757662D01*
X132242482Y-103739695D01*
X132242477Y-103739694D01*
X132220896Y-103737995D01*
X132220896Y-103737996D01*
X132112945Y-103729500D01*
X132112938Y-103729500D01*
X132112933Y-103729500D01*
X131921603Y-103729500D01*
X131921602Y-103729499D01*
X131921602Y-103729500D01*
X131886667Y-103724477D01*
X131861425Y-103717065D01*
X131808681Y-103685770D01*
X131701731Y-103578820D01*
X131701728Y-103578817D01*
X131688755Y-103569930D01*
X131527350Y-103459365D01*
X131527346Y-103459363D01*
X131527326Y-103459354D01*
X131334001Y-103373992D01*
X131333988Y-103373987D01*
X131333979Y-103373985D01*
X131128251Y-103325598D01*
X131128231Y-103325596D01*
X131040398Y-103319500D01*
X131040394Y-103319500D01*
X130559606Y-103319500D01*
X130559601Y-103319500D01*
X130471777Y-103325595D01*
X130471762Y-103325596D01*
X130471753Y-103325597D01*
X130471732Y-103325601D01*
X130469736Y-103326071D01*
X130469733Y-103326071D01*
X130469732Y-103326072D01*
X130468371Y-103326192D01*
X130468259Y-103326212D01*
X130468257Y-103326202D01*
X130434575Y-103329179D01*
X130420722Y-103328421D01*
X130354858Y-103305103D01*
X130312057Y-103249878D01*
X130308560Y-103240961D01*
X130300000Y-103195689D01*
X130300000Y-102744554D01*
X130305023Y-102709618D01*
X130309427Y-102694620D01*
X130319059Y-102679627D01*
X130324070Y-102662545D01*
X130347175Y-102635866D01*
X130348002Y-102635149D01*
X130404182Y-102607395D01*
X130412966Y-102605584D01*
X130440697Y-102603058D01*
X134900000Y-102700000D01*
X134900000Y-102699999D01*
X134900000Y-101741829D01*
X134905023Y-101706893D01*
X134909427Y-101691895D01*
X134947172Y-101633144D01*
X134947200Y-101633119D01*
X134947199Y-101633119D01*
X134948541Y-101631956D01*
X135003420Y-101604477D01*
X135010979Y-101602833D01*
X135037332Y-101600000D01*
X135504339Y-101600000D01*
X135539273Y-101605023D01*
G37*
%TD.AperFunction*%
%TD*%
%TA.AperFunction,Conductor*%
%TO.N,GND*%
G36*
X141990769Y-108255021D02*
G01*
X142016013Y-108262434D01*
X142068759Y-108293730D01*
X142151074Y-108376045D01*
X142172223Y-108404296D01*
X142184831Y-108427385D01*
X142200000Y-108486814D01*
X142200000Y-112358170D01*
X142194975Y-112393114D01*
X142190570Y-112408112D01*
X142152827Y-112466855D01*
X142151458Y-112468042D01*
X142096597Y-112495518D01*
X142089039Y-112497163D01*
X142062668Y-112500000D01*
X140129500Y-112500000D01*
X140062461Y-112480315D01*
X140016706Y-112427511D01*
X140005500Y-112376000D01*
X140005500Y-112373130D01*
X140005500Y-112373123D01*
X139993121Y-112215828D01*
X139987052Y-112177510D01*
X139967638Y-112096648D01*
X139965741Y-112087108D01*
X139956331Y-112027695D01*
X139954823Y-112010462D01*
X139954772Y-112007562D01*
X139954772Y-112007559D01*
X139954772Y-112007545D01*
X139947981Y-111907109D01*
X139903793Y-111708516D01*
X139903790Y-111708509D01*
X139903787Y-111708495D01*
X139881797Y-111642202D01*
X139852299Y-111564248D01*
X139852293Y-111564236D01*
X139770079Y-111415355D01*
X139765729Y-111406694D01*
X139747428Y-111366403D01*
X139740087Y-111345423D01*
X139733758Y-111320305D01*
X139730000Y-111290010D01*
X139730000Y-109459985D01*
X139733759Y-109429686D01*
X139740085Y-109404581D01*
X139747427Y-109383599D01*
X139798851Y-109270385D01*
X139800693Y-109266332D01*
X139800696Y-109266321D01*
X139801662Y-109264196D01*
X139801666Y-109264188D01*
X139809799Y-109246282D01*
X139809713Y-109245109D01*
X139814467Y-109228651D01*
X139853179Y-109122760D01*
X139853508Y-109120874D01*
X139855695Y-109110835D01*
X139855790Y-109110472D01*
X139855855Y-109110226D01*
X139871713Y-109050134D01*
X139871720Y-109050105D01*
X139884417Y-108995959D01*
X139905000Y-108793553D01*
X139905000Y-108740467D01*
X139906526Y-108721076D01*
X139909503Y-108702273D01*
X139914045Y-108683352D01*
X139947401Y-108580699D01*
X139947400Y-108580698D01*
X139948194Y-108578256D01*
X139948870Y-108576179D01*
X139948873Y-108576165D01*
X139949585Y-108573978D01*
X139949595Y-108573947D01*
X139954639Y-108558421D01*
X139954646Y-108552380D01*
X139965134Y-108509176D01*
X139970190Y-108500423D01*
X139977987Y-108461217D01*
X139983466Y-108433665D01*
X139984952Y-108427547D01*
X139985070Y-108425603D01*
X139986184Y-108420003D01*
X139991911Y-108361847D01*
X140018070Y-108297061D01*
X140075104Y-108256701D01*
X140115314Y-108250000D01*
X141955837Y-108250000D01*
X141990769Y-108255021D01*
G37*
%TD.AperFunction*%
%TD*%
%TA.AperFunction,Conductor*%
%TO.N,/Buck Regulator/sw*%
G36*
X94143039Y-109519684D02*
G01*
X94188794Y-109572488D01*
X94200000Y-109623999D01*
X94200000Y-109673732D01*
X94180315Y-109740771D01*
X94146617Y-109775660D01*
X94095342Y-109811183D01*
X93936184Y-109970341D01*
X93935303Y-109971614D01*
X93934746Y-109972063D01*
X93932614Y-109974618D01*
X93932107Y-109974194D01*
X93880945Y-110015512D01*
X93833373Y-110025000D01*
X93750000Y-110025000D01*
X93750000Y-110256208D01*
X93738900Y-110307488D01*
X93714901Y-110360322D01*
X93659905Y-110578579D01*
X93659904Y-110578586D01*
X93649500Y-110710777D01*
X93649500Y-110710790D01*
X93649500Y-111500000D01*
X93350499Y-111500000D01*
X93350499Y-110710784D01*
X93340096Y-110578588D01*
X93340094Y-110578579D01*
X93285098Y-110360322D01*
X93261100Y-110307488D01*
X93250000Y-110256208D01*
X93250000Y-110024999D01*
X93166629Y-110025000D01*
X93099589Y-110005316D01*
X93067613Y-109974431D01*
X93067388Y-109974620D01*
X93065639Y-109972525D01*
X93064704Y-109971622D01*
X93063820Y-109970346D01*
X92904657Y-109811183D01*
X92853383Y-109775660D01*
X92849058Y-109770304D01*
X92842797Y-109767445D01*
X92827390Y-109743472D01*
X92809487Y-109721301D01*
X92807842Y-109713053D01*
X92805023Y-109708667D01*
X92800000Y-109673732D01*
X92800000Y-109623999D01*
X92819685Y-109556960D01*
X92872489Y-109511205D01*
X92924000Y-109499999D01*
X94076000Y-109499999D01*
X94143039Y-109519684D01*
G37*
%TD.AperFunction*%
%TA.AperFunction,Conductor*%
G36*
X95869043Y-104419685D02*
G01*
X95914798Y-104472489D01*
X95925995Y-104525415D01*
X95908790Y-106030875D01*
X95887686Y-107877417D01*
X95867236Y-107944227D01*
X95813913Y-107989376D01*
X95763694Y-108000000D01*
X94924000Y-108000000D01*
X94856961Y-107980315D01*
X94811206Y-107927511D01*
X94800000Y-107876000D01*
X94800000Y-107800000D01*
X88400001Y-107800000D01*
X88400001Y-108799986D01*
X88410494Y-108902698D01*
X88425173Y-108946997D01*
X88427575Y-109016825D01*
X88391843Y-109076867D01*
X88329322Y-109108059D01*
X88307467Y-109110000D01*
X86865000Y-109110000D01*
X85222161Y-110770971D01*
X85161023Y-110804792D01*
X85091305Y-110800190D01*
X85035142Y-110758626D01*
X85010366Y-110693297D01*
X85010000Y-110683772D01*
X85010000Y-109920000D01*
X80190000Y-109920000D01*
X80190000Y-111232841D01*
X80193216Y-111262743D01*
X80180812Y-111331503D01*
X80133202Y-111382641D01*
X80069927Y-111400000D01*
X79224000Y-111400000D01*
X79156961Y-111380315D01*
X79111206Y-111327511D01*
X79100000Y-111276000D01*
X79100000Y-108107155D01*
X80190000Y-108107155D01*
X80190000Y-109420000D01*
X82350000Y-109420000D01*
X82850000Y-109420000D01*
X85010000Y-109420000D01*
X85010000Y-108107172D01*
X85009999Y-108107155D01*
X85003598Y-108047627D01*
X85003596Y-108047620D01*
X84953354Y-107912913D01*
X84953350Y-107912906D01*
X84867190Y-107797812D01*
X84867187Y-107797809D01*
X84752093Y-107711649D01*
X84752086Y-107711645D01*
X84617379Y-107661403D01*
X84617372Y-107661401D01*
X84557844Y-107655000D01*
X82850000Y-107655000D01*
X82850000Y-109420000D01*
X82350000Y-109420000D01*
X82350000Y-107655000D01*
X80642155Y-107655000D01*
X80582627Y-107661401D01*
X80582620Y-107661403D01*
X80447913Y-107711645D01*
X80447906Y-107711649D01*
X80332812Y-107797809D01*
X80332809Y-107797812D01*
X80246649Y-107912906D01*
X80246645Y-107912913D01*
X80196403Y-108047620D01*
X80196401Y-108047627D01*
X80190000Y-108107155D01*
X79100000Y-108107155D01*
X79100000Y-106300013D01*
X88400000Y-106300013D01*
X88400000Y-107300000D01*
X91350000Y-107300000D01*
X91850000Y-107300000D01*
X94799999Y-107300000D01*
X94799999Y-106300028D01*
X94799998Y-106300012D01*
X94789505Y-106197302D01*
X94734358Y-106030880D01*
X94734356Y-106030875D01*
X94642315Y-105881654D01*
X94518345Y-105757684D01*
X94369124Y-105665643D01*
X94369119Y-105665641D01*
X94202697Y-105610494D01*
X94202690Y-105610493D01*
X94099986Y-105600000D01*
X91850000Y-105600000D01*
X91850000Y-107300000D01*
X91350000Y-107300000D01*
X91350000Y-105600000D01*
X89100028Y-105600000D01*
X89100012Y-105600001D01*
X88997302Y-105610494D01*
X88830880Y-105665641D01*
X88830875Y-105665643D01*
X88681654Y-105757684D01*
X88557684Y-105881654D01*
X88465643Y-106030875D01*
X88465641Y-106030880D01*
X88410494Y-106197302D01*
X88410493Y-106197309D01*
X88400000Y-106300013D01*
X79100000Y-106300013D01*
X79100000Y-104524000D01*
X79119685Y-104456961D01*
X79172489Y-104411206D01*
X79224000Y-104400000D01*
X95802004Y-104400000D01*
X95869043Y-104419685D01*
G37*
%TD.AperFunction*%
%TD*%
%TA.AperFunction,Conductor*%
%TO.N,GND*%
G36*
X102693106Y-118405023D02*
G01*
X102708104Y-118409427D01*
X102723094Y-118419057D01*
X102740175Y-118424067D01*
X102766855Y-118447172D01*
X102768042Y-118448541D01*
X102795518Y-118503402D01*
X102797163Y-118510960D01*
X102800000Y-118537331D01*
X102800000Y-125260364D01*
X102794975Y-125295308D01*
X102790570Y-125310306D01*
X102780939Y-125325295D01*
X102775935Y-125342363D01*
X102752832Y-125369045D01*
X102751018Y-125370618D01*
X102697225Y-125397860D01*
X102690673Y-125399347D01*
X102665443Y-125402402D01*
X97844038Y-125488498D01*
X97809023Y-125484101D01*
X97793948Y-125479966D01*
X97778758Y-125470583D01*
X97761543Y-125465854D01*
X97734543Y-125443273D01*
X97734504Y-125443249D01*
X97733653Y-125442301D01*
X97705007Y-125386910D01*
X97703072Y-125378381D01*
X97699999Y-125350946D01*
X97699999Y-122430537D01*
X97705021Y-122395604D01*
X97708932Y-122382285D01*
X97718572Y-122367284D01*
X97723597Y-122350175D01*
X97737068Y-122338503D01*
X97746705Y-122323508D01*
X97762927Y-122316099D01*
X97776404Y-122304423D01*
X97810249Y-122294486D01*
X97810255Y-122294483D01*
X97817039Y-122293508D01*
X97873682Y-122298540D01*
X97997302Y-122339505D01*
X97997309Y-122339506D01*
X98100019Y-122349999D01*
X99649999Y-122349999D01*
X100150000Y-122349999D01*
X101699960Y-122349999D01*
X101699972Y-122349999D01*
X101699986Y-122349998D01*
X101802697Y-122339505D01*
X101969119Y-122284358D01*
X101969124Y-122284356D01*
X102118345Y-122192315D01*
X102242315Y-122068345D01*
X102334356Y-121919124D01*
X102334358Y-121919119D01*
X102389505Y-121752697D01*
X102389506Y-121752690D01*
X102399999Y-121649986D01*
X102400000Y-121649973D01*
X102400000Y-120850000D01*
X100150000Y-120850000D01*
X100150000Y-122349999D01*
X99649999Y-122349999D01*
X99650000Y-122349998D01*
X99650000Y-120350000D01*
X100150000Y-120350000D01*
X102399999Y-120350000D01*
X102399999Y-119550028D01*
X102399998Y-119550013D01*
X102389505Y-119447302D01*
X102334358Y-119280880D01*
X102334356Y-119280875D01*
X102242315Y-119131654D01*
X102118345Y-119007684D01*
X101969124Y-118915643D01*
X101969119Y-118915641D01*
X101969110Y-118915638D01*
X101802699Y-118860494D01*
X101802694Y-118860493D01*
X101699991Y-118850000D01*
X101699986Y-118850000D01*
X100150000Y-118850000D01*
X100150000Y-120350000D01*
X99650000Y-120350000D01*
X99650000Y-118850000D01*
X98100037Y-118850000D01*
X98100028Y-118850000D01*
X98100012Y-118850001D01*
X98100002Y-118850001D01*
X98100002Y-118850002D01*
X97997308Y-118860493D01*
X97997303Y-118860493D01*
X97997302Y-118860494D01*
X97997301Y-118860494D01*
X97997297Y-118860495D01*
X97879926Y-118899388D01*
X97845193Y-118905608D01*
X97831321Y-118906086D01*
X97763644Y-118888722D01*
X97716100Y-118837528D01*
X97713035Y-118831386D01*
X97699999Y-118776041D01*
X97699999Y-118541829D01*
X97705022Y-118506893D01*
X97709426Y-118491895D01*
X97719056Y-118476904D01*
X97724066Y-118459824D01*
X97747171Y-118433144D01*
X97748540Y-118431957D01*
X97803419Y-118404477D01*
X97810978Y-118402833D01*
X97837331Y-118400000D01*
X102658170Y-118400000D01*
X102693106Y-118405023D01*
G37*
%TD.AperFunction*%
%TA.AperFunction,Conductor*%
G36*
X87270114Y-112546964D02*
G01*
X87293425Y-112550984D01*
X87344488Y-112572322D01*
X87348233Y-112575000D01*
X88258171Y-112575000D01*
X88293106Y-112580023D01*
X88308104Y-112584427D01*
X88366855Y-112622172D01*
X88366879Y-112622200D01*
X88366882Y-112622202D01*
X88366883Y-112622204D01*
X88368042Y-112623541D01*
X88395518Y-112678402D01*
X88397163Y-112685960D01*
X88400000Y-112712331D01*
X88400000Y-112825000D01*
X88405909Y-112830909D01*
X88452823Y-112844685D01*
X88498578Y-112897489D01*
X88509763Y-112946784D01*
X88540318Y-114657812D01*
X88559642Y-115739996D01*
X88559641Y-115740008D01*
X88575552Y-116630960D01*
X88571551Y-116662824D01*
X88571155Y-116665975D01*
X88567020Y-116681050D01*
X88530303Y-116740494D01*
X88530265Y-116740529D01*
X88529357Y-116741344D01*
X88473981Y-116769987D01*
X88467298Y-116771504D01*
X88465451Y-116771923D01*
X88438001Y-116775000D01*
X86600030Y-116775000D01*
X86600014Y-116775001D01*
X86600004Y-116775001D01*
X86600004Y-116775002D01*
X86497306Y-116785493D01*
X86497304Y-116785494D01*
X86330889Y-116840638D01*
X86330881Y-116840641D01*
X86330879Y-116840642D01*
X86330877Y-116840643D01*
X86231395Y-116902003D01*
X86181653Y-116932685D01*
X86057685Y-117056653D01*
X85965641Y-117205881D01*
X85965638Y-117205890D01*
X85910494Y-117372301D01*
X85910493Y-117372306D01*
X85900000Y-117475009D01*
X85900000Y-120672854D01*
X85898404Y-120678286D01*
X85894974Y-120707798D01*
X85892273Y-120716994D01*
X85882636Y-120731985D01*
X85880315Y-120739893D01*
X85867547Y-120755461D01*
X85854494Y-120775770D01*
X85790936Y-120804789D01*
X85721778Y-120794840D01*
X85673651Y-120755847D01*
X85670804Y-120752004D01*
X85670253Y-120751060D01*
X85669929Y-120750808D01*
X85669654Y-120750032D01*
X85657143Y-120728572D01*
X85651997Y-120716994D01*
X85447015Y-120255783D01*
X84800000Y-118800000D01*
X84799999Y-118800000D01*
X80841833Y-118800000D01*
X80833160Y-118797453D01*
X80828627Y-118798106D01*
X80828607Y-118798399D01*
X80827264Y-118798302D01*
X80824215Y-118798742D01*
X80806892Y-118794975D01*
X80802520Y-118793691D01*
X80802803Y-118792724D01*
X80786694Y-118788612D01*
X80786439Y-118789298D01*
X80784842Y-118788702D01*
X80783703Y-118787849D01*
X80780999Y-118787159D01*
X80778292Y-118785923D01*
X80779015Y-118784338D01*
X80728917Y-118746820D01*
X80704512Y-118681351D01*
X80709268Y-118637435D01*
X80709475Y-118636731D01*
X80747172Y-118578144D01*
X80748541Y-118576957D01*
X80780097Y-118561155D01*
X80785793Y-118556218D01*
X80791639Y-118555376D01*
X80803420Y-118549477D01*
X80810979Y-118547833D01*
X80837332Y-118545000D01*
X82350000Y-118545000D01*
X82850000Y-118545000D01*
X84557828Y-118545000D01*
X84557836Y-118545000D01*
X84557847Y-118544999D01*
X84593560Y-118541158D01*
X84617372Y-118538598D01*
X84617379Y-118538596D01*
X84752086Y-118488354D01*
X84752093Y-118488350D01*
X84867187Y-118402190D01*
X84867190Y-118402187D01*
X84953350Y-118287093D01*
X84953354Y-118287086D01*
X85003596Y-118152379D01*
X85003598Y-118152372D01*
X85005069Y-118138689D01*
X85009998Y-118092860D01*
X85010000Y-118092827D01*
X85010000Y-116780000D01*
X82850000Y-116780000D01*
X82850000Y-118545000D01*
X82350000Y-118545000D01*
X82350000Y-116280000D01*
X82850000Y-116280000D01*
X85010000Y-116280000D01*
X85010000Y-114967172D01*
X85009999Y-114967155D01*
X85009998Y-114967138D01*
X85005463Y-114924971D01*
X87350000Y-114924971D01*
X87350001Y-114924987D01*
X87350002Y-114924996D01*
X87360493Y-115027694D01*
X87360493Y-115027695D01*
X87360494Y-115027697D01*
X87415641Y-115194119D01*
X87415643Y-115194124D01*
X87507684Y-115343345D01*
X87631654Y-115467315D01*
X87780875Y-115559356D01*
X87780880Y-115559358D01*
X87947299Y-115614504D01*
X87947300Y-115614504D01*
X87947302Y-115614505D01*
X87947309Y-115614506D01*
X88050019Y-115624999D01*
X88150000Y-115624998D01*
X88150000Y-113075000D01*
X87350000Y-113075000D01*
X87350000Y-114924971D01*
X85005463Y-114924971D01*
X85003598Y-114907628D01*
X85003596Y-114907621D01*
X85003596Y-114907620D01*
X84953354Y-114772913D01*
X84953350Y-114772906D01*
X84867190Y-114657812D01*
X84867187Y-114657809D01*
X84867185Y-114657807D01*
X84809317Y-114614487D01*
X84752093Y-114571649D01*
X84752088Y-114571646D01*
X84752089Y-114571646D01*
X84617377Y-114521402D01*
X84617370Y-114521400D01*
X84557852Y-114515000D01*
X84557844Y-114515000D01*
X82850000Y-114515000D01*
X82850000Y-116280000D01*
X82350000Y-116280000D01*
X82350000Y-114515000D01*
X80841830Y-114515000D01*
X80841825Y-114514999D01*
X80841823Y-114515000D01*
X80806889Y-114509975D01*
X80791890Y-114505570D01*
X80733144Y-114467827D01*
X80733115Y-114467793D01*
X80733114Y-114467793D01*
X80733113Y-114467791D01*
X80731957Y-114466458D01*
X80704477Y-114411583D01*
X80702832Y-114404021D01*
X80700000Y-114377668D01*
X80700000Y-113428344D01*
X80705023Y-113393408D01*
X80709427Y-113378410D01*
X80730058Y-113346308D01*
X80747200Y-113319634D01*
X80751418Y-113315979D01*
X80799290Y-113290255D01*
X80800356Y-113289958D01*
X80819449Y-113286216D01*
X87234841Y-112545979D01*
X87270114Y-112546964D01*
G37*
%TD.AperFunction*%
%TD*%
%TA.AperFunction,Conductor*%
%TO.N,Net-(C20-Pad2)*%
G36*
X113913106Y-116155023D02*
G01*
X113928104Y-116159427D01*
X113943094Y-116169057D01*
X113960175Y-116174067D01*
X113986855Y-116197172D01*
X113988042Y-116198541D01*
X114015518Y-116253402D01*
X114017163Y-116260960D01*
X114020000Y-116287331D01*
X114020000Y-116508170D01*
X114014975Y-116543114D01*
X114010570Y-116558112D01*
X114000939Y-116573101D01*
X113995932Y-116590175D01*
X113972827Y-116616855D01*
X113971458Y-116618042D01*
X113916597Y-116645518D01*
X113909039Y-116647163D01*
X113882668Y-116650000D01*
X112830000Y-116650000D01*
X112830000Y-117374999D01*
X112853296Y-117374999D01*
X112853308Y-117374999D01*
X112853322Y-117374998D01*
X112952607Y-117364855D01*
X113113484Y-117311546D01*
X113113486Y-117311545D01*
X113140000Y-117295191D01*
X113140000Y-117291829D01*
X113145023Y-117256893D01*
X113149427Y-117241895D01*
X113187172Y-117183144D01*
X113187200Y-117183119D01*
X113187199Y-117183119D01*
X113188541Y-117181956D01*
X113243420Y-117154477D01*
X113250979Y-117152833D01*
X113277332Y-117150000D01*
X113908171Y-117150000D01*
X113943106Y-117155023D01*
X113958104Y-117159427D01*
X114016855Y-117197172D01*
X114016879Y-117197200D01*
X114016882Y-117197202D01*
X114016883Y-117197204D01*
X114018042Y-117198541D01*
X114045518Y-117253402D01*
X114047163Y-117260960D01*
X114050000Y-117287331D01*
X114050000Y-117508170D01*
X114049999Y-117508176D01*
X114050000Y-117508179D01*
X114044975Y-117543114D01*
X114040570Y-117558112D01*
X114002827Y-117616855D01*
X114002792Y-117616885D01*
X114002791Y-117616887D01*
X114002789Y-117616887D01*
X114001458Y-117618042D01*
X113946597Y-117645518D01*
X113939039Y-117647163D01*
X113912668Y-117650000D01*
X113271210Y-117650000D01*
X113269264Y-117650850D01*
X113248715Y-117667531D01*
X113246507Y-117669323D01*
X113224620Y-117682415D01*
X113160966Y-117700000D01*
X112859266Y-117700000D01*
X112824330Y-117694977D01*
X112794405Y-117686190D01*
X112756457Y-117667531D01*
X112686437Y-117616659D01*
X112686436Y-117616658D01*
X112686434Y-117616657D01*
X112581215Y-117563045D01*
X112475993Y-117509431D01*
X112377609Y-117477465D01*
X112377603Y-117477462D01*
X112377600Y-117477462D01*
X112345928Y-117461887D01*
X112334473Y-117454053D01*
X112290249Y-117399961D01*
X112282288Y-117330555D01*
X112283583Y-117323072D01*
X112303842Y-117273596D01*
X112315176Y-117257239D01*
X112406404Y-117056393D01*
X112460304Y-116842485D01*
X112470500Y-116712933D01*
X112470499Y-116541826D01*
X112472775Y-116526000D01*
X112475522Y-116506891D01*
X112479925Y-116491896D01*
X112517670Y-116433144D01*
X112519039Y-116431957D01*
X112573913Y-116404478D01*
X112575968Y-116404031D01*
X112580000Y-116400000D01*
X112580000Y-116291829D01*
X112585023Y-116256893D01*
X112589427Y-116241895D01*
X112627172Y-116183144D01*
X112627200Y-116183119D01*
X112627199Y-116183119D01*
X112628541Y-116181956D01*
X112683420Y-116154477D01*
X112690979Y-116152833D01*
X112717332Y-116150000D01*
X113878170Y-116150000D01*
X113913106Y-116155023D01*
G37*
%TD.AperFunction*%
%TD*%
%TA.AperFunction,Conductor*%
%TO.N,GND*%
G36*
X175343039Y-117969685D02*
G01*
X175388794Y-118022489D01*
X175400000Y-118074000D01*
X175400000Y-121326000D01*
X175380315Y-121393039D01*
X175327511Y-121438794D01*
X175276000Y-121450000D01*
X173024000Y-121450000D01*
X172956961Y-121430315D01*
X172911206Y-121377511D01*
X172900000Y-121326000D01*
X172900000Y-118074000D01*
X172919685Y-118006961D01*
X172972489Y-117961206D01*
X173024000Y-117950000D01*
X175276000Y-117950000D01*
X175343039Y-117969685D01*
G37*
%TD.AperFunction*%
%TD*%
%TA.AperFunction,Conductor*%
%TO.N,GND*%
G36*
X124476634Y-101111615D02*
G01*
X124543571Y-101131641D01*
X124589056Y-101184678D01*
X124600000Y-101235613D01*
X124600000Y-106976000D01*
X124580315Y-107043039D01*
X124527511Y-107088794D01*
X124476000Y-107100000D01*
X119824000Y-107100000D01*
X119756961Y-107080315D01*
X119711206Y-107027511D01*
X119700000Y-106976000D01*
X119700000Y-106644654D01*
X119719685Y-106577615D01*
X119772489Y-106531860D01*
X119841647Y-106521916D01*
X119876403Y-106532271D01*
X119880877Y-106534357D01*
X120047302Y-106589505D01*
X120047309Y-106589506D01*
X120150019Y-106599999D01*
X120949999Y-106599999D01*
X121450000Y-106599999D01*
X122249972Y-106599999D01*
X122249986Y-106599998D01*
X122352697Y-106589505D01*
X122519119Y-106534358D01*
X122519124Y-106534356D01*
X122668345Y-106442315D01*
X122792315Y-106318345D01*
X122884356Y-106169124D01*
X122884358Y-106169119D01*
X122939505Y-106002697D01*
X122939506Y-106002690D01*
X122949999Y-105899986D01*
X122950000Y-105899973D01*
X122950000Y-104350000D01*
X121450000Y-104350000D01*
X121450000Y-106599999D01*
X120949999Y-106599999D01*
X120950000Y-106599998D01*
X120950000Y-103850000D01*
X121450000Y-103850000D01*
X122949999Y-103850000D01*
X122949999Y-102300028D01*
X122949998Y-102300013D01*
X122939505Y-102197302D01*
X122884358Y-102030880D01*
X122884356Y-102030875D01*
X122792315Y-101881654D01*
X122668345Y-101757684D01*
X122519124Y-101665643D01*
X122519119Y-101665641D01*
X122352697Y-101610494D01*
X122352690Y-101610493D01*
X122249986Y-101600000D01*
X121450000Y-101600000D01*
X121450000Y-103850000D01*
X120950000Y-103850000D01*
X120950000Y-101600000D01*
X120150028Y-101600000D01*
X120150012Y-101600001D01*
X120047302Y-101610494D01*
X119880871Y-101665644D01*
X119876394Y-101667732D01*
X119807316Y-101678217D01*
X119743535Y-101649692D01*
X119705300Y-101591212D01*
X119700000Y-101555345D01*
X119700000Y-101211878D01*
X119719685Y-101144839D01*
X119772489Y-101099084D01*
X119824628Y-101087880D01*
X124476634Y-101111615D01*
G37*
%TD.AperFunction*%
%TD*%
%TA.AperFunction,Conductor*%
%TO.N,GND*%
G36*
X117193106Y-91305023D02*
G01*
X117208104Y-91309427D01*
X117223094Y-91319057D01*
X117240175Y-91324067D01*
X117266855Y-91347172D01*
X117268042Y-91348541D01*
X117295518Y-91403402D01*
X117297163Y-91410960D01*
X117300000Y-91437331D01*
X117300000Y-94308170D01*
X117294975Y-94343114D01*
X117290570Y-94358112D01*
X117280939Y-94373101D01*
X117275932Y-94390175D01*
X117252827Y-94416855D01*
X117251458Y-94418042D01*
X117196597Y-94445518D01*
X117189039Y-94447163D01*
X117162668Y-94450000D01*
X115391830Y-94450000D01*
X115356889Y-94444975D01*
X115341890Y-94440570D01*
X115326902Y-94430940D01*
X115309824Y-94425932D01*
X115283144Y-94402827D01*
X115281957Y-94401458D01*
X115254477Y-94346583D01*
X115252832Y-94339021D01*
X115250000Y-94312668D01*
X115250000Y-91441829D01*
X115255023Y-91406893D01*
X115259427Y-91391895D01*
X115269057Y-91376904D01*
X115274067Y-91359824D01*
X115297172Y-91333144D01*
X115298541Y-91331957D01*
X115353420Y-91304477D01*
X115360979Y-91302833D01*
X115387332Y-91300000D01*
X117158170Y-91300000D01*
X117193106Y-91305023D01*
G37*
%TD.AperFunction*%
%TD*%
%TA.AperFunction,Conductor*%
%TO.N,GND*%
G36*
X137343039Y-91469685D02*
G01*
X137388794Y-91522489D01*
X137400000Y-91574000D01*
X137400000Y-94476000D01*
X137380315Y-94543039D01*
X137327511Y-94588794D01*
X137276000Y-94600000D01*
X128824000Y-94600000D01*
X128756961Y-94580315D01*
X128711206Y-94527511D01*
X128700000Y-94476000D01*
X128700000Y-91574000D01*
X128719685Y-91506961D01*
X128772489Y-91461206D01*
X128824000Y-91450000D01*
X137276000Y-91450000D01*
X137343039Y-91469685D01*
G37*
%TD.AperFunction*%
%TD*%
%TA.AperFunction,Conductor*%
%TO.N,GND*%
G36*
X110243106Y-91455023D02*
G01*
X110258104Y-91459427D01*
X110273094Y-91469057D01*
X110290175Y-91474067D01*
X110316855Y-91497172D01*
X110318042Y-91498541D01*
X110345518Y-91553402D01*
X110347163Y-91560960D01*
X110350000Y-91587331D01*
X110350000Y-94458170D01*
X110344975Y-94493114D01*
X110340570Y-94508112D01*
X110330939Y-94523101D01*
X110325932Y-94540175D01*
X110302827Y-94566855D01*
X110301458Y-94568042D01*
X110246597Y-94595518D01*
X110239039Y-94597163D01*
X110212668Y-94600000D01*
X108441830Y-94600000D01*
X108406889Y-94594975D01*
X108391890Y-94590570D01*
X108376902Y-94580940D01*
X108359824Y-94575932D01*
X108333144Y-94552827D01*
X108331957Y-94551458D01*
X108304477Y-94496583D01*
X108302832Y-94489021D01*
X108300000Y-94462668D01*
X108300000Y-91591829D01*
X108305023Y-91556893D01*
X108309427Y-91541895D01*
X108319057Y-91526904D01*
X108324067Y-91509824D01*
X108347172Y-91483144D01*
X108348541Y-91481957D01*
X108403420Y-91454477D01*
X108410979Y-91452833D01*
X108437332Y-91450000D01*
X110208170Y-91450000D01*
X110243106Y-91455023D01*
G37*
%TD.AperFunction*%
%TD*%
%TA.AperFunction,Conductor*%
%TO.N,GND*%
G36*
X148343039Y-91469685D02*
G01*
X148388794Y-91522489D01*
X148400000Y-91574000D01*
X148400000Y-94476000D01*
X148380315Y-94543039D01*
X148327511Y-94588794D01*
X148276000Y-94600000D01*
X146474000Y-94600000D01*
X146406961Y-94580315D01*
X146361206Y-94527511D01*
X146350000Y-94476000D01*
X146350000Y-91574000D01*
X146369685Y-91506961D01*
X146422489Y-91461206D01*
X146474000Y-91450000D01*
X148276000Y-91450000D01*
X148343039Y-91469685D01*
G37*
%TD.AperFunction*%
%TD*%
%TA.AperFunction,Conductor*%
%TO.N,+5V*%
G36*
X114443039Y-91469685D02*
G01*
X114488794Y-91522489D01*
X114500000Y-91574000D01*
X114500000Y-94476000D01*
X114480315Y-94543039D01*
X114427511Y-94588794D01*
X114376000Y-94600000D01*
X111124000Y-94600000D01*
X111056961Y-94580315D01*
X111011206Y-94527511D01*
X111000000Y-94476000D01*
X111000000Y-91574000D01*
X111019685Y-91506961D01*
X111072489Y-91461206D01*
X111124000Y-91450000D01*
X114376000Y-91450000D01*
X114443039Y-91469685D01*
G37*
%TD.AperFunction*%
%TD*%
%TA.AperFunction,Conductor*%
%TO.N,BRD_VIN*%
G36*
X127340955Y-91469685D02*
G01*
X127386710Y-91522489D01*
X127397899Y-91576066D01*
X127352032Y-94328066D01*
X127331233Y-94394769D01*
X127277674Y-94439637D01*
X127228049Y-94450000D01*
X118721951Y-94450000D01*
X118654912Y-94430315D01*
X118609157Y-94377511D01*
X118597968Y-94328066D01*
X118552101Y-91576066D01*
X118570666Y-91508708D01*
X118622700Y-91462080D01*
X118676084Y-91450000D01*
X127273916Y-91450000D01*
X127340955Y-91469685D01*
G37*
%TD.AperFunction*%
%TD*%
%TA.AperFunction,Conductor*%
%TO.N,Vin*%
G36*
X84780965Y-126730462D02*
G01*
X84787558Y-126732874D01*
X84810680Y-126744174D01*
X85871526Y-127407203D01*
X85873903Y-127408729D01*
X85876360Y-127410347D01*
X85878720Y-127411942D01*
X85996539Y-127493566D01*
X85996540Y-127493568D01*
X85996541Y-127493568D01*
X86030367Y-127517004D01*
X86030372Y-127517007D01*
X86080811Y-127539917D01*
X86088134Y-127543541D01*
X86090988Y-127545072D01*
X86095342Y-127547409D01*
X86102426Y-127551517D01*
X86500000Y-127800000D01*
X90056869Y-127800000D01*
X90068389Y-127803382D01*
X90091797Y-127805021D01*
X90098065Y-127806861D01*
X90101621Y-127807905D01*
X90116625Y-127817546D01*
X90123908Y-127819685D01*
X90137791Y-127830044D01*
X90142835Y-127834388D01*
X90160401Y-127845676D01*
X90189430Y-127909230D01*
X90182327Y-127958645D01*
X90182344Y-127964085D01*
X90181313Y-127965698D01*
X90179490Y-127978389D01*
X90147991Y-128017892D01*
X90144746Y-128022976D01*
X90143469Y-128023563D01*
X90142018Y-128025384D01*
X90138588Y-128028007D01*
X90117064Y-128041227D01*
X89964580Y-128114658D01*
X89722067Y-128267039D01*
X89722063Y-128267042D01*
X89582162Y-128378608D01*
X90335621Y-129132067D01*
X90369106Y-129193390D01*
X90364122Y-129263082D01*
X90323937Y-129316760D01*
X90324239Y-129317114D01*
X90322669Y-129318454D01*
X90322250Y-129319015D01*
X90320834Y-129320060D01*
X90320537Y-129320275D01*
X90320531Y-129320280D01*
X90170280Y-129470531D01*
X90170275Y-129470537D01*
X90170060Y-129470834D01*
X90169949Y-129470919D01*
X90167114Y-129474239D01*
X90166416Y-129473643D01*
X90114726Y-129513495D01*
X90045113Y-129519468D01*
X89983320Y-129486857D01*
X89982067Y-129485621D01*
X89228608Y-128732162D01*
X89117042Y-128872063D01*
X89117039Y-128872067D01*
X88964660Y-129114577D01*
X88840399Y-129372608D01*
X88840393Y-129372622D01*
X88745810Y-129642920D01*
X88745803Y-129642941D01*
X88745800Y-129642953D01*
X88745799Y-129642957D01*
X88699685Y-129844999D01*
X88682067Y-129922187D01*
X88682063Y-129922217D01*
X88650000Y-130206785D01*
X88650000Y-130493213D01*
X88682063Y-130777781D01*
X88682066Y-130777801D01*
X88682068Y-130777817D01*
X88732780Y-131000000D01*
X88745800Y-131057045D01*
X88745803Y-131057057D01*
X88745810Y-131057078D01*
X88840393Y-131327376D01*
X88840399Y-131327390D01*
X88964660Y-131585421D01*
X89117043Y-131827937D01*
X89117046Y-131827941D01*
X89228607Y-131967836D01*
X89228607Y-131967835D01*
X89228608Y-131967836D01*
X89982067Y-131214376D01*
X90043388Y-131180893D01*
X90113079Y-131185877D01*
X90166751Y-131226055D01*
X90167106Y-131225753D01*
X90168452Y-131227329D01*
X90169013Y-131227749D01*
X90170055Y-131229161D01*
X90170270Y-131229457D01*
X90170276Y-131229464D01*
X90320535Y-131379723D01*
X90320540Y-131379727D01*
X90320823Y-131379933D01*
X90320904Y-131380038D01*
X90324247Y-131382894D01*
X90323647Y-131383595D01*
X90363489Y-131435263D01*
X90369468Y-131504876D01*
X90336862Y-131566671D01*
X90335619Y-131567932D01*
X89582161Y-132321390D01*
X89722057Y-132432952D01*
X89722061Y-132432955D01*
X89722064Y-132432957D01*
X89964575Y-132585337D01*
X90222616Y-132709603D01*
X90222622Y-132709605D01*
X90492920Y-132804188D01*
X90492941Y-132804195D01*
X90492945Y-132804196D01*
X90492957Y-132804200D01*
X90772182Y-132867931D01*
X90772198Y-132867933D01*
X91049414Y-132899167D01*
X91054203Y-132900000D01*
X91343208Y-132900000D01*
X91353003Y-132900000D01*
X91360602Y-132898039D01*
X91627801Y-132867933D01*
X91627817Y-132867931D01*
X91907042Y-132804200D01*
X91907054Y-132804196D01*
X91907057Y-132804195D01*
X91907078Y-132804188D01*
X92034031Y-132759764D01*
X92177383Y-132709603D01*
X92435424Y-132585337D01*
X92677935Y-132432958D01*
X92817836Y-132321389D01*
X92817835Y-132321388D01*
X92817836Y-132321388D01*
X92064379Y-131567933D01*
X92030894Y-131506610D01*
X92035878Y-131436919D01*
X92076055Y-131383247D01*
X92075753Y-131382894D01*
X92077325Y-131381550D01*
X92077749Y-131380985D01*
X92079182Y-131379929D01*
X92079462Y-131379725D01*
X92079462Y-131379724D01*
X92079466Y-131379722D01*
X92229722Y-131229466D01*
X92229925Y-131229185D01*
X92230030Y-131229104D01*
X92232888Y-131225759D01*
X92233590Y-131226358D01*
X92285250Y-131186514D01*
X92354863Y-131180527D01*
X92416661Y-131213126D01*
X92417932Y-131214379D01*
X93171388Y-131967836D01*
X93171388Y-131967835D01*
X93171389Y-131967836D01*
X93282958Y-131827935D01*
X93435337Y-131585424D01*
X93559603Y-131327383D01*
X93609764Y-131184031D01*
X93654188Y-131057078D01*
X93654195Y-131057057D01*
X93654196Y-131057054D01*
X93654200Y-131057042D01*
X93717931Y-130777817D01*
X93717933Y-130777801D01*
X93749168Y-130500582D01*
X93750000Y-130495795D01*
X93750000Y-130204202D01*
X93749167Y-130199414D01*
X93717933Y-129922198D01*
X93717931Y-129922182D01*
X93654200Y-129642957D01*
X93654196Y-129642945D01*
X93654195Y-129642941D01*
X93654188Y-129642920D01*
X93559605Y-129372622D01*
X93559603Y-129372616D01*
X93451452Y-129148039D01*
X93435338Y-129114577D01*
X93282955Y-128872061D01*
X93282952Y-128872057D01*
X93171390Y-128732161D01*
X93171389Y-128732161D01*
X92417931Y-129485619D01*
X92356608Y-129519104D01*
X92286916Y-129514120D01*
X92233239Y-129473937D01*
X92232886Y-129474239D01*
X92231544Y-129472668D01*
X92230983Y-129472248D01*
X92229932Y-129470823D01*
X92229724Y-129470537D01*
X92229719Y-129470531D01*
X92079464Y-129320276D01*
X92079457Y-129320270D01*
X92079161Y-129320055D01*
X92079075Y-129319944D01*
X92075753Y-129317106D01*
X92076349Y-129316407D01*
X92036502Y-129264720D01*
X92030532Y-129195105D01*
X92063146Y-129133314D01*
X92064305Y-129132138D01*
X92817836Y-128378608D01*
X92817835Y-128378607D01*
X92817836Y-128378607D01*
X92677941Y-128267046D01*
X92677937Y-128267043D01*
X92435421Y-128114660D01*
X92287562Y-128043455D01*
X92278645Y-128035404D01*
X92258266Y-128023771D01*
X92250667Y-128016910D01*
X92241337Y-128001720D01*
X92235703Y-127996633D01*
X92227690Y-127981275D01*
X92225027Y-127975164D01*
X92214100Y-127957374D01*
X92215525Y-127887519D01*
X92243360Y-127846089D01*
X92245708Y-127841178D01*
X92247338Y-127840170D01*
X92254491Y-127829524D01*
X92299966Y-127807628D01*
X92305134Y-127804433D01*
X92306551Y-127804457D01*
X92308659Y-127803442D01*
X92312893Y-127802566D01*
X92337993Y-127800000D01*
X95258170Y-127800000D01*
X95293106Y-127805023D01*
X95308104Y-127809427D01*
X95366855Y-127847172D01*
X95368042Y-127848541D01*
X95395518Y-127903402D01*
X95397163Y-127910960D01*
X95400000Y-127937331D01*
X95400000Y-128832326D01*
X95399203Y-128846365D01*
X95397317Y-128862916D01*
X95397232Y-128863560D01*
X95397241Y-128863562D01*
X95397236Y-128863604D01*
X95397069Y-128864805D01*
X95396775Y-128867049D01*
X95396771Y-128867076D01*
X95396754Y-128867073D01*
X95396578Y-128868344D01*
X95352282Y-129148008D01*
X95352279Y-129148035D01*
X95349500Y-129211707D01*
X95349500Y-131488293D01*
X95352278Y-131551954D01*
X95352284Y-131552013D01*
X95352364Y-131552505D01*
X95396573Y-131831624D01*
X95397301Y-131836969D01*
X95399201Y-131853626D01*
X95400000Y-131867679D01*
X95400000Y-132900000D01*
X95977746Y-132900000D01*
X96012678Y-132905022D01*
X96020897Y-132907435D01*
X96039604Y-132912928D01*
X96086021Y-132938321D01*
X96153049Y-132996588D01*
X96303996Y-133094614D01*
X96390620Y-133150868D01*
X96647353Y-133270585D01*
X96918249Y-133353406D01*
X97097354Y-133381773D01*
X97195610Y-133397336D01*
X97197520Y-133397678D01*
X97198016Y-133397717D01*
X97198027Y-133397719D01*
X97198030Y-133397719D01*
X97198035Y-133397720D01*
X97198067Y-133397721D01*
X97199071Y-133397801D01*
X97200714Y-133397837D01*
X97203093Y-133397940D01*
X97261711Y-133400500D01*
X99538288Y-133400499D01*
X99538291Y-133400499D01*
X99576494Y-133398831D01*
X99601965Y-133397720D01*
X99881751Y-133353406D01*
X100152647Y-133270585D01*
X100409380Y-133150868D01*
X100646953Y-132996586D01*
X100709621Y-132942108D01*
X100739278Y-132922984D01*
X100764781Y-132911287D01*
X100816472Y-132900000D01*
X105477746Y-132900000D01*
X105512678Y-132905022D01*
X105520897Y-132907435D01*
X105539604Y-132912928D01*
X105586021Y-132938321D01*
X105653049Y-132996588D01*
X105803996Y-133094614D01*
X105890620Y-133150868D01*
X106147353Y-133270585D01*
X106418249Y-133353406D01*
X106597354Y-133381773D01*
X106695610Y-133397336D01*
X106697520Y-133397678D01*
X106698016Y-133397717D01*
X106698027Y-133397719D01*
X106698030Y-133397719D01*
X106698035Y-133397720D01*
X106698067Y-133397721D01*
X106699071Y-133397801D01*
X106700714Y-133397837D01*
X106703093Y-133397940D01*
X106761711Y-133400500D01*
X109038288Y-133400499D01*
X109038291Y-133400499D01*
X109076494Y-133398831D01*
X109101965Y-133397720D01*
X109381751Y-133353406D01*
X109652647Y-133270585D01*
X109909380Y-133150868D01*
X110146953Y-132996586D01*
X110209621Y-132942108D01*
X110239278Y-132922984D01*
X110264781Y-132911287D01*
X110316472Y-132900000D01*
X111300000Y-132900000D01*
X111300000Y-127941829D01*
X111305023Y-127906893D01*
X111309427Y-127891895D01*
X111311016Y-127889422D01*
X111347172Y-127833144D01*
X111347200Y-127833119D01*
X111347199Y-127833119D01*
X111348541Y-127831956D01*
X111403420Y-127804477D01*
X111403623Y-127804433D01*
X111408183Y-127803441D01*
X111410979Y-127802833D01*
X111437332Y-127800000D01*
X113956869Y-127800000D01*
X113968389Y-127803382D01*
X113991797Y-127805021D01*
X113998065Y-127806861D01*
X114001621Y-127807905D01*
X114016625Y-127817546D01*
X114023908Y-127819685D01*
X114037791Y-127830044D01*
X114042835Y-127834388D01*
X114060401Y-127845676D01*
X114089430Y-127909230D01*
X114082327Y-127958645D01*
X114082344Y-127964085D01*
X114081313Y-127965698D01*
X114079490Y-127978389D01*
X114047991Y-128017892D01*
X114044746Y-128022976D01*
X114043469Y-128023563D01*
X114042018Y-128025384D01*
X114038588Y-128028007D01*
X114017064Y-128041227D01*
X113864580Y-128114658D01*
X113622067Y-128267039D01*
X113622063Y-128267042D01*
X113482162Y-128378608D01*
X114235621Y-129132067D01*
X114269106Y-129193390D01*
X114264122Y-129263082D01*
X114223937Y-129316760D01*
X114224239Y-129317114D01*
X114222669Y-129318454D01*
X114222250Y-129319015D01*
X114220834Y-129320060D01*
X114220537Y-129320275D01*
X114220531Y-129320280D01*
X114070280Y-129470531D01*
X114070275Y-129470537D01*
X114070060Y-129470834D01*
X114069949Y-129470919D01*
X114067114Y-129474239D01*
X114066416Y-129473643D01*
X114014726Y-129513495D01*
X113945113Y-129519468D01*
X113883320Y-129486857D01*
X113882067Y-129485621D01*
X113128608Y-128732162D01*
X113017042Y-128872063D01*
X113017039Y-128872067D01*
X112864660Y-129114577D01*
X112740399Y-129372608D01*
X112740393Y-129372622D01*
X112645810Y-129642920D01*
X112645803Y-129642941D01*
X112645800Y-129642953D01*
X112645799Y-129642957D01*
X112599685Y-129844999D01*
X112582067Y-129922187D01*
X112582063Y-129922217D01*
X112550000Y-130206785D01*
X112550000Y-130493213D01*
X112582063Y-130777781D01*
X112582066Y-130777801D01*
X112582068Y-130777817D01*
X112632780Y-131000000D01*
X112645800Y-131057045D01*
X112645803Y-131057057D01*
X112645810Y-131057078D01*
X112740393Y-131327376D01*
X112740399Y-131327390D01*
X112864660Y-131585421D01*
X113017043Y-131827937D01*
X113017046Y-131827941D01*
X113128607Y-131967836D01*
X113128607Y-131967835D01*
X113128608Y-131967836D01*
X113882067Y-131214376D01*
X113943388Y-131180893D01*
X114013079Y-131185877D01*
X114066751Y-131226055D01*
X114067106Y-131225753D01*
X114068452Y-131227329D01*
X114069013Y-131227749D01*
X114070055Y-131229161D01*
X114070270Y-131229457D01*
X114070276Y-131229464D01*
X114220535Y-131379723D01*
X114220540Y-131379727D01*
X114220823Y-131379933D01*
X114220904Y-131380038D01*
X114224247Y-131382894D01*
X114223647Y-131383595D01*
X114263489Y-131435263D01*
X114269468Y-131504876D01*
X114236862Y-131566671D01*
X114235619Y-131567932D01*
X113482161Y-132321390D01*
X113622057Y-132432952D01*
X113622061Y-132432955D01*
X113622064Y-132432957D01*
X113864575Y-132585337D01*
X114122616Y-132709603D01*
X114122622Y-132709605D01*
X114392920Y-132804188D01*
X114392941Y-132804195D01*
X114392945Y-132804196D01*
X114392957Y-132804200D01*
X114672182Y-132867931D01*
X114672198Y-132867933D01*
X114949414Y-132899167D01*
X114954203Y-132900000D01*
X115243208Y-132900000D01*
X115253003Y-132900000D01*
X115260602Y-132898039D01*
X115527801Y-132867933D01*
X115527817Y-132867931D01*
X115807042Y-132804200D01*
X115807054Y-132804196D01*
X115807057Y-132804195D01*
X115807078Y-132804188D01*
X115934031Y-132759764D01*
X116077383Y-132709603D01*
X116335424Y-132585337D01*
X116577935Y-132432958D01*
X116717836Y-132321389D01*
X116717835Y-132321388D01*
X116717836Y-132321388D01*
X115964379Y-131567933D01*
X115930894Y-131506610D01*
X115935878Y-131436919D01*
X115976055Y-131383247D01*
X115975753Y-131382894D01*
X115977325Y-131381550D01*
X115977749Y-131380985D01*
X115979182Y-131379929D01*
X115979462Y-131379725D01*
X115979462Y-131379724D01*
X115979466Y-131379722D01*
X116129722Y-131229466D01*
X116129729Y-131229457D01*
X116129929Y-131229182D01*
X116130034Y-131229100D01*
X116132894Y-131225753D01*
X116133596Y-131226353D01*
X116185256Y-131186512D01*
X116254869Y-131180528D01*
X116316666Y-131213130D01*
X116317933Y-131214379D01*
X117071388Y-131967836D01*
X117071388Y-131967835D01*
X117071389Y-131967836D01*
X117182958Y-131827935D01*
X117335337Y-131585424D01*
X117459603Y-131327383D01*
X117509764Y-131184031D01*
X117554188Y-131057078D01*
X117554195Y-131057057D01*
X117554196Y-131057054D01*
X117554200Y-131057042D01*
X117617931Y-130777817D01*
X117617933Y-130777801D01*
X117649168Y-130500582D01*
X117650000Y-130495795D01*
X117650000Y-130204202D01*
X117649167Y-130199414D01*
X117617933Y-129922198D01*
X117617931Y-129922182D01*
X117554200Y-129642957D01*
X117554196Y-129642945D01*
X117554195Y-129642941D01*
X117554188Y-129642920D01*
X117459605Y-129372622D01*
X117459603Y-129372616D01*
X117351452Y-129148039D01*
X117335338Y-129114577D01*
X117182955Y-128872061D01*
X117182952Y-128872057D01*
X117071390Y-128732161D01*
X117071389Y-128732161D01*
X116317931Y-129485619D01*
X116256608Y-129519104D01*
X116186916Y-129514120D01*
X116133239Y-129473937D01*
X116132886Y-129474239D01*
X116131544Y-129472668D01*
X116130983Y-129472248D01*
X116129932Y-129470823D01*
X116129724Y-129470537D01*
X116129719Y-129470531D01*
X115979464Y-129320276D01*
X115979457Y-129320270D01*
X115979161Y-129320055D01*
X115979075Y-129319944D01*
X115975753Y-129317106D01*
X115976349Y-129316407D01*
X115936502Y-129264720D01*
X115930532Y-129195105D01*
X115963146Y-129133314D01*
X115964305Y-129132138D01*
X116717836Y-128378608D01*
X116717835Y-128378607D01*
X116717836Y-128378607D01*
X116577941Y-128267046D01*
X116577937Y-128267043D01*
X116335421Y-128114660D01*
X116187562Y-128043455D01*
X116178645Y-128035404D01*
X116158266Y-128023771D01*
X116150667Y-128016910D01*
X116141337Y-128001720D01*
X116135703Y-127996633D01*
X116127690Y-127981275D01*
X116125027Y-127975164D01*
X116114100Y-127957374D01*
X116115525Y-127887519D01*
X116143360Y-127846089D01*
X116145708Y-127841178D01*
X116147338Y-127840170D01*
X116154491Y-127829524D01*
X116199966Y-127807628D01*
X116205134Y-127804433D01*
X116206551Y-127804457D01*
X116208659Y-127803442D01*
X116212893Y-127802566D01*
X116237993Y-127800000D01*
X119658170Y-127800000D01*
X119693106Y-127805023D01*
X119708104Y-127809427D01*
X119766855Y-127847172D01*
X119768042Y-127848541D01*
X119795518Y-127903402D01*
X119797163Y-127910960D01*
X119800000Y-127937331D01*
X119800000Y-134771879D01*
X119795509Y-134787171D01*
X119794976Y-134806816D01*
X119791910Y-134817257D01*
X119782271Y-134832254D01*
X119780315Y-134838918D01*
X119776525Y-134844479D01*
X119771120Y-134851963D01*
X119768099Y-134854305D01*
X119754135Y-134876035D01*
X119719976Y-134891633D01*
X119715912Y-134894786D01*
X119712387Y-134895098D01*
X119690578Y-134905058D01*
X119656076Y-134900096D01*
X119646315Y-134900963D01*
X119640344Y-134897834D01*
X119621420Y-134895113D01*
X119593756Y-134873421D01*
X119584428Y-134868533D01*
X119581939Y-134864155D01*
X119575681Y-134859248D01*
X119573336Y-134856282D01*
X119560690Y-134836779D01*
X119540190Y-134797535D01*
X119539748Y-134796670D01*
X119539699Y-134796594D01*
X119487683Y-134732803D01*
X119468864Y-134709723D01*
X119450461Y-134687153D01*
X119411111Y-134638891D01*
X119373266Y-134608033D01*
X119317805Y-134562811D01*
X119305703Y-134545166D01*
X119253404Y-134510300D01*
X119086933Y-134423343D01*
X119086931Y-134423342D01*
X119073049Y-134416091D01*
X119073048Y-134416090D01*
X119073045Y-134416089D01*
X118955829Y-134382550D01*
X118954492Y-134382167D01*
X118954481Y-134382164D01*
X118879981Y-134360847D01*
X118877825Y-134360179D01*
X118875347Y-134359777D01*
X118871936Y-134359626D01*
X118862628Y-134358798D01*
X118811102Y-134354217D01*
X118811101Y-134354216D01*
X118758039Y-134349500D01*
X118758037Y-134349500D01*
X118758032Y-134349500D01*
X117741971Y-134349500D01*
X117741965Y-134349500D01*
X117729897Y-134349500D01*
X117723042Y-134351182D01*
X117622582Y-134360113D01*
X117426952Y-134416089D01*
X117336771Y-134463194D01*
X117336772Y-134463195D01*
X117254043Y-134506409D01*
X117254034Y-134506415D01*
X117246593Y-134510302D01*
X117246591Y-134510303D01*
X117246590Y-134510304D01*
X117237627Y-134517611D01*
X117237620Y-134517617D01*
X117088887Y-134638892D01*
X116965914Y-134789707D01*
X116965915Y-134789708D01*
X116960303Y-134796590D01*
X116955985Y-134804857D01*
X116928880Y-134856748D01*
X116866090Y-134976949D01*
X116866089Y-134976952D01*
X116810848Y-135170016D01*
X116810236Y-135171992D01*
X116810113Y-135172581D01*
X116799500Y-135291967D01*
X116799500Y-137358170D01*
X116796930Y-137376045D01*
X116794477Y-137393104D01*
X116790073Y-137408103D01*
X116752299Y-137466881D01*
X116752289Y-137466890D01*
X116750920Y-137468076D01*
X116696098Y-137495518D01*
X116688540Y-137497163D01*
X116662169Y-137500000D01*
X106342330Y-137500000D01*
X106342325Y-137499999D01*
X106342323Y-137500000D01*
X106307389Y-137494975D01*
X106292390Y-137490570D01*
X106233644Y-137452827D01*
X106233615Y-137452793D01*
X106233614Y-137452793D01*
X106233613Y-137452791D01*
X106232457Y-137451458D01*
X106204981Y-137396597D01*
X106204215Y-137393079D01*
X106203335Y-137389033D01*
X106200499Y-137362677D01*
X106200499Y-135291971D01*
X106200499Y-135291968D01*
X106200499Y-135291964D01*
X106189886Y-135172582D01*
X106133909Y-134976951D01*
X106039698Y-134796593D01*
X105987684Y-134732803D01*
X105911109Y-134638890D01*
X105911107Y-134638888D01*
X105911106Y-134638887D01*
X105817807Y-134562813D01*
X105805704Y-134545167D01*
X105753404Y-134510300D01*
X105586933Y-134423343D01*
X105586931Y-134423342D01*
X105573049Y-134416091D01*
X105573048Y-134416090D01*
X105573045Y-134416089D01*
X105455829Y-134382550D01*
X105454492Y-134382167D01*
X105454481Y-134382164D01*
X105379981Y-134360847D01*
X105377825Y-134360179D01*
X105375347Y-134359777D01*
X105371936Y-134359626D01*
X105362628Y-134358798D01*
X105311102Y-134354217D01*
X105311101Y-134354216D01*
X105258039Y-134349500D01*
X105258037Y-134349500D01*
X105258032Y-134349500D01*
X104241971Y-134349500D01*
X104241965Y-134349500D01*
X104229897Y-134349500D01*
X104223042Y-134351182D01*
X104122582Y-134360113D01*
X103926952Y-134416089D01*
X103836771Y-134463194D01*
X103836772Y-134463195D01*
X103754043Y-134506409D01*
X103754034Y-134506415D01*
X103746593Y-134510302D01*
X103746591Y-134510303D01*
X103746590Y-134510304D01*
X103737627Y-134517611D01*
X103737620Y-134517617D01*
X103588887Y-134638892D01*
X103465914Y-134789707D01*
X103465915Y-134789708D01*
X103460303Y-134796590D01*
X103455985Y-134804857D01*
X103428880Y-134856748D01*
X103366090Y-134976949D01*
X103366089Y-134976952D01*
X103310848Y-135170016D01*
X103310236Y-135171992D01*
X103310113Y-135172581D01*
X103299500Y-135291967D01*
X103299500Y-137358166D01*
X103297634Y-137379600D01*
X103295997Y-137388928D01*
X103294598Y-137391756D01*
X103294483Y-137393079D01*
X103293201Y-137397448D01*
X103292233Y-137397164D01*
X103288112Y-137413307D01*
X103288798Y-137413563D01*
X103287735Y-137416411D01*
X103287106Y-137417250D01*
X103286660Y-137419000D01*
X103285423Y-137421709D01*
X103284190Y-137421146D01*
X103275253Y-137433087D01*
X103272407Y-137442794D01*
X103267059Y-137447430D01*
X103265020Y-137451555D01*
X103258506Y-137455461D01*
X103249400Y-137467627D01*
X103250274Y-137468637D01*
X103249218Y-137469551D01*
X103247308Y-137470422D01*
X103245911Y-137472290D01*
X103243471Y-137474118D01*
X103242386Y-137472670D01*
X103233026Y-137476943D01*
X103219620Y-137488569D01*
X103185759Y-137498524D01*
X103184323Y-137498731D01*
X103166631Y-137500000D01*
X103142330Y-137500000D01*
X103107389Y-137494975D01*
X103092390Y-137490570D01*
X103033644Y-137452827D01*
X103032457Y-137451458D01*
X103004981Y-137396597D01*
X103004215Y-137393079D01*
X103003335Y-137389033D01*
X103000499Y-137362677D01*
X103000499Y-135291971D01*
X103000499Y-135291968D01*
X103000499Y-135291964D01*
X102989886Y-135172582D01*
X102933909Y-134976951D01*
X102839698Y-134796593D01*
X102787684Y-134732803D01*
X102711109Y-134638890D01*
X102711107Y-134638888D01*
X102711106Y-134638887D01*
X102617807Y-134562813D01*
X102605704Y-134545167D01*
X102553404Y-134510300D01*
X102386933Y-134423343D01*
X102386931Y-134423342D01*
X102373049Y-134416091D01*
X102373048Y-134416090D01*
X102373045Y-134416089D01*
X102255829Y-134382550D01*
X102254492Y-134382167D01*
X102254481Y-134382164D01*
X102179981Y-134360847D01*
X102177825Y-134360179D01*
X102175347Y-134359777D01*
X102171936Y-134359626D01*
X102162628Y-134358798D01*
X102111102Y-134354217D01*
X102111101Y-134354216D01*
X102058039Y-134349500D01*
X102058037Y-134349500D01*
X102058032Y-134349500D01*
X101041971Y-134349500D01*
X101041965Y-134349500D01*
X101029897Y-134349500D01*
X101023042Y-134351182D01*
X100922582Y-134360113D01*
X100726952Y-134416089D01*
X100636771Y-134463194D01*
X100636772Y-134463195D01*
X100554043Y-134506409D01*
X100554034Y-134506415D01*
X100546593Y-134510302D01*
X100546591Y-134510303D01*
X100546590Y-134510304D01*
X100537627Y-134517611D01*
X100537620Y-134517617D01*
X100388887Y-134638892D01*
X100265914Y-134789707D01*
X100265915Y-134789708D01*
X100260303Y-134796590D01*
X100255985Y-134804857D01*
X100228880Y-134856748D01*
X100166090Y-134976949D01*
X100166089Y-134976952D01*
X100110848Y-135170016D01*
X100110236Y-135171992D01*
X100110113Y-135172581D01*
X100099500Y-135291967D01*
X100099500Y-137358170D01*
X100096930Y-137376045D01*
X100094477Y-137393104D01*
X100090073Y-137408103D01*
X100052299Y-137466881D01*
X100052289Y-137466890D01*
X100050920Y-137468076D01*
X99996098Y-137495518D01*
X99988540Y-137497163D01*
X99962169Y-137500000D01*
X89642330Y-137500000D01*
X89642325Y-137499999D01*
X89642323Y-137500000D01*
X89607389Y-137494975D01*
X89592390Y-137490570D01*
X89533644Y-137452827D01*
X89533615Y-137452793D01*
X89533614Y-137452793D01*
X89533613Y-137452791D01*
X89532457Y-137451458D01*
X89504981Y-137396597D01*
X89504215Y-137393079D01*
X89503335Y-137389033D01*
X89500499Y-137362677D01*
X89500499Y-135291971D01*
X89500499Y-135291968D01*
X89500499Y-135291964D01*
X89489886Y-135172582D01*
X89433909Y-134976951D01*
X89339698Y-134796593D01*
X89287684Y-134732803D01*
X89211109Y-134638890D01*
X89211107Y-134638888D01*
X89211106Y-134638887D01*
X89117807Y-134562813D01*
X89105704Y-134545167D01*
X89053404Y-134510300D01*
X88886933Y-134423343D01*
X88886931Y-134423342D01*
X88873049Y-134416091D01*
X88873048Y-134416090D01*
X88873045Y-134416089D01*
X88755829Y-134382550D01*
X88754492Y-134382167D01*
X88754481Y-134382164D01*
X88679981Y-134360847D01*
X88677825Y-134360179D01*
X88675347Y-134359777D01*
X88671936Y-134359626D01*
X88662628Y-134358798D01*
X88611102Y-134354217D01*
X88611101Y-134354216D01*
X88558039Y-134349500D01*
X88558037Y-134349500D01*
X88558032Y-134349500D01*
X87541971Y-134349500D01*
X87541965Y-134349500D01*
X87529897Y-134349500D01*
X87523042Y-134351182D01*
X87422582Y-134360113D01*
X87226952Y-134416089D01*
X87136771Y-134463194D01*
X87136772Y-134463195D01*
X87054043Y-134506409D01*
X87054034Y-134506415D01*
X87046593Y-134510302D01*
X87046591Y-134510303D01*
X87046590Y-134510304D01*
X87037627Y-134517611D01*
X87037620Y-134517617D01*
X86888890Y-134638890D01*
X86770111Y-134784561D01*
X86770106Y-134784568D01*
X86760302Y-134796593D01*
X86760300Y-134796595D01*
X86740614Y-134834282D01*
X86738897Y-134837177D01*
X86735999Y-134839874D01*
X86721531Y-134859962D01*
X86713982Y-134867794D01*
X86693429Y-134879512D01*
X86687762Y-134884790D01*
X86682512Y-134885737D01*
X86653286Y-134902402D01*
X86583514Y-134898700D01*
X86526820Y-134857865D01*
X86502877Y-134804857D01*
X86502174Y-134801152D01*
X86500000Y-134778036D01*
X86500000Y-131000000D01*
X83541352Y-131000000D01*
X83511219Y-130996283D01*
X83482435Y-130989072D01*
X83454117Y-130978149D01*
X83434252Y-130967531D01*
X83130117Y-130841553D01*
X82916915Y-130776879D01*
X82815077Y-130745987D01*
X82815066Y-130745984D01*
X82815063Y-130745983D01*
X82497406Y-130682800D01*
X82493825Y-130681927D01*
X82492211Y-130681766D01*
X82492201Y-130681765D01*
X82492110Y-130681756D01*
X82492110Y-130681755D01*
X82251522Y-130658061D01*
X82244445Y-130657364D01*
X82164600Y-130649500D01*
X82164597Y-130649500D01*
X81835403Y-130649500D01*
X81835400Y-130649500D01*
X81818475Y-130651166D01*
X81755539Y-130657364D01*
X81755540Y-130657365D01*
X81507804Y-130681764D01*
X81507777Y-130681768D01*
X81184935Y-130745983D01*
X80869881Y-130841553D01*
X80565755Y-130967527D01*
X80565745Y-130967532D01*
X80549784Y-130976063D01*
X80547797Y-130977124D01*
X80545862Y-130978159D01*
X80520714Y-130987859D01*
X80517162Y-130989396D01*
X80485598Y-130998324D01*
X80483488Y-130998627D01*
X80482741Y-130998735D01*
X80465074Y-131000000D01*
X80441830Y-131000000D01*
X80441825Y-130999999D01*
X80441823Y-131000000D01*
X80406889Y-130994975D01*
X80391890Y-130990570D01*
X80333144Y-130952827D01*
X80333115Y-130952793D01*
X80333114Y-130952793D01*
X80333113Y-130952791D01*
X80331957Y-130951458D01*
X80304477Y-130896583D01*
X80302832Y-130889021D01*
X80300000Y-130862668D01*
X80300000Y-129986829D01*
X80305023Y-129951893D01*
X80309427Y-129936895D01*
X80347172Y-129878144D01*
X80347200Y-129878119D01*
X80347199Y-129878119D01*
X80348541Y-129876956D01*
X80403420Y-129849477D01*
X80410979Y-129847833D01*
X80437332Y-129845000D01*
X81950000Y-129845000D01*
X82450000Y-129845000D01*
X84157828Y-129845000D01*
X84157836Y-129845000D01*
X84157847Y-129844999D01*
X84193560Y-129841158D01*
X84217372Y-129838598D01*
X84217379Y-129838596D01*
X84352086Y-129788354D01*
X84352093Y-129788350D01*
X84467187Y-129702190D01*
X84467190Y-129702187D01*
X84553350Y-129587093D01*
X84553354Y-129587086D01*
X84603596Y-129452379D01*
X84603598Y-129452372D01*
X84605069Y-129438689D01*
X84609998Y-129392860D01*
X84610000Y-129392827D01*
X84610000Y-128080000D01*
X82450000Y-128080000D01*
X82450000Y-129845000D01*
X81950000Y-129845000D01*
X81950000Y-128057459D01*
X81950827Y-128054642D01*
X81950130Y-128051792D01*
X81960609Y-128021326D01*
X81969685Y-127990420D01*
X81972191Y-127987657D01*
X81972857Y-127985723D01*
X81997165Y-127960133D01*
X82033666Y-127931316D01*
X82033671Y-127931312D01*
X82128213Y-127856674D01*
X82193029Y-127830584D01*
X82199742Y-127830257D01*
X82199999Y-127830000D01*
X82200000Y-127830000D01*
X82200000Y-127829999D01*
X82212508Y-127817491D01*
X82219685Y-127793052D01*
X82247164Y-127762765D01*
X82444880Y-127606674D01*
X82509696Y-127580584D01*
X82521716Y-127580000D01*
X84610000Y-127580000D01*
X84610000Y-126860305D01*
X84615022Y-126825372D01*
X84618933Y-126812053D01*
X84656706Y-126753276D01*
X84720258Y-126724251D01*
X84720786Y-126724175D01*
X84720880Y-126724162D01*
X84780965Y-126730462D01*
G37*
%TD.AperFunction*%
%TD*%
%TA.AperFunction,Conductor*%
%TO.N,BRD_VIN*%
G36*
X79733039Y-119419685D02*
G01*
X79778794Y-119472489D01*
X79790000Y-119524000D01*
X79790000Y-120720000D01*
X82076000Y-120720000D01*
X82143039Y-120739685D01*
X82188794Y-120792489D01*
X82200000Y-120844000D01*
X82200000Y-120970000D01*
X82326000Y-120970000D01*
X82393039Y-120989685D01*
X82438794Y-121042489D01*
X82450000Y-121094000D01*
X82450000Y-122985000D01*
X83976000Y-122985000D01*
X84043039Y-123004685D01*
X84088794Y-123057489D01*
X84100000Y-123109000D01*
X84100000Y-125176000D01*
X84080315Y-125243039D01*
X84027511Y-125288794D01*
X83976000Y-125300000D01*
X78324500Y-125300000D01*
X78257461Y-125280315D01*
X78211706Y-125227511D01*
X78200500Y-125176000D01*
X78200500Y-122532844D01*
X79790000Y-122532844D01*
X79796401Y-122592372D01*
X79796403Y-122592379D01*
X79846645Y-122727086D01*
X79846649Y-122727093D01*
X79932809Y-122842187D01*
X79932812Y-122842190D01*
X80047906Y-122928350D01*
X80047913Y-122928354D01*
X80182620Y-122978596D01*
X80182627Y-122978598D01*
X80242155Y-122984999D01*
X80242172Y-122985000D01*
X81950000Y-122985000D01*
X81950000Y-121220000D01*
X79790000Y-121220000D01*
X79790000Y-122532844D01*
X78200500Y-122532844D01*
X78200500Y-119524000D01*
X78220185Y-119456961D01*
X78272989Y-119411206D01*
X78324500Y-119400000D01*
X79666000Y-119400000D01*
X79733039Y-119419685D01*
G37*
%TD.AperFunction*%
%TD*%
M02*
