%TF.GenerationSoftware,KiCad,Pcbnew,9.0.2*%
%TF.CreationDate,2026-04-11T22:27:14+02:00*%
%TF.ProjectId,MMS3_hat_stepper_controler,4d4d5333-5f68-4617-945f-737465707065,R0*%
%TF.SameCoordinates,Original*%
%TF.FileFunction,Legend,Top*%
%TF.FilePolarity,Positive*%
%FSLAX46Y46*%
G04 Gerber Fmt 4.6, Leading zero omitted, Abs format (unit mm)*
G04 Created by KiCad (PCBNEW 9.0.2) date 2026-04-11 22:27:14*
%MOMM*%
%LPD*%
G01*
G04 APERTURE LIST*
G04 Aperture macros list*
%AMRoundRect*
0 Rectangle with rounded corners*
0 $1 Rounding radius*
0 $2 $3 $4 $5 $6 $7 $8 $9 X,Y pos of 4 corners*
0 Add a 4 corners polygon primitive as box body*
4,1,4,$2,$3,$4,$5,$6,$7,$8,$9,$2,$3,0*
0 Add four circle primitives for the rounded corners*
1,1,$1+$1,$2,$3*
1,1,$1+$1,$4,$5*
1,1,$1+$1,$6,$7*
1,1,$1+$1,$8,$9*
0 Add four rect primitives between the rounded corners*
20,1,$1+$1,$2,$3,$4,$5,0*
20,1,$1+$1,$4,$5,$6,$7,0*
20,1,$1+$1,$6,$7,$8,$9,0*
20,1,$1+$1,$8,$9,$2,$3,0*%
%AMFreePoly0*
4,1,6,1.000000,0.000000,0.500000,-0.750000,-0.500000,-0.750000,-0.500000,0.750000,0.500000,0.750000,1.000000,0.000000,1.000000,0.000000,$1*%
%AMFreePoly1*
4,1,6,0.500000,-0.750000,-0.650000,-0.750000,-0.150000,0.000000,-0.650000,0.750000,0.500000,0.750000,0.500000,-0.750000,0.500000,-0.750000,$1*%
G04 Aperture macros list end*
%ADD10C,0.100000*%
%ADD11C,0.150000*%
%ADD12C,0.250000*%
%ADD13C,0.060000*%
%ADD14C,0.120000*%
%ADD15R,3.030000X3.820000*%
%ADD16RoundRect,0.159000X0.189000X-0.159000X0.189000X0.159000X-0.189000X0.159000X-0.189000X-0.159000X0*%
%ADD17RoundRect,0.100000X-0.100000X0.637500X-0.100000X-0.637500X0.100000X-0.637500X0.100000X0.637500X0*%
%ADD18RoundRect,0.159000X-0.189000X0.159000X-0.189000X-0.159000X0.189000X-0.159000X0.189000X0.159000X0*%
%ADD19RoundRect,0.159000X-0.159000X-0.189000X0.159000X-0.189000X0.159000X0.189000X-0.159000X0.189000X0*%
%ADD20RoundRect,0.244000X-0.244000X-0.269000X0.244000X-0.269000X0.244000X0.269000X-0.244000X0.269000X0*%
%ADD21RoundRect,0.250000X2.450000X-1.200000X2.450000X1.200000X-2.450000X1.200000X-2.450000X-1.200000X0*%
%ADD22RoundRect,0.250000X0.550000X-0.550000X0.550000X0.550000X-0.550000X0.550000X-0.550000X-0.550000X0*%
%ADD23C,1.600000*%
%ADD24C,3.100000*%
%ADD25C,4.700000*%
%ADD26C,1.000000*%
%ADD27RoundRect,0.265778X-0.332222X-0.647222X0.332222X-0.647222X0.332222X0.647222X-0.332222X0.647222X0*%
%ADD28RoundRect,0.250000X-0.550000X1.500000X-0.550000X-1.500000X0.550000X-1.500000X0.550000X1.500000X0*%
%ADD29RoundRect,0.250000X0.550000X-1.500000X0.550000X1.500000X-0.550000X1.500000X-0.550000X-1.500000X0*%
%ADD30RoundRect,0.265778X0.647222X-0.332222X0.647222X0.332222X-0.647222X0.332222X-0.647222X-0.332222X0*%
%ADD31RoundRect,0.159000X0.159000X0.189000X-0.159000X0.189000X-0.159000X-0.189000X0.159000X-0.189000X0*%
%ADD32R,1.000000X3.000000*%
%ADD33FreePoly0,0.000000*%
%ADD34FreePoly1,0.000000*%
%ADD35C,1.296000*%
%ADD36R,1.700000X1.700000*%
%ADD37C,1.700000*%
%ADD38O,1.950000X0.570000*%
%ADD39RoundRect,0.244000X0.269000X-0.244000X0.269000X0.244000X-0.269000X0.244000X-0.269000X-0.244000X0*%
%ADD40C,2.700000*%
%ADD41RoundRect,0.244000X-0.269000X0.244000X-0.269000X-0.244000X0.269000X-0.244000X0.269000X0.244000X0*%
%ADD42C,1.440000*%
%ADD43RoundRect,0.250000X0.300000X-2.050000X0.300000X2.050000X-0.300000X2.050000X-0.300000X-2.050000X0*%
%ADD44RoundRect,0.250002X5.149998X-4.449998X5.149998X4.449998X-5.149998X4.449998X-5.149998X-4.449998X0*%
%ADD45RoundRect,0.250000X-1.500000X-0.550000X1.500000X-0.550000X1.500000X0.550000X-1.500000X0.550000X0*%
%ADD46RoundRect,0.244000X0.244000X0.269000X-0.244000X0.269000X-0.244000X-0.269000X0.244000X-0.269000X0*%
%ADD47RoundRect,0.250000X-0.600000X-0.725000X0.600000X-0.725000X0.600000X0.725000X-0.600000X0.725000X0*%
%ADD48O,1.700000X1.950000*%
%ADD49R,2.000000X0.900000*%
%ADD50RoundRect,1.025000X1.025000X-1.025000X1.025000X1.025000X-1.025000X1.025000X-1.025000X-1.025000X0*%
%ADD51C,4.100000*%
%ADD52RoundRect,0.266521X-0.346479X-0.671479X0.346479X-0.671479X0.346479X0.671479X-0.346479X0.671479X0*%
%ADD53RoundRect,0.075000X-0.075000X0.662500X-0.075000X-0.662500X0.075000X-0.662500X0.075000X0.662500X0*%
%ADD54RoundRect,0.075000X-0.662500X0.075000X-0.662500X-0.075000X0.662500X-0.075000X0.662500X0.075000X0*%
%ADD55R,5.000000X5.000000*%
%ADD56RoundRect,0.266521X0.671479X-0.346479X0.671479X0.346479X-0.671479X0.346479X-0.671479X-0.346479X0*%
%ADD57RoundRect,0.239000X0.274000X-0.239000X0.274000X0.239000X-0.274000X0.239000X-0.274000X-0.239000X0*%
%ADD58RoundRect,0.250000X-1.000000X-0.300000X1.000000X-0.300000X1.000000X0.300000X-1.000000X0.300000X0*%
%ADD59C,0.500000*%
%ADD60RoundRect,0.250000X-0.920000X-1.550000X0.920000X-1.550000X0.920000X1.550000X-0.920000X1.550000X0*%
%ADD61RoundRect,0.258261X1.029739X0.929739X-1.029739X0.929739X-1.029739X-0.929739X1.029739X-0.929739X0*%
G04 APERTURE END LIST*
D10*
X156300000Y-102000000D02*
X156700000Y-102600000D01*
X156300000Y-102000000D02*
X156300000Y-103800000D01*
X156300000Y-102000000D02*
X155800000Y-102600000D01*
D11*
X140751064Y-128106200D02*
X140865350Y-128144295D01*
X140865350Y-128144295D02*
X141055826Y-128144295D01*
X141055826Y-128144295D02*
X141132017Y-128106200D01*
X141132017Y-128106200D02*
X141170112Y-128068104D01*
X141170112Y-128068104D02*
X141208207Y-127991914D01*
X141208207Y-127991914D02*
X141208207Y-127915723D01*
X141208207Y-127915723D02*
X141170112Y-127839533D01*
X141170112Y-127839533D02*
X141132017Y-127801438D01*
X141132017Y-127801438D02*
X141055826Y-127763342D01*
X141055826Y-127763342D02*
X140903445Y-127725247D01*
X140903445Y-127725247D02*
X140827255Y-127687152D01*
X140827255Y-127687152D02*
X140789160Y-127649057D01*
X140789160Y-127649057D02*
X140751064Y-127572866D01*
X140751064Y-127572866D02*
X140751064Y-127496676D01*
X140751064Y-127496676D02*
X140789160Y-127420485D01*
X140789160Y-127420485D02*
X140827255Y-127382390D01*
X140827255Y-127382390D02*
X140903445Y-127344295D01*
X140903445Y-127344295D02*
X141093922Y-127344295D01*
X141093922Y-127344295D02*
X141208207Y-127382390D01*
X141474874Y-127344295D02*
X141665350Y-128144295D01*
X141665350Y-128144295D02*
X141817731Y-127572866D01*
X141817731Y-127572866D02*
X141970112Y-128144295D01*
X141970112Y-128144295D02*
X142160589Y-127344295D01*
X142884398Y-128144295D02*
X142427255Y-128144295D01*
X142655827Y-128144295D02*
X142655827Y-127344295D01*
X142655827Y-127344295D02*
X142579636Y-127458580D01*
X142579636Y-127458580D02*
X142503446Y-127534771D01*
X142503446Y-127534771D02*
X142427255Y-127572866D01*
X160931009Y-130666666D02*
X160931009Y-130333333D01*
X161454819Y-130190476D02*
X161454819Y-130666666D01*
X161454819Y-130666666D02*
X160454819Y-130666666D01*
X160454819Y-130666666D02*
X160454819Y-130190476D01*
X161454819Y-129761904D02*
X160454819Y-129761904D01*
X160454819Y-129761904D02*
X161454819Y-129190476D01*
X161454819Y-129190476D02*
X160454819Y-129190476D01*
X161359580Y-128142857D02*
X161407200Y-128190476D01*
X161407200Y-128190476D02*
X161454819Y-128333333D01*
X161454819Y-128333333D02*
X161454819Y-128428571D01*
X161454819Y-128428571D02*
X161407200Y-128571428D01*
X161407200Y-128571428D02*
X161311961Y-128666666D01*
X161311961Y-128666666D02*
X161216723Y-128714285D01*
X161216723Y-128714285D02*
X161026247Y-128761904D01*
X161026247Y-128761904D02*
X160883390Y-128761904D01*
X160883390Y-128761904D02*
X160692914Y-128714285D01*
X160692914Y-128714285D02*
X160597676Y-128666666D01*
X160597676Y-128666666D02*
X160502438Y-128571428D01*
X160502438Y-128571428D02*
X160454819Y-128428571D01*
X160454819Y-128428571D02*
X160454819Y-128333333D01*
X160454819Y-128333333D02*
X160502438Y-128190476D01*
X160502438Y-128190476D02*
X160550057Y-128142857D01*
X161454819Y-127714285D02*
X160454819Y-127714285D01*
X160454819Y-127714285D02*
X161454819Y-127142857D01*
X161454819Y-127142857D02*
X160454819Y-127142857D01*
X161550057Y-126904762D02*
X161550057Y-126142857D01*
X161454819Y-125904761D02*
X160454819Y-125904761D01*
X160454819Y-125904761D02*
X160454819Y-125666666D01*
X160454819Y-125666666D02*
X160502438Y-125523809D01*
X160502438Y-125523809D02*
X160597676Y-125428571D01*
X160597676Y-125428571D02*
X160692914Y-125380952D01*
X160692914Y-125380952D02*
X160883390Y-125333333D01*
X160883390Y-125333333D02*
X161026247Y-125333333D01*
X161026247Y-125333333D02*
X161216723Y-125380952D01*
X161216723Y-125380952D02*
X161311961Y-125428571D01*
X161311961Y-125428571D02*
X161407200Y-125523809D01*
X161407200Y-125523809D02*
X161454819Y-125666666D01*
X161454819Y-125666666D02*
X161454819Y-125904761D01*
X161359580Y-124333333D02*
X161407200Y-124380952D01*
X161407200Y-124380952D02*
X161454819Y-124523809D01*
X161454819Y-124523809D02*
X161454819Y-124619047D01*
X161454819Y-124619047D02*
X161407200Y-124761904D01*
X161407200Y-124761904D02*
X161311961Y-124857142D01*
X161311961Y-124857142D02*
X161216723Y-124904761D01*
X161216723Y-124904761D02*
X161026247Y-124952380D01*
X161026247Y-124952380D02*
X160883390Y-124952380D01*
X160883390Y-124952380D02*
X160692914Y-124904761D01*
X160692914Y-124904761D02*
X160597676Y-124857142D01*
X160597676Y-124857142D02*
X160502438Y-124761904D01*
X160502438Y-124761904D02*
X160454819Y-124619047D01*
X160454819Y-124619047D02*
X160454819Y-124523809D01*
X160454819Y-124523809D02*
X160502438Y-124380952D01*
X160502438Y-124380952D02*
X160550057Y-124333333D01*
X160454819Y-123714285D02*
X160454819Y-123523809D01*
X160454819Y-123523809D02*
X160502438Y-123428571D01*
X160502438Y-123428571D02*
X160597676Y-123333333D01*
X160597676Y-123333333D02*
X160788152Y-123285714D01*
X160788152Y-123285714D02*
X161121485Y-123285714D01*
X161121485Y-123285714D02*
X161311961Y-123333333D01*
X161311961Y-123333333D02*
X161407200Y-123428571D01*
X161407200Y-123428571D02*
X161454819Y-123523809D01*
X161454819Y-123523809D02*
X161454819Y-123714285D01*
X161454819Y-123714285D02*
X161407200Y-123809523D01*
X161407200Y-123809523D02*
X161311961Y-123904761D01*
X161311961Y-123904761D02*
X161121485Y-123952380D01*
X161121485Y-123952380D02*
X160788152Y-123952380D01*
X160788152Y-123952380D02*
X160597676Y-123904761D01*
X160597676Y-123904761D02*
X160502438Y-123809523D01*
X160502438Y-123809523D02*
X160454819Y-123714285D01*
X146431009Y-129804761D02*
X146478628Y-129661904D01*
X146478628Y-129661904D02*
X146526247Y-129614285D01*
X146526247Y-129614285D02*
X146621485Y-129566666D01*
X146621485Y-129566666D02*
X146764342Y-129566666D01*
X146764342Y-129566666D02*
X146859580Y-129614285D01*
X146859580Y-129614285D02*
X146907200Y-129661904D01*
X146907200Y-129661904D02*
X146954819Y-129757142D01*
X146954819Y-129757142D02*
X146954819Y-130138094D01*
X146954819Y-130138094D02*
X145954819Y-130138094D01*
X145954819Y-130138094D02*
X145954819Y-129804761D01*
X145954819Y-129804761D02*
X146002438Y-129709523D01*
X146002438Y-129709523D02*
X146050057Y-129661904D01*
X146050057Y-129661904D02*
X146145295Y-129614285D01*
X146145295Y-129614285D02*
X146240533Y-129614285D01*
X146240533Y-129614285D02*
X146335771Y-129661904D01*
X146335771Y-129661904D02*
X146383390Y-129709523D01*
X146383390Y-129709523D02*
X146431009Y-129804761D01*
X146431009Y-129804761D02*
X146431009Y-130138094D01*
X146954819Y-128614285D02*
X146954819Y-129185713D01*
X146954819Y-128899999D02*
X145954819Y-128899999D01*
X145954819Y-128899999D02*
X146097676Y-128995237D01*
X146097676Y-128995237D02*
X146192914Y-129090475D01*
X146192914Y-129090475D02*
X146240533Y-129185713D01*
X165831009Y-130609523D02*
X165831009Y-130276190D01*
X166354819Y-130133333D02*
X166354819Y-130609523D01*
X166354819Y-130609523D02*
X165354819Y-130609523D01*
X165354819Y-130609523D02*
X165354819Y-130133333D01*
X166354819Y-129704761D02*
X165354819Y-129704761D01*
X165354819Y-129704761D02*
X166354819Y-129133333D01*
X166354819Y-129133333D02*
X165354819Y-129133333D01*
X166259580Y-128085714D02*
X166307200Y-128133333D01*
X166307200Y-128133333D02*
X166354819Y-128276190D01*
X166354819Y-128276190D02*
X166354819Y-128371428D01*
X166354819Y-128371428D02*
X166307200Y-128514285D01*
X166307200Y-128514285D02*
X166211961Y-128609523D01*
X166211961Y-128609523D02*
X166116723Y-128657142D01*
X166116723Y-128657142D02*
X165926247Y-128704761D01*
X165926247Y-128704761D02*
X165783390Y-128704761D01*
X165783390Y-128704761D02*
X165592914Y-128657142D01*
X165592914Y-128657142D02*
X165497676Y-128609523D01*
X165497676Y-128609523D02*
X165402438Y-128514285D01*
X165402438Y-128514285D02*
X165354819Y-128371428D01*
X165354819Y-128371428D02*
X165354819Y-128276190D01*
X165354819Y-128276190D02*
X165402438Y-128133333D01*
X165402438Y-128133333D02*
X165450057Y-128085714D01*
X166069104Y-127704761D02*
X166069104Y-127228571D01*
X166354819Y-127799999D02*
X165354819Y-127466666D01*
X165354819Y-127466666D02*
X166354819Y-127133333D01*
X166450057Y-127038095D02*
X166450057Y-126276190D01*
X166354819Y-126038094D02*
X165354819Y-126038094D01*
X165354819Y-126038094D02*
X165354819Y-125799999D01*
X165354819Y-125799999D02*
X165402438Y-125657142D01*
X165402438Y-125657142D02*
X165497676Y-125561904D01*
X165497676Y-125561904D02*
X165592914Y-125514285D01*
X165592914Y-125514285D02*
X165783390Y-125466666D01*
X165783390Y-125466666D02*
X165926247Y-125466666D01*
X165926247Y-125466666D02*
X166116723Y-125514285D01*
X166116723Y-125514285D02*
X166211961Y-125561904D01*
X166211961Y-125561904D02*
X166307200Y-125657142D01*
X166307200Y-125657142D02*
X166354819Y-125799999D01*
X166354819Y-125799999D02*
X166354819Y-126038094D01*
X166259580Y-124466666D02*
X166307200Y-124514285D01*
X166307200Y-124514285D02*
X166354819Y-124657142D01*
X166354819Y-124657142D02*
X166354819Y-124752380D01*
X166354819Y-124752380D02*
X166307200Y-124895237D01*
X166307200Y-124895237D02*
X166211961Y-124990475D01*
X166211961Y-124990475D02*
X166116723Y-125038094D01*
X166116723Y-125038094D02*
X165926247Y-125085713D01*
X165926247Y-125085713D02*
X165783390Y-125085713D01*
X165783390Y-125085713D02*
X165592914Y-125038094D01*
X165592914Y-125038094D02*
X165497676Y-124990475D01*
X165497676Y-124990475D02*
X165402438Y-124895237D01*
X165402438Y-124895237D02*
X165354819Y-124752380D01*
X165354819Y-124752380D02*
X165354819Y-124657142D01*
X165354819Y-124657142D02*
X165402438Y-124514285D01*
X165402438Y-124514285D02*
X165450057Y-124466666D01*
X166354819Y-124038094D02*
X165354819Y-124038094D01*
X166354819Y-123561904D02*
X165354819Y-123561904D01*
X165354819Y-123561904D02*
X166354819Y-122990476D01*
X166354819Y-122990476D02*
X165354819Y-122990476D01*
X129360588Y-132920485D02*
X129398684Y-132882390D01*
X129398684Y-132882390D02*
X129474874Y-132844295D01*
X129474874Y-132844295D02*
X129665350Y-132844295D01*
X129665350Y-132844295D02*
X129741541Y-132882390D01*
X129741541Y-132882390D02*
X129779636Y-132920485D01*
X129779636Y-132920485D02*
X129817731Y-132996676D01*
X129817731Y-132996676D02*
X129817731Y-133072866D01*
X129817731Y-133072866D02*
X129779636Y-133187152D01*
X129779636Y-133187152D02*
X129322493Y-133644295D01*
X129322493Y-133644295D02*
X129817731Y-133644295D01*
X130503446Y-133110961D02*
X130503446Y-133644295D01*
X130312970Y-132806200D02*
X130122493Y-133377628D01*
X130122493Y-133377628D02*
X130617732Y-133377628D01*
X132179637Y-133644295D02*
X132332018Y-133644295D01*
X132332018Y-133644295D02*
X132408208Y-133606200D01*
X132408208Y-133606200D02*
X132446304Y-133568104D01*
X132446304Y-133568104D02*
X132522494Y-133453819D01*
X132522494Y-133453819D02*
X132560589Y-133301438D01*
X132560589Y-133301438D02*
X132560589Y-132996676D01*
X132560589Y-132996676D02*
X132522494Y-132920485D01*
X132522494Y-132920485D02*
X132484399Y-132882390D01*
X132484399Y-132882390D02*
X132408208Y-132844295D01*
X132408208Y-132844295D02*
X132255827Y-132844295D01*
X132255827Y-132844295D02*
X132179637Y-132882390D01*
X132179637Y-132882390D02*
X132141542Y-132920485D01*
X132141542Y-132920485D02*
X132103446Y-132996676D01*
X132103446Y-132996676D02*
X132103446Y-133187152D01*
X132103446Y-133187152D02*
X132141542Y-133263342D01*
X132141542Y-133263342D02*
X132179637Y-133301438D01*
X132179637Y-133301438D02*
X132255827Y-133339533D01*
X132255827Y-133339533D02*
X132408208Y-133339533D01*
X132408208Y-133339533D02*
X132484399Y-133301438D01*
X132484399Y-133301438D02*
X132522494Y-133263342D01*
X132522494Y-133263342D02*
X132560589Y-133187152D01*
X134541542Y-133644295D02*
X134084399Y-133644295D01*
X134312971Y-133644295D02*
X134312971Y-132844295D01*
X134312971Y-132844295D02*
X134236780Y-132958580D01*
X134236780Y-132958580D02*
X134160590Y-133034771D01*
X134160590Y-133034771D02*
X134084399Y-133072866D01*
X134846304Y-132920485D02*
X134884400Y-132882390D01*
X134884400Y-132882390D02*
X134960590Y-132844295D01*
X134960590Y-132844295D02*
X135151066Y-132844295D01*
X135151066Y-132844295D02*
X135227257Y-132882390D01*
X135227257Y-132882390D02*
X135265352Y-132920485D01*
X135265352Y-132920485D02*
X135303447Y-132996676D01*
X135303447Y-132996676D02*
X135303447Y-133072866D01*
X135303447Y-133072866D02*
X135265352Y-133187152D01*
X135265352Y-133187152D02*
X134808209Y-133644295D01*
X134808209Y-133644295D02*
X135303447Y-133644295D01*
X137208210Y-132844295D02*
X137055829Y-132844295D01*
X137055829Y-132844295D02*
X136979638Y-132882390D01*
X136979638Y-132882390D02*
X136941543Y-132920485D01*
X136941543Y-132920485D02*
X136865353Y-133034771D01*
X136865353Y-133034771D02*
X136827257Y-133187152D01*
X136827257Y-133187152D02*
X136827257Y-133491914D01*
X136827257Y-133491914D02*
X136865353Y-133568104D01*
X136865353Y-133568104D02*
X136903448Y-133606200D01*
X136903448Y-133606200D02*
X136979638Y-133644295D01*
X136979638Y-133644295D02*
X137132019Y-133644295D01*
X137132019Y-133644295D02*
X137208210Y-133606200D01*
X137208210Y-133606200D02*
X137246305Y-133568104D01*
X137246305Y-133568104D02*
X137284400Y-133491914D01*
X137284400Y-133491914D02*
X137284400Y-133301438D01*
X137284400Y-133301438D02*
X137246305Y-133225247D01*
X137246305Y-133225247D02*
X137208210Y-133187152D01*
X137208210Y-133187152D02*
X137132019Y-133149057D01*
X137132019Y-133149057D02*
X136979638Y-133149057D01*
X136979638Y-133149057D02*
X136903448Y-133187152D01*
X136903448Y-133187152D02*
X136865353Y-133225247D01*
X136865353Y-133225247D02*
X136827257Y-133301438D01*
X137627258Y-133568104D02*
X137665353Y-133606200D01*
X137665353Y-133606200D02*
X137627258Y-133644295D01*
X137627258Y-133644295D02*
X137589162Y-133606200D01*
X137589162Y-133606200D02*
X137627258Y-133568104D01*
X137627258Y-133568104D02*
X137627258Y-133644295D01*
X137970114Y-132920485D02*
X138008210Y-132882390D01*
X138008210Y-132882390D02*
X138084400Y-132844295D01*
X138084400Y-132844295D02*
X138274876Y-132844295D01*
X138274876Y-132844295D02*
X138351067Y-132882390D01*
X138351067Y-132882390D02*
X138389162Y-132920485D01*
X138389162Y-132920485D02*
X138427257Y-132996676D01*
X138427257Y-132996676D02*
X138427257Y-133072866D01*
X138427257Y-133072866D02*
X138389162Y-133187152D01*
X138389162Y-133187152D02*
X137932019Y-133644295D01*
X137932019Y-133644295D02*
X138427257Y-133644295D01*
X151869104Y-130314285D02*
X151869104Y-129838095D01*
X152154819Y-130409523D02*
X151154819Y-130076190D01*
X151154819Y-130076190D02*
X152154819Y-129742857D01*
X151250057Y-129457142D02*
X151202438Y-129409523D01*
X151202438Y-129409523D02*
X151154819Y-129314285D01*
X151154819Y-129314285D02*
X151154819Y-129076190D01*
X151154819Y-129076190D02*
X151202438Y-128980952D01*
X151202438Y-128980952D02*
X151250057Y-128933333D01*
X151250057Y-128933333D02*
X151345295Y-128885714D01*
X151345295Y-128885714D02*
X151440533Y-128885714D01*
X151440533Y-128885714D02*
X151583390Y-128933333D01*
X151583390Y-128933333D02*
X152154819Y-129504761D01*
X152154819Y-129504761D02*
X152154819Y-128885714D01*
X148931009Y-129904761D02*
X148978628Y-129761904D01*
X148978628Y-129761904D02*
X149026247Y-129714285D01*
X149026247Y-129714285D02*
X149121485Y-129666666D01*
X149121485Y-129666666D02*
X149264342Y-129666666D01*
X149264342Y-129666666D02*
X149359580Y-129714285D01*
X149359580Y-129714285D02*
X149407200Y-129761904D01*
X149407200Y-129761904D02*
X149454819Y-129857142D01*
X149454819Y-129857142D02*
X149454819Y-130238094D01*
X149454819Y-130238094D02*
X148454819Y-130238094D01*
X148454819Y-130238094D02*
X148454819Y-129904761D01*
X148454819Y-129904761D02*
X148502438Y-129809523D01*
X148502438Y-129809523D02*
X148550057Y-129761904D01*
X148550057Y-129761904D02*
X148645295Y-129714285D01*
X148645295Y-129714285D02*
X148740533Y-129714285D01*
X148740533Y-129714285D02*
X148835771Y-129761904D01*
X148835771Y-129761904D02*
X148883390Y-129809523D01*
X148883390Y-129809523D02*
X148931009Y-129904761D01*
X148931009Y-129904761D02*
X148931009Y-130238094D01*
X148550057Y-129285713D02*
X148502438Y-129238094D01*
X148502438Y-129238094D02*
X148454819Y-129142856D01*
X148454819Y-129142856D02*
X148454819Y-128904761D01*
X148454819Y-128904761D02*
X148502438Y-128809523D01*
X148502438Y-128809523D02*
X148550057Y-128761904D01*
X148550057Y-128761904D02*
X148645295Y-128714285D01*
X148645295Y-128714285D02*
X148740533Y-128714285D01*
X148740533Y-128714285D02*
X148883390Y-128761904D01*
X148883390Y-128761904D02*
X149454819Y-129333332D01*
X149454819Y-129333332D02*
X149454819Y-128714285D01*
D10*
X103378637Y-111815163D02*
X102878637Y-111815163D01*
X102878637Y-111648496D02*
X103378637Y-111481830D01*
X103378637Y-111481830D02*
X102878637Y-111315163D01*
X103116732Y-111148497D02*
X103116732Y-110981830D01*
X103378637Y-110910402D02*
X103378637Y-111148497D01*
X103378637Y-111148497D02*
X102878637Y-111148497D01*
X102878637Y-111148497D02*
X102878637Y-110910402D01*
X103378637Y-110315164D02*
X102878637Y-110315164D01*
X102878637Y-110315164D02*
X103235780Y-110148497D01*
X103235780Y-110148497D02*
X102878637Y-109981831D01*
X102878637Y-109981831D02*
X103378637Y-109981831D01*
X102878637Y-109648497D02*
X102878637Y-109553259D01*
X102878637Y-109553259D02*
X102902447Y-109505640D01*
X102902447Y-109505640D02*
X102950066Y-109458021D01*
X102950066Y-109458021D02*
X103045304Y-109434211D01*
X103045304Y-109434211D02*
X103211970Y-109434211D01*
X103211970Y-109434211D02*
X103307208Y-109458021D01*
X103307208Y-109458021D02*
X103354828Y-109505640D01*
X103354828Y-109505640D02*
X103378637Y-109553259D01*
X103378637Y-109553259D02*
X103378637Y-109648497D01*
X103378637Y-109648497D02*
X103354828Y-109696116D01*
X103354828Y-109696116D02*
X103307208Y-109743735D01*
X103307208Y-109743735D02*
X103211970Y-109767544D01*
X103211970Y-109767544D02*
X103045304Y-109767544D01*
X103045304Y-109767544D02*
X102950066Y-109743735D01*
X102950066Y-109743735D02*
X102902447Y-109696116D01*
X102902447Y-109696116D02*
X102878637Y-109648497D01*
X102878637Y-109291353D02*
X103378637Y-109124687D01*
X103378637Y-109124687D02*
X102878637Y-108958020D01*
X103116732Y-108791354D02*
X103116732Y-108624687D01*
X103378637Y-108553259D02*
X103378637Y-108791354D01*
X103378637Y-108791354D02*
X102878637Y-108791354D01*
X102878637Y-108791354D02*
X102878637Y-108553259D01*
X103378637Y-108338973D02*
X102878637Y-108338973D01*
X102878637Y-108338973D02*
X102878637Y-108219925D01*
X102878637Y-108219925D02*
X102902447Y-108148497D01*
X102902447Y-108148497D02*
X102950066Y-108100878D01*
X102950066Y-108100878D02*
X102997685Y-108077068D01*
X102997685Y-108077068D02*
X103092923Y-108053259D01*
X103092923Y-108053259D02*
X103164351Y-108053259D01*
X103164351Y-108053259D02*
X103259589Y-108077068D01*
X103259589Y-108077068D02*
X103307208Y-108100878D01*
X103307208Y-108100878D02*
X103354828Y-108148497D01*
X103354828Y-108148497D02*
X103378637Y-108219925D01*
X103378637Y-108219925D02*
X103378637Y-108338973D01*
X102878637Y-107529449D02*
X102878637Y-107243735D01*
X103378637Y-107386592D02*
X102878637Y-107386592D01*
X103378637Y-107077069D02*
X102878637Y-107077069D01*
X103116732Y-107077069D02*
X103116732Y-106791355D01*
X103378637Y-106791355D02*
X102878637Y-106791355D01*
X103378637Y-106553259D02*
X102878637Y-106553259D01*
X103354828Y-106338973D02*
X103378637Y-106267545D01*
X103378637Y-106267545D02*
X103378637Y-106148497D01*
X103378637Y-106148497D02*
X103354828Y-106100878D01*
X103354828Y-106100878D02*
X103331018Y-106077069D01*
X103331018Y-106077069D02*
X103283399Y-106053259D01*
X103283399Y-106053259D02*
X103235780Y-106053259D01*
X103235780Y-106053259D02*
X103188161Y-106077069D01*
X103188161Y-106077069D02*
X103164351Y-106100878D01*
X103164351Y-106100878D02*
X103140542Y-106148497D01*
X103140542Y-106148497D02*
X103116732Y-106243735D01*
X103116732Y-106243735D02*
X103092923Y-106291354D01*
X103092923Y-106291354D02*
X103069113Y-106315164D01*
X103069113Y-106315164D02*
X103021494Y-106338973D01*
X103021494Y-106338973D02*
X102973875Y-106338973D01*
X102973875Y-106338973D02*
X102926256Y-106315164D01*
X102926256Y-106315164D02*
X102902447Y-106291354D01*
X102902447Y-106291354D02*
X102878637Y-106243735D01*
X102878637Y-106243735D02*
X102878637Y-106124688D01*
X102878637Y-106124688D02*
X102902447Y-106053259D01*
X103331018Y-105172308D02*
X103354828Y-105196117D01*
X103354828Y-105196117D02*
X103378637Y-105267546D01*
X103378637Y-105267546D02*
X103378637Y-105315165D01*
X103378637Y-105315165D02*
X103354828Y-105386593D01*
X103354828Y-105386593D02*
X103307208Y-105434212D01*
X103307208Y-105434212D02*
X103259589Y-105458022D01*
X103259589Y-105458022D02*
X103164351Y-105481831D01*
X103164351Y-105481831D02*
X103092923Y-105481831D01*
X103092923Y-105481831D02*
X102997685Y-105458022D01*
X102997685Y-105458022D02*
X102950066Y-105434212D01*
X102950066Y-105434212D02*
X102902447Y-105386593D01*
X102902447Y-105386593D02*
X102878637Y-105315165D01*
X102878637Y-105315165D02*
X102878637Y-105267546D01*
X102878637Y-105267546D02*
X102902447Y-105196117D01*
X102902447Y-105196117D02*
X102926256Y-105172308D01*
X102878637Y-104862784D02*
X102878637Y-104767546D01*
X102878637Y-104767546D02*
X102902447Y-104719927D01*
X102902447Y-104719927D02*
X102950066Y-104672308D01*
X102950066Y-104672308D02*
X103045304Y-104648498D01*
X103045304Y-104648498D02*
X103211970Y-104648498D01*
X103211970Y-104648498D02*
X103307208Y-104672308D01*
X103307208Y-104672308D02*
X103354828Y-104719927D01*
X103354828Y-104719927D02*
X103378637Y-104767546D01*
X103378637Y-104767546D02*
X103378637Y-104862784D01*
X103378637Y-104862784D02*
X103354828Y-104910403D01*
X103354828Y-104910403D02*
X103307208Y-104958022D01*
X103307208Y-104958022D02*
X103211970Y-104981831D01*
X103211970Y-104981831D02*
X103045304Y-104981831D01*
X103045304Y-104981831D02*
X102950066Y-104958022D01*
X102950066Y-104958022D02*
X102902447Y-104910403D01*
X102902447Y-104910403D02*
X102878637Y-104862784D01*
X103378637Y-104434212D02*
X102878637Y-104434212D01*
X102878637Y-104434212D02*
X103378637Y-104148498D01*
X103378637Y-104148498D02*
X102878637Y-104148498D01*
X102878637Y-103981830D02*
X103378637Y-103815164D01*
X103378637Y-103815164D02*
X102878637Y-103648497D01*
X103116732Y-103481831D02*
X103116732Y-103315164D01*
X103378637Y-103243736D02*
X103378637Y-103481831D01*
X103378637Y-103481831D02*
X102878637Y-103481831D01*
X102878637Y-103481831D02*
X102878637Y-103243736D01*
X103378637Y-102743736D02*
X103140542Y-102910402D01*
X103378637Y-103029450D02*
X102878637Y-103029450D01*
X102878637Y-103029450D02*
X102878637Y-102838974D01*
X102878637Y-102838974D02*
X102902447Y-102791355D01*
X102902447Y-102791355D02*
X102926256Y-102767545D01*
X102926256Y-102767545D02*
X102973875Y-102743736D01*
X102973875Y-102743736D02*
X103045304Y-102743736D01*
X103045304Y-102743736D02*
X103092923Y-102767545D01*
X103092923Y-102767545D02*
X103116732Y-102791355D01*
X103116732Y-102791355D02*
X103140542Y-102838974D01*
X103140542Y-102838974D02*
X103140542Y-103029450D01*
X102878637Y-102600878D02*
X102878637Y-102315164D01*
X103378637Y-102458021D02*
X102878637Y-102458021D01*
X103116732Y-102148498D02*
X103116732Y-101981831D01*
X103378637Y-101910403D02*
X103378637Y-102148498D01*
X103378637Y-102148498D02*
X102878637Y-102148498D01*
X102878637Y-102148498D02*
X102878637Y-101910403D01*
X103378637Y-101410403D02*
X103140542Y-101577069D01*
X103378637Y-101696117D02*
X102878637Y-101696117D01*
X102878637Y-101696117D02*
X102878637Y-101505641D01*
X102878637Y-101505641D02*
X102902447Y-101458022D01*
X102902447Y-101458022D02*
X102926256Y-101434212D01*
X102926256Y-101434212D02*
X102973875Y-101410403D01*
X102973875Y-101410403D02*
X103045304Y-101410403D01*
X103045304Y-101410403D02*
X103092923Y-101434212D01*
X103092923Y-101434212D02*
X103116732Y-101458022D01*
X103116732Y-101458022D02*
X103140542Y-101505641D01*
X103140542Y-101505641D02*
X103140542Y-101696117D01*
X103850276Y-111219925D02*
X104183609Y-111219925D01*
X103659800Y-111338973D02*
X104016942Y-111458020D01*
X104016942Y-111458020D02*
X104016942Y-111148497D01*
X103683609Y-110648497D02*
X103683609Y-110362783D01*
X104183609Y-110505640D02*
X103683609Y-110505640D01*
X104183609Y-110196117D02*
X103683609Y-110196117D01*
X104183609Y-109958022D02*
X103683609Y-109958022D01*
X103683609Y-109958022D02*
X104040752Y-109791355D01*
X104040752Y-109791355D02*
X103683609Y-109624689D01*
X103683609Y-109624689D02*
X104183609Y-109624689D01*
X103921704Y-109386593D02*
X103921704Y-109219926D01*
X104183609Y-109148498D02*
X104183609Y-109386593D01*
X104183609Y-109386593D02*
X103683609Y-109386593D01*
X103683609Y-109386593D02*
X103683609Y-109148498D01*
X104159800Y-108958021D02*
X104183609Y-108886593D01*
X104183609Y-108886593D02*
X104183609Y-108767545D01*
X104183609Y-108767545D02*
X104159800Y-108719926D01*
X104159800Y-108719926D02*
X104135990Y-108696117D01*
X104135990Y-108696117D02*
X104088371Y-108672307D01*
X104088371Y-108672307D02*
X104040752Y-108672307D01*
X104040752Y-108672307D02*
X103993133Y-108696117D01*
X103993133Y-108696117D02*
X103969323Y-108719926D01*
X103969323Y-108719926D02*
X103945514Y-108767545D01*
X103945514Y-108767545D02*
X103921704Y-108862783D01*
X103921704Y-108862783D02*
X103897895Y-108910402D01*
X103897895Y-108910402D02*
X103874085Y-108934212D01*
X103874085Y-108934212D02*
X103826466Y-108958021D01*
X103826466Y-108958021D02*
X103778847Y-108958021D01*
X103778847Y-108958021D02*
X103731228Y-108934212D01*
X103731228Y-108934212D02*
X103707419Y-108910402D01*
X103707419Y-108910402D02*
X103683609Y-108862783D01*
X103683609Y-108862783D02*
X103683609Y-108743736D01*
X103683609Y-108743736D02*
X103707419Y-108672307D01*
X104183609Y-108077070D02*
X103683609Y-108077070D01*
X103683609Y-108077070D02*
X103683609Y-107886594D01*
X103683609Y-107886594D02*
X103707419Y-107838975D01*
X103707419Y-107838975D02*
X103731228Y-107815165D01*
X103731228Y-107815165D02*
X103778847Y-107791356D01*
X103778847Y-107791356D02*
X103850276Y-107791356D01*
X103850276Y-107791356D02*
X103897895Y-107815165D01*
X103897895Y-107815165D02*
X103921704Y-107838975D01*
X103921704Y-107838975D02*
X103945514Y-107886594D01*
X103945514Y-107886594D02*
X103945514Y-108077070D01*
X104183609Y-107338975D02*
X104183609Y-107577070D01*
X104183609Y-107577070D02*
X103683609Y-107577070D01*
X103921704Y-107172308D02*
X103921704Y-107005641D01*
X104183609Y-106934213D02*
X104183609Y-107172308D01*
X104183609Y-107172308D02*
X103683609Y-107172308D01*
X103683609Y-107172308D02*
X103683609Y-106934213D01*
X104040752Y-106743736D02*
X104040752Y-106505641D01*
X104183609Y-106791355D02*
X103683609Y-106624689D01*
X103683609Y-106624689D02*
X104183609Y-106458022D01*
X104159800Y-106315165D02*
X104183609Y-106243737D01*
X104183609Y-106243737D02*
X104183609Y-106124689D01*
X104183609Y-106124689D02*
X104159800Y-106077070D01*
X104159800Y-106077070D02*
X104135990Y-106053261D01*
X104135990Y-106053261D02*
X104088371Y-106029451D01*
X104088371Y-106029451D02*
X104040752Y-106029451D01*
X104040752Y-106029451D02*
X103993133Y-106053261D01*
X103993133Y-106053261D02*
X103969323Y-106077070D01*
X103969323Y-106077070D02*
X103945514Y-106124689D01*
X103945514Y-106124689D02*
X103921704Y-106219927D01*
X103921704Y-106219927D02*
X103897895Y-106267546D01*
X103897895Y-106267546D02*
X103874085Y-106291356D01*
X103874085Y-106291356D02*
X103826466Y-106315165D01*
X103826466Y-106315165D02*
X103778847Y-106315165D01*
X103778847Y-106315165D02*
X103731228Y-106291356D01*
X103731228Y-106291356D02*
X103707419Y-106267546D01*
X103707419Y-106267546D02*
X103683609Y-106219927D01*
X103683609Y-106219927D02*
X103683609Y-106100880D01*
X103683609Y-106100880D02*
X103707419Y-106029451D01*
X103921704Y-105815166D02*
X103921704Y-105648499D01*
X104183609Y-105577071D02*
X104183609Y-105815166D01*
X104183609Y-105815166D02*
X103683609Y-105815166D01*
X103683609Y-105815166D02*
X103683609Y-105577071D01*
X104183609Y-104981833D02*
X103683609Y-104981833D01*
X103921704Y-104981833D02*
X103921704Y-104696119D01*
X104183609Y-104696119D02*
X103683609Y-104696119D01*
X103921704Y-104458023D02*
X103921704Y-104291356D01*
X104183609Y-104219928D02*
X104183609Y-104458023D01*
X104183609Y-104458023D02*
X103683609Y-104458023D01*
X103683609Y-104458023D02*
X103683609Y-104219928D01*
X104183609Y-103767547D02*
X104183609Y-104005642D01*
X104183609Y-104005642D02*
X103683609Y-104005642D01*
X104183609Y-103600880D02*
X103683609Y-103600880D01*
X103683609Y-103600880D02*
X103683609Y-103410404D01*
X103683609Y-103410404D02*
X103707419Y-103362785D01*
X103707419Y-103362785D02*
X103731228Y-103338975D01*
X103731228Y-103338975D02*
X103778847Y-103315166D01*
X103778847Y-103315166D02*
X103850276Y-103315166D01*
X103850276Y-103315166D02*
X103897895Y-103338975D01*
X103897895Y-103338975D02*
X103921704Y-103362785D01*
X103921704Y-103362785D02*
X103945514Y-103410404D01*
X103945514Y-103410404D02*
X103945514Y-103600880D01*
D11*
X155738095Y-104202438D02*
X155642857Y-104154819D01*
X155642857Y-104154819D02*
X155500000Y-104154819D01*
X155500000Y-104154819D02*
X155357143Y-104202438D01*
X155357143Y-104202438D02*
X155261905Y-104297676D01*
X155261905Y-104297676D02*
X155214286Y-104392914D01*
X155214286Y-104392914D02*
X155166667Y-104583390D01*
X155166667Y-104583390D02*
X155166667Y-104726247D01*
X155166667Y-104726247D02*
X155214286Y-104916723D01*
X155214286Y-104916723D02*
X155261905Y-105011961D01*
X155261905Y-105011961D02*
X155357143Y-105107200D01*
X155357143Y-105107200D02*
X155500000Y-105154819D01*
X155500000Y-105154819D02*
X155595238Y-105154819D01*
X155595238Y-105154819D02*
X155738095Y-105107200D01*
X155738095Y-105107200D02*
X155785714Y-105059580D01*
X155785714Y-105059580D02*
X155785714Y-104726247D01*
X155785714Y-104726247D02*
X155595238Y-104726247D01*
X156214286Y-105154819D02*
X156214286Y-104154819D01*
X156214286Y-104154819D02*
X156785714Y-105154819D01*
X156785714Y-105154819D02*
X156785714Y-104154819D01*
X157261905Y-105154819D02*
X157261905Y-104154819D01*
X157261905Y-104154819D02*
X157500000Y-104154819D01*
X157500000Y-104154819D02*
X157642857Y-104202438D01*
X157642857Y-104202438D02*
X157738095Y-104297676D01*
X157738095Y-104297676D02*
X157785714Y-104392914D01*
X157785714Y-104392914D02*
X157833333Y-104583390D01*
X157833333Y-104583390D02*
X157833333Y-104726247D01*
X157833333Y-104726247D02*
X157785714Y-104916723D01*
X157785714Y-104916723D02*
X157738095Y-105011961D01*
X157738095Y-105011961D02*
X157642857Y-105107200D01*
X157642857Y-105107200D02*
X157500000Y-105154819D01*
X157500000Y-105154819D02*
X157261905Y-105154819D01*
X154169104Y-130314285D02*
X154169104Y-129838095D01*
X154454819Y-130409523D02*
X153454819Y-130076190D01*
X153454819Y-130076190D02*
X154454819Y-129742857D01*
X154454819Y-128885714D02*
X154454819Y-129457142D01*
X154454819Y-129171428D02*
X153454819Y-129171428D01*
X153454819Y-129171428D02*
X153597676Y-129266666D01*
X153597676Y-129266666D02*
X153692914Y-129361904D01*
X153692914Y-129361904D02*
X153740533Y-129457142D01*
X177407200Y-104000000D02*
X177454819Y-103857143D01*
X177454819Y-103857143D02*
X177454819Y-103619048D01*
X177454819Y-103619048D02*
X177407200Y-103523810D01*
X177407200Y-103523810D02*
X177359580Y-103476191D01*
X177359580Y-103476191D02*
X177264342Y-103428572D01*
X177264342Y-103428572D02*
X177169104Y-103428572D01*
X177169104Y-103428572D02*
X177073866Y-103476191D01*
X177073866Y-103476191D02*
X177026247Y-103523810D01*
X177026247Y-103523810D02*
X176978628Y-103619048D01*
X176978628Y-103619048D02*
X176931009Y-103809524D01*
X176931009Y-103809524D02*
X176883390Y-103904762D01*
X176883390Y-103904762D02*
X176835771Y-103952381D01*
X176835771Y-103952381D02*
X176740533Y-104000000D01*
X176740533Y-104000000D02*
X176645295Y-104000000D01*
X176645295Y-104000000D02*
X176550057Y-103952381D01*
X176550057Y-103952381D02*
X176502438Y-103904762D01*
X176502438Y-103904762D02*
X176454819Y-103809524D01*
X176454819Y-103809524D02*
X176454819Y-103571429D01*
X176454819Y-103571429D02*
X176502438Y-103428572D01*
X177407200Y-102619048D02*
X177454819Y-102714286D01*
X177454819Y-102714286D02*
X177454819Y-102904762D01*
X177454819Y-102904762D02*
X177407200Y-103000000D01*
X177407200Y-103000000D02*
X177311961Y-103047619D01*
X177311961Y-103047619D02*
X176931009Y-103047619D01*
X176931009Y-103047619D02*
X176835771Y-103000000D01*
X176835771Y-103000000D02*
X176788152Y-102904762D01*
X176788152Y-102904762D02*
X176788152Y-102714286D01*
X176788152Y-102714286D02*
X176835771Y-102619048D01*
X176835771Y-102619048D02*
X176931009Y-102571429D01*
X176931009Y-102571429D02*
X177026247Y-102571429D01*
X177026247Y-102571429D02*
X177121485Y-103047619D01*
X177454819Y-102000000D02*
X177407200Y-102095238D01*
X177407200Y-102095238D02*
X177311961Y-102142857D01*
X177311961Y-102142857D02*
X176454819Y-102142857D01*
X177407200Y-101238095D02*
X177454819Y-101333333D01*
X177454819Y-101333333D02*
X177454819Y-101523809D01*
X177454819Y-101523809D02*
X177407200Y-101619047D01*
X177407200Y-101619047D02*
X177311961Y-101666666D01*
X177311961Y-101666666D02*
X176931009Y-101666666D01*
X176931009Y-101666666D02*
X176835771Y-101619047D01*
X176835771Y-101619047D02*
X176788152Y-101523809D01*
X176788152Y-101523809D02*
X176788152Y-101333333D01*
X176788152Y-101333333D02*
X176835771Y-101238095D01*
X176835771Y-101238095D02*
X176931009Y-101190476D01*
X176931009Y-101190476D02*
X177026247Y-101190476D01*
X177026247Y-101190476D02*
X177121485Y-101666666D01*
X177407200Y-100333333D02*
X177454819Y-100428571D01*
X177454819Y-100428571D02*
X177454819Y-100619047D01*
X177454819Y-100619047D02*
X177407200Y-100714285D01*
X177407200Y-100714285D02*
X177359580Y-100761904D01*
X177359580Y-100761904D02*
X177264342Y-100809523D01*
X177264342Y-100809523D02*
X176978628Y-100809523D01*
X176978628Y-100809523D02*
X176883390Y-100761904D01*
X176883390Y-100761904D02*
X176835771Y-100714285D01*
X176835771Y-100714285D02*
X176788152Y-100619047D01*
X176788152Y-100619047D02*
X176788152Y-100428571D01*
X176788152Y-100428571D02*
X176835771Y-100333333D01*
X176788152Y-100047618D02*
X176788152Y-99666666D01*
X176454819Y-99904761D02*
X177311961Y-99904761D01*
X177311961Y-99904761D02*
X177407200Y-99857142D01*
X177407200Y-99857142D02*
X177454819Y-99761904D01*
X177454819Y-99761904D02*
X177454819Y-99666666D01*
X177407200Y-98952380D02*
X177454819Y-99047618D01*
X177454819Y-99047618D02*
X177454819Y-99238094D01*
X177454819Y-99238094D02*
X177407200Y-99333332D01*
X177407200Y-99333332D02*
X177311961Y-99380951D01*
X177311961Y-99380951D02*
X176931009Y-99380951D01*
X176931009Y-99380951D02*
X176835771Y-99333332D01*
X176835771Y-99333332D02*
X176788152Y-99238094D01*
X176788152Y-99238094D02*
X176788152Y-99047618D01*
X176788152Y-99047618D02*
X176835771Y-98952380D01*
X176835771Y-98952380D02*
X176931009Y-98904761D01*
X176931009Y-98904761D02*
X177026247Y-98904761D01*
X177026247Y-98904761D02*
X177121485Y-99380951D01*
X177454819Y-98047618D02*
X176454819Y-98047618D01*
X177407200Y-98047618D02*
X177454819Y-98142856D01*
X177454819Y-98142856D02*
X177454819Y-98333332D01*
X177454819Y-98333332D02*
X177407200Y-98428570D01*
X177407200Y-98428570D02*
X177359580Y-98476189D01*
X177359580Y-98476189D02*
X177264342Y-98523808D01*
X177264342Y-98523808D02*
X176978628Y-98523808D01*
X176978628Y-98523808D02*
X176883390Y-98476189D01*
X176883390Y-98476189D02*
X176835771Y-98428570D01*
X176835771Y-98428570D02*
X176788152Y-98333332D01*
X176788152Y-98333332D02*
X176788152Y-98142856D01*
X176788152Y-98142856D02*
X176835771Y-98047618D01*
X163231009Y-130595237D02*
X163231009Y-130261904D01*
X163754819Y-130119047D02*
X163754819Y-130595237D01*
X163754819Y-130595237D02*
X162754819Y-130595237D01*
X162754819Y-130595237D02*
X162754819Y-130119047D01*
X163754819Y-129690475D02*
X162754819Y-129690475D01*
X162754819Y-129690475D02*
X163754819Y-129119047D01*
X163754819Y-129119047D02*
X162754819Y-129119047D01*
X163659580Y-128071428D02*
X163707200Y-128119047D01*
X163707200Y-128119047D02*
X163754819Y-128261904D01*
X163754819Y-128261904D02*
X163754819Y-128357142D01*
X163754819Y-128357142D02*
X163707200Y-128499999D01*
X163707200Y-128499999D02*
X163611961Y-128595237D01*
X163611961Y-128595237D02*
X163516723Y-128642856D01*
X163516723Y-128642856D02*
X163326247Y-128690475D01*
X163326247Y-128690475D02*
X163183390Y-128690475D01*
X163183390Y-128690475D02*
X162992914Y-128642856D01*
X162992914Y-128642856D02*
X162897676Y-128595237D01*
X162897676Y-128595237D02*
X162802438Y-128499999D01*
X162802438Y-128499999D02*
X162754819Y-128357142D01*
X162754819Y-128357142D02*
X162754819Y-128261904D01*
X162754819Y-128261904D02*
X162802438Y-128119047D01*
X162802438Y-128119047D02*
X162850057Y-128071428D01*
X163231009Y-127309523D02*
X163278628Y-127166666D01*
X163278628Y-127166666D02*
X163326247Y-127119047D01*
X163326247Y-127119047D02*
X163421485Y-127071428D01*
X163421485Y-127071428D02*
X163564342Y-127071428D01*
X163564342Y-127071428D02*
X163659580Y-127119047D01*
X163659580Y-127119047D02*
X163707200Y-127166666D01*
X163707200Y-127166666D02*
X163754819Y-127261904D01*
X163754819Y-127261904D02*
X163754819Y-127642856D01*
X163754819Y-127642856D02*
X162754819Y-127642856D01*
X162754819Y-127642856D02*
X162754819Y-127309523D01*
X162754819Y-127309523D02*
X162802438Y-127214285D01*
X162802438Y-127214285D02*
X162850057Y-127166666D01*
X162850057Y-127166666D02*
X162945295Y-127119047D01*
X162945295Y-127119047D02*
X163040533Y-127119047D01*
X163040533Y-127119047D02*
X163135771Y-127166666D01*
X163135771Y-127166666D02*
X163183390Y-127214285D01*
X163183390Y-127214285D02*
X163231009Y-127309523D01*
X163231009Y-127309523D02*
X163231009Y-127642856D01*
X163850057Y-126880952D02*
X163850057Y-126119047D01*
X163754819Y-125880951D02*
X162754819Y-125880951D01*
X162754819Y-125880951D02*
X162754819Y-125642856D01*
X162754819Y-125642856D02*
X162802438Y-125499999D01*
X162802438Y-125499999D02*
X162897676Y-125404761D01*
X162897676Y-125404761D02*
X162992914Y-125357142D01*
X162992914Y-125357142D02*
X163183390Y-125309523D01*
X163183390Y-125309523D02*
X163326247Y-125309523D01*
X163326247Y-125309523D02*
X163516723Y-125357142D01*
X163516723Y-125357142D02*
X163611961Y-125404761D01*
X163611961Y-125404761D02*
X163707200Y-125499999D01*
X163707200Y-125499999D02*
X163754819Y-125642856D01*
X163754819Y-125642856D02*
X163754819Y-125880951D01*
X163659580Y-124309523D02*
X163707200Y-124357142D01*
X163707200Y-124357142D02*
X163754819Y-124499999D01*
X163754819Y-124499999D02*
X163754819Y-124595237D01*
X163754819Y-124595237D02*
X163707200Y-124738094D01*
X163707200Y-124738094D02*
X163611961Y-124833332D01*
X163611961Y-124833332D02*
X163516723Y-124880951D01*
X163516723Y-124880951D02*
X163326247Y-124928570D01*
X163326247Y-124928570D02*
X163183390Y-124928570D01*
X163183390Y-124928570D02*
X162992914Y-124880951D01*
X162992914Y-124880951D02*
X162897676Y-124833332D01*
X162897676Y-124833332D02*
X162802438Y-124738094D01*
X162802438Y-124738094D02*
X162754819Y-124595237D01*
X162754819Y-124595237D02*
X162754819Y-124499999D01*
X162754819Y-124499999D02*
X162802438Y-124357142D01*
X162802438Y-124357142D02*
X162850057Y-124309523D01*
X163231009Y-123880951D02*
X163231009Y-123547618D01*
X163754819Y-123404761D02*
X163754819Y-123880951D01*
X163754819Y-123880951D02*
X162754819Y-123880951D01*
X162754819Y-123880951D02*
X162754819Y-123404761D01*
X163754819Y-122976189D02*
X162754819Y-122976189D01*
X162754819Y-122976189D02*
X163754819Y-122404761D01*
X163754819Y-122404761D02*
X162754819Y-122404761D01*
X93011905Y-137654819D02*
X93011905Y-136654819D01*
X93011905Y-136654819D02*
X93250000Y-136654819D01*
X93250000Y-136654819D02*
X93392857Y-136702438D01*
X93392857Y-136702438D02*
X93488095Y-136797676D01*
X93488095Y-136797676D02*
X93535714Y-136892914D01*
X93535714Y-136892914D02*
X93583333Y-137083390D01*
X93583333Y-137083390D02*
X93583333Y-137226247D01*
X93583333Y-137226247D02*
X93535714Y-137416723D01*
X93535714Y-137416723D02*
X93488095Y-137511961D01*
X93488095Y-137511961D02*
X93392857Y-137607200D01*
X93392857Y-137607200D02*
X93250000Y-137654819D01*
X93250000Y-137654819D02*
X93011905Y-137654819D01*
X94440476Y-136654819D02*
X94250000Y-136654819D01*
X94250000Y-136654819D02*
X94154762Y-136702438D01*
X94154762Y-136702438D02*
X94107143Y-136750057D01*
X94107143Y-136750057D02*
X94011905Y-136892914D01*
X94011905Y-136892914D02*
X93964286Y-137083390D01*
X93964286Y-137083390D02*
X93964286Y-137464342D01*
X93964286Y-137464342D02*
X94011905Y-137559580D01*
X94011905Y-137559580D02*
X94059524Y-137607200D01*
X94059524Y-137607200D02*
X94154762Y-137654819D01*
X94154762Y-137654819D02*
X94345238Y-137654819D01*
X94345238Y-137654819D02*
X94440476Y-137607200D01*
X94440476Y-137607200D02*
X94488095Y-137559580D01*
X94488095Y-137559580D02*
X94535714Y-137464342D01*
X94535714Y-137464342D02*
X94535714Y-137226247D01*
X94535714Y-137226247D02*
X94488095Y-137131009D01*
X94488095Y-137131009D02*
X94440476Y-137083390D01*
X94440476Y-137083390D02*
X94345238Y-137035771D01*
X94345238Y-137035771D02*
X94154762Y-137035771D01*
X94154762Y-137035771D02*
X94059524Y-137083390D01*
X94059524Y-137083390D02*
X94011905Y-137131009D01*
X94011905Y-137131009D02*
X93964286Y-137226247D01*
X149238095Y-102554819D02*
X149238095Y-103364342D01*
X149238095Y-103364342D02*
X149285714Y-103459580D01*
X149285714Y-103459580D02*
X149333333Y-103507200D01*
X149333333Y-103507200D02*
X149428571Y-103554819D01*
X149428571Y-103554819D02*
X149619047Y-103554819D01*
X149619047Y-103554819D02*
X149714285Y-103507200D01*
X149714285Y-103507200D02*
X149761904Y-103459580D01*
X149761904Y-103459580D02*
X149809523Y-103364342D01*
X149809523Y-103364342D02*
X149809523Y-102554819D01*
X150809523Y-103554819D02*
X150238095Y-103554819D01*
X150523809Y-103554819D02*
X150523809Y-102554819D01*
X150523809Y-102554819D02*
X150428571Y-102697676D01*
X150428571Y-102697676D02*
X150333333Y-102792914D01*
X150333333Y-102792914D02*
X150238095Y-102840533D01*
X103761905Y-137704819D02*
X103761905Y-136704819D01*
X103761905Y-136704819D02*
X104000000Y-136704819D01*
X104000000Y-136704819D02*
X104142857Y-136752438D01*
X104142857Y-136752438D02*
X104238095Y-136847676D01*
X104238095Y-136847676D02*
X104285714Y-136942914D01*
X104285714Y-136942914D02*
X104333333Y-137133390D01*
X104333333Y-137133390D02*
X104333333Y-137276247D01*
X104333333Y-137276247D02*
X104285714Y-137466723D01*
X104285714Y-137466723D02*
X104238095Y-137561961D01*
X104238095Y-137561961D02*
X104142857Y-137657200D01*
X104142857Y-137657200D02*
X104000000Y-137704819D01*
X104000000Y-137704819D02*
X103761905Y-137704819D01*
X105238095Y-136704819D02*
X104761905Y-136704819D01*
X104761905Y-136704819D02*
X104714286Y-137181009D01*
X104714286Y-137181009D02*
X104761905Y-137133390D01*
X104761905Y-137133390D02*
X104857143Y-137085771D01*
X104857143Y-137085771D02*
X105095238Y-137085771D01*
X105095238Y-137085771D02*
X105190476Y-137133390D01*
X105190476Y-137133390D02*
X105238095Y-137181009D01*
X105238095Y-137181009D02*
X105285714Y-137276247D01*
X105285714Y-137276247D02*
X105285714Y-137514342D01*
X105285714Y-137514342D02*
X105238095Y-137609580D01*
X105238095Y-137609580D02*
X105190476Y-137657200D01*
X105190476Y-137657200D02*
X105095238Y-137704819D01*
X105095238Y-137704819D02*
X104857143Y-137704819D01*
X104857143Y-137704819D02*
X104761905Y-137657200D01*
X104761905Y-137657200D02*
X104714286Y-137609580D01*
X162288095Y-109354819D02*
X162859523Y-109354819D01*
X162573809Y-110354819D02*
X162573809Y-109354819D01*
X163192857Y-110354819D02*
X163192857Y-109354819D01*
X163192857Y-109354819D02*
X163573809Y-109354819D01*
X163573809Y-109354819D02*
X163669047Y-109402438D01*
X163669047Y-109402438D02*
X163716666Y-109450057D01*
X163716666Y-109450057D02*
X163764285Y-109545295D01*
X163764285Y-109545295D02*
X163764285Y-109688152D01*
X163764285Y-109688152D02*
X163716666Y-109783390D01*
X163716666Y-109783390D02*
X163669047Y-109831009D01*
X163669047Y-109831009D02*
X163573809Y-109878628D01*
X163573809Y-109878628D02*
X163192857Y-109878628D01*
X164621428Y-109688152D02*
X164621428Y-110354819D01*
X164383333Y-109307200D02*
X164145238Y-110021485D01*
X164145238Y-110021485D02*
X164764285Y-110021485D01*
X94559580Y-128339760D02*
X94607200Y-128387379D01*
X94607200Y-128387379D02*
X94654819Y-128530236D01*
X94654819Y-128530236D02*
X94654819Y-128625474D01*
X94654819Y-128625474D02*
X94607200Y-128768331D01*
X94607200Y-128768331D02*
X94511961Y-128863569D01*
X94511961Y-128863569D02*
X94416723Y-128911188D01*
X94416723Y-128911188D02*
X94226247Y-128958807D01*
X94226247Y-128958807D02*
X94083390Y-128958807D01*
X94083390Y-128958807D02*
X93892914Y-128911188D01*
X93892914Y-128911188D02*
X93797676Y-128863569D01*
X93797676Y-128863569D02*
X93702438Y-128768331D01*
X93702438Y-128768331D02*
X93654819Y-128625474D01*
X93654819Y-128625474D02*
X93654819Y-128530236D01*
X93654819Y-128530236D02*
X93702438Y-128387379D01*
X93702438Y-128387379D02*
X93750057Y-128339760D01*
X94654819Y-127387379D02*
X94654819Y-127958807D01*
X94654819Y-127673093D02*
X93654819Y-127673093D01*
X93654819Y-127673093D02*
X93797676Y-127768331D01*
X93797676Y-127768331D02*
X93892914Y-127863569D01*
X93892914Y-127863569D02*
X93940533Y-127958807D01*
X94654819Y-126911188D02*
X94654819Y-126720712D01*
X94654819Y-126720712D02*
X94607200Y-126625474D01*
X94607200Y-126625474D02*
X94559580Y-126577855D01*
X94559580Y-126577855D02*
X94416723Y-126482617D01*
X94416723Y-126482617D02*
X94226247Y-126434998D01*
X94226247Y-126434998D02*
X93845295Y-126434998D01*
X93845295Y-126434998D02*
X93750057Y-126482617D01*
X93750057Y-126482617D02*
X93702438Y-126530236D01*
X93702438Y-126530236D02*
X93654819Y-126625474D01*
X93654819Y-126625474D02*
X93654819Y-126815950D01*
X93654819Y-126815950D02*
X93702438Y-126911188D01*
X93702438Y-126911188D02*
X93750057Y-126958807D01*
X93750057Y-126958807D02*
X93845295Y-127006426D01*
X93845295Y-127006426D02*
X94083390Y-127006426D01*
X94083390Y-127006426D02*
X94178628Y-126958807D01*
X94178628Y-126958807D02*
X94226247Y-126911188D01*
X94226247Y-126911188D02*
X94273866Y-126815950D01*
X94273866Y-126815950D02*
X94273866Y-126625474D01*
X94273866Y-126625474D02*
X94226247Y-126530236D01*
X94226247Y-126530236D02*
X94178628Y-126482617D01*
X94178628Y-126482617D02*
X94083390Y-126434998D01*
X119057142Y-103359580D02*
X119009523Y-103407200D01*
X119009523Y-103407200D02*
X118866666Y-103454819D01*
X118866666Y-103454819D02*
X118771428Y-103454819D01*
X118771428Y-103454819D02*
X118628571Y-103407200D01*
X118628571Y-103407200D02*
X118533333Y-103311961D01*
X118533333Y-103311961D02*
X118485714Y-103216723D01*
X118485714Y-103216723D02*
X118438095Y-103026247D01*
X118438095Y-103026247D02*
X118438095Y-102883390D01*
X118438095Y-102883390D02*
X118485714Y-102692914D01*
X118485714Y-102692914D02*
X118533333Y-102597676D01*
X118533333Y-102597676D02*
X118628571Y-102502438D01*
X118628571Y-102502438D02*
X118771428Y-102454819D01*
X118771428Y-102454819D02*
X118866666Y-102454819D01*
X118866666Y-102454819D02*
X119009523Y-102502438D01*
X119009523Y-102502438D02*
X119057142Y-102550057D01*
X119438095Y-102550057D02*
X119485714Y-102502438D01*
X119485714Y-102502438D02*
X119580952Y-102454819D01*
X119580952Y-102454819D02*
X119819047Y-102454819D01*
X119819047Y-102454819D02*
X119914285Y-102502438D01*
X119914285Y-102502438D02*
X119961904Y-102550057D01*
X119961904Y-102550057D02*
X120009523Y-102645295D01*
X120009523Y-102645295D02*
X120009523Y-102740533D01*
X120009523Y-102740533D02*
X119961904Y-102883390D01*
X119961904Y-102883390D02*
X119390476Y-103454819D01*
X119390476Y-103454819D02*
X120009523Y-103454819D01*
X120580952Y-102883390D02*
X120485714Y-102835771D01*
X120485714Y-102835771D02*
X120438095Y-102788152D01*
X120438095Y-102788152D02*
X120390476Y-102692914D01*
X120390476Y-102692914D02*
X120390476Y-102645295D01*
X120390476Y-102645295D02*
X120438095Y-102550057D01*
X120438095Y-102550057D02*
X120485714Y-102502438D01*
X120485714Y-102502438D02*
X120580952Y-102454819D01*
X120580952Y-102454819D02*
X120771428Y-102454819D01*
X120771428Y-102454819D02*
X120866666Y-102502438D01*
X120866666Y-102502438D02*
X120914285Y-102550057D01*
X120914285Y-102550057D02*
X120961904Y-102645295D01*
X120961904Y-102645295D02*
X120961904Y-102692914D01*
X120961904Y-102692914D02*
X120914285Y-102788152D01*
X120914285Y-102788152D02*
X120866666Y-102835771D01*
X120866666Y-102835771D02*
X120771428Y-102883390D01*
X120771428Y-102883390D02*
X120580952Y-102883390D01*
X120580952Y-102883390D02*
X120485714Y-102931009D01*
X120485714Y-102931009D02*
X120438095Y-102978628D01*
X120438095Y-102978628D02*
X120390476Y-103073866D01*
X120390476Y-103073866D02*
X120390476Y-103264342D01*
X120390476Y-103264342D02*
X120438095Y-103359580D01*
X120438095Y-103359580D02*
X120485714Y-103407200D01*
X120485714Y-103407200D02*
X120580952Y-103454819D01*
X120580952Y-103454819D02*
X120771428Y-103454819D01*
X120771428Y-103454819D02*
X120866666Y-103407200D01*
X120866666Y-103407200D02*
X120914285Y-103359580D01*
X120914285Y-103359580D02*
X120961904Y-103264342D01*
X120961904Y-103264342D02*
X120961904Y-103073866D01*
X120961904Y-103073866D02*
X120914285Y-102978628D01*
X120914285Y-102978628D02*
X120866666Y-102931009D01*
X120866666Y-102931009D02*
X120771428Y-102883390D01*
X157938095Y-122254819D02*
X158509523Y-122254819D01*
X158223809Y-123254819D02*
X158223809Y-122254819D01*
X158842857Y-123254819D02*
X158842857Y-122254819D01*
X158842857Y-122254819D02*
X159223809Y-122254819D01*
X159223809Y-122254819D02*
X159319047Y-122302438D01*
X159319047Y-122302438D02*
X159366666Y-122350057D01*
X159366666Y-122350057D02*
X159414285Y-122445295D01*
X159414285Y-122445295D02*
X159414285Y-122588152D01*
X159414285Y-122588152D02*
X159366666Y-122683390D01*
X159366666Y-122683390D02*
X159319047Y-122731009D01*
X159319047Y-122731009D02*
X159223809Y-122778628D01*
X159223809Y-122778628D02*
X158842857Y-122778628D01*
X160366666Y-123254819D02*
X159795238Y-123254819D01*
X160080952Y-123254819D02*
X160080952Y-122254819D01*
X160080952Y-122254819D02*
X159985714Y-122397676D01*
X159985714Y-122397676D02*
X159890476Y-122492914D01*
X159890476Y-122492914D02*
X159795238Y-122540533D01*
X139538095Y-114754819D02*
X140109523Y-114754819D01*
X139823809Y-115754819D02*
X139823809Y-114754819D01*
X140442857Y-115754819D02*
X140442857Y-114754819D01*
X140442857Y-114754819D02*
X140823809Y-114754819D01*
X140823809Y-114754819D02*
X140919047Y-114802438D01*
X140919047Y-114802438D02*
X140966666Y-114850057D01*
X140966666Y-114850057D02*
X141014285Y-114945295D01*
X141014285Y-114945295D02*
X141014285Y-115088152D01*
X141014285Y-115088152D02*
X140966666Y-115183390D01*
X140966666Y-115183390D02*
X140919047Y-115231009D01*
X140919047Y-115231009D02*
X140823809Y-115278628D01*
X140823809Y-115278628D02*
X140442857Y-115278628D01*
X141347619Y-114754819D02*
X142014285Y-114754819D01*
X142014285Y-114754819D02*
X141585714Y-115754819D01*
X128857142Y-121559580D02*
X128809523Y-121607200D01*
X128809523Y-121607200D02*
X128666666Y-121654819D01*
X128666666Y-121654819D02*
X128571428Y-121654819D01*
X128571428Y-121654819D02*
X128428571Y-121607200D01*
X128428571Y-121607200D02*
X128333333Y-121511961D01*
X128333333Y-121511961D02*
X128285714Y-121416723D01*
X128285714Y-121416723D02*
X128238095Y-121226247D01*
X128238095Y-121226247D02*
X128238095Y-121083390D01*
X128238095Y-121083390D02*
X128285714Y-120892914D01*
X128285714Y-120892914D02*
X128333333Y-120797676D01*
X128333333Y-120797676D02*
X128428571Y-120702438D01*
X128428571Y-120702438D02*
X128571428Y-120654819D01*
X128571428Y-120654819D02*
X128666666Y-120654819D01*
X128666666Y-120654819D02*
X128809523Y-120702438D01*
X128809523Y-120702438D02*
X128857142Y-120750057D01*
X129238095Y-120750057D02*
X129285714Y-120702438D01*
X129285714Y-120702438D02*
X129380952Y-120654819D01*
X129380952Y-120654819D02*
X129619047Y-120654819D01*
X129619047Y-120654819D02*
X129714285Y-120702438D01*
X129714285Y-120702438D02*
X129761904Y-120750057D01*
X129761904Y-120750057D02*
X129809523Y-120845295D01*
X129809523Y-120845295D02*
X129809523Y-120940533D01*
X129809523Y-120940533D02*
X129761904Y-121083390D01*
X129761904Y-121083390D02*
X129190476Y-121654819D01*
X129190476Y-121654819D02*
X129809523Y-121654819D01*
X130714285Y-120654819D02*
X130238095Y-120654819D01*
X130238095Y-120654819D02*
X130190476Y-121131009D01*
X130190476Y-121131009D02*
X130238095Y-121083390D01*
X130238095Y-121083390D02*
X130333333Y-121035771D01*
X130333333Y-121035771D02*
X130571428Y-121035771D01*
X130571428Y-121035771D02*
X130666666Y-121083390D01*
X130666666Y-121083390D02*
X130714285Y-121131009D01*
X130714285Y-121131009D02*
X130761904Y-121226247D01*
X130761904Y-121226247D02*
X130761904Y-121464342D01*
X130761904Y-121464342D02*
X130714285Y-121559580D01*
X130714285Y-121559580D02*
X130666666Y-121607200D01*
X130666666Y-121607200D02*
X130571428Y-121654819D01*
X130571428Y-121654819D02*
X130333333Y-121654819D01*
X130333333Y-121654819D02*
X130238095Y-121607200D01*
X130238095Y-121607200D02*
X130190476Y-121559580D01*
X150066666Y-96854819D02*
X150066666Y-97569104D01*
X150066666Y-97569104D02*
X150019047Y-97711961D01*
X150019047Y-97711961D02*
X149923809Y-97807200D01*
X149923809Y-97807200D02*
X149780952Y-97854819D01*
X149780952Y-97854819D02*
X149685714Y-97854819D01*
X150447619Y-96854819D02*
X151066666Y-96854819D01*
X151066666Y-96854819D02*
X150733333Y-97235771D01*
X150733333Y-97235771D02*
X150876190Y-97235771D01*
X150876190Y-97235771D02*
X150971428Y-97283390D01*
X150971428Y-97283390D02*
X151019047Y-97331009D01*
X151019047Y-97331009D02*
X151066666Y-97426247D01*
X151066666Y-97426247D02*
X151066666Y-97664342D01*
X151066666Y-97664342D02*
X151019047Y-97759580D01*
X151019047Y-97759580D02*
X150971428Y-97807200D01*
X150971428Y-97807200D02*
X150876190Y-97854819D01*
X150876190Y-97854819D02*
X150590476Y-97854819D01*
X150590476Y-97854819D02*
X150495238Y-97807200D01*
X150495238Y-97807200D02*
X150447619Y-97759580D01*
X145238095Y-109254819D02*
X145809523Y-109254819D01*
X145523809Y-110254819D02*
X145523809Y-109254819D01*
X146142857Y-110254819D02*
X146142857Y-109254819D01*
X146142857Y-109254819D02*
X146523809Y-109254819D01*
X146523809Y-109254819D02*
X146619047Y-109302438D01*
X146619047Y-109302438D02*
X146666666Y-109350057D01*
X146666666Y-109350057D02*
X146714285Y-109445295D01*
X146714285Y-109445295D02*
X146714285Y-109588152D01*
X146714285Y-109588152D02*
X146666666Y-109683390D01*
X146666666Y-109683390D02*
X146619047Y-109731009D01*
X146619047Y-109731009D02*
X146523809Y-109778628D01*
X146523809Y-109778628D02*
X146142857Y-109778628D01*
X147571428Y-109254819D02*
X147380952Y-109254819D01*
X147380952Y-109254819D02*
X147285714Y-109302438D01*
X147285714Y-109302438D02*
X147238095Y-109350057D01*
X147238095Y-109350057D02*
X147142857Y-109492914D01*
X147142857Y-109492914D02*
X147095238Y-109683390D01*
X147095238Y-109683390D02*
X147095238Y-110064342D01*
X147095238Y-110064342D02*
X147142857Y-110159580D01*
X147142857Y-110159580D02*
X147190476Y-110207200D01*
X147190476Y-110207200D02*
X147285714Y-110254819D01*
X147285714Y-110254819D02*
X147476190Y-110254819D01*
X147476190Y-110254819D02*
X147571428Y-110207200D01*
X147571428Y-110207200D02*
X147619047Y-110159580D01*
X147619047Y-110159580D02*
X147666666Y-110064342D01*
X147666666Y-110064342D02*
X147666666Y-109826247D01*
X147666666Y-109826247D02*
X147619047Y-109731009D01*
X147619047Y-109731009D02*
X147571428Y-109683390D01*
X147571428Y-109683390D02*
X147476190Y-109635771D01*
X147476190Y-109635771D02*
X147285714Y-109635771D01*
X147285714Y-109635771D02*
X147190476Y-109683390D01*
X147190476Y-109683390D02*
X147142857Y-109731009D01*
X147142857Y-109731009D02*
X147095238Y-109826247D01*
X88708526Y-92859413D02*
X88708526Y-91859413D01*
X88708526Y-91859413D02*
X88946621Y-91859413D01*
X88946621Y-91859413D02*
X89089478Y-91907032D01*
X89089478Y-91907032D02*
X89184716Y-92002270D01*
X89184716Y-92002270D02*
X89232335Y-92097508D01*
X89232335Y-92097508D02*
X89279954Y-92287984D01*
X89279954Y-92287984D02*
X89279954Y-92430841D01*
X89279954Y-92430841D02*
X89232335Y-92621317D01*
X89232335Y-92621317D02*
X89184716Y-92716555D01*
X89184716Y-92716555D02*
X89089478Y-92811794D01*
X89089478Y-92811794D02*
X88946621Y-92859413D01*
X88946621Y-92859413D02*
X88708526Y-92859413D01*
X89660907Y-91954651D02*
X89708526Y-91907032D01*
X89708526Y-91907032D02*
X89803764Y-91859413D01*
X89803764Y-91859413D02*
X90041859Y-91859413D01*
X90041859Y-91859413D02*
X90137097Y-91907032D01*
X90137097Y-91907032D02*
X90184716Y-91954651D01*
X90184716Y-91954651D02*
X90232335Y-92049889D01*
X90232335Y-92049889D02*
X90232335Y-92145127D01*
X90232335Y-92145127D02*
X90184716Y-92287984D01*
X90184716Y-92287984D02*
X89613288Y-92859413D01*
X89613288Y-92859413D02*
X90232335Y-92859413D01*
X118154819Y-107161904D02*
X118154819Y-106590476D01*
X119154819Y-106876190D02*
X118154819Y-106876190D01*
X119154819Y-106257142D02*
X118154819Y-106257142D01*
X118154819Y-106257142D02*
X118154819Y-105876190D01*
X118154819Y-105876190D02*
X118202438Y-105780952D01*
X118202438Y-105780952D02*
X118250057Y-105733333D01*
X118250057Y-105733333D02*
X118345295Y-105685714D01*
X118345295Y-105685714D02*
X118488152Y-105685714D01*
X118488152Y-105685714D02*
X118583390Y-105733333D01*
X118583390Y-105733333D02*
X118631009Y-105780952D01*
X118631009Y-105780952D02*
X118678628Y-105876190D01*
X118678628Y-105876190D02*
X118678628Y-106257142D01*
X118583390Y-105114285D02*
X118535771Y-105209523D01*
X118535771Y-105209523D02*
X118488152Y-105257142D01*
X118488152Y-105257142D02*
X118392914Y-105304761D01*
X118392914Y-105304761D02*
X118345295Y-105304761D01*
X118345295Y-105304761D02*
X118250057Y-105257142D01*
X118250057Y-105257142D02*
X118202438Y-105209523D01*
X118202438Y-105209523D02*
X118154819Y-105114285D01*
X118154819Y-105114285D02*
X118154819Y-104923809D01*
X118154819Y-104923809D02*
X118202438Y-104828571D01*
X118202438Y-104828571D02*
X118250057Y-104780952D01*
X118250057Y-104780952D02*
X118345295Y-104733333D01*
X118345295Y-104733333D02*
X118392914Y-104733333D01*
X118392914Y-104733333D02*
X118488152Y-104780952D01*
X118488152Y-104780952D02*
X118535771Y-104828571D01*
X118535771Y-104828571D02*
X118583390Y-104923809D01*
X118583390Y-104923809D02*
X118583390Y-105114285D01*
X118583390Y-105114285D02*
X118631009Y-105209523D01*
X118631009Y-105209523D02*
X118678628Y-105257142D01*
X118678628Y-105257142D02*
X118773866Y-105304761D01*
X118773866Y-105304761D02*
X118964342Y-105304761D01*
X118964342Y-105304761D02*
X119059580Y-105257142D01*
X119059580Y-105257142D02*
X119107200Y-105209523D01*
X119107200Y-105209523D02*
X119154819Y-105114285D01*
X119154819Y-105114285D02*
X119154819Y-104923809D01*
X119154819Y-104923809D02*
X119107200Y-104828571D01*
X119107200Y-104828571D02*
X119059580Y-104780952D01*
X119059580Y-104780952D02*
X118964342Y-104733333D01*
X118964342Y-104733333D02*
X118773866Y-104733333D01*
X118773866Y-104733333D02*
X118678628Y-104780952D01*
X118678628Y-104780952D02*
X118631009Y-104828571D01*
X118631009Y-104828571D02*
X118583390Y-104923809D01*
X127866666Y-103254819D02*
X127866666Y-103969104D01*
X127866666Y-103969104D02*
X127819047Y-104111961D01*
X127819047Y-104111961D02*
X127723809Y-104207200D01*
X127723809Y-104207200D02*
X127580952Y-104254819D01*
X127580952Y-104254819D02*
X127485714Y-104254819D01*
X128342857Y-104254819D02*
X128342857Y-103254819D01*
X128342857Y-103254819D02*
X128723809Y-103254819D01*
X128723809Y-103254819D02*
X128819047Y-103302438D01*
X128819047Y-103302438D02*
X128866666Y-103350057D01*
X128866666Y-103350057D02*
X128914285Y-103445295D01*
X128914285Y-103445295D02*
X128914285Y-103588152D01*
X128914285Y-103588152D02*
X128866666Y-103683390D01*
X128866666Y-103683390D02*
X128819047Y-103731009D01*
X128819047Y-103731009D02*
X128723809Y-103778628D01*
X128723809Y-103778628D02*
X128342857Y-103778628D01*
X129866666Y-104254819D02*
X129295238Y-104254819D01*
X129580952Y-104254819D02*
X129580952Y-103254819D01*
X129580952Y-103254819D02*
X129485714Y-103397676D01*
X129485714Y-103397676D02*
X129390476Y-103492914D01*
X129390476Y-103492914D02*
X129295238Y-103540533D01*
X133157142Y-122009580D02*
X133109523Y-122057200D01*
X133109523Y-122057200D02*
X132966666Y-122104819D01*
X132966666Y-122104819D02*
X132871428Y-122104819D01*
X132871428Y-122104819D02*
X132728571Y-122057200D01*
X132728571Y-122057200D02*
X132633333Y-121961961D01*
X132633333Y-121961961D02*
X132585714Y-121866723D01*
X132585714Y-121866723D02*
X132538095Y-121676247D01*
X132538095Y-121676247D02*
X132538095Y-121533390D01*
X132538095Y-121533390D02*
X132585714Y-121342914D01*
X132585714Y-121342914D02*
X132633333Y-121247676D01*
X132633333Y-121247676D02*
X132728571Y-121152438D01*
X132728571Y-121152438D02*
X132871428Y-121104819D01*
X132871428Y-121104819D02*
X132966666Y-121104819D01*
X132966666Y-121104819D02*
X133109523Y-121152438D01*
X133109523Y-121152438D02*
X133157142Y-121200057D01*
X134109523Y-122104819D02*
X133538095Y-122104819D01*
X133823809Y-122104819D02*
X133823809Y-121104819D01*
X133823809Y-121104819D02*
X133728571Y-121247676D01*
X133728571Y-121247676D02*
X133633333Y-121342914D01*
X133633333Y-121342914D02*
X133538095Y-121390533D01*
X134490476Y-121200057D02*
X134538095Y-121152438D01*
X134538095Y-121152438D02*
X134633333Y-121104819D01*
X134633333Y-121104819D02*
X134871428Y-121104819D01*
X134871428Y-121104819D02*
X134966666Y-121152438D01*
X134966666Y-121152438D02*
X135014285Y-121200057D01*
X135014285Y-121200057D02*
X135061904Y-121295295D01*
X135061904Y-121295295D02*
X135061904Y-121390533D01*
X135061904Y-121390533D02*
X135014285Y-121533390D01*
X135014285Y-121533390D02*
X134442857Y-122104819D01*
X134442857Y-122104819D02*
X135061904Y-122104819D01*
X108857142Y-122859580D02*
X108809523Y-122907200D01*
X108809523Y-122907200D02*
X108666666Y-122954819D01*
X108666666Y-122954819D02*
X108571428Y-122954819D01*
X108571428Y-122954819D02*
X108428571Y-122907200D01*
X108428571Y-122907200D02*
X108333333Y-122811961D01*
X108333333Y-122811961D02*
X108285714Y-122716723D01*
X108285714Y-122716723D02*
X108238095Y-122526247D01*
X108238095Y-122526247D02*
X108238095Y-122383390D01*
X108238095Y-122383390D02*
X108285714Y-122192914D01*
X108285714Y-122192914D02*
X108333333Y-122097676D01*
X108333333Y-122097676D02*
X108428571Y-122002438D01*
X108428571Y-122002438D02*
X108571428Y-121954819D01*
X108571428Y-121954819D02*
X108666666Y-121954819D01*
X108666666Y-121954819D02*
X108809523Y-122002438D01*
X108809523Y-122002438D02*
X108857142Y-122050057D01*
X109238095Y-122050057D02*
X109285714Y-122002438D01*
X109285714Y-122002438D02*
X109380952Y-121954819D01*
X109380952Y-121954819D02*
X109619047Y-121954819D01*
X109619047Y-121954819D02*
X109714285Y-122002438D01*
X109714285Y-122002438D02*
X109761904Y-122050057D01*
X109761904Y-122050057D02*
X109809523Y-122145295D01*
X109809523Y-122145295D02*
X109809523Y-122240533D01*
X109809523Y-122240533D02*
X109761904Y-122383390D01*
X109761904Y-122383390D02*
X109190476Y-122954819D01*
X109190476Y-122954819D02*
X109809523Y-122954819D01*
X110142857Y-121954819D02*
X110809523Y-121954819D01*
X110809523Y-121954819D02*
X110380952Y-122954819D01*
X115607142Y-123359580D02*
X115559523Y-123407200D01*
X115559523Y-123407200D02*
X115416666Y-123454819D01*
X115416666Y-123454819D02*
X115321428Y-123454819D01*
X115321428Y-123454819D02*
X115178571Y-123407200D01*
X115178571Y-123407200D02*
X115083333Y-123311961D01*
X115083333Y-123311961D02*
X115035714Y-123216723D01*
X115035714Y-123216723D02*
X114988095Y-123026247D01*
X114988095Y-123026247D02*
X114988095Y-122883390D01*
X114988095Y-122883390D02*
X115035714Y-122692914D01*
X115035714Y-122692914D02*
X115083333Y-122597676D01*
X115083333Y-122597676D02*
X115178571Y-122502438D01*
X115178571Y-122502438D02*
X115321428Y-122454819D01*
X115321428Y-122454819D02*
X115416666Y-122454819D01*
X115416666Y-122454819D02*
X115559523Y-122502438D01*
X115559523Y-122502438D02*
X115607142Y-122550057D01*
X116559523Y-123454819D02*
X115988095Y-123454819D01*
X116273809Y-123454819D02*
X116273809Y-122454819D01*
X116273809Y-122454819D02*
X116178571Y-122597676D01*
X116178571Y-122597676D02*
X116083333Y-122692914D01*
X116083333Y-122692914D02*
X115988095Y-122740533D01*
X116892857Y-122454819D02*
X117559523Y-122454819D01*
X117559523Y-122454819D02*
X117130952Y-123454819D01*
X153638095Y-109754819D02*
X154209523Y-109754819D01*
X153923809Y-110754819D02*
X153923809Y-109754819D01*
X154542857Y-110754819D02*
X154542857Y-109754819D01*
X154542857Y-109754819D02*
X154923809Y-109754819D01*
X154923809Y-109754819D02*
X155019047Y-109802438D01*
X155019047Y-109802438D02*
X155066666Y-109850057D01*
X155066666Y-109850057D02*
X155114285Y-109945295D01*
X155114285Y-109945295D02*
X155114285Y-110088152D01*
X155114285Y-110088152D02*
X155066666Y-110183390D01*
X155066666Y-110183390D02*
X155019047Y-110231009D01*
X155019047Y-110231009D02*
X154923809Y-110278628D01*
X154923809Y-110278628D02*
X154542857Y-110278628D01*
X156019047Y-109754819D02*
X155542857Y-109754819D01*
X155542857Y-109754819D02*
X155495238Y-110231009D01*
X155495238Y-110231009D02*
X155542857Y-110183390D01*
X155542857Y-110183390D02*
X155638095Y-110135771D01*
X155638095Y-110135771D02*
X155876190Y-110135771D01*
X155876190Y-110135771D02*
X155971428Y-110183390D01*
X155971428Y-110183390D02*
X156019047Y-110231009D01*
X156019047Y-110231009D02*
X156066666Y-110326247D01*
X156066666Y-110326247D02*
X156066666Y-110564342D01*
X156066666Y-110564342D02*
X156019047Y-110659580D01*
X156019047Y-110659580D02*
X155971428Y-110707200D01*
X155971428Y-110707200D02*
X155876190Y-110754819D01*
X155876190Y-110754819D02*
X155638095Y-110754819D01*
X155638095Y-110754819D02*
X155542857Y-110707200D01*
X155542857Y-110707200D02*
X155495238Y-110659580D01*
X169204819Y-105095238D02*
X168728628Y-105428571D01*
X169204819Y-105666666D02*
X168204819Y-105666666D01*
X168204819Y-105666666D02*
X168204819Y-105285714D01*
X168204819Y-105285714D02*
X168252438Y-105190476D01*
X168252438Y-105190476D02*
X168300057Y-105142857D01*
X168300057Y-105142857D02*
X168395295Y-105095238D01*
X168395295Y-105095238D02*
X168538152Y-105095238D01*
X168538152Y-105095238D02*
X168633390Y-105142857D01*
X168633390Y-105142857D02*
X168681009Y-105190476D01*
X168681009Y-105190476D02*
X168728628Y-105285714D01*
X168728628Y-105285714D02*
X168728628Y-105666666D01*
X168204819Y-104809523D02*
X169204819Y-104476190D01*
X169204819Y-104476190D02*
X168204819Y-104142857D01*
X169204819Y-103285714D02*
X169204819Y-103857142D01*
X169204819Y-103571428D02*
X168204819Y-103571428D01*
X168204819Y-103571428D02*
X168347676Y-103666666D01*
X168347676Y-103666666D02*
X168442914Y-103761904D01*
X168442914Y-103761904D02*
X168490533Y-103857142D01*
D10*
X170495150Y-111840952D02*
X170447531Y-111936190D01*
X170447531Y-111936190D02*
X170447531Y-112079047D01*
X170447531Y-112079047D02*
X170495150Y-112221904D01*
X170495150Y-112221904D02*
X170590388Y-112317142D01*
X170590388Y-112317142D02*
X170685626Y-112364761D01*
X170685626Y-112364761D02*
X170876102Y-112412380D01*
X170876102Y-112412380D02*
X171018959Y-112412380D01*
X171018959Y-112412380D02*
X171209435Y-112364761D01*
X171209435Y-112364761D02*
X171304673Y-112317142D01*
X171304673Y-112317142D02*
X171399912Y-112221904D01*
X171399912Y-112221904D02*
X171447531Y-112079047D01*
X171447531Y-112079047D02*
X171447531Y-111983809D01*
X171447531Y-111983809D02*
X171399912Y-111840952D01*
X171399912Y-111840952D02*
X171352292Y-111793333D01*
X171352292Y-111793333D02*
X171018959Y-111793333D01*
X171018959Y-111793333D02*
X171018959Y-111983809D01*
X171447531Y-111221904D02*
X171399912Y-111317142D01*
X171399912Y-111317142D02*
X171304673Y-111364761D01*
X171304673Y-111364761D02*
X170447531Y-111364761D01*
X170780864Y-110412380D02*
X171447531Y-110412380D01*
X170780864Y-110840951D02*
X171304673Y-110840951D01*
X171304673Y-110840951D02*
X171399912Y-110793332D01*
X171399912Y-110793332D02*
X171447531Y-110698094D01*
X171447531Y-110698094D02*
X171447531Y-110555237D01*
X171447531Y-110555237D02*
X171399912Y-110459999D01*
X171399912Y-110459999D02*
X171352292Y-110412380D01*
X171399912Y-109555237D02*
X171447531Y-109650475D01*
X171447531Y-109650475D02*
X171447531Y-109840951D01*
X171447531Y-109840951D02*
X171399912Y-109936189D01*
X171399912Y-109936189D02*
X171304673Y-109983808D01*
X171304673Y-109983808D02*
X170923721Y-109983808D01*
X170923721Y-109983808D02*
X170828483Y-109936189D01*
X170828483Y-109936189D02*
X170780864Y-109840951D01*
X170780864Y-109840951D02*
X170780864Y-109650475D01*
X170780864Y-109650475D02*
X170828483Y-109555237D01*
X170828483Y-109555237D02*
X170923721Y-109507618D01*
X170923721Y-109507618D02*
X171018959Y-109507618D01*
X171018959Y-109507618D02*
X171114197Y-109983808D01*
X172962236Y-114293333D02*
X173009856Y-114340952D01*
X173009856Y-114340952D02*
X173057475Y-114483809D01*
X173057475Y-114483809D02*
X173057475Y-114579047D01*
X173057475Y-114579047D02*
X173009856Y-114721904D01*
X173009856Y-114721904D02*
X172914617Y-114817142D01*
X172914617Y-114817142D02*
X172819379Y-114864761D01*
X172819379Y-114864761D02*
X172628903Y-114912380D01*
X172628903Y-114912380D02*
X172486046Y-114912380D01*
X172486046Y-114912380D02*
X172295570Y-114864761D01*
X172295570Y-114864761D02*
X172200332Y-114817142D01*
X172200332Y-114817142D02*
X172105094Y-114721904D01*
X172105094Y-114721904D02*
X172057475Y-114579047D01*
X172057475Y-114579047D02*
X172057475Y-114483809D01*
X172057475Y-114483809D02*
X172105094Y-114340952D01*
X172105094Y-114340952D02*
X172152713Y-114293333D01*
X173057475Y-113721904D02*
X173009856Y-113817142D01*
X173009856Y-113817142D02*
X172962236Y-113864761D01*
X172962236Y-113864761D02*
X172866998Y-113912380D01*
X172866998Y-113912380D02*
X172581284Y-113912380D01*
X172581284Y-113912380D02*
X172486046Y-113864761D01*
X172486046Y-113864761D02*
X172438427Y-113817142D01*
X172438427Y-113817142D02*
X172390808Y-113721904D01*
X172390808Y-113721904D02*
X172390808Y-113579047D01*
X172390808Y-113579047D02*
X172438427Y-113483809D01*
X172438427Y-113483809D02*
X172486046Y-113436190D01*
X172486046Y-113436190D02*
X172581284Y-113388571D01*
X172581284Y-113388571D02*
X172866998Y-113388571D01*
X172866998Y-113388571D02*
X172962236Y-113436190D01*
X172962236Y-113436190D02*
X173009856Y-113483809D01*
X173009856Y-113483809D02*
X173057475Y-113579047D01*
X173057475Y-113579047D02*
X173057475Y-113721904D01*
X173057475Y-112959999D02*
X172390808Y-112959999D01*
X172486046Y-112959999D02*
X172438427Y-112912380D01*
X172438427Y-112912380D02*
X172390808Y-112817142D01*
X172390808Y-112817142D02*
X172390808Y-112674285D01*
X172390808Y-112674285D02*
X172438427Y-112579047D01*
X172438427Y-112579047D02*
X172533665Y-112531428D01*
X172533665Y-112531428D02*
X173057475Y-112531428D01*
X172533665Y-112531428D02*
X172438427Y-112483809D01*
X172438427Y-112483809D02*
X172390808Y-112388571D01*
X172390808Y-112388571D02*
X172390808Y-112245714D01*
X172390808Y-112245714D02*
X172438427Y-112150475D01*
X172438427Y-112150475D02*
X172533665Y-112102856D01*
X172533665Y-112102856D02*
X173057475Y-112102856D01*
X172390808Y-111626666D02*
X173390808Y-111626666D01*
X172438427Y-111626666D02*
X172390808Y-111531428D01*
X172390808Y-111531428D02*
X172390808Y-111340952D01*
X172390808Y-111340952D02*
X172438427Y-111245714D01*
X172438427Y-111245714D02*
X172486046Y-111198095D01*
X172486046Y-111198095D02*
X172581284Y-111150476D01*
X172581284Y-111150476D02*
X172866998Y-111150476D01*
X172866998Y-111150476D02*
X172962236Y-111198095D01*
X172962236Y-111198095D02*
X173009856Y-111245714D01*
X173009856Y-111245714D02*
X173057475Y-111340952D01*
X173057475Y-111340952D02*
X173057475Y-111531428D01*
X173057475Y-111531428D02*
X173009856Y-111626666D01*
X173057475Y-110579047D02*
X173009856Y-110674285D01*
X173009856Y-110674285D02*
X172962236Y-110721904D01*
X172962236Y-110721904D02*
X172866998Y-110769523D01*
X172866998Y-110769523D02*
X172581284Y-110769523D01*
X172581284Y-110769523D02*
X172486046Y-110721904D01*
X172486046Y-110721904D02*
X172438427Y-110674285D01*
X172438427Y-110674285D02*
X172390808Y-110579047D01*
X172390808Y-110579047D02*
X172390808Y-110436190D01*
X172390808Y-110436190D02*
X172438427Y-110340952D01*
X172438427Y-110340952D02*
X172486046Y-110293333D01*
X172486046Y-110293333D02*
X172581284Y-110245714D01*
X172581284Y-110245714D02*
X172866998Y-110245714D01*
X172866998Y-110245714D02*
X172962236Y-110293333D01*
X172962236Y-110293333D02*
X173009856Y-110340952D01*
X173009856Y-110340952D02*
X173057475Y-110436190D01*
X173057475Y-110436190D02*
X173057475Y-110579047D01*
X172390808Y-109817142D02*
X173057475Y-109817142D01*
X172486046Y-109817142D02*
X172438427Y-109769523D01*
X172438427Y-109769523D02*
X172390808Y-109674285D01*
X172390808Y-109674285D02*
X172390808Y-109531428D01*
X172390808Y-109531428D02*
X172438427Y-109436190D01*
X172438427Y-109436190D02*
X172533665Y-109388571D01*
X172533665Y-109388571D02*
X173057475Y-109388571D01*
X173009856Y-108531428D02*
X173057475Y-108626666D01*
X173057475Y-108626666D02*
X173057475Y-108817142D01*
X173057475Y-108817142D02*
X173009856Y-108912380D01*
X173009856Y-108912380D02*
X172914617Y-108959999D01*
X172914617Y-108959999D02*
X172533665Y-108959999D01*
X172533665Y-108959999D02*
X172438427Y-108912380D01*
X172438427Y-108912380D02*
X172390808Y-108817142D01*
X172390808Y-108817142D02*
X172390808Y-108626666D01*
X172390808Y-108626666D02*
X172438427Y-108531428D01*
X172438427Y-108531428D02*
X172533665Y-108483809D01*
X172533665Y-108483809D02*
X172628903Y-108483809D01*
X172628903Y-108483809D02*
X172724141Y-108959999D01*
X172390808Y-108055237D02*
X173057475Y-108055237D01*
X172486046Y-108055237D02*
X172438427Y-108007618D01*
X172438427Y-108007618D02*
X172390808Y-107912380D01*
X172390808Y-107912380D02*
X172390808Y-107769523D01*
X172390808Y-107769523D02*
X172438427Y-107674285D01*
X172438427Y-107674285D02*
X172533665Y-107626666D01*
X172533665Y-107626666D02*
X173057475Y-107626666D01*
X172390808Y-107293332D02*
X172390808Y-106912380D01*
X172057475Y-107150475D02*
X172914617Y-107150475D01*
X172914617Y-107150475D02*
X173009856Y-107102856D01*
X173009856Y-107102856D02*
X173057475Y-107007618D01*
X173057475Y-107007618D02*
X173057475Y-106912380D01*
X174000752Y-113483809D02*
X174000752Y-113102857D01*
X173667419Y-113340952D02*
X174524561Y-113340952D01*
X174524561Y-113340952D02*
X174619800Y-113293333D01*
X174619800Y-113293333D02*
X174667419Y-113198095D01*
X174667419Y-113198095D02*
X174667419Y-113102857D01*
X174667419Y-112626666D02*
X174619800Y-112721904D01*
X174619800Y-112721904D02*
X174572180Y-112769523D01*
X174572180Y-112769523D02*
X174476942Y-112817142D01*
X174476942Y-112817142D02*
X174191228Y-112817142D01*
X174191228Y-112817142D02*
X174095990Y-112769523D01*
X174095990Y-112769523D02*
X174048371Y-112721904D01*
X174048371Y-112721904D02*
X174000752Y-112626666D01*
X174000752Y-112626666D02*
X174000752Y-112483809D01*
X174000752Y-112483809D02*
X174048371Y-112388571D01*
X174048371Y-112388571D02*
X174095990Y-112340952D01*
X174095990Y-112340952D02*
X174191228Y-112293333D01*
X174191228Y-112293333D02*
X174476942Y-112293333D01*
X174476942Y-112293333D02*
X174572180Y-112340952D01*
X174572180Y-112340952D02*
X174619800Y-112388571D01*
X174619800Y-112388571D02*
X174667419Y-112483809D01*
X174667419Y-112483809D02*
X174667419Y-112626666D01*
X174667419Y-111102856D02*
X173667419Y-111102856D01*
X173667419Y-111102856D02*
X173667419Y-110721904D01*
X173667419Y-110721904D02*
X173715038Y-110626666D01*
X173715038Y-110626666D02*
X173762657Y-110579047D01*
X173762657Y-110579047D02*
X173857895Y-110531428D01*
X173857895Y-110531428D02*
X174000752Y-110531428D01*
X174000752Y-110531428D02*
X174095990Y-110579047D01*
X174095990Y-110579047D02*
X174143609Y-110626666D01*
X174143609Y-110626666D02*
X174191228Y-110721904D01*
X174191228Y-110721904D02*
X174191228Y-111102856D01*
X174572180Y-109531428D02*
X174619800Y-109579047D01*
X174619800Y-109579047D02*
X174667419Y-109721904D01*
X174667419Y-109721904D02*
X174667419Y-109817142D01*
X174667419Y-109817142D02*
X174619800Y-109959999D01*
X174619800Y-109959999D02*
X174524561Y-110055237D01*
X174524561Y-110055237D02*
X174429323Y-110102856D01*
X174429323Y-110102856D02*
X174238847Y-110150475D01*
X174238847Y-110150475D02*
X174095990Y-110150475D01*
X174095990Y-110150475D02*
X173905514Y-110102856D01*
X173905514Y-110102856D02*
X173810276Y-110055237D01*
X173810276Y-110055237D02*
X173715038Y-109959999D01*
X173715038Y-109959999D02*
X173667419Y-109817142D01*
X173667419Y-109817142D02*
X173667419Y-109721904D01*
X173667419Y-109721904D02*
X173715038Y-109579047D01*
X173715038Y-109579047D02*
X173762657Y-109531428D01*
X174143609Y-108769523D02*
X174191228Y-108626666D01*
X174191228Y-108626666D02*
X174238847Y-108579047D01*
X174238847Y-108579047D02*
X174334085Y-108531428D01*
X174334085Y-108531428D02*
X174476942Y-108531428D01*
X174476942Y-108531428D02*
X174572180Y-108579047D01*
X174572180Y-108579047D02*
X174619800Y-108626666D01*
X174619800Y-108626666D02*
X174667419Y-108721904D01*
X174667419Y-108721904D02*
X174667419Y-109102856D01*
X174667419Y-109102856D02*
X173667419Y-109102856D01*
X173667419Y-109102856D02*
X173667419Y-108769523D01*
X173667419Y-108769523D02*
X173715038Y-108674285D01*
X173715038Y-108674285D02*
X173762657Y-108626666D01*
X173762657Y-108626666D02*
X173857895Y-108579047D01*
X173857895Y-108579047D02*
X173953133Y-108579047D01*
X173953133Y-108579047D02*
X174048371Y-108626666D01*
X174048371Y-108626666D02*
X174095990Y-108674285D01*
X174095990Y-108674285D02*
X174143609Y-108769523D01*
X174143609Y-108769523D02*
X174143609Y-109102856D01*
D11*
X99488095Y-99204819D02*
X99488095Y-100014342D01*
X99488095Y-100014342D02*
X99535714Y-100109580D01*
X99535714Y-100109580D02*
X99583333Y-100157200D01*
X99583333Y-100157200D02*
X99678571Y-100204819D01*
X99678571Y-100204819D02*
X99869047Y-100204819D01*
X99869047Y-100204819D02*
X99964285Y-100157200D01*
X99964285Y-100157200D02*
X100011904Y-100109580D01*
X100011904Y-100109580D02*
X100059523Y-100014342D01*
X100059523Y-100014342D02*
X100059523Y-99204819D01*
X101011904Y-99204819D02*
X100535714Y-99204819D01*
X100535714Y-99204819D02*
X100488095Y-99681009D01*
X100488095Y-99681009D02*
X100535714Y-99633390D01*
X100535714Y-99633390D02*
X100630952Y-99585771D01*
X100630952Y-99585771D02*
X100869047Y-99585771D01*
X100869047Y-99585771D02*
X100964285Y-99633390D01*
X100964285Y-99633390D02*
X101011904Y-99681009D01*
X101011904Y-99681009D02*
X101059523Y-99776247D01*
X101059523Y-99776247D02*
X101059523Y-100014342D01*
X101059523Y-100014342D02*
X101011904Y-100109580D01*
X101011904Y-100109580D02*
X100964285Y-100157200D01*
X100964285Y-100157200D02*
X100869047Y-100204819D01*
X100869047Y-100204819D02*
X100630952Y-100204819D01*
X100630952Y-100204819D02*
X100535714Y-100157200D01*
X100535714Y-100157200D02*
X100488095Y-100109580D01*
X164457142Y-118409580D02*
X164409523Y-118457200D01*
X164409523Y-118457200D02*
X164266666Y-118504819D01*
X164266666Y-118504819D02*
X164171428Y-118504819D01*
X164171428Y-118504819D02*
X164028571Y-118457200D01*
X164028571Y-118457200D02*
X163933333Y-118361961D01*
X163933333Y-118361961D02*
X163885714Y-118266723D01*
X163885714Y-118266723D02*
X163838095Y-118076247D01*
X163838095Y-118076247D02*
X163838095Y-117933390D01*
X163838095Y-117933390D02*
X163885714Y-117742914D01*
X163885714Y-117742914D02*
X163933333Y-117647676D01*
X163933333Y-117647676D02*
X164028571Y-117552438D01*
X164028571Y-117552438D02*
X164171428Y-117504819D01*
X164171428Y-117504819D02*
X164266666Y-117504819D01*
X164266666Y-117504819D02*
X164409523Y-117552438D01*
X164409523Y-117552438D02*
X164457142Y-117600057D01*
X165409523Y-118504819D02*
X164838095Y-118504819D01*
X165123809Y-118504819D02*
X165123809Y-117504819D01*
X165123809Y-117504819D02*
X165028571Y-117647676D01*
X165028571Y-117647676D02*
X164933333Y-117742914D01*
X164933333Y-117742914D02*
X164838095Y-117790533D01*
X166266666Y-117838152D02*
X166266666Y-118504819D01*
X166028571Y-117457200D02*
X165790476Y-118171485D01*
X165790476Y-118171485D02*
X166409523Y-118171485D01*
X158166666Y-129754819D02*
X158166666Y-130469104D01*
X158166666Y-130469104D02*
X158119047Y-130611961D01*
X158119047Y-130611961D02*
X158023809Y-130707200D01*
X158023809Y-130707200D02*
X157880952Y-130754819D01*
X157880952Y-130754819D02*
X157785714Y-130754819D01*
X159071428Y-129754819D02*
X158880952Y-129754819D01*
X158880952Y-129754819D02*
X158785714Y-129802438D01*
X158785714Y-129802438D02*
X158738095Y-129850057D01*
X158738095Y-129850057D02*
X158642857Y-129992914D01*
X158642857Y-129992914D02*
X158595238Y-130183390D01*
X158595238Y-130183390D02*
X158595238Y-130564342D01*
X158595238Y-130564342D02*
X158642857Y-130659580D01*
X158642857Y-130659580D02*
X158690476Y-130707200D01*
X158690476Y-130707200D02*
X158785714Y-130754819D01*
X158785714Y-130754819D02*
X158976190Y-130754819D01*
X158976190Y-130754819D02*
X159071428Y-130707200D01*
X159071428Y-130707200D02*
X159119047Y-130659580D01*
X159119047Y-130659580D02*
X159166666Y-130564342D01*
X159166666Y-130564342D02*
X159166666Y-130326247D01*
X159166666Y-130326247D02*
X159119047Y-130231009D01*
X159119047Y-130231009D02*
X159071428Y-130183390D01*
X159071428Y-130183390D02*
X158976190Y-130135771D01*
X158976190Y-130135771D02*
X158785714Y-130135771D01*
X158785714Y-130135771D02*
X158690476Y-130183390D01*
X158690476Y-130183390D02*
X158642857Y-130231009D01*
X158642857Y-130231009D02*
X158595238Y-130326247D01*
X68604819Y-121333333D02*
X69319104Y-121333333D01*
X69319104Y-121333333D02*
X69461961Y-121380952D01*
X69461961Y-121380952D02*
X69557200Y-121476190D01*
X69557200Y-121476190D02*
X69604819Y-121619047D01*
X69604819Y-121619047D02*
X69604819Y-121714285D01*
X68938152Y-120428571D02*
X69604819Y-120428571D01*
X68557200Y-120666666D02*
X69271485Y-120904761D01*
X69271485Y-120904761D02*
X69271485Y-120285714D01*
X89364700Y-118071428D02*
X89364700Y-116928571D01*
X89936128Y-117499999D02*
X88793271Y-117499999D01*
X108428571Y-137514700D02*
X109571429Y-137514700D01*
X175557142Y-124659580D02*
X175509523Y-124707200D01*
X175509523Y-124707200D02*
X175366666Y-124754819D01*
X175366666Y-124754819D02*
X175271428Y-124754819D01*
X175271428Y-124754819D02*
X175128571Y-124707200D01*
X175128571Y-124707200D02*
X175033333Y-124611961D01*
X175033333Y-124611961D02*
X174985714Y-124516723D01*
X174985714Y-124516723D02*
X174938095Y-124326247D01*
X174938095Y-124326247D02*
X174938095Y-124183390D01*
X174938095Y-124183390D02*
X174985714Y-123992914D01*
X174985714Y-123992914D02*
X175033333Y-123897676D01*
X175033333Y-123897676D02*
X175128571Y-123802438D01*
X175128571Y-123802438D02*
X175271428Y-123754819D01*
X175271428Y-123754819D02*
X175366666Y-123754819D01*
X175366666Y-123754819D02*
X175509523Y-123802438D01*
X175509523Y-123802438D02*
X175557142Y-123850057D01*
X176509523Y-124754819D02*
X175938095Y-124754819D01*
X176223809Y-124754819D02*
X176223809Y-123754819D01*
X176223809Y-123754819D02*
X176128571Y-123897676D01*
X176128571Y-123897676D02*
X176033333Y-123992914D01*
X176033333Y-123992914D02*
X175938095Y-124040533D01*
X177414285Y-123754819D02*
X176938095Y-123754819D01*
X176938095Y-123754819D02*
X176890476Y-124231009D01*
X176890476Y-124231009D02*
X176938095Y-124183390D01*
X176938095Y-124183390D02*
X177033333Y-124135771D01*
X177033333Y-124135771D02*
X177271428Y-124135771D01*
X177271428Y-124135771D02*
X177366666Y-124183390D01*
X177366666Y-124183390D02*
X177414285Y-124231009D01*
X177414285Y-124231009D02*
X177461904Y-124326247D01*
X177461904Y-124326247D02*
X177461904Y-124564342D01*
X177461904Y-124564342D02*
X177414285Y-124659580D01*
X177414285Y-124659580D02*
X177366666Y-124707200D01*
X177366666Y-124707200D02*
X177271428Y-124754819D01*
X177271428Y-124754819D02*
X177033333Y-124754819D01*
X177033333Y-124754819D02*
X176938095Y-124707200D01*
X176938095Y-124707200D02*
X176890476Y-124659580D01*
X114761905Y-137704819D02*
X114761905Y-136704819D01*
X114761905Y-136704819D02*
X115000000Y-136704819D01*
X115000000Y-136704819D02*
X115142857Y-136752438D01*
X115142857Y-136752438D02*
X115238095Y-136847676D01*
X115238095Y-136847676D02*
X115285714Y-136942914D01*
X115285714Y-136942914D02*
X115333333Y-137133390D01*
X115333333Y-137133390D02*
X115333333Y-137276247D01*
X115333333Y-137276247D02*
X115285714Y-137466723D01*
X115285714Y-137466723D02*
X115238095Y-137561961D01*
X115238095Y-137561961D02*
X115142857Y-137657200D01*
X115142857Y-137657200D02*
X115000000Y-137704819D01*
X115000000Y-137704819D02*
X114761905Y-137704819D01*
X115904762Y-137133390D02*
X115809524Y-137085771D01*
X115809524Y-137085771D02*
X115761905Y-137038152D01*
X115761905Y-137038152D02*
X115714286Y-136942914D01*
X115714286Y-136942914D02*
X115714286Y-136895295D01*
X115714286Y-136895295D02*
X115761905Y-136800057D01*
X115761905Y-136800057D02*
X115809524Y-136752438D01*
X115809524Y-136752438D02*
X115904762Y-136704819D01*
X115904762Y-136704819D02*
X116095238Y-136704819D01*
X116095238Y-136704819D02*
X116190476Y-136752438D01*
X116190476Y-136752438D02*
X116238095Y-136800057D01*
X116238095Y-136800057D02*
X116285714Y-136895295D01*
X116285714Y-136895295D02*
X116285714Y-136942914D01*
X116285714Y-136942914D02*
X116238095Y-137038152D01*
X116238095Y-137038152D02*
X116190476Y-137085771D01*
X116190476Y-137085771D02*
X116095238Y-137133390D01*
X116095238Y-137133390D02*
X115904762Y-137133390D01*
X115904762Y-137133390D02*
X115809524Y-137181009D01*
X115809524Y-137181009D02*
X115761905Y-137228628D01*
X115761905Y-137228628D02*
X115714286Y-137323866D01*
X115714286Y-137323866D02*
X115714286Y-137514342D01*
X115714286Y-137514342D02*
X115761905Y-137609580D01*
X115761905Y-137609580D02*
X115809524Y-137657200D01*
X115809524Y-137657200D02*
X115904762Y-137704819D01*
X115904762Y-137704819D02*
X116095238Y-137704819D01*
X116095238Y-137704819D02*
X116190476Y-137657200D01*
X116190476Y-137657200D02*
X116238095Y-137609580D01*
X116238095Y-137609580D02*
X116285714Y-137514342D01*
X116285714Y-137514342D02*
X116285714Y-137323866D01*
X116285714Y-137323866D02*
X116238095Y-137228628D01*
X116238095Y-137228628D02*
X116190476Y-137181009D01*
X116190476Y-137181009D02*
X116095238Y-137133390D01*
X91666666Y-126534819D02*
X91666666Y-127249104D01*
X91666666Y-127249104D02*
X91619047Y-127391961D01*
X91619047Y-127391961D02*
X91523809Y-127487200D01*
X91523809Y-127487200D02*
X91380952Y-127534819D01*
X91380952Y-127534819D02*
X91285714Y-127534819D01*
X92285714Y-126963390D02*
X92190476Y-126915771D01*
X92190476Y-126915771D02*
X92142857Y-126868152D01*
X92142857Y-126868152D02*
X92095238Y-126772914D01*
X92095238Y-126772914D02*
X92095238Y-126725295D01*
X92095238Y-126725295D02*
X92142857Y-126630057D01*
X92142857Y-126630057D02*
X92190476Y-126582438D01*
X92190476Y-126582438D02*
X92285714Y-126534819D01*
X92285714Y-126534819D02*
X92476190Y-126534819D01*
X92476190Y-126534819D02*
X92571428Y-126582438D01*
X92571428Y-126582438D02*
X92619047Y-126630057D01*
X92619047Y-126630057D02*
X92666666Y-126725295D01*
X92666666Y-126725295D02*
X92666666Y-126772914D01*
X92666666Y-126772914D02*
X92619047Y-126868152D01*
X92619047Y-126868152D02*
X92571428Y-126915771D01*
X92571428Y-126915771D02*
X92476190Y-126963390D01*
X92476190Y-126963390D02*
X92285714Y-126963390D01*
X92285714Y-126963390D02*
X92190476Y-127011009D01*
X92190476Y-127011009D02*
X92142857Y-127058628D01*
X92142857Y-127058628D02*
X92095238Y-127153866D01*
X92095238Y-127153866D02*
X92095238Y-127344342D01*
X92095238Y-127344342D02*
X92142857Y-127439580D01*
X92142857Y-127439580D02*
X92190476Y-127487200D01*
X92190476Y-127487200D02*
X92285714Y-127534819D01*
X92285714Y-127534819D02*
X92476190Y-127534819D01*
X92476190Y-127534819D02*
X92571428Y-127487200D01*
X92571428Y-127487200D02*
X92619047Y-127439580D01*
X92619047Y-127439580D02*
X92666666Y-127344342D01*
X92666666Y-127344342D02*
X92666666Y-127153866D01*
X92666666Y-127153866D02*
X92619047Y-127058628D01*
X92619047Y-127058628D02*
X92571428Y-127011009D01*
X92571428Y-127011009D02*
X92476190Y-126963390D01*
X146288095Y-124754819D02*
X146859523Y-124754819D01*
X146573809Y-125754819D02*
X146573809Y-124754819D01*
X147192857Y-125754819D02*
X147192857Y-124754819D01*
X147192857Y-124754819D02*
X147573809Y-124754819D01*
X147573809Y-124754819D02*
X147669047Y-124802438D01*
X147669047Y-124802438D02*
X147716666Y-124850057D01*
X147716666Y-124850057D02*
X147764285Y-124945295D01*
X147764285Y-124945295D02*
X147764285Y-125088152D01*
X147764285Y-125088152D02*
X147716666Y-125183390D01*
X147716666Y-125183390D02*
X147669047Y-125231009D01*
X147669047Y-125231009D02*
X147573809Y-125278628D01*
X147573809Y-125278628D02*
X147192857Y-125278628D01*
X148145238Y-124850057D02*
X148192857Y-124802438D01*
X148192857Y-124802438D02*
X148288095Y-124754819D01*
X148288095Y-124754819D02*
X148526190Y-124754819D01*
X148526190Y-124754819D02*
X148621428Y-124802438D01*
X148621428Y-124802438D02*
X148669047Y-124850057D01*
X148669047Y-124850057D02*
X148716666Y-124945295D01*
X148716666Y-124945295D02*
X148716666Y-125040533D01*
X148716666Y-125040533D02*
X148669047Y-125183390D01*
X148669047Y-125183390D02*
X148097619Y-125754819D01*
X148097619Y-125754819D02*
X148716666Y-125754819D01*
X69604819Y-104333333D02*
X70319104Y-104333333D01*
X70319104Y-104333333D02*
X70461961Y-104380952D01*
X70461961Y-104380952D02*
X70557200Y-104476190D01*
X70557200Y-104476190D02*
X70604819Y-104619047D01*
X70604819Y-104619047D02*
X70604819Y-104714285D01*
X69604819Y-103380952D02*
X69604819Y-103857142D01*
X69604819Y-103857142D02*
X70081009Y-103904761D01*
X70081009Y-103904761D02*
X70033390Y-103857142D01*
X70033390Y-103857142D02*
X69985771Y-103761904D01*
X69985771Y-103761904D02*
X69985771Y-103523809D01*
X69985771Y-103523809D02*
X70033390Y-103428571D01*
X70033390Y-103428571D02*
X70081009Y-103380952D01*
X70081009Y-103380952D02*
X70176247Y-103333333D01*
X70176247Y-103333333D02*
X70414342Y-103333333D01*
X70414342Y-103333333D02*
X70509580Y-103380952D01*
X70509580Y-103380952D02*
X70557200Y-103428571D01*
X70557200Y-103428571D02*
X70604819Y-103523809D01*
X70604819Y-103523809D02*
X70604819Y-103761904D01*
X70604819Y-103761904D02*
X70557200Y-103857142D01*
X70557200Y-103857142D02*
X70509580Y-103904761D01*
X89323866Y-110780951D02*
X89323866Y-110019047D01*
X90314700Y-100821428D02*
X90314700Y-99678571D01*
X90886128Y-100249999D02*
X89743271Y-100249999D01*
X150138095Y-110054819D02*
X150138095Y-110864342D01*
X150138095Y-110864342D02*
X150185714Y-110959580D01*
X150185714Y-110959580D02*
X150233333Y-111007200D01*
X150233333Y-111007200D02*
X150328571Y-111054819D01*
X150328571Y-111054819D02*
X150519047Y-111054819D01*
X150519047Y-111054819D02*
X150614285Y-111007200D01*
X150614285Y-111007200D02*
X150661904Y-110959580D01*
X150661904Y-110959580D02*
X150709523Y-110864342D01*
X150709523Y-110864342D02*
X150709523Y-110054819D01*
X151090476Y-110054819D02*
X151709523Y-110054819D01*
X151709523Y-110054819D02*
X151376190Y-110435771D01*
X151376190Y-110435771D02*
X151519047Y-110435771D01*
X151519047Y-110435771D02*
X151614285Y-110483390D01*
X151614285Y-110483390D02*
X151661904Y-110531009D01*
X151661904Y-110531009D02*
X151709523Y-110626247D01*
X151709523Y-110626247D02*
X151709523Y-110864342D01*
X151709523Y-110864342D02*
X151661904Y-110959580D01*
X151661904Y-110959580D02*
X151614285Y-111007200D01*
X151614285Y-111007200D02*
X151519047Y-111054819D01*
X151519047Y-111054819D02*
X151233333Y-111054819D01*
X151233333Y-111054819D02*
X151138095Y-111007200D01*
X151138095Y-111007200D02*
X151090476Y-110959580D01*
X143666666Y-129454819D02*
X143666666Y-130169104D01*
X143666666Y-130169104D02*
X143619047Y-130311961D01*
X143619047Y-130311961D02*
X143523809Y-130407200D01*
X143523809Y-130407200D02*
X143380952Y-130454819D01*
X143380952Y-130454819D02*
X143285714Y-130454819D01*
X144047619Y-129454819D02*
X144714285Y-129454819D01*
X144714285Y-129454819D02*
X144285714Y-130454819D01*
X108911905Y-115054819D02*
X108911905Y-114054819D01*
X108911905Y-114054819D02*
X109150000Y-114054819D01*
X109150000Y-114054819D02*
X109292857Y-114102438D01*
X109292857Y-114102438D02*
X109388095Y-114197676D01*
X109388095Y-114197676D02*
X109435714Y-114292914D01*
X109435714Y-114292914D02*
X109483333Y-114483390D01*
X109483333Y-114483390D02*
X109483333Y-114626247D01*
X109483333Y-114626247D02*
X109435714Y-114816723D01*
X109435714Y-114816723D02*
X109388095Y-114911961D01*
X109388095Y-114911961D02*
X109292857Y-115007200D01*
X109292857Y-115007200D02*
X109150000Y-115054819D01*
X109150000Y-115054819D02*
X108911905Y-115054819D01*
X110340476Y-114388152D02*
X110340476Y-115054819D01*
X110102381Y-114007200D02*
X109864286Y-114721485D01*
X109864286Y-114721485D02*
X110483333Y-114721485D01*
X155188095Y-125854819D02*
X155759523Y-125854819D01*
X155473809Y-126854819D02*
X155473809Y-125854819D01*
X156092857Y-126854819D02*
X156092857Y-125854819D01*
X156092857Y-125854819D02*
X156473809Y-125854819D01*
X156473809Y-125854819D02*
X156569047Y-125902438D01*
X156569047Y-125902438D02*
X156616666Y-125950057D01*
X156616666Y-125950057D02*
X156664285Y-126045295D01*
X156664285Y-126045295D02*
X156664285Y-126188152D01*
X156664285Y-126188152D02*
X156616666Y-126283390D01*
X156616666Y-126283390D02*
X156569047Y-126331009D01*
X156569047Y-126331009D02*
X156473809Y-126378628D01*
X156473809Y-126378628D02*
X156092857Y-126378628D01*
X156997619Y-125854819D02*
X157616666Y-125854819D01*
X157616666Y-125854819D02*
X157283333Y-126235771D01*
X157283333Y-126235771D02*
X157426190Y-126235771D01*
X157426190Y-126235771D02*
X157521428Y-126283390D01*
X157521428Y-126283390D02*
X157569047Y-126331009D01*
X157569047Y-126331009D02*
X157616666Y-126426247D01*
X157616666Y-126426247D02*
X157616666Y-126664342D01*
X157616666Y-126664342D02*
X157569047Y-126759580D01*
X157569047Y-126759580D02*
X157521428Y-126807200D01*
X157521428Y-126807200D02*
X157426190Y-126854819D01*
X157426190Y-126854819D02*
X157140476Y-126854819D01*
X157140476Y-126854819D02*
X157045238Y-126807200D01*
X157045238Y-126807200D02*
X156997619Y-126759580D01*
X121257142Y-121259580D02*
X121209523Y-121307200D01*
X121209523Y-121307200D02*
X121066666Y-121354819D01*
X121066666Y-121354819D02*
X120971428Y-121354819D01*
X120971428Y-121354819D02*
X120828571Y-121307200D01*
X120828571Y-121307200D02*
X120733333Y-121211961D01*
X120733333Y-121211961D02*
X120685714Y-121116723D01*
X120685714Y-121116723D02*
X120638095Y-120926247D01*
X120638095Y-120926247D02*
X120638095Y-120783390D01*
X120638095Y-120783390D02*
X120685714Y-120592914D01*
X120685714Y-120592914D02*
X120733333Y-120497676D01*
X120733333Y-120497676D02*
X120828571Y-120402438D01*
X120828571Y-120402438D02*
X120971428Y-120354819D01*
X120971428Y-120354819D02*
X121066666Y-120354819D01*
X121066666Y-120354819D02*
X121209523Y-120402438D01*
X121209523Y-120402438D02*
X121257142Y-120450057D01*
X121638095Y-120450057D02*
X121685714Y-120402438D01*
X121685714Y-120402438D02*
X121780952Y-120354819D01*
X121780952Y-120354819D02*
X122019047Y-120354819D01*
X122019047Y-120354819D02*
X122114285Y-120402438D01*
X122114285Y-120402438D02*
X122161904Y-120450057D01*
X122161904Y-120450057D02*
X122209523Y-120545295D01*
X122209523Y-120545295D02*
X122209523Y-120640533D01*
X122209523Y-120640533D02*
X122161904Y-120783390D01*
X122161904Y-120783390D02*
X121590476Y-121354819D01*
X121590476Y-121354819D02*
X122209523Y-121354819D01*
X123066666Y-120354819D02*
X122876190Y-120354819D01*
X122876190Y-120354819D02*
X122780952Y-120402438D01*
X122780952Y-120402438D02*
X122733333Y-120450057D01*
X122733333Y-120450057D02*
X122638095Y-120592914D01*
X122638095Y-120592914D02*
X122590476Y-120783390D01*
X122590476Y-120783390D02*
X122590476Y-121164342D01*
X122590476Y-121164342D02*
X122638095Y-121259580D01*
X122638095Y-121259580D02*
X122685714Y-121307200D01*
X122685714Y-121307200D02*
X122780952Y-121354819D01*
X122780952Y-121354819D02*
X122971428Y-121354819D01*
X122971428Y-121354819D02*
X123066666Y-121307200D01*
X123066666Y-121307200D02*
X123114285Y-121259580D01*
X123114285Y-121259580D02*
X123161904Y-121164342D01*
X123161904Y-121164342D02*
X123161904Y-120926247D01*
X123161904Y-120926247D02*
X123114285Y-120831009D01*
X123114285Y-120831009D02*
X123066666Y-120783390D01*
X123066666Y-120783390D02*
X122971428Y-120735771D01*
X122971428Y-120735771D02*
X122780952Y-120735771D01*
X122780952Y-120735771D02*
X122685714Y-120783390D01*
X122685714Y-120783390D02*
X122638095Y-120831009D01*
X122638095Y-120831009D02*
X122590476Y-120926247D01*
D12*
%TO.C,D6*%
X95650000Y-132110000D02*
X95650000Y-131140000D01*
X95650000Y-137360000D02*
X95650000Y-136390000D01*
X97730000Y-134250000D02*
X99760000Y-134250000D01*
X98230000Y-133740000D02*
X98230000Y-134760000D01*
X98230000Y-134760000D02*
X99250000Y-134250000D01*
X99250000Y-133740000D02*
X99250000Y-134760000D01*
X99250000Y-134250000D02*
X98230000Y-133740000D01*
X99250000Y-134250000D02*
X99250000Y-133740000D01*
X100440000Y-137360000D02*
X100440000Y-131140000D01*
X102850000Y-131140000D02*
X95650000Y-131140000D01*
X102850000Y-132110000D02*
X102850000Y-131140000D01*
X102850000Y-137360000D02*
X95650000Y-137360000D01*
X102850000Y-137360000D02*
X102850000Y-136390000D01*
D13*
X95340000Y-137200000D02*
G75*
G02*
X95280000Y-137200000I-30000J0D01*
G01*
X95280000Y-137200000D02*
G75*
G02*
X95340000Y-137200000I30000J0D01*
G01*
D14*
%TO.C,U1*%
X140265000Y-104200000D02*
X140265000Y-102000000D01*
X140265000Y-104200000D02*
X140265000Y-106400000D01*
X148335000Y-104200000D02*
X148335000Y-102000000D01*
X148335000Y-104200000D02*
X148335000Y-106400000D01*
X147875000Y-100340000D02*
X147635000Y-100010000D01*
X148115000Y-100010000D01*
X147875000Y-100340000D01*
G36*
X147875000Y-100340000D02*
G01*
X147635000Y-100010000D01*
X148115000Y-100010000D01*
X147875000Y-100340000D01*
G37*
D12*
%TO.C,D5*%
X106400000Y-132360000D02*
X106400000Y-131390000D01*
X106400000Y-137610000D02*
X106400000Y-136640000D01*
X108480000Y-134500000D02*
X110510000Y-134500000D01*
X108980000Y-133990000D02*
X108980000Y-135010000D01*
X108980000Y-135010000D02*
X110000000Y-134500000D01*
X110000000Y-133990000D02*
X110000000Y-135010000D01*
X110000000Y-134500000D02*
X108980000Y-133990000D01*
X110000000Y-134500000D02*
X110000000Y-133990000D01*
X111190000Y-137610000D02*
X111190000Y-131390000D01*
X113600000Y-131390000D02*
X106400000Y-131390000D01*
X113600000Y-132360000D02*
X113600000Y-131390000D01*
X113600000Y-137610000D02*
X106400000Y-137610000D01*
X113600000Y-137610000D02*
X113600000Y-136640000D01*
D13*
X106090000Y-137450000D02*
G75*
G02*
X106030000Y-137450000I-30000J0D01*
G01*
X106030000Y-137450000D02*
G75*
G02*
X106090000Y-137450000I30000J0D01*
G01*
D14*
%TO.C,L1*%
X102240000Y-100990000D02*
X105790000Y-100990000D01*
X102240000Y-114010000D02*
X102240000Y-100990000D01*
X102240000Y-114010000D02*
X105790000Y-114010000D01*
X115260000Y-100990000D02*
X111710000Y-100990000D01*
X115260000Y-114010000D02*
X111710000Y-114010000D01*
X115260000Y-114010000D02*
X115260000Y-100990000D01*
%TO.C,SW1*%
X127602500Y-130460000D02*
X127602500Y-129077000D01*
X127602500Y-130460000D02*
X128912500Y-130460000D01*
X127842500Y-123400000D02*
X128992500Y-123400000D01*
X127842500Y-130220000D02*
X127842500Y-123400000D01*
X127842500Y-130220000D02*
X128912500Y-130220000D01*
X129317500Y-127413333D02*
X130587500Y-127413333D01*
X130912500Y-123400000D02*
X131532500Y-123400000D01*
X130992500Y-130220000D02*
X131532500Y-130220000D01*
X131857500Y-127413333D02*
X133127500Y-127413333D01*
X133452500Y-123400000D02*
X134072500Y-123400000D01*
X133452500Y-130220000D02*
X134072500Y-130220000D01*
X134397500Y-127413333D02*
X135667500Y-127413333D01*
X135992500Y-123400000D02*
X136612500Y-123400000D01*
X135992500Y-130220000D02*
X136612500Y-130220000D01*
X136937500Y-127413333D02*
X138207500Y-127413333D01*
X138532500Y-123400000D02*
X139682500Y-123400000D01*
X138532500Y-130220000D02*
X139682500Y-130220000D01*
X139682500Y-130220000D02*
X139682500Y-123400000D01*
X129317500Y-128620000D02*
X130587500Y-128620000D01*
X130587500Y-125000000D01*
X129317500Y-125000000D01*
X129317500Y-128620000D01*
X129317500Y-128620000D02*
X130587500Y-128620000D01*
X130587500Y-127413333D01*
X129317500Y-127413333D01*
X129317500Y-128620000D01*
G36*
X129317500Y-128620000D02*
G01*
X130587500Y-128620000D01*
X130587500Y-127413333D01*
X129317500Y-127413333D01*
X129317500Y-128620000D01*
G37*
X131857500Y-128620000D02*
X133127500Y-128620000D01*
X133127500Y-125000000D01*
X131857500Y-125000000D01*
X131857500Y-128620000D01*
X131857500Y-128620000D02*
X133127500Y-128620000D01*
X133127500Y-127413333D01*
X131857500Y-127413333D01*
X131857500Y-128620000D01*
G36*
X131857500Y-128620000D02*
G01*
X133127500Y-128620000D01*
X133127500Y-127413333D01*
X131857500Y-127413333D01*
X131857500Y-128620000D01*
G37*
X134397500Y-128620000D02*
X135667500Y-128620000D01*
X135667500Y-125000000D01*
X134397500Y-125000000D01*
X134397500Y-128620000D01*
X134397500Y-128620000D02*
X135667500Y-128620000D01*
X135667500Y-127413333D01*
X134397500Y-127413333D01*
X134397500Y-128620000D01*
G36*
X134397500Y-128620000D02*
G01*
X135667500Y-128620000D01*
X135667500Y-127413333D01*
X134397500Y-127413333D01*
X134397500Y-128620000D01*
G37*
X136937500Y-128620000D02*
X138207500Y-128620000D01*
X138207500Y-125000000D01*
X136937500Y-125000000D01*
X136937500Y-128620000D01*
X136937500Y-128620000D02*
X138207500Y-128620000D01*
X138207500Y-127413333D01*
X136937500Y-127413333D01*
X136937500Y-128620000D01*
G36*
X136937500Y-128620000D02*
G01*
X138207500Y-128620000D01*
X138207500Y-127413333D01*
X136937500Y-127413333D01*
X136937500Y-128620000D01*
G37*
%TO.C,TP4*%
X161550000Y-109550000D02*
G75*
G02*
X160150000Y-109550000I-700000J0D01*
G01*
X160150000Y-109550000D02*
G75*
G02*
X161550000Y-109550000I700000J0D01*
G01*
%TO.C,C19*%
X95090000Y-124104437D02*
X95090000Y-129860000D01*
X95090000Y-129860000D02*
X97440000Y-129860000D01*
X96154437Y-123040000D02*
X95090000Y-124104437D01*
X96154437Y-123040000D02*
X97440000Y-123040000D01*
X100347500Y-122012500D02*
X100347500Y-122800000D01*
X100741250Y-122406250D02*
X99953750Y-122406250D01*
X100845563Y-123040000D02*
X99560000Y-123040000D01*
X100845563Y-123040000D02*
X101910000Y-124104437D01*
X101910000Y-124104437D02*
X101910000Y-129860000D01*
X101910000Y-129860000D02*
X99560000Y-129860000D01*
%TO.C,C28*%
X119840000Y-104090000D02*
X122190000Y-104090000D01*
X119840000Y-109845563D02*
X119840000Y-104090000D01*
X120904437Y-110910000D02*
X119840000Y-109845563D01*
X120904437Y-110910000D02*
X122190000Y-110910000D01*
X121008750Y-111543750D02*
X121796250Y-111543750D01*
X121402500Y-111937500D02*
X121402500Y-111150000D01*
X125595563Y-110910000D02*
X124310000Y-110910000D01*
X125595563Y-110910000D02*
X126660000Y-109845563D01*
X126660000Y-104090000D02*
X124310000Y-104090000D01*
X126660000Y-109845563D02*
X126660000Y-104090000D01*
%TO.C,TP1*%
X157350000Y-122950000D02*
G75*
G02*
X155950000Y-122950000I-700000J0D01*
G01*
X155950000Y-122950000D02*
G75*
G02*
X157350000Y-122950000I700000J0D01*
G01*
%TO.C,J2*%
X107620000Y-92958272D02*
X108190000Y-92958272D01*
X107620000Y-98158272D02*
X107620000Y-92958272D01*
X107620000Y-98158272D02*
X108190000Y-98158272D01*
X108190000Y-92958272D02*
X108190000Y-91598272D01*
X109710000Y-92958272D02*
X110730000Y-92958272D01*
X109710000Y-98158272D02*
X110730000Y-98158272D01*
X112250000Y-92958272D02*
X113270000Y-92958272D01*
X112250000Y-98158272D02*
X113270000Y-98158272D01*
X114790000Y-92958272D02*
X115810000Y-92958272D01*
X114790000Y-98158272D02*
X115810000Y-98158272D01*
X117330000Y-92958272D02*
X118350000Y-92958272D01*
X117330000Y-98158272D02*
X118350000Y-98158272D01*
X119870000Y-92958272D02*
X120890000Y-92958272D01*
X119870000Y-98158272D02*
X120890000Y-98158272D01*
X122410000Y-92958272D02*
X123430000Y-92958272D01*
X122410000Y-98158272D02*
X123430000Y-98158272D01*
X124950000Y-92958272D02*
X125970000Y-92958272D01*
X124950000Y-98158272D02*
X125970000Y-98158272D01*
X127490000Y-92958272D02*
X128510000Y-92958272D01*
X127490000Y-98158272D02*
X128510000Y-98158272D01*
X130030000Y-92958272D02*
X131050000Y-92958272D01*
X130030000Y-98158272D02*
X131050000Y-98158272D01*
X132570000Y-92958272D02*
X133590000Y-92958272D01*
X132570000Y-98158272D02*
X133590000Y-98158272D01*
X135110000Y-92958272D02*
X136130000Y-92958272D01*
X135110000Y-98158272D02*
X136130000Y-98158272D01*
X137650000Y-92958272D02*
X138670000Y-92958272D01*
X137650000Y-98158272D02*
X138670000Y-98158272D01*
X140190000Y-92958272D02*
X141210000Y-92958272D01*
X140190000Y-98158272D02*
X141210000Y-98158272D01*
X142730000Y-92958272D02*
X143750000Y-92958272D01*
X142730000Y-98158272D02*
X143750000Y-98158272D01*
X145270000Y-92958272D02*
X146290000Y-92958272D01*
X145270000Y-98158272D02*
X146290000Y-98158272D01*
X147810000Y-92958272D02*
X148380000Y-92958272D01*
X147810000Y-98158272D02*
X148380000Y-98158272D01*
X148380000Y-98158272D02*
X148380000Y-92958272D01*
%TO.C,JP3*%
X127335000Y-109800000D02*
X130135000Y-109800000D01*
X127335000Y-111800000D02*
X127335000Y-109800000D01*
X130135000Y-109800000D02*
X130135000Y-111800000D01*
X130135000Y-111800000D02*
X127335000Y-111800000D01*
%TO.C,TP7*%
X139300000Y-115700000D02*
G75*
G02*
X137900000Y-115700000I-700000J0D01*
G01*
X137900000Y-115700000D02*
G75*
G02*
X139300000Y-115700000I700000J0D01*
G01*
%TO.C,C25*%
X123440000Y-114454437D02*
X123440000Y-120210000D01*
X123440000Y-120210000D02*
X125790000Y-120210000D01*
X124504437Y-113390000D02*
X123440000Y-114454437D01*
X124504437Y-113390000D02*
X125790000Y-113390000D01*
X128697500Y-112362500D02*
X128697500Y-113150000D01*
X129091250Y-112756250D02*
X128303750Y-112756250D01*
X129195563Y-113390000D02*
X127910000Y-113390000D01*
X129195563Y-113390000D02*
X130260000Y-114454437D01*
X130260000Y-114454437D02*
X130260000Y-120210000D01*
X130260000Y-120210000D02*
X127910000Y-120210000D01*
%TO.C,J3*%
X149790000Y-101380000D02*
X149790000Y-100000000D01*
X151170000Y-101380000D02*
X149790000Y-101380000D01*
X152440000Y-98620000D02*
X160170000Y-98620000D01*
X152440000Y-101380000D02*
X152440000Y-98620000D01*
X152440000Y-101380000D02*
X160170000Y-101380000D01*
X160170000Y-101380000D02*
X160170000Y-98620000D01*
%TO.C,TP6*%
X146700000Y-111700000D02*
G75*
G02*
X145300000Y-111700000I-700000J0D01*
G01*
X145300000Y-111700000D02*
G75*
G02*
X146700000Y-111700000I700000J0D01*
G01*
D11*
%TO.C,U2*%
X164090000Y-98250000D02*
X164090000Y-98340000D01*
X164090000Y-98250000D02*
X167910000Y-98250000D01*
X164090000Y-103250000D02*
X164090000Y-103160000D01*
X167910000Y-98250000D02*
X167910000Y-98340000D01*
X167910000Y-103250000D02*
X164090000Y-103250000D01*
X167910000Y-103250000D02*
X167910000Y-103160000D01*
X168280000Y-103250000D02*
G75*
G02*
X168220000Y-103250000I-30000J0D01*
G01*
X168220000Y-103250000D02*
G75*
G02*
X168280000Y-103250000I30000J0D01*
G01*
D12*
%TO.C,D2*%
X91400000Y-92860000D02*
X91400000Y-91890000D01*
X91400000Y-98110000D02*
X91400000Y-97140000D01*
X93480000Y-95000000D02*
X95510000Y-95000000D01*
X93980000Y-94490000D02*
X93980000Y-95510000D01*
X93980000Y-95510000D02*
X95000000Y-95000000D01*
X95000000Y-94490000D02*
X95000000Y-95510000D01*
X95000000Y-95000000D02*
X93980000Y-94490000D01*
X95000000Y-95000000D02*
X95000000Y-94490000D01*
X96190000Y-98110000D02*
X96190000Y-91890000D01*
X98600000Y-91890000D02*
X91400000Y-91890000D01*
X98600000Y-92860000D02*
X98600000Y-91890000D01*
X98600000Y-98110000D02*
X91400000Y-98110000D01*
X98600000Y-98110000D02*
X98600000Y-97140000D01*
D13*
X91090000Y-97950000D02*
G75*
G02*
X91030000Y-97950000I-30000J0D01*
G01*
X91030000Y-97950000D02*
G75*
G02*
X91090000Y-97950000I30000J0D01*
G01*
D14*
%TO.C,TP8*%
X119400000Y-108400000D02*
G75*
G02*
X118000000Y-108400000I-700000J0D01*
G01*
X118000000Y-108400000D02*
G75*
G02*
X119400000Y-108400000I700000J0D01*
G01*
%TO.C,JP1*%
X127300000Y-104700000D02*
X130100000Y-104700000D01*
X127300000Y-106700000D02*
X127300000Y-104700000D01*
X130100000Y-104700000D02*
X130100000Y-106700000D01*
X130100000Y-106700000D02*
X127300000Y-106700000D01*
%TO.C,C12*%
X130590000Y-113904437D02*
X130590000Y-119660000D01*
X130590000Y-119660000D02*
X132940000Y-119660000D01*
X131654437Y-112840000D02*
X130590000Y-113904437D01*
X131654437Y-112840000D02*
X132940000Y-112840000D01*
X135847500Y-111812500D02*
X135847500Y-112600000D01*
X136241250Y-112206250D02*
X135453750Y-112206250D01*
X136345563Y-112840000D02*
X135060000Y-112840000D01*
X136345563Y-112840000D02*
X137410000Y-113904437D01*
X137410000Y-113904437D02*
X137410000Y-119660000D01*
X137410000Y-119660000D02*
X135060000Y-119660000D01*
%TO.C,JP2*%
X127300000Y-107230000D02*
X130100000Y-107230000D01*
X127300000Y-109230000D02*
X127300000Y-107230000D01*
X130100000Y-107230000D02*
X130100000Y-109230000D01*
X130100000Y-109230000D02*
X127300000Y-109230000D01*
%TO.C,C27*%
X102340000Y-124104437D02*
X102340000Y-129860000D01*
X102340000Y-129860000D02*
X104690000Y-129860000D01*
X103404437Y-123040000D02*
X102340000Y-124104437D01*
X103404437Y-123040000D02*
X104690000Y-123040000D01*
X107597500Y-122012500D02*
X107597500Y-122800000D01*
X107991250Y-122406250D02*
X107203750Y-122406250D01*
X108095563Y-123040000D02*
X106810000Y-123040000D01*
X108095563Y-123040000D02*
X109160000Y-124104437D01*
X109160000Y-124104437D02*
X109160000Y-129860000D01*
X109160000Y-129860000D02*
X106810000Y-129860000D01*
%TO.C,C17*%
X109590000Y-124304437D02*
X109590000Y-130060000D01*
X109590000Y-130060000D02*
X111940000Y-130060000D01*
X110654437Y-123240000D02*
X109590000Y-124304437D01*
X110654437Y-123240000D02*
X111940000Y-123240000D01*
X114847500Y-122212500D02*
X114847500Y-123000000D01*
X115241250Y-122606250D02*
X114453750Y-122606250D01*
X115345563Y-123240000D02*
X114060000Y-123240000D01*
X115345563Y-123240000D02*
X116410000Y-124304437D01*
X116410000Y-124304437D02*
X116410000Y-130060000D01*
X116410000Y-130060000D02*
X114060000Y-130060000D01*
%TO.C,TP5*%
X156100000Y-112050000D02*
G75*
G02*
X154700000Y-112050000I-700000J0D01*
G01*
X154700000Y-112050000D02*
G75*
G02*
X156100000Y-112050000I700000J0D01*
G01*
%TO.C,RV1*%
D10*
X167795000Y-115710000D02*
X177795000Y-115710000D01*
X177795000Y-106210000D01*
X167795000Y-106210000D01*
X167795000Y-115710000D01*
X177795000Y-107960000D02*
X179295000Y-107960000D01*
X179295000Y-106460000D01*
X177795000Y-106460000D01*
X177795000Y-107960000D01*
D14*
%TO.C,U5*%
X90650000Y-110585000D02*
X90650000Y-111950000D01*
X90650000Y-111950000D02*
X91600000Y-111950000D01*
X101050000Y-110585000D02*
X101050000Y-111950000D01*
X101050000Y-111950000D02*
X100100000Y-111950000D01*
X91640000Y-114775000D02*
X91170000Y-115115000D01*
X91170000Y-114435000D01*
X91640000Y-114775000D01*
G36*
X91640000Y-114775000D02*
G01*
X91170000Y-115115000D01*
X91170000Y-114435000D01*
X91640000Y-114775000D01*
G37*
%TO.C,C14*%
X167012500Y-117852500D02*
X167800000Y-117852500D01*
X167406250Y-117458750D02*
X167406250Y-118246250D01*
X168040000Y-117354437D02*
X168040000Y-118640000D01*
X168040000Y-117354437D02*
X169104437Y-116290000D01*
X168040000Y-122045563D02*
X168040000Y-120760000D01*
X168040000Y-122045563D02*
X169104437Y-123110000D01*
X169104437Y-116290000D02*
X174860000Y-116290000D01*
X169104437Y-123110000D02*
X174860000Y-123110000D01*
X174860000Y-116290000D02*
X174860000Y-118640000D01*
X174860000Y-123110000D02*
X174860000Y-120760000D01*
%TO.C,J6*%
X158440000Y-131340000D02*
X159860000Y-131340000D01*
X158440000Y-143060000D02*
X158440000Y-131340000D01*
X159860000Y-131340000D02*
X159860000Y-135840000D01*
X160700000Y-133250000D02*
X161300000Y-133250000D01*
X160750000Y-136950000D02*
X160750000Y-142450000D01*
X160750000Y-142450000D02*
X161250000Y-142450000D01*
X161000000Y-133850000D02*
X160700000Y-133250000D01*
X161250000Y-136950000D02*
X160750000Y-136950000D01*
X161250000Y-142450000D02*
X161250000Y-136950000D01*
X161300000Y-133250000D02*
X161000000Y-133850000D01*
X163250000Y-136950000D02*
X163250000Y-142450000D01*
X163250000Y-142450000D02*
X163750000Y-142450000D01*
X163500000Y-143060000D02*
X158440000Y-143060000D01*
X163500000Y-143060000D02*
X168560000Y-143060000D01*
X163750000Y-136950000D02*
X163250000Y-136950000D01*
X163750000Y-142450000D02*
X163750000Y-136950000D01*
X165750000Y-136950000D02*
X165750000Y-142450000D01*
X165750000Y-142450000D02*
X166250000Y-142450000D01*
X166250000Y-136950000D02*
X165750000Y-136950000D01*
X166250000Y-142450000D02*
X166250000Y-136950000D01*
X167140000Y-131340000D02*
X167140000Y-135840000D01*
X168560000Y-131340000D02*
X167140000Y-131340000D01*
X168560000Y-143060000D02*
X168560000Y-131340000D01*
%TO.C,J4*%
X70190000Y-113140000D02*
X84500000Y-113140000D01*
X70190000Y-128860000D02*
X70190000Y-113140000D01*
X70190000Y-128860000D02*
X84500000Y-128860000D01*
X88610000Y-122290000D02*
X88610000Y-118550000D01*
X84500000Y-113140000D02*
G75*
G02*
X88430413Y-116048352I0J-4110000D01*
G01*
X88022958Y-126866806D02*
G75*
G02*
X84500000Y-128860000I-3522957J2116805D01*
G01*
%TO.C,C15*%
X166762500Y-125102500D02*
X167550000Y-125102500D01*
X167156250Y-124708750D02*
X167156250Y-125496250D01*
X167790000Y-124604437D02*
X167790000Y-125890000D01*
X167790000Y-124604437D02*
X168854437Y-123540000D01*
X167790000Y-129295563D02*
X167790000Y-128010000D01*
X167790000Y-129295563D02*
X168854437Y-130360000D01*
X168854437Y-123540000D02*
X174610000Y-123540000D01*
X168854437Y-130360000D02*
X174610000Y-130360000D01*
X174610000Y-123540000D02*
X174610000Y-125890000D01*
X174610000Y-130360000D02*
X174610000Y-128010000D01*
D12*
%TO.C,D8*%
X117150000Y-132360000D02*
X117150000Y-131390000D01*
X117150000Y-137610000D02*
X117150000Y-136640000D01*
X119230000Y-134500000D02*
X121260000Y-134500000D01*
X119730000Y-133990000D02*
X119730000Y-135010000D01*
X119730000Y-135010000D02*
X120750000Y-134500000D01*
X120750000Y-133990000D02*
X120750000Y-135010000D01*
X120750000Y-134500000D02*
X119730000Y-133990000D01*
X120750000Y-134500000D02*
X120750000Y-133990000D01*
X121940000Y-137610000D02*
X121940000Y-131390000D01*
X124350000Y-131390000D02*
X117150000Y-131390000D01*
X124350000Y-132360000D02*
X124350000Y-131390000D01*
X124350000Y-137610000D02*
X117150000Y-137610000D01*
X124350000Y-137610000D02*
X124350000Y-136640000D01*
D13*
X116840000Y-137450000D02*
G75*
G02*
X116780000Y-137450000I-30000J0D01*
G01*
X116780000Y-137450000D02*
G75*
G02*
X116840000Y-137450000I30000J0D01*
G01*
D14*
%TO.C,J8*%
X90620000Y-128080000D02*
X92000000Y-128080000D01*
X90620000Y-129460000D02*
X90620000Y-128080000D01*
X90620000Y-130730000D02*
X90620000Y-135920000D01*
X90620000Y-130730000D02*
X93380000Y-130730000D01*
X90620000Y-135920000D02*
X93380000Y-135920000D01*
X93380000Y-130730000D02*
X93380000Y-135920000D01*
%TO.C,TP2*%
X150700000Y-124850000D02*
G75*
G02*
X149300000Y-124850000I-700000J0D01*
G01*
X149300000Y-124850000D02*
G75*
G02*
X150700000Y-124850000I700000J0D01*
G01*
%TO.C,J5*%
X71190000Y-96990000D02*
X78890000Y-96990000D01*
X71190000Y-111010000D02*
X71190000Y-96990000D01*
X71190000Y-111010000D02*
X78890000Y-111010000D01*
X78890000Y-96140000D02*
X84500000Y-96140000D01*
X78890000Y-96990000D02*
X78890000Y-96140000D01*
X78890000Y-111860000D02*
X78890000Y-111010000D01*
X78890000Y-111860000D02*
X84500000Y-111860000D01*
X88610000Y-106450000D02*
X88610000Y-102710000D01*
X84500000Y-96140000D02*
G75*
G02*
X88022958Y-98133194I0J-4110000D01*
G01*
X88458718Y-108989900D02*
G75*
G02*
X84500000Y-111860000I-3918716J1239898D01*
G01*
%TO.C,U3*%
X147015000Y-113015000D02*
X147465000Y-113015000D01*
X147015000Y-113465000D02*
X147015000Y-113015000D01*
X147015000Y-119785000D02*
X147015000Y-120235000D01*
X147015000Y-120235000D02*
X147465000Y-120235000D01*
X154235000Y-113015000D02*
X153785000Y-113015000D01*
X154235000Y-113465000D02*
X154235000Y-113015000D01*
X154235000Y-119785000D02*
X154235000Y-120235000D01*
X154235000Y-120235000D02*
X153785000Y-120235000D01*
X154255000Y-112765000D02*
X153785000Y-112425000D01*
X154255000Y-112085000D01*
X154255000Y-112765000D01*
G36*
X154255000Y-112765000D02*
G01*
X153785000Y-112425000D01*
X154255000Y-112085000D01*
X154255000Y-112765000D01*
G37*
D11*
%TO.C,D7*%
X174603662Y-100627037D02*
X174603662Y-102917037D01*
X174603662Y-102917037D02*
X176063662Y-102917037D01*
X176063662Y-102917037D02*
X176063662Y-100627037D01*
D14*
%TO.C,J7*%
X143940000Y-131245000D02*
X145360000Y-131245000D01*
X143940000Y-142965000D02*
X143940000Y-131245000D01*
X145360000Y-131245000D02*
X145360000Y-135745000D01*
X145360000Y-135745000D02*
X150250000Y-135745000D01*
X146200000Y-131555000D02*
X146800000Y-131555000D01*
X146250000Y-136855000D02*
X146250000Y-142355000D01*
X146250000Y-142355000D02*
X146750000Y-142355000D01*
X146500000Y-132155000D02*
X146200000Y-131555000D01*
X146750000Y-136855000D02*
X146250000Y-136855000D01*
X146750000Y-142355000D02*
X146750000Y-136855000D01*
X146800000Y-131555000D02*
X146500000Y-132155000D01*
X148750000Y-136855000D02*
X148750000Y-142355000D01*
X148750000Y-142355000D02*
X149250000Y-142355000D01*
X149250000Y-136855000D02*
X148750000Y-136855000D01*
X149250000Y-142355000D02*
X149250000Y-136855000D01*
X150250000Y-142965000D02*
X143940000Y-142965000D01*
X150250000Y-142965000D02*
X156560000Y-142965000D01*
X151250000Y-136855000D02*
X151250000Y-142355000D01*
X151250000Y-142355000D02*
X151750000Y-142355000D01*
X151750000Y-136855000D02*
X151250000Y-136855000D01*
X151750000Y-142355000D02*
X151750000Y-136855000D01*
X153750000Y-136855000D02*
X153750000Y-142355000D01*
X153750000Y-142355000D02*
X154250000Y-142355000D01*
X154250000Y-136855000D02*
X153750000Y-136855000D01*
X154250000Y-142355000D02*
X154250000Y-136855000D01*
X155140000Y-131245000D02*
X155140000Y-135745000D01*
X155140000Y-135745000D02*
X150250000Y-135745000D01*
X156560000Y-131245000D02*
X155140000Y-131245000D01*
X156560000Y-142965000D02*
X156560000Y-131245000D01*
D12*
%TO.C,D4*%
X106050000Y-115490000D02*
X106050000Y-116460000D01*
X106050000Y-115490000D02*
X113250000Y-115490000D01*
X106050000Y-120740000D02*
X106050000Y-121710000D01*
X106050000Y-121710000D02*
X113250000Y-121710000D01*
X108460000Y-115490000D02*
X108460000Y-121710000D01*
X109650000Y-118600000D02*
X109650000Y-119110000D01*
X109650000Y-118600000D02*
X110670000Y-119110000D01*
X109650000Y-119110000D02*
X109650000Y-118090000D01*
X110670000Y-118090000D02*
X109650000Y-118600000D01*
X110670000Y-119110000D02*
X110670000Y-118090000D01*
X111170000Y-118600000D02*
X109140000Y-118600000D01*
X113250000Y-115490000D02*
X113250000Y-116460000D01*
X113250000Y-120740000D02*
X113250000Y-121710000D01*
D13*
X113620000Y-115650000D02*
G75*
G02*
X113560000Y-115650000I-30000J0D01*
G01*
X113560000Y-115650000D02*
G75*
G02*
X113620000Y-115650000I30000J0D01*
G01*
D11*
%TO.C,U4*%
X160293758Y-90994225D02*
X163233758Y-90994225D01*
X160293758Y-97654225D02*
X160293758Y-90994225D01*
X163233758Y-90994225D02*
X163233758Y-97654225D01*
X163233758Y-97654225D02*
X160293758Y-97654225D01*
X163643758Y-97324225D02*
G75*
G02*
X163583758Y-97324225I-30000J0D01*
G01*
X163583758Y-97324225D02*
G75*
G02*
X163643758Y-97324225I30000J0D01*
G01*
D14*
%TO.C,TP3*%
X154550000Y-126400000D02*
G75*
G02*
X153150000Y-126400000I-700000J0D01*
G01*
X153150000Y-126400000D02*
G75*
G02*
X154550000Y-126400000I700000J0D01*
G01*
%TO.C,C26*%
X116090000Y-113904437D02*
X116090000Y-119660000D01*
X116090000Y-119660000D02*
X118440000Y-119660000D01*
X117154437Y-112840000D02*
X116090000Y-113904437D01*
X117154437Y-112840000D02*
X118440000Y-112840000D01*
X121347500Y-111812500D02*
X121347500Y-112600000D01*
X121741250Y-112206250D02*
X120953750Y-112206250D01*
X121845563Y-112840000D02*
X120560000Y-112840000D01*
X121845563Y-112840000D02*
X122910000Y-113904437D01*
X122910000Y-113904437D02*
X122910000Y-119660000D01*
X122910000Y-119660000D02*
X120560000Y-119660000D01*
D11*
%TO.C,D3*%
X142485000Y-108225000D02*
X136675000Y-108225000D01*
X142485000Y-112525000D02*
X136675000Y-112525000D01*
X142485000Y-112525000D02*
X142485000Y-108225000D01*
%TD*%
%LPC*%
%TO.C,JP3*%
G36*
X127510000Y-110050000D02*
G01*
X129960000Y-110050000D01*
X129960000Y-111550000D01*
X127510000Y-111550000D01*
X127510000Y-110050000D01*
G37*
%TO.C,JP1*%
G36*
X127475000Y-104950000D02*
G01*
X129925000Y-104950000D01*
X129925000Y-106450000D01*
X127475000Y-106450000D01*
X127475000Y-104950000D01*
G37*
%TO.C,JP2*%
G36*
X127475000Y-107480000D02*
G01*
X129925000Y-107480000D01*
X129925000Y-108980000D01*
X127475000Y-108980000D01*
X127475000Y-107480000D01*
G37*
%TD*%
D15*
%TO.C,D6*%
X102680000Y-134250000D03*
X95820000Y-134250000D03*
%TD*%
D16*
%TO.C,R8*%
X130800000Y-104600000D03*
X130800000Y-103600000D03*
%TD*%
D17*
%TO.C,U1*%
X147875000Y-101337500D03*
X147225000Y-101337500D03*
X146575000Y-101337500D03*
X145925000Y-101337500D03*
X145275000Y-101337500D03*
X144625000Y-101337500D03*
X143975000Y-101337500D03*
X143325000Y-101337500D03*
X142675000Y-101337500D03*
X142025000Y-101337500D03*
X141375000Y-101337500D03*
X140725000Y-101337500D03*
X140725000Y-107062500D03*
X141375000Y-107062500D03*
X142025000Y-107062500D03*
X142675000Y-107062500D03*
X143325000Y-107062500D03*
X143975000Y-107062500D03*
X144625000Y-107062500D03*
X145275000Y-107062500D03*
X145925000Y-107062500D03*
X146575000Y-107062500D03*
X147225000Y-107062500D03*
X147875000Y-107062500D03*
%TD*%
D18*
%TO.C,R19*%
X156600000Y-96000000D03*
X156600000Y-97000000D03*
%TD*%
D15*
%TO.C,D5*%
X113430000Y-134500000D03*
X106570000Y-134500000D03*
%TD*%
D19*
%TO.C,R24*%
X153900000Y-108800000D03*
X154900000Y-108800000D03*
%TD*%
D20*
%TO.C,C6*%
X152620000Y-122400000D03*
X154180000Y-122400000D03*
%TD*%
D21*
%TO.C,L1*%
X108750000Y-112450000D03*
X108750000Y-102550000D03*
%TD*%
D22*
%TO.C,SW1*%
X129952500Y-130620000D03*
D23*
X132492500Y-130620000D03*
X135032500Y-130620000D03*
X137572500Y-130620000D03*
X137572500Y-123000000D03*
X135032500Y-123000000D03*
X132492500Y-123000000D03*
X129952500Y-123000000D03*
%TD*%
D24*
%TO.C,H1*%
X82000000Y-92000000D03*
D25*
X82000000Y-92000000D03*
%TD*%
D26*
%TO.C,TP4*%
X160850000Y-109550000D03*
%TD*%
D27*
%TO.C,R4*%
X151880000Y-124200000D03*
X154800000Y-124200000D03*
%TD*%
D19*
%TO.C,R9*%
X135300000Y-102050000D03*
X136300000Y-102050000D03*
%TD*%
%TO.C,R10*%
X93250000Y-119750000D03*
X94250000Y-119750000D03*
%TD*%
D28*
%TO.C,C19*%
X98500000Y-123750000D03*
X98500000Y-129150000D03*
%TD*%
D29*
%TO.C,C28*%
X123250000Y-110200000D03*
X123250000Y-104800000D03*
%TD*%
D16*
%TO.C,R12*%
X128000000Y-134500000D03*
X128000000Y-133500000D03*
%TD*%
D18*
%TO.C,R2*%
X155700000Y-103200000D03*
X155700000Y-104200000D03*
%TD*%
D30*
%TO.C,R6*%
X157800000Y-112360000D03*
X157800000Y-109440000D03*
%TD*%
D26*
%TO.C,TP1*%
X156650000Y-122950000D03*
%TD*%
D31*
%TO.C,R21*%
X152200000Y-97700000D03*
X151200000Y-97700000D03*
%TD*%
D20*
%TO.C,C20*%
X92720000Y-118750000D03*
X94280000Y-118750000D03*
%TD*%
D18*
%TO.C,R23*%
X157800000Y-96600000D03*
X157800000Y-97600000D03*
%TD*%
D32*
%TO.C,J2*%
X108950000Y-93038272D03*
X108950000Y-98078272D03*
X111490000Y-93038272D03*
X111490000Y-98078272D03*
X114030000Y-93038272D03*
X114030000Y-98078272D03*
X116570000Y-93038272D03*
X116570000Y-98078272D03*
X119110000Y-93038272D03*
X119110000Y-98078272D03*
X121650000Y-93038272D03*
X121650000Y-98078272D03*
X124190000Y-93038272D03*
X124190000Y-98078272D03*
X126730000Y-93038272D03*
X126730000Y-98078272D03*
X129270000Y-93038272D03*
X129270000Y-98078272D03*
X131810000Y-93038272D03*
X131810000Y-98078272D03*
X134350000Y-93038272D03*
X134350000Y-98078272D03*
X136890000Y-93038272D03*
X136890000Y-98078272D03*
X139430000Y-93038272D03*
X139430000Y-98078272D03*
X141970000Y-93038272D03*
X141970000Y-98078272D03*
X144510000Y-93038272D03*
X144510000Y-98078272D03*
X147050000Y-93038272D03*
X147050000Y-98078272D03*
%TD*%
D33*
%TO.C,JP3*%
X128010000Y-110800000D03*
D34*
X129460000Y-110800000D03*
%TD*%
D26*
%TO.C,TP7*%
X138600000Y-115700000D03*
%TD*%
D19*
%TO.C,R22*%
X153900000Y-107900000D03*
X154900000Y-107900000D03*
%TD*%
D28*
%TO.C,C25*%
X126850000Y-114100000D03*
X126850000Y-119500000D03*
%TD*%
D16*
%TO.C,R18*%
X116000000Y-106500000D03*
X116000000Y-105500000D03*
%TD*%
D35*
%TO.C,H8*%
X169700000Y-90300000D03*
%TD*%
D36*
%TO.C,J3*%
X151170000Y-100000000D03*
D37*
X153710000Y-100000000D03*
X156250000Y-100000000D03*
X158790000Y-100000000D03*
%TD*%
D26*
%TO.C,TP6*%
X146000000Y-111700000D03*
%TD*%
D20*
%TO.C,C21*%
X95720000Y-118750000D03*
X97280000Y-118750000D03*
%TD*%
D35*
%TO.C,H7*%
X88000000Y-136828427D03*
%TD*%
D38*
%TO.C,U2*%
X168710000Y-102660000D03*
X168710000Y-101390000D03*
X168710000Y-100110000D03*
X168710000Y-98840000D03*
X163290000Y-98840000D03*
X163290000Y-100110000D03*
X163290000Y-101390000D03*
X163290000Y-102660000D03*
%TD*%
D39*
%TO.C,C3*%
X148875000Y-110567500D03*
X148875000Y-109007500D03*
%TD*%
D30*
%TO.C,R7*%
X143750000Y-112860000D03*
X143750000Y-109940000D03*
%TD*%
D18*
%TO.C,R25*%
X154600000Y-104500000D03*
X154600000Y-105500000D03*
%TD*%
D15*
%TO.C,D2*%
X98430000Y-95000000D03*
X91570000Y-95000000D03*
%TD*%
D26*
%TO.C,TP8*%
X118700000Y-108400000D03*
%TD*%
D33*
%TO.C,JP1*%
X127975000Y-105700000D03*
D34*
X129425000Y-105700000D03*
%TD*%
D28*
%TO.C,C12*%
X134000000Y-113550000D03*
X134000000Y-118950000D03*
%TD*%
D33*
%TO.C,JP2*%
X127975000Y-108230000D03*
D34*
X129425000Y-108230000D03*
%TD*%
D40*
%TO.C,H6*%
X153000000Y-94000000D03*
%TD*%
D16*
%TO.C,R26*%
X173600000Y-101600000D03*
X173600000Y-100600000D03*
%TD*%
D20*
%TO.C,C5*%
X154620000Y-121180000D03*
X156180000Y-121180000D03*
%TD*%
D18*
%TO.C,R5*%
X160700000Y-106850000D03*
X160700000Y-107850000D03*
%TD*%
D28*
%TO.C,C27*%
X105750000Y-123750000D03*
X105750000Y-129150000D03*
%TD*%
D41*
%TO.C,C2*%
X161450000Y-102670000D03*
X161450000Y-104230000D03*
%TD*%
D28*
%TO.C,C17*%
X113000000Y-123950000D03*
X113000000Y-129350000D03*
%TD*%
D31*
%TO.C,R1*%
X154200000Y-110600000D03*
X153200000Y-110600000D03*
%TD*%
D41*
%TO.C,C7*%
X156600000Y-118020000D03*
X156600000Y-119580000D03*
%TD*%
D40*
%TO.C,H5*%
X103000000Y-94000000D03*
%TD*%
D26*
%TO.C,TP5*%
X155400000Y-112050000D03*
%TD*%
D42*
%TO.C,RV1*%
X165295000Y-108460000D03*
X165295000Y-111000000D03*
X165295000Y-113540000D03*
%TD*%
D40*
%TO.C,H2*%
X174000000Y-134000000D03*
%TD*%
D43*
%TO.C,U5*%
X92450000Y-114775000D03*
X94150000Y-114775000D03*
X95850000Y-114775000D03*
D44*
X95850000Y-105625000D03*
D43*
X97550000Y-114775000D03*
X99250000Y-114775000D03*
%TD*%
D31*
%TO.C,R16*%
X126500000Y-127750000D03*
X125500000Y-127750000D03*
%TD*%
D39*
%TO.C,C24*%
X117000000Y-106280000D03*
X117000000Y-104720000D03*
%TD*%
D45*
%TO.C,C14*%
X168750000Y-119700000D03*
X174150000Y-119700000D03*
%TD*%
D39*
%TO.C,C1*%
X149050000Y-106980000D03*
X149050000Y-105420000D03*
%TD*%
D40*
%TO.C,H4*%
X174000000Y-92000000D03*
%TD*%
D46*
%TO.C,C22*%
X126780000Y-130500000D03*
X125220000Y-130500000D03*
%TD*%
D47*
%TO.C,J6*%
X161000000Y-135350000D03*
D48*
X163500000Y-135350000D03*
X166000000Y-135350000D03*
%TD*%
D49*
%TO.C,J4*%
X80650000Y-127750000D03*
X80650000Y-114250000D03*
D50*
X86650000Y-124600000D03*
D51*
X86650000Y-117400000D03*
%TD*%
D45*
%TO.C,C15*%
X168500000Y-126950000D03*
X173900000Y-126950000D03*
%TD*%
D52*
%TO.C,C11*%
X135570000Y-104800000D03*
X138530000Y-104800000D03*
%TD*%
D39*
%TO.C,C23*%
X117000000Y-109250000D03*
X117000000Y-107690000D03*
%TD*%
D15*
%TO.C,D8*%
X124180000Y-134500000D03*
X117320000Y-134500000D03*
%TD*%
D36*
%TO.C,J8*%
X92000000Y-129460000D03*
D37*
X92000000Y-132000000D03*
X92000000Y-134540000D03*
%TD*%
D26*
%TO.C,TP2*%
X150000000Y-124850000D03*
%TD*%
D49*
%TO.C,J5*%
X80650000Y-110750000D03*
X80650000Y-97250000D03*
D50*
X86650000Y-100400000D03*
D51*
X86650000Y-107600000D03*
%TD*%
D46*
%TO.C,C18*%
X157780000Y-91800000D03*
X156220000Y-91800000D03*
%TD*%
D31*
%TO.C,R13*%
X126500000Y-129000000D03*
X125500000Y-129000000D03*
%TD*%
D19*
%TO.C,R11*%
X95750000Y-119750000D03*
X96750000Y-119750000D03*
%TD*%
D53*
%TO.C,U3*%
X153375000Y-112462500D03*
X152875000Y-112462500D03*
X152375000Y-112462500D03*
X151875000Y-112462500D03*
X151375000Y-112462500D03*
X150875000Y-112462500D03*
X150375000Y-112462500D03*
X149875000Y-112462500D03*
X149375000Y-112462500D03*
X148875000Y-112462500D03*
X148375000Y-112462500D03*
X147875000Y-112462500D03*
D54*
X146462500Y-113875000D03*
X146462500Y-114375000D03*
X146462500Y-114875000D03*
X146462500Y-115375000D03*
X146462500Y-115875000D03*
X146462500Y-116375000D03*
X146462500Y-116875000D03*
X146462500Y-117375000D03*
X146462500Y-117875000D03*
X146462500Y-118375000D03*
X146462500Y-118875000D03*
X146462500Y-119375000D03*
D53*
X147875000Y-120787500D03*
X148375000Y-120787500D03*
X148875000Y-120787500D03*
X149375000Y-120787500D03*
X149875000Y-120787500D03*
X150375000Y-120787500D03*
X150875000Y-120787500D03*
X151375000Y-120787500D03*
X151875000Y-120787500D03*
X152375000Y-120787500D03*
X152875000Y-120787500D03*
X153375000Y-120787500D03*
D54*
X154787500Y-119375000D03*
X154787500Y-118875000D03*
X154787500Y-118375000D03*
X154787500Y-117875000D03*
X154787500Y-117375000D03*
X154787500Y-116875000D03*
X154787500Y-116375000D03*
X154787500Y-115875000D03*
X154787500Y-115375000D03*
X154787500Y-114875000D03*
X154787500Y-114375000D03*
X154787500Y-113875000D03*
D55*
X150625000Y-116625000D03*
%TD*%
D35*
%TO.C,H9*%
X85337849Y-89057177D03*
%TD*%
D18*
%TO.C,R20*%
X149900000Y-96300000D03*
X149900000Y-97300000D03*
%TD*%
D56*
%TO.C,C10*%
X133600000Y-106680000D03*
X133600000Y-103720000D03*
%TD*%
D41*
%TO.C,C16*%
X167030000Y-91520000D03*
X167030000Y-93080000D03*
%TD*%
D31*
%TO.C,R14*%
X126500000Y-124750000D03*
X125500000Y-124750000D03*
%TD*%
D41*
%TO.C,C4*%
X151700000Y-125970000D03*
X151700000Y-127530000D03*
%TD*%
D16*
%TO.C,R3*%
X156900000Y-104700000D03*
X156900000Y-103700000D03*
%TD*%
D39*
%TO.C,C8*%
X131800000Y-105180000D03*
X131800000Y-103620000D03*
%TD*%
D31*
%TO.C,R15*%
X126500000Y-126250000D03*
X125500000Y-126250000D03*
%TD*%
D57*
%TO.C,D7*%
X175333662Y-102217037D03*
X175333662Y-100637037D03*
%TD*%
D47*
%TO.C,J7*%
X146500000Y-133655000D03*
D48*
X149000000Y-133655000D03*
X151500000Y-133655000D03*
X154000000Y-133655000D03*
%TD*%
D15*
%TO.C,D4*%
X106220000Y-118600000D03*
X113080000Y-118600000D03*
%TD*%
D58*
%TO.C,U4*%
X164833758Y-96624225D03*
X164833758Y-94324225D03*
X164833758Y-92024225D03*
D59*
X158863758Y-93324225D03*
X158863758Y-94324225D03*
D60*
X158863758Y-94324225D03*
D59*
X158863758Y-95324225D03*
%TD*%
D26*
%TO.C,TP3*%
X153850000Y-126400000D03*
%TD*%
D28*
%TO.C,C26*%
X119500000Y-113550000D03*
X119500000Y-118950000D03*
%TD*%
D40*
%TO.C,H3*%
X82000000Y-134000000D03*
%TD*%
D20*
%TO.C,C9*%
X135520000Y-103050000D03*
X137080000Y-103050000D03*
%TD*%
D16*
%TO.C,R17*%
X116000000Y-109000000D03*
X116000000Y-108000000D03*
%TD*%
D61*
%TO.C,D3*%
X140975000Y-110375000D03*
X136675000Y-110375000D03*
%TD*%
%LPD*%
M02*
