%TF.GenerationSoftware,KiCad,Pcbnew,9.0.2*%
%TF.CreationDate,2026-04-11T23:14:24+02:00*%
%TF.ProjectId,MMS3_hat_stepper_controler,4d4d5333-5f68-4617-945f-737465707065,R0*%
%TF.SameCoordinates,Original*%
%TF.FileFunction,Legend,Top*%
%TF.FilePolarity,Positive*%
%FSLAX46Y46*%
G04 Gerber Fmt 4.6, Leading zero omitted, Abs format (unit mm)*
G04 Created by KiCad (PCBNEW 9.0.2) date 2026-04-11 23:14:24*
%MOMM*%
%LPD*%
G01*
G04 APERTURE LIST*
G04 Aperture macros list*
%AMRoundRect*
0 Rectangle with rounded corners*
0 $1 Rounding radius*
0 $2 $3 $4 $5 $6 $7 $8 $9 X,Y pos of 4 corners*
0 Add a 4 corners polygon primitive as box body*
4,1,4,$2,$3,$4,$5,$6,$7,$8,$9,$2,$3,0*
0 Add four circle primitives for the rounded corners*
1,1,$1+$1,$2,$3*
1,1,$1+$1,$4,$5*
1,1,$1+$1,$6,$7*
1,1,$1+$1,$8,$9*
0 Add four rect primitives between the rounded corners*
20,1,$1+$1,$2,$3,$4,$5,0*
20,1,$1+$1,$4,$5,$6,$7,0*
20,1,$1+$1,$6,$7,$8,$9,0*
20,1,$1+$1,$8,$9,$2,$3,0*%
%AMFreePoly0*
4,1,6,1.000000,0.000000,0.500000,-0.750000,-0.500000,-0.750000,-0.500000,0.750000,0.500000,0.750000,1.000000,0.000000,1.000000,0.000000,$1*%
%AMFreePoly1*
4,1,6,0.500000,-0.750000,-0.650000,-0.750000,-0.150000,0.000000,-0.650000,0.750000,0.500000,0.750000,0.500000,-0.750000,0.500000,-0.750000,$1*%
G04 Aperture macros list end*
%ADD10C,0.100000*%
%ADD11C,0.150000*%
%ADD12C,0.120000*%
%ADD13C,0.250000*%
%ADD14C,0.060000*%
%ADD15RoundRect,0.250000X-0.550000X1.500000X-0.550000X-1.500000X0.550000X-1.500000X0.550000X1.500000X0*%
%ADD16RoundRect,0.159000X0.189000X-0.159000X0.189000X0.159000X-0.189000X0.159000X-0.189000X-0.159000X0*%
%ADD17RoundRect,0.100000X-0.100000X0.637500X-0.100000X-0.637500X0.100000X-0.637500X0.100000X0.637500X0*%
%ADD18RoundRect,0.159000X-0.189000X0.159000X-0.189000X-0.159000X0.189000X-0.159000X0.189000X0.159000X0*%
%ADD19RoundRect,0.159000X-0.159000X-0.189000X0.159000X-0.189000X0.159000X0.189000X-0.159000X0.189000X0*%
%ADD20RoundRect,0.244000X-0.244000X-0.269000X0.244000X-0.269000X0.244000X0.269000X-0.244000X0.269000X0*%
%ADD21C,3.100000*%
%ADD22C,4.700000*%
%ADD23C,1.000000*%
%ADD24RoundRect,0.265778X-0.332222X-0.647222X0.332222X-0.647222X0.332222X0.647222X-0.332222X0.647222X0*%
%ADD25RoundRect,0.159000X0.159000X0.189000X-0.159000X0.189000X-0.159000X-0.189000X0.159000X-0.189000X0*%
%ADD26RoundRect,0.250000X0.550000X-1.500000X0.550000X1.500000X-0.550000X1.500000X-0.550000X-1.500000X0*%
%ADD27RoundRect,0.265778X0.647222X-0.332222X0.647222X0.332222X-0.647222X0.332222X-0.647222X-0.332222X0*%
%ADD28R,0.900000X2.000000*%
%ADD29RoundRect,1.025000X1.025000X1.025000X-1.025000X1.025000X-1.025000X-1.025000X1.025000X-1.025000X0*%
%ADD30C,4.100000*%
%ADD31R,1.000000X3.000000*%
%ADD32FreePoly0,0.000000*%
%ADD33FreePoly1,0.000000*%
%ADD34RoundRect,0.250000X-1.200000X-2.450000X1.200000X-2.450000X1.200000X2.450000X-1.200000X2.450000X0*%
%ADD35C,1.296000*%
%ADD36R,1.700000X1.700000*%
%ADD37C,1.700000*%
%ADD38O,1.950000X0.570000*%
%ADD39RoundRect,0.244000X0.269000X-0.244000X0.269000X0.244000X-0.269000X0.244000X-0.269000X-0.244000X0*%
%ADD40R,3.820000X3.030000*%
%ADD41R,3.030000X3.820000*%
%ADD42C,2.700000*%
%ADD43RoundRect,0.244000X-0.269000X0.244000X-0.269000X-0.244000X0.269000X-0.244000X0.269000X0.244000X0*%
%ADD44C,1.440000*%
%ADD45RoundRect,0.250000X0.550000X0.550000X-0.550000X0.550000X-0.550000X-0.550000X0.550000X-0.550000X0*%
%ADD46C,1.600000*%
%ADD47RoundRect,0.250000X-1.500000X-0.550000X1.500000X-0.550000X1.500000X0.550000X-1.500000X0.550000X0*%
%ADD48RoundRect,0.250000X-0.600000X-0.725000X0.600000X-0.725000X0.600000X0.725000X-0.600000X0.725000X0*%
%ADD49O,1.700000X1.950000*%
%ADD50RoundRect,0.250000X1.500000X0.550000X-1.500000X0.550000X-1.500000X-0.550000X1.500000X-0.550000X0*%
%ADD51RoundRect,0.266521X-0.346479X-0.671479X0.346479X-0.671479X0.346479X0.671479X-0.346479X0.671479X0*%
%ADD52RoundRect,0.244000X0.244000X0.269000X-0.244000X0.269000X-0.244000X-0.269000X0.244000X-0.269000X0*%
%ADD53RoundRect,0.075000X-0.075000X0.662500X-0.075000X-0.662500X0.075000X-0.662500X0.075000X0.662500X0*%
%ADD54RoundRect,0.075000X-0.662500X0.075000X-0.662500X-0.075000X0.662500X-0.075000X0.662500X0.075000X0*%
%ADD55R,5.000000X5.000000*%
%ADD56RoundRect,0.266521X0.671479X-0.346479X0.671479X0.346479X-0.671479X0.346479X-0.671479X-0.346479X0*%
%ADD57RoundRect,0.239000X0.274000X-0.239000X0.274000X0.239000X-0.274000X0.239000X-0.274000X-0.239000X0*%
%ADD58RoundRect,0.250000X-1.000000X-0.300000X1.000000X-0.300000X1.000000X0.300000X-1.000000X0.300000X0*%
%ADD59C,0.500000*%
%ADD60RoundRect,0.250000X-0.920000X-1.550000X0.920000X-1.550000X0.920000X1.550000X-0.920000X1.550000X0*%
%ADD61RoundRect,0.250000X2.050000X0.300000X-2.050000X0.300000X-2.050000X-0.300000X2.050000X-0.300000X0*%
%ADD62RoundRect,0.250002X4.449998X5.149998X-4.449998X5.149998X-4.449998X-5.149998X4.449998X-5.149998X0*%
%ADD63RoundRect,0.258261X1.029739X0.929739X-1.029739X0.929739X-1.029739X-0.929739X1.029739X-0.929739X0*%
G04 APERTURE END LIST*
D10*
X156300000Y-102000000D02*
X156700000Y-102600000D01*
X156300000Y-102000000D02*
X156300000Y-103800000D01*
X156300000Y-102000000D02*
X155800000Y-102600000D01*
D11*
X140751064Y-128106200D02*
X140865350Y-128144295D01*
X140865350Y-128144295D02*
X141055826Y-128144295D01*
X141055826Y-128144295D02*
X141132017Y-128106200D01*
X141132017Y-128106200D02*
X141170112Y-128068104D01*
X141170112Y-128068104D02*
X141208207Y-127991914D01*
X141208207Y-127991914D02*
X141208207Y-127915723D01*
X141208207Y-127915723D02*
X141170112Y-127839533D01*
X141170112Y-127839533D02*
X141132017Y-127801438D01*
X141132017Y-127801438D02*
X141055826Y-127763342D01*
X141055826Y-127763342D02*
X140903445Y-127725247D01*
X140903445Y-127725247D02*
X140827255Y-127687152D01*
X140827255Y-127687152D02*
X140789160Y-127649057D01*
X140789160Y-127649057D02*
X140751064Y-127572866D01*
X140751064Y-127572866D02*
X140751064Y-127496676D01*
X140751064Y-127496676D02*
X140789160Y-127420485D01*
X140789160Y-127420485D02*
X140827255Y-127382390D01*
X140827255Y-127382390D02*
X140903445Y-127344295D01*
X140903445Y-127344295D02*
X141093922Y-127344295D01*
X141093922Y-127344295D02*
X141208207Y-127382390D01*
X141474874Y-127344295D02*
X141665350Y-128144295D01*
X141665350Y-128144295D02*
X141817731Y-127572866D01*
X141817731Y-127572866D02*
X141970112Y-128144295D01*
X141970112Y-128144295D02*
X142160589Y-127344295D01*
X142884398Y-128144295D02*
X142427255Y-128144295D01*
X142655827Y-128144295D02*
X142655827Y-127344295D01*
X142655827Y-127344295D02*
X142579636Y-127458580D01*
X142579636Y-127458580D02*
X142503446Y-127534771D01*
X142503446Y-127534771D02*
X142427255Y-127572866D01*
X160931009Y-130666666D02*
X160931009Y-130333333D01*
X161454819Y-130190476D02*
X161454819Y-130666666D01*
X161454819Y-130666666D02*
X160454819Y-130666666D01*
X160454819Y-130666666D02*
X160454819Y-130190476D01*
X161454819Y-129761904D02*
X160454819Y-129761904D01*
X160454819Y-129761904D02*
X161454819Y-129190476D01*
X161454819Y-129190476D02*
X160454819Y-129190476D01*
X161359580Y-128142857D02*
X161407200Y-128190476D01*
X161407200Y-128190476D02*
X161454819Y-128333333D01*
X161454819Y-128333333D02*
X161454819Y-128428571D01*
X161454819Y-128428571D02*
X161407200Y-128571428D01*
X161407200Y-128571428D02*
X161311961Y-128666666D01*
X161311961Y-128666666D02*
X161216723Y-128714285D01*
X161216723Y-128714285D02*
X161026247Y-128761904D01*
X161026247Y-128761904D02*
X160883390Y-128761904D01*
X160883390Y-128761904D02*
X160692914Y-128714285D01*
X160692914Y-128714285D02*
X160597676Y-128666666D01*
X160597676Y-128666666D02*
X160502438Y-128571428D01*
X160502438Y-128571428D02*
X160454819Y-128428571D01*
X160454819Y-128428571D02*
X160454819Y-128333333D01*
X160454819Y-128333333D02*
X160502438Y-128190476D01*
X160502438Y-128190476D02*
X160550057Y-128142857D01*
X161454819Y-127714285D02*
X160454819Y-127714285D01*
X160454819Y-127714285D02*
X161454819Y-127142857D01*
X161454819Y-127142857D02*
X160454819Y-127142857D01*
X161550057Y-126904762D02*
X161550057Y-126142857D01*
X161454819Y-125904761D02*
X160454819Y-125904761D01*
X160454819Y-125904761D02*
X160454819Y-125666666D01*
X160454819Y-125666666D02*
X160502438Y-125523809D01*
X160502438Y-125523809D02*
X160597676Y-125428571D01*
X160597676Y-125428571D02*
X160692914Y-125380952D01*
X160692914Y-125380952D02*
X160883390Y-125333333D01*
X160883390Y-125333333D02*
X161026247Y-125333333D01*
X161026247Y-125333333D02*
X161216723Y-125380952D01*
X161216723Y-125380952D02*
X161311961Y-125428571D01*
X161311961Y-125428571D02*
X161407200Y-125523809D01*
X161407200Y-125523809D02*
X161454819Y-125666666D01*
X161454819Y-125666666D02*
X161454819Y-125904761D01*
X161359580Y-124333333D02*
X161407200Y-124380952D01*
X161407200Y-124380952D02*
X161454819Y-124523809D01*
X161454819Y-124523809D02*
X161454819Y-124619047D01*
X161454819Y-124619047D02*
X161407200Y-124761904D01*
X161407200Y-124761904D02*
X161311961Y-124857142D01*
X161311961Y-124857142D02*
X161216723Y-124904761D01*
X161216723Y-124904761D02*
X161026247Y-124952380D01*
X161026247Y-124952380D02*
X160883390Y-124952380D01*
X160883390Y-124952380D02*
X160692914Y-124904761D01*
X160692914Y-124904761D02*
X160597676Y-124857142D01*
X160597676Y-124857142D02*
X160502438Y-124761904D01*
X160502438Y-124761904D02*
X160454819Y-124619047D01*
X160454819Y-124619047D02*
X160454819Y-124523809D01*
X160454819Y-124523809D02*
X160502438Y-124380952D01*
X160502438Y-124380952D02*
X160550057Y-124333333D01*
X160454819Y-123714285D02*
X160454819Y-123523809D01*
X160454819Y-123523809D02*
X160502438Y-123428571D01*
X160502438Y-123428571D02*
X160597676Y-123333333D01*
X160597676Y-123333333D02*
X160788152Y-123285714D01*
X160788152Y-123285714D02*
X161121485Y-123285714D01*
X161121485Y-123285714D02*
X161311961Y-123333333D01*
X161311961Y-123333333D02*
X161407200Y-123428571D01*
X161407200Y-123428571D02*
X161454819Y-123523809D01*
X161454819Y-123523809D02*
X161454819Y-123714285D01*
X161454819Y-123714285D02*
X161407200Y-123809523D01*
X161407200Y-123809523D02*
X161311961Y-123904761D01*
X161311961Y-123904761D02*
X161121485Y-123952380D01*
X161121485Y-123952380D02*
X160788152Y-123952380D01*
X160788152Y-123952380D02*
X160597676Y-123904761D01*
X160597676Y-123904761D02*
X160502438Y-123809523D01*
X160502438Y-123809523D02*
X160454819Y-123714285D01*
X146431009Y-129804761D02*
X146478628Y-129661904D01*
X146478628Y-129661904D02*
X146526247Y-129614285D01*
X146526247Y-129614285D02*
X146621485Y-129566666D01*
X146621485Y-129566666D02*
X146764342Y-129566666D01*
X146764342Y-129566666D02*
X146859580Y-129614285D01*
X146859580Y-129614285D02*
X146907200Y-129661904D01*
X146907200Y-129661904D02*
X146954819Y-129757142D01*
X146954819Y-129757142D02*
X146954819Y-130138094D01*
X146954819Y-130138094D02*
X145954819Y-130138094D01*
X145954819Y-130138094D02*
X145954819Y-129804761D01*
X145954819Y-129804761D02*
X146002438Y-129709523D01*
X146002438Y-129709523D02*
X146050057Y-129661904D01*
X146050057Y-129661904D02*
X146145295Y-129614285D01*
X146145295Y-129614285D02*
X146240533Y-129614285D01*
X146240533Y-129614285D02*
X146335771Y-129661904D01*
X146335771Y-129661904D02*
X146383390Y-129709523D01*
X146383390Y-129709523D02*
X146431009Y-129804761D01*
X146431009Y-129804761D02*
X146431009Y-130138094D01*
X146954819Y-128614285D02*
X146954819Y-129185713D01*
X146954819Y-128899999D02*
X145954819Y-128899999D01*
X145954819Y-128899999D02*
X146097676Y-128995237D01*
X146097676Y-128995237D02*
X146192914Y-129090475D01*
X146192914Y-129090475D02*
X146240533Y-129185713D01*
X165831009Y-130609523D02*
X165831009Y-130276190D01*
X166354819Y-130133333D02*
X166354819Y-130609523D01*
X166354819Y-130609523D02*
X165354819Y-130609523D01*
X165354819Y-130609523D02*
X165354819Y-130133333D01*
X166354819Y-129704761D02*
X165354819Y-129704761D01*
X165354819Y-129704761D02*
X166354819Y-129133333D01*
X166354819Y-129133333D02*
X165354819Y-129133333D01*
X166259580Y-128085714D02*
X166307200Y-128133333D01*
X166307200Y-128133333D02*
X166354819Y-128276190D01*
X166354819Y-128276190D02*
X166354819Y-128371428D01*
X166354819Y-128371428D02*
X166307200Y-128514285D01*
X166307200Y-128514285D02*
X166211961Y-128609523D01*
X166211961Y-128609523D02*
X166116723Y-128657142D01*
X166116723Y-128657142D02*
X165926247Y-128704761D01*
X165926247Y-128704761D02*
X165783390Y-128704761D01*
X165783390Y-128704761D02*
X165592914Y-128657142D01*
X165592914Y-128657142D02*
X165497676Y-128609523D01*
X165497676Y-128609523D02*
X165402438Y-128514285D01*
X165402438Y-128514285D02*
X165354819Y-128371428D01*
X165354819Y-128371428D02*
X165354819Y-128276190D01*
X165354819Y-128276190D02*
X165402438Y-128133333D01*
X165402438Y-128133333D02*
X165450057Y-128085714D01*
X166069104Y-127704761D02*
X166069104Y-127228571D01*
X166354819Y-127799999D02*
X165354819Y-127466666D01*
X165354819Y-127466666D02*
X166354819Y-127133333D01*
X166450057Y-127038095D02*
X166450057Y-126276190D01*
X166354819Y-126038094D02*
X165354819Y-126038094D01*
X165354819Y-126038094D02*
X165354819Y-125799999D01*
X165354819Y-125799999D02*
X165402438Y-125657142D01*
X165402438Y-125657142D02*
X165497676Y-125561904D01*
X165497676Y-125561904D02*
X165592914Y-125514285D01*
X165592914Y-125514285D02*
X165783390Y-125466666D01*
X165783390Y-125466666D02*
X165926247Y-125466666D01*
X165926247Y-125466666D02*
X166116723Y-125514285D01*
X166116723Y-125514285D02*
X166211961Y-125561904D01*
X166211961Y-125561904D02*
X166307200Y-125657142D01*
X166307200Y-125657142D02*
X166354819Y-125799999D01*
X166354819Y-125799999D02*
X166354819Y-126038094D01*
X166259580Y-124466666D02*
X166307200Y-124514285D01*
X166307200Y-124514285D02*
X166354819Y-124657142D01*
X166354819Y-124657142D02*
X166354819Y-124752380D01*
X166354819Y-124752380D02*
X166307200Y-124895237D01*
X166307200Y-124895237D02*
X166211961Y-124990475D01*
X166211961Y-124990475D02*
X166116723Y-125038094D01*
X166116723Y-125038094D02*
X165926247Y-125085713D01*
X165926247Y-125085713D02*
X165783390Y-125085713D01*
X165783390Y-125085713D02*
X165592914Y-125038094D01*
X165592914Y-125038094D02*
X165497676Y-124990475D01*
X165497676Y-124990475D02*
X165402438Y-124895237D01*
X165402438Y-124895237D02*
X165354819Y-124752380D01*
X165354819Y-124752380D02*
X165354819Y-124657142D01*
X165354819Y-124657142D02*
X165402438Y-124514285D01*
X165402438Y-124514285D02*
X165450057Y-124466666D01*
X166354819Y-124038094D02*
X165354819Y-124038094D01*
X166354819Y-123561904D02*
X165354819Y-123561904D01*
X165354819Y-123561904D02*
X166354819Y-122990476D01*
X166354819Y-122990476D02*
X165354819Y-122990476D01*
X132139411Y-137079514D02*
X132101315Y-137117609D01*
X132101315Y-137117609D02*
X132025125Y-137155704D01*
X132025125Y-137155704D02*
X131834649Y-137155704D01*
X131834649Y-137155704D02*
X131758458Y-137117609D01*
X131758458Y-137117609D02*
X131720363Y-137079514D01*
X131720363Y-137079514D02*
X131682268Y-137003323D01*
X131682268Y-137003323D02*
X131682268Y-136927133D01*
X131682268Y-136927133D02*
X131720363Y-136812847D01*
X131720363Y-136812847D02*
X132177506Y-136355704D01*
X132177506Y-136355704D02*
X131682268Y-136355704D01*
X130996553Y-136889038D02*
X130996553Y-136355704D01*
X131187029Y-137193800D02*
X131377506Y-136622371D01*
X131377506Y-136622371D02*
X130882267Y-136622371D01*
X129320362Y-136355704D02*
X129167981Y-136355704D01*
X129167981Y-136355704D02*
X129091791Y-136393800D01*
X129091791Y-136393800D02*
X129053695Y-136431895D01*
X129053695Y-136431895D02*
X128977505Y-136546180D01*
X128977505Y-136546180D02*
X128939410Y-136698561D01*
X128939410Y-136698561D02*
X128939410Y-137003323D01*
X128939410Y-137003323D02*
X128977505Y-137079514D01*
X128977505Y-137079514D02*
X129015600Y-137117609D01*
X129015600Y-137117609D02*
X129091791Y-137155704D01*
X129091791Y-137155704D02*
X129244172Y-137155704D01*
X129244172Y-137155704D02*
X129320362Y-137117609D01*
X129320362Y-137117609D02*
X129358457Y-137079514D01*
X129358457Y-137079514D02*
X129396553Y-137003323D01*
X129396553Y-137003323D02*
X129396553Y-136812847D01*
X129396553Y-136812847D02*
X129358457Y-136736657D01*
X129358457Y-136736657D02*
X129320362Y-136698561D01*
X129320362Y-136698561D02*
X129244172Y-136660466D01*
X129244172Y-136660466D02*
X129091791Y-136660466D01*
X129091791Y-136660466D02*
X129015600Y-136698561D01*
X129015600Y-136698561D02*
X128977505Y-136736657D01*
X128977505Y-136736657D02*
X128939410Y-136812847D01*
X126958457Y-136355704D02*
X127415600Y-136355704D01*
X127187028Y-136355704D02*
X127187028Y-137155704D01*
X127187028Y-137155704D02*
X127263219Y-137041419D01*
X127263219Y-137041419D02*
X127339409Y-136965228D01*
X127339409Y-136965228D02*
X127415600Y-136927133D01*
X126653695Y-137079514D02*
X126615599Y-137117609D01*
X126615599Y-137117609D02*
X126539409Y-137155704D01*
X126539409Y-137155704D02*
X126348933Y-137155704D01*
X126348933Y-137155704D02*
X126272742Y-137117609D01*
X126272742Y-137117609D02*
X126234647Y-137079514D01*
X126234647Y-137079514D02*
X126196552Y-137003323D01*
X126196552Y-137003323D02*
X126196552Y-136927133D01*
X126196552Y-136927133D02*
X126234647Y-136812847D01*
X126234647Y-136812847D02*
X126691790Y-136355704D01*
X126691790Y-136355704D02*
X126196552Y-136355704D01*
X124291789Y-137155704D02*
X124444170Y-137155704D01*
X124444170Y-137155704D02*
X124520361Y-137117609D01*
X124520361Y-137117609D02*
X124558456Y-137079514D01*
X124558456Y-137079514D02*
X124634646Y-136965228D01*
X124634646Y-136965228D02*
X124672742Y-136812847D01*
X124672742Y-136812847D02*
X124672742Y-136508085D01*
X124672742Y-136508085D02*
X124634646Y-136431895D01*
X124634646Y-136431895D02*
X124596551Y-136393800D01*
X124596551Y-136393800D02*
X124520361Y-136355704D01*
X124520361Y-136355704D02*
X124367980Y-136355704D01*
X124367980Y-136355704D02*
X124291789Y-136393800D01*
X124291789Y-136393800D02*
X124253694Y-136431895D01*
X124253694Y-136431895D02*
X124215599Y-136508085D01*
X124215599Y-136508085D02*
X124215599Y-136698561D01*
X124215599Y-136698561D02*
X124253694Y-136774752D01*
X124253694Y-136774752D02*
X124291789Y-136812847D01*
X124291789Y-136812847D02*
X124367980Y-136850942D01*
X124367980Y-136850942D02*
X124520361Y-136850942D01*
X124520361Y-136850942D02*
X124596551Y-136812847D01*
X124596551Y-136812847D02*
X124634646Y-136774752D01*
X124634646Y-136774752D02*
X124672742Y-136698561D01*
X123872741Y-136431895D02*
X123834646Y-136393800D01*
X123834646Y-136393800D02*
X123872741Y-136355704D01*
X123872741Y-136355704D02*
X123910837Y-136393800D01*
X123910837Y-136393800D02*
X123872741Y-136431895D01*
X123872741Y-136431895D02*
X123872741Y-136355704D01*
X123529885Y-137079514D02*
X123491789Y-137117609D01*
X123491789Y-137117609D02*
X123415599Y-137155704D01*
X123415599Y-137155704D02*
X123225123Y-137155704D01*
X123225123Y-137155704D02*
X123148932Y-137117609D01*
X123148932Y-137117609D02*
X123110837Y-137079514D01*
X123110837Y-137079514D02*
X123072742Y-137003323D01*
X123072742Y-137003323D02*
X123072742Y-136927133D01*
X123072742Y-136927133D02*
X123110837Y-136812847D01*
X123110837Y-136812847D02*
X123567980Y-136355704D01*
X123567980Y-136355704D02*
X123072742Y-136355704D01*
X151869104Y-130314285D02*
X151869104Y-129838095D01*
X152154819Y-130409523D02*
X151154819Y-130076190D01*
X151154819Y-130076190D02*
X152154819Y-129742857D01*
X151250057Y-129457142D02*
X151202438Y-129409523D01*
X151202438Y-129409523D02*
X151154819Y-129314285D01*
X151154819Y-129314285D02*
X151154819Y-129076190D01*
X151154819Y-129076190D02*
X151202438Y-128980952D01*
X151202438Y-128980952D02*
X151250057Y-128933333D01*
X151250057Y-128933333D02*
X151345295Y-128885714D01*
X151345295Y-128885714D02*
X151440533Y-128885714D01*
X151440533Y-128885714D02*
X151583390Y-128933333D01*
X151583390Y-128933333D02*
X152154819Y-129504761D01*
X152154819Y-129504761D02*
X152154819Y-128885714D01*
X148931009Y-129904761D02*
X148978628Y-129761904D01*
X148978628Y-129761904D02*
X149026247Y-129714285D01*
X149026247Y-129714285D02*
X149121485Y-129666666D01*
X149121485Y-129666666D02*
X149264342Y-129666666D01*
X149264342Y-129666666D02*
X149359580Y-129714285D01*
X149359580Y-129714285D02*
X149407200Y-129761904D01*
X149407200Y-129761904D02*
X149454819Y-129857142D01*
X149454819Y-129857142D02*
X149454819Y-130238094D01*
X149454819Y-130238094D02*
X148454819Y-130238094D01*
X148454819Y-130238094D02*
X148454819Y-129904761D01*
X148454819Y-129904761D02*
X148502438Y-129809523D01*
X148502438Y-129809523D02*
X148550057Y-129761904D01*
X148550057Y-129761904D02*
X148645295Y-129714285D01*
X148645295Y-129714285D02*
X148740533Y-129714285D01*
X148740533Y-129714285D02*
X148835771Y-129761904D01*
X148835771Y-129761904D02*
X148883390Y-129809523D01*
X148883390Y-129809523D02*
X148931009Y-129904761D01*
X148931009Y-129904761D02*
X148931009Y-130238094D01*
X148550057Y-129285713D02*
X148502438Y-129238094D01*
X148502438Y-129238094D02*
X148454819Y-129142856D01*
X148454819Y-129142856D02*
X148454819Y-128904761D01*
X148454819Y-128904761D02*
X148502438Y-128809523D01*
X148502438Y-128809523D02*
X148550057Y-128761904D01*
X148550057Y-128761904D02*
X148645295Y-128714285D01*
X148645295Y-128714285D02*
X148740533Y-128714285D01*
X148740533Y-128714285D02*
X148883390Y-128761904D01*
X148883390Y-128761904D02*
X149454819Y-129333332D01*
X149454819Y-129333332D02*
X149454819Y-128714285D01*
X155738095Y-104202438D02*
X155642857Y-104154819D01*
X155642857Y-104154819D02*
X155500000Y-104154819D01*
X155500000Y-104154819D02*
X155357143Y-104202438D01*
X155357143Y-104202438D02*
X155261905Y-104297676D01*
X155261905Y-104297676D02*
X155214286Y-104392914D01*
X155214286Y-104392914D02*
X155166667Y-104583390D01*
X155166667Y-104583390D02*
X155166667Y-104726247D01*
X155166667Y-104726247D02*
X155214286Y-104916723D01*
X155214286Y-104916723D02*
X155261905Y-105011961D01*
X155261905Y-105011961D02*
X155357143Y-105107200D01*
X155357143Y-105107200D02*
X155500000Y-105154819D01*
X155500000Y-105154819D02*
X155595238Y-105154819D01*
X155595238Y-105154819D02*
X155738095Y-105107200D01*
X155738095Y-105107200D02*
X155785714Y-105059580D01*
X155785714Y-105059580D02*
X155785714Y-104726247D01*
X155785714Y-104726247D02*
X155595238Y-104726247D01*
X156214286Y-105154819D02*
X156214286Y-104154819D01*
X156214286Y-104154819D02*
X156785714Y-105154819D01*
X156785714Y-105154819D02*
X156785714Y-104154819D01*
X157261905Y-105154819D02*
X157261905Y-104154819D01*
X157261905Y-104154819D02*
X157500000Y-104154819D01*
X157500000Y-104154819D02*
X157642857Y-104202438D01*
X157642857Y-104202438D02*
X157738095Y-104297676D01*
X157738095Y-104297676D02*
X157785714Y-104392914D01*
X157785714Y-104392914D02*
X157833333Y-104583390D01*
X157833333Y-104583390D02*
X157833333Y-104726247D01*
X157833333Y-104726247D02*
X157785714Y-104916723D01*
X157785714Y-104916723D02*
X157738095Y-105011961D01*
X157738095Y-105011961D02*
X157642857Y-105107200D01*
X157642857Y-105107200D02*
X157500000Y-105154819D01*
X157500000Y-105154819D02*
X157261905Y-105154819D01*
X154169104Y-130314285D02*
X154169104Y-129838095D01*
X154454819Y-130409523D02*
X153454819Y-130076190D01*
X153454819Y-130076190D02*
X154454819Y-129742857D01*
X154454819Y-128885714D02*
X154454819Y-129457142D01*
X154454819Y-129171428D02*
X153454819Y-129171428D01*
X153454819Y-129171428D02*
X153597676Y-129266666D01*
X153597676Y-129266666D02*
X153692914Y-129361904D01*
X153692914Y-129361904D02*
X153740533Y-129457142D01*
X177407200Y-104000000D02*
X177454819Y-103857143D01*
X177454819Y-103857143D02*
X177454819Y-103619048D01*
X177454819Y-103619048D02*
X177407200Y-103523810D01*
X177407200Y-103523810D02*
X177359580Y-103476191D01*
X177359580Y-103476191D02*
X177264342Y-103428572D01*
X177264342Y-103428572D02*
X177169104Y-103428572D01*
X177169104Y-103428572D02*
X177073866Y-103476191D01*
X177073866Y-103476191D02*
X177026247Y-103523810D01*
X177026247Y-103523810D02*
X176978628Y-103619048D01*
X176978628Y-103619048D02*
X176931009Y-103809524D01*
X176931009Y-103809524D02*
X176883390Y-103904762D01*
X176883390Y-103904762D02*
X176835771Y-103952381D01*
X176835771Y-103952381D02*
X176740533Y-104000000D01*
X176740533Y-104000000D02*
X176645295Y-104000000D01*
X176645295Y-104000000D02*
X176550057Y-103952381D01*
X176550057Y-103952381D02*
X176502438Y-103904762D01*
X176502438Y-103904762D02*
X176454819Y-103809524D01*
X176454819Y-103809524D02*
X176454819Y-103571429D01*
X176454819Y-103571429D02*
X176502438Y-103428572D01*
X177407200Y-102619048D02*
X177454819Y-102714286D01*
X177454819Y-102714286D02*
X177454819Y-102904762D01*
X177454819Y-102904762D02*
X177407200Y-103000000D01*
X177407200Y-103000000D02*
X177311961Y-103047619D01*
X177311961Y-103047619D02*
X176931009Y-103047619D01*
X176931009Y-103047619D02*
X176835771Y-103000000D01*
X176835771Y-103000000D02*
X176788152Y-102904762D01*
X176788152Y-102904762D02*
X176788152Y-102714286D01*
X176788152Y-102714286D02*
X176835771Y-102619048D01*
X176835771Y-102619048D02*
X176931009Y-102571429D01*
X176931009Y-102571429D02*
X177026247Y-102571429D01*
X177026247Y-102571429D02*
X177121485Y-103047619D01*
X177454819Y-102000000D02*
X177407200Y-102095238D01*
X177407200Y-102095238D02*
X177311961Y-102142857D01*
X177311961Y-102142857D02*
X176454819Y-102142857D01*
X177407200Y-101238095D02*
X177454819Y-101333333D01*
X177454819Y-101333333D02*
X177454819Y-101523809D01*
X177454819Y-101523809D02*
X177407200Y-101619047D01*
X177407200Y-101619047D02*
X177311961Y-101666666D01*
X177311961Y-101666666D02*
X176931009Y-101666666D01*
X176931009Y-101666666D02*
X176835771Y-101619047D01*
X176835771Y-101619047D02*
X176788152Y-101523809D01*
X176788152Y-101523809D02*
X176788152Y-101333333D01*
X176788152Y-101333333D02*
X176835771Y-101238095D01*
X176835771Y-101238095D02*
X176931009Y-101190476D01*
X176931009Y-101190476D02*
X177026247Y-101190476D01*
X177026247Y-101190476D02*
X177121485Y-101666666D01*
X177407200Y-100333333D02*
X177454819Y-100428571D01*
X177454819Y-100428571D02*
X177454819Y-100619047D01*
X177454819Y-100619047D02*
X177407200Y-100714285D01*
X177407200Y-100714285D02*
X177359580Y-100761904D01*
X177359580Y-100761904D02*
X177264342Y-100809523D01*
X177264342Y-100809523D02*
X176978628Y-100809523D01*
X176978628Y-100809523D02*
X176883390Y-100761904D01*
X176883390Y-100761904D02*
X176835771Y-100714285D01*
X176835771Y-100714285D02*
X176788152Y-100619047D01*
X176788152Y-100619047D02*
X176788152Y-100428571D01*
X176788152Y-100428571D02*
X176835771Y-100333333D01*
X176788152Y-100047618D02*
X176788152Y-99666666D01*
X176454819Y-99904761D02*
X177311961Y-99904761D01*
X177311961Y-99904761D02*
X177407200Y-99857142D01*
X177407200Y-99857142D02*
X177454819Y-99761904D01*
X177454819Y-99761904D02*
X177454819Y-99666666D01*
X177407200Y-98952380D02*
X177454819Y-99047618D01*
X177454819Y-99047618D02*
X177454819Y-99238094D01*
X177454819Y-99238094D02*
X177407200Y-99333332D01*
X177407200Y-99333332D02*
X177311961Y-99380951D01*
X177311961Y-99380951D02*
X176931009Y-99380951D01*
X176931009Y-99380951D02*
X176835771Y-99333332D01*
X176835771Y-99333332D02*
X176788152Y-99238094D01*
X176788152Y-99238094D02*
X176788152Y-99047618D01*
X176788152Y-99047618D02*
X176835771Y-98952380D01*
X176835771Y-98952380D02*
X176931009Y-98904761D01*
X176931009Y-98904761D02*
X177026247Y-98904761D01*
X177026247Y-98904761D02*
X177121485Y-99380951D01*
X177454819Y-98047618D02*
X176454819Y-98047618D01*
X177407200Y-98047618D02*
X177454819Y-98142856D01*
X177454819Y-98142856D02*
X177454819Y-98333332D01*
X177454819Y-98333332D02*
X177407200Y-98428570D01*
X177407200Y-98428570D02*
X177359580Y-98476189D01*
X177359580Y-98476189D02*
X177264342Y-98523808D01*
X177264342Y-98523808D02*
X176978628Y-98523808D01*
X176978628Y-98523808D02*
X176883390Y-98476189D01*
X176883390Y-98476189D02*
X176835771Y-98428570D01*
X176835771Y-98428570D02*
X176788152Y-98333332D01*
X176788152Y-98333332D02*
X176788152Y-98142856D01*
X176788152Y-98142856D02*
X176835771Y-98047618D01*
X163231009Y-130595237D02*
X163231009Y-130261904D01*
X163754819Y-130119047D02*
X163754819Y-130595237D01*
X163754819Y-130595237D02*
X162754819Y-130595237D01*
X162754819Y-130595237D02*
X162754819Y-130119047D01*
X163754819Y-129690475D02*
X162754819Y-129690475D01*
X162754819Y-129690475D02*
X163754819Y-129119047D01*
X163754819Y-129119047D02*
X162754819Y-129119047D01*
X163659580Y-128071428D02*
X163707200Y-128119047D01*
X163707200Y-128119047D02*
X163754819Y-128261904D01*
X163754819Y-128261904D02*
X163754819Y-128357142D01*
X163754819Y-128357142D02*
X163707200Y-128499999D01*
X163707200Y-128499999D02*
X163611961Y-128595237D01*
X163611961Y-128595237D02*
X163516723Y-128642856D01*
X163516723Y-128642856D02*
X163326247Y-128690475D01*
X163326247Y-128690475D02*
X163183390Y-128690475D01*
X163183390Y-128690475D02*
X162992914Y-128642856D01*
X162992914Y-128642856D02*
X162897676Y-128595237D01*
X162897676Y-128595237D02*
X162802438Y-128499999D01*
X162802438Y-128499999D02*
X162754819Y-128357142D01*
X162754819Y-128357142D02*
X162754819Y-128261904D01*
X162754819Y-128261904D02*
X162802438Y-128119047D01*
X162802438Y-128119047D02*
X162850057Y-128071428D01*
X163231009Y-127309523D02*
X163278628Y-127166666D01*
X163278628Y-127166666D02*
X163326247Y-127119047D01*
X163326247Y-127119047D02*
X163421485Y-127071428D01*
X163421485Y-127071428D02*
X163564342Y-127071428D01*
X163564342Y-127071428D02*
X163659580Y-127119047D01*
X163659580Y-127119047D02*
X163707200Y-127166666D01*
X163707200Y-127166666D02*
X163754819Y-127261904D01*
X163754819Y-127261904D02*
X163754819Y-127642856D01*
X163754819Y-127642856D02*
X162754819Y-127642856D01*
X162754819Y-127642856D02*
X162754819Y-127309523D01*
X162754819Y-127309523D02*
X162802438Y-127214285D01*
X162802438Y-127214285D02*
X162850057Y-127166666D01*
X162850057Y-127166666D02*
X162945295Y-127119047D01*
X162945295Y-127119047D02*
X163040533Y-127119047D01*
X163040533Y-127119047D02*
X163135771Y-127166666D01*
X163135771Y-127166666D02*
X163183390Y-127214285D01*
X163183390Y-127214285D02*
X163231009Y-127309523D01*
X163231009Y-127309523D02*
X163231009Y-127642856D01*
X163850057Y-126880952D02*
X163850057Y-126119047D01*
X163754819Y-125880951D02*
X162754819Y-125880951D01*
X162754819Y-125880951D02*
X162754819Y-125642856D01*
X162754819Y-125642856D02*
X162802438Y-125499999D01*
X162802438Y-125499999D02*
X162897676Y-125404761D01*
X162897676Y-125404761D02*
X162992914Y-125357142D01*
X162992914Y-125357142D02*
X163183390Y-125309523D01*
X163183390Y-125309523D02*
X163326247Y-125309523D01*
X163326247Y-125309523D02*
X163516723Y-125357142D01*
X163516723Y-125357142D02*
X163611961Y-125404761D01*
X163611961Y-125404761D02*
X163707200Y-125499999D01*
X163707200Y-125499999D02*
X163754819Y-125642856D01*
X163754819Y-125642856D02*
X163754819Y-125880951D01*
X163659580Y-124309523D02*
X163707200Y-124357142D01*
X163707200Y-124357142D02*
X163754819Y-124499999D01*
X163754819Y-124499999D02*
X163754819Y-124595237D01*
X163754819Y-124595237D02*
X163707200Y-124738094D01*
X163707200Y-124738094D02*
X163611961Y-124833332D01*
X163611961Y-124833332D02*
X163516723Y-124880951D01*
X163516723Y-124880951D02*
X163326247Y-124928570D01*
X163326247Y-124928570D02*
X163183390Y-124928570D01*
X163183390Y-124928570D02*
X162992914Y-124880951D01*
X162992914Y-124880951D02*
X162897676Y-124833332D01*
X162897676Y-124833332D02*
X162802438Y-124738094D01*
X162802438Y-124738094D02*
X162754819Y-124595237D01*
X162754819Y-124595237D02*
X162754819Y-124499999D01*
X162754819Y-124499999D02*
X162802438Y-124357142D01*
X162802438Y-124357142D02*
X162850057Y-124309523D01*
X163231009Y-123880951D02*
X163231009Y-123547618D01*
X163754819Y-123404761D02*
X163754819Y-123880951D01*
X163754819Y-123880951D02*
X162754819Y-123880951D01*
X162754819Y-123880951D02*
X162754819Y-123404761D01*
X163754819Y-122976189D02*
X162754819Y-122976189D01*
X162754819Y-122976189D02*
X163754819Y-122404761D01*
X163754819Y-122404761D02*
X162754819Y-122404761D01*
X84007142Y-128359580D02*
X83959523Y-128407200D01*
X83959523Y-128407200D02*
X83816666Y-128454819D01*
X83816666Y-128454819D02*
X83721428Y-128454819D01*
X83721428Y-128454819D02*
X83578571Y-128407200D01*
X83578571Y-128407200D02*
X83483333Y-128311961D01*
X83483333Y-128311961D02*
X83435714Y-128216723D01*
X83435714Y-128216723D02*
X83388095Y-128026247D01*
X83388095Y-128026247D02*
X83388095Y-127883390D01*
X83388095Y-127883390D02*
X83435714Y-127692914D01*
X83435714Y-127692914D02*
X83483333Y-127597676D01*
X83483333Y-127597676D02*
X83578571Y-127502438D01*
X83578571Y-127502438D02*
X83721428Y-127454819D01*
X83721428Y-127454819D02*
X83816666Y-127454819D01*
X83816666Y-127454819D02*
X83959523Y-127502438D01*
X83959523Y-127502438D02*
X84007142Y-127550057D01*
X84388095Y-127550057D02*
X84435714Y-127502438D01*
X84435714Y-127502438D02*
X84530952Y-127454819D01*
X84530952Y-127454819D02*
X84769047Y-127454819D01*
X84769047Y-127454819D02*
X84864285Y-127502438D01*
X84864285Y-127502438D02*
X84911904Y-127550057D01*
X84911904Y-127550057D02*
X84959523Y-127645295D01*
X84959523Y-127645295D02*
X84959523Y-127740533D01*
X84959523Y-127740533D02*
X84911904Y-127883390D01*
X84911904Y-127883390D02*
X84340476Y-128454819D01*
X84340476Y-128454819D02*
X84959523Y-128454819D01*
X85292857Y-127454819D02*
X85959523Y-127454819D01*
X85959523Y-127454819D02*
X85530952Y-128454819D01*
X149238095Y-102554819D02*
X149238095Y-103364342D01*
X149238095Y-103364342D02*
X149285714Y-103459580D01*
X149285714Y-103459580D02*
X149333333Y-103507200D01*
X149333333Y-103507200D02*
X149428571Y-103554819D01*
X149428571Y-103554819D02*
X149619047Y-103554819D01*
X149619047Y-103554819D02*
X149714285Y-103507200D01*
X149714285Y-103507200D02*
X149761904Y-103459580D01*
X149761904Y-103459580D02*
X149809523Y-103364342D01*
X149809523Y-103364342D02*
X149809523Y-102554819D01*
X150809523Y-103554819D02*
X150238095Y-103554819D01*
X150523809Y-103554819D02*
X150523809Y-102554819D01*
X150523809Y-102554819D02*
X150428571Y-102697676D01*
X150428571Y-102697676D02*
X150333333Y-102792914D01*
X150333333Y-102792914D02*
X150238095Y-102840533D01*
X162288095Y-109354819D02*
X162859523Y-109354819D01*
X162573809Y-110354819D02*
X162573809Y-109354819D01*
X163192857Y-110354819D02*
X163192857Y-109354819D01*
X163192857Y-109354819D02*
X163573809Y-109354819D01*
X163573809Y-109354819D02*
X163669047Y-109402438D01*
X163669047Y-109402438D02*
X163716666Y-109450057D01*
X163716666Y-109450057D02*
X163764285Y-109545295D01*
X163764285Y-109545295D02*
X163764285Y-109688152D01*
X163764285Y-109688152D02*
X163716666Y-109783390D01*
X163716666Y-109783390D02*
X163669047Y-109831009D01*
X163669047Y-109831009D02*
X163573809Y-109878628D01*
X163573809Y-109878628D02*
X163192857Y-109878628D01*
X164621428Y-109688152D02*
X164621428Y-110354819D01*
X164383333Y-109307200D02*
X164145238Y-110021485D01*
X164145238Y-110021485D02*
X164764285Y-110021485D01*
X119057142Y-103359580D02*
X119009523Y-103407200D01*
X119009523Y-103407200D02*
X118866666Y-103454819D01*
X118866666Y-103454819D02*
X118771428Y-103454819D01*
X118771428Y-103454819D02*
X118628571Y-103407200D01*
X118628571Y-103407200D02*
X118533333Y-103311961D01*
X118533333Y-103311961D02*
X118485714Y-103216723D01*
X118485714Y-103216723D02*
X118438095Y-103026247D01*
X118438095Y-103026247D02*
X118438095Y-102883390D01*
X118438095Y-102883390D02*
X118485714Y-102692914D01*
X118485714Y-102692914D02*
X118533333Y-102597676D01*
X118533333Y-102597676D02*
X118628571Y-102502438D01*
X118628571Y-102502438D02*
X118771428Y-102454819D01*
X118771428Y-102454819D02*
X118866666Y-102454819D01*
X118866666Y-102454819D02*
X119009523Y-102502438D01*
X119009523Y-102502438D02*
X119057142Y-102550057D01*
X119438095Y-102550057D02*
X119485714Y-102502438D01*
X119485714Y-102502438D02*
X119580952Y-102454819D01*
X119580952Y-102454819D02*
X119819047Y-102454819D01*
X119819047Y-102454819D02*
X119914285Y-102502438D01*
X119914285Y-102502438D02*
X119961904Y-102550057D01*
X119961904Y-102550057D02*
X120009523Y-102645295D01*
X120009523Y-102645295D02*
X120009523Y-102740533D01*
X120009523Y-102740533D02*
X119961904Y-102883390D01*
X119961904Y-102883390D02*
X119390476Y-103454819D01*
X119390476Y-103454819D02*
X120009523Y-103454819D01*
X120580952Y-102883390D02*
X120485714Y-102835771D01*
X120485714Y-102835771D02*
X120438095Y-102788152D01*
X120438095Y-102788152D02*
X120390476Y-102692914D01*
X120390476Y-102692914D02*
X120390476Y-102645295D01*
X120390476Y-102645295D02*
X120438095Y-102550057D01*
X120438095Y-102550057D02*
X120485714Y-102502438D01*
X120485714Y-102502438D02*
X120580952Y-102454819D01*
X120580952Y-102454819D02*
X120771428Y-102454819D01*
X120771428Y-102454819D02*
X120866666Y-102502438D01*
X120866666Y-102502438D02*
X120914285Y-102550057D01*
X120914285Y-102550057D02*
X120961904Y-102645295D01*
X120961904Y-102645295D02*
X120961904Y-102692914D01*
X120961904Y-102692914D02*
X120914285Y-102788152D01*
X120914285Y-102788152D02*
X120866666Y-102835771D01*
X120866666Y-102835771D02*
X120771428Y-102883390D01*
X120771428Y-102883390D02*
X120580952Y-102883390D01*
X120580952Y-102883390D02*
X120485714Y-102931009D01*
X120485714Y-102931009D02*
X120438095Y-102978628D01*
X120438095Y-102978628D02*
X120390476Y-103073866D01*
X120390476Y-103073866D02*
X120390476Y-103264342D01*
X120390476Y-103264342D02*
X120438095Y-103359580D01*
X120438095Y-103359580D02*
X120485714Y-103407200D01*
X120485714Y-103407200D02*
X120580952Y-103454819D01*
X120580952Y-103454819D02*
X120771428Y-103454819D01*
X120771428Y-103454819D02*
X120866666Y-103407200D01*
X120866666Y-103407200D02*
X120914285Y-103359580D01*
X120914285Y-103359580D02*
X120961904Y-103264342D01*
X120961904Y-103264342D02*
X120961904Y-103073866D01*
X120961904Y-103073866D02*
X120914285Y-102978628D01*
X120914285Y-102978628D02*
X120866666Y-102931009D01*
X120866666Y-102931009D02*
X120771428Y-102883390D01*
X157938095Y-122254819D02*
X158509523Y-122254819D01*
X158223809Y-123254819D02*
X158223809Y-122254819D01*
X158842857Y-123254819D02*
X158842857Y-122254819D01*
X158842857Y-122254819D02*
X159223809Y-122254819D01*
X159223809Y-122254819D02*
X159319047Y-122302438D01*
X159319047Y-122302438D02*
X159366666Y-122350057D01*
X159366666Y-122350057D02*
X159414285Y-122445295D01*
X159414285Y-122445295D02*
X159414285Y-122588152D01*
X159414285Y-122588152D02*
X159366666Y-122683390D01*
X159366666Y-122683390D02*
X159319047Y-122731009D01*
X159319047Y-122731009D02*
X159223809Y-122778628D01*
X159223809Y-122778628D02*
X158842857Y-122778628D01*
X160366666Y-123254819D02*
X159795238Y-123254819D01*
X160080952Y-123254819D02*
X160080952Y-122254819D01*
X160080952Y-122254819D02*
X159985714Y-122397676D01*
X159985714Y-122397676D02*
X159890476Y-122492914D01*
X159890476Y-122492914D02*
X159795238Y-122540533D01*
X112416666Y-146554819D02*
X112416666Y-147269104D01*
X112416666Y-147269104D02*
X112369047Y-147411961D01*
X112369047Y-147411961D02*
X112273809Y-147507200D01*
X112273809Y-147507200D02*
X112130952Y-147554819D01*
X112130952Y-147554819D02*
X112035714Y-147554819D01*
X113321428Y-146888152D02*
X113321428Y-147554819D01*
X113083333Y-146507200D02*
X112845238Y-147221485D01*
X112845238Y-147221485D02*
X113464285Y-147221485D01*
X106278571Y-127214700D02*
X107421429Y-127214700D01*
X106850000Y-127786128D02*
X106850000Y-126643271D01*
X118578571Y-127214700D02*
X119721429Y-127214700D01*
X139538095Y-114754819D02*
X140109523Y-114754819D01*
X139823809Y-115754819D02*
X139823809Y-114754819D01*
X140442857Y-115754819D02*
X140442857Y-114754819D01*
X140442857Y-114754819D02*
X140823809Y-114754819D01*
X140823809Y-114754819D02*
X140919047Y-114802438D01*
X140919047Y-114802438D02*
X140966666Y-114850057D01*
X140966666Y-114850057D02*
X141014285Y-114945295D01*
X141014285Y-114945295D02*
X141014285Y-115088152D01*
X141014285Y-115088152D02*
X140966666Y-115183390D01*
X140966666Y-115183390D02*
X140919047Y-115231009D01*
X140919047Y-115231009D02*
X140823809Y-115278628D01*
X140823809Y-115278628D02*
X140442857Y-115278628D01*
X141347619Y-114754819D02*
X142014285Y-114754819D01*
X142014285Y-114754819D02*
X141585714Y-115754819D01*
X128857142Y-121559580D02*
X128809523Y-121607200D01*
X128809523Y-121607200D02*
X128666666Y-121654819D01*
X128666666Y-121654819D02*
X128571428Y-121654819D01*
X128571428Y-121654819D02*
X128428571Y-121607200D01*
X128428571Y-121607200D02*
X128333333Y-121511961D01*
X128333333Y-121511961D02*
X128285714Y-121416723D01*
X128285714Y-121416723D02*
X128238095Y-121226247D01*
X128238095Y-121226247D02*
X128238095Y-121083390D01*
X128238095Y-121083390D02*
X128285714Y-120892914D01*
X128285714Y-120892914D02*
X128333333Y-120797676D01*
X128333333Y-120797676D02*
X128428571Y-120702438D01*
X128428571Y-120702438D02*
X128571428Y-120654819D01*
X128571428Y-120654819D02*
X128666666Y-120654819D01*
X128666666Y-120654819D02*
X128809523Y-120702438D01*
X128809523Y-120702438D02*
X128857142Y-120750057D01*
X129238095Y-120750057D02*
X129285714Y-120702438D01*
X129285714Y-120702438D02*
X129380952Y-120654819D01*
X129380952Y-120654819D02*
X129619047Y-120654819D01*
X129619047Y-120654819D02*
X129714285Y-120702438D01*
X129714285Y-120702438D02*
X129761904Y-120750057D01*
X129761904Y-120750057D02*
X129809523Y-120845295D01*
X129809523Y-120845295D02*
X129809523Y-120940533D01*
X129809523Y-120940533D02*
X129761904Y-121083390D01*
X129761904Y-121083390D02*
X129190476Y-121654819D01*
X129190476Y-121654819D02*
X129809523Y-121654819D01*
X130714285Y-120654819D02*
X130238095Y-120654819D01*
X130238095Y-120654819D02*
X130190476Y-121131009D01*
X130190476Y-121131009D02*
X130238095Y-121083390D01*
X130238095Y-121083390D02*
X130333333Y-121035771D01*
X130333333Y-121035771D02*
X130571428Y-121035771D01*
X130571428Y-121035771D02*
X130666666Y-121083390D01*
X130666666Y-121083390D02*
X130714285Y-121131009D01*
X130714285Y-121131009D02*
X130761904Y-121226247D01*
X130761904Y-121226247D02*
X130761904Y-121464342D01*
X130761904Y-121464342D02*
X130714285Y-121559580D01*
X130714285Y-121559580D02*
X130666666Y-121607200D01*
X130666666Y-121607200D02*
X130571428Y-121654819D01*
X130571428Y-121654819D02*
X130333333Y-121654819D01*
X130333333Y-121654819D02*
X130238095Y-121607200D01*
X130238095Y-121607200D02*
X130190476Y-121559580D01*
X107833333Y-101204819D02*
X107357143Y-101204819D01*
X107357143Y-101204819D02*
X107357143Y-100204819D01*
X108690476Y-101204819D02*
X108119048Y-101204819D01*
X108404762Y-101204819D02*
X108404762Y-100204819D01*
X108404762Y-100204819D02*
X108309524Y-100347676D01*
X108309524Y-100347676D02*
X108214286Y-100442914D01*
X108214286Y-100442914D02*
X108119048Y-100490533D01*
X150066666Y-96854819D02*
X150066666Y-97569104D01*
X150066666Y-97569104D02*
X150019047Y-97711961D01*
X150019047Y-97711961D02*
X149923809Y-97807200D01*
X149923809Y-97807200D02*
X149780952Y-97854819D01*
X149780952Y-97854819D02*
X149685714Y-97854819D01*
X150447619Y-96854819D02*
X151066666Y-96854819D01*
X151066666Y-96854819D02*
X150733333Y-97235771D01*
X150733333Y-97235771D02*
X150876190Y-97235771D01*
X150876190Y-97235771D02*
X150971428Y-97283390D01*
X150971428Y-97283390D02*
X151019047Y-97331009D01*
X151019047Y-97331009D02*
X151066666Y-97426247D01*
X151066666Y-97426247D02*
X151066666Y-97664342D01*
X151066666Y-97664342D02*
X151019047Y-97759580D01*
X151019047Y-97759580D02*
X150971428Y-97807200D01*
X150971428Y-97807200D02*
X150876190Y-97854819D01*
X150876190Y-97854819D02*
X150590476Y-97854819D01*
X150590476Y-97854819D02*
X150495238Y-97807200D01*
X150495238Y-97807200D02*
X150447619Y-97759580D01*
X145238095Y-109254819D02*
X145809523Y-109254819D01*
X145523809Y-110254819D02*
X145523809Y-109254819D01*
X146142857Y-110254819D02*
X146142857Y-109254819D01*
X146142857Y-109254819D02*
X146523809Y-109254819D01*
X146523809Y-109254819D02*
X146619047Y-109302438D01*
X146619047Y-109302438D02*
X146666666Y-109350057D01*
X146666666Y-109350057D02*
X146714285Y-109445295D01*
X146714285Y-109445295D02*
X146714285Y-109588152D01*
X146714285Y-109588152D02*
X146666666Y-109683390D01*
X146666666Y-109683390D02*
X146619047Y-109731009D01*
X146619047Y-109731009D02*
X146523809Y-109778628D01*
X146523809Y-109778628D02*
X146142857Y-109778628D01*
X147571428Y-109254819D02*
X147380952Y-109254819D01*
X147380952Y-109254819D02*
X147285714Y-109302438D01*
X147285714Y-109302438D02*
X147238095Y-109350057D01*
X147238095Y-109350057D02*
X147142857Y-109492914D01*
X147142857Y-109492914D02*
X147095238Y-109683390D01*
X147095238Y-109683390D02*
X147095238Y-110064342D01*
X147095238Y-110064342D02*
X147142857Y-110159580D01*
X147142857Y-110159580D02*
X147190476Y-110207200D01*
X147190476Y-110207200D02*
X147285714Y-110254819D01*
X147285714Y-110254819D02*
X147476190Y-110254819D01*
X147476190Y-110254819D02*
X147571428Y-110207200D01*
X147571428Y-110207200D02*
X147619047Y-110159580D01*
X147619047Y-110159580D02*
X147666666Y-110064342D01*
X147666666Y-110064342D02*
X147666666Y-109826247D01*
X147666666Y-109826247D02*
X147619047Y-109731009D01*
X147619047Y-109731009D02*
X147571428Y-109683390D01*
X147571428Y-109683390D02*
X147476190Y-109635771D01*
X147476190Y-109635771D02*
X147285714Y-109635771D01*
X147285714Y-109635771D02*
X147190476Y-109683390D01*
X147190476Y-109683390D02*
X147142857Y-109731009D01*
X147142857Y-109731009D02*
X147095238Y-109826247D01*
X79109413Y-127791473D02*
X78109413Y-127791473D01*
X78109413Y-127791473D02*
X78109413Y-127553378D01*
X78109413Y-127553378D02*
X78157032Y-127410521D01*
X78157032Y-127410521D02*
X78252270Y-127315283D01*
X78252270Y-127315283D02*
X78347508Y-127267664D01*
X78347508Y-127267664D02*
X78537984Y-127220045D01*
X78537984Y-127220045D02*
X78680841Y-127220045D01*
X78680841Y-127220045D02*
X78871317Y-127267664D01*
X78871317Y-127267664D02*
X78966555Y-127315283D01*
X78966555Y-127315283D02*
X79061794Y-127410521D01*
X79061794Y-127410521D02*
X79109413Y-127553378D01*
X79109413Y-127553378D02*
X79109413Y-127791473D01*
X78204651Y-126839092D02*
X78157032Y-126791473D01*
X78157032Y-126791473D02*
X78109413Y-126696235D01*
X78109413Y-126696235D02*
X78109413Y-126458140D01*
X78109413Y-126458140D02*
X78157032Y-126362902D01*
X78157032Y-126362902D02*
X78204651Y-126315283D01*
X78204651Y-126315283D02*
X78299889Y-126267664D01*
X78299889Y-126267664D02*
X78395127Y-126267664D01*
X78395127Y-126267664D02*
X78537984Y-126315283D01*
X78537984Y-126315283D02*
X79109413Y-126886711D01*
X79109413Y-126886711D02*
X79109413Y-126267664D01*
X118154819Y-107161904D02*
X118154819Y-106590476D01*
X119154819Y-106876190D02*
X118154819Y-106876190D01*
X119154819Y-106257142D02*
X118154819Y-106257142D01*
X118154819Y-106257142D02*
X118154819Y-105876190D01*
X118154819Y-105876190D02*
X118202438Y-105780952D01*
X118202438Y-105780952D02*
X118250057Y-105733333D01*
X118250057Y-105733333D02*
X118345295Y-105685714D01*
X118345295Y-105685714D02*
X118488152Y-105685714D01*
X118488152Y-105685714D02*
X118583390Y-105733333D01*
X118583390Y-105733333D02*
X118631009Y-105780952D01*
X118631009Y-105780952D02*
X118678628Y-105876190D01*
X118678628Y-105876190D02*
X118678628Y-106257142D01*
X118583390Y-105114285D02*
X118535771Y-105209523D01*
X118535771Y-105209523D02*
X118488152Y-105257142D01*
X118488152Y-105257142D02*
X118392914Y-105304761D01*
X118392914Y-105304761D02*
X118345295Y-105304761D01*
X118345295Y-105304761D02*
X118250057Y-105257142D01*
X118250057Y-105257142D02*
X118202438Y-105209523D01*
X118202438Y-105209523D02*
X118154819Y-105114285D01*
X118154819Y-105114285D02*
X118154819Y-104923809D01*
X118154819Y-104923809D02*
X118202438Y-104828571D01*
X118202438Y-104828571D02*
X118250057Y-104780952D01*
X118250057Y-104780952D02*
X118345295Y-104733333D01*
X118345295Y-104733333D02*
X118392914Y-104733333D01*
X118392914Y-104733333D02*
X118488152Y-104780952D01*
X118488152Y-104780952D02*
X118535771Y-104828571D01*
X118535771Y-104828571D02*
X118583390Y-104923809D01*
X118583390Y-104923809D02*
X118583390Y-105114285D01*
X118583390Y-105114285D02*
X118631009Y-105209523D01*
X118631009Y-105209523D02*
X118678628Y-105257142D01*
X118678628Y-105257142D02*
X118773866Y-105304761D01*
X118773866Y-105304761D02*
X118964342Y-105304761D01*
X118964342Y-105304761D02*
X119059580Y-105257142D01*
X119059580Y-105257142D02*
X119107200Y-105209523D01*
X119107200Y-105209523D02*
X119154819Y-105114285D01*
X119154819Y-105114285D02*
X119154819Y-104923809D01*
X119154819Y-104923809D02*
X119107200Y-104828571D01*
X119107200Y-104828571D02*
X119059580Y-104780952D01*
X119059580Y-104780952D02*
X118964342Y-104733333D01*
X118964342Y-104733333D02*
X118773866Y-104733333D01*
X118773866Y-104733333D02*
X118678628Y-104780952D01*
X118678628Y-104780952D02*
X118631009Y-104828571D01*
X118631009Y-104828571D02*
X118583390Y-104923809D01*
X127866666Y-103254819D02*
X127866666Y-103969104D01*
X127866666Y-103969104D02*
X127819047Y-104111961D01*
X127819047Y-104111961D02*
X127723809Y-104207200D01*
X127723809Y-104207200D02*
X127580952Y-104254819D01*
X127580952Y-104254819D02*
X127485714Y-104254819D01*
X128342857Y-104254819D02*
X128342857Y-103254819D01*
X128342857Y-103254819D02*
X128723809Y-103254819D01*
X128723809Y-103254819D02*
X128819047Y-103302438D01*
X128819047Y-103302438D02*
X128866666Y-103350057D01*
X128866666Y-103350057D02*
X128914285Y-103445295D01*
X128914285Y-103445295D02*
X128914285Y-103588152D01*
X128914285Y-103588152D02*
X128866666Y-103683390D01*
X128866666Y-103683390D02*
X128819047Y-103731009D01*
X128819047Y-103731009D02*
X128723809Y-103778628D01*
X128723809Y-103778628D02*
X128342857Y-103778628D01*
X129866666Y-104254819D02*
X129295238Y-104254819D01*
X129580952Y-104254819D02*
X129580952Y-103254819D01*
X129580952Y-103254819D02*
X129485714Y-103397676D01*
X129485714Y-103397676D02*
X129390476Y-103492914D01*
X129390476Y-103492914D02*
X129295238Y-103540533D01*
X95316666Y-145704819D02*
X95316666Y-146419104D01*
X95316666Y-146419104D02*
X95269047Y-146561961D01*
X95269047Y-146561961D02*
X95173809Y-146657200D01*
X95173809Y-146657200D02*
X95030952Y-146704819D01*
X95030952Y-146704819D02*
X94935714Y-146704819D01*
X96269047Y-145704819D02*
X95792857Y-145704819D01*
X95792857Y-145704819D02*
X95745238Y-146181009D01*
X95745238Y-146181009D02*
X95792857Y-146133390D01*
X95792857Y-146133390D02*
X95888095Y-146085771D01*
X95888095Y-146085771D02*
X96126190Y-146085771D01*
X96126190Y-146085771D02*
X96221428Y-146133390D01*
X96221428Y-146133390D02*
X96269047Y-146181009D01*
X96269047Y-146181009D02*
X96316666Y-146276247D01*
X96316666Y-146276247D02*
X96316666Y-146514342D01*
X96316666Y-146514342D02*
X96269047Y-146609580D01*
X96269047Y-146609580D02*
X96221428Y-146657200D01*
X96221428Y-146657200D02*
X96126190Y-146704819D01*
X96126190Y-146704819D02*
X95888095Y-146704819D01*
X95888095Y-146704819D02*
X95792857Y-146657200D01*
X95792857Y-146657200D02*
X95745238Y-146609580D01*
X88869048Y-127323866D02*
X89630953Y-127323866D01*
X100978571Y-127364700D02*
X102121429Y-127364700D01*
X101550000Y-127936128D02*
X101550000Y-126793271D01*
X133157142Y-122009580D02*
X133109523Y-122057200D01*
X133109523Y-122057200D02*
X132966666Y-122104819D01*
X132966666Y-122104819D02*
X132871428Y-122104819D01*
X132871428Y-122104819D02*
X132728571Y-122057200D01*
X132728571Y-122057200D02*
X132633333Y-121961961D01*
X132633333Y-121961961D02*
X132585714Y-121866723D01*
X132585714Y-121866723D02*
X132538095Y-121676247D01*
X132538095Y-121676247D02*
X132538095Y-121533390D01*
X132538095Y-121533390D02*
X132585714Y-121342914D01*
X132585714Y-121342914D02*
X132633333Y-121247676D01*
X132633333Y-121247676D02*
X132728571Y-121152438D01*
X132728571Y-121152438D02*
X132871428Y-121104819D01*
X132871428Y-121104819D02*
X132966666Y-121104819D01*
X132966666Y-121104819D02*
X133109523Y-121152438D01*
X133109523Y-121152438D02*
X133157142Y-121200057D01*
X134109523Y-122104819D02*
X133538095Y-122104819D01*
X133823809Y-122104819D02*
X133823809Y-121104819D01*
X133823809Y-121104819D02*
X133728571Y-121247676D01*
X133728571Y-121247676D02*
X133633333Y-121342914D01*
X133633333Y-121342914D02*
X133538095Y-121390533D01*
X134490476Y-121200057D02*
X134538095Y-121152438D01*
X134538095Y-121152438D02*
X134633333Y-121104819D01*
X134633333Y-121104819D02*
X134871428Y-121104819D01*
X134871428Y-121104819D02*
X134966666Y-121152438D01*
X134966666Y-121152438D02*
X135014285Y-121200057D01*
X135014285Y-121200057D02*
X135061904Y-121295295D01*
X135061904Y-121295295D02*
X135061904Y-121390533D01*
X135061904Y-121390533D02*
X135014285Y-121533390D01*
X135014285Y-121533390D02*
X134442857Y-122104819D01*
X134442857Y-122104819D02*
X135061904Y-122104819D01*
X116261905Y-128454819D02*
X116261905Y-127454819D01*
X116261905Y-127454819D02*
X116500000Y-127454819D01*
X116500000Y-127454819D02*
X116642857Y-127502438D01*
X116642857Y-127502438D02*
X116738095Y-127597676D01*
X116738095Y-127597676D02*
X116785714Y-127692914D01*
X116785714Y-127692914D02*
X116833333Y-127883390D01*
X116833333Y-127883390D02*
X116833333Y-128026247D01*
X116833333Y-128026247D02*
X116785714Y-128216723D01*
X116785714Y-128216723D02*
X116738095Y-128311961D01*
X116738095Y-128311961D02*
X116642857Y-128407200D01*
X116642857Y-128407200D02*
X116500000Y-128454819D01*
X116500000Y-128454819D02*
X116261905Y-128454819D01*
X117690476Y-127454819D02*
X117500000Y-127454819D01*
X117500000Y-127454819D02*
X117404762Y-127502438D01*
X117404762Y-127502438D02*
X117357143Y-127550057D01*
X117357143Y-127550057D02*
X117261905Y-127692914D01*
X117261905Y-127692914D02*
X117214286Y-127883390D01*
X117214286Y-127883390D02*
X117214286Y-128264342D01*
X117214286Y-128264342D02*
X117261905Y-128359580D01*
X117261905Y-128359580D02*
X117309524Y-128407200D01*
X117309524Y-128407200D02*
X117404762Y-128454819D01*
X117404762Y-128454819D02*
X117595238Y-128454819D01*
X117595238Y-128454819D02*
X117690476Y-128407200D01*
X117690476Y-128407200D02*
X117738095Y-128359580D01*
X117738095Y-128359580D02*
X117785714Y-128264342D01*
X117785714Y-128264342D02*
X117785714Y-128026247D01*
X117785714Y-128026247D02*
X117738095Y-127931009D01*
X117738095Y-127931009D02*
X117690476Y-127883390D01*
X117690476Y-127883390D02*
X117595238Y-127835771D01*
X117595238Y-127835771D02*
X117404762Y-127835771D01*
X117404762Y-127835771D02*
X117309524Y-127883390D01*
X117309524Y-127883390D02*
X117261905Y-127931009D01*
X117261905Y-127931009D02*
X117214286Y-128026247D01*
X153638095Y-109754819D02*
X154209523Y-109754819D01*
X153923809Y-110754819D02*
X153923809Y-109754819D01*
X154542857Y-110754819D02*
X154542857Y-109754819D01*
X154542857Y-109754819D02*
X154923809Y-109754819D01*
X154923809Y-109754819D02*
X155019047Y-109802438D01*
X155019047Y-109802438D02*
X155066666Y-109850057D01*
X155066666Y-109850057D02*
X155114285Y-109945295D01*
X155114285Y-109945295D02*
X155114285Y-110088152D01*
X155114285Y-110088152D02*
X155066666Y-110183390D01*
X155066666Y-110183390D02*
X155019047Y-110231009D01*
X155019047Y-110231009D02*
X154923809Y-110278628D01*
X154923809Y-110278628D02*
X154542857Y-110278628D01*
X156019047Y-109754819D02*
X155542857Y-109754819D01*
X155542857Y-109754819D02*
X155495238Y-110231009D01*
X155495238Y-110231009D02*
X155542857Y-110183390D01*
X155542857Y-110183390D02*
X155638095Y-110135771D01*
X155638095Y-110135771D02*
X155876190Y-110135771D01*
X155876190Y-110135771D02*
X155971428Y-110183390D01*
X155971428Y-110183390D02*
X156019047Y-110231009D01*
X156019047Y-110231009D02*
X156066666Y-110326247D01*
X156066666Y-110326247D02*
X156066666Y-110564342D01*
X156066666Y-110564342D02*
X156019047Y-110659580D01*
X156019047Y-110659580D02*
X155971428Y-110707200D01*
X155971428Y-110707200D02*
X155876190Y-110754819D01*
X155876190Y-110754819D02*
X155638095Y-110754819D01*
X155638095Y-110754819D02*
X155542857Y-110707200D01*
X155542857Y-110707200D02*
X155495238Y-110659580D01*
X169204819Y-105095238D02*
X168728628Y-105428571D01*
X169204819Y-105666666D02*
X168204819Y-105666666D01*
X168204819Y-105666666D02*
X168204819Y-105285714D01*
X168204819Y-105285714D02*
X168252438Y-105190476D01*
X168252438Y-105190476D02*
X168300057Y-105142857D01*
X168300057Y-105142857D02*
X168395295Y-105095238D01*
X168395295Y-105095238D02*
X168538152Y-105095238D01*
X168538152Y-105095238D02*
X168633390Y-105142857D01*
X168633390Y-105142857D02*
X168681009Y-105190476D01*
X168681009Y-105190476D02*
X168728628Y-105285714D01*
X168728628Y-105285714D02*
X168728628Y-105666666D01*
X168204819Y-104809523D02*
X169204819Y-104476190D01*
X169204819Y-104476190D02*
X168204819Y-104142857D01*
X169204819Y-103285714D02*
X169204819Y-103857142D01*
X169204819Y-103571428D02*
X168204819Y-103571428D01*
X168204819Y-103571428D02*
X168347676Y-103666666D01*
X168347676Y-103666666D02*
X168442914Y-103761904D01*
X168442914Y-103761904D02*
X168490533Y-103857142D01*
D10*
X170495150Y-111840952D02*
X170447531Y-111936190D01*
X170447531Y-111936190D02*
X170447531Y-112079047D01*
X170447531Y-112079047D02*
X170495150Y-112221904D01*
X170495150Y-112221904D02*
X170590388Y-112317142D01*
X170590388Y-112317142D02*
X170685626Y-112364761D01*
X170685626Y-112364761D02*
X170876102Y-112412380D01*
X170876102Y-112412380D02*
X171018959Y-112412380D01*
X171018959Y-112412380D02*
X171209435Y-112364761D01*
X171209435Y-112364761D02*
X171304673Y-112317142D01*
X171304673Y-112317142D02*
X171399912Y-112221904D01*
X171399912Y-112221904D02*
X171447531Y-112079047D01*
X171447531Y-112079047D02*
X171447531Y-111983809D01*
X171447531Y-111983809D02*
X171399912Y-111840952D01*
X171399912Y-111840952D02*
X171352292Y-111793333D01*
X171352292Y-111793333D02*
X171018959Y-111793333D01*
X171018959Y-111793333D02*
X171018959Y-111983809D01*
X171447531Y-111221904D02*
X171399912Y-111317142D01*
X171399912Y-111317142D02*
X171304673Y-111364761D01*
X171304673Y-111364761D02*
X170447531Y-111364761D01*
X170780864Y-110412380D02*
X171447531Y-110412380D01*
X170780864Y-110840951D02*
X171304673Y-110840951D01*
X171304673Y-110840951D02*
X171399912Y-110793332D01*
X171399912Y-110793332D02*
X171447531Y-110698094D01*
X171447531Y-110698094D02*
X171447531Y-110555237D01*
X171447531Y-110555237D02*
X171399912Y-110459999D01*
X171399912Y-110459999D02*
X171352292Y-110412380D01*
X171399912Y-109555237D02*
X171447531Y-109650475D01*
X171447531Y-109650475D02*
X171447531Y-109840951D01*
X171447531Y-109840951D02*
X171399912Y-109936189D01*
X171399912Y-109936189D02*
X171304673Y-109983808D01*
X171304673Y-109983808D02*
X170923721Y-109983808D01*
X170923721Y-109983808D02*
X170828483Y-109936189D01*
X170828483Y-109936189D02*
X170780864Y-109840951D01*
X170780864Y-109840951D02*
X170780864Y-109650475D01*
X170780864Y-109650475D02*
X170828483Y-109555237D01*
X170828483Y-109555237D02*
X170923721Y-109507618D01*
X170923721Y-109507618D02*
X171018959Y-109507618D01*
X171018959Y-109507618D02*
X171114197Y-109983808D01*
X172962236Y-114293333D02*
X173009856Y-114340952D01*
X173009856Y-114340952D02*
X173057475Y-114483809D01*
X173057475Y-114483809D02*
X173057475Y-114579047D01*
X173057475Y-114579047D02*
X173009856Y-114721904D01*
X173009856Y-114721904D02*
X172914617Y-114817142D01*
X172914617Y-114817142D02*
X172819379Y-114864761D01*
X172819379Y-114864761D02*
X172628903Y-114912380D01*
X172628903Y-114912380D02*
X172486046Y-114912380D01*
X172486046Y-114912380D02*
X172295570Y-114864761D01*
X172295570Y-114864761D02*
X172200332Y-114817142D01*
X172200332Y-114817142D02*
X172105094Y-114721904D01*
X172105094Y-114721904D02*
X172057475Y-114579047D01*
X172057475Y-114579047D02*
X172057475Y-114483809D01*
X172057475Y-114483809D02*
X172105094Y-114340952D01*
X172105094Y-114340952D02*
X172152713Y-114293333D01*
X173057475Y-113721904D02*
X173009856Y-113817142D01*
X173009856Y-113817142D02*
X172962236Y-113864761D01*
X172962236Y-113864761D02*
X172866998Y-113912380D01*
X172866998Y-113912380D02*
X172581284Y-113912380D01*
X172581284Y-113912380D02*
X172486046Y-113864761D01*
X172486046Y-113864761D02*
X172438427Y-113817142D01*
X172438427Y-113817142D02*
X172390808Y-113721904D01*
X172390808Y-113721904D02*
X172390808Y-113579047D01*
X172390808Y-113579047D02*
X172438427Y-113483809D01*
X172438427Y-113483809D02*
X172486046Y-113436190D01*
X172486046Y-113436190D02*
X172581284Y-113388571D01*
X172581284Y-113388571D02*
X172866998Y-113388571D01*
X172866998Y-113388571D02*
X172962236Y-113436190D01*
X172962236Y-113436190D02*
X173009856Y-113483809D01*
X173009856Y-113483809D02*
X173057475Y-113579047D01*
X173057475Y-113579047D02*
X173057475Y-113721904D01*
X173057475Y-112959999D02*
X172390808Y-112959999D01*
X172486046Y-112959999D02*
X172438427Y-112912380D01*
X172438427Y-112912380D02*
X172390808Y-112817142D01*
X172390808Y-112817142D02*
X172390808Y-112674285D01*
X172390808Y-112674285D02*
X172438427Y-112579047D01*
X172438427Y-112579047D02*
X172533665Y-112531428D01*
X172533665Y-112531428D02*
X173057475Y-112531428D01*
X172533665Y-112531428D02*
X172438427Y-112483809D01*
X172438427Y-112483809D02*
X172390808Y-112388571D01*
X172390808Y-112388571D02*
X172390808Y-112245714D01*
X172390808Y-112245714D02*
X172438427Y-112150475D01*
X172438427Y-112150475D02*
X172533665Y-112102856D01*
X172533665Y-112102856D02*
X173057475Y-112102856D01*
X172390808Y-111626666D02*
X173390808Y-111626666D01*
X172438427Y-111626666D02*
X172390808Y-111531428D01*
X172390808Y-111531428D02*
X172390808Y-111340952D01*
X172390808Y-111340952D02*
X172438427Y-111245714D01*
X172438427Y-111245714D02*
X172486046Y-111198095D01*
X172486046Y-111198095D02*
X172581284Y-111150476D01*
X172581284Y-111150476D02*
X172866998Y-111150476D01*
X172866998Y-111150476D02*
X172962236Y-111198095D01*
X172962236Y-111198095D02*
X173009856Y-111245714D01*
X173009856Y-111245714D02*
X173057475Y-111340952D01*
X173057475Y-111340952D02*
X173057475Y-111531428D01*
X173057475Y-111531428D02*
X173009856Y-111626666D01*
X173057475Y-110579047D02*
X173009856Y-110674285D01*
X173009856Y-110674285D02*
X172962236Y-110721904D01*
X172962236Y-110721904D02*
X172866998Y-110769523D01*
X172866998Y-110769523D02*
X172581284Y-110769523D01*
X172581284Y-110769523D02*
X172486046Y-110721904D01*
X172486046Y-110721904D02*
X172438427Y-110674285D01*
X172438427Y-110674285D02*
X172390808Y-110579047D01*
X172390808Y-110579047D02*
X172390808Y-110436190D01*
X172390808Y-110436190D02*
X172438427Y-110340952D01*
X172438427Y-110340952D02*
X172486046Y-110293333D01*
X172486046Y-110293333D02*
X172581284Y-110245714D01*
X172581284Y-110245714D02*
X172866998Y-110245714D01*
X172866998Y-110245714D02*
X172962236Y-110293333D01*
X172962236Y-110293333D02*
X173009856Y-110340952D01*
X173009856Y-110340952D02*
X173057475Y-110436190D01*
X173057475Y-110436190D02*
X173057475Y-110579047D01*
X172390808Y-109817142D02*
X173057475Y-109817142D01*
X172486046Y-109817142D02*
X172438427Y-109769523D01*
X172438427Y-109769523D02*
X172390808Y-109674285D01*
X172390808Y-109674285D02*
X172390808Y-109531428D01*
X172390808Y-109531428D02*
X172438427Y-109436190D01*
X172438427Y-109436190D02*
X172533665Y-109388571D01*
X172533665Y-109388571D02*
X173057475Y-109388571D01*
X173009856Y-108531428D02*
X173057475Y-108626666D01*
X173057475Y-108626666D02*
X173057475Y-108817142D01*
X173057475Y-108817142D02*
X173009856Y-108912380D01*
X173009856Y-108912380D02*
X172914617Y-108959999D01*
X172914617Y-108959999D02*
X172533665Y-108959999D01*
X172533665Y-108959999D02*
X172438427Y-108912380D01*
X172438427Y-108912380D02*
X172390808Y-108817142D01*
X172390808Y-108817142D02*
X172390808Y-108626666D01*
X172390808Y-108626666D02*
X172438427Y-108531428D01*
X172438427Y-108531428D02*
X172533665Y-108483809D01*
X172533665Y-108483809D02*
X172628903Y-108483809D01*
X172628903Y-108483809D02*
X172724141Y-108959999D01*
X172390808Y-108055237D02*
X173057475Y-108055237D01*
X172486046Y-108055237D02*
X172438427Y-108007618D01*
X172438427Y-108007618D02*
X172390808Y-107912380D01*
X172390808Y-107912380D02*
X172390808Y-107769523D01*
X172390808Y-107769523D02*
X172438427Y-107674285D01*
X172438427Y-107674285D02*
X172533665Y-107626666D01*
X172533665Y-107626666D02*
X173057475Y-107626666D01*
X172390808Y-107293332D02*
X172390808Y-106912380D01*
X172057475Y-107150475D02*
X172914617Y-107150475D01*
X172914617Y-107150475D02*
X173009856Y-107102856D01*
X173009856Y-107102856D02*
X173057475Y-107007618D01*
X173057475Y-107007618D02*
X173057475Y-106912380D01*
X174000752Y-113483809D02*
X174000752Y-113102857D01*
X173667419Y-113340952D02*
X174524561Y-113340952D01*
X174524561Y-113340952D02*
X174619800Y-113293333D01*
X174619800Y-113293333D02*
X174667419Y-113198095D01*
X174667419Y-113198095D02*
X174667419Y-113102857D01*
X174667419Y-112626666D02*
X174619800Y-112721904D01*
X174619800Y-112721904D02*
X174572180Y-112769523D01*
X174572180Y-112769523D02*
X174476942Y-112817142D01*
X174476942Y-112817142D02*
X174191228Y-112817142D01*
X174191228Y-112817142D02*
X174095990Y-112769523D01*
X174095990Y-112769523D02*
X174048371Y-112721904D01*
X174048371Y-112721904D02*
X174000752Y-112626666D01*
X174000752Y-112626666D02*
X174000752Y-112483809D01*
X174000752Y-112483809D02*
X174048371Y-112388571D01*
X174048371Y-112388571D02*
X174095990Y-112340952D01*
X174095990Y-112340952D02*
X174191228Y-112293333D01*
X174191228Y-112293333D02*
X174476942Y-112293333D01*
X174476942Y-112293333D02*
X174572180Y-112340952D01*
X174572180Y-112340952D02*
X174619800Y-112388571D01*
X174619800Y-112388571D02*
X174667419Y-112483809D01*
X174667419Y-112483809D02*
X174667419Y-112626666D01*
X174667419Y-111102856D02*
X173667419Y-111102856D01*
X173667419Y-111102856D02*
X173667419Y-110721904D01*
X173667419Y-110721904D02*
X173715038Y-110626666D01*
X173715038Y-110626666D02*
X173762657Y-110579047D01*
X173762657Y-110579047D02*
X173857895Y-110531428D01*
X173857895Y-110531428D02*
X174000752Y-110531428D01*
X174000752Y-110531428D02*
X174095990Y-110579047D01*
X174095990Y-110579047D02*
X174143609Y-110626666D01*
X174143609Y-110626666D02*
X174191228Y-110721904D01*
X174191228Y-110721904D02*
X174191228Y-111102856D01*
X174572180Y-109531428D02*
X174619800Y-109579047D01*
X174619800Y-109579047D02*
X174667419Y-109721904D01*
X174667419Y-109721904D02*
X174667419Y-109817142D01*
X174667419Y-109817142D02*
X174619800Y-109959999D01*
X174619800Y-109959999D02*
X174524561Y-110055237D01*
X174524561Y-110055237D02*
X174429323Y-110102856D01*
X174429323Y-110102856D02*
X174238847Y-110150475D01*
X174238847Y-110150475D02*
X174095990Y-110150475D01*
X174095990Y-110150475D02*
X173905514Y-110102856D01*
X173905514Y-110102856D02*
X173810276Y-110055237D01*
X173810276Y-110055237D02*
X173715038Y-109959999D01*
X173715038Y-109959999D02*
X173667419Y-109817142D01*
X173667419Y-109817142D02*
X173667419Y-109721904D01*
X173667419Y-109721904D02*
X173715038Y-109579047D01*
X173715038Y-109579047D02*
X173762657Y-109531428D01*
X174143609Y-108769523D02*
X174191228Y-108626666D01*
X174191228Y-108626666D02*
X174238847Y-108579047D01*
X174238847Y-108579047D02*
X174334085Y-108531428D01*
X174334085Y-108531428D02*
X174476942Y-108531428D01*
X174476942Y-108531428D02*
X174572180Y-108579047D01*
X174572180Y-108579047D02*
X174619800Y-108626666D01*
X174619800Y-108626666D02*
X174667419Y-108721904D01*
X174667419Y-108721904D02*
X174667419Y-109102856D01*
X174667419Y-109102856D02*
X173667419Y-109102856D01*
X173667419Y-109102856D02*
X173667419Y-108769523D01*
X173667419Y-108769523D02*
X173715038Y-108674285D01*
X173715038Y-108674285D02*
X173762657Y-108626666D01*
X173762657Y-108626666D02*
X173857895Y-108579047D01*
X173857895Y-108579047D02*
X173953133Y-108579047D01*
X173953133Y-108579047D02*
X174048371Y-108626666D01*
X174048371Y-108626666D02*
X174095990Y-108674285D01*
X174095990Y-108674285D02*
X174143609Y-108769523D01*
X174143609Y-108769523D02*
X174143609Y-109102856D01*
D11*
X100534819Y-124833333D02*
X101249104Y-124833333D01*
X101249104Y-124833333D02*
X101391961Y-124880952D01*
X101391961Y-124880952D02*
X101487200Y-124976190D01*
X101487200Y-124976190D02*
X101534819Y-125119047D01*
X101534819Y-125119047D02*
X101534819Y-125214285D01*
X100963390Y-124214285D02*
X100915771Y-124309523D01*
X100915771Y-124309523D02*
X100868152Y-124357142D01*
X100868152Y-124357142D02*
X100772914Y-124404761D01*
X100772914Y-124404761D02*
X100725295Y-124404761D01*
X100725295Y-124404761D02*
X100630057Y-124357142D01*
X100630057Y-124357142D02*
X100582438Y-124309523D01*
X100582438Y-124309523D02*
X100534819Y-124214285D01*
X100534819Y-124214285D02*
X100534819Y-124023809D01*
X100534819Y-124023809D02*
X100582438Y-123928571D01*
X100582438Y-123928571D02*
X100630057Y-123880952D01*
X100630057Y-123880952D02*
X100725295Y-123833333D01*
X100725295Y-123833333D02*
X100772914Y-123833333D01*
X100772914Y-123833333D02*
X100868152Y-123880952D01*
X100868152Y-123880952D02*
X100915771Y-123928571D01*
X100915771Y-123928571D02*
X100963390Y-124023809D01*
X100963390Y-124023809D02*
X100963390Y-124214285D01*
X100963390Y-124214285D02*
X101011009Y-124309523D01*
X101011009Y-124309523D02*
X101058628Y-124357142D01*
X101058628Y-124357142D02*
X101153866Y-124404761D01*
X101153866Y-124404761D02*
X101344342Y-124404761D01*
X101344342Y-124404761D02*
X101439580Y-124357142D01*
X101439580Y-124357142D02*
X101487200Y-124309523D01*
X101487200Y-124309523D02*
X101534819Y-124214285D01*
X101534819Y-124214285D02*
X101534819Y-124023809D01*
X101534819Y-124023809D02*
X101487200Y-123928571D01*
X101487200Y-123928571D02*
X101439580Y-123880952D01*
X101439580Y-123880952D02*
X101344342Y-123833333D01*
X101344342Y-123833333D02*
X101153866Y-123833333D01*
X101153866Y-123833333D02*
X101058628Y-123880952D01*
X101058628Y-123880952D02*
X101011009Y-123928571D01*
X101011009Y-123928571D02*
X100963390Y-124023809D01*
X141916667Y-124657200D02*
X142059524Y-124704819D01*
X142059524Y-124704819D02*
X142297619Y-124704819D01*
X142297619Y-124704819D02*
X142392857Y-124657200D01*
X142392857Y-124657200D02*
X142440476Y-124609580D01*
X142440476Y-124609580D02*
X142488095Y-124514342D01*
X142488095Y-124514342D02*
X142488095Y-124419104D01*
X142488095Y-124419104D02*
X142440476Y-124323866D01*
X142440476Y-124323866D02*
X142392857Y-124276247D01*
X142392857Y-124276247D02*
X142297619Y-124228628D01*
X142297619Y-124228628D02*
X142107143Y-124181009D01*
X142107143Y-124181009D02*
X142011905Y-124133390D01*
X142011905Y-124133390D02*
X141964286Y-124085771D01*
X141964286Y-124085771D02*
X141916667Y-123990533D01*
X141916667Y-123990533D02*
X141916667Y-123895295D01*
X141916667Y-123895295D02*
X141964286Y-123800057D01*
X141964286Y-123800057D02*
X142011905Y-123752438D01*
X142011905Y-123752438D02*
X142107143Y-123704819D01*
X142107143Y-123704819D02*
X142345238Y-123704819D01*
X142345238Y-123704819D02*
X142488095Y-123752438D01*
X142821429Y-123704819D02*
X143059524Y-124704819D01*
X143059524Y-124704819D02*
X143250000Y-123990533D01*
X143250000Y-123990533D02*
X143440476Y-124704819D01*
X143440476Y-124704819D02*
X143678572Y-123704819D01*
X144583333Y-124704819D02*
X144011905Y-124704819D01*
X144297619Y-124704819D02*
X144297619Y-123704819D01*
X144297619Y-123704819D02*
X144202381Y-123847676D01*
X144202381Y-123847676D02*
X144107143Y-123942914D01*
X144107143Y-123942914D02*
X144011905Y-123990533D01*
X127761905Y-124954819D02*
X127761905Y-123954819D01*
X127761905Y-123954819D02*
X128000000Y-123954819D01*
X128000000Y-123954819D02*
X128142857Y-124002438D01*
X128142857Y-124002438D02*
X128238095Y-124097676D01*
X128238095Y-124097676D02*
X128285714Y-124192914D01*
X128285714Y-124192914D02*
X128333333Y-124383390D01*
X128333333Y-124383390D02*
X128333333Y-124526247D01*
X128333333Y-124526247D02*
X128285714Y-124716723D01*
X128285714Y-124716723D02*
X128238095Y-124811961D01*
X128238095Y-124811961D02*
X128142857Y-124907200D01*
X128142857Y-124907200D02*
X128000000Y-124954819D01*
X128000000Y-124954819D02*
X127761905Y-124954819D01*
X128904762Y-124383390D02*
X128809524Y-124335771D01*
X128809524Y-124335771D02*
X128761905Y-124288152D01*
X128761905Y-124288152D02*
X128714286Y-124192914D01*
X128714286Y-124192914D02*
X128714286Y-124145295D01*
X128714286Y-124145295D02*
X128761905Y-124050057D01*
X128761905Y-124050057D02*
X128809524Y-124002438D01*
X128809524Y-124002438D02*
X128904762Y-123954819D01*
X128904762Y-123954819D02*
X129095238Y-123954819D01*
X129095238Y-123954819D02*
X129190476Y-124002438D01*
X129190476Y-124002438D02*
X129238095Y-124050057D01*
X129238095Y-124050057D02*
X129285714Y-124145295D01*
X129285714Y-124145295D02*
X129285714Y-124192914D01*
X129285714Y-124192914D02*
X129238095Y-124288152D01*
X129238095Y-124288152D02*
X129190476Y-124335771D01*
X129190476Y-124335771D02*
X129095238Y-124383390D01*
X129095238Y-124383390D02*
X128904762Y-124383390D01*
X128904762Y-124383390D02*
X128809524Y-124431009D01*
X128809524Y-124431009D02*
X128761905Y-124478628D01*
X128761905Y-124478628D02*
X128714286Y-124573866D01*
X128714286Y-124573866D02*
X128714286Y-124764342D01*
X128714286Y-124764342D02*
X128761905Y-124859580D01*
X128761905Y-124859580D02*
X128809524Y-124907200D01*
X128809524Y-124907200D02*
X128904762Y-124954819D01*
X128904762Y-124954819D02*
X129095238Y-124954819D01*
X129095238Y-124954819D02*
X129190476Y-124907200D01*
X129190476Y-124907200D02*
X129238095Y-124859580D01*
X129238095Y-124859580D02*
X129285714Y-124764342D01*
X129285714Y-124764342D02*
X129285714Y-124573866D01*
X129285714Y-124573866D02*
X129238095Y-124478628D01*
X129238095Y-124478628D02*
X129190476Y-124431009D01*
X129190476Y-124431009D02*
X129095238Y-124383390D01*
X164457142Y-118409580D02*
X164409523Y-118457200D01*
X164409523Y-118457200D02*
X164266666Y-118504819D01*
X164266666Y-118504819D02*
X164171428Y-118504819D01*
X164171428Y-118504819D02*
X164028571Y-118457200D01*
X164028571Y-118457200D02*
X163933333Y-118361961D01*
X163933333Y-118361961D02*
X163885714Y-118266723D01*
X163885714Y-118266723D02*
X163838095Y-118076247D01*
X163838095Y-118076247D02*
X163838095Y-117933390D01*
X163838095Y-117933390D02*
X163885714Y-117742914D01*
X163885714Y-117742914D02*
X163933333Y-117647676D01*
X163933333Y-117647676D02*
X164028571Y-117552438D01*
X164028571Y-117552438D02*
X164171428Y-117504819D01*
X164171428Y-117504819D02*
X164266666Y-117504819D01*
X164266666Y-117504819D02*
X164409523Y-117552438D01*
X164409523Y-117552438D02*
X164457142Y-117600057D01*
X165409523Y-118504819D02*
X164838095Y-118504819D01*
X165123809Y-118504819D02*
X165123809Y-117504819D01*
X165123809Y-117504819D02*
X165028571Y-117647676D01*
X165028571Y-117647676D02*
X164933333Y-117742914D01*
X164933333Y-117742914D02*
X164838095Y-117790533D01*
X166266666Y-117838152D02*
X166266666Y-118504819D01*
X166028571Y-117457200D02*
X165790476Y-118171485D01*
X165790476Y-118171485D02*
X166409523Y-118171485D01*
X158166666Y-129754819D02*
X158166666Y-130469104D01*
X158166666Y-130469104D02*
X158119047Y-130611961D01*
X158119047Y-130611961D02*
X158023809Y-130707200D01*
X158023809Y-130707200D02*
X157880952Y-130754819D01*
X157880952Y-130754819D02*
X157785714Y-130754819D01*
X159071428Y-129754819D02*
X158880952Y-129754819D01*
X158880952Y-129754819D02*
X158785714Y-129802438D01*
X158785714Y-129802438D02*
X158738095Y-129850057D01*
X158738095Y-129850057D02*
X158642857Y-129992914D01*
X158642857Y-129992914D02*
X158595238Y-130183390D01*
X158595238Y-130183390D02*
X158595238Y-130564342D01*
X158595238Y-130564342D02*
X158642857Y-130659580D01*
X158642857Y-130659580D02*
X158690476Y-130707200D01*
X158690476Y-130707200D02*
X158785714Y-130754819D01*
X158785714Y-130754819D02*
X158976190Y-130754819D01*
X158976190Y-130754819D02*
X159071428Y-130707200D01*
X159071428Y-130707200D02*
X159119047Y-130659580D01*
X159119047Y-130659580D02*
X159166666Y-130564342D01*
X159166666Y-130564342D02*
X159166666Y-130326247D01*
X159166666Y-130326247D02*
X159119047Y-130231009D01*
X159119047Y-130231009D02*
X159071428Y-130183390D01*
X159071428Y-130183390D02*
X158976190Y-130135771D01*
X158976190Y-130135771D02*
X158785714Y-130135771D01*
X158785714Y-130135771D02*
X158690476Y-130183390D01*
X158690476Y-130183390D02*
X158642857Y-130231009D01*
X158642857Y-130231009D02*
X158595238Y-130326247D01*
X175557142Y-124659580D02*
X175509523Y-124707200D01*
X175509523Y-124707200D02*
X175366666Y-124754819D01*
X175366666Y-124754819D02*
X175271428Y-124754819D01*
X175271428Y-124754819D02*
X175128571Y-124707200D01*
X175128571Y-124707200D02*
X175033333Y-124611961D01*
X175033333Y-124611961D02*
X174985714Y-124516723D01*
X174985714Y-124516723D02*
X174938095Y-124326247D01*
X174938095Y-124326247D02*
X174938095Y-124183390D01*
X174938095Y-124183390D02*
X174985714Y-123992914D01*
X174985714Y-123992914D02*
X175033333Y-123897676D01*
X175033333Y-123897676D02*
X175128571Y-123802438D01*
X175128571Y-123802438D02*
X175271428Y-123754819D01*
X175271428Y-123754819D02*
X175366666Y-123754819D01*
X175366666Y-123754819D02*
X175509523Y-123802438D01*
X175509523Y-123802438D02*
X175557142Y-123850057D01*
X176509523Y-124754819D02*
X175938095Y-124754819D01*
X176223809Y-124754819D02*
X176223809Y-123754819D01*
X176223809Y-123754819D02*
X176128571Y-123897676D01*
X176128571Y-123897676D02*
X176033333Y-123992914D01*
X176033333Y-123992914D02*
X175938095Y-124040533D01*
X177414285Y-123754819D02*
X176938095Y-123754819D01*
X176938095Y-123754819D02*
X176890476Y-124231009D01*
X176890476Y-124231009D02*
X176938095Y-124183390D01*
X176938095Y-124183390D02*
X177033333Y-124135771D01*
X177033333Y-124135771D02*
X177271428Y-124135771D01*
X177271428Y-124135771D02*
X177366666Y-124183390D01*
X177366666Y-124183390D02*
X177414285Y-124231009D01*
X177414285Y-124231009D02*
X177461904Y-124326247D01*
X177461904Y-124326247D02*
X177461904Y-124564342D01*
X177461904Y-124564342D02*
X177414285Y-124659580D01*
X177414285Y-124659580D02*
X177366666Y-124707200D01*
X177366666Y-124707200D02*
X177271428Y-124754819D01*
X177271428Y-124754819D02*
X177033333Y-124754819D01*
X177033333Y-124754819D02*
X176938095Y-124707200D01*
X176938095Y-124707200D02*
X176890476Y-124659580D01*
X94857142Y-119359580D02*
X94809523Y-119407200D01*
X94809523Y-119407200D02*
X94666666Y-119454819D01*
X94666666Y-119454819D02*
X94571428Y-119454819D01*
X94571428Y-119454819D02*
X94428571Y-119407200D01*
X94428571Y-119407200D02*
X94333333Y-119311961D01*
X94333333Y-119311961D02*
X94285714Y-119216723D01*
X94285714Y-119216723D02*
X94238095Y-119026247D01*
X94238095Y-119026247D02*
X94238095Y-118883390D01*
X94238095Y-118883390D02*
X94285714Y-118692914D01*
X94285714Y-118692914D02*
X94333333Y-118597676D01*
X94333333Y-118597676D02*
X94428571Y-118502438D01*
X94428571Y-118502438D02*
X94571428Y-118454819D01*
X94571428Y-118454819D02*
X94666666Y-118454819D01*
X94666666Y-118454819D02*
X94809523Y-118502438D01*
X94809523Y-118502438D02*
X94857142Y-118550057D01*
X95809523Y-119454819D02*
X95238095Y-119454819D01*
X95523809Y-119454819D02*
X95523809Y-118454819D01*
X95523809Y-118454819D02*
X95428571Y-118597676D01*
X95428571Y-118597676D02*
X95333333Y-118692914D01*
X95333333Y-118692914D02*
X95238095Y-118740533D01*
X96285714Y-119454819D02*
X96476190Y-119454819D01*
X96476190Y-119454819D02*
X96571428Y-119407200D01*
X96571428Y-119407200D02*
X96619047Y-119359580D01*
X96619047Y-119359580D02*
X96714285Y-119216723D01*
X96714285Y-119216723D02*
X96761904Y-119026247D01*
X96761904Y-119026247D02*
X96761904Y-118645295D01*
X96761904Y-118645295D02*
X96714285Y-118550057D01*
X96714285Y-118550057D02*
X96666666Y-118502438D01*
X96666666Y-118502438D02*
X96571428Y-118454819D01*
X96571428Y-118454819D02*
X96380952Y-118454819D01*
X96380952Y-118454819D02*
X96285714Y-118502438D01*
X96285714Y-118502438D02*
X96238095Y-118550057D01*
X96238095Y-118550057D02*
X96190476Y-118645295D01*
X96190476Y-118645295D02*
X96190476Y-118883390D01*
X96190476Y-118883390D02*
X96238095Y-118978628D01*
X96238095Y-118978628D02*
X96285714Y-119026247D01*
X96285714Y-119026247D02*
X96380952Y-119073866D01*
X96380952Y-119073866D02*
X96571428Y-119073866D01*
X96571428Y-119073866D02*
X96666666Y-119026247D01*
X96666666Y-119026247D02*
X96714285Y-118978628D01*
X96714285Y-118978628D02*
X96761904Y-118883390D01*
X146288095Y-124754819D02*
X146859523Y-124754819D01*
X146573809Y-125754819D02*
X146573809Y-124754819D01*
X147192857Y-125754819D02*
X147192857Y-124754819D01*
X147192857Y-124754819D02*
X147573809Y-124754819D01*
X147573809Y-124754819D02*
X147669047Y-124802438D01*
X147669047Y-124802438D02*
X147716666Y-124850057D01*
X147716666Y-124850057D02*
X147764285Y-124945295D01*
X147764285Y-124945295D02*
X147764285Y-125088152D01*
X147764285Y-125088152D02*
X147716666Y-125183390D01*
X147716666Y-125183390D02*
X147669047Y-125231009D01*
X147669047Y-125231009D02*
X147573809Y-125278628D01*
X147573809Y-125278628D02*
X147192857Y-125278628D01*
X148145238Y-124850057D02*
X148192857Y-124802438D01*
X148192857Y-124802438D02*
X148288095Y-124754819D01*
X148288095Y-124754819D02*
X148526190Y-124754819D01*
X148526190Y-124754819D02*
X148621428Y-124802438D01*
X148621428Y-124802438D02*
X148669047Y-124850057D01*
X148669047Y-124850057D02*
X148716666Y-124945295D01*
X148716666Y-124945295D02*
X148716666Y-125040533D01*
X148716666Y-125040533D02*
X148669047Y-125183390D01*
X148669047Y-125183390D02*
X148097619Y-125754819D01*
X148097619Y-125754819D02*
X148716666Y-125754819D01*
X94609580Y-114892857D02*
X94657200Y-114940476D01*
X94657200Y-114940476D02*
X94704819Y-115083333D01*
X94704819Y-115083333D02*
X94704819Y-115178571D01*
X94704819Y-115178571D02*
X94657200Y-115321428D01*
X94657200Y-115321428D02*
X94561961Y-115416666D01*
X94561961Y-115416666D02*
X94466723Y-115464285D01*
X94466723Y-115464285D02*
X94276247Y-115511904D01*
X94276247Y-115511904D02*
X94133390Y-115511904D01*
X94133390Y-115511904D02*
X93942914Y-115464285D01*
X93942914Y-115464285D02*
X93847676Y-115416666D01*
X93847676Y-115416666D02*
X93752438Y-115321428D01*
X93752438Y-115321428D02*
X93704819Y-115178571D01*
X93704819Y-115178571D02*
X93704819Y-115083333D01*
X93704819Y-115083333D02*
X93752438Y-114940476D01*
X93752438Y-114940476D02*
X93800057Y-114892857D01*
X94704819Y-113940476D02*
X94704819Y-114511904D01*
X94704819Y-114226190D02*
X93704819Y-114226190D01*
X93704819Y-114226190D02*
X93847676Y-114321428D01*
X93847676Y-114321428D02*
X93942914Y-114416666D01*
X93942914Y-114416666D02*
X93990533Y-114511904D01*
X93704819Y-113607142D02*
X93704819Y-112940476D01*
X93704819Y-112940476D02*
X94704819Y-113369047D01*
X123511905Y-124704819D02*
X123511905Y-123704819D01*
X123511905Y-123704819D02*
X123750000Y-123704819D01*
X123750000Y-123704819D02*
X123892857Y-123752438D01*
X123892857Y-123752438D02*
X123988095Y-123847676D01*
X123988095Y-123847676D02*
X124035714Y-123942914D01*
X124035714Y-123942914D02*
X124083333Y-124133390D01*
X124083333Y-124133390D02*
X124083333Y-124276247D01*
X124083333Y-124276247D02*
X124035714Y-124466723D01*
X124035714Y-124466723D02*
X123988095Y-124561961D01*
X123988095Y-124561961D02*
X123892857Y-124657200D01*
X123892857Y-124657200D02*
X123750000Y-124704819D01*
X123750000Y-124704819D02*
X123511905Y-124704819D01*
X124988095Y-123704819D02*
X124511905Y-123704819D01*
X124511905Y-123704819D02*
X124464286Y-124181009D01*
X124464286Y-124181009D02*
X124511905Y-124133390D01*
X124511905Y-124133390D02*
X124607143Y-124085771D01*
X124607143Y-124085771D02*
X124845238Y-124085771D01*
X124845238Y-124085771D02*
X124940476Y-124133390D01*
X124940476Y-124133390D02*
X124988095Y-124181009D01*
X124988095Y-124181009D02*
X125035714Y-124276247D01*
X125035714Y-124276247D02*
X125035714Y-124514342D01*
X125035714Y-124514342D02*
X124988095Y-124609580D01*
X124988095Y-124609580D02*
X124940476Y-124657200D01*
X124940476Y-124657200D02*
X124845238Y-124704819D01*
X124845238Y-124704819D02*
X124607143Y-124704819D01*
X124607143Y-124704819D02*
X124511905Y-124657200D01*
X124511905Y-124657200D02*
X124464286Y-124609580D01*
X150138095Y-110054819D02*
X150138095Y-110864342D01*
X150138095Y-110864342D02*
X150185714Y-110959580D01*
X150185714Y-110959580D02*
X150233333Y-111007200D01*
X150233333Y-111007200D02*
X150328571Y-111054819D01*
X150328571Y-111054819D02*
X150519047Y-111054819D01*
X150519047Y-111054819D02*
X150614285Y-111007200D01*
X150614285Y-111007200D02*
X150661904Y-110959580D01*
X150661904Y-110959580D02*
X150709523Y-110864342D01*
X150709523Y-110864342D02*
X150709523Y-110054819D01*
X151090476Y-110054819D02*
X151709523Y-110054819D01*
X151709523Y-110054819D02*
X151376190Y-110435771D01*
X151376190Y-110435771D02*
X151519047Y-110435771D01*
X151519047Y-110435771D02*
X151614285Y-110483390D01*
X151614285Y-110483390D02*
X151661904Y-110531009D01*
X151661904Y-110531009D02*
X151709523Y-110626247D01*
X151709523Y-110626247D02*
X151709523Y-110864342D01*
X151709523Y-110864342D02*
X151661904Y-110959580D01*
X151661904Y-110959580D02*
X151614285Y-111007200D01*
X151614285Y-111007200D02*
X151519047Y-111054819D01*
X151519047Y-111054819D02*
X151233333Y-111054819D01*
X151233333Y-111054819D02*
X151138095Y-111007200D01*
X151138095Y-111007200D02*
X151090476Y-110959580D01*
X143666666Y-129454819D02*
X143666666Y-130169104D01*
X143666666Y-130169104D02*
X143619047Y-130311961D01*
X143619047Y-130311961D02*
X143523809Y-130407200D01*
X143523809Y-130407200D02*
X143380952Y-130454819D01*
X143380952Y-130454819D02*
X143285714Y-130454819D01*
X144047619Y-129454819D02*
X144714285Y-129454819D01*
X144714285Y-129454819D02*
X144285714Y-130454819D01*
X102761905Y-118204819D02*
X102761905Y-117204819D01*
X102761905Y-117204819D02*
X103000000Y-117204819D01*
X103000000Y-117204819D02*
X103142857Y-117252438D01*
X103142857Y-117252438D02*
X103238095Y-117347676D01*
X103238095Y-117347676D02*
X103285714Y-117442914D01*
X103285714Y-117442914D02*
X103333333Y-117633390D01*
X103333333Y-117633390D02*
X103333333Y-117776247D01*
X103333333Y-117776247D02*
X103285714Y-117966723D01*
X103285714Y-117966723D02*
X103238095Y-118061961D01*
X103238095Y-118061961D02*
X103142857Y-118157200D01*
X103142857Y-118157200D02*
X103000000Y-118204819D01*
X103000000Y-118204819D02*
X102761905Y-118204819D01*
X104190476Y-117538152D02*
X104190476Y-118204819D01*
X103952381Y-117157200D02*
X103714286Y-117871485D01*
X103714286Y-117871485D02*
X104333333Y-117871485D01*
X155188095Y-125854819D02*
X155759523Y-125854819D01*
X155473809Y-126854819D02*
X155473809Y-125854819D01*
X156092857Y-126854819D02*
X156092857Y-125854819D01*
X156092857Y-125854819D02*
X156473809Y-125854819D01*
X156473809Y-125854819D02*
X156569047Y-125902438D01*
X156569047Y-125902438D02*
X156616666Y-125950057D01*
X156616666Y-125950057D02*
X156664285Y-126045295D01*
X156664285Y-126045295D02*
X156664285Y-126188152D01*
X156664285Y-126188152D02*
X156616666Y-126283390D01*
X156616666Y-126283390D02*
X156569047Y-126331009D01*
X156569047Y-126331009D02*
X156473809Y-126378628D01*
X156473809Y-126378628D02*
X156092857Y-126378628D01*
X156997619Y-125854819D02*
X157616666Y-125854819D01*
X157616666Y-125854819D02*
X157283333Y-126235771D01*
X157283333Y-126235771D02*
X157426190Y-126235771D01*
X157426190Y-126235771D02*
X157521428Y-126283390D01*
X157521428Y-126283390D02*
X157569047Y-126331009D01*
X157569047Y-126331009D02*
X157616666Y-126426247D01*
X157616666Y-126426247D02*
X157616666Y-126664342D01*
X157616666Y-126664342D02*
X157569047Y-126759580D01*
X157569047Y-126759580D02*
X157521428Y-126807200D01*
X157521428Y-126807200D02*
X157426190Y-126854819D01*
X157426190Y-126854819D02*
X157140476Y-126854819D01*
X157140476Y-126854819D02*
X157045238Y-126807200D01*
X157045238Y-126807200D02*
X156997619Y-126759580D01*
X121257142Y-121259580D02*
X121209523Y-121307200D01*
X121209523Y-121307200D02*
X121066666Y-121354819D01*
X121066666Y-121354819D02*
X120971428Y-121354819D01*
X120971428Y-121354819D02*
X120828571Y-121307200D01*
X120828571Y-121307200D02*
X120733333Y-121211961D01*
X120733333Y-121211961D02*
X120685714Y-121116723D01*
X120685714Y-121116723D02*
X120638095Y-120926247D01*
X120638095Y-120926247D02*
X120638095Y-120783390D01*
X120638095Y-120783390D02*
X120685714Y-120592914D01*
X120685714Y-120592914D02*
X120733333Y-120497676D01*
X120733333Y-120497676D02*
X120828571Y-120402438D01*
X120828571Y-120402438D02*
X120971428Y-120354819D01*
X120971428Y-120354819D02*
X121066666Y-120354819D01*
X121066666Y-120354819D02*
X121209523Y-120402438D01*
X121209523Y-120402438D02*
X121257142Y-120450057D01*
X121638095Y-120450057D02*
X121685714Y-120402438D01*
X121685714Y-120402438D02*
X121780952Y-120354819D01*
X121780952Y-120354819D02*
X122019047Y-120354819D01*
X122019047Y-120354819D02*
X122114285Y-120402438D01*
X122114285Y-120402438D02*
X122161904Y-120450057D01*
X122161904Y-120450057D02*
X122209523Y-120545295D01*
X122209523Y-120545295D02*
X122209523Y-120640533D01*
X122209523Y-120640533D02*
X122161904Y-120783390D01*
X122161904Y-120783390D02*
X121590476Y-121354819D01*
X121590476Y-121354819D02*
X122209523Y-121354819D01*
X123066666Y-120354819D02*
X122876190Y-120354819D01*
X122876190Y-120354819D02*
X122780952Y-120402438D01*
X122780952Y-120402438D02*
X122733333Y-120450057D01*
X122733333Y-120450057D02*
X122638095Y-120592914D01*
X122638095Y-120592914D02*
X122590476Y-120783390D01*
X122590476Y-120783390D02*
X122590476Y-121164342D01*
X122590476Y-121164342D02*
X122638095Y-121259580D01*
X122638095Y-121259580D02*
X122685714Y-121307200D01*
X122685714Y-121307200D02*
X122780952Y-121354819D01*
X122780952Y-121354819D02*
X122971428Y-121354819D01*
X122971428Y-121354819D02*
X123066666Y-121307200D01*
X123066666Y-121307200D02*
X123114285Y-121259580D01*
X123114285Y-121259580D02*
X123161904Y-121164342D01*
X123161904Y-121164342D02*
X123161904Y-120926247D01*
X123161904Y-120926247D02*
X123114285Y-120831009D01*
X123114285Y-120831009D02*
X123066666Y-120783390D01*
X123066666Y-120783390D02*
X122971428Y-120735771D01*
X122971428Y-120735771D02*
X122780952Y-120735771D01*
X122780952Y-120735771D02*
X122685714Y-120783390D01*
X122685714Y-120783390D02*
X122638095Y-120831009D01*
X122638095Y-120831009D02*
X122590476Y-120926247D01*
X87913095Y-110854819D02*
X87913095Y-111664342D01*
X87913095Y-111664342D02*
X87960714Y-111759580D01*
X87960714Y-111759580D02*
X88008333Y-111807200D01*
X88008333Y-111807200D02*
X88103571Y-111854819D01*
X88103571Y-111854819D02*
X88294047Y-111854819D01*
X88294047Y-111854819D02*
X88389285Y-111807200D01*
X88389285Y-111807200D02*
X88436904Y-111759580D01*
X88436904Y-111759580D02*
X88484523Y-111664342D01*
X88484523Y-111664342D02*
X88484523Y-110854819D01*
X89436904Y-110854819D02*
X88960714Y-110854819D01*
X88960714Y-110854819D02*
X88913095Y-111331009D01*
X88913095Y-111331009D02*
X88960714Y-111283390D01*
X88960714Y-111283390D02*
X89055952Y-111235771D01*
X89055952Y-111235771D02*
X89294047Y-111235771D01*
X89294047Y-111235771D02*
X89389285Y-111283390D01*
X89389285Y-111283390D02*
X89436904Y-111331009D01*
X89436904Y-111331009D02*
X89484523Y-111426247D01*
X89484523Y-111426247D02*
X89484523Y-111664342D01*
X89484523Y-111664342D02*
X89436904Y-111759580D01*
X89436904Y-111759580D02*
X89389285Y-111807200D01*
X89389285Y-111807200D02*
X89294047Y-111854819D01*
X89294047Y-111854819D02*
X89055952Y-111854819D01*
X89055952Y-111854819D02*
X88960714Y-111807200D01*
X88960714Y-111807200D02*
X88913095Y-111759580D01*
D12*
%TO.C,C27*%
X84790000Y-121029437D02*
X84790000Y-126785000D01*
X84790000Y-126785000D02*
X87140000Y-126785000D01*
X85854437Y-119965000D02*
X84790000Y-121029437D01*
X85854437Y-119965000D02*
X87140000Y-119965000D01*
X90047500Y-118937500D02*
X90047500Y-119725000D01*
X90441250Y-119331250D02*
X89653750Y-119331250D01*
X90545563Y-119965000D02*
X89260000Y-119965000D01*
X90545563Y-119965000D02*
X91610000Y-121029437D01*
X91610000Y-121029437D02*
X91610000Y-126785000D01*
X91610000Y-126785000D02*
X89260000Y-126785000D01*
%TO.C,U1*%
X140265000Y-104200000D02*
X140265000Y-102000000D01*
X140265000Y-104200000D02*
X140265000Y-106400000D01*
X148335000Y-104200000D02*
X148335000Y-102000000D01*
X148335000Y-104200000D02*
X148335000Y-106400000D01*
X147875000Y-100340000D02*
X147635000Y-100010000D01*
X148115000Y-100010000D01*
X147875000Y-100340000D01*
G36*
X147875000Y-100340000D02*
G01*
X147635000Y-100010000D01*
X148115000Y-100010000D01*
X147875000Y-100340000D01*
G37*
%TO.C,TP4*%
X161550000Y-109550000D02*
G75*
G02*
X160150000Y-109550000I-700000J0D01*
G01*
X160150000Y-109550000D02*
G75*
G02*
X161550000Y-109550000I700000J0D01*
G01*
%TO.C,C28*%
X119840000Y-104090000D02*
X122190000Y-104090000D01*
X119840000Y-109845563D02*
X119840000Y-104090000D01*
X120904437Y-110910000D02*
X119840000Y-109845563D01*
X120904437Y-110910000D02*
X122190000Y-110910000D01*
X121008750Y-111543750D02*
X121796250Y-111543750D01*
X121402500Y-111937500D02*
X121402500Y-111150000D01*
X125595563Y-110910000D02*
X124310000Y-110910000D01*
X125595563Y-110910000D02*
X126660000Y-109845563D01*
X126660000Y-104090000D02*
X124310000Y-104090000D01*
X126660000Y-109845563D02*
X126660000Y-104090000D01*
%TO.C,TP1*%
X157350000Y-122950000D02*
G75*
G02*
X155950000Y-122950000I-700000J0D01*
G01*
X155950000Y-122950000D02*
G75*
G02*
X157350000Y-122950000I700000J0D01*
G01*
%TO.C,J4*%
X104890000Y-146060000D02*
X104890000Y-131750000D01*
X114040000Y-127640000D02*
X110300000Y-127640000D01*
X120610000Y-146060000D02*
X104890000Y-146060000D01*
X120610000Y-146060000D02*
X120610000Y-131750000D01*
X104890000Y-131750000D02*
G75*
G02*
X107798352Y-127819587I4110000J0D01*
G01*
X118616806Y-128227042D02*
G75*
G02*
X120610000Y-131750000I-2116805J-3522957D01*
G01*
%TO.C,J2*%
X107620000Y-92958272D02*
X108190000Y-92958272D01*
X107620000Y-98158272D02*
X107620000Y-92958272D01*
X107620000Y-98158272D02*
X108190000Y-98158272D01*
X108190000Y-92958272D02*
X108190000Y-91598272D01*
X109710000Y-92958272D02*
X110730000Y-92958272D01*
X109710000Y-98158272D02*
X110730000Y-98158272D01*
X112250000Y-92958272D02*
X113270000Y-92958272D01*
X112250000Y-98158272D02*
X113270000Y-98158272D01*
X114790000Y-92958272D02*
X115810000Y-92958272D01*
X114790000Y-98158272D02*
X115810000Y-98158272D01*
X117330000Y-92958272D02*
X118350000Y-92958272D01*
X117330000Y-98158272D02*
X118350000Y-98158272D01*
X119870000Y-92958272D02*
X120890000Y-92958272D01*
X119870000Y-98158272D02*
X120890000Y-98158272D01*
X122410000Y-92958272D02*
X123430000Y-92958272D01*
X122410000Y-98158272D02*
X123430000Y-98158272D01*
X124950000Y-92958272D02*
X125970000Y-92958272D01*
X124950000Y-98158272D02*
X125970000Y-98158272D01*
X127490000Y-92958272D02*
X128510000Y-92958272D01*
X127490000Y-98158272D02*
X128510000Y-98158272D01*
X130030000Y-92958272D02*
X131050000Y-92958272D01*
X130030000Y-98158272D02*
X131050000Y-98158272D01*
X132570000Y-92958272D02*
X133590000Y-92958272D01*
X132570000Y-98158272D02*
X133590000Y-98158272D01*
X135110000Y-92958272D02*
X136130000Y-92958272D01*
X135110000Y-98158272D02*
X136130000Y-98158272D01*
X137650000Y-92958272D02*
X138670000Y-92958272D01*
X137650000Y-98158272D02*
X138670000Y-98158272D01*
X140190000Y-92958272D02*
X141210000Y-92958272D01*
X140190000Y-98158272D02*
X141210000Y-98158272D01*
X142730000Y-92958272D02*
X143750000Y-92958272D01*
X142730000Y-98158272D02*
X143750000Y-98158272D01*
X145270000Y-92958272D02*
X146290000Y-92958272D01*
X145270000Y-98158272D02*
X146290000Y-98158272D01*
X147810000Y-92958272D02*
X148380000Y-92958272D01*
X147810000Y-98158272D02*
X148380000Y-98158272D01*
X148380000Y-98158272D02*
X148380000Y-92958272D01*
%TO.C,JP3*%
X127335000Y-109800000D02*
X130135000Y-109800000D01*
X127335000Y-111800000D02*
X127335000Y-109800000D01*
X130135000Y-109800000D02*
X130135000Y-111800000D01*
X130135000Y-111800000D02*
X127335000Y-111800000D01*
%TO.C,TP7*%
X139300000Y-115700000D02*
G75*
G02*
X137900000Y-115700000I-700000J0D01*
G01*
X137900000Y-115700000D02*
G75*
G02*
X139300000Y-115700000I700000J0D01*
G01*
%TO.C,C25*%
X123440000Y-114454437D02*
X123440000Y-120210000D01*
X123440000Y-120210000D02*
X125790000Y-120210000D01*
X124504437Y-113390000D02*
X123440000Y-114454437D01*
X124504437Y-113390000D02*
X125790000Y-113390000D01*
X128697500Y-112362500D02*
X128697500Y-113150000D01*
X129091250Y-112756250D02*
X128303750Y-112756250D01*
X129195563Y-113390000D02*
X127910000Y-113390000D01*
X129195563Y-113390000D02*
X130260000Y-114454437D01*
X130260000Y-114454437D02*
X130260000Y-120210000D01*
X130260000Y-120210000D02*
X127910000Y-120210000D01*
%TO.C,L1*%
X101490000Y-101490000D02*
X101490000Y-105040000D01*
X101490000Y-101490000D02*
X114510000Y-101490000D01*
X101490000Y-114510000D02*
X101490000Y-110960000D01*
X101490000Y-114510000D02*
X114510000Y-114510000D01*
X114510000Y-101490000D02*
X114510000Y-105040000D01*
X114510000Y-114510000D02*
X114510000Y-110960000D01*
%TO.C,J3*%
X149790000Y-101380000D02*
X149790000Y-100000000D01*
X151170000Y-101380000D02*
X149790000Y-101380000D01*
X152440000Y-98620000D02*
X160170000Y-98620000D01*
X152440000Y-101380000D02*
X152440000Y-98620000D01*
X152440000Y-101380000D02*
X160170000Y-101380000D01*
X160170000Y-101380000D02*
X160170000Y-98620000D01*
%TO.C,TP6*%
X146700000Y-111700000D02*
G75*
G02*
X145300000Y-111700000I-700000J0D01*
G01*
X145300000Y-111700000D02*
G75*
G02*
X146700000Y-111700000I700000J0D01*
G01*
D11*
%TO.C,U2*%
X164090000Y-98250000D02*
X164090000Y-98340000D01*
X164090000Y-98250000D02*
X167910000Y-98250000D01*
X164090000Y-103250000D02*
X164090000Y-103160000D01*
X167910000Y-98250000D02*
X167910000Y-98340000D01*
X167910000Y-103250000D02*
X164090000Y-103250000D01*
X167910000Y-103250000D02*
X167910000Y-103160000D01*
X168280000Y-103250000D02*
G75*
G02*
X168220000Y-103250000I-30000J0D01*
G01*
X168220000Y-103250000D02*
G75*
G02*
X168280000Y-103250000I30000J0D01*
G01*
D13*
%TO.C,D2*%
X78140000Y-117900000D02*
X78140000Y-125100000D01*
X79110000Y-117900000D02*
X78140000Y-117900000D01*
X79110000Y-125100000D02*
X78140000Y-125100000D01*
X80740000Y-121500000D02*
X81760000Y-121500000D01*
X80740000Y-122520000D02*
X81760000Y-122520000D01*
X81250000Y-121500000D02*
X80740000Y-121500000D01*
X81250000Y-121500000D02*
X80740000Y-122520000D01*
X81250000Y-123020000D02*
X81250000Y-120990000D01*
X81760000Y-122520000D02*
X81250000Y-121500000D01*
X84360000Y-117900000D02*
X83390000Y-117900000D01*
X84360000Y-117900000D02*
X84360000Y-125100000D01*
X84360000Y-120310000D02*
X78140000Y-120310000D01*
X84360000Y-125100000D02*
X83390000Y-125100000D01*
D14*
X84230000Y-125440000D02*
G75*
G02*
X84170000Y-125440000I-30000J0D01*
G01*
X84170000Y-125440000D02*
G75*
G02*
X84230000Y-125440000I30000J0D01*
G01*
D12*
%TO.C,TP8*%
X119400000Y-108400000D02*
G75*
G02*
X118000000Y-108400000I-700000J0D01*
G01*
X118000000Y-108400000D02*
G75*
G02*
X119400000Y-108400000I700000J0D01*
G01*
%TO.C,JP1*%
X127300000Y-104700000D02*
X130100000Y-104700000D01*
X127300000Y-106700000D02*
X127300000Y-104700000D01*
X130100000Y-104700000D02*
X130100000Y-106700000D01*
X130100000Y-106700000D02*
X127300000Y-106700000D01*
%TO.C,J5*%
X87790000Y-137510000D02*
X87790000Y-131900000D01*
X88640000Y-137510000D02*
X87790000Y-137510000D01*
X88640000Y-145210000D02*
X88640000Y-137510000D01*
X98100000Y-127790000D02*
X94360000Y-127790000D01*
X102660000Y-145210000D02*
X88640000Y-145210000D01*
X102660000Y-145210000D02*
X102660000Y-137510000D01*
X103510000Y-137510000D02*
X102660000Y-137510000D01*
X103510000Y-137510000D02*
X103510000Y-131900000D01*
X87790000Y-131900000D02*
G75*
G02*
X89783194Y-128377042I4110000J0D01*
G01*
X100639900Y-127941282D02*
G75*
G02*
X103510000Y-131900000I-1239898J-3918716D01*
G01*
%TO.C,C12*%
X130590000Y-113904437D02*
X130590000Y-119660000D01*
X130590000Y-119660000D02*
X132940000Y-119660000D01*
X131654437Y-112840000D02*
X130590000Y-113904437D01*
X131654437Y-112840000D02*
X132940000Y-112840000D01*
X135847500Y-111812500D02*
X135847500Y-112600000D01*
X136241250Y-112206250D02*
X135453750Y-112206250D01*
X136345563Y-112840000D02*
X135060000Y-112840000D01*
X136345563Y-112840000D02*
X137410000Y-113904437D01*
X137410000Y-113904437D02*
X137410000Y-119660000D01*
X137410000Y-119660000D02*
X135060000Y-119660000D01*
%TO.C,JP2*%
X127300000Y-107230000D02*
X130100000Y-107230000D01*
X127300000Y-109230000D02*
X127300000Y-107230000D01*
X130100000Y-107230000D02*
X130100000Y-109230000D01*
X130100000Y-109230000D02*
X127300000Y-109230000D01*
D13*
%TO.C,D6*%
X113400000Y-121860000D02*
X113400000Y-120890000D01*
X113400000Y-127110000D02*
X113400000Y-126140000D01*
X115480000Y-124000000D02*
X117510000Y-124000000D01*
X115980000Y-123490000D02*
X115980000Y-124510000D01*
X115980000Y-124510000D02*
X117000000Y-124000000D01*
X117000000Y-123490000D02*
X117000000Y-124510000D01*
X117000000Y-124000000D02*
X115980000Y-123490000D01*
X117000000Y-124000000D02*
X117000000Y-123490000D01*
X118190000Y-127110000D02*
X118190000Y-120890000D01*
X120600000Y-120890000D02*
X113400000Y-120890000D01*
X120600000Y-121860000D02*
X120600000Y-120890000D01*
X120600000Y-127110000D02*
X113400000Y-127110000D01*
X120600000Y-127110000D02*
X120600000Y-126140000D01*
D14*
X113090000Y-126950000D02*
G75*
G02*
X113030000Y-126950000I-30000J0D01*
G01*
X113030000Y-126950000D02*
G75*
G02*
X113090000Y-126950000I30000J0D01*
G01*
D12*
%TO.C,TP5*%
X156100000Y-112050000D02*
G75*
G02*
X154700000Y-112050000I-700000J0D01*
G01*
X154700000Y-112050000D02*
G75*
G02*
X156100000Y-112050000I700000J0D01*
G01*
%TO.C,RV1*%
D10*
X167795000Y-115710000D02*
X177795000Y-115710000D01*
X177795000Y-106210000D01*
X167795000Y-106210000D01*
X167795000Y-115710000D01*
X177795000Y-107960000D02*
X179295000Y-107960000D01*
X179295000Y-106460000D01*
X177795000Y-106460000D01*
X177795000Y-107960000D01*
D12*
%TO.C,J8*%
X102080000Y-125880000D02*
X102080000Y-124500000D01*
X103460000Y-125880000D02*
X102080000Y-125880000D01*
X104730000Y-123120000D02*
X109920000Y-123120000D01*
X104730000Y-125880000D02*
X104730000Y-123120000D01*
X104730000Y-125880000D02*
X109920000Y-125880000D01*
X109920000Y-125880000D02*
X109920000Y-123120000D01*
%TO.C,SW1*%
X135030000Y-126920000D02*
X135030000Y-125770000D01*
X135030000Y-129460000D02*
X135030000Y-128840000D01*
X135030000Y-132000000D02*
X135030000Y-131380000D01*
X135030000Y-134540000D02*
X135030000Y-133920000D01*
X135030000Y-137610000D02*
X135030000Y-136460000D01*
X139043333Y-128515000D02*
X139043333Y-127245000D01*
X139043333Y-131055000D02*
X139043333Y-129785000D01*
X139043333Y-133595000D02*
X139043333Y-132325000D01*
X139043333Y-136135000D02*
X139043333Y-134865000D01*
X141850000Y-125770000D02*
X135030000Y-125770000D01*
X141850000Y-126920000D02*
X141850000Y-125770000D01*
X141850000Y-129460000D02*
X141850000Y-128840000D01*
X141850000Y-132000000D02*
X141850000Y-131380000D01*
X141850000Y-134460000D02*
X141850000Y-133920000D01*
X141850000Y-137610000D02*
X135030000Y-137610000D01*
X141850000Y-137610000D02*
X141850000Y-136540000D01*
X142090000Y-137850000D02*
X140707000Y-137850000D01*
X142090000Y-137850000D02*
X142090000Y-136540000D01*
X140250000Y-128515000D02*
X136630000Y-128515000D01*
X136630000Y-127245000D01*
X140250000Y-127245000D01*
X140250000Y-128515000D01*
X140250000Y-128515000D02*
X139043333Y-128515000D01*
X139043333Y-127245000D01*
X140250000Y-127245000D01*
X140250000Y-128515000D01*
G36*
X140250000Y-128515000D02*
G01*
X139043333Y-128515000D01*
X139043333Y-127245000D01*
X140250000Y-127245000D01*
X140250000Y-128515000D01*
G37*
X140250000Y-131055000D02*
X136630000Y-131055000D01*
X136630000Y-129785000D01*
X140250000Y-129785000D01*
X140250000Y-131055000D01*
X140250000Y-131055000D02*
X139043333Y-131055000D01*
X139043333Y-129785000D01*
X140250000Y-129785000D01*
X140250000Y-131055000D01*
G36*
X140250000Y-131055000D02*
G01*
X139043333Y-131055000D01*
X139043333Y-129785000D01*
X140250000Y-129785000D01*
X140250000Y-131055000D01*
G37*
X140250000Y-133595000D02*
X136630000Y-133595000D01*
X136630000Y-132325000D01*
X140250000Y-132325000D01*
X140250000Y-133595000D01*
X140250000Y-133595000D02*
X139043333Y-133595000D01*
X139043333Y-132325000D01*
X140250000Y-132325000D01*
X140250000Y-133595000D01*
G36*
X140250000Y-133595000D02*
G01*
X139043333Y-133595000D01*
X139043333Y-132325000D01*
X140250000Y-132325000D01*
X140250000Y-133595000D01*
G37*
X140250000Y-136135000D02*
X136630000Y-136135000D01*
X136630000Y-134865000D01*
X140250000Y-134865000D01*
X140250000Y-136135000D01*
X140250000Y-136135000D02*
X139043333Y-136135000D01*
X139043333Y-134865000D01*
X140250000Y-134865000D01*
X140250000Y-136135000D01*
G36*
X140250000Y-136135000D02*
G01*
X139043333Y-136135000D01*
X139043333Y-134865000D01*
X140250000Y-134865000D01*
X140250000Y-136135000D01*
G37*
D13*
%TO.C,D8*%
X127410000Y-126650000D02*
X127410000Y-133850000D01*
X128380000Y-126650000D02*
X127410000Y-126650000D01*
X128380000Y-133850000D02*
X127410000Y-133850000D01*
X130010000Y-130250000D02*
X131030000Y-130250000D01*
X130010000Y-131270000D02*
X131030000Y-131270000D01*
X130520000Y-130250000D02*
X130010000Y-130250000D01*
X130520000Y-130250000D02*
X130010000Y-131270000D01*
X130520000Y-131770000D02*
X130520000Y-129740000D01*
X131030000Y-131270000D02*
X130520000Y-130250000D01*
X133630000Y-126650000D02*
X132660000Y-126650000D01*
X133630000Y-126650000D02*
X133630000Y-133850000D01*
X133630000Y-129060000D02*
X127410000Y-129060000D01*
X133630000Y-133850000D02*
X132660000Y-133850000D01*
D14*
X133500000Y-134190000D02*
G75*
G02*
X133440000Y-134190000I-30000J0D01*
G01*
X133440000Y-134190000D02*
G75*
G02*
X133500000Y-134190000I30000J0D01*
G01*
D12*
%TO.C,C14*%
X167012500Y-117852500D02*
X167800000Y-117852500D01*
X167406250Y-117458750D02*
X167406250Y-118246250D01*
X168040000Y-117354437D02*
X168040000Y-118640000D01*
X168040000Y-117354437D02*
X169104437Y-116290000D01*
X168040000Y-122045563D02*
X168040000Y-120760000D01*
X168040000Y-122045563D02*
X169104437Y-123110000D01*
X169104437Y-116290000D02*
X174860000Y-116290000D01*
X169104437Y-123110000D02*
X174860000Y-123110000D01*
X174860000Y-116290000D02*
X174860000Y-118640000D01*
X174860000Y-123110000D02*
X174860000Y-120760000D01*
%TO.C,J6*%
X158440000Y-131340000D02*
X159860000Y-131340000D01*
X158440000Y-143060000D02*
X158440000Y-131340000D01*
X159860000Y-131340000D02*
X159860000Y-135840000D01*
X160700000Y-133250000D02*
X161300000Y-133250000D01*
X160750000Y-136950000D02*
X160750000Y-142450000D01*
X160750000Y-142450000D02*
X161250000Y-142450000D01*
X161000000Y-133850000D02*
X160700000Y-133250000D01*
X161250000Y-136950000D02*
X160750000Y-136950000D01*
X161250000Y-142450000D02*
X161250000Y-136950000D01*
X161300000Y-133250000D02*
X161000000Y-133850000D01*
X163250000Y-136950000D02*
X163250000Y-142450000D01*
X163250000Y-142450000D02*
X163750000Y-142450000D01*
X163500000Y-143060000D02*
X158440000Y-143060000D01*
X163500000Y-143060000D02*
X168560000Y-143060000D01*
X163750000Y-136950000D02*
X163250000Y-136950000D01*
X163750000Y-142450000D02*
X163750000Y-136950000D01*
X165750000Y-136950000D02*
X165750000Y-142450000D01*
X165750000Y-142450000D02*
X166250000Y-142450000D01*
X166250000Y-136950000D02*
X165750000Y-136950000D01*
X166250000Y-142450000D02*
X166250000Y-136950000D01*
X167140000Y-131340000D02*
X167140000Y-135840000D01*
X168560000Y-131340000D02*
X167140000Y-131340000D01*
X168560000Y-143060000D02*
X168560000Y-131340000D01*
%TO.C,C15*%
X166762500Y-125102500D02*
X167550000Y-125102500D01*
X167156250Y-124708750D02*
X167156250Y-125496250D01*
X167790000Y-124604437D02*
X167790000Y-125890000D01*
X167790000Y-124604437D02*
X168854437Y-123540000D01*
X167790000Y-129295563D02*
X167790000Y-128010000D01*
X167790000Y-129295563D02*
X168854437Y-130360000D01*
X168854437Y-123540000D02*
X174610000Y-123540000D01*
X168854437Y-130360000D02*
X174610000Y-130360000D01*
X174610000Y-123540000D02*
X174610000Y-125890000D01*
X174610000Y-130360000D02*
X174610000Y-128010000D01*
%TO.C,C19*%
X93090000Y-119840000D02*
X93090000Y-122190000D01*
X93090000Y-126660000D02*
X93090000Y-124310000D01*
X98845563Y-119840000D02*
X93090000Y-119840000D01*
X98845563Y-126660000D02*
X93090000Y-126660000D01*
X99910000Y-120904437D02*
X98845563Y-119840000D01*
X99910000Y-120904437D02*
X99910000Y-122190000D01*
X99910000Y-125595563D02*
X98845563Y-126660000D01*
X99910000Y-125595563D02*
X99910000Y-124310000D01*
X100543750Y-125491250D02*
X100543750Y-124703750D01*
X100937500Y-125097500D02*
X100150000Y-125097500D01*
%TO.C,TP2*%
X150700000Y-124850000D02*
G75*
G02*
X149300000Y-124850000I-700000J0D01*
G01*
X149300000Y-124850000D02*
G75*
G02*
X150700000Y-124850000I700000J0D01*
G01*
%TO.C,C17*%
X84890000Y-111590000D02*
X84890000Y-113940000D01*
X84890000Y-118410000D02*
X84890000Y-116060000D01*
X90645563Y-111590000D02*
X84890000Y-111590000D01*
X90645563Y-118410000D02*
X84890000Y-118410000D01*
X91710000Y-112654437D02*
X90645563Y-111590000D01*
X91710000Y-112654437D02*
X91710000Y-113940000D01*
X91710000Y-117345563D02*
X90645563Y-118410000D01*
X91710000Y-117345563D02*
X91710000Y-116060000D01*
X92343750Y-117241250D02*
X92343750Y-116453750D01*
X92737500Y-116847500D02*
X91950000Y-116847500D01*
D13*
%TO.C,D5*%
X121390000Y-126650000D02*
X122360000Y-126650000D01*
X121390000Y-131440000D02*
X127610000Y-131440000D01*
X121390000Y-133850000D02*
X121390000Y-126650000D01*
X121390000Y-133850000D02*
X122360000Y-133850000D01*
X123990000Y-129230000D02*
X124500000Y-130250000D01*
X124500000Y-128730000D02*
X124500000Y-130760000D01*
X124500000Y-130250000D02*
X125010000Y-129230000D01*
X124500000Y-130250000D02*
X125010000Y-130250000D01*
X125010000Y-129230000D02*
X123990000Y-129230000D01*
X125010000Y-130250000D02*
X123990000Y-130250000D01*
X126640000Y-126650000D02*
X127610000Y-126650000D01*
X126640000Y-133850000D02*
X127610000Y-133850000D01*
X127610000Y-133850000D02*
X127610000Y-126650000D01*
D14*
X121580000Y-126310000D02*
G75*
G02*
X121520000Y-126310000I-30000J0D01*
G01*
X121520000Y-126310000D02*
G75*
G02*
X121580000Y-126310000I30000J0D01*
G01*
D12*
%TO.C,U3*%
X147015000Y-113015000D02*
X147465000Y-113015000D01*
X147015000Y-113465000D02*
X147015000Y-113015000D01*
X147015000Y-119785000D02*
X147015000Y-120235000D01*
X147015000Y-120235000D02*
X147465000Y-120235000D01*
X154235000Y-113015000D02*
X153785000Y-113015000D01*
X154235000Y-113465000D02*
X154235000Y-113015000D01*
X154235000Y-119785000D02*
X154235000Y-120235000D01*
X154235000Y-120235000D02*
X153785000Y-120235000D01*
X154255000Y-112765000D02*
X153785000Y-112425000D01*
X154255000Y-112085000D01*
X154255000Y-112765000D01*
G36*
X154255000Y-112765000D02*
G01*
X153785000Y-112425000D01*
X154255000Y-112085000D01*
X154255000Y-112765000D01*
G37*
D11*
%TO.C,D7*%
X174603662Y-100627037D02*
X174603662Y-102917037D01*
X174603662Y-102917037D02*
X176063662Y-102917037D01*
X176063662Y-102917037D02*
X176063662Y-100627037D01*
D12*
%TO.C,J7*%
X143940000Y-131245000D02*
X145360000Y-131245000D01*
X143940000Y-142965000D02*
X143940000Y-131245000D01*
X145360000Y-131245000D02*
X145360000Y-135745000D01*
X145360000Y-135745000D02*
X150250000Y-135745000D01*
X146200000Y-131555000D02*
X146800000Y-131555000D01*
X146250000Y-136855000D02*
X146250000Y-142355000D01*
X146250000Y-142355000D02*
X146750000Y-142355000D01*
X146500000Y-132155000D02*
X146200000Y-131555000D01*
X146750000Y-136855000D02*
X146250000Y-136855000D01*
X146750000Y-142355000D02*
X146750000Y-136855000D01*
X146800000Y-131555000D02*
X146500000Y-132155000D01*
X148750000Y-136855000D02*
X148750000Y-142355000D01*
X148750000Y-142355000D02*
X149250000Y-142355000D01*
X149250000Y-136855000D02*
X148750000Y-136855000D01*
X149250000Y-142355000D02*
X149250000Y-136855000D01*
X150250000Y-142965000D02*
X143940000Y-142965000D01*
X150250000Y-142965000D02*
X156560000Y-142965000D01*
X151250000Y-136855000D02*
X151250000Y-142355000D01*
X151250000Y-142355000D02*
X151750000Y-142355000D01*
X151750000Y-136855000D02*
X151250000Y-136855000D01*
X151750000Y-142355000D02*
X151750000Y-136855000D01*
X153750000Y-136855000D02*
X153750000Y-142355000D01*
X153750000Y-142355000D02*
X154250000Y-142355000D01*
X154250000Y-136855000D02*
X153750000Y-136855000D01*
X154250000Y-142355000D02*
X154250000Y-136855000D01*
X155140000Y-131245000D02*
X155140000Y-135745000D01*
X155140000Y-135745000D02*
X150250000Y-135745000D01*
X156560000Y-131245000D02*
X155140000Y-131245000D01*
X156560000Y-142965000D02*
X156560000Y-131245000D01*
D13*
%TO.C,D4*%
X106050000Y-115490000D02*
X106050000Y-116460000D01*
X106050000Y-115490000D02*
X113250000Y-115490000D01*
X106050000Y-120740000D02*
X106050000Y-121710000D01*
X106050000Y-121710000D02*
X113250000Y-121710000D01*
X108460000Y-115490000D02*
X108460000Y-121710000D01*
X109650000Y-118600000D02*
X109650000Y-119110000D01*
X109650000Y-118600000D02*
X110670000Y-119110000D01*
X109650000Y-119110000D02*
X109650000Y-118090000D01*
X110670000Y-118090000D02*
X109650000Y-118600000D01*
X110670000Y-119110000D02*
X110670000Y-118090000D01*
X111170000Y-118600000D02*
X109140000Y-118600000D01*
X113250000Y-115490000D02*
X113250000Y-116460000D01*
X113250000Y-120740000D02*
X113250000Y-121710000D01*
D14*
X113620000Y-115650000D02*
G75*
G02*
X113560000Y-115650000I-30000J0D01*
G01*
X113560000Y-115650000D02*
G75*
G02*
X113620000Y-115650000I30000J0D01*
G01*
D11*
%TO.C,U4*%
X160293758Y-90994225D02*
X163233758Y-90994225D01*
X160293758Y-97654225D02*
X160293758Y-90994225D01*
X163233758Y-90994225D02*
X163233758Y-97654225D01*
X163233758Y-97654225D02*
X160293758Y-97654225D01*
X163643758Y-97324225D02*
G75*
G02*
X163583758Y-97324225I-30000J0D01*
G01*
X163583758Y-97324225D02*
G75*
G02*
X163643758Y-97324225I30000J0D01*
G01*
D12*
%TO.C,TP3*%
X154550000Y-126400000D02*
G75*
G02*
X153150000Y-126400000I-700000J0D01*
G01*
X153150000Y-126400000D02*
G75*
G02*
X154550000Y-126400000I700000J0D01*
G01*
%TO.C,C26*%
X116090000Y-113904437D02*
X116090000Y-119660000D01*
X116090000Y-119660000D02*
X118440000Y-119660000D01*
X117154437Y-112840000D02*
X116090000Y-113904437D01*
X117154437Y-112840000D02*
X118440000Y-112840000D01*
X121347500Y-111812500D02*
X121347500Y-112600000D01*
X121741250Y-112206250D02*
X120953750Y-112206250D01*
X121845563Y-112840000D02*
X120560000Y-112840000D01*
X121845563Y-112840000D02*
X122910000Y-113904437D01*
X122910000Y-113904437D02*
X122910000Y-119660000D01*
X122910000Y-119660000D02*
X120560000Y-119660000D01*
%TO.C,U5*%
X92135000Y-99550000D02*
X93500000Y-99550000D01*
X92135000Y-109950000D02*
X93500000Y-109950000D01*
X93500000Y-99550000D02*
X93500000Y-100500000D01*
X93500000Y-109950000D02*
X93500000Y-109000000D01*
X96665000Y-109430000D02*
X95985000Y-109430000D01*
X96325000Y-108960000D01*
X96665000Y-109430000D01*
G36*
X96665000Y-109430000D02*
G01*
X95985000Y-109430000D01*
X96325000Y-108960000D01*
X96665000Y-109430000D01*
G37*
D11*
%TO.C,D3*%
X142485000Y-108225000D02*
X136675000Y-108225000D01*
X142485000Y-112525000D02*
X136675000Y-112525000D01*
X142485000Y-112525000D02*
X142485000Y-108225000D01*
%TD*%
%LPC*%
%TO.C,JP3*%
G36*
X127510000Y-110050000D02*
G01*
X129960000Y-110050000D01*
X129960000Y-111550000D01*
X127510000Y-111550000D01*
X127510000Y-110050000D01*
G37*
%TO.C,JP1*%
G36*
X127475000Y-104950000D02*
G01*
X129925000Y-104950000D01*
X129925000Y-106450000D01*
X127475000Y-106450000D01*
X127475000Y-104950000D01*
G37*
%TO.C,JP2*%
G36*
X127475000Y-107480000D02*
G01*
X129925000Y-107480000D01*
X129925000Y-108980000D01*
X127475000Y-108980000D01*
X127475000Y-107480000D01*
G37*
%TD*%
D15*
%TO.C,C27*%
X88200000Y-120675000D03*
X88200000Y-126075000D03*
%TD*%
D16*
%TO.C,R8*%
X130800000Y-104600000D03*
X130800000Y-103600000D03*
%TD*%
D17*
%TO.C,U1*%
X147875000Y-101337500D03*
X147225000Y-101337500D03*
X146575000Y-101337500D03*
X145925000Y-101337500D03*
X145275000Y-101337500D03*
X144625000Y-101337500D03*
X143975000Y-101337500D03*
X143325000Y-101337500D03*
X142675000Y-101337500D03*
X142025000Y-101337500D03*
X141375000Y-101337500D03*
X140725000Y-101337500D03*
X140725000Y-107062500D03*
X141375000Y-107062500D03*
X142025000Y-107062500D03*
X142675000Y-107062500D03*
X143325000Y-107062500D03*
X143975000Y-107062500D03*
X144625000Y-107062500D03*
X145275000Y-107062500D03*
X145925000Y-107062500D03*
X146575000Y-107062500D03*
X147225000Y-107062500D03*
X147875000Y-107062500D03*
%TD*%
D18*
%TO.C,R19*%
X156600000Y-96000000D03*
X156600000Y-97000000D03*
%TD*%
D19*
%TO.C,R24*%
X153900000Y-108800000D03*
X154900000Y-108800000D03*
%TD*%
D20*
%TO.C,C6*%
X152620000Y-122400000D03*
X154180000Y-122400000D03*
%TD*%
D21*
%TO.C,H1*%
X82000000Y-134000000D03*
D22*
X82000000Y-134000000D03*
%TD*%
D19*
%TO.C,R12*%
X139750000Y-124750000D03*
X140750000Y-124750000D03*
%TD*%
D23*
%TO.C,TP4*%
X160850000Y-109550000D03*
%TD*%
D24*
%TO.C,R4*%
X151880000Y-124200000D03*
X154800000Y-124200000D03*
%TD*%
D19*
%TO.C,R9*%
X135300000Y-102050000D03*
X136300000Y-102050000D03*
%TD*%
%TO.C,R10*%
X97220000Y-116250000D03*
X98220000Y-116250000D03*
%TD*%
D25*
%TO.C,R13*%
X137250000Y-122250000D03*
X136250000Y-122250000D03*
%TD*%
D26*
%TO.C,C28*%
X123250000Y-110200000D03*
X123250000Y-104800000D03*
%TD*%
D18*
%TO.C,R2*%
X155700000Y-103200000D03*
X155700000Y-104200000D03*
%TD*%
D27*
%TO.C,R6*%
X157800000Y-112360000D03*
X157800000Y-109440000D03*
%TD*%
D23*
%TO.C,TP1*%
X156650000Y-122950000D03*
%TD*%
D25*
%TO.C,R21*%
X152200000Y-97700000D03*
X151200000Y-97700000D03*
%TD*%
D28*
%TO.C,J4*%
X119500000Y-135600000D03*
X106000000Y-135600000D03*
D29*
X116350000Y-129600000D03*
D30*
X109150000Y-129600000D03*
%TD*%
D16*
%TO.C,R14*%
X138000000Y-125000000D03*
X138000000Y-124000000D03*
%TD*%
D20*
%TO.C,C20*%
X96690000Y-115250000D03*
X98250000Y-115250000D03*
%TD*%
D18*
%TO.C,R23*%
X157800000Y-96600000D03*
X157800000Y-97600000D03*
%TD*%
D31*
%TO.C,J2*%
X108950000Y-93038272D03*
X108950000Y-98078272D03*
X111490000Y-93038272D03*
X111490000Y-98078272D03*
X114030000Y-93038272D03*
X114030000Y-98078272D03*
X116570000Y-93038272D03*
X116570000Y-98078272D03*
X119110000Y-93038272D03*
X119110000Y-98078272D03*
X121650000Y-93038272D03*
X121650000Y-98078272D03*
X124190000Y-93038272D03*
X124190000Y-98078272D03*
X126730000Y-93038272D03*
X126730000Y-98078272D03*
X129270000Y-93038272D03*
X129270000Y-98078272D03*
X131810000Y-93038272D03*
X131810000Y-98078272D03*
X134350000Y-93038272D03*
X134350000Y-98078272D03*
X136890000Y-93038272D03*
X136890000Y-98078272D03*
X139430000Y-93038272D03*
X139430000Y-98078272D03*
X141970000Y-93038272D03*
X141970000Y-98078272D03*
X144510000Y-93038272D03*
X144510000Y-98078272D03*
X147050000Y-93038272D03*
X147050000Y-98078272D03*
%TD*%
D32*
%TO.C,JP3*%
X128010000Y-110800000D03*
D33*
X129460000Y-110800000D03*
%TD*%
D23*
%TO.C,TP7*%
X138600000Y-115700000D03*
%TD*%
D19*
%TO.C,R22*%
X153900000Y-107900000D03*
X154900000Y-107900000D03*
%TD*%
D15*
%TO.C,C25*%
X126850000Y-114100000D03*
X126850000Y-119500000D03*
%TD*%
D16*
%TO.C,R18*%
X116000000Y-106500000D03*
X116000000Y-105500000D03*
%TD*%
%TO.C,R16*%
X134500000Y-125000000D03*
X134500000Y-124000000D03*
%TD*%
D34*
%TO.C,L1*%
X103050000Y-108000000D03*
X112950000Y-108000000D03*
%TD*%
D35*
%TO.C,H8*%
X169700000Y-90300000D03*
%TD*%
D36*
%TO.C,J3*%
X151170000Y-100000000D03*
D37*
X153710000Y-100000000D03*
X156250000Y-100000000D03*
X158790000Y-100000000D03*
%TD*%
D23*
%TO.C,TP6*%
X146000000Y-111700000D03*
%TD*%
D20*
%TO.C,C21*%
X99690000Y-115250000D03*
X101250000Y-115250000D03*
%TD*%
D35*
%TO.C,H7*%
X79500000Y-129250000D03*
%TD*%
D38*
%TO.C,U2*%
X168710000Y-102660000D03*
X168710000Y-101390000D03*
X168710000Y-100110000D03*
X168710000Y-98840000D03*
X163290000Y-98840000D03*
X163290000Y-100110000D03*
X163290000Y-101390000D03*
X163290000Y-102660000D03*
%TD*%
D39*
%TO.C,C3*%
X148875000Y-110567500D03*
X148875000Y-109007500D03*
%TD*%
D27*
%TO.C,R7*%
X143750000Y-112860000D03*
X143750000Y-109940000D03*
%TD*%
D18*
%TO.C,R25*%
X154600000Y-104500000D03*
X154600000Y-105500000D03*
%TD*%
D40*
%TO.C,D2*%
X81250000Y-118070000D03*
X81250000Y-124930000D03*
%TD*%
D23*
%TO.C,TP8*%
X118700000Y-108400000D03*
%TD*%
D32*
%TO.C,JP1*%
X127975000Y-105700000D03*
D33*
X129425000Y-105700000D03*
%TD*%
D28*
%TO.C,J5*%
X102400000Y-135750000D03*
X88900000Y-135750000D03*
D29*
X92050000Y-129750000D03*
D30*
X99250000Y-129750000D03*
%TD*%
D15*
%TO.C,C12*%
X134000000Y-113550000D03*
X134000000Y-118950000D03*
%TD*%
D32*
%TO.C,JP2*%
X127975000Y-108230000D03*
D33*
X129425000Y-108230000D03*
%TD*%
D41*
%TO.C,D6*%
X120430000Y-124000000D03*
X113570000Y-124000000D03*
%TD*%
D42*
%TO.C,H6*%
X153000000Y-94000000D03*
%TD*%
D16*
%TO.C,R26*%
X173600000Y-101600000D03*
X173600000Y-100600000D03*
%TD*%
D20*
%TO.C,C5*%
X154620000Y-121180000D03*
X156180000Y-121180000D03*
%TD*%
D18*
%TO.C,R5*%
X160700000Y-106850000D03*
X160700000Y-107850000D03*
%TD*%
D43*
%TO.C,C2*%
X161450000Y-102670000D03*
X161450000Y-104230000D03*
%TD*%
D25*
%TO.C,R1*%
X154200000Y-110600000D03*
X153200000Y-110600000D03*
%TD*%
D43*
%TO.C,C7*%
X156600000Y-118020000D03*
X156600000Y-119580000D03*
%TD*%
D42*
%TO.C,H5*%
X103000000Y-94000000D03*
%TD*%
D23*
%TO.C,TP5*%
X155400000Y-112050000D03*
%TD*%
D44*
%TO.C,RV1*%
X165295000Y-108460000D03*
X165295000Y-111000000D03*
X165295000Y-113540000D03*
%TD*%
D36*
%TO.C,J8*%
X103460000Y-124500000D03*
D37*
X106000000Y-124500000D03*
X108540000Y-124500000D03*
%TD*%
D16*
%TO.C,R15*%
X136250000Y-125000000D03*
X136250000Y-124000000D03*
%TD*%
D45*
%TO.C,SW1*%
X142250000Y-135500000D03*
D46*
X142250000Y-132960000D03*
X142250000Y-130420000D03*
X142250000Y-127880000D03*
X134630000Y-127880000D03*
X134630000Y-130420000D03*
X134630000Y-132960000D03*
X134630000Y-135500000D03*
%TD*%
D42*
%TO.C,H2*%
X174000000Y-134000000D03*
%TD*%
D40*
%TO.C,D8*%
X130520000Y-126820000D03*
X130520000Y-133680000D03*
%TD*%
D39*
%TO.C,C24*%
X117000000Y-106280000D03*
X117000000Y-104720000D03*
%TD*%
D47*
%TO.C,C14*%
X168750000Y-119700000D03*
X174150000Y-119700000D03*
%TD*%
D39*
%TO.C,C1*%
X149050000Y-106980000D03*
X149050000Y-105420000D03*
%TD*%
D42*
%TO.C,H4*%
X174000000Y-92000000D03*
%TD*%
D48*
%TO.C,J6*%
X161000000Y-135350000D03*
D49*
X163500000Y-135350000D03*
X166000000Y-135350000D03*
%TD*%
D47*
%TO.C,C15*%
X168500000Y-126950000D03*
X173900000Y-126950000D03*
%TD*%
D50*
%TO.C,C19*%
X99200000Y-123250000D03*
X93800000Y-123250000D03*
%TD*%
D51*
%TO.C,C11*%
X135570000Y-104800000D03*
X138530000Y-104800000D03*
%TD*%
D39*
%TO.C,C23*%
X117000000Y-109250000D03*
X117000000Y-107690000D03*
%TD*%
D23*
%TO.C,TP2*%
X150000000Y-124850000D03*
%TD*%
D50*
%TO.C,C17*%
X91000000Y-115000000D03*
X85600000Y-115000000D03*
%TD*%
D52*
%TO.C,C18*%
X157780000Y-91800000D03*
X156220000Y-91800000D03*
%TD*%
D19*
%TO.C,R11*%
X99720000Y-116250000D03*
X100720000Y-116250000D03*
%TD*%
D40*
%TO.C,D5*%
X124500000Y-133680000D03*
X124500000Y-126820000D03*
%TD*%
D53*
%TO.C,U3*%
X153375000Y-112462500D03*
X152875000Y-112462500D03*
X152375000Y-112462500D03*
X151875000Y-112462500D03*
X151375000Y-112462500D03*
X150875000Y-112462500D03*
X150375000Y-112462500D03*
X149875000Y-112462500D03*
X149375000Y-112462500D03*
X148875000Y-112462500D03*
X148375000Y-112462500D03*
X147875000Y-112462500D03*
D54*
X146462500Y-113875000D03*
X146462500Y-114375000D03*
X146462500Y-114875000D03*
X146462500Y-115375000D03*
X146462500Y-115875000D03*
X146462500Y-116375000D03*
X146462500Y-116875000D03*
X146462500Y-117375000D03*
X146462500Y-117875000D03*
X146462500Y-118375000D03*
X146462500Y-118875000D03*
X146462500Y-119375000D03*
D53*
X147875000Y-120787500D03*
X148375000Y-120787500D03*
X148875000Y-120787500D03*
X149375000Y-120787500D03*
X149875000Y-120787500D03*
X150375000Y-120787500D03*
X150875000Y-120787500D03*
X151375000Y-120787500D03*
X151875000Y-120787500D03*
X152375000Y-120787500D03*
X152875000Y-120787500D03*
X153375000Y-120787500D03*
D54*
X154787500Y-119375000D03*
X154787500Y-118875000D03*
X154787500Y-118375000D03*
X154787500Y-117875000D03*
X154787500Y-117375000D03*
X154787500Y-116875000D03*
X154787500Y-116375000D03*
X154787500Y-115875000D03*
X154787500Y-115375000D03*
X154787500Y-114875000D03*
X154787500Y-114375000D03*
X154787500Y-113875000D03*
D55*
X150625000Y-116625000D03*
%TD*%
D35*
%TO.C,H9*%
X80750000Y-97250000D03*
%TD*%
D18*
%TO.C,R20*%
X149900000Y-96300000D03*
X149900000Y-97300000D03*
%TD*%
D56*
%TO.C,C10*%
X133600000Y-106680000D03*
X133600000Y-103720000D03*
%TD*%
D43*
%TO.C,C16*%
X167030000Y-91520000D03*
X167030000Y-93080000D03*
%TD*%
%TO.C,C4*%
X151700000Y-125970000D03*
X151700000Y-127530000D03*
%TD*%
D16*
%TO.C,R3*%
X156900000Y-104700000D03*
X156900000Y-103700000D03*
%TD*%
D39*
%TO.C,C8*%
X131800000Y-105180000D03*
X131800000Y-103620000D03*
%TD*%
D57*
%TO.C,D7*%
X175333662Y-102217037D03*
X175333662Y-100637037D03*
%TD*%
D48*
%TO.C,J7*%
X146500000Y-133655000D03*
D49*
X149000000Y-133655000D03*
X151500000Y-133655000D03*
X154000000Y-133655000D03*
%TD*%
D41*
%TO.C,D4*%
X106220000Y-118600000D03*
X113080000Y-118600000D03*
%TD*%
D58*
%TO.C,U4*%
X164833758Y-96624225D03*
X164833758Y-94324225D03*
X164833758Y-92024225D03*
D59*
X158863758Y-93324225D03*
X158863758Y-94324225D03*
D60*
X158863758Y-94324225D03*
D59*
X158863758Y-95324225D03*
%TD*%
D23*
%TO.C,TP3*%
X153850000Y-126400000D03*
%TD*%
D15*
%TO.C,C26*%
X119500000Y-113550000D03*
X119500000Y-118950000D03*
%TD*%
D42*
%TO.C,H3*%
X82000000Y-92000000D03*
%TD*%
D61*
%TO.C,U5*%
X96325000Y-108150000D03*
X96325000Y-106450000D03*
X96325000Y-104750000D03*
D62*
X87175000Y-104750000D03*
D61*
X96325000Y-103050000D03*
X96325000Y-101350000D03*
%TD*%
D52*
%TO.C,C22*%
X138030000Y-121000000D03*
X136470000Y-121000000D03*
%TD*%
D20*
%TO.C,C9*%
X135520000Y-103050000D03*
X137080000Y-103050000D03*
%TD*%
D16*
%TO.C,R17*%
X116000000Y-109000000D03*
X116000000Y-108000000D03*
%TD*%
D63*
%TO.C,D3*%
X140975000Y-110375000D03*
X136675000Y-110375000D03*
%TD*%
%LPD*%
M02*
