M48
; DRILL file {KiCad 9.0.2} date 2026-04-08T22:04:31+0200
; FORMAT={-:-/ absolute / inch / decimal}
; #@! TF.CreationDate,2026-04-08T22:04:31+02:00
; #@! TF.GenerationSoftware,Kicad,Pcbnew,9.0.2
; #@! TF.FileFunction,Plated,1,4,PTH
FMAT,2
INCH
; #@! TA.AperFunction,Plated,PTH,ComponentDrill
T1C0.0079
; #@! TA.AperFunction,Plated,PTH,ViaDrill
T2C0.0118
; #@! TA.AperFunction,Plated,PTH,ComponentDrill
T3C0.0118
; #@! TA.AperFunction,Plated,PTH,ComponentDrill
T4C0.0236
; #@! TA.AperFunction,Plated,PTH,ComponentDrill
T5C0.0315
; #@! TA.AperFunction,Plated,PTH,ComponentDrill
T6C0.0374
; #@! TA.AperFunction,Plated,PTH,ComponentDrill
T7C0.0394
; #@! TA.AperFunction,Plated,PTH,ComponentDrill
T8C0.1063
%
G90
G05
T1
X5.8415Y-4.503
X5.8415Y-4.5472
X5.8415Y-4.5915
X5.8415Y-4.6358
X5.8415Y-4.6801
X5.8858Y-4.503
X5.8858Y-4.5472
X5.8858Y-4.5915
X5.8858Y-4.6358
X5.8858Y-4.6801
X5.9301Y-4.503
X5.9301Y-4.5472
X5.9301Y-4.5915
X5.9301Y-4.6358
X5.9301Y-4.6801
X5.9744Y-4.503
X5.9744Y-4.5472
X5.9744Y-4.5915
X5.9744Y-4.6358
X5.9744Y-4.6801
X6.0187Y-4.503
X6.0187Y-4.5472
X6.0187Y-4.5915
X6.0187Y-4.6358
X6.0187Y-4.6801
T2
X3.5531Y-5.2374
X3.5531Y-5.2669
X3.5728Y-5.2669
X3.5945Y-4.3957
X3.5945Y-4.4252
X3.5949Y-4.3622
X3.624Y-4.3957
X3.624Y-4.4252
X3.6244Y-4.3622
X3.6535Y-4.3957
X3.6535Y-4.4252
X3.6539Y-4.3622
X3.6831Y-4.3957
X3.6831Y-4.4252
X3.6835Y-4.3622
X3.7126Y-4.3957
X3.7126Y-4.4252
X3.713Y-4.3622
X3.7343Y-5.3268
X3.7343Y-5.3563
X3.7343Y-5.3858
X3.7421Y-4.3957
X3.7421Y-4.4252
X3.7425Y-4.3622
X3.7638Y-5.3268
X3.7638Y-5.3563
X3.7638Y-5.3858
X3.7717Y-4.3957
X3.7717Y-4.4252
X3.772Y-4.3622
X3.8012Y-4.3957
X3.8012Y-4.4252
X3.8016Y-4.3622
X3.8307Y-4.3957
X3.8307Y-4.4252
X3.8311Y-4.3622
X3.8449Y-4.7299
X3.8602Y-4.3957
X3.8602Y-4.4252
X3.8606Y-4.3622
X3.8898Y-4.3957
X3.8898Y-4.4252
X3.8902Y-4.3622
X3.8939Y-5.3338
X3.8939Y-5.3633
X3.8939Y-5.3928
X3.9193Y-4.3957
X3.9193Y-4.4252
X3.9197Y-4.3622
X3.9234Y-5.3338
X3.9234Y-5.3633
X3.9234Y-5.3928
X3.9488Y-4.3957
X3.9488Y-4.4252
X3.9492Y-4.3622
X3.9783Y-4.3957
X3.9783Y-4.4252
X3.9787Y-4.3622
X4.0157Y-3.9449
X4.0177Y-5.3189
X4.0177Y-5.3484
X4.0177Y-5.378
X4.0472Y-5.3189
X4.0472Y-5.3484
X4.0472Y-5.378
X4.1752Y-5.311
X4.1752Y-5.3406
X4.1752Y-5.3701
X4.2047Y-5.311
X4.2047Y-5.3406
X4.2047Y-5.3701
X4.2205Y-3.9488
X4.3169Y-5.3189
X4.3169Y-5.3484
X4.3169Y-5.378
X4.3346Y-3.6201
X4.3346Y-3.6594
X4.3346Y-3.7008
X4.3406Y-3.8583
X4.3465Y-5.3189
X4.3465Y-5.3484
X4.3465Y-5.378
X4.4046Y-4.6986
X4.4055Y-4.6398
X4.4055Y-4.6693
X4.4342Y-4.6986
X4.435Y-4.6398
X4.435Y-4.6693
X4.439Y-3.622
X4.439Y-3.6555
X4.439Y-3.685
X4.439Y-3.7126
X4.439Y-3.8583
X4.4587Y-5.3268
X4.4587Y-5.3563
X4.4587Y-5.3858
X4.4637Y-4.6986
X4.4646Y-4.6398
X4.4646Y-4.6693
X4.4882Y-5.3268
X4.4882Y-5.3563
X4.4882Y-5.3858
X4.4959Y-4.6997
X4.4967Y-4.6408
X4.4967Y-4.6704
X4.5374Y-3.8583
X4.5531Y-3.6122
X4.5531Y-3.6516
X4.5531Y-3.6929
X4.5571Y-4.0846
X4.5866Y-4.0846
X4.6161Y-4.0846
X4.6358Y-3.8583
X4.6555Y-4.6654
X4.6555Y-4.6949
X4.6555Y-4.7244
X4.7343Y-3.8583
X4.7382Y-3.6181
X4.7382Y-3.6575
X4.7382Y-3.6969
X4.7539Y-4.6654
X4.7539Y-4.6949
X4.7539Y-4.7244
X4.8031Y-4.1043
X4.8031Y-4.1339
X4.8031Y-4.1634
X4.8386Y-3.6201
X4.8386Y-3.6594
X4.8386Y-3.6988
X4.845Y-3.8608
X4.9016Y-4.1043
X4.9016Y-4.1339
X4.9016Y-4.1634
X4.939Y-3.6201
X4.939Y-3.6594
X4.939Y-3.6988
X4.9434Y-3.8608
X4.9449Y-4.6772
X4.9449Y-4.7067
X4.9449Y-4.7362
X4.9937Y-4.0772
X5.0433Y-4.6772
X5.0433Y-4.7067
X5.0433Y-4.7362
X5.1299Y-3.8622
X5.1378Y-3.6201
X5.1378Y-3.6594
X5.1378Y-3.7008
X5.2264Y-4.6555
X5.2264Y-4.685
X5.2264Y-4.7146
X5.2303Y-3.8602
X5.2382Y-3.624
X5.2382Y-3.6634
X5.2382Y-3.7047
X5.3248Y-4.6555
X5.3248Y-4.685
X5.3248Y-4.7146
X5.3307Y-3.8602
X5.3386Y-3.622
X5.3386Y-3.6614
X5.3386Y-3.7028
X5.3848Y-4.5716
X5.3879Y-4.5402
X5.3898Y-4.4213
X5.3898Y-4.4488
X5.3898Y-4.4764
X5.3898Y-4.5079
X5.3957Y-4.0177
X5.4213Y-4.4213
X5.4213Y-4.4488
X5.4213Y-4.4764
X5.4213Y-4.5079
X5.4272Y-3.8602
X5.4331Y-4.0551
X5.4528Y-4.4213
X5.4528Y-4.4488
X5.4528Y-4.4764
X5.4528Y-4.5079
X5.5Y-3.9862
X5.5004Y-4.1004
X5.502Y-4.126
X5.502Y-4.1516
X5.5118Y-4.2205
X5.5177Y-4.2815
X5.5197Y-4.4094
X5.5295Y-3.8583
X5.5472Y-4.2815
X5.5492Y-4.4094
X5.5591Y-4.1535
X5.5768Y-4.2815
X5.5787Y-4.4094
X5.5984Y-4.1575
X5.626Y-4.2795
X5.6299Y-3.8583
X5.6457Y-3.6634
X5.6535Y-4.2717
X5.6575Y-4.3858
X5.6654Y-4.1693
X5.6929Y-4.0315
X5.6929Y-4.2677
X5.6969Y-4.6555
X5.7087Y-4.4409
X5.7087Y-4.563
X5.7126Y-4.6398
X5.7162Y-4.7625
X5.7205Y-3.937
X5.7343Y-3.8563
X5.7475Y-4.7938
X5.752Y-4.0512
X5.7879Y-4.8342
X5.7913Y-4.0512
X5.8327Y-3.6201
X5.8327Y-3.6594
X5.8327Y-3.7008
X5.8327Y-4.878
X5.8346Y-3.8602
X5.8504Y-4.0787
X5.8543Y-4.0472
X5.8622Y-4.248
X5.8799Y-4.8583
X5.8858Y-4.1102
X5.9016Y-3.8543
X5.9075Y-4.1496
X5.9075Y-4.2126
X5.9291Y-4.2441
X5.9291Y-4.8583
X5.9596Y-4.2835
X6.0Y-4.3661
X6.0157Y-5.0217
X6.0197Y-4.2835
X6.0276Y-4.248
X6.0354Y-4.9154
X6.0354Y-4.9567
X6.0945Y-4.185
X6.1102Y-4.8189
X6.126Y-4.248
X6.128Y-4.2835
X6.1299Y-4.1378
X6.1339Y-4.1811
X6.1398Y-4.8819
X6.1539Y-4.5621
X6.1594Y-4.4193
X6.1614Y-3.6614
X6.1654Y-3.8543
X6.2008Y-4.0472
X6.2087Y-4.6732
X6.2087Y-4.6988
X6.2087Y-4.7244
X6.2126Y-4.2559
X6.2343Y-4.6988
X6.2343Y-4.7244
X6.3701Y-4.1969
X6.3976Y-4.1043
X6.4803Y-4.6693
X6.4803Y-4.6969
X6.4803Y-4.7244
X6.4803Y-4.7559
X6.5118Y-4.6693
X6.5118Y-4.6969
X6.5118Y-4.7244
X6.5118Y-4.7559
X6.5571Y-3.7618
X6.5591Y-3.7953
X6.5748Y-3.5591
X6.5866Y-3.7618
X6.5866Y-3.7972
X6.7126Y-3.9902
X6.7126Y-4.0433
X6.7146Y-3.8898
X6.7165Y-3.9429
X6.8169Y-4.9488
X6.8169Y-5.0472
X6.8268Y-4.6634
X6.8268Y-4.7618
X6.8465Y-4.9488
X6.8465Y-5.0472
X6.8563Y-4.6634
X6.8563Y-4.7618
X6.876Y-4.9488
X6.876Y-5.0472
X6.8858Y-4.6634
X6.8858Y-4.7618
X6.9035Y-4.0768
T3
X6.2545Y-3.6742
X6.2545Y-3.7136
X6.2545Y-3.7529
T5
X3.6268Y-3.9677
X3.6268Y-4.2677
X3.7268Y-3.9677
X3.7268Y-4.2677
X3.8268Y-3.9677
X3.8268Y-4.2677
X3.9268Y-3.9677
X3.9268Y-4.2677
X6.5077Y-4.2701
X6.5077Y-4.3701
X6.5077Y-4.4701
T6
X5.7677Y-5.262
X5.8661Y-5.262
X5.9646Y-5.262
X6.063Y-5.262
X6.3386Y-5.3287
X6.437Y-5.3287
X6.5354Y-5.3287
T7
X4.2996Y-4.9528
X4.3996Y-4.9528
X4.4996Y-4.9528
X5.9516Y-3.937
X6.0516Y-3.937
X6.1516Y-3.937
X6.2516Y-3.937
T8
X3.2283Y-3.622
X3.4311Y-3.9921
X3.4311Y-4.2756
X3.4311Y-4.6614
X3.4311Y-4.9449
T4
G00X3.1732Y-3.8681
M15
G01X3.2165Y-3.8681
M16
G05
G00X3.1732Y-4.3996
M15
G01X3.2165Y-4.3996
M16
G05
G00X3.1732Y-4.5374
M15
G01X3.2165Y-4.5374
M16
G05
G00X3.1732Y-5.0689
M15
G01X3.2165Y-5.0689
M16
G05
M30
