%TF.GenerationSoftware,KiCad,Pcbnew,9.0.2*%
%TF.CreationDate,2026-04-11T22:27:14+02:00*%
%TF.ProjectId,MMS3_hat_stepper_controler,4d4d5333-5f68-4617-945f-737465707065,R0*%
%TF.SameCoordinates,Original*%
%TF.FileFunction,Copper,L2,Inr*%
%TF.FilePolarity,Positive*%
%FSLAX46Y46*%
G04 Gerber Fmt 4.6, Leading zero omitted, Abs format (unit mm)*
G04 Created by KiCad (PCBNEW 9.0.2) date 2026-04-11 22:27:14*
%MOMM*%
%LPD*%
G01*
G04 APERTURE LIST*
G04 Aperture macros list*
%AMRoundRect*
0 Rectangle with rounded corners*
0 $1 Rounding radius*
0 $2 $3 $4 $5 $6 $7 $8 $9 X,Y pos of 4 corners*
0 Add a 4 corners polygon primitive as box body*
4,1,4,$2,$3,$4,$5,$6,$7,$8,$9,$2,$3,0*
0 Add four circle primitives for the rounded corners*
1,1,$1+$1,$2,$3*
1,1,$1+$1,$4,$5*
1,1,$1+$1,$6,$7*
1,1,$1+$1,$8,$9*
0 Add four rect primitives between the rounded corners*
20,1,$1+$1,$2,$3,$4,$5,0*
20,1,$1+$1,$4,$5,$6,$7,0*
20,1,$1+$1,$6,$7,$8,$9,0*
20,1,$1+$1,$8,$9,$2,$3,0*%
G04 Aperture macros list end*
%TA.AperFunction,ComponentPad*%
%ADD10RoundRect,0.250000X0.550000X-0.550000X0.550000X0.550000X-0.550000X0.550000X-0.550000X-0.550000X0*%
%TD*%
%TA.AperFunction,ComponentPad*%
%ADD11C,1.600000*%
%TD*%
%TA.AperFunction,ComponentPad*%
%ADD12C,3.100000*%
%TD*%
%TA.AperFunction,ComponentPad*%
%ADD13R,1.700000X1.700000*%
%TD*%
%TA.AperFunction,ComponentPad*%
%ADD14C,1.700000*%
%TD*%
%TA.AperFunction,ComponentPad*%
%ADD15C,1.440000*%
%TD*%
%TA.AperFunction,ComponentPad*%
%ADD16RoundRect,0.250000X-0.600000X-0.725000X0.600000X-0.725000X0.600000X0.725000X-0.600000X0.725000X0*%
%TD*%
%TA.AperFunction,ComponentPad*%
%ADD17O,1.700000X1.950000*%
%TD*%
%TA.AperFunction,ComponentPad*%
%ADD18R,2.000000X0.900000*%
%TD*%
%TA.AperFunction,ComponentPad*%
%ADD19RoundRect,1.025000X1.025000X-1.025000X1.025000X1.025000X-1.025000X1.025000X-1.025000X-1.025000X0*%
%TD*%
%TA.AperFunction,ComponentPad*%
%ADD20C,4.100000*%
%TD*%
%TA.AperFunction,HeatsinkPad*%
%ADD21C,0.500000*%
%TD*%
%TA.AperFunction,ComponentPad*%
%ADD22C,0.500000*%
%TD*%
%TA.AperFunction,ViaPad*%
%ADD23C,0.500000*%
%TD*%
G04 APERTURE END LIST*
D10*
%TO.N,unconnected-(SW1-Pad1)*%
%TO.C,SW1*%
X129952500Y-130620000D03*
D11*
%TO.N,Net-(U5-FB)*%
X132492500Y-130620000D03*
X135032500Y-130620000D03*
X137572500Y-130620000D03*
%TO.N,Net-(R16-Pad1)*%
X137572500Y-123000000D03*
%TO.N,Net-(R15-Pad1)*%
X135032500Y-123000000D03*
%TO.N,Net-(R14-Pad1)*%
X132492500Y-123000000D03*
%TO.N,unconnected-(SW1-Pad8)*%
X129952500Y-123000000D03*
%TD*%
D12*
%TO.N,GND*%
%TO.C,H1*%
X82000000Y-92000000D03*
%TD*%
D13*
%TO.N,/Bus_switch/Chainbus.SDA*%
%TO.C,J3*%
X151170000Y-100000000D03*
D14*
%TO.N,/Bus_switch/Chainbus.SCL*%
X153710000Y-100000000D03*
%TO.N,GND*%
X156250000Y-100000000D03*
%TO.N,+3V3*%
X158790000Y-100000000D03*
%TD*%
D15*
%TO.N,Net-(R5-Pad2)*%
%TO.C,RV1*%
X165295000Y-108460000D03*
%TO.N,Net-(U3-AIN_IREF)*%
X165295000Y-111000000D03*
%TO.N,GND*%
X165295000Y-113540000D03*
%TD*%
D16*
%TO.N,/Stepper controller/ENCN_DCO*%
%TO.C,J6*%
X161000000Y-135350000D03*
D17*
%TO.N,/Stepper controller/ENCB_DCEN_CFG4*%
X163500000Y-135350000D03*
%TO.N,/Stepper controller/ENCA_DCIN_CFG5*%
X166000000Y-135350000D03*
%TD*%
D18*
%TO.N,*%
%TO.C,J4*%
X80650000Y-127750000D03*
X80650000Y-114250000D03*
D19*
%TO.N,GND*%
X86650000Y-124600000D03*
D20*
%TO.N,Vin*%
X86650000Y-117400000D03*
%TD*%
D13*
%TO.N,Net-(J8-Pin_1)*%
%TO.C,J8*%
X92000000Y-129460000D03*
D14*
%TO.N,Vin*%
X92000000Y-132000000D03*
%TO.N,Net-(D6-A)*%
X92000000Y-134540000D03*
%TD*%
D18*
%TO.N,*%
%TO.C,J5*%
X80650000Y-110750000D03*
X80650000Y-97250000D03*
D19*
%TO.N,GND*%
X86650000Y-100400000D03*
D20*
%TO.N,Vin*%
X86650000Y-107600000D03*
%TD*%
D21*
%TO.N,GND*%
%TO.C,U3*%
X152875000Y-114375000D03*
X151750000Y-114375000D03*
X150625000Y-114375000D03*
X149500000Y-114375000D03*
X148375000Y-114375000D03*
X152875000Y-115500000D03*
X151750000Y-115500000D03*
X150625000Y-115500000D03*
X149500000Y-115500000D03*
X148375000Y-115500000D03*
X152875000Y-116625000D03*
X151750000Y-116625000D03*
X150625000Y-116625000D03*
X149500000Y-116625000D03*
X148375000Y-116625000D03*
X152875000Y-117750000D03*
X151750000Y-117750000D03*
X150625000Y-117750000D03*
X149500000Y-117750000D03*
X148375000Y-117750000D03*
X152875000Y-118875000D03*
X151750000Y-118875000D03*
X150625000Y-118875000D03*
X149500000Y-118875000D03*
X148375000Y-118875000D03*
%TD*%
D16*
%TO.N,/Stepper controller/OB1*%
%TO.C,J7*%
X146500000Y-133655000D03*
D17*
%TO.N,/Stepper controller/OB2*%
X149000000Y-133655000D03*
%TO.N,/Stepper controller/OA2*%
X151500000Y-133655000D03*
%TO.N,/Stepper controller/OA1*%
X154000000Y-133655000D03*
%TD*%
D22*
%TO.N,+3V3*%
%TO.C,U4*%
X158863758Y-93324225D03*
X158863758Y-94324225D03*
X158863758Y-95324225D03*
%TD*%
D23*
%TO.N,GND*%
X128100000Y-120300000D03*
X94250000Y-100250000D03*
X170500000Y-102700000D03*
X125600000Y-119550000D03*
X98750000Y-100250000D03*
X133050000Y-92050000D03*
X92750000Y-99500000D03*
X114250000Y-130000000D03*
X90500000Y-99500000D03*
X93500000Y-99500000D03*
X139750000Y-104800000D03*
X99750000Y-128250000D03*
X141650000Y-108750000D03*
X114250000Y-128500000D03*
X115650000Y-93800000D03*
X115650000Y-91750000D03*
X173900000Y-125700000D03*
X96500000Y-99500000D03*
X125600000Y-118800000D03*
X99500000Y-100250000D03*
X98750000Y-99500000D03*
X110100000Y-92950000D03*
X111900000Y-116222752D03*
X156500000Y-93000000D03*
X91250000Y-99500000D03*
X174650000Y-128200000D03*
X97250000Y-100250000D03*
X148150000Y-92950000D03*
X113400000Y-116222752D03*
X173150000Y-125700000D03*
X139700000Y-101250000D03*
X99750000Y-129750000D03*
X104500000Y-129000000D03*
X95750000Y-99500000D03*
X98250000Y-118750000D03*
X111750000Y-130000000D03*
X99750000Y-129000000D03*
X115277248Y-117432550D03*
X117250000Y-103750000D03*
X132750000Y-119000000D03*
X95067450Y-100277248D03*
X170550000Y-98800000D03*
X162500000Y-104250000D03*
X130500000Y-94000000D03*
X97250000Y-129750000D03*
X173400000Y-120950000D03*
X120750000Y-119250000D03*
X112650000Y-116222752D03*
X101067450Y-100277248D03*
X115750000Y-103750000D03*
X112650000Y-115472752D03*
X120750000Y-118500000D03*
X173400000Y-118450000D03*
X92067450Y-99527248D03*
X111750000Y-129250000D03*
X155650000Y-108800000D03*
X174900000Y-120950000D03*
X100250000Y-100250000D03*
X93500000Y-100250000D03*
X101222752Y-113567450D03*
X101067450Y-99527248D03*
X100472752Y-116567450D03*
X152800000Y-127550000D03*
X114250000Y-129250000D03*
X104500000Y-129750000D03*
X166600000Y-96400000D03*
X138000000Y-103000000D03*
X155200000Y-122400000D03*
X101222752Y-116567450D03*
X124500000Y-105750000D03*
X157500000Y-102800000D03*
X170600000Y-100150000D03*
X128100000Y-119550000D03*
X116500000Y-103750000D03*
X135250000Y-119750000D03*
X98250000Y-120000000D03*
X118250000Y-120000000D03*
X104500000Y-128250000D03*
X174650000Y-125700000D03*
X94250000Y-99500000D03*
X175350000Y-103550000D03*
X148150000Y-94000000D03*
X111900000Y-115472752D03*
X148150000Y-91950000D03*
X124500000Y-104250000D03*
X167300000Y-95550000D03*
X167300000Y-96450000D03*
X95067450Y-99527248D03*
X141700000Y-112000000D03*
X95750000Y-113750000D03*
X100472752Y-113567450D03*
X140950000Y-112000000D03*
X173150000Y-128200000D03*
X96500000Y-100250000D03*
X100472752Y-115067450D03*
X100500000Y-115750000D03*
X101222752Y-114317450D03*
X174150000Y-120950000D03*
X115250000Y-119750000D03*
X124500000Y-105000000D03*
X97250000Y-129000000D03*
X95750000Y-100250000D03*
X98067450Y-100277248D03*
X97250000Y-128250000D03*
X100250000Y-99500000D03*
X143700000Y-111400000D03*
X170500000Y-101350000D03*
X115650000Y-92750000D03*
X90500000Y-100250000D03*
X125600000Y-120300000D03*
X174900000Y-118450000D03*
X107000000Y-129750000D03*
X135250000Y-119000000D03*
X166550000Y-95550000D03*
X120750000Y-120000000D03*
X118250000Y-119250000D03*
X150050000Y-105400000D03*
X110100000Y-91950000D03*
X122000000Y-105750000D03*
X140150000Y-108750000D03*
X140200000Y-112000000D03*
X99500000Y-99500000D03*
X133050000Y-94100000D03*
X107000000Y-129000000D03*
X140900000Y-108750000D03*
X130500000Y-92950000D03*
X111750000Y-128500000D03*
X114217450Y-116250000D03*
X132750000Y-118250000D03*
X115250000Y-118250000D03*
X115250000Y-119000000D03*
X135600000Y-92000000D03*
X107000000Y-128250000D03*
X97250000Y-99500000D03*
X98067450Y-99527248D03*
X118250000Y-118500000D03*
X139709886Y-104149980D03*
X98288027Y-119342120D03*
X122000000Y-105000000D03*
X91250000Y-100250000D03*
X155600000Y-107900000D03*
X157800000Y-108100000D03*
X101250000Y-115750000D03*
X135250000Y-118250000D03*
X113400000Y-115472752D03*
X114217450Y-115500000D03*
X132750000Y-119750000D03*
X135600000Y-94050000D03*
X148900000Y-107900000D03*
X135600000Y-93000000D03*
X137050000Y-102050000D03*
X92750000Y-100250000D03*
X101222752Y-115067450D03*
X122000000Y-104250000D03*
X110100000Y-94000000D03*
X173900000Y-128200000D03*
X139750000Y-105450000D03*
X92067450Y-100277248D03*
X100472752Y-114317450D03*
X133050000Y-93050000D03*
X130500000Y-91950000D03*
X128100000Y-118800000D03*
X174150000Y-118450000D03*
%TO.N,Net-(U5-FB)*%
X127500000Y-132500000D03*
X100000000Y-118000000D03*
%TO.N,/Stepper controller/5VOUT*%
X153300000Y-124850000D03*
X161800000Y-106600000D03*
%TO.N,+3V3*%
X155800000Y-106200000D03*
X150050000Y-107000000D03*
%TO.N,+5V*%
X167000000Y-90400000D03*
X112750000Y-92000000D03*
X112750000Y-93600000D03*
X112750000Y-92850000D03*
X112750000Y-94300000D03*
%TO.N,/Bus_switch/Chainbus_In.RX*%
X148200000Y-98050000D03*
%TO.N,/Bus_switch/Chainbus_In.MOSI*%
X140450000Y-98000000D03*
%TO.N,/Bus_switch/Chainbus_In.SDA*%
X142200000Y-105600000D03*
X130300000Y-98100000D03*
%TO.N,/Bus_switch/SEL1*%
X140000000Y-107200000D03*
X141200000Y-105500000D03*
%TO.N,/Interboard_connector/SEL2*%
X110250000Y-98000000D03*
%TO.N,/Bus_switch/Chainbus_In.TX*%
X145650000Y-97950000D03*
%TO.N,/Interboard_connector/SEL8*%
X125563272Y-98063272D03*
%TO.N,/Interboard_connector/SEL5*%
X117750000Y-98000000D03*
%TO.N,/Interboard_connector/SEL7*%
X123063272Y-98063272D03*
%TO.N,/Interboard_connector/SEL4*%
X115250000Y-98000000D03*
%TO.N,/Bus_switch/Chainbus_In.SCK*%
X137850000Y-98050000D03*
%TO.N,/Bus_switch/Chainbus_In.MISO*%
X143000000Y-98000000D03*
%TO.N,+12V stby*%
X143400000Y-93050000D03*
%TO.N,/Bus_switch/Chainbus_In.SCL*%
X132850000Y-98050000D03*
X143900000Y-105900000D03*
%TO.N,/Bus_switch/Chainbus_In.CS*%
X135400000Y-98050000D03*
%TO.N,/Interboard_connector/SEL3*%
X112750000Y-98000000D03*
%TO.N,/Interboard_connector/SEL6*%
X120250000Y-98000000D03*
%TO.N,BRD_VIN*%
X122900000Y-92950000D03*
X120350000Y-93900000D03*
X125450000Y-91950000D03*
X120350000Y-92900000D03*
X122900000Y-93950000D03*
X125450000Y-92950000D03*
X120350000Y-91900000D03*
X122900000Y-91950000D03*
X125450000Y-93950000D03*
%TO.N,/Bus_switch/Chainbus.SCL*%
X156600000Y-97900000D03*
X144600000Y-108400000D03*
%TO.N,/Bus_switch/Chainbus.SDA*%
X143600000Y-108500000D03*
%TO.N,/Stepper controller/ENCN_DCO*%
X145192652Y-120967778D03*
%TO.N,/Stepper controller/ENCA_DCIN_CFG5*%
X147012437Y-122787563D03*
%TO.N,/Stepper controller/ENCB_DCEN_CFG4*%
X145987437Y-121762563D03*
%TO.N,Net-(U3-BRA)*%
X156450000Y-112250000D03*
X156308637Y-115878396D03*
%TO.N,Net-(U3-BRB)*%
X145000000Y-112800000D03*
X145000000Y-115900000D03*
%TO.N,Net-(U3-AIN_IREF)*%
X150600000Y-123400000D03*
%TO.N,Net-(U3-SWSEL)*%
X149350000Y-123400000D03*
X155950000Y-124000000D03*
%TO.N,Net-(U3-SWN_DIAG0)*%
X148150000Y-123900000D03*
X153300000Y-125900000D03*
%TO.N,/Bus_switch/Chainbus.CS*%
X142900000Y-108700000D03*
X152400000Y-110900000D03*
%TO.N,/Bus_switch/Chainbus.MOSI*%
X148600000Y-103600000D03*
X151375000Y-108800000D03*
X152900000Y-108800000D03*
X146100000Y-102900000D03*
%TO.N,/Bus_switch/Chainbus.TX*%
X149900000Y-97900000D03*
X145300000Y-100000000D03*
%TO.N,/Bus_switch/Chainbus.MISO*%
X149500000Y-104400000D03*
X153100000Y-107900000D03*
X144600000Y-102400000D03*
X150600000Y-107800000D03*
%TO.N,/Bus_switch/Chainbus.SCK*%
X155700000Y-105100000D03*
X154800000Y-106300000D03*
X148700000Y-102800000D03*
X147100000Y-102900000D03*
%TO.N,/Stepper controller/U_reg_after_jumper*%
X164600000Y-120000000D03*
X164600000Y-120800000D03*
X137700000Y-113000000D03*
X136900000Y-113000000D03*
X165400000Y-120800000D03*
X165400000Y-118600000D03*
X137700000Y-114500000D03*
X157700000Y-120000000D03*
X136900000Y-114500000D03*
X136853881Y-115320031D03*
X158350000Y-119350000D03*
X158350000Y-120000000D03*
X157700000Y-119350000D03*
X138500000Y-113000000D03*
X138500000Y-112300000D03*
X165400000Y-120000000D03*
X164600000Y-118600000D03*
X157700000Y-118700000D03*
X136900000Y-113700000D03*
X164600000Y-119300000D03*
X136900000Y-112300000D03*
X137700000Y-113700000D03*
X138500000Y-113700000D03*
X144700000Y-118250000D03*
X137700000Y-112300000D03*
X136775163Y-116119316D03*
X145100000Y-117850000D03*
X138500000Y-114500000D03*
X165400000Y-119300000D03*
%TD*%
%TA.AperFunction,Conductor*%
%TO.N,GND*%
G36*
X84280888Y-88269685D02*
G01*
X84326643Y-88322489D01*
X84337849Y-88374000D01*
X84337849Y-90057177D01*
X86337849Y-90057177D01*
X86337849Y-88374000D01*
X86357534Y-88306961D01*
X86410338Y-88261206D01*
X86461849Y-88250000D01*
X177624078Y-88250000D01*
X177691117Y-88269685D01*
X177736872Y-88322489D01*
X177748062Y-88375906D01*
X177657531Y-94260486D01*
X177001864Y-136878831D01*
X176981151Y-136945560D01*
X176927649Y-136990497D01*
X176878821Y-137000920D01*
X89124942Y-137667405D01*
X89057755Y-137648231D01*
X89011600Y-137595776D01*
X89000000Y-137543409D01*
X89000000Y-135828427D01*
X87000000Y-135828427D01*
X87000000Y-137560482D01*
X86980315Y-137627521D01*
X86927511Y-137673276D01*
X86876942Y-137684478D01*
X78374942Y-137749051D01*
X78307755Y-137729877D01*
X78261600Y-137677422D01*
X78250000Y-137625055D01*
X78250000Y-133877973D01*
X80449500Y-133877973D01*
X80449500Y-134122026D01*
X80476747Y-134294059D01*
X80487679Y-134363076D01*
X80563096Y-134595185D01*
X80662425Y-134790130D01*
X80673896Y-134812642D01*
X80817339Y-135010076D01*
X80817343Y-135010081D01*
X80989918Y-135182656D01*
X80989923Y-135182660D01*
X81162136Y-135307779D01*
X81187361Y-135326106D01*
X81404815Y-135436904D01*
X81636924Y-135512321D01*
X81877973Y-135550500D01*
X81877974Y-135550500D01*
X82122026Y-135550500D01*
X82122027Y-135550500D01*
X82363076Y-135512321D01*
X82595185Y-135436904D01*
X82812639Y-135326106D01*
X83010083Y-135182655D01*
X83182655Y-135010083D01*
X83326106Y-134812639D01*
X83436904Y-134595185D01*
X83488454Y-134436530D01*
X90949500Y-134436530D01*
X90949500Y-134643469D01*
X90989868Y-134846412D01*
X90989870Y-134846420D01*
X91069058Y-135037596D01*
X91184024Y-135209657D01*
X91330342Y-135355975D01*
X91330345Y-135355977D01*
X91502402Y-135470941D01*
X91693580Y-135550130D01*
X91836031Y-135578465D01*
X91896530Y-135590499D01*
X91896534Y-135590500D01*
X91896535Y-135590500D01*
X92103466Y-135590500D01*
X92103467Y-135590499D01*
X92306420Y-135550130D01*
X92497598Y-135470941D01*
X92669655Y-135355977D01*
X92815977Y-135209655D01*
X92930941Y-135037598D01*
X93010130Y-134846420D01*
X93050500Y-134643465D01*
X93050500Y-134436535D01*
X93010130Y-134233580D01*
X92930941Y-134042402D01*
X92815977Y-133870345D01*
X92815975Y-133870342D01*
X92669657Y-133724024D01*
X92583626Y-133666541D01*
X92497598Y-133609059D01*
X92306420Y-133529870D01*
X92306412Y-133529868D01*
X92103469Y-133489500D01*
X92103465Y-133489500D01*
X91896535Y-133489500D01*
X91896530Y-133489500D01*
X91693587Y-133529868D01*
X91693579Y-133529870D01*
X91502403Y-133609058D01*
X91330342Y-133724024D01*
X91184024Y-133870342D01*
X91069058Y-134042403D01*
X90989870Y-134233579D01*
X90989868Y-134233587D01*
X90949500Y-134436530D01*
X83488454Y-134436530D01*
X83512321Y-134363076D01*
X83550500Y-134122027D01*
X83550500Y-133877973D01*
X83512321Y-133636924D01*
X83436904Y-133404815D01*
X83326106Y-133187361D01*
X83226671Y-133050500D01*
X83182660Y-132989923D01*
X83182656Y-132989918D01*
X83010081Y-132817343D01*
X83010076Y-132817339D01*
X82812642Y-132673896D01*
X82812641Y-132673895D01*
X82812639Y-132673894D01*
X82595185Y-132563096D01*
X82363076Y-132487679D01*
X82363074Y-132487678D01*
X82363072Y-132487678D01*
X82194769Y-132461021D01*
X82122027Y-132449500D01*
X81877973Y-132449500D01*
X81822093Y-132458350D01*
X81636927Y-132487678D01*
X81404812Y-132563097D01*
X81187357Y-132673896D01*
X80989923Y-132817339D01*
X80989918Y-132817343D01*
X80817343Y-132989918D01*
X80817339Y-132989923D01*
X80673896Y-133187357D01*
X80563097Y-133404812D01*
X80487678Y-133636927D01*
X80449500Y-133877973D01*
X78250000Y-133877973D01*
X78250000Y-131896530D01*
X90949500Y-131896530D01*
X90949500Y-132103469D01*
X90989868Y-132306412D01*
X90989870Y-132306420D01*
X91061562Y-132479500D01*
X91069059Y-132497598D01*
X91088843Y-132527207D01*
X91184024Y-132669657D01*
X91330342Y-132815975D01*
X91330345Y-132815977D01*
X91502402Y-132930941D01*
X91693580Y-133010130D01*
X91896530Y-133050499D01*
X91896534Y-133050500D01*
X91896535Y-133050500D01*
X92103466Y-133050500D01*
X92103467Y-133050499D01*
X92306420Y-133010130D01*
X92497598Y-132930941D01*
X92669655Y-132815977D01*
X92815977Y-132669655D01*
X92930941Y-132497598D01*
X92938438Y-132479500D01*
X92954513Y-132440691D01*
X127049500Y-132440691D01*
X127049500Y-132559309D01*
X127080201Y-132673886D01*
X127139511Y-132776613D01*
X127223387Y-132860489D01*
X127326114Y-132919799D01*
X127440691Y-132950500D01*
X127440694Y-132950500D01*
X127559306Y-132950500D01*
X127559309Y-132950500D01*
X127673886Y-132919799D01*
X127750215Y-132875730D01*
X145449500Y-132875730D01*
X145449500Y-134434269D01*
X145452353Y-134464699D01*
X145452353Y-134464701D01*
X145489457Y-134570734D01*
X145497207Y-134592882D01*
X145577850Y-134702150D01*
X145687118Y-134782793D01*
X145708089Y-134790131D01*
X145815299Y-134827646D01*
X145845730Y-134830500D01*
X145845734Y-134830500D01*
X147154270Y-134830500D01*
X147184699Y-134827646D01*
X147184701Y-134827646D01*
X147248790Y-134805219D01*
X147312882Y-134782793D01*
X147422150Y-134702150D01*
X147502793Y-134592882D01*
X147525219Y-134528790D01*
X147547646Y-134464701D01*
X147547646Y-134464699D01*
X147550500Y-134434269D01*
X147550500Y-133426530D01*
X147949500Y-133426530D01*
X147949500Y-133883469D01*
X147989868Y-134086412D01*
X147989870Y-134086420D01*
X148069058Y-134277596D01*
X148184024Y-134449657D01*
X148330342Y-134595975D01*
X148330345Y-134595977D01*
X148502402Y-134710941D01*
X148693580Y-134790130D01*
X148882187Y-134827646D01*
X148896530Y-134830499D01*
X148896534Y-134830500D01*
X148896535Y-134830500D01*
X149103466Y-134830500D01*
X149103467Y-134830499D01*
X149306420Y-134790130D01*
X149497598Y-134710941D01*
X149669655Y-134595977D01*
X149815977Y-134449655D01*
X149930941Y-134277598D01*
X150010130Y-134086420D01*
X150050500Y-133883465D01*
X150050500Y-133426535D01*
X150050499Y-133426530D01*
X150449500Y-133426530D01*
X150449500Y-133883469D01*
X150489868Y-134086412D01*
X150489870Y-134086420D01*
X150569058Y-134277596D01*
X150684024Y-134449657D01*
X150830342Y-134595975D01*
X150830345Y-134595977D01*
X151002402Y-134710941D01*
X151193580Y-134790130D01*
X151382187Y-134827646D01*
X151396530Y-134830499D01*
X151396534Y-134830500D01*
X151396535Y-134830500D01*
X151603466Y-134830500D01*
X151603467Y-134830499D01*
X151806420Y-134790130D01*
X151997598Y-134710941D01*
X152169655Y-134595977D01*
X152315977Y-134449655D01*
X152430941Y-134277598D01*
X152510130Y-134086420D01*
X152550500Y-133883465D01*
X152550500Y-133426535D01*
X152550499Y-133426530D01*
X152949500Y-133426530D01*
X152949500Y-133883469D01*
X152989868Y-134086412D01*
X152989870Y-134086420D01*
X153069058Y-134277596D01*
X153184024Y-134449657D01*
X153330342Y-134595975D01*
X153330345Y-134595977D01*
X153502402Y-134710941D01*
X153693580Y-134790130D01*
X153882187Y-134827646D01*
X153896530Y-134830499D01*
X153896534Y-134830500D01*
X153896535Y-134830500D01*
X154103466Y-134830500D01*
X154103467Y-134830499D01*
X154306420Y-134790130D01*
X154497598Y-134710941D01*
X154669655Y-134595977D01*
X154694902Y-134570730D01*
X159949500Y-134570730D01*
X159949500Y-136129269D01*
X159952353Y-136159699D01*
X159952353Y-136159701D01*
X159997206Y-136287880D01*
X159997207Y-136287882D01*
X160077850Y-136397150D01*
X160187118Y-136477793D01*
X160208089Y-136485131D01*
X160315299Y-136522646D01*
X160345730Y-136525500D01*
X160345734Y-136525500D01*
X161654270Y-136525500D01*
X161684699Y-136522646D01*
X161684701Y-136522646D01*
X161748790Y-136500219D01*
X161812882Y-136477793D01*
X161922150Y-136397150D01*
X162002793Y-136287882D01*
X162025219Y-136223790D01*
X162047646Y-136159701D01*
X162047646Y-136159699D01*
X162050500Y-136129269D01*
X162050500Y-135121530D01*
X162449500Y-135121530D01*
X162449500Y-135578469D01*
X162489868Y-135781412D01*
X162489870Y-135781420D01*
X162569058Y-135972596D01*
X162684024Y-136144657D01*
X162830342Y-136290975D01*
X162830345Y-136290977D01*
X163002402Y-136405941D01*
X163193580Y-136485130D01*
X163382187Y-136522646D01*
X163396530Y-136525499D01*
X163396534Y-136525500D01*
X163396535Y-136525500D01*
X163603466Y-136525500D01*
X163603467Y-136525499D01*
X163806420Y-136485130D01*
X163997598Y-136405941D01*
X164169655Y-136290977D01*
X164315977Y-136144655D01*
X164430941Y-135972598D01*
X164510130Y-135781420D01*
X164550500Y-135578465D01*
X164550500Y-135121535D01*
X164550499Y-135121530D01*
X164949500Y-135121530D01*
X164949500Y-135578469D01*
X164989868Y-135781412D01*
X164989870Y-135781420D01*
X165069058Y-135972596D01*
X165184024Y-136144657D01*
X165330342Y-136290975D01*
X165330345Y-136290977D01*
X165502402Y-136405941D01*
X165693580Y-136485130D01*
X165882187Y-136522646D01*
X165896530Y-136525499D01*
X165896534Y-136525500D01*
X165896535Y-136525500D01*
X166103466Y-136525500D01*
X166103467Y-136525499D01*
X166306420Y-136485130D01*
X166497598Y-136405941D01*
X166669655Y-136290977D01*
X166815977Y-136144655D01*
X166930941Y-135972598D01*
X167010130Y-135781420D01*
X167050500Y-135578465D01*
X167050500Y-135121535D01*
X167010130Y-134918580D01*
X166930941Y-134727402D01*
X166815977Y-134555345D01*
X166815975Y-134555342D01*
X166669657Y-134409024D01*
X166583626Y-134351541D01*
X166497598Y-134294059D01*
X166306420Y-134214870D01*
X166306412Y-134214868D01*
X166103469Y-134174500D01*
X166103465Y-134174500D01*
X165896535Y-134174500D01*
X165896530Y-134174500D01*
X165693587Y-134214868D01*
X165693579Y-134214870D01*
X165502403Y-134294058D01*
X165330342Y-134409024D01*
X165184024Y-134555342D01*
X165069058Y-134727403D01*
X164989870Y-134918579D01*
X164989868Y-134918587D01*
X164949500Y-135121530D01*
X164550499Y-135121530D01*
X164510130Y-134918580D01*
X164430941Y-134727402D01*
X164315977Y-134555345D01*
X164315975Y-134555342D01*
X164169657Y-134409024D01*
X164083626Y-134351541D01*
X163997598Y-134294059D01*
X163806420Y-134214870D01*
X163806412Y-134214868D01*
X163603469Y-134174500D01*
X163603465Y-134174500D01*
X163396535Y-134174500D01*
X163396530Y-134174500D01*
X163193587Y-134214868D01*
X163193579Y-134214870D01*
X163002403Y-134294058D01*
X162830342Y-134409024D01*
X162684024Y-134555342D01*
X162569058Y-134727403D01*
X162489870Y-134918579D01*
X162489868Y-134918587D01*
X162449500Y-135121530D01*
X162050500Y-135121530D01*
X162050500Y-134570730D01*
X162047646Y-134540300D01*
X162047646Y-134540298D01*
X162002793Y-134412119D01*
X162002792Y-134412117D01*
X161922150Y-134302850D01*
X161812882Y-134222207D01*
X161812880Y-134222206D01*
X161684700Y-134177353D01*
X161654270Y-134174500D01*
X161654266Y-134174500D01*
X160345734Y-134174500D01*
X160345730Y-134174500D01*
X160315300Y-134177353D01*
X160315298Y-134177353D01*
X160187119Y-134222206D01*
X160187117Y-134222207D01*
X160077850Y-134302850D01*
X159997207Y-134412117D01*
X159997206Y-134412119D01*
X159952353Y-134540298D01*
X159952353Y-134540300D01*
X159949500Y-134570730D01*
X154694902Y-134570730D01*
X154725334Y-134540298D01*
X154785479Y-134480154D01*
X154815974Y-134449658D01*
X154815975Y-134449657D01*
X154815977Y-134449655D01*
X154930941Y-134277598D01*
X155010130Y-134086420D01*
X155050500Y-133883465D01*
X155050500Y-133877973D01*
X172449500Y-133877973D01*
X172449500Y-134122026D01*
X172476747Y-134294059D01*
X172487679Y-134363076D01*
X172563096Y-134595185D01*
X172662425Y-134790130D01*
X172673896Y-134812642D01*
X172817339Y-135010076D01*
X172817343Y-135010081D01*
X172989918Y-135182656D01*
X172989923Y-135182660D01*
X173162136Y-135307779D01*
X173187361Y-135326106D01*
X173404815Y-135436904D01*
X173636924Y-135512321D01*
X173877973Y-135550500D01*
X173877974Y-135550500D01*
X174122026Y-135550500D01*
X174122027Y-135550500D01*
X174363076Y-135512321D01*
X174595185Y-135436904D01*
X174812639Y-135326106D01*
X175010083Y-135182655D01*
X175182655Y-135010083D01*
X175326106Y-134812639D01*
X175436904Y-134595185D01*
X175512321Y-134363076D01*
X175550500Y-134122027D01*
X175550500Y-133877973D01*
X175512321Y-133636924D01*
X175436904Y-133404815D01*
X175326106Y-133187361D01*
X175226671Y-133050500D01*
X175182660Y-132989923D01*
X175182656Y-132989918D01*
X175010081Y-132817343D01*
X175010076Y-132817339D01*
X174812642Y-132673896D01*
X174812641Y-132673895D01*
X174812639Y-132673894D01*
X174595185Y-132563096D01*
X174363076Y-132487679D01*
X174363074Y-132487678D01*
X174363072Y-132487678D01*
X174194769Y-132461021D01*
X174122027Y-132449500D01*
X173877973Y-132449500D01*
X173822093Y-132458350D01*
X173636927Y-132487678D01*
X173404812Y-132563097D01*
X173187357Y-132673896D01*
X172989923Y-132817339D01*
X172989918Y-132817343D01*
X172817343Y-132989918D01*
X172817339Y-132989923D01*
X172673896Y-133187357D01*
X172563097Y-133404812D01*
X172487678Y-133636927D01*
X172449500Y-133877973D01*
X155050500Y-133877973D01*
X155050500Y-133426535D01*
X155010130Y-133223580D01*
X154930941Y-133032402D01*
X154815977Y-132860345D01*
X154815975Y-132860342D01*
X154669657Y-132714024D01*
X154583626Y-132656541D01*
X154497598Y-132599059D01*
X154401626Y-132559306D01*
X154306420Y-132519870D01*
X154306412Y-132519868D01*
X154103469Y-132479500D01*
X154103465Y-132479500D01*
X153896535Y-132479500D01*
X153896530Y-132479500D01*
X153693587Y-132519868D01*
X153693579Y-132519870D01*
X153502403Y-132599058D01*
X153330342Y-132714024D01*
X153184024Y-132860342D01*
X153069058Y-133032403D01*
X152989870Y-133223579D01*
X152989868Y-133223587D01*
X152949500Y-133426530D01*
X152550499Y-133426530D01*
X152510130Y-133223580D01*
X152430941Y-133032402D01*
X152315977Y-132860345D01*
X152315975Y-132860342D01*
X152169657Y-132714024D01*
X152083626Y-132656541D01*
X151997598Y-132599059D01*
X151901626Y-132559306D01*
X151806420Y-132519870D01*
X151806412Y-132519868D01*
X151603469Y-132479500D01*
X151603465Y-132479500D01*
X151396535Y-132479500D01*
X151396530Y-132479500D01*
X151193587Y-132519868D01*
X151193579Y-132519870D01*
X151002403Y-132599058D01*
X150830342Y-132714024D01*
X150684024Y-132860342D01*
X150569058Y-133032403D01*
X150489870Y-133223579D01*
X150489868Y-133223587D01*
X150449500Y-133426530D01*
X150050499Y-133426530D01*
X150010130Y-133223580D01*
X149930941Y-133032402D01*
X149815977Y-132860345D01*
X149815975Y-132860342D01*
X149669657Y-132714024D01*
X149583626Y-132656541D01*
X149497598Y-132599059D01*
X149401626Y-132559306D01*
X149306420Y-132519870D01*
X149306412Y-132519868D01*
X149103469Y-132479500D01*
X149103465Y-132479500D01*
X148896535Y-132479500D01*
X148896530Y-132479500D01*
X148693587Y-132519868D01*
X148693579Y-132519870D01*
X148502403Y-132599058D01*
X148330342Y-132714024D01*
X148184024Y-132860342D01*
X148069058Y-133032403D01*
X147989870Y-133223579D01*
X147989868Y-133223587D01*
X147949500Y-133426530D01*
X147550500Y-133426530D01*
X147550500Y-132875730D01*
X147547646Y-132845300D01*
X147547646Y-132845298D01*
X147502793Y-132717119D01*
X147502792Y-132717117D01*
X147422150Y-132607850D01*
X147312882Y-132527207D01*
X147312880Y-132527206D01*
X147184700Y-132482353D01*
X147154270Y-132479500D01*
X147154266Y-132479500D01*
X145845734Y-132479500D01*
X145845730Y-132479500D01*
X145815300Y-132482353D01*
X145815298Y-132482353D01*
X145687119Y-132527206D01*
X145687117Y-132527207D01*
X145577850Y-132607850D01*
X145497207Y-132717117D01*
X145497206Y-132717119D01*
X145452353Y-132845298D01*
X145452353Y-132845300D01*
X145449500Y-132875730D01*
X127750215Y-132875730D01*
X127776613Y-132860489D01*
X127860489Y-132776613D01*
X127919799Y-132673886D01*
X127950500Y-132559309D01*
X127950500Y-132440691D01*
X127919799Y-132326114D01*
X127860489Y-132223387D01*
X127776613Y-132139511D01*
X127673886Y-132080201D01*
X127559309Y-132049500D01*
X127440691Y-132049500D01*
X127326114Y-132080201D01*
X127326112Y-132080201D01*
X127326112Y-132080202D01*
X127223387Y-132139511D01*
X127223384Y-132139513D01*
X127139513Y-132223384D01*
X127139511Y-132223387D01*
X127080201Y-132326114D01*
X127049500Y-132440691D01*
X92954513Y-132440691D01*
X92977535Y-132385111D01*
X93001973Y-132326112D01*
X93010130Y-132306420D01*
X93050500Y-132103465D01*
X93050500Y-131896535D01*
X93010130Y-131693580D01*
X92930941Y-131502402D01*
X92815977Y-131330345D01*
X92815975Y-131330342D01*
X92669657Y-131184024D01*
X92534786Y-131093907D01*
X92497598Y-131069059D01*
X92306420Y-130989870D01*
X92306412Y-130989868D01*
X92103469Y-130949500D01*
X92103465Y-130949500D01*
X91896535Y-130949500D01*
X91896530Y-130949500D01*
X91693587Y-130989868D01*
X91693579Y-130989870D01*
X91502403Y-131069058D01*
X91330342Y-131184024D01*
X91184024Y-131330342D01*
X91069058Y-131502403D01*
X90989870Y-131693579D01*
X90989868Y-131693587D01*
X90949500Y-131896530D01*
X78250000Y-131896530D01*
X78250000Y-128590247D01*
X90949500Y-128590247D01*
X90949500Y-130329752D01*
X90961131Y-130388229D01*
X90961132Y-130388230D01*
X91005447Y-130454552D01*
X91071769Y-130498867D01*
X91071770Y-130498868D01*
X91130247Y-130510499D01*
X91130250Y-130510500D01*
X91130252Y-130510500D01*
X92869750Y-130510500D01*
X92869751Y-130510499D01*
X92884568Y-130507552D01*
X92928229Y-130498868D01*
X92928229Y-130498867D01*
X92928231Y-130498867D01*
X92994552Y-130454552D01*
X93038867Y-130388231D01*
X93038867Y-130388229D01*
X93038868Y-130388229D01*
X93050499Y-130329752D01*
X93050500Y-130329750D01*
X93050500Y-130015730D01*
X128952000Y-130015730D01*
X128952000Y-131224269D01*
X128954853Y-131254699D01*
X128954853Y-131254701D01*
X128999706Y-131382880D01*
X128999707Y-131382882D01*
X129080350Y-131492150D01*
X129189618Y-131572793D01*
X129216076Y-131582051D01*
X129317799Y-131617646D01*
X129348230Y-131620500D01*
X129348234Y-131620500D01*
X130556770Y-131620500D01*
X130587199Y-131617646D01*
X130587201Y-131617646D01*
X130651290Y-131595219D01*
X130715382Y-131572793D01*
X130824650Y-131492150D01*
X130905293Y-131382882D01*
X130927719Y-131318790D01*
X130950146Y-131254701D01*
X130950146Y-131254699D01*
X130953000Y-131224269D01*
X130953000Y-130718543D01*
X131491999Y-130718543D01*
X131530447Y-130911829D01*
X131530450Y-130911839D01*
X131605864Y-131093907D01*
X131605871Y-131093920D01*
X131715360Y-131257781D01*
X131715363Y-131257785D01*
X131854714Y-131397136D01*
X131854718Y-131397139D01*
X132018579Y-131506628D01*
X132018592Y-131506635D01*
X132178314Y-131572793D01*
X132200665Y-131582051D01*
X132200669Y-131582051D01*
X132200670Y-131582052D01*
X132393956Y-131620500D01*
X132393959Y-131620500D01*
X132591043Y-131620500D01*
X132721082Y-131594632D01*
X132784335Y-131582051D01*
X132966414Y-131506632D01*
X133130282Y-131397139D01*
X133269639Y-131257782D01*
X133379132Y-131093914D01*
X133454551Y-130911835D01*
X133493000Y-130718543D01*
X134031999Y-130718543D01*
X134070447Y-130911829D01*
X134070450Y-130911839D01*
X134145864Y-131093907D01*
X134145871Y-131093920D01*
X134255360Y-131257781D01*
X134255363Y-131257785D01*
X134394714Y-131397136D01*
X134394718Y-131397139D01*
X134558579Y-131506628D01*
X134558592Y-131506635D01*
X134718314Y-131572793D01*
X134740665Y-131582051D01*
X134740669Y-131582051D01*
X134740670Y-131582052D01*
X134933956Y-131620500D01*
X134933959Y-131620500D01*
X135131043Y-131620500D01*
X135261082Y-131594632D01*
X135324335Y-131582051D01*
X135506414Y-131506632D01*
X135670282Y-131397139D01*
X135809639Y-131257782D01*
X135919132Y-131093914D01*
X135994551Y-130911835D01*
X136033000Y-130718543D01*
X136571999Y-130718543D01*
X136610447Y-130911829D01*
X136610450Y-130911839D01*
X136685864Y-131093907D01*
X136685871Y-131093920D01*
X136795360Y-131257781D01*
X136795363Y-131257785D01*
X136934714Y-131397136D01*
X136934718Y-131397139D01*
X137098579Y-131506628D01*
X137098592Y-131506635D01*
X137258314Y-131572793D01*
X137280665Y-131582051D01*
X137280669Y-131582051D01*
X137280670Y-131582052D01*
X137473956Y-131620500D01*
X137473959Y-131620500D01*
X137671043Y-131620500D01*
X137801082Y-131594632D01*
X137864335Y-131582051D01*
X138046414Y-131506632D01*
X138210282Y-131397139D01*
X138349639Y-131257782D01*
X138459132Y-131093914D01*
X138534551Y-130911835D01*
X138573000Y-130718541D01*
X138573000Y-130521459D01*
X138573000Y-130521456D01*
X138534552Y-130328170D01*
X138534551Y-130328169D01*
X138534551Y-130328165D01*
X138534549Y-130328160D01*
X138459135Y-130146092D01*
X138459128Y-130146079D01*
X138349639Y-129982218D01*
X138349636Y-129982214D01*
X138210285Y-129842863D01*
X138210281Y-129842860D01*
X138046420Y-129733371D01*
X138046407Y-129733364D01*
X137864339Y-129657950D01*
X137864329Y-129657947D01*
X137671043Y-129619500D01*
X137671041Y-129619500D01*
X137473959Y-129619500D01*
X137473957Y-129619500D01*
X137280670Y-129657947D01*
X137280660Y-129657950D01*
X137098592Y-129733364D01*
X137098579Y-129733371D01*
X136934718Y-129842860D01*
X136934714Y-129842863D01*
X136795363Y-129982214D01*
X136795360Y-129982218D01*
X136685871Y-130146079D01*
X136685864Y-130146092D01*
X136610450Y-130328160D01*
X136610447Y-130328170D01*
X136572000Y-130521456D01*
X136572000Y-130521459D01*
X136572000Y-130718541D01*
X136572000Y-130718543D01*
X136571999Y-130718543D01*
X136033000Y-130718543D01*
X136033000Y-130718541D01*
X136033000Y-130521459D01*
X136033000Y-130521456D01*
X135994552Y-130328170D01*
X135994551Y-130328169D01*
X135994551Y-130328165D01*
X135994549Y-130328160D01*
X135919135Y-130146092D01*
X135919128Y-130146079D01*
X135809639Y-129982218D01*
X135809636Y-129982214D01*
X135670285Y-129842863D01*
X135670281Y-129842860D01*
X135506420Y-129733371D01*
X135506407Y-129733364D01*
X135324339Y-129657950D01*
X135324329Y-129657947D01*
X135131043Y-129619500D01*
X135131041Y-129619500D01*
X134933959Y-129619500D01*
X134933957Y-129619500D01*
X134740670Y-129657947D01*
X134740660Y-129657950D01*
X134558592Y-129733364D01*
X134558579Y-129733371D01*
X134394718Y-129842860D01*
X134394714Y-129842863D01*
X134255363Y-129982214D01*
X134255360Y-129982218D01*
X134145871Y-130146079D01*
X134145864Y-130146092D01*
X134070450Y-130328160D01*
X134070447Y-130328170D01*
X134032000Y-130521456D01*
X134032000Y-130521459D01*
X134032000Y-130718541D01*
X134032000Y-130718543D01*
X134031999Y-130718543D01*
X133493000Y-130718543D01*
X133493000Y-130718541D01*
X133493000Y-130521459D01*
X133493000Y-130521456D01*
X133454552Y-130328170D01*
X133454551Y-130328169D01*
X133454551Y-130328165D01*
X133454549Y-130328160D01*
X133379135Y-130146092D01*
X133379128Y-130146079D01*
X133269639Y-129982218D01*
X133269636Y-129982214D01*
X133130285Y-129842863D01*
X133130281Y-129842860D01*
X132966420Y-129733371D01*
X132966407Y-129733364D01*
X132784339Y-129657950D01*
X132784329Y-129657947D01*
X132591043Y-129619500D01*
X132591041Y-129619500D01*
X132393959Y-129619500D01*
X132393957Y-129619500D01*
X132200670Y-129657947D01*
X132200660Y-129657950D01*
X132018592Y-129733364D01*
X132018579Y-129733371D01*
X131854718Y-129842860D01*
X131854714Y-129842863D01*
X131715363Y-129982214D01*
X131715360Y-129982218D01*
X131605871Y-130146079D01*
X131605864Y-130146092D01*
X131530450Y-130328160D01*
X131530447Y-130328170D01*
X131492000Y-130521456D01*
X131492000Y-130521459D01*
X131492000Y-130718541D01*
X131492000Y-130718543D01*
X131491999Y-130718543D01*
X130953000Y-130718543D01*
X130953000Y-130015730D01*
X130950146Y-129985300D01*
X130950146Y-129985298D01*
X130905293Y-129857119D01*
X130905292Y-129857117D01*
X130894770Y-129842860D01*
X130824650Y-129747850D01*
X130715382Y-129667207D01*
X130715380Y-129667206D01*
X130587200Y-129622353D01*
X130556770Y-129619500D01*
X130556766Y-129619500D01*
X129348234Y-129619500D01*
X129348230Y-129619500D01*
X129317800Y-129622353D01*
X129317798Y-129622353D01*
X129189619Y-129667206D01*
X129189617Y-129667207D01*
X129080350Y-129747850D01*
X128999707Y-129857117D01*
X128999706Y-129857119D01*
X128954853Y-129985298D01*
X128954853Y-129985300D01*
X128952000Y-130015730D01*
X93050500Y-130015730D01*
X93050500Y-128590249D01*
X93050499Y-128590247D01*
X93038868Y-128531770D01*
X93038867Y-128531769D01*
X92994552Y-128465447D01*
X92928230Y-128421132D01*
X92928229Y-128421131D01*
X92869752Y-128409500D01*
X92869748Y-128409500D01*
X91130252Y-128409500D01*
X91130247Y-128409500D01*
X91071770Y-128421131D01*
X91071769Y-128421132D01*
X91005447Y-128465447D01*
X90961132Y-128531769D01*
X90961131Y-128531770D01*
X90949500Y-128590247D01*
X78250000Y-128590247D01*
X78250000Y-127280247D01*
X79449500Y-127280247D01*
X79449500Y-128219752D01*
X79461131Y-128278229D01*
X79461132Y-128278230D01*
X79505447Y-128344552D01*
X79571769Y-128388867D01*
X79571770Y-128388868D01*
X79630247Y-128400499D01*
X79630250Y-128400500D01*
X79630252Y-128400500D01*
X81669750Y-128400500D01*
X81669751Y-128400499D01*
X81684568Y-128397552D01*
X81728229Y-128388868D01*
X81728229Y-128388867D01*
X81728231Y-128388867D01*
X81794552Y-128344552D01*
X81838867Y-128278231D01*
X81838867Y-128278229D01*
X81838868Y-128278229D01*
X81850499Y-128219752D01*
X81850500Y-128219750D01*
X81850500Y-127280249D01*
X81850499Y-127280247D01*
X81838868Y-127221770D01*
X81838867Y-127221769D01*
X81794552Y-127155447D01*
X81728230Y-127111132D01*
X81728229Y-127111131D01*
X81669752Y-127099500D01*
X81669748Y-127099500D01*
X79630252Y-127099500D01*
X79630247Y-127099500D01*
X79571770Y-127111131D01*
X79571769Y-127111132D01*
X79505447Y-127155447D01*
X79461132Y-127221769D01*
X79461131Y-127221770D01*
X79449500Y-127280247D01*
X78250000Y-127280247D01*
X78250000Y-123504731D01*
X84100000Y-123504731D01*
X84100000Y-124350000D01*
X85322769Y-124350000D01*
X85300000Y-124493753D01*
X85300000Y-124706247D01*
X85322769Y-124850000D01*
X84100000Y-124850000D01*
X84100000Y-125695268D01*
X84110215Y-125839958D01*
X84110217Y-125839968D01*
X84164313Y-126080165D01*
X84164315Y-126080172D01*
X84256244Y-126308585D01*
X84383620Y-126519289D01*
X84383627Y-126519299D01*
X84543153Y-126706846D01*
X84730700Y-126866372D01*
X84730710Y-126866379D01*
X84941414Y-126993755D01*
X85169827Y-127085684D01*
X85169834Y-127085686D01*
X85410031Y-127139782D01*
X85410041Y-127139784D01*
X85554731Y-127149999D01*
X85554734Y-127150000D01*
X86400000Y-127150000D01*
X86400000Y-125927231D01*
X86543753Y-125950000D01*
X86756247Y-125950000D01*
X86900000Y-125927231D01*
X86900000Y-127150000D01*
X87745266Y-127150000D01*
X87745268Y-127149999D01*
X87889958Y-127139784D01*
X87889968Y-127139782D01*
X88130165Y-127085686D01*
X88130172Y-127085684D01*
X88358585Y-126993755D01*
X88569289Y-126866379D01*
X88569299Y-126866372D01*
X88756846Y-126706846D01*
X88916372Y-126519299D01*
X88916379Y-126519289D01*
X89043755Y-126308585D01*
X89135684Y-126080172D01*
X89135686Y-126080165D01*
X89189782Y-125839968D01*
X89189784Y-125839958D01*
X89199999Y-125695268D01*
X89200000Y-125695266D01*
X89200000Y-124850000D01*
X87977231Y-124850000D01*
X87986625Y-124790691D01*
X152849500Y-124790691D01*
X152849500Y-124909309D01*
X152880201Y-125023886D01*
X152939511Y-125126613D01*
X153023387Y-125210489D01*
X153047440Y-125224376D01*
X153122327Y-125267614D01*
X153170542Y-125318181D01*
X153183764Y-125386788D01*
X153157796Y-125451653D01*
X153122327Y-125482386D01*
X153023393Y-125539507D01*
X153023384Y-125539513D01*
X152939513Y-125623384D01*
X152939511Y-125623387D01*
X152880201Y-125726114D01*
X152849500Y-125840691D01*
X152849500Y-125959309D01*
X152880201Y-126073886D01*
X152939511Y-126176613D01*
X153023387Y-126260489D01*
X153126114Y-126319799D01*
X153240691Y-126350500D01*
X153240694Y-126350500D01*
X153359306Y-126350500D01*
X153359309Y-126350500D01*
X153473886Y-126319799D01*
X153576613Y-126260489D01*
X153660489Y-126176613D01*
X153719799Y-126073886D01*
X153750500Y-125959309D01*
X153750500Y-125840691D01*
X153719799Y-125726114D01*
X153660489Y-125623387D01*
X153576613Y-125539511D01*
X153477671Y-125482386D01*
X153429457Y-125431819D01*
X153416235Y-125363212D01*
X153442203Y-125298348D01*
X153477672Y-125267613D01*
X153576613Y-125210489D01*
X153660489Y-125126613D01*
X153719799Y-125023886D01*
X153750500Y-124909309D01*
X153750500Y-124790691D01*
X153719799Y-124676114D01*
X153660489Y-124573387D01*
X153576613Y-124489511D01*
X153473886Y-124430201D01*
X153359309Y-124399500D01*
X153240691Y-124399500D01*
X153126114Y-124430201D01*
X153126112Y-124430201D01*
X153126112Y-124430202D01*
X153023387Y-124489511D01*
X153023384Y-124489513D01*
X152939513Y-124573384D01*
X152939511Y-124573387D01*
X152880201Y-124676114D01*
X152849500Y-124790691D01*
X87986625Y-124790691D01*
X88000000Y-124706247D01*
X88000000Y-124493753D01*
X87977231Y-124350000D01*
X89200000Y-124350000D01*
X89200000Y-123504734D01*
X89199999Y-123504731D01*
X89189784Y-123360041D01*
X89189782Y-123360031D01*
X89135686Y-123119834D01*
X89135684Y-123119827D01*
X89127118Y-123098543D01*
X128951999Y-123098543D01*
X128990447Y-123291829D01*
X128990450Y-123291839D01*
X129065864Y-123473907D01*
X129065871Y-123473920D01*
X129175360Y-123637781D01*
X129175363Y-123637785D01*
X129314714Y-123777136D01*
X129314718Y-123777139D01*
X129478579Y-123886628D01*
X129478592Y-123886635D01*
X129654038Y-123959306D01*
X129660665Y-123962051D01*
X129660669Y-123962051D01*
X129660670Y-123962052D01*
X129853956Y-124000500D01*
X129853959Y-124000500D01*
X130051043Y-124000500D01*
X130181082Y-123974632D01*
X130244335Y-123962051D01*
X130426414Y-123886632D01*
X130590282Y-123777139D01*
X130729639Y-123637782D01*
X130839132Y-123473914D01*
X130914551Y-123291835D01*
X130948058Y-123123387D01*
X130953000Y-123098543D01*
X131491999Y-123098543D01*
X131530447Y-123291829D01*
X131530450Y-123291839D01*
X131605864Y-123473907D01*
X131605871Y-123473920D01*
X131715360Y-123637781D01*
X131715363Y-123637785D01*
X131854714Y-123777136D01*
X131854718Y-123777139D01*
X132018579Y-123886628D01*
X132018592Y-123886635D01*
X132194038Y-123959306D01*
X132200665Y-123962051D01*
X132200669Y-123962051D01*
X132200670Y-123962052D01*
X132393956Y-124000500D01*
X132393959Y-124000500D01*
X132591043Y-124000500D01*
X132721082Y-123974632D01*
X132784335Y-123962051D01*
X132966414Y-123886632D01*
X133130282Y-123777139D01*
X133269639Y-123637782D01*
X133379132Y-123473914D01*
X133454551Y-123291835D01*
X133488058Y-123123387D01*
X133493000Y-123098543D01*
X134031999Y-123098543D01*
X134070447Y-123291829D01*
X134070450Y-123291839D01*
X134145864Y-123473907D01*
X134145871Y-123473920D01*
X134255360Y-123637781D01*
X134255363Y-123637785D01*
X134394714Y-123777136D01*
X134394718Y-123777139D01*
X134558579Y-123886628D01*
X134558592Y-123886635D01*
X134734038Y-123959306D01*
X134740665Y-123962051D01*
X134740669Y-123962051D01*
X134740670Y-123962052D01*
X134933956Y-124000500D01*
X134933959Y-124000500D01*
X135131043Y-124000500D01*
X135261082Y-123974632D01*
X135324335Y-123962051D01*
X135506414Y-123886632D01*
X135670282Y-123777139D01*
X135809639Y-123637782D01*
X135919132Y-123473914D01*
X135994551Y-123291835D01*
X136028058Y-123123387D01*
X136033000Y-123098543D01*
X136571999Y-123098543D01*
X136610447Y-123291829D01*
X136610450Y-123291839D01*
X136685864Y-123473907D01*
X136685871Y-123473920D01*
X136795360Y-123637781D01*
X136795363Y-123637785D01*
X136934714Y-123777136D01*
X136934718Y-123777139D01*
X137098579Y-123886628D01*
X137098592Y-123886635D01*
X137274038Y-123959306D01*
X137280665Y-123962051D01*
X137280669Y-123962051D01*
X137280670Y-123962052D01*
X137473956Y-124000500D01*
X137473959Y-124000500D01*
X137671043Y-124000500D01*
X137801082Y-123974632D01*
X137864335Y-123962051D01*
X138046414Y-123886632D01*
X138115170Y-123840691D01*
X147699500Y-123840691D01*
X147699500Y-123959309D01*
X147730201Y-124073886D01*
X147789511Y-124176613D01*
X147873387Y-124260489D01*
X147976114Y-124319799D01*
X148090691Y-124350500D01*
X148090694Y-124350500D01*
X148209306Y-124350500D01*
X148209309Y-124350500D01*
X148323886Y-124319799D01*
X148426613Y-124260489D01*
X148510489Y-124176613D01*
X148569799Y-124073886D01*
X148600500Y-123959309D01*
X148600500Y-123940691D01*
X155499500Y-123940691D01*
X155499500Y-124059309D01*
X155530201Y-124173886D01*
X155589511Y-124276613D01*
X155673387Y-124360489D01*
X155776114Y-124419799D01*
X155890691Y-124450500D01*
X155890694Y-124450500D01*
X156009306Y-124450500D01*
X156009309Y-124450500D01*
X156123886Y-124419799D01*
X156226613Y-124360489D01*
X156310489Y-124276613D01*
X156369799Y-124173886D01*
X156400500Y-124059309D01*
X156400500Y-123940691D01*
X156369799Y-123826114D01*
X156310489Y-123723387D01*
X156226613Y-123639511D01*
X156123886Y-123580201D01*
X156009309Y-123549500D01*
X155890691Y-123549500D01*
X155776114Y-123580201D01*
X155776112Y-123580201D01*
X155776112Y-123580202D01*
X155673387Y-123639511D01*
X155673384Y-123639513D01*
X155589513Y-123723384D01*
X155589511Y-123723387D01*
X155568091Y-123760488D01*
X155530201Y-123826114D01*
X155499500Y-123940691D01*
X148600500Y-123940691D01*
X148600500Y-123840691D01*
X148569799Y-123726114D01*
X148510489Y-123623387D01*
X148426613Y-123539511D01*
X148323886Y-123480201D01*
X148219901Y-123452338D01*
X148216352Y-123451387D01*
X148209309Y-123449500D01*
X148090691Y-123449500D01*
X147976114Y-123480201D01*
X147976112Y-123480201D01*
X147976112Y-123480202D01*
X147873387Y-123539511D01*
X147873384Y-123539513D01*
X147789513Y-123623384D01*
X147789511Y-123623387D01*
X147733423Y-123720534D01*
X147730201Y-123726114D01*
X147699500Y-123840691D01*
X138115170Y-123840691D01*
X138210282Y-123777139D01*
X138210285Y-123777136D01*
X138242539Y-123744883D01*
X138349636Y-123637785D01*
X138349639Y-123637782D01*
X138459132Y-123473914D01*
X138514314Y-123340691D01*
X148899500Y-123340691D01*
X148899500Y-123459309D01*
X148930201Y-123573886D01*
X148989511Y-123676613D01*
X149073387Y-123760489D01*
X149176114Y-123819799D01*
X149290691Y-123850500D01*
X149290694Y-123850500D01*
X149409306Y-123850500D01*
X149409309Y-123850500D01*
X149523886Y-123819799D01*
X149626613Y-123760489D01*
X149710489Y-123676613D01*
X149769799Y-123573886D01*
X149800500Y-123459309D01*
X149800500Y-123340691D01*
X150149500Y-123340691D01*
X150149500Y-123459309D01*
X150180201Y-123573886D01*
X150239511Y-123676613D01*
X150323387Y-123760489D01*
X150426114Y-123819799D01*
X150540691Y-123850500D01*
X150540694Y-123850500D01*
X150659306Y-123850500D01*
X150659309Y-123850500D01*
X150773886Y-123819799D01*
X150876613Y-123760489D01*
X150960489Y-123676613D01*
X151019799Y-123573886D01*
X151050500Y-123459309D01*
X151050500Y-123340691D01*
X151019799Y-123226114D01*
X150960489Y-123123387D01*
X150876613Y-123039511D01*
X150773886Y-122980201D01*
X150659309Y-122949500D01*
X150540691Y-122949500D01*
X150426114Y-122980201D01*
X150426112Y-122980201D01*
X150426112Y-122980202D01*
X150323387Y-123039511D01*
X150323384Y-123039513D01*
X150239513Y-123123384D01*
X150239511Y-123123387D01*
X150191028Y-123207362D01*
X150180201Y-123226114D01*
X150149500Y-123340691D01*
X149800500Y-123340691D01*
X149769799Y-123226114D01*
X149710489Y-123123387D01*
X149626613Y-123039511D01*
X149523886Y-122980201D01*
X149409309Y-122949500D01*
X149290691Y-122949500D01*
X149176114Y-122980201D01*
X149176112Y-122980201D01*
X149176112Y-122980202D01*
X149073387Y-123039511D01*
X149073384Y-123039513D01*
X148989513Y-123123384D01*
X148989511Y-123123387D01*
X148941028Y-123207362D01*
X148930201Y-123226114D01*
X148899500Y-123340691D01*
X138514314Y-123340691D01*
X138534551Y-123291835D01*
X138568058Y-123123387D01*
X138573000Y-123098543D01*
X138573000Y-122901456D01*
X138572999Y-122901454D01*
X138541743Y-122744318D01*
X138538547Y-122728254D01*
X146561937Y-122728254D01*
X146561937Y-122846872D01*
X146592638Y-122961449D01*
X146651948Y-123064176D01*
X146735824Y-123148052D01*
X146838551Y-123207362D01*
X146953128Y-123238063D01*
X146953131Y-123238063D01*
X147071743Y-123238063D01*
X147071746Y-123238063D01*
X147186323Y-123207362D01*
X147289050Y-123148052D01*
X147372926Y-123064176D01*
X147432236Y-122961449D01*
X147462937Y-122846872D01*
X147462937Y-122728254D01*
X147432236Y-122613677D01*
X147372926Y-122510950D01*
X147289050Y-122427074D01*
X147186323Y-122367764D01*
X147071746Y-122337063D01*
X146953128Y-122337063D01*
X146838551Y-122367764D01*
X146838549Y-122367764D01*
X146838549Y-122367765D01*
X146735824Y-122427074D01*
X146735821Y-122427076D01*
X146651950Y-122510947D01*
X146651948Y-122510950D01*
X146592638Y-122613677D01*
X146561937Y-122728254D01*
X138538547Y-122728254D01*
X138534552Y-122708170D01*
X138534551Y-122708169D01*
X138534551Y-122708165D01*
X138495413Y-122613677D01*
X138459135Y-122526092D01*
X138459128Y-122526079D01*
X138349639Y-122362218D01*
X138349636Y-122362214D01*
X138210285Y-122222863D01*
X138210281Y-122222860D01*
X138046420Y-122113371D01*
X138046407Y-122113364D01*
X137864339Y-122037950D01*
X137864329Y-122037947D01*
X137671043Y-121999500D01*
X137671041Y-121999500D01*
X137473959Y-121999500D01*
X137473957Y-121999500D01*
X137280670Y-122037947D01*
X137280660Y-122037950D01*
X137098592Y-122113364D01*
X137098579Y-122113371D01*
X136934718Y-122222860D01*
X136934714Y-122222863D01*
X136795363Y-122362214D01*
X136795360Y-122362218D01*
X136685871Y-122526079D01*
X136685864Y-122526092D01*
X136610450Y-122708160D01*
X136610447Y-122708170D01*
X136572000Y-122901456D01*
X136572000Y-122901459D01*
X136572000Y-123098541D01*
X136572000Y-123098543D01*
X136571999Y-123098543D01*
X136033000Y-123098543D01*
X136033000Y-122901456D01*
X135994552Y-122708170D01*
X135994551Y-122708169D01*
X135994551Y-122708165D01*
X135955413Y-122613677D01*
X135919135Y-122526092D01*
X135919128Y-122526079D01*
X135809639Y-122362218D01*
X135809636Y-122362214D01*
X135670285Y-122222863D01*
X135670281Y-122222860D01*
X135506420Y-122113371D01*
X135506407Y-122113364D01*
X135324339Y-122037950D01*
X135324329Y-122037947D01*
X135131043Y-121999500D01*
X135131041Y-121999500D01*
X134933959Y-121999500D01*
X134933957Y-121999500D01*
X134740670Y-122037947D01*
X134740660Y-122037950D01*
X134558592Y-122113364D01*
X134558579Y-122113371D01*
X134394718Y-122222860D01*
X134394714Y-122222863D01*
X134255363Y-122362214D01*
X134255360Y-122362218D01*
X134145871Y-122526079D01*
X134145864Y-122526092D01*
X134070450Y-122708160D01*
X134070447Y-122708170D01*
X134032000Y-122901456D01*
X134032000Y-122901459D01*
X134032000Y-123098541D01*
X134032000Y-123098543D01*
X134031999Y-123098543D01*
X133493000Y-123098543D01*
X133493000Y-122901456D01*
X133454552Y-122708170D01*
X133454551Y-122708169D01*
X133454551Y-122708165D01*
X133415413Y-122613677D01*
X133379135Y-122526092D01*
X133379128Y-122526079D01*
X133269639Y-122362218D01*
X133269636Y-122362214D01*
X133130285Y-122222863D01*
X133130281Y-122222860D01*
X132966420Y-122113371D01*
X132966407Y-122113364D01*
X132784339Y-122037950D01*
X132784329Y-122037947D01*
X132591043Y-121999500D01*
X132591041Y-121999500D01*
X132393959Y-121999500D01*
X132393957Y-121999500D01*
X132200670Y-122037947D01*
X132200660Y-122037950D01*
X132018592Y-122113364D01*
X132018579Y-122113371D01*
X131854718Y-122222860D01*
X131854714Y-122222863D01*
X131715363Y-122362214D01*
X131715360Y-122362218D01*
X131605871Y-122526079D01*
X131605864Y-122526092D01*
X131530450Y-122708160D01*
X131530447Y-122708170D01*
X131492000Y-122901456D01*
X131492000Y-122901459D01*
X131492000Y-123098541D01*
X131492000Y-123098543D01*
X131491999Y-123098543D01*
X130953000Y-123098543D01*
X130953000Y-122901456D01*
X130914552Y-122708170D01*
X130914551Y-122708169D01*
X130914551Y-122708165D01*
X130875413Y-122613677D01*
X130839135Y-122526092D01*
X130839128Y-122526079D01*
X130729639Y-122362218D01*
X130729636Y-122362214D01*
X130590285Y-122222863D01*
X130590281Y-122222860D01*
X130426420Y-122113371D01*
X130426407Y-122113364D01*
X130244339Y-122037950D01*
X130244329Y-122037947D01*
X130051043Y-121999500D01*
X130051041Y-121999500D01*
X129853959Y-121999500D01*
X129853957Y-121999500D01*
X129660670Y-122037947D01*
X129660660Y-122037950D01*
X129478592Y-122113364D01*
X129478579Y-122113371D01*
X129314718Y-122222860D01*
X129314714Y-122222863D01*
X129175363Y-122362214D01*
X129175360Y-122362218D01*
X129065871Y-122526079D01*
X129065864Y-122526092D01*
X128990450Y-122708160D01*
X128990447Y-122708170D01*
X128952000Y-122901456D01*
X128952000Y-122901459D01*
X128952000Y-123098541D01*
X128952000Y-123098543D01*
X128951999Y-123098543D01*
X89127118Y-123098543D01*
X89063979Y-122941664D01*
X89043755Y-122891414D01*
X88916379Y-122680710D01*
X88916372Y-122680700D01*
X88756846Y-122493153D01*
X88569299Y-122333627D01*
X88569289Y-122333620D01*
X88358585Y-122206244D01*
X88130172Y-122114315D01*
X88130165Y-122114313D01*
X87889968Y-122060217D01*
X87889958Y-122060215D01*
X87745268Y-122050000D01*
X86900000Y-122050000D01*
X86900000Y-123272768D01*
X86756247Y-123250000D01*
X86543753Y-123250000D01*
X86400000Y-123272768D01*
X86400000Y-122050000D01*
X85554731Y-122050000D01*
X85410041Y-122060215D01*
X85410031Y-122060217D01*
X85169834Y-122114313D01*
X85169827Y-122114315D01*
X84941414Y-122206244D01*
X84730710Y-122333620D01*
X84730700Y-122333627D01*
X84543153Y-122493153D01*
X84383627Y-122680700D01*
X84383620Y-122680710D01*
X84256244Y-122891414D01*
X84164315Y-123119827D01*
X84164313Y-123119834D01*
X84110217Y-123360031D01*
X84110215Y-123360041D01*
X84100000Y-123504731D01*
X78250000Y-123504731D01*
X78250000Y-121703254D01*
X145536937Y-121703254D01*
X145536937Y-121821872D01*
X145567638Y-121936449D01*
X145626948Y-122039176D01*
X145710824Y-122123052D01*
X145813551Y-122182362D01*
X145928128Y-122213063D01*
X145928131Y-122213063D01*
X146046743Y-122213063D01*
X146046746Y-122213063D01*
X146161323Y-122182362D01*
X146264050Y-122123052D01*
X146347926Y-122039176D01*
X146407236Y-121936449D01*
X146437937Y-121821872D01*
X146437937Y-121703254D01*
X146407236Y-121588677D01*
X146347926Y-121485950D01*
X146264050Y-121402074D01*
X146161323Y-121342764D01*
X146046746Y-121312063D01*
X145928128Y-121312063D01*
X145822942Y-121340247D01*
X145813547Y-121342765D01*
X145752653Y-121377922D01*
X145752648Y-121377926D01*
X145710824Y-121402074D01*
X145626948Y-121485950D01*
X145602800Y-121527774D01*
X145602796Y-121527779D01*
X145567639Y-121588673D01*
X145567638Y-121588677D01*
X145536937Y-121703254D01*
X78250000Y-121703254D01*
X78250000Y-120908469D01*
X144742152Y-120908469D01*
X144742152Y-121027087D01*
X144772853Y-121141664D01*
X144832163Y-121244391D01*
X144916039Y-121328267D01*
X145018766Y-121387577D01*
X145133343Y-121418278D01*
X145133346Y-121418278D01*
X145251958Y-121418278D01*
X145251961Y-121418278D01*
X145366538Y-121387577D01*
X145469265Y-121328267D01*
X145553141Y-121244391D01*
X145612451Y-121141664D01*
X145643152Y-121027087D01*
X145643152Y-120908469D01*
X145612451Y-120793892D01*
X145553141Y-120691165D01*
X145469265Y-120607289D01*
X145366538Y-120547979D01*
X145251961Y-120517278D01*
X145133343Y-120517278D01*
X145018766Y-120547979D01*
X145018764Y-120547979D01*
X145018764Y-120547980D01*
X144916039Y-120607289D01*
X144916036Y-120607291D01*
X144832165Y-120691162D01*
X144832163Y-120691165D01*
X144772853Y-120793892D01*
X144742152Y-120908469D01*
X78250000Y-120908469D01*
X78250000Y-117228681D01*
X83599500Y-117228681D01*
X83599500Y-117571318D01*
X83637858Y-117911768D01*
X83637861Y-117911782D01*
X83714102Y-118245816D01*
X83714103Y-118245818D01*
X83827264Y-118569216D01*
X83975922Y-118877907D01*
X83985296Y-118892826D01*
X84158211Y-119168018D01*
X84371834Y-119435893D01*
X84614107Y-119678166D01*
X84881982Y-119891789D01*
X85172090Y-120074076D01*
X85480785Y-120222736D01*
X85804183Y-120335897D01*
X86138217Y-120412139D01*
X86138226Y-120412140D01*
X86138231Y-120412141D01*
X86365197Y-120437713D01*
X86478682Y-120450499D01*
X86478685Y-120450500D01*
X86478688Y-120450500D01*
X86821315Y-120450500D01*
X86821316Y-120450499D01*
X86995311Y-120430895D01*
X87161768Y-120412141D01*
X87161771Y-120412140D01*
X87161783Y-120412139D01*
X87495817Y-120335897D01*
X87819215Y-120222736D01*
X88127910Y-120074076D01*
X88418018Y-119891789D01*
X88685893Y-119678166D01*
X88811482Y-119552577D01*
X148050975Y-119552577D01*
X148156236Y-119596178D01*
X148156240Y-119596179D01*
X148301126Y-119624999D01*
X148301129Y-119625000D01*
X148448871Y-119625000D01*
X148448873Y-119624999D01*
X148593760Y-119596179D01*
X148593775Y-119596175D01*
X148699024Y-119552578D01*
X148699024Y-119552577D01*
X149175975Y-119552577D01*
X149281236Y-119596178D01*
X149281240Y-119596179D01*
X149426126Y-119624999D01*
X149426129Y-119625000D01*
X149573871Y-119625000D01*
X149573873Y-119624999D01*
X149718760Y-119596179D01*
X149718775Y-119596175D01*
X149824024Y-119552578D01*
X149824024Y-119552577D01*
X150300975Y-119552577D01*
X150406236Y-119596178D01*
X150406240Y-119596179D01*
X150551126Y-119624999D01*
X150551129Y-119625000D01*
X150698871Y-119625000D01*
X150698873Y-119624999D01*
X150843760Y-119596179D01*
X150843775Y-119596175D01*
X150949024Y-119552578D01*
X150949024Y-119552577D01*
X151425975Y-119552577D01*
X151531236Y-119596178D01*
X151531240Y-119596179D01*
X151676126Y-119624999D01*
X151676129Y-119625000D01*
X151823871Y-119625000D01*
X151823873Y-119624999D01*
X151968760Y-119596179D01*
X151968775Y-119596175D01*
X152074024Y-119552578D01*
X152074024Y-119552577D01*
X152550975Y-119552577D01*
X152656236Y-119596178D01*
X152656240Y-119596179D01*
X152801126Y-119624999D01*
X152801129Y-119625000D01*
X152948871Y-119625000D01*
X152948873Y-119624999D01*
X153093760Y-119596179D01*
X153093775Y-119596175D01*
X153199024Y-119552578D01*
X153199024Y-119552577D01*
X152875001Y-119228554D01*
X152875000Y-119228554D01*
X152550975Y-119552577D01*
X152074024Y-119552577D01*
X151750001Y-119228554D01*
X151750000Y-119228554D01*
X151425975Y-119552577D01*
X150949024Y-119552577D01*
X150625001Y-119228554D01*
X150625000Y-119228554D01*
X150300975Y-119552577D01*
X149824024Y-119552577D01*
X149500001Y-119228554D01*
X149500000Y-119228554D01*
X149175975Y-119552577D01*
X148699024Y-119552577D01*
X148375001Y-119228554D01*
X148375000Y-119228554D01*
X148050975Y-119552577D01*
X88811482Y-119552577D01*
X88928166Y-119435893D01*
X89141789Y-119168018D01*
X89324076Y-118877910D01*
X89472736Y-118569215D01*
X89585897Y-118245817D01*
X89655541Y-117940691D01*
X99549500Y-117940691D01*
X99549500Y-118059309D01*
X99580201Y-118173886D01*
X99639511Y-118276613D01*
X99723387Y-118360489D01*
X99826114Y-118419799D01*
X99940691Y-118450500D01*
X99940694Y-118450500D01*
X100059306Y-118450500D01*
X100059309Y-118450500D01*
X100173886Y-118419799D01*
X100276613Y-118360489D01*
X100360489Y-118276613D01*
X100419799Y-118173886D01*
X100425777Y-118151577D01*
X143449500Y-118151577D01*
X143449500Y-118348422D01*
X143480290Y-118542826D01*
X143541117Y-118730029D01*
X143614983Y-118874999D01*
X143630476Y-118905405D01*
X143746172Y-119064646D01*
X143885354Y-119203828D01*
X144044595Y-119319524D01*
X144127455Y-119361743D01*
X144219970Y-119408882D01*
X144219972Y-119408882D01*
X144219975Y-119408884D01*
X144303097Y-119435892D01*
X144407173Y-119469709D01*
X144601578Y-119500500D01*
X144601583Y-119500500D01*
X144798422Y-119500500D01*
X144992826Y-119469709D01*
X145058340Y-119448422D01*
X145180025Y-119408884D01*
X145355405Y-119319524D01*
X145514646Y-119203828D01*
X145653828Y-119064646D01*
X145752040Y-118929467D01*
X145779467Y-118902040D01*
X145914646Y-118803828D01*
X145917348Y-118801126D01*
X147625000Y-118801126D01*
X147625000Y-118948873D01*
X147653820Y-119093759D01*
X147653822Y-119093767D01*
X147697421Y-119199024D01*
X148021446Y-118875000D01*
X148021446Y-118874999D01*
X148001556Y-118855109D01*
X148275000Y-118855109D01*
X148275000Y-118894891D01*
X148290224Y-118931645D01*
X148318355Y-118959776D01*
X148355109Y-118975000D01*
X148394891Y-118975000D01*
X148431645Y-118959776D01*
X148459776Y-118931645D01*
X148475000Y-118894891D01*
X148475000Y-118875000D01*
X148728554Y-118875000D01*
X148937500Y-119083946D01*
X149146446Y-118875000D01*
X149126555Y-118855109D01*
X149400000Y-118855109D01*
X149400000Y-118894891D01*
X149415224Y-118931645D01*
X149443355Y-118959776D01*
X149480109Y-118975000D01*
X149519891Y-118975000D01*
X149556645Y-118959776D01*
X149584776Y-118931645D01*
X149600000Y-118894891D01*
X149600000Y-118875000D01*
X149853554Y-118875000D01*
X150062500Y-119083946D01*
X150271446Y-118875000D01*
X150251555Y-118855109D01*
X150525000Y-118855109D01*
X150525000Y-118894891D01*
X150540224Y-118931645D01*
X150568355Y-118959776D01*
X150605109Y-118975000D01*
X150644891Y-118975000D01*
X150681645Y-118959776D01*
X150709776Y-118931645D01*
X150725000Y-118894891D01*
X150725000Y-118875000D01*
X150978554Y-118875000D01*
X151187500Y-119083946D01*
X151396446Y-118875000D01*
X151376555Y-118855109D01*
X151650000Y-118855109D01*
X151650000Y-118894891D01*
X151665224Y-118931645D01*
X151693355Y-118959776D01*
X151730109Y-118975000D01*
X151769891Y-118975000D01*
X151806645Y-118959776D01*
X151834776Y-118931645D01*
X151850000Y-118894891D01*
X151850000Y-118875000D01*
X152103554Y-118875000D01*
X152312500Y-119083946D01*
X152521446Y-118875000D01*
X152501555Y-118855109D01*
X152775000Y-118855109D01*
X152775000Y-118894891D01*
X152790224Y-118931645D01*
X152818355Y-118959776D01*
X152855109Y-118975000D01*
X152894891Y-118975000D01*
X152931645Y-118959776D01*
X152959776Y-118931645D01*
X152975000Y-118894891D01*
X152975000Y-118874999D01*
X153228554Y-118874999D01*
X153228554Y-118875001D01*
X153552577Y-119199024D01*
X153552578Y-119199024D01*
X153596175Y-119093775D01*
X153596179Y-119093760D01*
X153624999Y-118948873D01*
X153625000Y-118948871D01*
X153625000Y-118801128D01*
X153624999Y-118801126D01*
X153596179Y-118656240D01*
X153596177Y-118656232D01*
X153591178Y-118644162D01*
X153573538Y-118601577D01*
X156449500Y-118601577D01*
X156449500Y-118798422D01*
X156480291Y-118992832D01*
X156481068Y-118996067D01*
X156481068Y-119053933D01*
X156480291Y-119057167D01*
X156449500Y-119251577D01*
X156449500Y-119448422D01*
X156480291Y-119642832D01*
X156481068Y-119646067D01*
X156481068Y-119703933D01*
X156480291Y-119707167D01*
X156449500Y-119901577D01*
X156449500Y-120098422D01*
X156480290Y-120292826D01*
X156541117Y-120480029D01*
X156605960Y-120607289D01*
X156630476Y-120655405D01*
X156746172Y-120814646D01*
X156885354Y-120953828D01*
X157044595Y-121069524D01*
X157090328Y-121092826D01*
X157219970Y-121158882D01*
X157219972Y-121158882D01*
X157219975Y-121158884D01*
X157320317Y-121191487D01*
X157407173Y-121219709D01*
X157601578Y-121250500D01*
X157601583Y-121250500D01*
X157798422Y-121250500D01*
X157992820Y-121219710D01*
X157992820Y-121219709D01*
X157992826Y-121219709D01*
X157992831Y-121219707D01*
X157996049Y-121218935D01*
X158053951Y-121218935D01*
X158057171Y-121219708D01*
X158057174Y-121219709D01*
X158057176Y-121219709D01*
X158057179Y-121219710D01*
X158251578Y-121250500D01*
X158251583Y-121250500D01*
X158448422Y-121250500D01*
X158642826Y-121219709D01*
X158675003Y-121209254D01*
X158830025Y-121158884D01*
X159005405Y-121069524D01*
X159164646Y-120953828D01*
X159303828Y-120814646D01*
X159419524Y-120655405D01*
X159508884Y-120480025D01*
X159569709Y-120292826D01*
X159580810Y-120222735D01*
X159600500Y-120098422D01*
X159600500Y-119901577D01*
X159569710Y-119707179D01*
X159568935Y-119703951D01*
X159568935Y-119646049D01*
X159569710Y-119642820D01*
X159600500Y-119448422D01*
X159600500Y-119251577D01*
X159569709Y-119057173D01*
X159528922Y-118931645D01*
X159508884Y-118869975D01*
X159508882Y-118869972D01*
X159508882Y-118869970D01*
X159426027Y-118707358D01*
X159419524Y-118694595D01*
X159303828Y-118535354D01*
X159270051Y-118501577D01*
X163349500Y-118501577D01*
X163349500Y-118698422D01*
X163380291Y-118892827D01*
X163380291Y-118892830D01*
X163386417Y-118911682D01*
X163388412Y-118981523D01*
X163386417Y-118988318D01*
X163380291Y-119007169D01*
X163380291Y-119007172D01*
X163349500Y-119201577D01*
X163349500Y-119398422D01*
X163380291Y-119592827D01*
X163380291Y-119592830D01*
X163386417Y-119611682D01*
X163388412Y-119681523D01*
X163386417Y-119688318D01*
X163380291Y-119707169D01*
X163380291Y-119707172D01*
X163349500Y-119901577D01*
X163349500Y-120098422D01*
X163380291Y-120292827D01*
X163380291Y-120292830D01*
X163402663Y-120361682D01*
X163404658Y-120431523D01*
X163402663Y-120438318D01*
X163380291Y-120507169D01*
X163380291Y-120507172D01*
X163349500Y-120701577D01*
X163349500Y-120898422D01*
X163380290Y-121092826D01*
X163441117Y-121280029D01*
X163511559Y-121418278D01*
X163530476Y-121455405D01*
X163646172Y-121614646D01*
X163785354Y-121753828D01*
X163944595Y-121869524D01*
X164027455Y-121911743D01*
X164119970Y-121958882D01*
X164119972Y-121958882D01*
X164119975Y-121958884D01*
X164220317Y-121991487D01*
X164307173Y-122019709D01*
X164501578Y-122050500D01*
X164501583Y-122050500D01*
X164698422Y-122050500D01*
X164843793Y-122027474D01*
X164892826Y-122019709D01*
X164961684Y-121997334D01*
X165031522Y-121995339D01*
X165038278Y-121997322D01*
X165107174Y-122019709D01*
X165130639Y-122023425D01*
X165301578Y-122050500D01*
X165301583Y-122050500D01*
X165498422Y-122050500D01*
X165692826Y-122019709D01*
X165880025Y-121958884D01*
X166055405Y-121869524D01*
X166214646Y-121753828D01*
X166353828Y-121614646D01*
X166469524Y-121455405D01*
X166558884Y-121280025D01*
X166619709Y-121092826D01*
X166630121Y-121027087D01*
X166650500Y-120898422D01*
X166650500Y-120701577D01*
X166619710Y-120507181D01*
X166619709Y-120507174D01*
X166597334Y-120438315D01*
X166595339Y-120368478D01*
X166597322Y-120361721D01*
X166619709Y-120292826D01*
X166630810Y-120222735D01*
X166650500Y-120098422D01*
X166650500Y-119901577D01*
X166633704Y-119795541D01*
X166619709Y-119707174D01*
X166613582Y-119688320D01*
X166611584Y-119618483D01*
X166613574Y-119611705D01*
X166619709Y-119592826D01*
X166642581Y-119448417D01*
X166650500Y-119398422D01*
X166650500Y-119201577D01*
X166628812Y-119064648D01*
X166619709Y-119007174D01*
X166613582Y-118988320D01*
X166611584Y-118918483D01*
X166613574Y-118911705D01*
X166619709Y-118892826D01*
X166638371Y-118775000D01*
X166650500Y-118698422D01*
X166650500Y-118501577D01*
X166619709Y-118307173D01*
X166576401Y-118173886D01*
X166558884Y-118119975D01*
X166558882Y-118119972D01*
X166558882Y-118119970D01*
X166481840Y-117968767D01*
X166469524Y-117944595D01*
X166353828Y-117785354D01*
X166214646Y-117646172D01*
X166055405Y-117530476D01*
X165880029Y-117441117D01*
X165692826Y-117380290D01*
X165498422Y-117349500D01*
X165498417Y-117349500D01*
X165301583Y-117349500D01*
X165301578Y-117349500D01*
X165107172Y-117380291D01*
X165107169Y-117380291D01*
X165038318Y-117402663D01*
X164968477Y-117404658D01*
X164961682Y-117402663D01*
X164892828Y-117380291D01*
X164698422Y-117349500D01*
X164698417Y-117349500D01*
X164501583Y-117349500D01*
X164501578Y-117349500D01*
X164307173Y-117380290D01*
X164119970Y-117441117D01*
X163944594Y-117530476D01*
X163888381Y-117571318D01*
X163785354Y-117646172D01*
X163785352Y-117646174D01*
X163785351Y-117646174D01*
X163646174Y-117785351D01*
X163646174Y-117785352D01*
X163646172Y-117785354D01*
X163616558Y-117826114D01*
X163530476Y-117944594D01*
X163441117Y-118119970D01*
X163380290Y-118307173D01*
X163349500Y-118501577D01*
X159270051Y-118501577D01*
X159164646Y-118396172D01*
X159073603Y-118330025D01*
X159005409Y-118280478D01*
X159005406Y-118280477D01*
X159005407Y-118280477D01*
X159005405Y-118280476D01*
X158885039Y-118219147D01*
X158834244Y-118171174D01*
X158830850Y-118164957D01*
X158807931Y-118119975D01*
X158769524Y-118044595D01*
X158769522Y-118044592D01*
X158769521Y-118044590D01*
X158714426Y-117968760D01*
X158653828Y-117885354D01*
X158514646Y-117746172D01*
X158355405Y-117630476D01*
X158180029Y-117541117D01*
X157992826Y-117480290D01*
X157798422Y-117449500D01*
X157798417Y-117449500D01*
X157601583Y-117449500D01*
X157601578Y-117449500D01*
X157407173Y-117480290D01*
X157219970Y-117541117D01*
X157044594Y-117630476D01*
X156958050Y-117693355D01*
X156885354Y-117746172D01*
X156885352Y-117746174D01*
X156885351Y-117746174D01*
X156746174Y-117885351D01*
X156746174Y-117885352D01*
X156746172Y-117885354D01*
X156726981Y-117911768D01*
X156630476Y-118044594D01*
X156541117Y-118219970D01*
X156480290Y-118407173D01*
X156449500Y-118601577D01*
X153573538Y-118601577D01*
X153552577Y-118550974D01*
X153228554Y-118874999D01*
X152975000Y-118874999D01*
X152975000Y-118855109D01*
X152959776Y-118818355D01*
X152931645Y-118790224D01*
X152894891Y-118775000D01*
X152855109Y-118775000D01*
X152818355Y-118790224D01*
X152790224Y-118818355D01*
X152775000Y-118855109D01*
X152501555Y-118855109D01*
X152312500Y-118666054D01*
X152103554Y-118875000D01*
X151850000Y-118875000D01*
X151850000Y-118855109D01*
X151834776Y-118818355D01*
X151806645Y-118790224D01*
X151769891Y-118775000D01*
X151730109Y-118775000D01*
X151693355Y-118790224D01*
X151665224Y-118818355D01*
X151650000Y-118855109D01*
X151376555Y-118855109D01*
X151187500Y-118666054D01*
X150978554Y-118875000D01*
X150725000Y-118875000D01*
X150725000Y-118855109D01*
X150709776Y-118818355D01*
X150681645Y-118790224D01*
X150644891Y-118775000D01*
X150605109Y-118775000D01*
X150568355Y-118790224D01*
X150540224Y-118818355D01*
X150525000Y-118855109D01*
X150251555Y-118855109D01*
X150062500Y-118666054D01*
X149853554Y-118875000D01*
X149600000Y-118875000D01*
X149600000Y-118855109D01*
X149584776Y-118818355D01*
X149556645Y-118790224D01*
X149519891Y-118775000D01*
X149480109Y-118775000D01*
X149443355Y-118790224D01*
X149415224Y-118818355D01*
X149400000Y-118855109D01*
X149126555Y-118855109D01*
X148937500Y-118666054D01*
X148728554Y-118875000D01*
X148475000Y-118875000D01*
X148475000Y-118855109D01*
X148459776Y-118818355D01*
X148431645Y-118790224D01*
X148394891Y-118775000D01*
X148355109Y-118775000D01*
X148318355Y-118790224D01*
X148290224Y-118818355D01*
X148275000Y-118855109D01*
X148001556Y-118855109D01*
X147697421Y-118550974D01*
X147697420Y-118550974D01*
X147653823Y-118656228D01*
X147653820Y-118656240D01*
X147625000Y-118801126D01*
X145917348Y-118801126D01*
X146053828Y-118664646D01*
X146169524Y-118505405D01*
X146258884Y-118330025D01*
X146264578Y-118312500D01*
X148166054Y-118312500D01*
X148375000Y-118521446D01*
X148583946Y-118312500D01*
X149291054Y-118312500D01*
X149500000Y-118521446D01*
X149708946Y-118312500D01*
X150416054Y-118312500D01*
X150625000Y-118521446D01*
X150833946Y-118312500D01*
X151541054Y-118312500D01*
X151750000Y-118521446D01*
X151958946Y-118312500D01*
X152666054Y-118312500D01*
X152875000Y-118521446D01*
X153083946Y-118312500D01*
X152875000Y-118103554D01*
X152666054Y-118312500D01*
X151958946Y-118312500D01*
X151750000Y-118103554D01*
X151541054Y-118312500D01*
X150833946Y-118312500D01*
X150625000Y-118103554D01*
X150416054Y-118312500D01*
X149708946Y-118312500D01*
X149500000Y-118103554D01*
X149291054Y-118312500D01*
X148583946Y-118312500D01*
X148375000Y-118103554D01*
X148166054Y-118312500D01*
X146264578Y-118312500D01*
X146319709Y-118142826D01*
X146335267Y-118044595D01*
X146350500Y-117948422D01*
X146350500Y-117751577D01*
X146340658Y-117689437D01*
X146338550Y-117676126D01*
X147625000Y-117676126D01*
X147625000Y-117823873D01*
X147653820Y-117968759D01*
X147653822Y-117968767D01*
X147697421Y-118074024D01*
X148021446Y-117750000D01*
X148021446Y-117749999D01*
X148001556Y-117730109D01*
X148275000Y-117730109D01*
X148275000Y-117769891D01*
X148290224Y-117806645D01*
X148318355Y-117834776D01*
X148355109Y-117850000D01*
X148394891Y-117850000D01*
X148431645Y-117834776D01*
X148459776Y-117806645D01*
X148475000Y-117769891D01*
X148475000Y-117750000D01*
X148728554Y-117750000D01*
X148937500Y-117958946D01*
X149146446Y-117750000D01*
X149126555Y-117730109D01*
X149400000Y-117730109D01*
X149400000Y-117769891D01*
X149415224Y-117806645D01*
X149443355Y-117834776D01*
X149480109Y-117850000D01*
X149519891Y-117850000D01*
X149556645Y-117834776D01*
X149584776Y-117806645D01*
X149600000Y-117769891D01*
X149600000Y-117750000D01*
X149853554Y-117750000D01*
X150062500Y-117958946D01*
X150271446Y-117750000D01*
X150251555Y-117730109D01*
X150525000Y-117730109D01*
X150525000Y-117769891D01*
X150540224Y-117806645D01*
X150568355Y-117834776D01*
X150605109Y-117850000D01*
X150644891Y-117850000D01*
X150681645Y-117834776D01*
X150709776Y-117806645D01*
X150725000Y-117769891D01*
X150725000Y-117750000D01*
X150978554Y-117750000D01*
X151187500Y-117958946D01*
X151396446Y-117750000D01*
X151376555Y-117730109D01*
X151650000Y-117730109D01*
X151650000Y-117769891D01*
X151665224Y-117806645D01*
X151693355Y-117834776D01*
X151730109Y-117850000D01*
X151769891Y-117850000D01*
X151806645Y-117834776D01*
X151834776Y-117806645D01*
X151850000Y-117769891D01*
X151850000Y-117750000D01*
X152103554Y-117750000D01*
X152312500Y-117958946D01*
X152521446Y-117750000D01*
X152501555Y-117730109D01*
X152775000Y-117730109D01*
X152775000Y-117769891D01*
X152790224Y-117806645D01*
X152818355Y-117834776D01*
X152855109Y-117850000D01*
X152894891Y-117850000D01*
X152931645Y-117834776D01*
X152959776Y-117806645D01*
X152975000Y-117769891D01*
X152975000Y-117749999D01*
X153228554Y-117749999D01*
X153228554Y-117750001D01*
X153552577Y-118074024D01*
X153552578Y-118074024D01*
X153596175Y-117968775D01*
X153596179Y-117968760D01*
X153624999Y-117823873D01*
X153625000Y-117823871D01*
X153625000Y-117676128D01*
X153624999Y-117676126D01*
X153596179Y-117531240D01*
X153596178Y-117531236D01*
X153552577Y-117425975D01*
X153228554Y-117749999D01*
X152975000Y-117749999D01*
X152975000Y-117730109D01*
X152959776Y-117693355D01*
X152931645Y-117665224D01*
X152894891Y-117650000D01*
X152855109Y-117650000D01*
X152818355Y-117665224D01*
X152790224Y-117693355D01*
X152775000Y-117730109D01*
X152501555Y-117730109D01*
X152312500Y-117541054D01*
X152103554Y-117750000D01*
X151850000Y-117750000D01*
X151850000Y-117730109D01*
X151834776Y-117693355D01*
X151806645Y-117665224D01*
X151769891Y-117650000D01*
X151730109Y-117650000D01*
X151693355Y-117665224D01*
X151665224Y-117693355D01*
X151650000Y-117730109D01*
X151376555Y-117730109D01*
X151187500Y-117541054D01*
X150978554Y-117750000D01*
X150725000Y-117750000D01*
X150725000Y-117730109D01*
X150709776Y-117693355D01*
X150681645Y-117665224D01*
X150644891Y-117650000D01*
X150605109Y-117650000D01*
X150568355Y-117665224D01*
X150540224Y-117693355D01*
X150525000Y-117730109D01*
X150251555Y-117730109D01*
X150062500Y-117541054D01*
X149853554Y-117750000D01*
X149600000Y-117750000D01*
X149600000Y-117730109D01*
X149584776Y-117693355D01*
X149556645Y-117665224D01*
X149519891Y-117650000D01*
X149480109Y-117650000D01*
X149443355Y-117665224D01*
X149415224Y-117693355D01*
X149400000Y-117730109D01*
X149126555Y-117730109D01*
X148937500Y-117541054D01*
X148728554Y-117750000D01*
X148475000Y-117750000D01*
X148475000Y-117730109D01*
X148459776Y-117693355D01*
X148431645Y-117665224D01*
X148394891Y-117650000D01*
X148355109Y-117650000D01*
X148318355Y-117665224D01*
X148290224Y-117693355D01*
X148275000Y-117730109D01*
X148001556Y-117730109D01*
X147697421Y-117425974D01*
X147697420Y-117425974D01*
X147653823Y-117531228D01*
X147653820Y-117531240D01*
X147625000Y-117676126D01*
X146338550Y-117676126D01*
X146319709Y-117557173D01*
X146284723Y-117449500D01*
X146258884Y-117369975D01*
X146258882Y-117369972D01*
X146258882Y-117369970D01*
X146221279Y-117296171D01*
X146169524Y-117194595D01*
X146164369Y-117187500D01*
X148166054Y-117187500D01*
X148375000Y-117396446D01*
X148583946Y-117187500D01*
X149291054Y-117187500D01*
X149500000Y-117396446D01*
X149708946Y-117187500D01*
X150416054Y-117187500D01*
X150625000Y-117396446D01*
X150833946Y-117187500D01*
X151541054Y-117187500D01*
X151750000Y-117396446D01*
X151958946Y-117187500D01*
X152666054Y-117187500D01*
X152875000Y-117396446D01*
X153083946Y-117187500D01*
X152875000Y-116978554D01*
X152666054Y-117187500D01*
X151958946Y-117187500D01*
X151750000Y-116978554D01*
X151541054Y-117187500D01*
X150833946Y-117187500D01*
X150625000Y-116978554D01*
X150416054Y-117187500D01*
X149708946Y-117187500D01*
X149500000Y-116978554D01*
X149291054Y-117187500D01*
X148583946Y-117187500D01*
X148375000Y-116978554D01*
X148166054Y-117187500D01*
X146164369Y-117187500D01*
X146053828Y-117035354D01*
X145914646Y-116896172D01*
X145755405Y-116780476D01*
X145744110Y-116774721D01*
X145580029Y-116691117D01*
X145539076Y-116677810D01*
X145468204Y-116654783D01*
X145392826Y-116630290D01*
X145198422Y-116599500D01*
X145198417Y-116599500D01*
X145001583Y-116599500D01*
X145001578Y-116599500D01*
X144807173Y-116630290D01*
X144619970Y-116691117D01*
X144444594Y-116780476D01*
X144357483Y-116843767D01*
X144285354Y-116896172D01*
X144285352Y-116896174D01*
X144285351Y-116896174D01*
X144146171Y-117035354D01*
X144047959Y-117170529D01*
X144020529Y-117197959D01*
X143885354Y-117296171D01*
X143746174Y-117435351D01*
X143746174Y-117435352D01*
X143746172Y-117435354D01*
X143713524Y-117480290D01*
X143630476Y-117594594D01*
X143541117Y-117769970D01*
X143480290Y-117957173D01*
X143449500Y-118151577D01*
X100425777Y-118151577D01*
X100450500Y-118059309D01*
X100450500Y-117940691D01*
X100419799Y-117826114D01*
X100360489Y-117723387D01*
X100276613Y-117639511D01*
X100173886Y-117580201D01*
X100059309Y-117549500D01*
X99940691Y-117549500D01*
X99826114Y-117580201D01*
X99826112Y-117580201D01*
X99826112Y-117580202D01*
X99723387Y-117639511D01*
X99723384Y-117639513D01*
X99639513Y-117723384D01*
X99639511Y-117723387D01*
X99591442Y-117806645D01*
X99580201Y-117826114D01*
X99549500Y-117940691D01*
X89655541Y-117940691D01*
X89662139Y-117911783D01*
X89700500Y-117571312D01*
X89700500Y-117228688D01*
X89682975Y-117073144D01*
X89662141Y-116888231D01*
X89662140Y-116888226D01*
X89662139Y-116888217D01*
X89585897Y-116554183D01*
X89472736Y-116230785D01*
X89397178Y-116073887D01*
X89395224Y-116069829D01*
X89371657Y-116020893D01*
X135524663Y-116020893D01*
X135524663Y-116217738D01*
X135555453Y-116412142D01*
X135616280Y-116599345D01*
X135672548Y-116709776D01*
X135705639Y-116774721D01*
X135821335Y-116933962D01*
X135960517Y-117073144D01*
X136119758Y-117188840D01*
X136197951Y-117228681D01*
X136295133Y-117278198D01*
X136295135Y-117278198D01*
X136295138Y-117278200D01*
X136350447Y-117296171D01*
X136482336Y-117339025D01*
X136676741Y-117369816D01*
X136676746Y-117369816D01*
X136873585Y-117369816D01*
X137067989Y-117339025D01*
X137255188Y-117278200D01*
X137430568Y-117188840D01*
X137589809Y-117073144D01*
X137728991Y-116933962D01*
X137844687Y-116774721D01*
X137934047Y-116599341D01*
X137949713Y-116551126D01*
X147625000Y-116551126D01*
X147625000Y-116698873D01*
X147653820Y-116843759D01*
X147653822Y-116843767D01*
X147697421Y-116949024D01*
X148021446Y-116625000D01*
X148021446Y-116624999D01*
X148001556Y-116605109D01*
X148275000Y-116605109D01*
X148275000Y-116644891D01*
X148290224Y-116681645D01*
X148318355Y-116709776D01*
X148355109Y-116725000D01*
X148394891Y-116725000D01*
X148431645Y-116709776D01*
X148459776Y-116681645D01*
X148475000Y-116644891D01*
X148475000Y-116625000D01*
X148728554Y-116625000D01*
X148937500Y-116833946D01*
X149146446Y-116625000D01*
X149126555Y-116605109D01*
X149400000Y-116605109D01*
X149400000Y-116644891D01*
X149415224Y-116681645D01*
X149443355Y-116709776D01*
X149480109Y-116725000D01*
X149519891Y-116725000D01*
X149556645Y-116709776D01*
X149584776Y-116681645D01*
X149600000Y-116644891D01*
X149600000Y-116625000D01*
X149853554Y-116625000D01*
X150062500Y-116833946D01*
X150271446Y-116625000D01*
X150251555Y-116605109D01*
X150525000Y-116605109D01*
X150525000Y-116644891D01*
X150540224Y-116681645D01*
X150568355Y-116709776D01*
X150605109Y-116725000D01*
X150644891Y-116725000D01*
X150681645Y-116709776D01*
X150709776Y-116681645D01*
X150725000Y-116644891D01*
X150725000Y-116625000D01*
X150978554Y-116625000D01*
X151187500Y-116833946D01*
X151396446Y-116625000D01*
X151376555Y-116605109D01*
X151650000Y-116605109D01*
X151650000Y-116644891D01*
X151665224Y-116681645D01*
X151693355Y-116709776D01*
X151730109Y-116725000D01*
X151769891Y-116725000D01*
X151806645Y-116709776D01*
X151834776Y-116681645D01*
X151850000Y-116644891D01*
X151850000Y-116625000D01*
X152103554Y-116625000D01*
X152312500Y-116833946D01*
X152521446Y-116625000D01*
X152501555Y-116605109D01*
X152775000Y-116605109D01*
X152775000Y-116644891D01*
X152790224Y-116681645D01*
X152818355Y-116709776D01*
X152855109Y-116725000D01*
X152894891Y-116725000D01*
X152931645Y-116709776D01*
X152959776Y-116681645D01*
X152975000Y-116644891D01*
X152975000Y-116624999D01*
X153228554Y-116624999D01*
X153228554Y-116625001D01*
X153552577Y-116949024D01*
X153552578Y-116949024D01*
X153596175Y-116843775D01*
X153596179Y-116843760D01*
X153624999Y-116698873D01*
X153625000Y-116698871D01*
X153625000Y-116551128D01*
X153624999Y-116551126D01*
X153596179Y-116406240D01*
X153596178Y-116406236D01*
X153552577Y-116300975D01*
X153228554Y-116624999D01*
X152975000Y-116624999D01*
X152975000Y-116605109D01*
X152959776Y-116568355D01*
X152931645Y-116540224D01*
X152894891Y-116525000D01*
X152855109Y-116525000D01*
X152818355Y-116540224D01*
X152790224Y-116568355D01*
X152775000Y-116605109D01*
X152501555Y-116605109D01*
X152312500Y-116416054D01*
X152103554Y-116625000D01*
X151850000Y-116625000D01*
X151850000Y-116605109D01*
X151834776Y-116568355D01*
X151806645Y-116540224D01*
X151769891Y-116525000D01*
X151730109Y-116525000D01*
X151693355Y-116540224D01*
X151665224Y-116568355D01*
X151650000Y-116605109D01*
X151376555Y-116605109D01*
X151187500Y-116416054D01*
X150978554Y-116625000D01*
X150725000Y-116625000D01*
X150725000Y-116605109D01*
X150709776Y-116568355D01*
X150681645Y-116540224D01*
X150644891Y-116525000D01*
X150605109Y-116525000D01*
X150568355Y-116540224D01*
X150540224Y-116568355D01*
X150525000Y-116605109D01*
X150251555Y-116605109D01*
X150062500Y-116416054D01*
X149853554Y-116625000D01*
X149600000Y-116625000D01*
X149600000Y-116605109D01*
X149584776Y-116568355D01*
X149556645Y-116540224D01*
X149519891Y-116525000D01*
X149480109Y-116525000D01*
X149443355Y-116540224D01*
X149415224Y-116568355D01*
X149400000Y-116605109D01*
X149126555Y-116605109D01*
X148937500Y-116416054D01*
X148728554Y-116625000D01*
X148475000Y-116625000D01*
X148475000Y-116605109D01*
X148459776Y-116568355D01*
X148431645Y-116540224D01*
X148394891Y-116525000D01*
X148355109Y-116525000D01*
X148318355Y-116540224D01*
X148290224Y-116568355D01*
X148275000Y-116605109D01*
X148001556Y-116605109D01*
X147697421Y-116300974D01*
X147697420Y-116300974D01*
X147653823Y-116406228D01*
X147653820Y-116406240D01*
X147625000Y-116551126D01*
X137949713Y-116551126D01*
X137994872Y-116412142D01*
X138012479Y-116300975D01*
X138025663Y-116217738D01*
X138025663Y-116020893D01*
X138002224Y-115872909D01*
X138003692Y-115857721D01*
X138000953Y-115845547D01*
X138002285Y-115840691D01*
X144549500Y-115840691D01*
X144549500Y-115959309D01*
X144580201Y-116073886D01*
X144639511Y-116176613D01*
X144723387Y-116260489D01*
X144826114Y-116319799D01*
X144940691Y-116350500D01*
X144940694Y-116350500D01*
X145059306Y-116350500D01*
X145059309Y-116350500D01*
X145173886Y-116319799D01*
X145276613Y-116260489D01*
X145360489Y-116176613D01*
X145419799Y-116073886D01*
X145422850Y-116062500D01*
X148166054Y-116062500D01*
X148375000Y-116271446D01*
X148583946Y-116062500D01*
X149291054Y-116062500D01*
X149500000Y-116271446D01*
X149708946Y-116062500D01*
X150416054Y-116062500D01*
X150625000Y-116271446D01*
X150833946Y-116062500D01*
X151541054Y-116062500D01*
X151750000Y-116271446D01*
X151958946Y-116062500D01*
X152666054Y-116062500D01*
X152875000Y-116271446D01*
X153083946Y-116062500D01*
X152875000Y-115853554D01*
X152666054Y-116062500D01*
X151958946Y-116062500D01*
X151750000Y-115853554D01*
X151541054Y-116062500D01*
X150833946Y-116062500D01*
X150625000Y-115853554D01*
X150416054Y-116062500D01*
X149708946Y-116062500D01*
X149500000Y-115853554D01*
X149291054Y-116062500D01*
X148583946Y-116062500D01*
X148375000Y-115853554D01*
X148166054Y-116062500D01*
X145422850Y-116062500D01*
X145450500Y-115959309D01*
X145450500Y-115840691D01*
X145419799Y-115726114D01*
X145360489Y-115623387D01*
X145276613Y-115539511D01*
X145276610Y-115539509D01*
X145276606Y-115539506D01*
X145255684Y-115527426D01*
X145255681Y-115527426D01*
X145173886Y-115480201D01*
X145059309Y-115449500D01*
X144940691Y-115449500D01*
X144826114Y-115480201D01*
X144826112Y-115480201D01*
X144826112Y-115480202D01*
X144723387Y-115539511D01*
X144723384Y-115539513D01*
X144639513Y-115623384D01*
X144639511Y-115623387D01*
X144583900Y-115719708D01*
X144580201Y-115726114D01*
X144549500Y-115840691D01*
X138002285Y-115840691D01*
X138007000Y-115823508D01*
X138008209Y-115811007D01*
X138010791Y-115803928D01*
X138012765Y-115800056D01*
X138017318Y-115786040D01*
X138018067Y-115783990D01*
X138037536Y-115757591D01*
X138056054Y-115730506D01*
X138058173Y-115729609D01*
X138059539Y-115727759D01*
X138090190Y-115716077D01*
X138120411Y-115703303D01*
X138123020Y-115703564D01*
X138124827Y-115702876D01*
X138132748Y-115704540D01*
X138172873Y-115708563D01*
X138207174Y-115719709D01*
X138280077Y-115731255D01*
X138401578Y-115750500D01*
X138401583Y-115750500D01*
X138598422Y-115750500D01*
X138792826Y-115719709D01*
X138808449Y-115714633D01*
X138853623Y-115699954D01*
X138980025Y-115658884D01*
X139155405Y-115569524D01*
X139314646Y-115453828D01*
X139342348Y-115426126D01*
X147625000Y-115426126D01*
X147625000Y-115573873D01*
X147653820Y-115718759D01*
X147653822Y-115718767D01*
X147697421Y-115824024D01*
X148021446Y-115500000D01*
X148021446Y-115499999D01*
X148001556Y-115480109D01*
X148275000Y-115480109D01*
X148275000Y-115519891D01*
X148290224Y-115556645D01*
X148318355Y-115584776D01*
X148355109Y-115600000D01*
X148394891Y-115600000D01*
X148431645Y-115584776D01*
X148459776Y-115556645D01*
X148475000Y-115519891D01*
X148475000Y-115500000D01*
X148728554Y-115500000D01*
X148937500Y-115708946D01*
X149146446Y-115500000D01*
X149126555Y-115480109D01*
X149400000Y-115480109D01*
X149400000Y-115519891D01*
X149415224Y-115556645D01*
X149443355Y-115584776D01*
X149480109Y-115600000D01*
X149519891Y-115600000D01*
X149556645Y-115584776D01*
X149584776Y-115556645D01*
X149600000Y-115519891D01*
X149600000Y-115500000D01*
X149853554Y-115500000D01*
X150062500Y-115708946D01*
X150271446Y-115500000D01*
X150251555Y-115480109D01*
X150525000Y-115480109D01*
X150525000Y-115519891D01*
X150540224Y-115556645D01*
X150568355Y-115584776D01*
X150605109Y-115600000D01*
X150644891Y-115600000D01*
X150681645Y-115584776D01*
X150709776Y-115556645D01*
X150725000Y-115519891D01*
X150725000Y-115500000D01*
X150978554Y-115500000D01*
X151187500Y-115708946D01*
X151396446Y-115500000D01*
X151376555Y-115480109D01*
X151650000Y-115480109D01*
X151650000Y-115519891D01*
X151665224Y-115556645D01*
X151693355Y-115584776D01*
X151730109Y-115600000D01*
X151769891Y-115600000D01*
X151806645Y-115584776D01*
X151834776Y-115556645D01*
X151850000Y-115519891D01*
X151850000Y-115500000D01*
X152103554Y-115500000D01*
X152312500Y-115708946D01*
X152521446Y-115500000D01*
X152501555Y-115480109D01*
X152775000Y-115480109D01*
X152775000Y-115519891D01*
X152790224Y-115556645D01*
X152818355Y-115584776D01*
X152855109Y-115600000D01*
X152894891Y-115600000D01*
X152931645Y-115584776D01*
X152959776Y-115556645D01*
X152975000Y-115519891D01*
X152975000Y-115499999D01*
X153228554Y-115499999D01*
X153228554Y-115500001D01*
X153552577Y-115824024D01*
X153552578Y-115824024D01*
X153554623Y-115819087D01*
X155858137Y-115819087D01*
X155858137Y-115937705D01*
X155888838Y-116052282D01*
X155948148Y-116155009D01*
X156032024Y-116238885D01*
X156134751Y-116298195D01*
X156249328Y-116328896D01*
X156249331Y-116328896D01*
X156367943Y-116328896D01*
X156367946Y-116328896D01*
X156482523Y-116298195D01*
X156585250Y-116238885D01*
X156669126Y-116155009D01*
X156728436Y-116052282D01*
X156759137Y-115937705D01*
X156759137Y-115819087D01*
X156728436Y-115704510D01*
X156669126Y-115601783D01*
X156585250Y-115517907D01*
X156482523Y-115458597D01*
X156367946Y-115427896D01*
X156249328Y-115427896D01*
X156134751Y-115458597D01*
X156134749Y-115458597D01*
X156134749Y-115458598D01*
X156032024Y-115517907D01*
X156032021Y-115517909D01*
X155948150Y-115601780D01*
X155948148Y-115601783D01*
X155900169Y-115684885D01*
X155888838Y-115704510D01*
X155858137Y-115819087D01*
X153554623Y-115819087D01*
X153577644Y-115763511D01*
X153577646Y-115763507D01*
X153596176Y-115718770D01*
X153596179Y-115718760D01*
X153624999Y-115573873D01*
X153625000Y-115573871D01*
X153625000Y-115426128D01*
X153624999Y-115426126D01*
X153596179Y-115281240D01*
X153596178Y-115281236D01*
X153552577Y-115175975D01*
X153228554Y-115499999D01*
X152975000Y-115499999D01*
X152975000Y-115480109D01*
X152959776Y-115443355D01*
X152931645Y-115415224D01*
X152894891Y-115400000D01*
X152855109Y-115400000D01*
X152818355Y-115415224D01*
X152790224Y-115443355D01*
X152775000Y-115480109D01*
X152501555Y-115480109D01*
X152312500Y-115291054D01*
X152103554Y-115500000D01*
X151850000Y-115500000D01*
X151850000Y-115480109D01*
X151834776Y-115443355D01*
X151806645Y-115415224D01*
X151769891Y-115400000D01*
X151730109Y-115400000D01*
X151693355Y-115415224D01*
X151665224Y-115443355D01*
X151650000Y-115480109D01*
X151376555Y-115480109D01*
X151187500Y-115291054D01*
X150978554Y-115500000D01*
X150725000Y-115500000D01*
X150725000Y-115480109D01*
X150709776Y-115443355D01*
X150681645Y-115415224D01*
X150644891Y-115400000D01*
X150605109Y-115400000D01*
X150568355Y-115415224D01*
X150540224Y-115443355D01*
X150525000Y-115480109D01*
X150251555Y-115480109D01*
X150062500Y-115291054D01*
X149853554Y-115500000D01*
X149600000Y-115500000D01*
X149600000Y-115480109D01*
X149584776Y-115443355D01*
X149556645Y-115415224D01*
X149519891Y-115400000D01*
X149480109Y-115400000D01*
X149443355Y-115415224D01*
X149415224Y-115443355D01*
X149400000Y-115480109D01*
X149126555Y-115480109D01*
X148937500Y-115291054D01*
X148728554Y-115500000D01*
X148475000Y-115500000D01*
X148475000Y-115480109D01*
X148459776Y-115443355D01*
X148431645Y-115415224D01*
X148394891Y-115400000D01*
X148355109Y-115400000D01*
X148318355Y-115415224D01*
X148290224Y-115443355D01*
X148275000Y-115480109D01*
X148001556Y-115480109D01*
X147697421Y-115175974D01*
X147697420Y-115175974D01*
X147653823Y-115281228D01*
X147653820Y-115281240D01*
X147625000Y-115426126D01*
X139342348Y-115426126D01*
X139453828Y-115314646D01*
X139569524Y-115155405D01*
X139658884Y-114980025D01*
X139672701Y-114937500D01*
X148166054Y-114937500D01*
X148375000Y-115146446D01*
X148583946Y-114937500D01*
X149291054Y-114937500D01*
X149500000Y-115146446D01*
X149708946Y-114937500D01*
X150416054Y-114937500D01*
X150625000Y-115146446D01*
X150833946Y-114937500D01*
X151541054Y-114937500D01*
X151750000Y-115146446D01*
X151958946Y-114937500D01*
X152666054Y-114937500D01*
X152875000Y-115146446D01*
X153083946Y-114937500D01*
X152875000Y-114728554D01*
X152666054Y-114937500D01*
X151958946Y-114937500D01*
X151750000Y-114728554D01*
X151541054Y-114937500D01*
X150833946Y-114937500D01*
X150625000Y-114728554D01*
X150416054Y-114937500D01*
X149708946Y-114937500D01*
X149500000Y-114728554D01*
X149291054Y-114937500D01*
X148583946Y-114937500D01*
X148375000Y-114728554D01*
X148166054Y-114937500D01*
X139672701Y-114937500D01*
X139719709Y-114792826D01*
X139739065Y-114670616D01*
X139750500Y-114598422D01*
X139750500Y-114401577D01*
X139737323Y-114318386D01*
X139734589Y-114301126D01*
X147625000Y-114301126D01*
X147625000Y-114448873D01*
X147653820Y-114593759D01*
X147653822Y-114593767D01*
X147697421Y-114699024D01*
X148021446Y-114375000D01*
X148021446Y-114374999D01*
X148001556Y-114355109D01*
X148275000Y-114355109D01*
X148275000Y-114394891D01*
X148290224Y-114431645D01*
X148318355Y-114459776D01*
X148355109Y-114475000D01*
X148394891Y-114475000D01*
X148431645Y-114459776D01*
X148459776Y-114431645D01*
X148475000Y-114394891D01*
X148475000Y-114375000D01*
X148728554Y-114375000D01*
X148937500Y-114583946D01*
X149146446Y-114375000D01*
X149126555Y-114355109D01*
X149400000Y-114355109D01*
X149400000Y-114394891D01*
X149415224Y-114431645D01*
X149443355Y-114459776D01*
X149480109Y-114475000D01*
X149519891Y-114475000D01*
X149556645Y-114459776D01*
X149584776Y-114431645D01*
X149600000Y-114394891D01*
X149600000Y-114375000D01*
X149853554Y-114375000D01*
X150062500Y-114583946D01*
X150271446Y-114375000D01*
X150251555Y-114355109D01*
X150525000Y-114355109D01*
X150525000Y-114394891D01*
X150540224Y-114431645D01*
X150568355Y-114459776D01*
X150605109Y-114475000D01*
X150644891Y-114475000D01*
X150681645Y-114459776D01*
X150709776Y-114431645D01*
X150725000Y-114394891D01*
X150725000Y-114375000D01*
X150978554Y-114375000D01*
X151187500Y-114583946D01*
X151396446Y-114375000D01*
X151376555Y-114355109D01*
X151650000Y-114355109D01*
X151650000Y-114394891D01*
X151665224Y-114431645D01*
X151693355Y-114459776D01*
X151730109Y-114475000D01*
X151769891Y-114475000D01*
X151806645Y-114459776D01*
X151834776Y-114431645D01*
X151850000Y-114394891D01*
X151850000Y-114375000D01*
X152103554Y-114375000D01*
X152312500Y-114583946D01*
X152521446Y-114375000D01*
X152501555Y-114355109D01*
X152775000Y-114355109D01*
X152775000Y-114394891D01*
X152790224Y-114431645D01*
X152818355Y-114459776D01*
X152855109Y-114475000D01*
X152894891Y-114475000D01*
X152931645Y-114459776D01*
X152959776Y-114431645D01*
X152975000Y-114394891D01*
X152975000Y-114374999D01*
X153228554Y-114374999D01*
X153228554Y-114375001D01*
X153552577Y-114699024D01*
X153552578Y-114699024D01*
X153596175Y-114593775D01*
X153596179Y-114593760D01*
X153616670Y-114490750D01*
X153624999Y-114448873D01*
X153625000Y-114448871D01*
X153625000Y-114301128D01*
X153624999Y-114301126D01*
X153596179Y-114156240D01*
X153596178Y-114156236D01*
X153552577Y-114050975D01*
X153228554Y-114374999D01*
X152975000Y-114374999D01*
X152975000Y-114355109D01*
X152959776Y-114318355D01*
X152931645Y-114290224D01*
X152894891Y-114275000D01*
X152855109Y-114275000D01*
X152818355Y-114290224D01*
X152790224Y-114318355D01*
X152775000Y-114355109D01*
X152501555Y-114355109D01*
X152312500Y-114166054D01*
X152103554Y-114375000D01*
X151850000Y-114375000D01*
X151850000Y-114355109D01*
X151834776Y-114318355D01*
X151806645Y-114290224D01*
X151769891Y-114275000D01*
X151730109Y-114275000D01*
X151693355Y-114290224D01*
X151665224Y-114318355D01*
X151650000Y-114355109D01*
X151376555Y-114355109D01*
X151187500Y-114166054D01*
X150978554Y-114375000D01*
X150725000Y-114375000D01*
X150725000Y-114355109D01*
X150709776Y-114318355D01*
X150681645Y-114290224D01*
X150644891Y-114275000D01*
X150605109Y-114275000D01*
X150568355Y-114290224D01*
X150540224Y-114318355D01*
X150525000Y-114355109D01*
X150251555Y-114355109D01*
X150062500Y-114166054D01*
X149853554Y-114375000D01*
X149600000Y-114375000D01*
X149600000Y-114355109D01*
X149584776Y-114318355D01*
X149556645Y-114290224D01*
X149519891Y-114275000D01*
X149480109Y-114275000D01*
X149443355Y-114290224D01*
X149415224Y-114318355D01*
X149400000Y-114355109D01*
X149126555Y-114355109D01*
X148937500Y-114166054D01*
X148728554Y-114375000D01*
X148475000Y-114375000D01*
X148475000Y-114355109D01*
X148459776Y-114318355D01*
X148431645Y-114290224D01*
X148394891Y-114275000D01*
X148355109Y-114275000D01*
X148318355Y-114290224D01*
X148290224Y-114318355D01*
X148275000Y-114355109D01*
X148001556Y-114355109D01*
X147697421Y-114050974D01*
X147697420Y-114050974D01*
X147653823Y-114156228D01*
X147653820Y-114156240D01*
X147625000Y-114301126D01*
X139734589Y-114301126D01*
X139719709Y-114207174D01*
X139695554Y-114132837D01*
X139694293Y-114127232D01*
X139696179Y-114097880D01*
X139695339Y-114068478D01*
X139697322Y-114061721D01*
X139719709Y-113992826D01*
X139740734Y-113860080D01*
X139750500Y-113798422D01*
X139750500Y-113697420D01*
X148050974Y-113697420D01*
X148050974Y-113697421D01*
X148375000Y-114021446D01*
X148375001Y-114021446D01*
X148699024Y-113697421D01*
X148699022Y-113697420D01*
X149175974Y-113697420D01*
X149175974Y-113697421D01*
X149500000Y-114021446D01*
X149500001Y-114021446D01*
X149824024Y-113697421D01*
X149824022Y-113697420D01*
X150300974Y-113697420D01*
X150300974Y-113697421D01*
X150625000Y-114021446D01*
X150625001Y-114021446D01*
X150949024Y-113697421D01*
X150949022Y-113697420D01*
X151425974Y-113697420D01*
X151425974Y-113697421D01*
X151750000Y-114021446D01*
X151750001Y-114021446D01*
X152074024Y-113697421D01*
X152074022Y-113697420D01*
X152550974Y-113697420D01*
X152550974Y-113697421D01*
X152875000Y-114021446D01*
X152875001Y-114021446D01*
X153199024Y-113697421D01*
X153093767Y-113653822D01*
X153093759Y-113653820D01*
X152948872Y-113625000D01*
X152801128Y-113625000D01*
X152656240Y-113653820D01*
X152656228Y-113653823D01*
X152550974Y-113697420D01*
X152074022Y-113697420D01*
X151968767Y-113653822D01*
X151968759Y-113653820D01*
X151823872Y-113625000D01*
X151676128Y-113625000D01*
X151531240Y-113653820D01*
X151531228Y-113653823D01*
X151425974Y-113697420D01*
X150949022Y-113697420D01*
X150843767Y-113653822D01*
X150843759Y-113653820D01*
X150698872Y-113625000D01*
X150551128Y-113625000D01*
X150406240Y-113653820D01*
X150406228Y-113653823D01*
X150300974Y-113697420D01*
X149824022Y-113697420D01*
X149718767Y-113653822D01*
X149718759Y-113653820D01*
X149573872Y-113625000D01*
X149426128Y-113625000D01*
X149281240Y-113653820D01*
X149281228Y-113653823D01*
X149175974Y-113697420D01*
X148699022Y-113697420D01*
X148593767Y-113653822D01*
X148593759Y-113653820D01*
X148448872Y-113625000D01*
X148301128Y-113625000D01*
X148156240Y-113653820D01*
X148156228Y-113653823D01*
X148050974Y-113697420D01*
X139750500Y-113697420D01*
X139750500Y-113601577D01*
X139728334Y-113461629D01*
X139728332Y-113461623D01*
X139725539Y-113443984D01*
X164075000Y-113443984D01*
X164075000Y-113636015D01*
X164105040Y-113825684D01*
X164164383Y-114008321D01*
X164251561Y-114179415D01*
X164272798Y-114208646D01*
X164895000Y-113586445D01*
X164895000Y-113592661D01*
X164922259Y-113694394D01*
X164974920Y-113785606D01*
X165049394Y-113860080D01*
X165140606Y-113912741D01*
X165242339Y-113940000D01*
X165248554Y-113940000D01*
X164626351Y-114562200D01*
X164626352Y-114562201D01*
X164655577Y-114583434D01*
X164826678Y-114670616D01*
X165009315Y-114729959D01*
X165198985Y-114760000D01*
X165391015Y-114760000D01*
X165580684Y-114729959D01*
X165763321Y-114670616D01*
X165934419Y-114583436D01*
X165963646Y-114562201D01*
X165963646Y-114562200D01*
X165341447Y-113940000D01*
X165347661Y-113940000D01*
X165449394Y-113912741D01*
X165540606Y-113860080D01*
X165615080Y-113785606D01*
X165667741Y-113694394D01*
X165695000Y-113592661D01*
X165695000Y-113586446D01*
X166317200Y-114208646D01*
X166317201Y-114208646D01*
X166338436Y-114179419D01*
X166425616Y-114008321D01*
X166484959Y-113825684D01*
X166515000Y-113636015D01*
X166515000Y-113443984D01*
X166484959Y-113254315D01*
X166425616Y-113071678D01*
X166338434Y-112900577D01*
X166317201Y-112871352D01*
X166317200Y-112871351D01*
X165695000Y-113493552D01*
X165695000Y-113487339D01*
X165667741Y-113385606D01*
X165615080Y-113294394D01*
X165540606Y-113219920D01*
X165449394Y-113167259D01*
X165347661Y-113140000D01*
X165341447Y-113140000D01*
X165963646Y-112517798D01*
X165934415Y-112496561D01*
X165763321Y-112409383D01*
X165580684Y-112350040D01*
X165391015Y-112320000D01*
X165198985Y-112320000D01*
X165009315Y-112350040D01*
X164826678Y-112409383D01*
X164655578Y-112496564D01*
X164626352Y-112517798D01*
X164626351Y-112517798D01*
X165248554Y-113140000D01*
X165242339Y-113140000D01*
X165140606Y-113167259D01*
X165049394Y-113219920D01*
X164974920Y-113294394D01*
X164922259Y-113385606D01*
X164895000Y-113487339D01*
X164895000Y-113493553D01*
X164272798Y-112871351D01*
X164272798Y-112871352D01*
X164251564Y-112900578D01*
X164164383Y-113071678D01*
X164105040Y-113254315D01*
X164075000Y-113443984D01*
X139725539Y-113443984D01*
X139719709Y-113407174D01*
X139711542Y-113382041D01*
X139710183Y-113375598D01*
X139712402Y-113347078D01*
X139711584Y-113318483D01*
X139713574Y-113311705D01*
X139719709Y-113292826D01*
X139740669Y-113160488D01*
X139750500Y-113098422D01*
X139750500Y-112901577D01*
X139727336Y-112755328D01*
X139727335Y-112755323D01*
X139725018Y-112740691D01*
X144549500Y-112740691D01*
X144549500Y-112859309D01*
X144580201Y-112973886D01*
X144639511Y-113076613D01*
X144723387Y-113160489D01*
X144826114Y-113219799D01*
X144940691Y-113250500D01*
X144940694Y-113250500D01*
X145059306Y-113250500D01*
X145059309Y-113250500D01*
X145173886Y-113219799D01*
X145276613Y-113160489D01*
X145360489Y-113076613D01*
X145419799Y-112973886D01*
X145450500Y-112859309D01*
X145450500Y-112740691D01*
X145419799Y-112626114D01*
X145360489Y-112523387D01*
X145276613Y-112439511D01*
X145173886Y-112380201D01*
X145059309Y-112349500D01*
X144940691Y-112349500D01*
X144826114Y-112380201D01*
X144826112Y-112380201D01*
X144826112Y-112380202D01*
X144723387Y-112439511D01*
X144723384Y-112439513D01*
X144639513Y-112523384D01*
X144639511Y-112523387D01*
X144580201Y-112626114D01*
X144549500Y-112740691D01*
X139725018Y-112740691D01*
X139719709Y-112707174D01*
X139711618Y-112682275D01*
X139710286Y-112676082D01*
X139712409Y-112647315D01*
X139711584Y-112618483D01*
X139713574Y-112611705D01*
X139719709Y-112592826D01*
X139736504Y-112486784D01*
X139750500Y-112398422D01*
X139750500Y-112201576D01*
X139748776Y-112190691D01*
X155999500Y-112190691D01*
X155999500Y-112309309D01*
X156030201Y-112423886D01*
X156089511Y-112526613D01*
X156173387Y-112610489D01*
X156276114Y-112669799D01*
X156390691Y-112700500D01*
X156390694Y-112700500D01*
X156509306Y-112700500D01*
X156509309Y-112700500D01*
X156623886Y-112669799D01*
X156726613Y-112610489D01*
X156810489Y-112526613D01*
X156869799Y-112423886D01*
X156900500Y-112309309D01*
X156900500Y-112190691D01*
X156869799Y-112076114D01*
X156810489Y-111973387D01*
X156726613Y-111889511D01*
X156623886Y-111830201D01*
X156509309Y-111799500D01*
X156390691Y-111799500D01*
X156276114Y-111830201D01*
X156276112Y-111830201D01*
X156276112Y-111830202D01*
X156173387Y-111889511D01*
X156173384Y-111889513D01*
X156089513Y-111973384D01*
X156089511Y-111973387D01*
X156030201Y-112076114D01*
X155999500Y-112190691D01*
X139748776Y-112190691D01*
X139719709Y-112007173D01*
X139662207Y-111830202D01*
X139658884Y-111819975D01*
X139658882Y-111819972D01*
X139658882Y-111819970D01*
X139569523Y-111644594D01*
X139453828Y-111485354D01*
X139314646Y-111346172D01*
X139155405Y-111230476D01*
X139134350Y-111219748D01*
X138980029Y-111141117D01*
X138792826Y-111080290D01*
X138598422Y-111049500D01*
X138598417Y-111049500D01*
X138401583Y-111049500D01*
X138401578Y-111049500D01*
X138207172Y-111080291D01*
X138207169Y-111080291D01*
X138138318Y-111102663D01*
X138068477Y-111104658D01*
X138061682Y-111102663D01*
X137992828Y-111080291D01*
X137798422Y-111049500D01*
X137798417Y-111049500D01*
X137601583Y-111049500D01*
X137601578Y-111049500D01*
X137407172Y-111080291D01*
X137407169Y-111080291D01*
X137338318Y-111102663D01*
X137268477Y-111104658D01*
X137261682Y-111102663D01*
X137192828Y-111080291D01*
X136998422Y-111049500D01*
X136998417Y-111049500D01*
X136801583Y-111049500D01*
X136801578Y-111049500D01*
X136607173Y-111080290D01*
X136419970Y-111141117D01*
X136244594Y-111230476D01*
X136178866Y-111278231D01*
X136085354Y-111346172D01*
X136085352Y-111346174D01*
X136085351Y-111346174D01*
X135946174Y-111485351D01*
X135946174Y-111485352D01*
X135946172Y-111485354D01*
X135896485Y-111553741D01*
X135830476Y-111644594D01*
X135741117Y-111819970D01*
X135680290Y-112007173D01*
X135649500Y-112201577D01*
X135649500Y-112398422D01*
X135680291Y-112592827D01*
X135680291Y-112592830D01*
X135686417Y-112611682D01*
X135688412Y-112681523D01*
X135686417Y-112688318D01*
X135680291Y-112707169D01*
X135680291Y-112707172D01*
X135649500Y-112901577D01*
X135649500Y-113098422D01*
X135680291Y-113292827D01*
X135680291Y-113292830D01*
X135686417Y-113311682D01*
X135688412Y-113381523D01*
X135686417Y-113388318D01*
X135680291Y-113407169D01*
X135680291Y-113407172D01*
X135649500Y-113601577D01*
X135649500Y-113798422D01*
X135680291Y-113992827D01*
X135680291Y-113992830D01*
X135702663Y-114061682D01*
X135704658Y-114131523D01*
X135702663Y-114138318D01*
X135680291Y-114207169D01*
X135680291Y-114207172D01*
X135649500Y-114401577D01*
X135649500Y-114598422D01*
X135680291Y-114792828D01*
X135680291Y-114792829D01*
X135682859Y-114800732D01*
X135684852Y-114870574D01*
X135682858Y-114877364D01*
X135634172Y-115027200D01*
X135634172Y-115027203D01*
X135603381Y-115221608D01*
X135603381Y-115418453D01*
X135626819Y-115566440D01*
X135617993Y-115634732D01*
X135618142Y-115634794D01*
X135617914Y-115635343D01*
X135617864Y-115635733D01*
X135616981Y-115637595D01*
X135616276Y-115639297D01*
X135555454Y-115826485D01*
X135555454Y-115826488D01*
X135524663Y-116020893D01*
X89371657Y-116020893D01*
X89324077Y-115922092D01*
X89324076Y-115922090D01*
X89141789Y-115631982D01*
X88928166Y-115364107D01*
X88685893Y-115121834D01*
X88418018Y-114908211D01*
X88211156Y-114778231D01*
X88127907Y-114725922D01*
X87819216Y-114577264D01*
X87495818Y-114464103D01*
X87495816Y-114464102D01*
X87221876Y-114401577D01*
X87161783Y-114387861D01*
X87161780Y-114387860D01*
X87161768Y-114387858D01*
X86821318Y-114349500D01*
X86821312Y-114349500D01*
X86478688Y-114349500D01*
X86478681Y-114349500D01*
X86138231Y-114387858D01*
X86138217Y-114387861D01*
X85804183Y-114464102D01*
X85804181Y-114464103D01*
X85480783Y-114577264D01*
X85172092Y-114725922D01*
X84881983Y-114908210D01*
X84614107Y-115121833D01*
X84371833Y-115364107D01*
X84158210Y-115631983D01*
X83975922Y-115922092D01*
X83827264Y-116230783D01*
X83714103Y-116554181D01*
X83714102Y-116554183D01*
X83637861Y-116888217D01*
X83637858Y-116888231D01*
X83599500Y-117228681D01*
X78250000Y-117228681D01*
X78250000Y-113780247D01*
X79449500Y-113780247D01*
X79449500Y-114719752D01*
X79461131Y-114778229D01*
X79461132Y-114778230D01*
X79505447Y-114844552D01*
X79571769Y-114888867D01*
X79571770Y-114888868D01*
X79630247Y-114900499D01*
X79630250Y-114900500D01*
X79630252Y-114900500D01*
X81669750Y-114900500D01*
X81669751Y-114900499D01*
X81684568Y-114897552D01*
X81728229Y-114888868D01*
X81728229Y-114888867D01*
X81728231Y-114888867D01*
X81794552Y-114844552D01*
X81838867Y-114778231D01*
X81838867Y-114778229D01*
X81838868Y-114778229D01*
X81848748Y-114728554D01*
X81850500Y-114719748D01*
X81850500Y-113780252D01*
X81850500Y-113780249D01*
X81850499Y-113780247D01*
X81838868Y-113721770D01*
X81838867Y-113721769D01*
X81794552Y-113655447D01*
X81728230Y-113611132D01*
X81728229Y-113611131D01*
X81669752Y-113599500D01*
X81669748Y-113599500D01*
X79630252Y-113599500D01*
X79630247Y-113599500D01*
X79571770Y-113611131D01*
X79571769Y-113611132D01*
X79505447Y-113655447D01*
X79461132Y-113721769D01*
X79461131Y-113721770D01*
X79449500Y-113780247D01*
X78250000Y-113780247D01*
X78250000Y-110280247D01*
X79449500Y-110280247D01*
X79449500Y-111219752D01*
X79461131Y-111278229D01*
X79461132Y-111278230D01*
X79505447Y-111344552D01*
X79571769Y-111388867D01*
X79571770Y-111388868D01*
X79630247Y-111400499D01*
X79630250Y-111400500D01*
X79630252Y-111400500D01*
X81669750Y-111400500D01*
X81669751Y-111400499D01*
X81684568Y-111397552D01*
X81728229Y-111388868D01*
X81728229Y-111388867D01*
X81728231Y-111388867D01*
X81794552Y-111344552D01*
X81838867Y-111278231D01*
X81838867Y-111278229D01*
X81838868Y-111278229D01*
X81850499Y-111219752D01*
X81850500Y-111219750D01*
X81850500Y-110840691D01*
X151949500Y-110840691D01*
X151949500Y-110959309D01*
X151980201Y-111073886D01*
X152039511Y-111176613D01*
X152123387Y-111260489D01*
X152226114Y-111319799D01*
X152340691Y-111350500D01*
X152340694Y-111350500D01*
X152459306Y-111350500D01*
X152459309Y-111350500D01*
X152573886Y-111319799D01*
X152676613Y-111260489D01*
X152760489Y-111176613D01*
X152819799Y-111073886D01*
X152850500Y-110959309D01*
X152850500Y-110909334D01*
X164374500Y-110909334D01*
X164374500Y-111090665D01*
X164409872Y-111268492D01*
X164409874Y-111268500D01*
X164479261Y-111436017D01*
X164479266Y-111436026D01*
X164580000Y-111586784D01*
X164580003Y-111586788D01*
X164708211Y-111714996D01*
X164708215Y-111714999D01*
X164858973Y-111815733D01*
X164858979Y-111815736D01*
X164858980Y-111815737D01*
X165026500Y-111885126D01*
X165204334Y-111920499D01*
X165204338Y-111920500D01*
X165204339Y-111920500D01*
X165385662Y-111920500D01*
X165385663Y-111920499D01*
X165563500Y-111885126D01*
X165731020Y-111815737D01*
X165881785Y-111714999D01*
X166009999Y-111586785D01*
X166110737Y-111436020D01*
X166180126Y-111268500D01*
X166215500Y-111090661D01*
X166215500Y-110909339D01*
X166180126Y-110731500D01*
X166110737Y-110563980D01*
X166110736Y-110563979D01*
X166110733Y-110563973D01*
X166009999Y-110413215D01*
X166009996Y-110413211D01*
X165881788Y-110285003D01*
X165881784Y-110285000D01*
X165731026Y-110184266D01*
X165731017Y-110184261D01*
X165563500Y-110114874D01*
X165563492Y-110114872D01*
X165385665Y-110079500D01*
X165385661Y-110079500D01*
X165204339Y-110079500D01*
X165204334Y-110079500D01*
X165026507Y-110114872D01*
X165026499Y-110114874D01*
X164858982Y-110184261D01*
X164858973Y-110184266D01*
X164708215Y-110285000D01*
X164708211Y-110285003D01*
X164580003Y-110413211D01*
X164580000Y-110413215D01*
X164479266Y-110563973D01*
X164479261Y-110563982D01*
X164409874Y-110731499D01*
X164409872Y-110731507D01*
X164374500Y-110909334D01*
X152850500Y-110909334D01*
X152850500Y-110840691D01*
X152819799Y-110726114D01*
X152760489Y-110623387D01*
X152676613Y-110539511D01*
X152573886Y-110480201D01*
X152459309Y-110449500D01*
X152340691Y-110449500D01*
X152226114Y-110480201D01*
X152226112Y-110480201D01*
X152226112Y-110480202D01*
X152123387Y-110539511D01*
X152123384Y-110539513D01*
X152039513Y-110623384D01*
X152039511Y-110623387D01*
X151980201Y-110726114D01*
X151949500Y-110840691D01*
X81850500Y-110840691D01*
X81850500Y-110280249D01*
X81850499Y-110280247D01*
X81838868Y-110221770D01*
X81838867Y-110221769D01*
X81794552Y-110155447D01*
X81728230Y-110111132D01*
X81728229Y-110111131D01*
X81669752Y-110099500D01*
X81669748Y-110099500D01*
X79630252Y-110099500D01*
X79630247Y-110099500D01*
X79571770Y-110111131D01*
X79571769Y-110111132D01*
X79505447Y-110155447D01*
X79461132Y-110221769D01*
X79461131Y-110221770D01*
X79449500Y-110280247D01*
X78250000Y-110280247D01*
X78250000Y-107428681D01*
X83599500Y-107428681D01*
X83599500Y-107771318D01*
X83637858Y-108111768D01*
X83637861Y-108111782D01*
X83714102Y-108445816D01*
X83714103Y-108445818D01*
X83827264Y-108769216D01*
X83975922Y-109077907D01*
X83975924Y-109077910D01*
X84158211Y-109368018D01*
X84371834Y-109635893D01*
X84614107Y-109878166D01*
X84881982Y-110091789D01*
X85088844Y-110221769D01*
X85172092Y-110274077D01*
X85194774Y-110285000D01*
X85480785Y-110422736D01*
X85804183Y-110535897D01*
X86138217Y-110612139D01*
X86138226Y-110612140D01*
X86138231Y-110612141D01*
X86365197Y-110637713D01*
X86478682Y-110650499D01*
X86478685Y-110650500D01*
X86478688Y-110650500D01*
X86821315Y-110650500D01*
X86821316Y-110650499D01*
X86995311Y-110630895D01*
X87161768Y-110612141D01*
X87161771Y-110612140D01*
X87161783Y-110612139D01*
X87495817Y-110535897D01*
X87819215Y-110422736D01*
X88127910Y-110274076D01*
X88418018Y-110091789D01*
X88685893Y-109878166D01*
X88928166Y-109635893D01*
X89141789Y-109368018D01*
X89324076Y-109077910D01*
X89472736Y-108769215D01*
X89517708Y-108640691D01*
X142449500Y-108640691D01*
X142449500Y-108759309D01*
X142480201Y-108873886D01*
X142539511Y-108976613D01*
X142623387Y-109060489D01*
X142726114Y-109119799D01*
X142840691Y-109150500D01*
X142840694Y-109150500D01*
X142959306Y-109150500D01*
X142959309Y-109150500D01*
X143073886Y-109119799D01*
X143176613Y-109060489D01*
X143260489Y-108976613D01*
X143264550Y-108969579D01*
X143315110Y-108921364D01*
X143383716Y-108908136D01*
X143419390Y-108917014D01*
X143426109Y-108919797D01*
X143426111Y-108919797D01*
X143426114Y-108919799D01*
X143540691Y-108950500D01*
X143540694Y-108950500D01*
X143659306Y-108950500D01*
X143659309Y-108950500D01*
X143773886Y-108919799D01*
X143876613Y-108860489D01*
X143960489Y-108776613D01*
X144019799Y-108673886D01*
X144019799Y-108673884D01*
X144021481Y-108670972D01*
X144072048Y-108622757D01*
X144140656Y-108609535D01*
X144205520Y-108635503D01*
X144236253Y-108670971D01*
X144239511Y-108676613D01*
X144323387Y-108760489D01*
X144426114Y-108819799D01*
X144540691Y-108850500D01*
X144540694Y-108850500D01*
X144659306Y-108850500D01*
X144659309Y-108850500D01*
X144773886Y-108819799D01*
X144876613Y-108760489D01*
X144896411Y-108740691D01*
X150924500Y-108740691D01*
X150924500Y-108859309D01*
X150955201Y-108973886D01*
X151014511Y-109076613D01*
X151098387Y-109160489D01*
X151201114Y-109219799D01*
X151315691Y-109250500D01*
X151315694Y-109250500D01*
X151434306Y-109250500D01*
X151434309Y-109250500D01*
X151548886Y-109219799D01*
X151651613Y-109160489D01*
X151735489Y-109076613D01*
X151794799Y-108973886D01*
X151825500Y-108859309D01*
X151825500Y-108740691D01*
X152449500Y-108740691D01*
X152449500Y-108859309D01*
X152480201Y-108973886D01*
X152539511Y-109076613D01*
X152623387Y-109160489D01*
X152726114Y-109219799D01*
X152840691Y-109250500D01*
X152840694Y-109250500D01*
X152959306Y-109250500D01*
X152959309Y-109250500D01*
X153073886Y-109219799D01*
X153176613Y-109160489D01*
X153260489Y-109076613D01*
X153319799Y-108973886D01*
X153350500Y-108859309D01*
X153350500Y-108740691D01*
X153319799Y-108626114D01*
X153260489Y-108523387D01*
X153250591Y-108513489D01*
X153238638Y-108491599D01*
X153223199Y-108472006D01*
X153222181Y-108461461D01*
X153217106Y-108452166D01*
X153218885Y-108427287D01*
X153216490Y-108402459D01*
X153221334Y-108393039D01*
X153222090Y-108382474D01*
X153231926Y-108369334D01*
X164374500Y-108369334D01*
X164374500Y-108550665D01*
X164409872Y-108728492D01*
X164409874Y-108728500D01*
X164479261Y-108896017D01*
X164479266Y-108896026D01*
X164580000Y-109046784D01*
X164580003Y-109046788D01*
X164708211Y-109174996D01*
X164708215Y-109174999D01*
X164858973Y-109275733D01*
X164858979Y-109275736D01*
X164858980Y-109275737D01*
X165026500Y-109345126D01*
X165204334Y-109380499D01*
X165204338Y-109380500D01*
X165204339Y-109380500D01*
X165385662Y-109380500D01*
X165385663Y-109380499D01*
X165563500Y-109345126D01*
X165731020Y-109275737D01*
X165881785Y-109174999D01*
X166009999Y-109046785D01*
X166110737Y-108896020D01*
X166180126Y-108728500D01*
X166215500Y-108550661D01*
X166215500Y-108369339D01*
X166180126Y-108191500D01*
X166110737Y-108023980D01*
X166110736Y-108023979D01*
X166110733Y-108023973D01*
X166009999Y-107873215D01*
X166009996Y-107873211D01*
X165881788Y-107745003D01*
X165881784Y-107745000D01*
X165731026Y-107644266D01*
X165731017Y-107644261D01*
X165563500Y-107574874D01*
X165563492Y-107574872D01*
X165385665Y-107539500D01*
X165385661Y-107539500D01*
X165204339Y-107539500D01*
X165204334Y-107539500D01*
X165026507Y-107574872D01*
X165026499Y-107574874D01*
X164858982Y-107644261D01*
X164858973Y-107644266D01*
X164708215Y-107745000D01*
X164708211Y-107745003D01*
X164580003Y-107873211D01*
X164580000Y-107873215D01*
X164479266Y-108023973D01*
X164479261Y-108023982D01*
X164409874Y-108191499D01*
X164409872Y-108191507D01*
X164374500Y-108369334D01*
X153231926Y-108369334D01*
X153237037Y-108362506D01*
X153248446Y-108340325D01*
X153261100Y-108330364D01*
X153263962Y-108326541D01*
X153276162Y-108318484D01*
X153376613Y-108260489D01*
X153460489Y-108176613D01*
X153519799Y-108073886D01*
X153550500Y-107959309D01*
X153550500Y-107840691D01*
X153519799Y-107726114D01*
X153460489Y-107623387D01*
X153376613Y-107539511D01*
X153273886Y-107480201D01*
X153159309Y-107449500D01*
X153040691Y-107449500D01*
X152926114Y-107480201D01*
X152926112Y-107480201D01*
X152926112Y-107480202D01*
X152823387Y-107539511D01*
X152823384Y-107539513D01*
X152739513Y-107623384D01*
X152739511Y-107623387D01*
X152680201Y-107726114D01*
X152649500Y-107840691D01*
X152649500Y-107959309D01*
X152680201Y-108073886D01*
X152739511Y-108176613D01*
X152739513Y-108176615D01*
X152749408Y-108186510D01*
X152782893Y-108247833D01*
X152777909Y-108317525D01*
X152736037Y-108373458D01*
X152723728Y-108381577D01*
X152623393Y-108439506D01*
X152623384Y-108439513D01*
X152539513Y-108523384D01*
X152539511Y-108523387D01*
X152480201Y-108626114D01*
X152449500Y-108740691D01*
X151825500Y-108740691D01*
X151794799Y-108626114D01*
X151735489Y-108523387D01*
X151651613Y-108439511D01*
X151548886Y-108380201D01*
X151434309Y-108349500D01*
X151315691Y-108349500D01*
X151201114Y-108380201D01*
X151201112Y-108380201D01*
X151201112Y-108380202D01*
X151098387Y-108439511D01*
X151098384Y-108439513D01*
X151014513Y-108523384D01*
X151014511Y-108523387D01*
X150955201Y-108626114D01*
X150924500Y-108740691D01*
X144896411Y-108740691D01*
X144960489Y-108676613D01*
X145019799Y-108573886D01*
X145050500Y-108459309D01*
X145050500Y-108340691D01*
X145019799Y-108226114D01*
X144960489Y-108123387D01*
X144876613Y-108039511D01*
X144773886Y-107980201D01*
X144659309Y-107949500D01*
X144540691Y-107949500D01*
X144426114Y-107980201D01*
X144426112Y-107980201D01*
X144426112Y-107980202D01*
X144323387Y-108039511D01*
X144323384Y-108039513D01*
X144239513Y-108123384D01*
X144239509Y-108123390D01*
X144178517Y-108229028D01*
X144127949Y-108277242D01*
X144059342Y-108290464D01*
X143994478Y-108264495D01*
X143963745Y-108229026D01*
X143960489Y-108223387D01*
X143876613Y-108139511D01*
X143773886Y-108080201D01*
X143659309Y-108049500D01*
X143540691Y-108049500D01*
X143426114Y-108080201D01*
X143426112Y-108080201D01*
X143426112Y-108080202D01*
X143323387Y-108139511D01*
X143323384Y-108139513D01*
X143239513Y-108223384D01*
X143239507Y-108223393D01*
X143235447Y-108230425D01*
X143184880Y-108278640D01*
X143116273Y-108291862D01*
X143080613Y-108282987D01*
X143073890Y-108280202D01*
X143062843Y-108277242D01*
X142959309Y-108249500D01*
X142840691Y-108249500D01*
X142726114Y-108280201D01*
X142726112Y-108280201D01*
X142726112Y-108280202D01*
X142623387Y-108339511D01*
X142623384Y-108339513D01*
X142539513Y-108423384D01*
X142539511Y-108423387D01*
X142511441Y-108472006D01*
X142480201Y-108526114D01*
X142449500Y-108640691D01*
X89517708Y-108640691D01*
X89585897Y-108445817D01*
X89662139Y-108111783D01*
X89665698Y-108080201D01*
X89680895Y-107945311D01*
X89700500Y-107771312D01*
X89700500Y-107428688D01*
X89684290Y-107284821D01*
X89668700Y-107146447D01*
X89668700Y-107146446D01*
X89668052Y-107140691D01*
X139549500Y-107140691D01*
X139549500Y-107259309D01*
X139580201Y-107373886D01*
X139639511Y-107476613D01*
X139723387Y-107560489D01*
X139826114Y-107619799D01*
X139940691Y-107650500D01*
X139940694Y-107650500D01*
X140059306Y-107650500D01*
X140059309Y-107650500D01*
X140173886Y-107619799D01*
X140276613Y-107560489D01*
X140360489Y-107476613D01*
X140419799Y-107373886D01*
X140450500Y-107259309D01*
X140450500Y-107140691D01*
X140419799Y-107026114D01*
X140370480Y-106940691D01*
X149599500Y-106940691D01*
X149599500Y-107059309D01*
X149630201Y-107173886D01*
X149689511Y-107276613D01*
X149773387Y-107360489D01*
X149876114Y-107419799D01*
X149990691Y-107450500D01*
X149990694Y-107450500D01*
X150067363Y-107450500D01*
X150134402Y-107470185D01*
X150180157Y-107522989D01*
X150190101Y-107592147D01*
X150181927Y-107621945D01*
X150180203Y-107626106D01*
X150180201Y-107626114D01*
X150149500Y-107740691D01*
X150149500Y-107859309D01*
X150180201Y-107973886D01*
X150239511Y-108076613D01*
X150323387Y-108160489D01*
X150426114Y-108219799D01*
X150540691Y-108250500D01*
X150540694Y-108250500D01*
X150659306Y-108250500D01*
X150659309Y-108250500D01*
X150773886Y-108219799D01*
X150876613Y-108160489D01*
X150960489Y-108076613D01*
X151019799Y-107973886D01*
X151050500Y-107859309D01*
X151050500Y-107740691D01*
X151019799Y-107626114D01*
X150960489Y-107523387D01*
X150876613Y-107439511D01*
X150773886Y-107380201D01*
X150659309Y-107349500D01*
X150582637Y-107349500D01*
X150515598Y-107329815D01*
X150469843Y-107277011D01*
X150459899Y-107207853D01*
X150468073Y-107178055D01*
X150469796Y-107173893D01*
X150469798Y-107173887D01*
X150469799Y-107173886D01*
X150500500Y-107059309D01*
X150500500Y-106940691D01*
X150469799Y-106826114D01*
X150410489Y-106723387D01*
X150326613Y-106639511D01*
X150223886Y-106580201D01*
X150109309Y-106549500D01*
X149990691Y-106549500D01*
X149876114Y-106580201D01*
X149876112Y-106580201D01*
X149876112Y-106580202D01*
X149773387Y-106639511D01*
X149773384Y-106639513D01*
X149689513Y-106723384D01*
X149689511Y-106723387D01*
X149656709Y-106780202D01*
X149630201Y-106826114D01*
X149599500Y-106940691D01*
X140370480Y-106940691D01*
X140360489Y-106923387D01*
X140276613Y-106839511D01*
X140173886Y-106780201D01*
X140059309Y-106749500D01*
X139940691Y-106749500D01*
X139826114Y-106780201D01*
X139826112Y-106780201D01*
X139826112Y-106780202D01*
X139723387Y-106839511D01*
X139723384Y-106839513D01*
X139639513Y-106923384D01*
X139639511Y-106923387D01*
X139618091Y-106960488D01*
X139580201Y-107026114D01*
X139549500Y-107140691D01*
X89668052Y-107140691D01*
X89662141Y-107088232D01*
X89662140Y-107088228D01*
X89662139Y-107088217D01*
X89585897Y-106754183D01*
X89472736Y-106430785D01*
X89324076Y-106122090D01*
X89141789Y-105831982D01*
X88928166Y-105564107D01*
X88804750Y-105440691D01*
X140749500Y-105440691D01*
X140749500Y-105559309D01*
X140780201Y-105673886D01*
X140839511Y-105776613D01*
X140923387Y-105860489D01*
X141026114Y-105919799D01*
X141140691Y-105950500D01*
X141140694Y-105950500D01*
X141259306Y-105950500D01*
X141259309Y-105950500D01*
X141373886Y-105919799D01*
X141476613Y-105860489D01*
X141560489Y-105776613D01*
X141563742Y-105770977D01*
X141614303Y-105722762D01*
X141682909Y-105709534D01*
X141747776Y-105735497D01*
X141778517Y-105770972D01*
X141818091Y-105839513D01*
X141839511Y-105876613D01*
X141923387Y-105960489D01*
X142026114Y-106019799D01*
X142140691Y-106050500D01*
X142140694Y-106050500D01*
X142259306Y-106050500D01*
X142259309Y-106050500D01*
X142373886Y-106019799D01*
X142476613Y-105960489D01*
X142560489Y-105876613D01*
X142581228Y-105840691D01*
X143449500Y-105840691D01*
X143449500Y-105959309D01*
X143480201Y-106073886D01*
X143539511Y-106176613D01*
X143623387Y-106260489D01*
X143726114Y-106319799D01*
X143840691Y-106350500D01*
X143840694Y-106350500D01*
X143959306Y-106350500D01*
X143959309Y-106350500D01*
X144073886Y-106319799D01*
X144176613Y-106260489D01*
X144196411Y-106240691D01*
X154349500Y-106240691D01*
X154349500Y-106359309D01*
X154380201Y-106473886D01*
X154439511Y-106576613D01*
X154523387Y-106660489D01*
X154626114Y-106719799D01*
X154740691Y-106750500D01*
X154740694Y-106750500D01*
X154859306Y-106750500D01*
X154859309Y-106750500D01*
X154973886Y-106719799D01*
X155076613Y-106660489D01*
X155160489Y-106576613D01*
X155219799Y-106473886D01*
X155219799Y-106473884D01*
X155221481Y-106470972D01*
X155272048Y-106422757D01*
X155340656Y-106409535D01*
X155405520Y-106435503D01*
X155436253Y-106470971D01*
X155439511Y-106476613D01*
X155523387Y-106560489D01*
X155626114Y-106619799D01*
X155740691Y-106650500D01*
X155740694Y-106650500D01*
X155859306Y-106650500D01*
X155859309Y-106650500D01*
X155973886Y-106619799D01*
X156076613Y-106560489D01*
X156096411Y-106540691D01*
X161349500Y-106540691D01*
X161349500Y-106659309D01*
X161380201Y-106773886D01*
X161439511Y-106876613D01*
X161523387Y-106960489D01*
X161626114Y-107019799D01*
X161740691Y-107050500D01*
X161740694Y-107050500D01*
X161859306Y-107050500D01*
X161859309Y-107050500D01*
X161973886Y-107019799D01*
X162076613Y-106960489D01*
X162160489Y-106876613D01*
X162219799Y-106773886D01*
X162250500Y-106659309D01*
X162250500Y-106540691D01*
X162219799Y-106426114D01*
X162160489Y-106323387D01*
X162076613Y-106239511D01*
X161973886Y-106180201D01*
X161859309Y-106149500D01*
X161740691Y-106149500D01*
X161626114Y-106180201D01*
X161626112Y-106180201D01*
X161626112Y-106180202D01*
X161523387Y-106239511D01*
X161523384Y-106239513D01*
X161439513Y-106323384D01*
X161439511Y-106323387D01*
X161380201Y-106426114D01*
X161349500Y-106540691D01*
X156096411Y-106540691D01*
X156160489Y-106476613D01*
X156219799Y-106373886D01*
X156250500Y-106259309D01*
X156250500Y-106140691D01*
X156219799Y-106026114D01*
X156160489Y-105923387D01*
X156076613Y-105839511D01*
X155973886Y-105780201D01*
X155884278Y-105756190D01*
X155824619Y-105719825D01*
X155794090Y-105656978D01*
X155802385Y-105587603D01*
X155846871Y-105533725D01*
X155868931Y-105521851D01*
X155873883Y-105519799D01*
X155873886Y-105519799D01*
X155976613Y-105460489D01*
X156060489Y-105376613D01*
X156119799Y-105273886D01*
X156150500Y-105159309D01*
X156150500Y-105040691D01*
X156119799Y-104926114D01*
X156060489Y-104823387D01*
X155976613Y-104739511D01*
X155873886Y-104680201D01*
X155759309Y-104649500D01*
X155640691Y-104649500D01*
X155526114Y-104680201D01*
X155526112Y-104680201D01*
X155526112Y-104680202D01*
X155423387Y-104739511D01*
X155423384Y-104739513D01*
X155339513Y-104823384D01*
X155339511Y-104823387D01*
X155280201Y-104926114D01*
X155249500Y-105040691D01*
X155249500Y-105159309D01*
X155280201Y-105273886D01*
X155339511Y-105376613D01*
X155423387Y-105460489D01*
X155526114Y-105519799D01*
X155615721Y-105543809D01*
X155675380Y-105580173D01*
X155705909Y-105643020D01*
X155697614Y-105712395D01*
X155653129Y-105766273D01*
X155631080Y-105778144D01*
X155626114Y-105780200D01*
X155523387Y-105839511D01*
X155523384Y-105839513D01*
X155439513Y-105923384D01*
X155439509Y-105923390D01*
X155378517Y-106029028D01*
X155327949Y-106077242D01*
X155259342Y-106090464D01*
X155194478Y-106064495D01*
X155163745Y-106029026D01*
X155160489Y-106023387D01*
X155076613Y-105939511D01*
X154973886Y-105880201D01*
X154859309Y-105849500D01*
X154740691Y-105849500D01*
X154626114Y-105880201D01*
X154626112Y-105880201D01*
X154626112Y-105880202D01*
X154523387Y-105939511D01*
X154523384Y-105939513D01*
X154439513Y-106023384D01*
X154439511Y-106023387D01*
X154408418Y-106077242D01*
X154380201Y-106126114D01*
X154349500Y-106240691D01*
X144196411Y-106240691D01*
X144260489Y-106176613D01*
X144319799Y-106073886D01*
X144350500Y-105959309D01*
X144350500Y-105840691D01*
X144319799Y-105726114D01*
X144260489Y-105623387D01*
X144176613Y-105539511D01*
X144073886Y-105480201D01*
X143959309Y-105449500D01*
X143840691Y-105449500D01*
X143726114Y-105480201D01*
X143726112Y-105480201D01*
X143726112Y-105480202D01*
X143623387Y-105539511D01*
X143623384Y-105539513D01*
X143539513Y-105623384D01*
X143539511Y-105623387D01*
X143489774Y-105709534D01*
X143480201Y-105726114D01*
X143449500Y-105840691D01*
X142581228Y-105840691D01*
X142597691Y-105812177D01*
X142619795Y-105773894D01*
X142619797Y-105773890D01*
X142619797Y-105773888D01*
X142619799Y-105773886D01*
X142650500Y-105659309D01*
X142650500Y-105540691D01*
X142619799Y-105426114D01*
X142560489Y-105323387D01*
X142476613Y-105239511D01*
X142373886Y-105180201D01*
X142259309Y-105149500D01*
X142140691Y-105149500D01*
X142026114Y-105180201D01*
X142026112Y-105180201D01*
X142026112Y-105180202D01*
X141923387Y-105239511D01*
X141923384Y-105239513D01*
X141839513Y-105323384D01*
X141839508Y-105323390D01*
X141836254Y-105329028D01*
X141785686Y-105377243D01*
X141717078Y-105390464D01*
X141652214Y-105364495D01*
X141621481Y-105329027D01*
X141589645Y-105273887D01*
X141560489Y-105223387D01*
X141476613Y-105139511D01*
X141373886Y-105080201D01*
X141259309Y-105049500D01*
X141140691Y-105049500D01*
X141026114Y-105080201D01*
X141026112Y-105080201D01*
X141026112Y-105080202D01*
X140923387Y-105139511D01*
X140923384Y-105139513D01*
X140839513Y-105223384D01*
X140839511Y-105223387D01*
X140810355Y-105273887D01*
X140780201Y-105326114D01*
X140749500Y-105440691D01*
X88804750Y-105440691D01*
X88685893Y-105321834D01*
X88418018Y-105108211D01*
X88217653Y-104982313D01*
X88127907Y-104925922D01*
X87819216Y-104777264D01*
X87495818Y-104664103D01*
X87495816Y-104664102D01*
X87238024Y-104605262D01*
X87161783Y-104587861D01*
X87161780Y-104587860D01*
X87161768Y-104587858D01*
X86821318Y-104549500D01*
X86821312Y-104549500D01*
X86478688Y-104549500D01*
X86478681Y-104549500D01*
X86138231Y-104587858D01*
X86138217Y-104587861D01*
X85804183Y-104664102D01*
X85804181Y-104664103D01*
X85480783Y-104777264D01*
X85172092Y-104925922D01*
X84881983Y-105108210D01*
X84614107Y-105321833D01*
X84371833Y-105564107D01*
X84158210Y-105831983D01*
X83975922Y-106122092D01*
X83827264Y-106430783D01*
X83714103Y-106754181D01*
X83714102Y-106754183D01*
X83637861Y-107088217D01*
X83637858Y-107088231D01*
X83599500Y-107428681D01*
X78250000Y-107428681D01*
X78250000Y-104340691D01*
X149049500Y-104340691D01*
X149049500Y-104459309D01*
X149080201Y-104573886D01*
X149139511Y-104676613D01*
X149223387Y-104760489D01*
X149326114Y-104819799D01*
X149440691Y-104850500D01*
X149440694Y-104850500D01*
X149559306Y-104850500D01*
X149559309Y-104850500D01*
X149673886Y-104819799D01*
X149776613Y-104760489D01*
X149860489Y-104676613D01*
X149919799Y-104573886D01*
X149950500Y-104459309D01*
X149950500Y-104340691D01*
X149919799Y-104226114D01*
X149860489Y-104123387D01*
X149776613Y-104039511D01*
X149673886Y-103980201D01*
X149559309Y-103949500D01*
X149440691Y-103949500D01*
X149326114Y-103980201D01*
X149326112Y-103980201D01*
X149326112Y-103980202D01*
X149223387Y-104039511D01*
X149223384Y-104039513D01*
X149139513Y-104123384D01*
X149139511Y-104123387D01*
X149080201Y-104226114D01*
X149049500Y-104340691D01*
X78250000Y-104340691D01*
X78250000Y-103540691D01*
X148149500Y-103540691D01*
X148149500Y-103659309D01*
X148180201Y-103773886D01*
X148239511Y-103876613D01*
X148323387Y-103960489D01*
X148426114Y-104019799D01*
X148540691Y-104050500D01*
X148540694Y-104050500D01*
X148659306Y-104050500D01*
X148659309Y-104050500D01*
X148773886Y-104019799D01*
X148876613Y-103960489D01*
X148960489Y-103876613D01*
X149019799Y-103773886D01*
X149050500Y-103659309D01*
X149050500Y-103540691D01*
X149019799Y-103426114D01*
X148960489Y-103323387D01*
X148960487Y-103323385D01*
X148956425Y-103316349D01*
X148958529Y-103315133D01*
X148937770Y-103261464D01*
X148951796Y-103193017D01*
X148973657Y-103163443D01*
X148976608Y-103160491D01*
X148976613Y-103160489D01*
X149060489Y-103076613D01*
X149119799Y-102973886D01*
X149150500Y-102859309D01*
X149150500Y-102740691D01*
X149119799Y-102626114D01*
X149060489Y-102523387D01*
X148976613Y-102439511D01*
X148873886Y-102380201D01*
X148759309Y-102349500D01*
X148640691Y-102349500D01*
X148526114Y-102380201D01*
X148526112Y-102380201D01*
X148526112Y-102380202D01*
X148423387Y-102439511D01*
X148423384Y-102439513D01*
X148339513Y-102523384D01*
X148339511Y-102523387D01*
X148310355Y-102573887D01*
X148280201Y-102626114D01*
X148249500Y-102740691D01*
X148249500Y-102859309D01*
X148280201Y-102973886D01*
X148339511Y-103076613D01*
X148339512Y-103076614D01*
X148343575Y-103083651D01*
X148341471Y-103084865D01*
X148362230Y-103138541D01*
X148348200Y-103206987D01*
X148326343Y-103236555D01*
X148239510Y-103323387D01*
X148180202Y-103426112D01*
X148180201Y-103426114D01*
X148149500Y-103540691D01*
X78250000Y-103540691D01*
X78250000Y-99304731D01*
X84100000Y-99304731D01*
X84100000Y-100150000D01*
X85322769Y-100150000D01*
X85300000Y-100293753D01*
X85300000Y-100506247D01*
X85322769Y-100650000D01*
X84100000Y-100650000D01*
X84100000Y-101495268D01*
X84110215Y-101639958D01*
X84110217Y-101639968D01*
X84164313Y-101880165D01*
X84164315Y-101880172D01*
X84256244Y-102108585D01*
X84383620Y-102319289D01*
X84383627Y-102319299D01*
X84543153Y-102506846D01*
X84730700Y-102666372D01*
X84730710Y-102666379D01*
X84941414Y-102793755D01*
X85169827Y-102885684D01*
X85169834Y-102885686D01*
X85410031Y-102939782D01*
X85410041Y-102939784D01*
X85554731Y-102949999D01*
X85554734Y-102950000D01*
X86400000Y-102950000D01*
X86400000Y-101727231D01*
X86543753Y-101750000D01*
X86756247Y-101750000D01*
X86900000Y-101727231D01*
X86900000Y-102950000D01*
X87745266Y-102950000D01*
X87745268Y-102949999D01*
X87889958Y-102939784D01*
X87889968Y-102939782D01*
X88130165Y-102885686D01*
X88130172Y-102885684D01*
X88358585Y-102793755D01*
X88569289Y-102666379D01*
X88569299Y-102666372D01*
X88756846Y-102506846D01*
X88898176Y-102340691D01*
X144149500Y-102340691D01*
X144149500Y-102459309D01*
X144180201Y-102573886D01*
X144239511Y-102676613D01*
X144323387Y-102760489D01*
X144426114Y-102819799D01*
X144540691Y-102850500D01*
X144540694Y-102850500D01*
X144659306Y-102850500D01*
X144659309Y-102850500D01*
X144695916Y-102840691D01*
X145649500Y-102840691D01*
X145649500Y-102959309D01*
X145680201Y-103073886D01*
X145739511Y-103176613D01*
X145823387Y-103260489D01*
X145926114Y-103319799D01*
X146040691Y-103350500D01*
X146040694Y-103350500D01*
X146159306Y-103350500D01*
X146159309Y-103350500D01*
X146273886Y-103319799D01*
X146376613Y-103260489D01*
X146460489Y-103176613D01*
X146492613Y-103120972D01*
X146543180Y-103072757D01*
X146611787Y-103059535D01*
X146676652Y-103085503D01*
X146707386Y-103120972D01*
X146739511Y-103176613D01*
X146823387Y-103260489D01*
X146926114Y-103319799D01*
X147040691Y-103350500D01*
X147040694Y-103350500D01*
X147159306Y-103350500D01*
X147159309Y-103350500D01*
X147273886Y-103319799D01*
X147376613Y-103260489D01*
X147460489Y-103176613D01*
X147519799Y-103073886D01*
X147550500Y-102959309D01*
X147550500Y-102840691D01*
X147519799Y-102726114D01*
X147460489Y-102623387D01*
X147376613Y-102539511D01*
X147273886Y-102480201D01*
X147159309Y-102449500D01*
X147040691Y-102449500D01*
X146926114Y-102480201D01*
X146926112Y-102480201D01*
X146926112Y-102480202D01*
X146823387Y-102539511D01*
X146823384Y-102539513D01*
X146739513Y-102623384D01*
X146739511Y-102623387D01*
X146707387Y-102679027D01*
X146656819Y-102727242D01*
X146588212Y-102740464D01*
X146523347Y-102714496D01*
X146492613Y-102679027D01*
X146491219Y-102676612D01*
X146460489Y-102623387D01*
X146376613Y-102539511D01*
X146273886Y-102480201D01*
X146159309Y-102449500D01*
X146040691Y-102449500D01*
X145926114Y-102480201D01*
X145926112Y-102480201D01*
X145926112Y-102480202D01*
X145823387Y-102539511D01*
X145823384Y-102539513D01*
X145739513Y-102623384D01*
X145739511Y-102623387D01*
X145708780Y-102676615D01*
X145680201Y-102726114D01*
X145649500Y-102840691D01*
X144695916Y-102840691D01*
X144773886Y-102819799D01*
X144876613Y-102760489D01*
X144960489Y-102676613D01*
X145019799Y-102573886D01*
X145050500Y-102459309D01*
X145050500Y-102340691D01*
X145019799Y-102226114D01*
X144960489Y-102123387D01*
X144876613Y-102039511D01*
X144773886Y-101980201D01*
X144659309Y-101949500D01*
X144540691Y-101949500D01*
X144426114Y-101980201D01*
X144426112Y-101980201D01*
X144426112Y-101980202D01*
X144323387Y-102039511D01*
X144323384Y-102039513D01*
X144239513Y-102123384D01*
X144239511Y-102123387D01*
X144180201Y-102226114D01*
X144149500Y-102340691D01*
X88898176Y-102340691D01*
X88916372Y-102319299D01*
X88916379Y-102319289D01*
X88947135Y-102268414D01*
X89043755Y-102108585D01*
X89135684Y-101880172D01*
X89135686Y-101880165D01*
X89189782Y-101639968D01*
X89189784Y-101639958D01*
X89199999Y-101495268D01*
X89200000Y-101495266D01*
X89200000Y-100650000D01*
X87977231Y-100650000D01*
X88000000Y-100506247D01*
X88000000Y-100293753D01*
X87977231Y-100150000D01*
X89200000Y-100150000D01*
X89200000Y-99940691D01*
X144849500Y-99940691D01*
X144849500Y-100059309D01*
X144880201Y-100173886D01*
X144939511Y-100276613D01*
X145023387Y-100360489D01*
X145126114Y-100419799D01*
X145240691Y-100450500D01*
X145240694Y-100450500D01*
X145359306Y-100450500D01*
X145359309Y-100450500D01*
X145473886Y-100419799D01*
X145576613Y-100360489D01*
X145660489Y-100276613D01*
X145719799Y-100173886D01*
X145750500Y-100059309D01*
X145750500Y-99940691D01*
X145719799Y-99826114D01*
X145660489Y-99723387D01*
X145576613Y-99639511D01*
X145473886Y-99580201D01*
X145359309Y-99549500D01*
X145240691Y-99549500D01*
X145126114Y-99580201D01*
X145126112Y-99580201D01*
X145126112Y-99580202D01*
X145023387Y-99639511D01*
X145023384Y-99639513D01*
X144939513Y-99723384D01*
X144939511Y-99723387D01*
X144891233Y-99807007D01*
X144880201Y-99826114D01*
X144849500Y-99940691D01*
X89200000Y-99940691D01*
X89200000Y-99304734D01*
X89199999Y-99304731D01*
X89189784Y-99160041D01*
X89189783Y-99160037D01*
X89187839Y-99151402D01*
X89187839Y-99151400D01*
X89183075Y-99130247D01*
X150119500Y-99130247D01*
X150119500Y-100869752D01*
X150131131Y-100928229D01*
X150131132Y-100928230D01*
X150175447Y-100994552D01*
X150241769Y-101038867D01*
X150241770Y-101038868D01*
X150300247Y-101050499D01*
X150300250Y-101050500D01*
X150300252Y-101050500D01*
X152039750Y-101050500D01*
X152039751Y-101050499D01*
X152054568Y-101047552D01*
X152098229Y-101038868D01*
X152098229Y-101038867D01*
X152098231Y-101038867D01*
X152164552Y-100994552D01*
X152208867Y-100928231D01*
X152208867Y-100928229D01*
X152208868Y-100928229D01*
X152220499Y-100869752D01*
X152220500Y-100869750D01*
X152220500Y-99896530D01*
X152659500Y-99896530D01*
X152659500Y-100103469D01*
X152699868Y-100306412D01*
X152699870Y-100306420D01*
X152765939Y-100465925D01*
X152779059Y-100497598D01*
X152792836Y-100518217D01*
X152894024Y-100669657D01*
X153040342Y-100815975D01*
X153040345Y-100815977D01*
X153212402Y-100930941D01*
X153403580Y-101010130D01*
X153548052Y-101038867D01*
X153606530Y-101050499D01*
X153606534Y-101050500D01*
X153606535Y-101050500D01*
X153813466Y-101050500D01*
X153813467Y-101050499D01*
X154016420Y-101010130D01*
X154207598Y-100930941D01*
X154379655Y-100815977D01*
X154525977Y-100669655D01*
X154640941Y-100497598D01*
X154709165Y-100332889D01*
X154753004Y-100278488D01*
X154819298Y-100256423D01*
X154886998Y-100273702D01*
X154934609Y-100324839D01*
X154941656Y-100342026D01*
X154998904Y-100518216D01*
X155095375Y-100707550D01*
X155134728Y-100761716D01*
X155767037Y-100129408D01*
X155784075Y-100192993D01*
X155849901Y-100307007D01*
X155942993Y-100400099D01*
X156057007Y-100465925D01*
X156120590Y-100482962D01*
X155488282Y-101115269D01*
X155488282Y-101115270D01*
X155542449Y-101154624D01*
X155731782Y-101251095D01*
X155933870Y-101316757D01*
X156143754Y-101350000D01*
X156356246Y-101350000D01*
X156566127Y-101316757D01*
X156566130Y-101316757D01*
X156768217Y-101251095D01*
X156957554Y-101154622D01*
X157011716Y-101115270D01*
X157011717Y-101115270D01*
X156379408Y-100482962D01*
X156442993Y-100465925D01*
X156557007Y-100400099D01*
X156650099Y-100307007D01*
X156715925Y-100192993D01*
X156732962Y-100129408D01*
X157365270Y-100761717D01*
X157365270Y-100761716D01*
X157404622Y-100707554D01*
X157501095Y-100518217D01*
X157558343Y-100342026D01*
X157597780Y-100284351D01*
X157662139Y-100257152D01*
X157730985Y-100269066D01*
X157782461Y-100316310D01*
X157790835Y-100332891D01*
X157845939Y-100465925D01*
X157859059Y-100497598D01*
X157872836Y-100518217D01*
X157974024Y-100669657D01*
X158120342Y-100815975D01*
X158120345Y-100815977D01*
X158292402Y-100930941D01*
X158483580Y-101010130D01*
X158628052Y-101038867D01*
X158686530Y-101050499D01*
X158686534Y-101050500D01*
X158686535Y-101050500D01*
X158893466Y-101050500D01*
X158893467Y-101050499D01*
X159096420Y-101010130D01*
X159287598Y-100930941D01*
X159459655Y-100815977D01*
X159605977Y-100669655D01*
X159720941Y-100497598D01*
X159800130Y-100306420D01*
X159840500Y-100103465D01*
X159840500Y-99896535D01*
X159800130Y-99693580D01*
X159720941Y-99502402D01*
X159605977Y-99330345D01*
X159605975Y-99330342D01*
X159459657Y-99184024D01*
X159373626Y-99126541D01*
X159287598Y-99069059D01*
X159096420Y-98989870D01*
X159096412Y-98989868D01*
X158893469Y-98949500D01*
X158893465Y-98949500D01*
X158686535Y-98949500D01*
X158686530Y-98949500D01*
X158483587Y-98989868D01*
X158483579Y-98989870D01*
X158292403Y-99069058D01*
X158120342Y-99184024D01*
X157974024Y-99330342D01*
X157859057Y-99502403D01*
X157790835Y-99667108D01*
X157746994Y-99721511D01*
X157680700Y-99743576D01*
X157613000Y-99726297D01*
X157565390Y-99675159D01*
X157558343Y-99657973D01*
X157501095Y-99481782D01*
X157404624Y-99292449D01*
X157365270Y-99238282D01*
X157365269Y-99238282D01*
X156732962Y-99870590D01*
X156715925Y-99807007D01*
X156650099Y-99692993D01*
X156557007Y-99599901D01*
X156442993Y-99534075D01*
X156379409Y-99517037D01*
X157011716Y-98884728D01*
X156957550Y-98845375D01*
X156768217Y-98748904D01*
X156566129Y-98683242D01*
X156356246Y-98650000D01*
X156143754Y-98650000D01*
X155933872Y-98683242D01*
X155933869Y-98683242D01*
X155731782Y-98748904D01*
X155542439Y-98845380D01*
X155488282Y-98884727D01*
X155488282Y-98884728D01*
X156120591Y-99517037D01*
X156057007Y-99534075D01*
X155942993Y-99599901D01*
X155849901Y-99692993D01*
X155784075Y-99807007D01*
X155767037Y-99870591D01*
X155134728Y-99238282D01*
X155134727Y-99238282D01*
X155095380Y-99292439D01*
X154998905Y-99481781D01*
X154941656Y-99657974D01*
X154902218Y-99715649D01*
X154837859Y-99742847D01*
X154769013Y-99730932D01*
X154717537Y-99683688D01*
X154709164Y-99667107D01*
X154697734Y-99639513D01*
X154660450Y-99549500D01*
X154640943Y-99502405D01*
X154525975Y-99330342D01*
X154379657Y-99184024D01*
X154293626Y-99126541D01*
X154207598Y-99069059D01*
X154016420Y-98989870D01*
X154016412Y-98989868D01*
X153813469Y-98949500D01*
X153813465Y-98949500D01*
X153606535Y-98949500D01*
X153606530Y-98949500D01*
X153403587Y-98989868D01*
X153403579Y-98989870D01*
X153212403Y-99069058D01*
X153040342Y-99184024D01*
X152894024Y-99330342D01*
X152779058Y-99502403D01*
X152699870Y-99693579D01*
X152699868Y-99693587D01*
X152659500Y-99896530D01*
X152220500Y-99896530D01*
X152220500Y-99130249D01*
X152220499Y-99130247D01*
X152208868Y-99071770D01*
X152208867Y-99071769D01*
X152164552Y-99005447D01*
X152098230Y-98961132D01*
X152098229Y-98961131D01*
X152039752Y-98949500D01*
X152039748Y-98949500D01*
X150300252Y-98949500D01*
X150300247Y-98949500D01*
X150241770Y-98961131D01*
X150241769Y-98961132D01*
X150175447Y-99005447D01*
X150131132Y-99071769D01*
X150131131Y-99071770D01*
X150119500Y-99130247D01*
X89183075Y-99130247D01*
X89135685Y-98919831D01*
X89135684Y-98919827D01*
X89043755Y-98691414D01*
X88916379Y-98480710D01*
X88916372Y-98480700D01*
X88756846Y-98293153D01*
X88569299Y-98133627D01*
X88569289Y-98133620D01*
X88412241Y-98038681D01*
X88358584Y-98006244D01*
X88195707Y-97940691D01*
X109799500Y-97940691D01*
X109799500Y-98059309D01*
X109830201Y-98173886D01*
X109889511Y-98276613D01*
X109973387Y-98360489D01*
X110076114Y-98419799D01*
X110190691Y-98450500D01*
X110190694Y-98450500D01*
X110309306Y-98450500D01*
X110309309Y-98450500D01*
X110423886Y-98419799D01*
X110526613Y-98360489D01*
X110610489Y-98276613D01*
X110669799Y-98173886D01*
X110700500Y-98059309D01*
X110700500Y-97940691D01*
X112299500Y-97940691D01*
X112299500Y-98059309D01*
X112330201Y-98173886D01*
X112389511Y-98276613D01*
X112473387Y-98360489D01*
X112576114Y-98419799D01*
X112690691Y-98450500D01*
X112690694Y-98450500D01*
X112809306Y-98450500D01*
X112809309Y-98450500D01*
X112923886Y-98419799D01*
X113026613Y-98360489D01*
X113110489Y-98276613D01*
X113169799Y-98173886D01*
X113200500Y-98059309D01*
X113200500Y-97940691D01*
X114799500Y-97940691D01*
X114799500Y-98059309D01*
X114830201Y-98173886D01*
X114889511Y-98276613D01*
X114973387Y-98360489D01*
X115076114Y-98419799D01*
X115190691Y-98450500D01*
X115190694Y-98450500D01*
X115309306Y-98450500D01*
X115309309Y-98450500D01*
X115423886Y-98419799D01*
X115526613Y-98360489D01*
X115610489Y-98276613D01*
X115669799Y-98173886D01*
X115700500Y-98059309D01*
X115700500Y-97940691D01*
X117299500Y-97940691D01*
X117299500Y-98059309D01*
X117330201Y-98173886D01*
X117389511Y-98276613D01*
X117473387Y-98360489D01*
X117576114Y-98419799D01*
X117690691Y-98450500D01*
X117690694Y-98450500D01*
X117809306Y-98450500D01*
X117809309Y-98450500D01*
X117923886Y-98419799D01*
X118026613Y-98360489D01*
X118110489Y-98276613D01*
X118169799Y-98173886D01*
X118200500Y-98059309D01*
X118200500Y-97940691D01*
X119799500Y-97940691D01*
X119799500Y-98059309D01*
X119830201Y-98173886D01*
X119889511Y-98276613D01*
X119973387Y-98360489D01*
X120076114Y-98419799D01*
X120190691Y-98450500D01*
X120190694Y-98450500D01*
X120309306Y-98450500D01*
X120309309Y-98450500D01*
X120423886Y-98419799D01*
X120526613Y-98360489D01*
X120610489Y-98276613D01*
X120669799Y-98173886D01*
X120700500Y-98059309D01*
X120700500Y-98003963D01*
X122612772Y-98003963D01*
X122612772Y-98122581D01*
X122643473Y-98237158D01*
X122702783Y-98339885D01*
X122786659Y-98423761D01*
X122889386Y-98483071D01*
X123003963Y-98513772D01*
X123003966Y-98513772D01*
X123122578Y-98513772D01*
X123122581Y-98513772D01*
X123237158Y-98483071D01*
X123339885Y-98423761D01*
X123423761Y-98339885D01*
X123483071Y-98237158D01*
X123513772Y-98122581D01*
X123513772Y-98003963D01*
X125112772Y-98003963D01*
X125112772Y-98122581D01*
X125143473Y-98237158D01*
X125202783Y-98339885D01*
X125286659Y-98423761D01*
X125389386Y-98483071D01*
X125503963Y-98513772D01*
X125503966Y-98513772D01*
X125622578Y-98513772D01*
X125622581Y-98513772D01*
X125737158Y-98483071D01*
X125839885Y-98423761D01*
X125923761Y-98339885D01*
X125983071Y-98237158D01*
X126013772Y-98122581D01*
X126013772Y-98040691D01*
X129849500Y-98040691D01*
X129849500Y-98159309D01*
X129880201Y-98273886D01*
X129939511Y-98376613D01*
X130023387Y-98460489D01*
X130126114Y-98519799D01*
X130240691Y-98550500D01*
X130240694Y-98550500D01*
X130359306Y-98550500D01*
X130359309Y-98550500D01*
X130473886Y-98519799D01*
X130576613Y-98460489D01*
X130660489Y-98376613D01*
X130719799Y-98273886D01*
X130750500Y-98159309D01*
X130750500Y-98040691D01*
X130737102Y-97990691D01*
X132399500Y-97990691D01*
X132399500Y-98109309D01*
X132430201Y-98223886D01*
X132489511Y-98326613D01*
X132573387Y-98410489D01*
X132676114Y-98469799D01*
X132790691Y-98500500D01*
X132790694Y-98500500D01*
X132909306Y-98500500D01*
X132909309Y-98500500D01*
X133023886Y-98469799D01*
X133126613Y-98410489D01*
X133210489Y-98326613D01*
X133269799Y-98223886D01*
X133300500Y-98109309D01*
X133300500Y-97990691D01*
X134949500Y-97990691D01*
X134949500Y-98109309D01*
X134980201Y-98223886D01*
X135039511Y-98326613D01*
X135123387Y-98410489D01*
X135226114Y-98469799D01*
X135340691Y-98500500D01*
X135340694Y-98500500D01*
X135459306Y-98500500D01*
X135459309Y-98500500D01*
X135573886Y-98469799D01*
X135676613Y-98410489D01*
X135760489Y-98326613D01*
X135819799Y-98223886D01*
X135850500Y-98109309D01*
X135850500Y-97990691D01*
X137399500Y-97990691D01*
X137399500Y-98109309D01*
X137430201Y-98223886D01*
X137489511Y-98326613D01*
X137573387Y-98410489D01*
X137676114Y-98469799D01*
X137790691Y-98500500D01*
X137790694Y-98500500D01*
X137909306Y-98500500D01*
X137909309Y-98500500D01*
X138023886Y-98469799D01*
X138126613Y-98410489D01*
X138210489Y-98326613D01*
X138269799Y-98223886D01*
X138300500Y-98109309D01*
X138300500Y-97990691D01*
X138287102Y-97940691D01*
X139999500Y-97940691D01*
X139999500Y-98059309D01*
X140030201Y-98173886D01*
X140089511Y-98276613D01*
X140173387Y-98360489D01*
X140276114Y-98419799D01*
X140390691Y-98450500D01*
X140390694Y-98450500D01*
X140509306Y-98450500D01*
X140509309Y-98450500D01*
X140623886Y-98419799D01*
X140726613Y-98360489D01*
X140810489Y-98276613D01*
X140869799Y-98173886D01*
X140900500Y-98059309D01*
X140900500Y-97940691D01*
X142549500Y-97940691D01*
X142549500Y-98059309D01*
X142580201Y-98173886D01*
X142639511Y-98276613D01*
X142723387Y-98360489D01*
X142826114Y-98419799D01*
X142940691Y-98450500D01*
X142940694Y-98450500D01*
X143059306Y-98450500D01*
X143059309Y-98450500D01*
X143173886Y-98419799D01*
X143276613Y-98360489D01*
X143360489Y-98276613D01*
X143419799Y-98173886D01*
X143450500Y-98059309D01*
X143450500Y-97940691D01*
X143437102Y-97890691D01*
X145199500Y-97890691D01*
X145199500Y-98009309D01*
X145230201Y-98123886D01*
X145289511Y-98226613D01*
X145373387Y-98310489D01*
X145476114Y-98369799D01*
X145590691Y-98400500D01*
X145590694Y-98400500D01*
X145709306Y-98400500D01*
X145709309Y-98400500D01*
X145823886Y-98369799D01*
X145926613Y-98310489D01*
X146010489Y-98226613D01*
X146069799Y-98123886D01*
X146100500Y-98009309D01*
X146100500Y-97990691D01*
X147749500Y-97990691D01*
X147749500Y-98109309D01*
X147780201Y-98223886D01*
X147839511Y-98326613D01*
X147923387Y-98410489D01*
X148026114Y-98469799D01*
X148140691Y-98500500D01*
X148140694Y-98500500D01*
X148259306Y-98500500D01*
X148259309Y-98500500D01*
X148373886Y-98469799D01*
X148476613Y-98410489D01*
X148560489Y-98326613D01*
X148619799Y-98223886D01*
X148650500Y-98109309D01*
X148650500Y-97990691D01*
X148619799Y-97876114D01*
X148599347Y-97840691D01*
X149449500Y-97840691D01*
X149449500Y-97959309D01*
X149480201Y-98073886D01*
X149539511Y-98176613D01*
X149623387Y-98260489D01*
X149726114Y-98319799D01*
X149840691Y-98350500D01*
X149840694Y-98350500D01*
X149959306Y-98350500D01*
X149959309Y-98350500D01*
X150073886Y-98319799D01*
X150176613Y-98260489D01*
X150260489Y-98176613D01*
X150319799Y-98073886D01*
X150350500Y-97959309D01*
X150350500Y-97840691D01*
X156149500Y-97840691D01*
X156149500Y-97959309D01*
X156180201Y-98073886D01*
X156239511Y-98176613D01*
X156323387Y-98260489D01*
X156426114Y-98319799D01*
X156540691Y-98350500D01*
X156540694Y-98350500D01*
X156659306Y-98350500D01*
X156659309Y-98350500D01*
X156773886Y-98319799D01*
X156876613Y-98260489D01*
X156960489Y-98176613D01*
X157019799Y-98073886D01*
X157050500Y-97959309D01*
X157050500Y-97840691D01*
X157019799Y-97726114D01*
X156960489Y-97623387D01*
X156876613Y-97539511D01*
X156773886Y-97480201D01*
X156659309Y-97449500D01*
X156540691Y-97449500D01*
X156426114Y-97480201D01*
X156426112Y-97480201D01*
X156426112Y-97480202D01*
X156323387Y-97539511D01*
X156323384Y-97539513D01*
X156239513Y-97623384D01*
X156239511Y-97623387D01*
X156206709Y-97680202D01*
X156180201Y-97726114D01*
X156149500Y-97840691D01*
X150350500Y-97840691D01*
X150319799Y-97726114D01*
X150260489Y-97623387D01*
X150176613Y-97539511D01*
X150073886Y-97480201D01*
X149959309Y-97449500D01*
X149840691Y-97449500D01*
X149726114Y-97480201D01*
X149726112Y-97480201D01*
X149726112Y-97480202D01*
X149623387Y-97539511D01*
X149623384Y-97539513D01*
X149539513Y-97623384D01*
X149539511Y-97623387D01*
X149506709Y-97680202D01*
X149480201Y-97726114D01*
X149449500Y-97840691D01*
X148599347Y-97840691D01*
X148560489Y-97773387D01*
X148476613Y-97689511D01*
X148373886Y-97630201D01*
X148259309Y-97599500D01*
X148140691Y-97599500D01*
X148026114Y-97630201D01*
X148026112Y-97630201D01*
X148026112Y-97630202D01*
X147923387Y-97689511D01*
X147923384Y-97689513D01*
X147839513Y-97773384D01*
X147839511Y-97773387D01*
X147800652Y-97840693D01*
X147780201Y-97876114D01*
X147749500Y-97990691D01*
X146100500Y-97990691D01*
X146100500Y-97890691D01*
X146069799Y-97776114D01*
X146010489Y-97673387D01*
X145926613Y-97589511D01*
X145823886Y-97530201D01*
X145709309Y-97499500D01*
X145590691Y-97499500D01*
X145476114Y-97530201D01*
X145476112Y-97530201D01*
X145476112Y-97530202D01*
X145373387Y-97589511D01*
X145373384Y-97589513D01*
X145289513Y-97673384D01*
X145289511Y-97673387D01*
X145230201Y-97776114D01*
X145199500Y-97890691D01*
X143437102Y-97890691D01*
X143419799Y-97826114D01*
X143360489Y-97723387D01*
X143276613Y-97639511D01*
X143173886Y-97580201D01*
X143059309Y-97549500D01*
X142940691Y-97549500D01*
X142826114Y-97580201D01*
X142826112Y-97580201D01*
X142826112Y-97580202D01*
X142723387Y-97639511D01*
X142723384Y-97639513D01*
X142639513Y-97723384D01*
X142639511Y-97723387D01*
X142602981Y-97786659D01*
X142580201Y-97826114D01*
X142549500Y-97940691D01*
X140900500Y-97940691D01*
X140869799Y-97826114D01*
X140810489Y-97723387D01*
X140726613Y-97639511D01*
X140623886Y-97580201D01*
X140509309Y-97549500D01*
X140390691Y-97549500D01*
X140276114Y-97580201D01*
X140276112Y-97580201D01*
X140276112Y-97580202D01*
X140173387Y-97639511D01*
X140173384Y-97639513D01*
X140089513Y-97723384D01*
X140089511Y-97723387D01*
X140052981Y-97786659D01*
X140030201Y-97826114D01*
X139999500Y-97940691D01*
X138287102Y-97940691D01*
X138269799Y-97876114D01*
X138210489Y-97773387D01*
X138126613Y-97689511D01*
X138023886Y-97630201D01*
X137909309Y-97599500D01*
X137790691Y-97599500D01*
X137676114Y-97630201D01*
X137676112Y-97630201D01*
X137676112Y-97630202D01*
X137573387Y-97689511D01*
X137573384Y-97689513D01*
X137489513Y-97773384D01*
X137489511Y-97773387D01*
X137450652Y-97840693D01*
X137430201Y-97876114D01*
X137399500Y-97990691D01*
X135850500Y-97990691D01*
X135819799Y-97876114D01*
X135760489Y-97773387D01*
X135676613Y-97689511D01*
X135573886Y-97630201D01*
X135459309Y-97599500D01*
X135340691Y-97599500D01*
X135226114Y-97630201D01*
X135226112Y-97630201D01*
X135226112Y-97630202D01*
X135123387Y-97689511D01*
X135123384Y-97689513D01*
X135039513Y-97773384D01*
X135039511Y-97773387D01*
X135000652Y-97840693D01*
X134980201Y-97876114D01*
X134949500Y-97990691D01*
X133300500Y-97990691D01*
X133269799Y-97876114D01*
X133210489Y-97773387D01*
X133126613Y-97689511D01*
X133023886Y-97630201D01*
X132909309Y-97599500D01*
X132790691Y-97599500D01*
X132676114Y-97630201D01*
X132676112Y-97630201D01*
X132676112Y-97630202D01*
X132573387Y-97689511D01*
X132573384Y-97689513D01*
X132489513Y-97773384D01*
X132489511Y-97773387D01*
X132450652Y-97840693D01*
X132430201Y-97876114D01*
X132399500Y-97990691D01*
X130737102Y-97990691D01*
X130719799Y-97926114D01*
X130660489Y-97823387D01*
X130576613Y-97739511D01*
X130473886Y-97680201D01*
X130359309Y-97649500D01*
X130240691Y-97649500D01*
X130126114Y-97680201D01*
X130126112Y-97680201D01*
X130126112Y-97680202D01*
X130023387Y-97739511D01*
X130023384Y-97739513D01*
X129939513Y-97823384D01*
X129939511Y-97823387D01*
X129900652Y-97890693D01*
X129880201Y-97926114D01*
X129849500Y-98040691D01*
X126013772Y-98040691D01*
X126013772Y-98003963D01*
X125983071Y-97889386D01*
X125923761Y-97786659D01*
X125839885Y-97702783D01*
X125737158Y-97643473D01*
X125622581Y-97612772D01*
X125503963Y-97612772D01*
X125389386Y-97643473D01*
X125389384Y-97643473D01*
X125389384Y-97643474D01*
X125286659Y-97702783D01*
X125286656Y-97702785D01*
X125202785Y-97786656D01*
X125202783Y-97786659D01*
X125143773Y-97888867D01*
X125143473Y-97889386D01*
X125112772Y-98003963D01*
X123513772Y-98003963D01*
X123483071Y-97889386D01*
X123423761Y-97786659D01*
X123339885Y-97702783D01*
X123237158Y-97643473D01*
X123122581Y-97612772D01*
X123003963Y-97612772D01*
X122889386Y-97643473D01*
X122889384Y-97643473D01*
X122889384Y-97643474D01*
X122786659Y-97702783D01*
X122786656Y-97702785D01*
X122702785Y-97786656D01*
X122702783Y-97786659D01*
X122643773Y-97888867D01*
X122643473Y-97889386D01*
X122612772Y-98003963D01*
X120700500Y-98003963D01*
X120700500Y-97940691D01*
X120669799Y-97826114D01*
X120610489Y-97723387D01*
X120526613Y-97639511D01*
X120423886Y-97580201D01*
X120309309Y-97549500D01*
X120190691Y-97549500D01*
X120076114Y-97580201D01*
X120076112Y-97580201D01*
X120076112Y-97580202D01*
X119973387Y-97639511D01*
X119973384Y-97639513D01*
X119889513Y-97723384D01*
X119889511Y-97723387D01*
X119852981Y-97786659D01*
X119830201Y-97826114D01*
X119799500Y-97940691D01*
X118200500Y-97940691D01*
X118169799Y-97826114D01*
X118110489Y-97723387D01*
X118026613Y-97639511D01*
X117923886Y-97580201D01*
X117809309Y-97549500D01*
X117690691Y-97549500D01*
X117576114Y-97580201D01*
X117576112Y-97580201D01*
X117576112Y-97580202D01*
X117473387Y-97639511D01*
X117473384Y-97639513D01*
X117389513Y-97723384D01*
X117389511Y-97723387D01*
X117352981Y-97786659D01*
X117330201Y-97826114D01*
X117299500Y-97940691D01*
X115700500Y-97940691D01*
X115669799Y-97826114D01*
X115610489Y-97723387D01*
X115526613Y-97639511D01*
X115423886Y-97580201D01*
X115309309Y-97549500D01*
X115190691Y-97549500D01*
X115076114Y-97580201D01*
X115076112Y-97580201D01*
X115076112Y-97580202D01*
X114973387Y-97639511D01*
X114973384Y-97639513D01*
X114889513Y-97723384D01*
X114889511Y-97723387D01*
X114852981Y-97786659D01*
X114830201Y-97826114D01*
X114799500Y-97940691D01*
X113200500Y-97940691D01*
X113169799Y-97826114D01*
X113110489Y-97723387D01*
X113026613Y-97639511D01*
X112923886Y-97580201D01*
X112809309Y-97549500D01*
X112690691Y-97549500D01*
X112576114Y-97580201D01*
X112576112Y-97580201D01*
X112576112Y-97580202D01*
X112473387Y-97639511D01*
X112473384Y-97639513D01*
X112389513Y-97723384D01*
X112389511Y-97723387D01*
X112352981Y-97786659D01*
X112330201Y-97826114D01*
X112299500Y-97940691D01*
X110700500Y-97940691D01*
X110669799Y-97826114D01*
X110610489Y-97723387D01*
X110526613Y-97639511D01*
X110423886Y-97580201D01*
X110309309Y-97549500D01*
X110190691Y-97549500D01*
X110076114Y-97580201D01*
X110076112Y-97580201D01*
X110076112Y-97580202D01*
X109973387Y-97639511D01*
X109973384Y-97639513D01*
X109889513Y-97723384D01*
X109889511Y-97723387D01*
X109852981Y-97786659D01*
X109830201Y-97826114D01*
X109799500Y-97940691D01*
X88195707Y-97940691D01*
X88130172Y-97914315D01*
X88130165Y-97914313D01*
X87889968Y-97860217D01*
X87889958Y-97860215D01*
X87745268Y-97850000D01*
X86900000Y-97850000D01*
X86900000Y-99072768D01*
X86756247Y-99050000D01*
X86543753Y-99050000D01*
X86400000Y-99072768D01*
X86400000Y-97850000D01*
X85554731Y-97850000D01*
X85410041Y-97860215D01*
X85410031Y-97860217D01*
X85169834Y-97914313D01*
X85169827Y-97914315D01*
X84941414Y-98006244D01*
X84730710Y-98133620D01*
X84730700Y-98133627D01*
X84543153Y-98293153D01*
X84383627Y-98480700D01*
X84383620Y-98480710D01*
X84256244Y-98691414D01*
X84164315Y-98919827D01*
X84164313Y-98919834D01*
X84110217Y-99160031D01*
X84110215Y-99160041D01*
X84100000Y-99304731D01*
X78250000Y-99304731D01*
X78250000Y-96780247D01*
X79449500Y-96780247D01*
X79449500Y-97719752D01*
X79461131Y-97778229D01*
X79461132Y-97778230D01*
X79505447Y-97844552D01*
X79571769Y-97888867D01*
X79571770Y-97888868D01*
X79630247Y-97900499D01*
X79630250Y-97900500D01*
X79630252Y-97900500D01*
X81669750Y-97900500D01*
X81669751Y-97900499D01*
X81684568Y-97897552D01*
X81728229Y-97888868D01*
X81728229Y-97888867D01*
X81728231Y-97888867D01*
X81794552Y-97844552D01*
X81838867Y-97778231D01*
X81838867Y-97778229D01*
X81838868Y-97778229D01*
X81850499Y-97719752D01*
X81850500Y-97719750D01*
X81850500Y-96780249D01*
X81850499Y-96780247D01*
X81838868Y-96721770D01*
X81838867Y-96721769D01*
X81794552Y-96655447D01*
X81728230Y-96611132D01*
X81728229Y-96611131D01*
X81669752Y-96599500D01*
X81669748Y-96599500D01*
X79630252Y-96599500D01*
X79630247Y-96599500D01*
X79571770Y-96611131D01*
X79571769Y-96611132D01*
X79505447Y-96655447D01*
X79461132Y-96721769D01*
X79461131Y-96721770D01*
X79449500Y-96780247D01*
X78250000Y-96780247D01*
X78250000Y-93877973D01*
X101449500Y-93877973D01*
X101449500Y-94122027D01*
X101449795Y-94123887D01*
X101479349Y-94310488D01*
X101487679Y-94363076D01*
X101563096Y-94595185D01*
X101640741Y-94747573D01*
X101673896Y-94812642D01*
X101817339Y-95010076D01*
X101817343Y-95010081D01*
X101989918Y-95182656D01*
X101989923Y-95182660D01*
X102162136Y-95307779D01*
X102187361Y-95326106D01*
X102404815Y-95436904D01*
X102636924Y-95512321D01*
X102877973Y-95550500D01*
X102877974Y-95550500D01*
X103122026Y-95550500D01*
X103122027Y-95550500D01*
X103363076Y-95512321D01*
X103595185Y-95436904D01*
X103812639Y-95326106D01*
X104010083Y-95182655D01*
X104182655Y-95010083D01*
X104326106Y-94812639D01*
X104436904Y-94595185D01*
X104512321Y-94363076D01*
X104550500Y-94122027D01*
X104550500Y-93877973D01*
X104512321Y-93636924D01*
X104436904Y-93404815D01*
X104326106Y-93187361D01*
X104289750Y-93137321D01*
X104182660Y-92989923D01*
X104182656Y-92989918D01*
X104010081Y-92817343D01*
X104010076Y-92817339D01*
X103812642Y-92673896D01*
X103812641Y-92673895D01*
X103812639Y-92673894D01*
X103595185Y-92563096D01*
X103363076Y-92487679D01*
X103363074Y-92487678D01*
X103363072Y-92487678D01*
X103168243Y-92456820D01*
X103122027Y-92449500D01*
X102877973Y-92449500D01*
X102831757Y-92456820D01*
X102636927Y-92487678D01*
X102636924Y-92487679D01*
X102422386Y-92557387D01*
X102404812Y-92563097D01*
X102187357Y-92673896D01*
X101989923Y-92817339D01*
X101989918Y-92817343D01*
X101817343Y-92989918D01*
X101817339Y-92989923D01*
X101673896Y-93187357D01*
X101563097Y-93404812D01*
X101487678Y-93636927D01*
X101467012Y-93767406D01*
X101449500Y-93877973D01*
X78250000Y-93877973D01*
X78250000Y-91940691D01*
X112299500Y-91940691D01*
X112299500Y-92059309D01*
X112330201Y-92173886D01*
X112389511Y-92276613D01*
X112389513Y-92276615D01*
X112450217Y-92337319D01*
X112483702Y-92398642D01*
X112478718Y-92468334D01*
X112450217Y-92512681D01*
X112389513Y-92573384D01*
X112389511Y-92573387D01*
X112331482Y-92673896D01*
X112330201Y-92676114D01*
X112299500Y-92790691D01*
X112299500Y-92909309D01*
X112330201Y-93023886D01*
X112389511Y-93126613D01*
X112400219Y-93137321D01*
X112433702Y-93198646D01*
X112428715Y-93268337D01*
X112400219Y-93312679D01*
X112389511Y-93323386D01*
X112389511Y-93323387D01*
X112354787Y-93383531D01*
X112330201Y-93426114D01*
X112299500Y-93540691D01*
X112299500Y-93659309D01*
X112330201Y-93773886D01*
X112389511Y-93876613D01*
X112389512Y-93876614D01*
X112393575Y-93883651D01*
X112391824Y-93884661D01*
X112413095Y-93939689D01*
X112399053Y-94008133D01*
X112391822Y-94019384D01*
X112332561Y-94122027D01*
X112330201Y-94126114D01*
X112299500Y-94240691D01*
X112299500Y-94359309D01*
X112330201Y-94473886D01*
X112389511Y-94576613D01*
X112473387Y-94660489D01*
X112576114Y-94719799D01*
X112690691Y-94750500D01*
X112690694Y-94750500D01*
X112809306Y-94750500D01*
X112809309Y-94750500D01*
X112923886Y-94719799D01*
X113026613Y-94660489D01*
X113110489Y-94576613D01*
X113169799Y-94473886D01*
X113200500Y-94359309D01*
X113200500Y-94240691D01*
X113169799Y-94126114D01*
X113110489Y-94023387D01*
X113110487Y-94023385D01*
X113106425Y-94016349D01*
X113108177Y-94015337D01*
X113086906Y-93960329D01*
X113100938Y-93891883D01*
X113108167Y-93880632D01*
X113110485Y-93876616D01*
X113110489Y-93876613D01*
X113169799Y-93773886D01*
X113200500Y-93659309D01*
X113200500Y-93540691D01*
X113169799Y-93426114D01*
X113110489Y-93323387D01*
X113099783Y-93312681D01*
X113066298Y-93251358D01*
X113071282Y-93181666D01*
X113099783Y-93137319D01*
X113110489Y-93126613D01*
X113169799Y-93023886D01*
X113200500Y-92909309D01*
X113200500Y-92790691D01*
X113169799Y-92676114D01*
X113110489Y-92573387D01*
X113049783Y-92512681D01*
X113016298Y-92451358D01*
X113021282Y-92381666D01*
X113049783Y-92337319D01*
X113076616Y-92310486D01*
X113110489Y-92276613D01*
X113169799Y-92173886D01*
X113200500Y-92059309D01*
X113200500Y-91940691D01*
X113173705Y-91840691D01*
X119899500Y-91840691D01*
X119899500Y-91959309D01*
X119930201Y-92073886D01*
X119989511Y-92176613D01*
X120073387Y-92260489D01*
X120129027Y-92292613D01*
X120177242Y-92343181D01*
X120190464Y-92411788D01*
X120164496Y-92476653D01*
X120129027Y-92507387D01*
X120073387Y-92539511D01*
X120073384Y-92539513D01*
X119989513Y-92623384D01*
X119989511Y-92623387D01*
X119960351Y-92673894D01*
X119930201Y-92726114D01*
X119899500Y-92840691D01*
X119899500Y-92959309D01*
X119930201Y-93073886D01*
X119989511Y-93176613D01*
X120073387Y-93260489D01*
X120129027Y-93292613D01*
X120177242Y-93343181D01*
X120190464Y-93411788D01*
X120164496Y-93476653D01*
X120129027Y-93507387D01*
X120073387Y-93539511D01*
X120073384Y-93539513D01*
X119989513Y-93623384D01*
X119989511Y-93623387D01*
X119935557Y-93716838D01*
X119930201Y-93726114D01*
X119899500Y-93840691D01*
X119899500Y-93959309D01*
X119930201Y-94073886D01*
X119989511Y-94176613D01*
X120073387Y-94260489D01*
X120176114Y-94319799D01*
X120290691Y-94350500D01*
X120290694Y-94350500D01*
X120409306Y-94350500D01*
X120409309Y-94350500D01*
X120523886Y-94319799D01*
X120626613Y-94260489D01*
X120710489Y-94176613D01*
X120769799Y-94073886D01*
X120800500Y-93959309D01*
X120800500Y-93840691D01*
X120769799Y-93726114D01*
X120710489Y-93623387D01*
X120626613Y-93539511D01*
X120570972Y-93507386D01*
X120522757Y-93456820D01*
X120509535Y-93388213D01*
X120535503Y-93323348D01*
X120570973Y-93292613D01*
X120626613Y-93260489D01*
X120710489Y-93176613D01*
X120769799Y-93073886D01*
X120800500Y-92959309D01*
X120800500Y-92840691D01*
X120769799Y-92726114D01*
X120710489Y-92623387D01*
X120626613Y-92539511D01*
X120570972Y-92507386D01*
X120522757Y-92456820D01*
X120509535Y-92388213D01*
X120535503Y-92323348D01*
X120570973Y-92292613D01*
X120626613Y-92260489D01*
X120710489Y-92176613D01*
X120769799Y-92073886D01*
X120800500Y-91959309D01*
X120800500Y-91890691D01*
X122449500Y-91890691D01*
X122449500Y-92009309D01*
X122480201Y-92123886D01*
X122539511Y-92226613D01*
X122623387Y-92310489D01*
X122669858Y-92337319D01*
X122679027Y-92342613D01*
X122727242Y-92393181D01*
X122740464Y-92461788D01*
X122714496Y-92526653D01*
X122679027Y-92557387D01*
X122623387Y-92589511D01*
X122623384Y-92589513D01*
X122539513Y-92673384D01*
X122539511Y-92673387D01*
X122480201Y-92776114D01*
X122449500Y-92890691D01*
X122449500Y-93009309D01*
X122480201Y-93123886D01*
X122539511Y-93226613D01*
X122623387Y-93310489D01*
X122679027Y-93342613D01*
X122727242Y-93393181D01*
X122740464Y-93461788D01*
X122714496Y-93526653D01*
X122679027Y-93557387D01*
X122623387Y-93589511D01*
X122623384Y-93589513D01*
X122539513Y-93673384D01*
X122539511Y-93673387D01*
X122485229Y-93767406D01*
X122480201Y-93776114D01*
X122449500Y-93890691D01*
X122449500Y-94009309D01*
X122480201Y-94123886D01*
X122539511Y-94226613D01*
X122623387Y-94310489D01*
X122726114Y-94369799D01*
X122840691Y-94400500D01*
X122840694Y-94400500D01*
X122959306Y-94400500D01*
X122959309Y-94400500D01*
X123073886Y-94369799D01*
X123176613Y-94310489D01*
X123260489Y-94226613D01*
X123319799Y-94123886D01*
X123350500Y-94009309D01*
X123350500Y-93890691D01*
X123319799Y-93776114D01*
X123260489Y-93673387D01*
X123176613Y-93589511D01*
X123120972Y-93557386D01*
X123072757Y-93506820D01*
X123059535Y-93438213D01*
X123085503Y-93373348D01*
X123120973Y-93342613D01*
X123176613Y-93310489D01*
X123260489Y-93226613D01*
X123319799Y-93123886D01*
X123350500Y-93009309D01*
X123350500Y-92890691D01*
X123319799Y-92776114D01*
X123260489Y-92673387D01*
X123176613Y-92589511D01*
X123120972Y-92557386D01*
X123072757Y-92506820D01*
X123059535Y-92438213D01*
X123085503Y-92373348D01*
X123120973Y-92342613D01*
X123130142Y-92337319D01*
X123176613Y-92310489D01*
X123260489Y-92226613D01*
X123319799Y-92123886D01*
X123350500Y-92009309D01*
X123350500Y-91890691D01*
X124999500Y-91890691D01*
X124999500Y-92009309D01*
X125030201Y-92123886D01*
X125089511Y-92226613D01*
X125173387Y-92310489D01*
X125219858Y-92337319D01*
X125229027Y-92342613D01*
X125277242Y-92393181D01*
X125290464Y-92461788D01*
X125264496Y-92526653D01*
X125229027Y-92557387D01*
X125173387Y-92589511D01*
X125173384Y-92589513D01*
X125089513Y-92673384D01*
X125089511Y-92673387D01*
X125030201Y-92776114D01*
X124999500Y-92890691D01*
X124999500Y-93009309D01*
X125030201Y-93123886D01*
X125089511Y-93226613D01*
X125173387Y-93310489D01*
X125229027Y-93342613D01*
X125277242Y-93393181D01*
X125290464Y-93461788D01*
X125264496Y-93526653D01*
X125229027Y-93557387D01*
X125173387Y-93589511D01*
X125173384Y-93589513D01*
X125089513Y-93673384D01*
X125089511Y-93673387D01*
X125035229Y-93767406D01*
X125030201Y-93776114D01*
X124999500Y-93890691D01*
X124999500Y-94009309D01*
X125030201Y-94123886D01*
X125089511Y-94226613D01*
X125173387Y-94310489D01*
X125276114Y-94369799D01*
X125390691Y-94400500D01*
X125390694Y-94400500D01*
X125509306Y-94400500D01*
X125509309Y-94400500D01*
X125623886Y-94369799D01*
X125726613Y-94310489D01*
X125810489Y-94226613D01*
X125869799Y-94123886D01*
X125900500Y-94009309D01*
X125900500Y-93890691D01*
X125897092Y-93877973D01*
X151449500Y-93877973D01*
X151449500Y-94122027D01*
X151449795Y-94123887D01*
X151479349Y-94310488D01*
X151487679Y-94363076D01*
X151563096Y-94595185D01*
X151640741Y-94747573D01*
X151673896Y-94812642D01*
X151817339Y-95010076D01*
X151817343Y-95010081D01*
X151989918Y-95182656D01*
X151989923Y-95182660D01*
X152162136Y-95307779D01*
X152187361Y-95326106D01*
X152404815Y-95436904D01*
X152636924Y-95512321D01*
X152877973Y-95550500D01*
X152877974Y-95550500D01*
X153122026Y-95550500D01*
X153122027Y-95550500D01*
X153363076Y-95512321D01*
X153595185Y-95436904D01*
X153812639Y-95326106D01*
X154010083Y-95182655D01*
X154182655Y-95010083D01*
X154326106Y-94812639D01*
X154436904Y-94595185D01*
X154512321Y-94363076D01*
X154550500Y-94122027D01*
X154550500Y-93877973D01*
X154512321Y-93636924D01*
X154436904Y-93404815D01*
X154396798Y-93326103D01*
X154390165Y-93313084D01*
X154365622Y-93264916D01*
X158413258Y-93264916D01*
X158413258Y-93383534D01*
X158443959Y-93498111D01*
X158503269Y-93600838D01*
X158587145Y-93684714D01*
X158642785Y-93716838D01*
X158691000Y-93767406D01*
X158704222Y-93836013D01*
X158678254Y-93900878D01*
X158642785Y-93931612D01*
X158587145Y-93963736D01*
X158587142Y-93963738D01*
X158503271Y-94047609D01*
X158503269Y-94047612D01*
X158457947Y-94126112D01*
X158443959Y-94150339D01*
X158413258Y-94264916D01*
X158413258Y-94383534D01*
X158443959Y-94498111D01*
X158503269Y-94600838D01*
X158587145Y-94684714D01*
X158642785Y-94716838D01*
X158691000Y-94767406D01*
X158704222Y-94836013D01*
X158678254Y-94900878D01*
X158642785Y-94931612D01*
X158587145Y-94963736D01*
X158587142Y-94963738D01*
X158503271Y-95047609D01*
X158503269Y-95047612D01*
X158443959Y-95150339D01*
X158413258Y-95264916D01*
X158413258Y-95383534D01*
X158443959Y-95498111D01*
X158503269Y-95600838D01*
X158587145Y-95684714D01*
X158689872Y-95744024D01*
X158804449Y-95774725D01*
X158804452Y-95774725D01*
X158923064Y-95774725D01*
X158923067Y-95774725D01*
X159037644Y-95744024D01*
X159140371Y-95684714D01*
X159224247Y-95600838D01*
X159283557Y-95498111D01*
X159314258Y-95383534D01*
X159314258Y-95264916D01*
X159283557Y-95150339D01*
X159224247Y-95047612D01*
X159140371Y-94963736D01*
X159084730Y-94931611D01*
X159036515Y-94881045D01*
X159023293Y-94812438D01*
X159049261Y-94747573D01*
X159084731Y-94716838D01*
X159140371Y-94684714D01*
X159224247Y-94600838D01*
X159283557Y-94498111D01*
X159314258Y-94383534D01*
X159314258Y-94264916D01*
X159283557Y-94150339D01*
X159224247Y-94047612D01*
X159140371Y-93963736D01*
X159084730Y-93931611D01*
X159036515Y-93881045D01*
X159023293Y-93812438D01*
X159049261Y-93747573D01*
X159084731Y-93716838D01*
X159140371Y-93684714D01*
X159224247Y-93600838D01*
X159283557Y-93498111D01*
X159314258Y-93383534D01*
X159314258Y-93264916D01*
X159283557Y-93150339D01*
X159224247Y-93047612D01*
X159140371Y-92963736D01*
X159037644Y-92904426D01*
X158923067Y-92873725D01*
X158804449Y-92873725D01*
X158689872Y-92904426D01*
X158689870Y-92904426D01*
X158689870Y-92904427D01*
X158587145Y-92963736D01*
X158587142Y-92963738D01*
X158503271Y-93047609D01*
X158503269Y-93047612D01*
X158443959Y-93150339D01*
X158413258Y-93264916D01*
X154365622Y-93264916D01*
X154358714Y-93251358D01*
X154326106Y-93187361D01*
X154289750Y-93137321D01*
X154182660Y-92989923D01*
X154182656Y-92989918D01*
X154010081Y-92817343D01*
X154010076Y-92817339D01*
X153812642Y-92673896D01*
X153812641Y-92673895D01*
X153812639Y-92673894D01*
X153595185Y-92563096D01*
X153363076Y-92487679D01*
X153363074Y-92487678D01*
X153363072Y-92487678D01*
X153168243Y-92456820D01*
X153122027Y-92449500D01*
X152877973Y-92449500D01*
X152831757Y-92456820D01*
X152636927Y-92487678D01*
X152636924Y-92487679D01*
X152422386Y-92557387D01*
X152404812Y-92563097D01*
X152187357Y-92673896D01*
X151989923Y-92817339D01*
X151989918Y-92817343D01*
X151817343Y-92989918D01*
X151817339Y-92989923D01*
X151673896Y-93187357D01*
X151563097Y-93404812D01*
X151487678Y-93636927D01*
X151467012Y-93767406D01*
X151449500Y-93877973D01*
X125897092Y-93877973D01*
X125869799Y-93776114D01*
X125810489Y-93673387D01*
X125726613Y-93589511D01*
X125670972Y-93557386D01*
X125622757Y-93506820D01*
X125609535Y-93438213D01*
X125635503Y-93373348D01*
X125670973Y-93342613D01*
X125726613Y-93310489D01*
X125810489Y-93226613D01*
X125869799Y-93123886D01*
X125900500Y-93009309D01*
X125900500Y-92990691D01*
X142949500Y-92990691D01*
X142949500Y-93109309D01*
X142980201Y-93223886D01*
X143039511Y-93326613D01*
X143123387Y-93410489D01*
X143226114Y-93469799D01*
X143340691Y-93500500D01*
X143340694Y-93500500D01*
X143459306Y-93500500D01*
X143459309Y-93500500D01*
X143573886Y-93469799D01*
X143676613Y-93410489D01*
X143760489Y-93326613D01*
X143819799Y-93223886D01*
X143850500Y-93109309D01*
X143850500Y-92990691D01*
X143819799Y-92876114D01*
X143760489Y-92773387D01*
X143676613Y-92689511D01*
X143573886Y-92630201D01*
X143459309Y-92599500D01*
X143340691Y-92599500D01*
X143226114Y-92630201D01*
X143226112Y-92630201D01*
X143226112Y-92630202D01*
X143123387Y-92689511D01*
X143123384Y-92689513D01*
X143039513Y-92773384D01*
X143039511Y-92773387D01*
X143000652Y-92840693D01*
X142980201Y-92876114D01*
X142949500Y-92990691D01*
X125900500Y-92990691D01*
X125900500Y-92890691D01*
X125869799Y-92776114D01*
X125810489Y-92673387D01*
X125726613Y-92589511D01*
X125670972Y-92557386D01*
X125622757Y-92506820D01*
X125609535Y-92438213D01*
X125635503Y-92373348D01*
X125670973Y-92342613D01*
X125680142Y-92337319D01*
X125726613Y-92310489D01*
X125810489Y-92226613D01*
X125869799Y-92123886D01*
X125900500Y-92009309D01*
X125900500Y-91890691D01*
X125897092Y-91877973D01*
X172449500Y-91877973D01*
X172449500Y-92122027D01*
X172449795Y-92123887D01*
X172481386Y-92323348D01*
X172487679Y-92363076D01*
X172563096Y-92595185D01*
X172653894Y-92773387D01*
X172673896Y-92812642D01*
X172817339Y-93010076D01*
X172817343Y-93010081D01*
X172989918Y-93182656D01*
X172989923Y-93182660D01*
X173141262Y-93292613D01*
X173187361Y-93326106D01*
X173404815Y-93436904D01*
X173636924Y-93512321D01*
X173877973Y-93550500D01*
X173877974Y-93550500D01*
X174122026Y-93550500D01*
X174122027Y-93550500D01*
X174363076Y-93512321D01*
X174595185Y-93436904D01*
X174812639Y-93326106D01*
X175010083Y-93182655D01*
X175182655Y-93010083D01*
X175326106Y-92812639D01*
X175436904Y-92595185D01*
X175512321Y-92363076D01*
X175550500Y-92122027D01*
X175550500Y-91877973D01*
X175512321Y-91636924D01*
X175436904Y-91404815D01*
X175326106Y-91187361D01*
X175307779Y-91162136D01*
X175182660Y-90989923D01*
X175182656Y-90989918D01*
X175010081Y-90817343D01*
X175010076Y-90817339D01*
X174812642Y-90673896D01*
X174812641Y-90673895D01*
X174812639Y-90673894D01*
X174595185Y-90563096D01*
X174363076Y-90487679D01*
X174363074Y-90487678D01*
X174363072Y-90487678D01*
X174194769Y-90461021D01*
X174122027Y-90449500D01*
X173877973Y-90449500D01*
X173822093Y-90458350D01*
X173636927Y-90487678D01*
X173404812Y-90563097D01*
X173187357Y-90673896D01*
X172989923Y-90817339D01*
X172989918Y-90817343D01*
X172817343Y-90989918D01*
X172817339Y-90989923D01*
X172673896Y-91187357D01*
X172563097Y-91404812D01*
X172487678Y-91636927D01*
X172473552Y-91726114D01*
X172449500Y-91877973D01*
X125897092Y-91877973D01*
X125869799Y-91776114D01*
X125810489Y-91673387D01*
X125726613Y-91589511D01*
X125623886Y-91530201D01*
X125509309Y-91499500D01*
X125390691Y-91499500D01*
X125276114Y-91530201D01*
X125276112Y-91530201D01*
X125276112Y-91530202D01*
X125173387Y-91589511D01*
X125173384Y-91589513D01*
X125089513Y-91673384D01*
X125089511Y-91673387D01*
X125030201Y-91776114D01*
X124999500Y-91890691D01*
X123350500Y-91890691D01*
X123319799Y-91776114D01*
X123260489Y-91673387D01*
X123176613Y-91589511D01*
X123073886Y-91530201D01*
X122959309Y-91499500D01*
X122840691Y-91499500D01*
X122726114Y-91530201D01*
X122726112Y-91530201D01*
X122726112Y-91530202D01*
X122623387Y-91589511D01*
X122623384Y-91589513D01*
X122539513Y-91673384D01*
X122539511Y-91673387D01*
X122480201Y-91776114D01*
X122449500Y-91890691D01*
X120800500Y-91890691D01*
X120800500Y-91840691D01*
X120769799Y-91726114D01*
X120710489Y-91623387D01*
X120626613Y-91539511D01*
X120523886Y-91480201D01*
X120409309Y-91449500D01*
X120290691Y-91449500D01*
X120176114Y-91480201D01*
X120176112Y-91480201D01*
X120176112Y-91480202D01*
X120073387Y-91539511D01*
X120073384Y-91539513D01*
X119989513Y-91623384D01*
X119989511Y-91623387D01*
X119930201Y-91726114D01*
X119899500Y-91840691D01*
X113173705Y-91840691D01*
X113169799Y-91826114D01*
X113110489Y-91723387D01*
X113026613Y-91639511D01*
X112923886Y-91580201D01*
X112809309Y-91549500D01*
X112690691Y-91549500D01*
X112576114Y-91580201D01*
X112576112Y-91580201D01*
X112576112Y-91580202D01*
X112473387Y-91639511D01*
X112473384Y-91639513D01*
X112389513Y-91723384D01*
X112389511Y-91723387D01*
X112330201Y-91826114D01*
X112299500Y-91940691D01*
X78250000Y-91940691D01*
X78250000Y-91300000D01*
X168700000Y-91300000D01*
X170700000Y-91300000D01*
X170700000Y-89300000D01*
X168700000Y-89300000D01*
X168700000Y-91300000D01*
X78250000Y-91300000D01*
X78250000Y-90340691D01*
X166549500Y-90340691D01*
X166549500Y-90459309D01*
X166580201Y-90573886D01*
X166639511Y-90676613D01*
X166723387Y-90760489D01*
X166826114Y-90819799D01*
X166940691Y-90850500D01*
X166940694Y-90850500D01*
X167059306Y-90850500D01*
X167059309Y-90850500D01*
X167173886Y-90819799D01*
X167276613Y-90760489D01*
X167360489Y-90676613D01*
X167419799Y-90573886D01*
X167450500Y-90459309D01*
X167450500Y-90340691D01*
X167419799Y-90226114D01*
X167360489Y-90123387D01*
X167276613Y-90039511D01*
X167173886Y-89980201D01*
X167059309Y-89949500D01*
X166940691Y-89949500D01*
X166826114Y-89980201D01*
X166826112Y-89980201D01*
X166826112Y-89980202D01*
X166723387Y-90039511D01*
X166723384Y-90039513D01*
X166639513Y-90123384D01*
X166639511Y-90123387D01*
X166580201Y-90226114D01*
X166549500Y-90340691D01*
X78250000Y-90340691D01*
X78250000Y-88374000D01*
X78269685Y-88306961D01*
X78322489Y-88261206D01*
X78374000Y-88250000D01*
X84213849Y-88250000D01*
X84280888Y-88269685D01*
G37*
%TD.AperFunction*%
%TD*%
M02*
