%TF.GenerationSoftware,KiCad,Pcbnew,10.0.1*%
%TF.CreationDate,2026-04-20T20:28:20+02:00*%
%TF.ProjectId,MMS3_hat_stepper_controler,4d4d5333-5f68-4617-945f-737465707065,R0*%
%TF.SameCoordinates,Original*%
%TF.FileFunction,Legend,Top*%
%TF.FilePolarity,Positive*%
%FSLAX46Y46*%
G04 Gerber Fmt 4.6, Leading zero omitted, Abs format (unit mm)*
G04 Created by KiCad (PCBNEW 10.0.1) date 2026-04-20 20:28:20*
%MOMM*%
%LPD*%
G01*
G04 APERTURE LIST*
G04 Aperture macros list*
%AMRoundRect*
0 Rectangle with rounded corners*
0 $1 Rounding radius*
0 $2 $3 $4 $5 $6 $7 $8 $9 X,Y pos of 4 corners*
0 Add a 4 corners polygon primitive as box body*
4,1,4,$2,$3,$4,$5,$6,$7,$8,$9,$2,$3,0*
0 Add four circle primitives for the rounded corners*
1,1,$1+$1,$2,$3*
1,1,$1+$1,$4,$5*
1,1,$1+$1,$6,$7*
1,1,$1+$1,$8,$9*
0 Add four rect primitives between the rounded corners*
20,1,$1+$1,$2,$3,$4,$5,0*
20,1,$1+$1,$4,$5,$6,$7,0*
20,1,$1+$1,$6,$7,$8,$9,0*
20,1,$1+$1,$8,$9,$2,$3,0*%
%AMFreePoly0*
4,1,6,1.000000,0.000000,0.500000,-0.750000,-0.500000,-0.750000,-0.500000,0.750000,0.500000,0.750000,1.000000,0.000000,1.000000,0.000000,$1*%
%AMFreePoly1*
4,1,6,0.500000,-0.750000,-0.650000,-0.750000,-0.150000,0.000000,-0.650000,0.750000,0.500000,0.750000,0.500000,-0.750000,0.500000,-0.750000,$1*%
G04 Aperture macros list end*
%ADD10C,0.100000*%
%ADD11C,0.150000*%
%ADD12C,0.125000*%
%ADD13C,0.120000*%
%ADD14C,0.250000*%
%ADD15C,0.060000*%
%ADD16RoundRect,0.159000X0.189000X-0.159000X0.189000X0.159000X-0.189000X0.159000X-0.189000X-0.159000X0*%
%ADD17RoundRect,0.100000X-0.100000X0.637500X-0.100000X-0.637500X0.100000X-0.637500X0.100000X0.637500X0*%
%ADD18RoundRect,0.159000X0.159000X0.189000X-0.159000X0.189000X-0.159000X-0.189000X0.159000X-0.189000X0*%
%ADD19RoundRect,0.159000X-0.159000X-0.189000X0.159000X-0.189000X0.159000X0.189000X-0.159000X0.189000X0*%
%ADD20RoundRect,0.244000X-0.244000X-0.269000X0.244000X-0.269000X0.244000X0.269000X-0.244000X0.269000X0*%
%ADD21RoundRect,0.244000X0.244000X0.269000X-0.244000X0.269000X-0.244000X-0.269000X0.244000X-0.269000X0*%
%ADD22C,3.100000*%
%ADD23C,4.700000*%
%ADD24C,1.000000*%
%ADD25RoundRect,0.265778X-0.332222X-0.647222X0.332222X-0.647222X0.332222X0.647222X-0.332222X0.647222X0*%
%ADD26RoundRect,0.159000X-0.189000X0.159000X-0.189000X-0.159000X0.189000X-0.159000X0.189000X0.159000X0*%
%ADD27RoundRect,0.265778X0.647222X-0.332222X0.647222X0.332222X-0.647222X0.332222X-0.647222X-0.332222X0*%
%ADD28R,0.900000X2.000000*%
%ADD29RoundRect,1.025000X1.025000X1.025000X-1.025000X1.025000X-1.025000X-1.025000X1.025000X-1.025000X0*%
%ADD30C,4.100000*%
%ADD31RoundRect,0.250000X1.000000X-1.750000X1.000000X1.750000X-1.000000X1.750000X-1.000000X-1.750000X0*%
%ADD32R,1.000000X3.000000*%
%ADD33FreePoly0,0.000000*%
%ADD34FreePoly1,0.000000*%
%ADD35RoundRect,0.250000X2.450000X-1.200000X2.450000X1.200000X-2.450000X1.200000X-2.450000X-1.200000X0*%
%ADD36C,1.296000*%
%ADD37R,1.700000X1.700000*%
%ADD38C,1.700000*%
%ADD39O,1.950000X0.570000*%
%ADD40RoundRect,0.244000X0.269000X-0.244000X0.269000X0.244000X-0.269000X0.244000X-0.269000X-0.244000X0*%
%ADD41R,3.820000X3.030000*%
%ADD42RoundRect,0.250000X-0.550000X1.500000X-0.550000X-1.500000X0.550000X-1.500000X0.550000X1.500000X0*%
%ADD43R,3.030000X3.820000*%
%ADD44C,2.700000*%
%ADD45RoundRect,0.244000X-0.269000X0.244000X-0.269000X-0.244000X0.269000X-0.244000X0.269000X0.244000X0*%
%ADD46C,1.440000*%
%ADD47RoundRect,0.250000X0.550000X-0.550000X0.550000X0.550000X-0.550000X0.550000X-0.550000X-0.550000X0*%
%ADD48C,1.600000*%
%ADD49RoundRect,0.250000X-1.500000X-0.550000X1.500000X-0.550000X1.500000X0.550000X-1.500000X0.550000X0*%
%ADD50RoundRect,0.250000X-0.600000X-0.725000X0.600000X-0.725000X0.600000X0.725000X-0.600000X0.725000X0*%
%ADD51O,1.700000X1.950000*%
%ADD52RoundRect,0.266521X-0.346479X-0.671479X0.346479X-0.671479X0.346479X0.671479X-0.346479X0.671479X0*%
%ADD53RoundRect,0.250000X1.750000X1.000000X-1.750000X1.000000X-1.750000X-1.000000X1.750000X-1.000000X0*%
%ADD54RoundRect,0.075000X-0.075000X0.662500X-0.075000X-0.662500X0.075000X-0.662500X0.075000X0.662500X0*%
%ADD55RoundRect,0.075000X-0.662500X0.075000X-0.662500X-0.075000X0.662500X-0.075000X0.662500X0.075000X0*%
%ADD56R,5.000000X5.000000*%
%ADD57RoundRect,0.266521X0.671479X-0.346479X0.671479X0.346479X-0.671479X0.346479X-0.671479X-0.346479X0*%
%ADD58RoundRect,0.239000X0.274000X-0.239000X0.274000X0.239000X-0.274000X0.239000X-0.274000X-0.239000X0*%
%ADD59RoundRect,0.250000X-1.000000X-0.300000X1.000000X-0.300000X1.000000X0.300000X-1.000000X0.300000X0*%
%ADD60C,0.500000*%
%ADD61RoundRect,0.250000X-0.920000X-1.550000X0.920000X-1.550000X0.920000X1.550000X-0.920000X1.550000X0*%
%ADD62RoundRect,0.250000X-0.300000X2.050000X-0.300000X-2.050000X0.300000X-2.050000X0.300000X2.050000X0*%
%ADD63RoundRect,0.250002X-5.149998X4.449998X-5.149998X-4.449998X5.149998X-4.449998X5.149998X4.449998X0*%
%ADD64RoundRect,0.258261X1.029739X0.929739X-1.029739X0.929739X-1.029739X-0.929739X1.029739X-0.929739X0*%
G04 APERTURE END LIST*
D10*
X113782500Y-113065000D02*
X115600000Y-113065000D01*
X113782500Y-113065000D02*
X119600000Y-116100000D01*
X113800000Y-113100000D02*
X113800000Y-114500000D01*
X119600000Y-116100000D02*
X127700000Y-116900000D01*
X127700000Y-116900000D02*
X130200000Y-119700000D01*
X130200000Y-119700000D02*
X133500000Y-124200000D01*
X133500000Y-124200000D02*
X136300000Y-129700000D01*
X156300000Y-102000000D02*
X155800000Y-102600000D01*
X156300000Y-102000000D02*
X156300000Y-103800000D01*
X156300000Y-102000000D02*
X156700000Y-102600000D01*
D11*
X103151064Y-113870485D02*
X103189160Y-113832390D01*
X103189160Y-113832390D02*
X103265350Y-113794295D01*
X103265350Y-113794295D02*
X103455826Y-113794295D01*
X103455826Y-113794295D02*
X103532017Y-113832390D01*
X103532017Y-113832390D02*
X103570112Y-113870485D01*
X103570112Y-113870485D02*
X103608207Y-113946676D01*
X103608207Y-113946676D02*
X103608207Y-114022866D01*
X103608207Y-114022866D02*
X103570112Y-114137152D01*
X103570112Y-114137152D02*
X103112969Y-114594295D01*
X103112969Y-114594295D02*
X103608207Y-114594295D01*
X104293922Y-114060961D02*
X104293922Y-114594295D01*
X104103446Y-113756200D02*
X103912969Y-114327628D01*
X103912969Y-114327628D02*
X104408208Y-114327628D01*
X106351065Y-114594295D02*
X105893922Y-114594295D01*
X106122494Y-114594295D02*
X106122494Y-113794295D01*
X106122494Y-113794295D02*
X106046303Y-113908580D01*
X106046303Y-113908580D02*
X105970113Y-113984771D01*
X105970113Y-113984771D02*
X105893922Y-114022866D01*
X106655827Y-113870485D02*
X106693923Y-113832390D01*
X106693923Y-113832390D02*
X106770113Y-113794295D01*
X106770113Y-113794295D02*
X106960589Y-113794295D01*
X106960589Y-113794295D02*
X107036780Y-113832390D01*
X107036780Y-113832390D02*
X107074875Y-113870485D01*
X107074875Y-113870485D02*
X107112970Y-113946676D01*
X107112970Y-113946676D02*
X107112970Y-114022866D01*
X107112970Y-114022866D02*
X107074875Y-114137152D01*
X107074875Y-114137152D02*
X106617732Y-114594295D01*
X106617732Y-114594295D02*
X107112970Y-114594295D01*
X108712971Y-114594295D02*
X108865352Y-114594295D01*
X108865352Y-114594295D02*
X108941542Y-114556200D01*
X108941542Y-114556200D02*
X108979638Y-114518104D01*
X108979638Y-114518104D02*
X109055828Y-114403819D01*
X109055828Y-114403819D02*
X109093923Y-114251438D01*
X109093923Y-114251438D02*
X109093923Y-113946676D01*
X109093923Y-113946676D02*
X109055828Y-113870485D01*
X109055828Y-113870485D02*
X109017733Y-113832390D01*
X109017733Y-113832390D02*
X108941542Y-113794295D01*
X108941542Y-113794295D02*
X108789161Y-113794295D01*
X108789161Y-113794295D02*
X108712971Y-113832390D01*
X108712971Y-113832390D02*
X108674876Y-113870485D01*
X108674876Y-113870485D02*
X108636780Y-113946676D01*
X108636780Y-113946676D02*
X108636780Y-114137152D01*
X108636780Y-114137152D02*
X108674876Y-114213342D01*
X108674876Y-114213342D02*
X108712971Y-114251438D01*
X108712971Y-114251438D02*
X108789161Y-114289533D01*
X108789161Y-114289533D02*
X108941542Y-114289533D01*
X108941542Y-114289533D02*
X109017733Y-114251438D01*
X109017733Y-114251438D02*
X109055828Y-114213342D01*
X109055828Y-114213342D02*
X109093923Y-114137152D01*
X110998686Y-113794295D02*
X110846305Y-113794295D01*
X110846305Y-113794295D02*
X110770114Y-113832390D01*
X110770114Y-113832390D02*
X110732019Y-113870485D01*
X110732019Y-113870485D02*
X110655829Y-113984771D01*
X110655829Y-113984771D02*
X110617733Y-114137152D01*
X110617733Y-114137152D02*
X110617733Y-114441914D01*
X110617733Y-114441914D02*
X110655829Y-114518104D01*
X110655829Y-114518104D02*
X110693924Y-114556200D01*
X110693924Y-114556200D02*
X110770114Y-114594295D01*
X110770114Y-114594295D02*
X110922495Y-114594295D01*
X110922495Y-114594295D02*
X110998686Y-114556200D01*
X110998686Y-114556200D02*
X111036781Y-114518104D01*
X111036781Y-114518104D02*
X111074876Y-114441914D01*
X111074876Y-114441914D02*
X111074876Y-114251438D01*
X111074876Y-114251438D02*
X111036781Y-114175247D01*
X111036781Y-114175247D02*
X110998686Y-114137152D01*
X110998686Y-114137152D02*
X110922495Y-114099057D01*
X110922495Y-114099057D02*
X110770114Y-114099057D01*
X110770114Y-114099057D02*
X110693924Y-114137152D01*
X110693924Y-114137152D02*
X110655829Y-114175247D01*
X110655829Y-114175247D02*
X110617733Y-114251438D01*
X111417734Y-114518104D02*
X111455829Y-114556200D01*
X111455829Y-114556200D02*
X111417734Y-114594295D01*
X111417734Y-114594295D02*
X111379638Y-114556200D01*
X111379638Y-114556200D02*
X111417734Y-114518104D01*
X111417734Y-114518104D02*
X111417734Y-114594295D01*
X111760590Y-113870485D02*
X111798686Y-113832390D01*
X111798686Y-113832390D02*
X111874876Y-113794295D01*
X111874876Y-113794295D02*
X112065352Y-113794295D01*
X112065352Y-113794295D02*
X112141543Y-113832390D01*
X112141543Y-113832390D02*
X112179638Y-113870485D01*
X112179638Y-113870485D02*
X112217733Y-113946676D01*
X112217733Y-113946676D02*
X112217733Y-114022866D01*
X112217733Y-114022866D02*
X112179638Y-114137152D01*
X112179638Y-114137152D02*
X111722495Y-114594295D01*
X111722495Y-114594295D02*
X112217733Y-114594295D01*
D12*
X131733333Y-131846175D02*
X131733333Y-130846175D01*
X131733333Y-130846175D02*
X131971428Y-130846175D01*
X131971428Y-130846175D02*
X132114285Y-130893794D01*
X132114285Y-130893794D02*
X132209523Y-130989032D01*
X132209523Y-130989032D02*
X132257142Y-131084270D01*
X132257142Y-131084270D02*
X132304761Y-131274746D01*
X132304761Y-131274746D02*
X132304761Y-131417603D01*
X132304761Y-131417603D02*
X132257142Y-131608079D01*
X132257142Y-131608079D02*
X132209523Y-131703317D01*
X132209523Y-131703317D02*
X132114285Y-131798556D01*
X132114285Y-131798556D02*
X131971428Y-131846175D01*
X131971428Y-131846175D02*
X131733333Y-131846175D01*
X132923809Y-130846175D02*
X133114285Y-130846175D01*
X133114285Y-130846175D02*
X133209523Y-130893794D01*
X133209523Y-130893794D02*
X133304761Y-130989032D01*
X133304761Y-130989032D02*
X133352380Y-131179508D01*
X133352380Y-131179508D02*
X133352380Y-131512841D01*
X133352380Y-131512841D02*
X133304761Y-131703317D01*
X133304761Y-131703317D02*
X133209523Y-131798556D01*
X133209523Y-131798556D02*
X133114285Y-131846175D01*
X133114285Y-131846175D02*
X132923809Y-131846175D01*
X132923809Y-131846175D02*
X132828571Y-131798556D01*
X132828571Y-131798556D02*
X132733333Y-131703317D01*
X132733333Y-131703317D02*
X132685714Y-131512841D01*
X132685714Y-131512841D02*
X132685714Y-131179508D01*
X132685714Y-131179508D02*
X132733333Y-130989032D01*
X132733333Y-130989032D02*
X132828571Y-130893794D01*
X132828571Y-130893794D02*
X132923809Y-130846175D01*
X134542857Y-131846175D02*
X134542857Y-130846175D01*
X134542857Y-130846175D02*
X135114285Y-131846175D01*
X135114285Y-131846175D02*
X135114285Y-130846175D01*
X135780952Y-130846175D02*
X135971428Y-130846175D01*
X135971428Y-130846175D02*
X136066666Y-130893794D01*
X136066666Y-130893794D02*
X136161904Y-130989032D01*
X136161904Y-130989032D02*
X136209523Y-131179508D01*
X136209523Y-131179508D02*
X136209523Y-131512841D01*
X136209523Y-131512841D02*
X136161904Y-131703317D01*
X136161904Y-131703317D02*
X136066666Y-131798556D01*
X136066666Y-131798556D02*
X135971428Y-131846175D01*
X135971428Y-131846175D02*
X135780952Y-131846175D01*
X135780952Y-131846175D02*
X135685714Y-131798556D01*
X135685714Y-131798556D02*
X135590476Y-131703317D01*
X135590476Y-131703317D02*
X135542857Y-131512841D01*
X135542857Y-131512841D02*
X135542857Y-131179508D01*
X135542857Y-131179508D02*
X135590476Y-130989032D01*
X135590476Y-130989032D02*
X135685714Y-130893794D01*
X135685714Y-130893794D02*
X135780952Y-130846175D01*
X136495238Y-130846175D02*
X137066666Y-130846175D01*
X136780952Y-131846175D02*
X136780952Y-130846175D01*
X138114286Y-131798556D02*
X138257143Y-131846175D01*
X138257143Y-131846175D02*
X138495238Y-131846175D01*
X138495238Y-131846175D02*
X138590476Y-131798556D01*
X138590476Y-131798556D02*
X138638095Y-131750936D01*
X138638095Y-131750936D02*
X138685714Y-131655698D01*
X138685714Y-131655698D02*
X138685714Y-131560460D01*
X138685714Y-131560460D02*
X138638095Y-131465222D01*
X138638095Y-131465222D02*
X138590476Y-131417603D01*
X138590476Y-131417603D02*
X138495238Y-131369984D01*
X138495238Y-131369984D02*
X138304762Y-131322365D01*
X138304762Y-131322365D02*
X138209524Y-131274746D01*
X138209524Y-131274746D02*
X138161905Y-131227127D01*
X138161905Y-131227127D02*
X138114286Y-131131889D01*
X138114286Y-131131889D02*
X138114286Y-131036651D01*
X138114286Y-131036651D02*
X138161905Y-130941413D01*
X138161905Y-130941413D02*
X138209524Y-130893794D01*
X138209524Y-130893794D02*
X138304762Y-130846175D01*
X138304762Y-130846175D02*
X138542857Y-130846175D01*
X138542857Y-130846175D02*
X138685714Y-130893794D01*
X139019048Y-130846175D02*
X139257143Y-131846175D01*
X139257143Y-131846175D02*
X139447619Y-131131889D01*
X139447619Y-131131889D02*
X139638095Y-131846175D01*
X139638095Y-131846175D02*
X139876191Y-130846175D01*
X140257143Y-131846175D02*
X140257143Y-130846175D01*
X140590476Y-130846175D02*
X141161904Y-130846175D01*
X140876190Y-131846175D02*
X140876190Y-130846175D01*
X142066666Y-131750936D02*
X142019047Y-131798556D01*
X142019047Y-131798556D02*
X141876190Y-131846175D01*
X141876190Y-131846175D02*
X141780952Y-131846175D01*
X141780952Y-131846175D02*
X141638095Y-131798556D01*
X141638095Y-131798556D02*
X141542857Y-131703317D01*
X141542857Y-131703317D02*
X141495238Y-131608079D01*
X141495238Y-131608079D02*
X141447619Y-131417603D01*
X141447619Y-131417603D02*
X141447619Y-131274746D01*
X141447619Y-131274746D02*
X141495238Y-131084270D01*
X141495238Y-131084270D02*
X141542857Y-130989032D01*
X141542857Y-130989032D02*
X141638095Y-130893794D01*
X141638095Y-130893794D02*
X141780952Y-130846175D01*
X141780952Y-130846175D02*
X141876190Y-130846175D01*
X141876190Y-130846175D02*
X142019047Y-130893794D01*
X142019047Y-130893794D02*
X142066666Y-130941413D01*
X142495238Y-131846175D02*
X142495238Y-130846175D01*
X142495238Y-131322365D02*
X143066666Y-131322365D01*
X143066666Y-131846175D02*
X143066666Y-130846175D01*
X133590476Y-133408500D02*
X133733333Y-133456119D01*
X133733333Y-133456119D02*
X133971428Y-133456119D01*
X133971428Y-133456119D02*
X134066666Y-133408500D01*
X134066666Y-133408500D02*
X134114285Y-133360880D01*
X134114285Y-133360880D02*
X134161904Y-133265642D01*
X134161904Y-133265642D02*
X134161904Y-133170404D01*
X134161904Y-133170404D02*
X134114285Y-133075166D01*
X134114285Y-133075166D02*
X134066666Y-133027547D01*
X134066666Y-133027547D02*
X133971428Y-132979928D01*
X133971428Y-132979928D02*
X133780952Y-132932309D01*
X133780952Y-132932309D02*
X133685714Y-132884690D01*
X133685714Y-132884690D02*
X133638095Y-132837071D01*
X133638095Y-132837071D02*
X133590476Y-132741833D01*
X133590476Y-132741833D02*
X133590476Y-132646595D01*
X133590476Y-132646595D02*
X133638095Y-132551357D01*
X133638095Y-132551357D02*
X133685714Y-132503738D01*
X133685714Y-132503738D02*
X133780952Y-132456119D01*
X133780952Y-132456119D02*
X134019047Y-132456119D01*
X134019047Y-132456119D02*
X134161904Y-132503738D01*
X134495238Y-132456119D02*
X134733333Y-133456119D01*
X134733333Y-133456119D02*
X134923809Y-132741833D01*
X134923809Y-132741833D02*
X135114285Y-133456119D01*
X135114285Y-133456119D02*
X135352381Y-132456119D01*
X136257142Y-133456119D02*
X135685714Y-133456119D01*
X135971428Y-133456119D02*
X135971428Y-132456119D01*
X135971428Y-132456119D02*
X135876190Y-132598976D01*
X135876190Y-132598976D02*
X135780952Y-132694214D01*
X135780952Y-132694214D02*
X135685714Y-132741833D01*
X137352381Y-132456119D02*
X137590476Y-133456119D01*
X137590476Y-133456119D02*
X137780952Y-132741833D01*
X137780952Y-132741833D02*
X137971428Y-133456119D01*
X137971428Y-133456119D02*
X138209524Y-132456119D01*
X138590476Y-133456119D02*
X138590476Y-132456119D01*
X138923809Y-132456119D02*
X139495237Y-132456119D01*
X139209523Y-133456119D02*
X139209523Y-132456119D01*
X139828571Y-133456119D02*
X139828571Y-132456119D01*
X139828571Y-132932309D02*
X140399999Y-132932309D01*
X140399999Y-133456119D02*
X140399999Y-132456119D01*
X133661905Y-135066063D02*
X133661905Y-134066063D01*
X133661905Y-134066063D02*
X134042857Y-134066063D01*
X134042857Y-134066063D02*
X134138095Y-134113682D01*
X134138095Y-134113682D02*
X134185714Y-134161301D01*
X134185714Y-134161301D02*
X134233333Y-134256539D01*
X134233333Y-134256539D02*
X134233333Y-134399396D01*
X134233333Y-134399396D02*
X134185714Y-134494634D01*
X134185714Y-134494634D02*
X134138095Y-134542253D01*
X134138095Y-134542253D02*
X134042857Y-134589872D01*
X134042857Y-134589872D02*
X133661905Y-134589872D01*
X134852381Y-134066063D02*
X135042857Y-134066063D01*
X135042857Y-134066063D02*
X135138095Y-134113682D01*
X135138095Y-134113682D02*
X135233333Y-134208920D01*
X135233333Y-134208920D02*
X135280952Y-134399396D01*
X135280952Y-134399396D02*
X135280952Y-134732729D01*
X135280952Y-134732729D02*
X135233333Y-134923205D01*
X135233333Y-134923205D02*
X135138095Y-135018444D01*
X135138095Y-135018444D02*
X135042857Y-135066063D01*
X135042857Y-135066063D02*
X134852381Y-135066063D01*
X134852381Y-135066063D02*
X134757143Y-135018444D01*
X134757143Y-135018444D02*
X134661905Y-134923205D01*
X134661905Y-134923205D02*
X134614286Y-134732729D01*
X134614286Y-134732729D02*
X134614286Y-134399396D01*
X134614286Y-134399396D02*
X134661905Y-134208920D01*
X134661905Y-134208920D02*
X134757143Y-134113682D01*
X134757143Y-134113682D02*
X134852381Y-134066063D01*
X135614286Y-134066063D02*
X135852381Y-135066063D01*
X135852381Y-135066063D02*
X136042857Y-134351777D01*
X136042857Y-134351777D02*
X136233333Y-135066063D01*
X136233333Y-135066063D02*
X136471429Y-134066063D01*
X136852381Y-134542253D02*
X137185714Y-134542253D01*
X137328571Y-135066063D02*
X136852381Y-135066063D01*
X136852381Y-135066063D02*
X136852381Y-134066063D01*
X136852381Y-134066063D02*
X137328571Y-134066063D01*
X138328571Y-135066063D02*
X137995238Y-134589872D01*
X137757143Y-135066063D02*
X137757143Y-134066063D01*
X137757143Y-134066063D02*
X138138095Y-134066063D01*
X138138095Y-134066063D02*
X138233333Y-134113682D01*
X138233333Y-134113682D02*
X138280952Y-134161301D01*
X138280952Y-134161301D02*
X138328571Y-134256539D01*
X138328571Y-134256539D02*
X138328571Y-134399396D01*
X138328571Y-134399396D02*
X138280952Y-134494634D01*
X138280952Y-134494634D02*
X138233333Y-134542253D01*
X138233333Y-134542253D02*
X138138095Y-134589872D01*
X138138095Y-134589872D02*
X137757143Y-134589872D01*
X139709524Y-134066063D02*
X139900000Y-134066063D01*
X139900000Y-134066063D02*
X139995238Y-134113682D01*
X139995238Y-134113682D02*
X140090476Y-134208920D01*
X140090476Y-134208920D02*
X140138095Y-134399396D01*
X140138095Y-134399396D02*
X140138095Y-134732729D01*
X140138095Y-134732729D02*
X140090476Y-134923205D01*
X140090476Y-134923205D02*
X139995238Y-135018444D01*
X139995238Y-135018444D02*
X139900000Y-135066063D01*
X139900000Y-135066063D02*
X139709524Y-135066063D01*
X139709524Y-135066063D02*
X139614286Y-135018444D01*
X139614286Y-135018444D02*
X139519048Y-134923205D01*
X139519048Y-134923205D02*
X139471429Y-134732729D01*
X139471429Y-134732729D02*
X139471429Y-134399396D01*
X139471429Y-134399396D02*
X139519048Y-134208920D01*
X139519048Y-134208920D02*
X139614286Y-134113682D01*
X139614286Y-134113682D02*
X139709524Y-134066063D01*
X140566667Y-135066063D02*
X140566667Y-134066063D01*
X140566667Y-134066063D02*
X141138095Y-135066063D01*
X141138095Y-135066063D02*
X141138095Y-134066063D01*
D11*
X155738095Y-104202438D02*
X155642857Y-104154819D01*
X155642857Y-104154819D02*
X155500000Y-104154819D01*
X155500000Y-104154819D02*
X155357143Y-104202438D01*
X155357143Y-104202438D02*
X155261905Y-104297676D01*
X155261905Y-104297676D02*
X155214286Y-104392914D01*
X155214286Y-104392914D02*
X155166667Y-104583390D01*
X155166667Y-104583390D02*
X155166667Y-104726247D01*
X155166667Y-104726247D02*
X155214286Y-104916723D01*
X155214286Y-104916723D02*
X155261905Y-105011961D01*
X155261905Y-105011961D02*
X155357143Y-105107200D01*
X155357143Y-105107200D02*
X155500000Y-105154819D01*
X155500000Y-105154819D02*
X155595238Y-105154819D01*
X155595238Y-105154819D02*
X155738095Y-105107200D01*
X155738095Y-105107200D02*
X155785714Y-105059580D01*
X155785714Y-105059580D02*
X155785714Y-104726247D01*
X155785714Y-104726247D02*
X155595238Y-104726247D01*
X156214286Y-105154819D02*
X156214286Y-104154819D01*
X156214286Y-104154819D02*
X156785714Y-105154819D01*
X156785714Y-105154819D02*
X156785714Y-104154819D01*
X157261905Y-105154819D02*
X157261905Y-104154819D01*
X157261905Y-104154819D02*
X157500000Y-104154819D01*
X157500000Y-104154819D02*
X157642857Y-104202438D01*
X157642857Y-104202438D02*
X157738095Y-104297676D01*
X157738095Y-104297676D02*
X157785714Y-104392914D01*
X157785714Y-104392914D02*
X157833333Y-104583390D01*
X157833333Y-104583390D02*
X157833333Y-104726247D01*
X157833333Y-104726247D02*
X157785714Y-104916723D01*
X157785714Y-104916723D02*
X157738095Y-105011961D01*
X157738095Y-105011961D02*
X157642857Y-105107200D01*
X157642857Y-105107200D02*
X157500000Y-105154819D01*
X157500000Y-105154819D02*
X157261905Y-105154819D01*
X146431009Y-129804761D02*
X146478628Y-129661904D01*
X146478628Y-129661904D02*
X146526247Y-129614285D01*
X146526247Y-129614285D02*
X146621485Y-129566666D01*
X146621485Y-129566666D02*
X146764342Y-129566666D01*
X146764342Y-129566666D02*
X146859580Y-129614285D01*
X146859580Y-129614285D02*
X146907200Y-129661904D01*
X146907200Y-129661904D02*
X146954819Y-129757142D01*
X146954819Y-129757142D02*
X146954819Y-130138094D01*
X146954819Y-130138094D02*
X145954819Y-130138094D01*
X145954819Y-130138094D02*
X145954819Y-129804761D01*
X145954819Y-129804761D02*
X146002438Y-129709523D01*
X146002438Y-129709523D02*
X146050057Y-129661904D01*
X146050057Y-129661904D02*
X146145295Y-129614285D01*
X146145295Y-129614285D02*
X146240533Y-129614285D01*
X146240533Y-129614285D02*
X146335771Y-129661904D01*
X146335771Y-129661904D02*
X146383390Y-129709523D01*
X146383390Y-129709523D02*
X146431009Y-129804761D01*
X146431009Y-129804761D02*
X146431009Y-130138094D01*
X146954819Y-128614285D02*
X146954819Y-129185713D01*
X146954819Y-128899999D02*
X145954819Y-128899999D01*
X145954819Y-128899999D02*
X146097676Y-128995237D01*
X146097676Y-128995237D02*
X146192914Y-129090475D01*
X146192914Y-129090475D02*
X146240533Y-129185713D01*
X148931009Y-129904761D02*
X148978628Y-129761904D01*
X148978628Y-129761904D02*
X149026247Y-129714285D01*
X149026247Y-129714285D02*
X149121485Y-129666666D01*
X149121485Y-129666666D02*
X149264342Y-129666666D01*
X149264342Y-129666666D02*
X149359580Y-129714285D01*
X149359580Y-129714285D02*
X149407200Y-129761904D01*
X149407200Y-129761904D02*
X149454819Y-129857142D01*
X149454819Y-129857142D02*
X149454819Y-130238094D01*
X149454819Y-130238094D02*
X148454819Y-130238094D01*
X148454819Y-130238094D02*
X148454819Y-129904761D01*
X148454819Y-129904761D02*
X148502438Y-129809523D01*
X148502438Y-129809523D02*
X148550057Y-129761904D01*
X148550057Y-129761904D02*
X148645295Y-129714285D01*
X148645295Y-129714285D02*
X148740533Y-129714285D01*
X148740533Y-129714285D02*
X148835771Y-129761904D01*
X148835771Y-129761904D02*
X148883390Y-129809523D01*
X148883390Y-129809523D02*
X148931009Y-129904761D01*
X148931009Y-129904761D02*
X148931009Y-130238094D01*
X148550057Y-129285713D02*
X148502438Y-129238094D01*
X148502438Y-129238094D02*
X148454819Y-129142856D01*
X148454819Y-129142856D02*
X148454819Y-128904761D01*
X148454819Y-128904761D02*
X148502438Y-128809523D01*
X148502438Y-128809523D02*
X148550057Y-128761904D01*
X148550057Y-128761904D02*
X148645295Y-128714285D01*
X148645295Y-128714285D02*
X148740533Y-128714285D01*
X148740533Y-128714285D02*
X148883390Y-128761904D01*
X148883390Y-128761904D02*
X149454819Y-129333332D01*
X149454819Y-129333332D02*
X149454819Y-128714285D01*
X151869104Y-130314285D02*
X151869104Y-129838095D01*
X152154819Y-130409523D02*
X151154819Y-130076190D01*
X151154819Y-130076190D02*
X152154819Y-129742857D01*
X151250057Y-129457142D02*
X151202438Y-129409523D01*
X151202438Y-129409523D02*
X151154819Y-129314285D01*
X151154819Y-129314285D02*
X151154819Y-129076190D01*
X151154819Y-129076190D02*
X151202438Y-128980952D01*
X151202438Y-128980952D02*
X151250057Y-128933333D01*
X151250057Y-128933333D02*
X151345295Y-128885714D01*
X151345295Y-128885714D02*
X151440533Y-128885714D01*
X151440533Y-128885714D02*
X151583390Y-128933333D01*
X151583390Y-128933333D02*
X152154819Y-129504761D01*
X152154819Y-129504761D02*
X152154819Y-128885714D01*
X154169104Y-130314285D02*
X154169104Y-129838095D01*
X154454819Y-130409523D02*
X153454819Y-130076190D01*
X153454819Y-130076190D02*
X154454819Y-129742857D01*
X154454819Y-128885714D02*
X154454819Y-129457142D01*
X154454819Y-129171428D02*
X153454819Y-129171428D01*
X153454819Y-129171428D02*
X153597676Y-129266666D01*
X153597676Y-129266666D02*
X153692914Y-129361904D01*
X153692914Y-129361904D02*
X153740533Y-129457142D01*
X160931009Y-130666666D02*
X160931009Y-130333333D01*
X161454819Y-130190476D02*
X161454819Y-130666666D01*
X161454819Y-130666666D02*
X160454819Y-130666666D01*
X160454819Y-130666666D02*
X160454819Y-130190476D01*
X161454819Y-129761904D02*
X160454819Y-129761904D01*
X160454819Y-129761904D02*
X161454819Y-129190476D01*
X161454819Y-129190476D02*
X160454819Y-129190476D01*
X161359580Y-128142857D02*
X161407200Y-128190476D01*
X161407200Y-128190476D02*
X161454819Y-128333333D01*
X161454819Y-128333333D02*
X161454819Y-128428571D01*
X161454819Y-128428571D02*
X161407200Y-128571428D01*
X161407200Y-128571428D02*
X161311961Y-128666666D01*
X161311961Y-128666666D02*
X161216723Y-128714285D01*
X161216723Y-128714285D02*
X161026247Y-128761904D01*
X161026247Y-128761904D02*
X160883390Y-128761904D01*
X160883390Y-128761904D02*
X160692914Y-128714285D01*
X160692914Y-128714285D02*
X160597676Y-128666666D01*
X160597676Y-128666666D02*
X160502438Y-128571428D01*
X160502438Y-128571428D02*
X160454819Y-128428571D01*
X160454819Y-128428571D02*
X160454819Y-128333333D01*
X160454819Y-128333333D02*
X160502438Y-128190476D01*
X160502438Y-128190476D02*
X160550057Y-128142857D01*
X161454819Y-127714285D02*
X160454819Y-127714285D01*
X160454819Y-127714285D02*
X161454819Y-127142857D01*
X161454819Y-127142857D02*
X160454819Y-127142857D01*
X161550057Y-126904762D02*
X161550057Y-126142857D01*
X161454819Y-125904761D02*
X160454819Y-125904761D01*
X160454819Y-125904761D02*
X160454819Y-125666666D01*
X160454819Y-125666666D02*
X160502438Y-125523809D01*
X160502438Y-125523809D02*
X160597676Y-125428571D01*
X160597676Y-125428571D02*
X160692914Y-125380952D01*
X160692914Y-125380952D02*
X160883390Y-125333333D01*
X160883390Y-125333333D02*
X161026247Y-125333333D01*
X161026247Y-125333333D02*
X161216723Y-125380952D01*
X161216723Y-125380952D02*
X161311961Y-125428571D01*
X161311961Y-125428571D02*
X161407200Y-125523809D01*
X161407200Y-125523809D02*
X161454819Y-125666666D01*
X161454819Y-125666666D02*
X161454819Y-125904761D01*
X161359580Y-124333333D02*
X161407200Y-124380952D01*
X161407200Y-124380952D02*
X161454819Y-124523809D01*
X161454819Y-124523809D02*
X161454819Y-124619047D01*
X161454819Y-124619047D02*
X161407200Y-124761904D01*
X161407200Y-124761904D02*
X161311961Y-124857142D01*
X161311961Y-124857142D02*
X161216723Y-124904761D01*
X161216723Y-124904761D02*
X161026247Y-124952380D01*
X161026247Y-124952380D02*
X160883390Y-124952380D01*
X160883390Y-124952380D02*
X160692914Y-124904761D01*
X160692914Y-124904761D02*
X160597676Y-124857142D01*
X160597676Y-124857142D02*
X160502438Y-124761904D01*
X160502438Y-124761904D02*
X160454819Y-124619047D01*
X160454819Y-124619047D02*
X160454819Y-124523809D01*
X160454819Y-124523809D02*
X160502438Y-124380952D01*
X160502438Y-124380952D02*
X160550057Y-124333333D01*
X160454819Y-123714285D02*
X160454819Y-123523809D01*
X160454819Y-123523809D02*
X160502438Y-123428571D01*
X160502438Y-123428571D02*
X160597676Y-123333333D01*
X160597676Y-123333333D02*
X160788152Y-123285714D01*
X160788152Y-123285714D02*
X161121485Y-123285714D01*
X161121485Y-123285714D02*
X161311961Y-123333333D01*
X161311961Y-123333333D02*
X161407200Y-123428571D01*
X161407200Y-123428571D02*
X161454819Y-123523809D01*
X161454819Y-123523809D02*
X161454819Y-123714285D01*
X161454819Y-123714285D02*
X161407200Y-123809523D01*
X161407200Y-123809523D02*
X161311961Y-123904761D01*
X161311961Y-123904761D02*
X161121485Y-123952380D01*
X161121485Y-123952380D02*
X160788152Y-123952380D01*
X160788152Y-123952380D02*
X160597676Y-123904761D01*
X160597676Y-123904761D02*
X160502438Y-123809523D01*
X160502438Y-123809523D02*
X160454819Y-123714285D01*
X163231009Y-130595237D02*
X163231009Y-130261904D01*
X163754819Y-130119047D02*
X163754819Y-130595237D01*
X163754819Y-130595237D02*
X162754819Y-130595237D01*
X162754819Y-130595237D02*
X162754819Y-130119047D01*
X163754819Y-129690475D02*
X162754819Y-129690475D01*
X162754819Y-129690475D02*
X163754819Y-129119047D01*
X163754819Y-129119047D02*
X162754819Y-129119047D01*
X163659580Y-128071428D02*
X163707200Y-128119047D01*
X163707200Y-128119047D02*
X163754819Y-128261904D01*
X163754819Y-128261904D02*
X163754819Y-128357142D01*
X163754819Y-128357142D02*
X163707200Y-128499999D01*
X163707200Y-128499999D02*
X163611961Y-128595237D01*
X163611961Y-128595237D02*
X163516723Y-128642856D01*
X163516723Y-128642856D02*
X163326247Y-128690475D01*
X163326247Y-128690475D02*
X163183390Y-128690475D01*
X163183390Y-128690475D02*
X162992914Y-128642856D01*
X162992914Y-128642856D02*
X162897676Y-128595237D01*
X162897676Y-128595237D02*
X162802438Y-128499999D01*
X162802438Y-128499999D02*
X162754819Y-128357142D01*
X162754819Y-128357142D02*
X162754819Y-128261904D01*
X162754819Y-128261904D02*
X162802438Y-128119047D01*
X162802438Y-128119047D02*
X162850057Y-128071428D01*
X163231009Y-127309523D02*
X163278628Y-127166666D01*
X163278628Y-127166666D02*
X163326247Y-127119047D01*
X163326247Y-127119047D02*
X163421485Y-127071428D01*
X163421485Y-127071428D02*
X163564342Y-127071428D01*
X163564342Y-127071428D02*
X163659580Y-127119047D01*
X163659580Y-127119047D02*
X163707200Y-127166666D01*
X163707200Y-127166666D02*
X163754819Y-127261904D01*
X163754819Y-127261904D02*
X163754819Y-127642856D01*
X163754819Y-127642856D02*
X162754819Y-127642856D01*
X162754819Y-127642856D02*
X162754819Y-127309523D01*
X162754819Y-127309523D02*
X162802438Y-127214285D01*
X162802438Y-127214285D02*
X162850057Y-127166666D01*
X162850057Y-127166666D02*
X162945295Y-127119047D01*
X162945295Y-127119047D02*
X163040533Y-127119047D01*
X163040533Y-127119047D02*
X163135771Y-127166666D01*
X163135771Y-127166666D02*
X163183390Y-127214285D01*
X163183390Y-127214285D02*
X163231009Y-127309523D01*
X163231009Y-127309523D02*
X163231009Y-127642856D01*
X163850057Y-126880952D02*
X163850057Y-126119047D01*
X163754819Y-125880951D02*
X162754819Y-125880951D01*
X162754819Y-125880951D02*
X162754819Y-125642856D01*
X162754819Y-125642856D02*
X162802438Y-125499999D01*
X162802438Y-125499999D02*
X162897676Y-125404761D01*
X162897676Y-125404761D02*
X162992914Y-125357142D01*
X162992914Y-125357142D02*
X163183390Y-125309523D01*
X163183390Y-125309523D02*
X163326247Y-125309523D01*
X163326247Y-125309523D02*
X163516723Y-125357142D01*
X163516723Y-125357142D02*
X163611961Y-125404761D01*
X163611961Y-125404761D02*
X163707200Y-125499999D01*
X163707200Y-125499999D02*
X163754819Y-125642856D01*
X163754819Y-125642856D02*
X163754819Y-125880951D01*
X163659580Y-124309523D02*
X163707200Y-124357142D01*
X163707200Y-124357142D02*
X163754819Y-124499999D01*
X163754819Y-124499999D02*
X163754819Y-124595237D01*
X163754819Y-124595237D02*
X163707200Y-124738094D01*
X163707200Y-124738094D02*
X163611961Y-124833332D01*
X163611961Y-124833332D02*
X163516723Y-124880951D01*
X163516723Y-124880951D02*
X163326247Y-124928570D01*
X163326247Y-124928570D02*
X163183390Y-124928570D01*
X163183390Y-124928570D02*
X162992914Y-124880951D01*
X162992914Y-124880951D02*
X162897676Y-124833332D01*
X162897676Y-124833332D02*
X162802438Y-124738094D01*
X162802438Y-124738094D02*
X162754819Y-124595237D01*
X162754819Y-124595237D02*
X162754819Y-124499999D01*
X162754819Y-124499999D02*
X162802438Y-124357142D01*
X162802438Y-124357142D02*
X162850057Y-124309523D01*
X163231009Y-123880951D02*
X163231009Y-123547618D01*
X163754819Y-123404761D02*
X163754819Y-123880951D01*
X163754819Y-123880951D02*
X162754819Y-123880951D01*
X162754819Y-123880951D02*
X162754819Y-123404761D01*
X163754819Y-122976189D02*
X162754819Y-122976189D01*
X162754819Y-122976189D02*
X163754819Y-122404761D01*
X163754819Y-122404761D02*
X162754819Y-122404761D01*
X165831009Y-130609523D02*
X165831009Y-130276190D01*
X166354819Y-130133333D02*
X166354819Y-130609523D01*
X166354819Y-130609523D02*
X165354819Y-130609523D01*
X165354819Y-130609523D02*
X165354819Y-130133333D01*
X166354819Y-129704761D02*
X165354819Y-129704761D01*
X165354819Y-129704761D02*
X166354819Y-129133333D01*
X166354819Y-129133333D02*
X165354819Y-129133333D01*
X166259580Y-128085714D02*
X166307200Y-128133333D01*
X166307200Y-128133333D02*
X166354819Y-128276190D01*
X166354819Y-128276190D02*
X166354819Y-128371428D01*
X166354819Y-128371428D02*
X166307200Y-128514285D01*
X166307200Y-128514285D02*
X166211961Y-128609523D01*
X166211961Y-128609523D02*
X166116723Y-128657142D01*
X166116723Y-128657142D02*
X165926247Y-128704761D01*
X165926247Y-128704761D02*
X165783390Y-128704761D01*
X165783390Y-128704761D02*
X165592914Y-128657142D01*
X165592914Y-128657142D02*
X165497676Y-128609523D01*
X165497676Y-128609523D02*
X165402438Y-128514285D01*
X165402438Y-128514285D02*
X165354819Y-128371428D01*
X165354819Y-128371428D02*
X165354819Y-128276190D01*
X165354819Y-128276190D02*
X165402438Y-128133333D01*
X165402438Y-128133333D02*
X165450057Y-128085714D01*
X166069104Y-127704761D02*
X166069104Y-127228571D01*
X166354819Y-127799999D02*
X165354819Y-127466666D01*
X165354819Y-127466666D02*
X166354819Y-127133333D01*
X166450057Y-127038095D02*
X166450057Y-126276190D01*
X166354819Y-126038094D02*
X165354819Y-126038094D01*
X165354819Y-126038094D02*
X165354819Y-125799999D01*
X165354819Y-125799999D02*
X165402438Y-125657142D01*
X165402438Y-125657142D02*
X165497676Y-125561904D01*
X165497676Y-125561904D02*
X165592914Y-125514285D01*
X165592914Y-125514285D02*
X165783390Y-125466666D01*
X165783390Y-125466666D02*
X165926247Y-125466666D01*
X165926247Y-125466666D02*
X166116723Y-125514285D01*
X166116723Y-125514285D02*
X166211961Y-125561904D01*
X166211961Y-125561904D02*
X166307200Y-125657142D01*
X166307200Y-125657142D02*
X166354819Y-125799999D01*
X166354819Y-125799999D02*
X166354819Y-126038094D01*
X166259580Y-124466666D02*
X166307200Y-124514285D01*
X166307200Y-124514285D02*
X166354819Y-124657142D01*
X166354819Y-124657142D02*
X166354819Y-124752380D01*
X166354819Y-124752380D02*
X166307200Y-124895237D01*
X166307200Y-124895237D02*
X166211961Y-124990475D01*
X166211961Y-124990475D02*
X166116723Y-125038094D01*
X166116723Y-125038094D02*
X165926247Y-125085713D01*
X165926247Y-125085713D02*
X165783390Y-125085713D01*
X165783390Y-125085713D02*
X165592914Y-125038094D01*
X165592914Y-125038094D02*
X165497676Y-124990475D01*
X165497676Y-124990475D02*
X165402438Y-124895237D01*
X165402438Y-124895237D02*
X165354819Y-124752380D01*
X165354819Y-124752380D02*
X165354819Y-124657142D01*
X165354819Y-124657142D02*
X165402438Y-124514285D01*
X165402438Y-124514285D02*
X165450057Y-124466666D01*
X166354819Y-124038094D02*
X165354819Y-124038094D01*
X166354819Y-123561904D02*
X165354819Y-123561904D01*
X165354819Y-123561904D02*
X166354819Y-122990476D01*
X166354819Y-122990476D02*
X165354819Y-122990476D01*
X177407200Y-104000000D02*
X177454819Y-103857143D01*
X177454819Y-103857143D02*
X177454819Y-103619048D01*
X177454819Y-103619048D02*
X177407200Y-103523810D01*
X177407200Y-103523810D02*
X177359580Y-103476191D01*
X177359580Y-103476191D02*
X177264342Y-103428572D01*
X177264342Y-103428572D02*
X177169104Y-103428572D01*
X177169104Y-103428572D02*
X177073866Y-103476191D01*
X177073866Y-103476191D02*
X177026247Y-103523810D01*
X177026247Y-103523810D02*
X176978628Y-103619048D01*
X176978628Y-103619048D02*
X176931009Y-103809524D01*
X176931009Y-103809524D02*
X176883390Y-103904762D01*
X176883390Y-103904762D02*
X176835771Y-103952381D01*
X176835771Y-103952381D02*
X176740533Y-104000000D01*
X176740533Y-104000000D02*
X176645295Y-104000000D01*
X176645295Y-104000000D02*
X176550057Y-103952381D01*
X176550057Y-103952381D02*
X176502438Y-103904762D01*
X176502438Y-103904762D02*
X176454819Y-103809524D01*
X176454819Y-103809524D02*
X176454819Y-103571429D01*
X176454819Y-103571429D02*
X176502438Y-103428572D01*
X177407200Y-102619048D02*
X177454819Y-102714286D01*
X177454819Y-102714286D02*
X177454819Y-102904762D01*
X177454819Y-102904762D02*
X177407200Y-103000000D01*
X177407200Y-103000000D02*
X177311961Y-103047619D01*
X177311961Y-103047619D02*
X176931009Y-103047619D01*
X176931009Y-103047619D02*
X176835771Y-103000000D01*
X176835771Y-103000000D02*
X176788152Y-102904762D01*
X176788152Y-102904762D02*
X176788152Y-102714286D01*
X176788152Y-102714286D02*
X176835771Y-102619048D01*
X176835771Y-102619048D02*
X176931009Y-102571429D01*
X176931009Y-102571429D02*
X177026247Y-102571429D01*
X177026247Y-102571429D02*
X177121485Y-103047619D01*
X177454819Y-102000000D02*
X177407200Y-102095238D01*
X177407200Y-102095238D02*
X177311961Y-102142857D01*
X177311961Y-102142857D02*
X176454819Y-102142857D01*
X177407200Y-101238095D02*
X177454819Y-101333333D01*
X177454819Y-101333333D02*
X177454819Y-101523809D01*
X177454819Y-101523809D02*
X177407200Y-101619047D01*
X177407200Y-101619047D02*
X177311961Y-101666666D01*
X177311961Y-101666666D02*
X176931009Y-101666666D01*
X176931009Y-101666666D02*
X176835771Y-101619047D01*
X176835771Y-101619047D02*
X176788152Y-101523809D01*
X176788152Y-101523809D02*
X176788152Y-101333333D01*
X176788152Y-101333333D02*
X176835771Y-101238095D01*
X176835771Y-101238095D02*
X176931009Y-101190476D01*
X176931009Y-101190476D02*
X177026247Y-101190476D01*
X177026247Y-101190476D02*
X177121485Y-101666666D01*
X177407200Y-100333333D02*
X177454819Y-100428571D01*
X177454819Y-100428571D02*
X177454819Y-100619047D01*
X177454819Y-100619047D02*
X177407200Y-100714285D01*
X177407200Y-100714285D02*
X177359580Y-100761904D01*
X177359580Y-100761904D02*
X177264342Y-100809523D01*
X177264342Y-100809523D02*
X176978628Y-100809523D01*
X176978628Y-100809523D02*
X176883390Y-100761904D01*
X176883390Y-100761904D02*
X176835771Y-100714285D01*
X176835771Y-100714285D02*
X176788152Y-100619047D01*
X176788152Y-100619047D02*
X176788152Y-100428571D01*
X176788152Y-100428571D02*
X176835771Y-100333333D01*
X176788152Y-100047618D02*
X176788152Y-99666666D01*
X176454819Y-99904761D02*
X177311961Y-99904761D01*
X177311961Y-99904761D02*
X177407200Y-99857142D01*
X177407200Y-99857142D02*
X177454819Y-99761904D01*
X177454819Y-99761904D02*
X177454819Y-99666666D01*
X177407200Y-98952380D02*
X177454819Y-99047618D01*
X177454819Y-99047618D02*
X177454819Y-99238094D01*
X177454819Y-99238094D02*
X177407200Y-99333332D01*
X177407200Y-99333332D02*
X177311961Y-99380951D01*
X177311961Y-99380951D02*
X176931009Y-99380951D01*
X176931009Y-99380951D02*
X176835771Y-99333332D01*
X176835771Y-99333332D02*
X176788152Y-99238094D01*
X176788152Y-99238094D02*
X176788152Y-99047618D01*
X176788152Y-99047618D02*
X176835771Y-98952380D01*
X176835771Y-98952380D02*
X176931009Y-98904761D01*
X176931009Y-98904761D02*
X177026247Y-98904761D01*
X177026247Y-98904761D02*
X177121485Y-99380951D01*
X177454819Y-98047618D02*
X176454819Y-98047618D01*
X177407200Y-98047618D02*
X177454819Y-98142856D01*
X177454819Y-98142856D02*
X177454819Y-98333332D01*
X177454819Y-98333332D02*
X177407200Y-98428570D01*
X177407200Y-98428570D02*
X177359580Y-98476189D01*
X177359580Y-98476189D02*
X177264342Y-98523808D01*
X177264342Y-98523808D02*
X176978628Y-98523808D01*
X176978628Y-98523808D02*
X176883390Y-98476189D01*
X176883390Y-98476189D02*
X176835771Y-98428570D01*
X176835771Y-98428570D02*
X176788152Y-98333332D01*
X176788152Y-98333332D02*
X176788152Y-98142856D01*
X176788152Y-98142856D02*
X176835771Y-98047618D01*
X149238095Y-102554819D02*
X149238095Y-103364342D01*
X149238095Y-103364342D02*
X149285714Y-103459580D01*
X149285714Y-103459580D02*
X149333333Y-103507200D01*
X149333333Y-103507200D02*
X149428571Y-103554819D01*
X149428571Y-103554819D02*
X149619047Y-103554819D01*
X149619047Y-103554819D02*
X149714285Y-103507200D01*
X149714285Y-103507200D02*
X149761904Y-103459580D01*
X149761904Y-103459580D02*
X149809523Y-103364342D01*
X149809523Y-103364342D02*
X149809523Y-102554819D01*
X150809523Y-103554819D02*
X150238095Y-103554819D01*
X150523809Y-103554819D02*
X150523809Y-102554819D01*
X150523809Y-102554819D02*
X150428571Y-102697676D01*
X150428571Y-102697676D02*
X150333333Y-102792914D01*
X150333333Y-102792914D02*
X150238095Y-102840533D01*
X162288095Y-109354819D02*
X162859523Y-109354819D01*
X162573809Y-110354819D02*
X162573809Y-109354819D01*
X163192857Y-110354819D02*
X163192857Y-109354819D01*
X163192857Y-109354819D02*
X163573809Y-109354819D01*
X163573809Y-109354819D02*
X163669047Y-109402438D01*
X163669047Y-109402438D02*
X163716666Y-109450057D01*
X163716666Y-109450057D02*
X163764285Y-109545295D01*
X163764285Y-109545295D02*
X163764285Y-109688152D01*
X163764285Y-109688152D02*
X163716666Y-109783390D01*
X163716666Y-109783390D02*
X163669047Y-109831009D01*
X163669047Y-109831009D02*
X163573809Y-109878628D01*
X163573809Y-109878628D02*
X163192857Y-109878628D01*
X164621428Y-109688152D02*
X164621428Y-110354819D01*
X164383333Y-109307200D02*
X164145238Y-110021485D01*
X164145238Y-110021485D02*
X164764285Y-110021485D01*
X157938095Y-122254819D02*
X158509523Y-122254819D01*
X158223809Y-123254819D02*
X158223809Y-122254819D01*
X158842857Y-123254819D02*
X158842857Y-122254819D01*
X158842857Y-122254819D02*
X159223809Y-122254819D01*
X159223809Y-122254819D02*
X159319047Y-122302438D01*
X159319047Y-122302438D02*
X159366666Y-122350057D01*
X159366666Y-122350057D02*
X159414285Y-122445295D01*
X159414285Y-122445295D02*
X159414285Y-122588152D01*
X159414285Y-122588152D02*
X159366666Y-122683390D01*
X159366666Y-122683390D02*
X159319047Y-122731009D01*
X159319047Y-122731009D02*
X159223809Y-122778628D01*
X159223809Y-122778628D02*
X158842857Y-122778628D01*
X160366666Y-123254819D02*
X159795238Y-123254819D01*
X160080952Y-123254819D02*
X160080952Y-122254819D01*
X160080952Y-122254819D02*
X159985714Y-122397676D01*
X159985714Y-122397676D02*
X159890476Y-122492914D01*
X159890476Y-122492914D02*
X159795238Y-122540533D01*
X94466666Y-147304819D02*
X94466666Y-148019104D01*
X94466666Y-148019104D02*
X94419047Y-148161961D01*
X94419047Y-148161961D02*
X94323809Y-148257200D01*
X94323809Y-148257200D02*
X94180952Y-148304819D01*
X94180952Y-148304819D02*
X94085714Y-148304819D01*
X95371428Y-147638152D02*
X95371428Y-148304819D01*
X95133333Y-147257200D02*
X94895238Y-147971485D01*
X94895238Y-147971485D02*
X95514285Y-147971485D01*
X88328571Y-127964700D02*
X89471429Y-127964700D01*
X88900000Y-128536128D02*
X88900000Y-127393271D01*
X100628571Y-127964700D02*
X101771429Y-127964700D01*
X115359580Y-108742857D02*
X115407200Y-108790476D01*
X115407200Y-108790476D02*
X115454819Y-108933333D01*
X115454819Y-108933333D02*
X115454819Y-109028571D01*
X115454819Y-109028571D02*
X115407200Y-109171428D01*
X115407200Y-109171428D02*
X115311961Y-109266666D01*
X115311961Y-109266666D02*
X115216723Y-109314285D01*
X115216723Y-109314285D02*
X115026247Y-109361904D01*
X115026247Y-109361904D02*
X114883390Y-109361904D01*
X114883390Y-109361904D02*
X114692914Y-109314285D01*
X114692914Y-109314285D02*
X114597676Y-109266666D01*
X114597676Y-109266666D02*
X114502438Y-109171428D01*
X114502438Y-109171428D02*
X114454819Y-109028571D01*
X114454819Y-109028571D02*
X114454819Y-108933333D01*
X114454819Y-108933333D02*
X114502438Y-108790476D01*
X114502438Y-108790476D02*
X114550057Y-108742857D01*
X114454819Y-107838095D02*
X114454819Y-108314285D01*
X114454819Y-108314285D02*
X114931009Y-108361904D01*
X114931009Y-108361904D02*
X114883390Y-108314285D01*
X114883390Y-108314285D02*
X114835771Y-108219047D01*
X114835771Y-108219047D02*
X114835771Y-107980952D01*
X114835771Y-107980952D02*
X114883390Y-107885714D01*
X114883390Y-107885714D02*
X114931009Y-107838095D01*
X114931009Y-107838095D02*
X115026247Y-107790476D01*
X115026247Y-107790476D02*
X115264342Y-107790476D01*
X115264342Y-107790476D02*
X115359580Y-107838095D01*
X115359580Y-107838095D02*
X115407200Y-107885714D01*
X115407200Y-107885714D02*
X115454819Y-107980952D01*
X115454819Y-107980952D02*
X115454819Y-108219047D01*
X115454819Y-108219047D02*
X115407200Y-108314285D01*
X115407200Y-108314285D02*
X115359580Y-108361904D01*
X114454819Y-107171428D02*
X114454819Y-107076190D01*
X114454819Y-107076190D02*
X114502438Y-106980952D01*
X114502438Y-106980952D02*
X114550057Y-106933333D01*
X114550057Y-106933333D02*
X114645295Y-106885714D01*
X114645295Y-106885714D02*
X114835771Y-106838095D01*
X114835771Y-106838095D02*
X115073866Y-106838095D01*
X115073866Y-106838095D02*
X115264342Y-106885714D01*
X115264342Y-106885714D02*
X115359580Y-106933333D01*
X115359580Y-106933333D02*
X115407200Y-106980952D01*
X115407200Y-106980952D02*
X115454819Y-107076190D01*
X115454819Y-107076190D02*
X115454819Y-107171428D01*
X115454819Y-107171428D02*
X115407200Y-107266666D01*
X115407200Y-107266666D02*
X115359580Y-107314285D01*
X115359580Y-107314285D02*
X115264342Y-107361904D01*
X115264342Y-107361904D02*
X115073866Y-107409523D01*
X115073866Y-107409523D02*
X114835771Y-107409523D01*
X114835771Y-107409523D02*
X114645295Y-107361904D01*
X114645295Y-107361904D02*
X114550057Y-107314285D01*
X114550057Y-107314285D02*
X114502438Y-107266666D01*
X114502438Y-107266666D02*
X114454819Y-107171428D01*
X139538095Y-114754819D02*
X140109523Y-114754819D01*
X139823809Y-115754819D02*
X139823809Y-114754819D01*
X140442857Y-115754819D02*
X140442857Y-114754819D01*
X140442857Y-114754819D02*
X140823809Y-114754819D01*
X140823809Y-114754819D02*
X140919047Y-114802438D01*
X140919047Y-114802438D02*
X140966666Y-114850057D01*
X140966666Y-114850057D02*
X141014285Y-114945295D01*
X141014285Y-114945295D02*
X141014285Y-115088152D01*
X141014285Y-115088152D02*
X140966666Y-115183390D01*
X140966666Y-115183390D02*
X140919047Y-115231009D01*
X140919047Y-115231009D02*
X140823809Y-115278628D01*
X140823809Y-115278628D02*
X140442857Y-115278628D01*
X141347619Y-114754819D02*
X142014285Y-114754819D01*
X142014285Y-114754819D02*
X141585714Y-115754819D01*
X84804819Y-102766666D02*
X84804819Y-103242856D01*
X84804819Y-103242856D02*
X83804819Y-103242856D01*
X84804819Y-101909523D02*
X84804819Y-102480951D01*
X84804819Y-102195237D02*
X83804819Y-102195237D01*
X83804819Y-102195237D02*
X83947676Y-102290475D01*
X83947676Y-102290475D02*
X84042914Y-102385713D01*
X84042914Y-102385713D02*
X84090533Y-102480951D01*
X150066666Y-96854819D02*
X150066666Y-97569104D01*
X150066666Y-97569104D02*
X150019047Y-97711961D01*
X150019047Y-97711961D02*
X149923809Y-97807200D01*
X149923809Y-97807200D02*
X149780952Y-97854819D01*
X149780952Y-97854819D02*
X149685714Y-97854819D01*
X150447619Y-96854819D02*
X151066666Y-96854819D01*
X151066666Y-96854819D02*
X150733333Y-97235771D01*
X150733333Y-97235771D02*
X150876190Y-97235771D01*
X150876190Y-97235771D02*
X150971428Y-97283390D01*
X150971428Y-97283390D02*
X151019047Y-97331009D01*
X151019047Y-97331009D02*
X151066666Y-97426247D01*
X151066666Y-97426247D02*
X151066666Y-97664342D01*
X151066666Y-97664342D02*
X151019047Y-97759580D01*
X151019047Y-97759580D02*
X150971428Y-97807200D01*
X150971428Y-97807200D02*
X150876190Y-97854819D01*
X150876190Y-97854819D02*
X150590476Y-97854819D01*
X150590476Y-97854819D02*
X150495238Y-97807200D01*
X150495238Y-97807200D02*
X150447619Y-97759580D01*
X145238095Y-109254819D02*
X145809523Y-109254819D01*
X145523809Y-110254819D02*
X145523809Y-109254819D01*
X146142857Y-110254819D02*
X146142857Y-109254819D01*
X146142857Y-109254819D02*
X146523809Y-109254819D01*
X146523809Y-109254819D02*
X146619047Y-109302438D01*
X146619047Y-109302438D02*
X146666666Y-109350057D01*
X146666666Y-109350057D02*
X146714285Y-109445295D01*
X146714285Y-109445295D02*
X146714285Y-109588152D01*
X146714285Y-109588152D02*
X146666666Y-109683390D01*
X146666666Y-109683390D02*
X146619047Y-109731009D01*
X146619047Y-109731009D02*
X146523809Y-109778628D01*
X146523809Y-109778628D02*
X146142857Y-109778628D01*
X147571428Y-109254819D02*
X147380952Y-109254819D01*
X147380952Y-109254819D02*
X147285714Y-109302438D01*
X147285714Y-109302438D02*
X147238095Y-109350057D01*
X147238095Y-109350057D02*
X147142857Y-109492914D01*
X147142857Y-109492914D02*
X147095238Y-109683390D01*
X147095238Y-109683390D02*
X147095238Y-110064342D01*
X147095238Y-110064342D02*
X147142857Y-110159580D01*
X147142857Y-110159580D02*
X147190476Y-110207200D01*
X147190476Y-110207200D02*
X147285714Y-110254819D01*
X147285714Y-110254819D02*
X147476190Y-110254819D01*
X147476190Y-110254819D02*
X147571428Y-110207200D01*
X147571428Y-110207200D02*
X147619047Y-110159580D01*
X147619047Y-110159580D02*
X147666666Y-110064342D01*
X147666666Y-110064342D02*
X147666666Y-109826247D01*
X147666666Y-109826247D02*
X147619047Y-109731009D01*
X147619047Y-109731009D02*
X147571428Y-109683390D01*
X147571428Y-109683390D02*
X147476190Y-109635771D01*
X147476190Y-109635771D02*
X147285714Y-109635771D01*
X147285714Y-109635771D02*
X147190476Y-109683390D01*
X147190476Y-109683390D02*
X147142857Y-109731009D01*
X147142857Y-109731009D02*
X147095238Y-109826247D01*
X80059413Y-130691473D02*
X79059413Y-130691473D01*
X79059413Y-130691473D02*
X79059413Y-130453378D01*
X79059413Y-130453378D02*
X79107032Y-130310521D01*
X79107032Y-130310521D02*
X79202270Y-130215283D01*
X79202270Y-130215283D02*
X79297508Y-130167664D01*
X79297508Y-130167664D02*
X79487984Y-130120045D01*
X79487984Y-130120045D02*
X79630841Y-130120045D01*
X79630841Y-130120045D02*
X79821317Y-130167664D01*
X79821317Y-130167664D02*
X79916555Y-130215283D01*
X79916555Y-130215283D02*
X80011794Y-130310521D01*
X80011794Y-130310521D02*
X80059413Y-130453378D01*
X80059413Y-130453378D02*
X80059413Y-130691473D01*
X79154651Y-129739092D02*
X79107032Y-129691473D01*
X79107032Y-129691473D02*
X79059413Y-129596235D01*
X79059413Y-129596235D02*
X79059413Y-129358140D01*
X79059413Y-129358140D02*
X79107032Y-129262902D01*
X79107032Y-129262902D02*
X79154651Y-129215283D01*
X79154651Y-129215283D02*
X79249889Y-129167664D01*
X79249889Y-129167664D02*
X79345127Y-129167664D01*
X79345127Y-129167664D02*
X79487984Y-129215283D01*
X79487984Y-129215283D02*
X80059413Y-129786711D01*
X80059413Y-129786711D02*
X80059413Y-129167664D01*
X127866666Y-103254819D02*
X127866666Y-103969104D01*
X127866666Y-103969104D02*
X127819047Y-104111961D01*
X127819047Y-104111961D02*
X127723809Y-104207200D01*
X127723809Y-104207200D02*
X127580952Y-104254819D01*
X127580952Y-104254819D02*
X127485714Y-104254819D01*
X128342857Y-104254819D02*
X128342857Y-103254819D01*
X128342857Y-103254819D02*
X128723809Y-103254819D01*
X128723809Y-103254819D02*
X128819047Y-103302438D01*
X128819047Y-103302438D02*
X128866666Y-103350057D01*
X128866666Y-103350057D02*
X128914285Y-103445295D01*
X128914285Y-103445295D02*
X128914285Y-103588152D01*
X128914285Y-103588152D02*
X128866666Y-103683390D01*
X128866666Y-103683390D02*
X128819047Y-103731009D01*
X128819047Y-103731009D02*
X128723809Y-103778628D01*
X128723809Y-103778628D02*
X128342857Y-103778628D01*
X129866666Y-104254819D02*
X129295238Y-104254819D01*
X129580952Y-104254819D02*
X129580952Y-103254819D01*
X129580952Y-103254819D02*
X129485714Y-103397676D01*
X129485714Y-103397676D02*
X129390476Y-103492914D01*
X129390476Y-103492914D02*
X129295238Y-103540533D01*
X111166666Y-146304819D02*
X111166666Y-147019104D01*
X111166666Y-147019104D02*
X111119047Y-147161961D01*
X111119047Y-147161961D02*
X111023809Y-147257200D01*
X111023809Y-147257200D02*
X110880952Y-147304819D01*
X110880952Y-147304819D02*
X110785714Y-147304819D01*
X112119047Y-146304819D02*
X111642857Y-146304819D01*
X111642857Y-146304819D02*
X111595238Y-146781009D01*
X111595238Y-146781009D02*
X111642857Y-146733390D01*
X111642857Y-146733390D02*
X111738095Y-146685771D01*
X111738095Y-146685771D02*
X111976190Y-146685771D01*
X111976190Y-146685771D02*
X112071428Y-146733390D01*
X112071428Y-146733390D02*
X112119047Y-146781009D01*
X112119047Y-146781009D02*
X112166666Y-146876247D01*
X112166666Y-146876247D02*
X112166666Y-147114342D01*
X112166666Y-147114342D02*
X112119047Y-147209580D01*
X112119047Y-147209580D02*
X112071428Y-147257200D01*
X112071428Y-147257200D02*
X111976190Y-147304819D01*
X111976190Y-147304819D02*
X111738095Y-147304819D01*
X111738095Y-147304819D02*
X111642857Y-147257200D01*
X111642857Y-147257200D02*
X111595238Y-147209580D01*
X104719048Y-127923866D02*
X105480953Y-127923866D01*
X116828571Y-127964700D02*
X117971429Y-127964700D01*
X117400000Y-128536128D02*
X117400000Y-127393271D01*
X133157142Y-122009580D02*
X133109523Y-122057200D01*
X133109523Y-122057200D02*
X132966666Y-122104819D01*
X132966666Y-122104819D02*
X132871428Y-122104819D01*
X132871428Y-122104819D02*
X132728571Y-122057200D01*
X132728571Y-122057200D02*
X132633333Y-121961961D01*
X132633333Y-121961961D02*
X132585714Y-121866723D01*
X132585714Y-121866723D02*
X132538095Y-121676247D01*
X132538095Y-121676247D02*
X132538095Y-121533390D01*
X132538095Y-121533390D02*
X132585714Y-121342914D01*
X132585714Y-121342914D02*
X132633333Y-121247676D01*
X132633333Y-121247676D02*
X132728571Y-121152438D01*
X132728571Y-121152438D02*
X132871428Y-121104819D01*
X132871428Y-121104819D02*
X132966666Y-121104819D01*
X132966666Y-121104819D02*
X133109523Y-121152438D01*
X133109523Y-121152438D02*
X133157142Y-121200057D01*
X134109523Y-122104819D02*
X133538095Y-122104819D01*
X133823809Y-122104819D02*
X133823809Y-121104819D01*
X133823809Y-121104819D02*
X133728571Y-121247676D01*
X133728571Y-121247676D02*
X133633333Y-121342914D01*
X133633333Y-121342914D02*
X133538095Y-121390533D01*
X134490476Y-121200057D02*
X134538095Y-121152438D01*
X134538095Y-121152438D02*
X134633333Y-121104819D01*
X134633333Y-121104819D02*
X134871428Y-121104819D01*
X134871428Y-121104819D02*
X134966666Y-121152438D01*
X134966666Y-121152438D02*
X135014285Y-121200057D01*
X135014285Y-121200057D02*
X135061904Y-121295295D01*
X135061904Y-121295295D02*
X135061904Y-121390533D01*
X135061904Y-121390533D02*
X135014285Y-121533390D01*
X135014285Y-121533390D02*
X134442857Y-122104819D01*
X134442857Y-122104819D02*
X135061904Y-122104819D01*
X119761905Y-127554819D02*
X119761905Y-126554819D01*
X119761905Y-126554819D02*
X120000000Y-126554819D01*
X120000000Y-126554819D02*
X120142857Y-126602438D01*
X120142857Y-126602438D02*
X120238095Y-126697676D01*
X120238095Y-126697676D02*
X120285714Y-126792914D01*
X120285714Y-126792914D02*
X120333333Y-126983390D01*
X120333333Y-126983390D02*
X120333333Y-127126247D01*
X120333333Y-127126247D02*
X120285714Y-127316723D01*
X120285714Y-127316723D02*
X120238095Y-127411961D01*
X120238095Y-127411961D02*
X120142857Y-127507200D01*
X120142857Y-127507200D02*
X120000000Y-127554819D01*
X120000000Y-127554819D02*
X119761905Y-127554819D01*
X121190476Y-126554819D02*
X121000000Y-126554819D01*
X121000000Y-126554819D02*
X120904762Y-126602438D01*
X120904762Y-126602438D02*
X120857143Y-126650057D01*
X120857143Y-126650057D02*
X120761905Y-126792914D01*
X120761905Y-126792914D02*
X120714286Y-126983390D01*
X120714286Y-126983390D02*
X120714286Y-127364342D01*
X120714286Y-127364342D02*
X120761905Y-127459580D01*
X120761905Y-127459580D02*
X120809524Y-127507200D01*
X120809524Y-127507200D02*
X120904762Y-127554819D01*
X120904762Y-127554819D02*
X121095238Y-127554819D01*
X121095238Y-127554819D02*
X121190476Y-127507200D01*
X121190476Y-127507200D02*
X121238095Y-127459580D01*
X121238095Y-127459580D02*
X121285714Y-127364342D01*
X121285714Y-127364342D02*
X121285714Y-127126247D01*
X121285714Y-127126247D02*
X121238095Y-127031009D01*
X121238095Y-127031009D02*
X121190476Y-126983390D01*
X121190476Y-126983390D02*
X121095238Y-126935771D01*
X121095238Y-126935771D02*
X120904762Y-126935771D01*
X120904762Y-126935771D02*
X120809524Y-126983390D01*
X120809524Y-126983390D02*
X120761905Y-127031009D01*
X120761905Y-127031009D02*
X120714286Y-127126247D01*
X105868095Y-100254819D02*
X106439523Y-100254819D01*
X106153809Y-101254819D02*
X106153809Y-100254819D01*
X106772857Y-101254819D02*
X106772857Y-100254819D01*
X106772857Y-100254819D02*
X107153809Y-100254819D01*
X107153809Y-100254819D02*
X107249047Y-100302438D01*
X107249047Y-100302438D02*
X107296666Y-100350057D01*
X107296666Y-100350057D02*
X107344285Y-100445295D01*
X107344285Y-100445295D02*
X107344285Y-100588152D01*
X107344285Y-100588152D02*
X107296666Y-100683390D01*
X107296666Y-100683390D02*
X107249047Y-100731009D01*
X107249047Y-100731009D02*
X107153809Y-100778628D01*
X107153809Y-100778628D02*
X106772857Y-100778628D01*
X107915714Y-100683390D02*
X107820476Y-100635771D01*
X107820476Y-100635771D02*
X107772857Y-100588152D01*
X107772857Y-100588152D02*
X107725238Y-100492914D01*
X107725238Y-100492914D02*
X107725238Y-100445295D01*
X107725238Y-100445295D02*
X107772857Y-100350057D01*
X107772857Y-100350057D02*
X107820476Y-100302438D01*
X107820476Y-100302438D02*
X107915714Y-100254819D01*
X107915714Y-100254819D02*
X108106190Y-100254819D01*
X108106190Y-100254819D02*
X108201428Y-100302438D01*
X108201428Y-100302438D02*
X108249047Y-100350057D01*
X108249047Y-100350057D02*
X108296666Y-100445295D01*
X108296666Y-100445295D02*
X108296666Y-100492914D01*
X108296666Y-100492914D02*
X108249047Y-100588152D01*
X108249047Y-100588152D02*
X108201428Y-100635771D01*
X108201428Y-100635771D02*
X108106190Y-100683390D01*
X108106190Y-100683390D02*
X107915714Y-100683390D01*
X107915714Y-100683390D02*
X107820476Y-100731009D01*
X107820476Y-100731009D02*
X107772857Y-100778628D01*
X107772857Y-100778628D02*
X107725238Y-100873866D01*
X107725238Y-100873866D02*
X107725238Y-101064342D01*
X107725238Y-101064342D02*
X107772857Y-101159580D01*
X107772857Y-101159580D02*
X107820476Y-101207200D01*
X107820476Y-101207200D02*
X107915714Y-101254819D01*
X107915714Y-101254819D02*
X108106190Y-101254819D01*
X108106190Y-101254819D02*
X108201428Y-101207200D01*
X108201428Y-101207200D02*
X108249047Y-101159580D01*
X108249047Y-101159580D02*
X108296666Y-101064342D01*
X108296666Y-101064342D02*
X108296666Y-100873866D01*
X108296666Y-100873866D02*
X108249047Y-100778628D01*
X108249047Y-100778628D02*
X108201428Y-100731009D01*
X108201428Y-100731009D02*
X108106190Y-100683390D01*
X153638095Y-109754819D02*
X154209523Y-109754819D01*
X153923809Y-110754819D02*
X153923809Y-109754819D01*
X154542857Y-110754819D02*
X154542857Y-109754819D01*
X154542857Y-109754819D02*
X154923809Y-109754819D01*
X154923809Y-109754819D02*
X155019047Y-109802438D01*
X155019047Y-109802438D02*
X155066666Y-109850057D01*
X155066666Y-109850057D02*
X155114285Y-109945295D01*
X155114285Y-109945295D02*
X155114285Y-110088152D01*
X155114285Y-110088152D02*
X155066666Y-110183390D01*
X155066666Y-110183390D02*
X155019047Y-110231009D01*
X155019047Y-110231009D02*
X154923809Y-110278628D01*
X154923809Y-110278628D02*
X154542857Y-110278628D01*
X156019047Y-109754819D02*
X155542857Y-109754819D01*
X155542857Y-109754819D02*
X155495238Y-110231009D01*
X155495238Y-110231009D02*
X155542857Y-110183390D01*
X155542857Y-110183390D02*
X155638095Y-110135771D01*
X155638095Y-110135771D02*
X155876190Y-110135771D01*
X155876190Y-110135771D02*
X155971428Y-110183390D01*
X155971428Y-110183390D02*
X156019047Y-110231009D01*
X156019047Y-110231009D02*
X156066666Y-110326247D01*
X156066666Y-110326247D02*
X156066666Y-110564342D01*
X156066666Y-110564342D02*
X156019047Y-110659580D01*
X156019047Y-110659580D02*
X155971428Y-110707200D01*
X155971428Y-110707200D02*
X155876190Y-110754819D01*
X155876190Y-110754819D02*
X155638095Y-110754819D01*
X155638095Y-110754819D02*
X155542857Y-110707200D01*
X155542857Y-110707200D02*
X155495238Y-110659580D01*
X169204819Y-105095238D02*
X168728628Y-105428571D01*
X169204819Y-105666666D02*
X168204819Y-105666666D01*
X168204819Y-105666666D02*
X168204819Y-105285714D01*
X168204819Y-105285714D02*
X168252438Y-105190476D01*
X168252438Y-105190476D02*
X168300057Y-105142857D01*
X168300057Y-105142857D02*
X168395295Y-105095238D01*
X168395295Y-105095238D02*
X168538152Y-105095238D01*
X168538152Y-105095238D02*
X168633390Y-105142857D01*
X168633390Y-105142857D02*
X168681009Y-105190476D01*
X168681009Y-105190476D02*
X168728628Y-105285714D01*
X168728628Y-105285714D02*
X168728628Y-105666666D01*
X168204819Y-104809523D02*
X169204819Y-104476190D01*
X169204819Y-104476190D02*
X168204819Y-104142857D01*
X169204819Y-103285714D02*
X169204819Y-103857142D01*
X169204819Y-103571428D02*
X168204819Y-103571428D01*
X168204819Y-103571428D02*
X168347676Y-103666666D01*
X168347676Y-103666666D02*
X168442914Y-103761904D01*
X168442914Y-103761904D02*
X168490533Y-103857142D01*
D10*
X170495150Y-111840952D02*
X170447531Y-111936190D01*
X170447531Y-111936190D02*
X170447531Y-112079047D01*
X170447531Y-112079047D02*
X170495150Y-112221904D01*
X170495150Y-112221904D02*
X170590388Y-112317142D01*
X170590388Y-112317142D02*
X170685626Y-112364761D01*
X170685626Y-112364761D02*
X170876102Y-112412380D01*
X170876102Y-112412380D02*
X171018959Y-112412380D01*
X171018959Y-112412380D02*
X171209435Y-112364761D01*
X171209435Y-112364761D02*
X171304673Y-112317142D01*
X171304673Y-112317142D02*
X171399912Y-112221904D01*
X171399912Y-112221904D02*
X171447531Y-112079047D01*
X171447531Y-112079047D02*
X171447531Y-111983809D01*
X171447531Y-111983809D02*
X171399912Y-111840952D01*
X171399912Y-111840952D02*
X171352292Y-111793333D01*
X171352292Y-111793333D02*
X171018959Y-111793333D01*
X171018959Y-111793333D02*
X171018959Y-111983809D01*
X171447531Y-111221904D02*
X171399912Y-111317142D01*
X171399912Y-111317142D02*
X171304673Y-111364761D01*
X171304673Y-111364761D02*
X170447531Y-111364761D01*
X170780864Y-110412380D02*
X171447531Y-110412380D01*
X170780864Y-110840951D02*
X171304673Y-110840951D01*
X171304673Y-110840951D02*
X171399912Y-110793332D01*
X171399912Y-110793332D02*
X171447531Y-110698094D01*
X171447531Y-110698094D02*
X171447531Y-110555237D01*
X171447531Y-110555237D02*
X171399912Y-110459999D01*
X171399912Y-110459999D02*
X171352292Y-110412380D01*
X171399912Y-109555237D02*
X171447531Y-109650475D01*
X171447531Y-109650475D02*
X171447531Y-109840951D01*
X171447531Y-109840951D02*
X171399912Y-109936189D01*
X171399912Y-109936189D02*
X171304673Y-109983808D01*
X171304673Y-109983808D02*
X170923721Y-109983808D01*
X170923721Y-109983808D02*
X170828483Y-109936189D01*
X170828483Y-109936189D02*
X170780864Y-109840951D01*
X170780864Y-109840951D02*
X170780864Y-109650475D01*
X170780864Y-109650475D02*
X170828483Y-109555237D01*
X170828483Y-109555237D02*
X170923721Y-109507618D01*
X170923721Y-109507618D02*
X171018959Y-109507618D01*
X171018959Y-109507618D02*
X171114197Y-109983808D01*
X172962236Y-114293333D02*
X173009856Y-114340952D01*
X173009856Y-114340952D02*
X173057475Y-114483809D01*
X173057475Y-114483809D02*
X173057475Y-114579047D01*
X173057475Y-114579047D02*
X173009856Y-114721904D01*
X173009856Y-114721904D02*
X172914617Y-114817142D01*
X172914617Y-114817142D02*
X172819379Y-114864761D01*
X172819379Y-114864761D02*
X172628903Y-114912380D01*
X172628903Y-114912380D02*
X172486046Y-114912380D01*
X172486046Y-114912380D02*
X172295570Y-114864761D01*
X172295570Y-114864761D02*
X172200332Y-114817142D01*
X172200332Y-114817142D02*
X172105094Y-114721904D01*
X172105094Y-114721904D02*
X172057475Y-114579047D01*
X172057475Y-114579047D02*
X172057475Y-114483809D01*
X172057475Y-114483809D02*
X172105094Y-114340952D01*
X172105094Y-114340952D02*
X172152713Y-114293333D01*
X173057475Y-113721904D02*
X173009856Y-113817142D01*
X173009856Y-113817142D02*
X172962236Y-113864761D01*
X172962236Y-113864761D02*
X172866998Y-113912380D01*
X172866998Y-113912380D02*
X172581284Y-113912380D01*
X172581284Y-113912380D02*
X172486046Y-113864761D01*
X172486046Y-113864761D02*
X172438427Y-113817142D01*
X172438427Y-113817142D02*
X172390808Y-113721904D01*
X172390808Y-113721904D02*
X172390808Y-113579047D01*
X172390808Y-113579047D02*
X172438427Y-113483809D01*
X172438427Y-113483809D02*
X172486046Y-113436190D01*
X172486046Y-113436190D02*
X172581284Y-113388571D01*
X172581284Y-113388571D02*
X172866998Y-113388571D01*
X172866998Y-113388571D02*
X172962236Y-113436190D01*
X172962236Y-113436190D02*
X173009856Y-113483809D01*
X173009856Y-113483809D02*
X173057475Y-113579047D01*
X173057475Y-113579047D02*
X173057475Y-113721904D01*
X173057475Y-112959999D02*
X172390808Y-112959999D01*
X172486046Y-112959999D02*
X172438427Y-112912380D01*
X172438427Y-112912380D02*
X172390808Y-112817142D01*
X172390808Y-112817142D02*
X172390808Y-112674285D01*
X172390808Y-112674285D02*
X172438427Y-112579047D01*
X172438427Y-112579047D02*
X172533665Y-112531428D01*
X172533665Y-112531428D02*
X173057475Y-112531428D01*
X172533665Y-112531428D02*
X172438427Y-112483809D01*
X172438427Y-112483809D02*
X172390808Y-112388571D01*
X172390808Y-112388571D02*
X172390808Y-112245714D01*
X172390808Y-112245714D02*
X172438427Y-112150475D01*
X172438427Y-112150475D02*
X172533665Y-112102856D01*
X172533665Y-112102856D02*
X173057475Y-112102856D01*
X172390808Y-111626666D02*
X173390808Y-111626666D01*
X172438427Y-111626666D02*
X172390808Y-111531428D01*
X172390808Y-111531428D02*
X172390808Y-111340952D01*
X172390808Y-111340952D02*
X172438427Y-111245714D01*
X172438427Y-111245714D02*
X172486046Y-111198095D01*
X172486046Y-111198095D02*
X172581284Y-111150476D01*
X172581284Y-111150476D02*
X172866998Y-111150476D01*
X172866998Y-111150476D02*
X172962236Y-111198095D01*
X172962236Y-111198095D02*
X173009856Y-111245714D01*
X173009856Y-111245714D02*
X173057475Y-111340952D01*
X173057475Y-111340952D02*
X173057475Y-111531428D01*
X173057475Y-111531428D02*
X173009856Y-111626666D01*
X173057475Y-110579047D02*
X173009856Y-110674285D01*
X173009856Y-110674285D02*
X172962236Y-110721904D01*
X172962236Y-110721904D02*
X172866998Y-110769523D01*
X172866998Y-110769523D02*
X172581284Y-110769523D01*
X172581284Y-110769523D02*
X172486046Y-110721904D01*
X172486046Y-110721904D02*
X172438427Y-110674285D01*
X172438427Y-110674285D02*
X172390808Y-110579047D01*
X172390808Y-110579047D02*
X172390808Y-110436190D01*
X172390808Y-110436190D02*
X172438427Y-110340952D01*
X172438427Y-110340952D02*
X172486046Y-110293333D01*
X172486046Y-110293333D02*
X172581284Y-110245714D01*
X172581284Y-110245714D02*
X172866998Y-110245714D01*
X172866998Y-110245714D02*
X172962236Y-110293333D01*
X172962236Y-110293333D02*
X173009856Y-110340952D01*
X173009856Y-110340952D02*
X173057475Y-110436190D01*
X173057475Y-110436190D02*
X173057475Y-110579047D01*
X172390808Y-109817142D02*
X173057475Y-109817142D01*
X172486046Y-109817142D02*
X172438427Y-109769523D01*
X172438427Y-109769523D02*
X172390808Y-109674285D01*
X172390808Y-109674285D02*
X172390808Y-109531428D01*
X172390808Y-109531428D02*
X172438427Y-109436190D01*
X172438427Y-109436190D02*
X172533665Y-109388571D01*
X172533665Y-109388571D02*
X173057475Y-109388571D01*
X173009856Y-108531428D02*
X173057475Y-108626666D01*
X173057475Y-108626666D02*
X173057475Y-108817142D01*
X173057475Y-108817142D02*
X173009856Y-108912380D01*
X173009856Y-108912380D02*
X172914617Y-108959999D01*
X172914617Y-108959999D02*
X172533665Y-108959999D01*
X172533665Y-108959999D02*
X172438427Y-108912380D01*
X172438427Y-108912380D02*
X172390808Y-108817142D01*
X172390808Y-108817142D02*
X172390808Y-108626666D01*
X172390808Y-108626666D02*
X172438427Y-108531428D01*
X172438427Y-108531428D02*
X172533665Y-108483809D01*
X172533665Y-108483809D02*
X172628903Y-108483809D01*
X172628903Y-108483809D02*
X172724141Y-108959999D01*
X172390808Y-108055237D02*
X173057475Y-108055237D01*
X172486046Y-108055237D02*
X172438427Y-108007618D01*
X172438427Y-108007618D02*
X172390808Y-107912380D01*
X172390808Y-107912380D02*
X172390808Y-107769523D01*
X172390808Y-107769523D02*
X172438427Y-107674285D01*
X172438427Y-107674285D02*
X172533665Y-107626666D01*
X172533665Y-107626666D02*
X173057475Y-107626666D01*
X172390808Y-107293332D02*
X172390808Y-106912380D01*
X172057475Y-107150475D02*
X172914617Y-107150475D01*
X172914617Y-107150475D02*
X173009856Y-107102856D01*
X173009856Y-107102856D02*
X173057475Y-107007618D01*
X173057475Y-107007618D02*
X173057475Y-106912380D01*
X174000752Y-113483809D02*
X174000752Y-113102857D01*
X173667419Y-113340952D02*
X174524561Y-113340952D01*
X174524561Y-113340952D02*
X174619800Y-113293333D01*
X174619800Y-113293333D02*
X174667419Y-113198095D01*
X174667419Y-113198095D02*
X174667419Y-113102857D01*
X174667419Y-112626666D02*
X174619800Y-112721904D01*
X174619800Y-112721904D02*
X174572180Y-112769523D01*
X174572180Y-112769523D02*
X174476942Y-112817142D01*
X174476942Y-112817142D02*
X174191228Y-112817142D01*
X174191228Y-112817142D02*
X174095990Y-112769523D01*
X174095990Y-112769523D02*
X174048371Y-112721904D01*
X174048371Y-112721904D02*
X174000752Y-112626666D01*
X174000752Y-112626666D02*
X174000752Y-112483809D01*
X174000752Y-112483809D02*
X174048371Y-112388571D01*
X174048371Y-112388571D02*
X174095990Y-112340952D01*
X174095990Y-112340952D02*
X174191228Y-112293333D01*
X174191228Y-112293333D02*
X174476942Y-112293333D01*
X174476942Y-112293333D02*
X174572180Y-112340952D01*
X174572180Y-112340952D02*
X174619800Y-112388571D01*
X174619800Y-112388571D02*
X174667419Y-112483809D01*
X174667419Y-112483809D02*
X174667419Y-112626666D01*
X174667419Y-111102856D02*
X173667419Y-111102856D01*
X173667419Y-111102856D02*
X173667419Y-110721904D01*
X173667419Y-110721904D02*
X173715038Y-110626666D01*
X173715038Y-110626666D02*
X173762657Y-110579047D01*
X173762657Y-110579047D02*
X173857895Y-110531428D01*
X173857895Y-110531428D02*
X174000752Y-110531428D01*
X174000752Y-110531428D02*
X174095990Y-110579047D01*
X174095990Y-110579047D02*
X174143609Y-110626666D01*
X174143609Y-110626666D02*
X174191228Y-110721904D01*
X174191228Y-110721904D02*
X174191228Y-111102856D01*
X174572180Y-109531428D02*
X174619800Y-109579047D01*
X174619800Y-109579047D02*
X174667419Y-109721904D01*
X174667419Y-109721904D02*
X174667419Y-109817142D01*
X174667419Y-109817142D02*
X174619800Y-109959999D01*
X174619800Y-109959999D02*
X174524561Y-110055237D01*
X174524561Y-110055237D02*
X174429323Y-110102856D01*
X174429323Y-110102856D02*
X174238847Y-110150475D01*
X174238847Y-110150475D02*
X174095990Y-110150475D01*
X174095990Y-110150475D02*
X173905514Y-110102856D01*
X173905514Y-110102856D02*
X173810276Y-110055237D01*
X173810276Y-110055237D02*
X173715038Y-109959999D01*
X173715038Y-109959999D02*
X173667419Y-109817142D01*
X173667419Y-109817142D02*
X173667419Y-109721904D01*
X173667419Y-109721904D02*
X173715038Y-109579047D01*
X173715038Y-109579047D02*
X173762657Y-109531428D01*
X174143609Y-108769523D02*
X174191228Y-108626666D01*
X174191228Y-108626666D02*
X174238847Y-108579047D01*
X174238847Y-108579047D02*
X174334085Y-108531428D01*
X174334085Y-108531428D02*
X174476942Y-108531428D01*
X174476942Y-108531428D02*
X174572180Y-108579047D01*
X174572180Y-108579047D02*
X174619800Y-108626666D01*
X174619800Y-108626666D02*
X174667419Y-108721904D01*
X174667419Y-108721904D02*
X174667419Y-109102856D01*
X174667419Y-109102856D02*
X173667419Y-109102856D01*
X173667419Y-109102856D02*
X173667419Y-108769523D01*
X173667419Y-108769523D02*
X173715038Y-108674285D01*
X173715038Y-108674285D02*
X173762657Y-108626666D01*
X173762657Y-108626666D02*
X173857895Y-108579047D01*
X173857895Y-108579047D02*
X173953133Y-108579047D01*
X173953133Y-108579047D02*
X174048371Y-108626666D01*
X174048371Y-108626666D02*
X174095990Y-108674285D01*
X174095990Y-108674285D02*
X174143609Y-108769523D01*
X174143609Y-108769523D02*
X174143609Y-109102856D01*
D11*
X112866666Y-116934819D02*
X112866666Y-117649104D01*
X112866666Y-117649104D02*
X112819047Y-117791961D01*
X112819047Y-117791961D02*
X112723809Y-117887200D01*
X112723809Y-117887200D02*
X112580952Y-117934819D01*
X112580952Y-117934819D02*
X112485714Y-117934819D01*
X113485714Y-117363390D02*
X113390476Y-117315771D01*
X113390476Y-117315771D02*
X113342857Y-117268152D01*
X113342857Y-117268152D02*
X113295238Y-117172914D01*
X113295238Y-117172914D02*
X113295238Y-117125295D01*
X113295238Y-117125295D02*
X113342857Y-117030057D01*
X113342857Y-117030057D02*
X113390476Y-116982438D01*
X113390476Y-116982438D02*
X113485714Y-116934819D01*
X113485714Y-116934819D02*
X113676190Y-116934819D01*
X113676190Y-116934819D02*
X113771428Y-116982438D01*
X113771428Y-116982438D02*
X113819047Y-117030057D01*
X113819047Y-117030057D02*
X113866666Y-117125295D01*
X113866666Y-117125295D02*
X113866666Y-117172914D01*
X113866666Y-117172914D02*
X113819047Y-117268152D01*
X113819047Y-117268152D02*
X113771428Y-117315771D01*
X113771428Y-117315771D02*
X113676190Y-117363390D01*
X113676190Y-117363390D02*
X113485714Y-117363390D01*
X113485714Y-117363390D02*
X113390476Y-117411009D01*
X113390476Y-117411009D02*
X113342857Y-117458628D01*
X113342857Y-117458628D02*
X113295238Y-117553866D01*
X113295238Y-117553866D02*
X113295238Y-117744342D01*
X113295238Y-117744342D02*
X113342857Y-117839580D01*
X113342857Y-117839580D02*
X113390476Y-117887200D01*
X113390476Y-117887200D02*
X113485714Y-117934819D01*
X113485714Y-117934819D02*
X113676190Y-117934819D01*
X113676190Y-117934819D02*
X113771428Y-117887200D01*
X113771428Y-117887200D02*
X113819047Y-117839580D01*
X113819047Y-117839580D02*
X113866666Y-117744342D01*
X113866666Y-117744342D02*
X113866666Y-117553866D01*
X113866666Y-117553866D02*
X113819047Y-117458628D01*
X113819047Y-117458628D02*
X113771428Y-117411009D01*
X113771428Y-117411009D02*
X113676190Y-117363390D01*
X99292235Y-114806583D02*
X99435092Y-114854202D01*
X99435092Y-114854202D02*
X99673187Y-114854202D01*
X99673187Y-114854202D02*
X99768425Y-114806583D01*
X99768425Y-114806583D02*
X99816044Y-114758963D01*
X99816044Y-114758963D02*
X99863663Y-114663725D01*
X99863663Y-114663725D02*
X99863663Y-114568487D01*
X99863663Y-114568487D02*
X99816044Y-114473249D01*
X99816044Y-114473249D02*
X99768425Y-114425630D01*
X99768425Y-114425630D02*
X99673187Y-114378011D01*
X99673187Y-114378011D02*
X99482711Y-114330392D01*
X99482711Y-114330392D02*
X99387473Y-114282773D01*
X99387473Y-114282773D02*
X99339854Y-114235154D01*
X99339854Y-114235154D02*
X99292235Y-114139916D01*
X99292235Y-114139916D02*
X99292235Y-114044678D01*
X99292235Y-114044678D02*
X99339854Y-113949440D01*
X99339854Y-113949440D02*
X99387473Y-113901821D01*
X99387473Y-113901821D02*
X99482711Y-113854202D01*
X99482711Y-113854202D02*
X99720806Y-113854202D01*
X99720806Y-113854202D02*
X99863663Y-113901821D01*
X100196997Y-113854202D02*
X100435092Y-114854202D01*
X100435092Y-114854202D02*
X100625568Y-114139916D01*
X100625568Y-114139916D02*
X100816044Y-114854202D01*
X100816044Y-114854202D02*
X101054140Y-113854202D01*
X101958901Y-114854202D02*
X101387473Y-114854202D01*
X101673187Y-114854202D02*
X101673187Y-113854202D01*
X101673187Y-113854202D02*
X101577949Y-113997059D01*
X101577949Y-113997059D02*
X101482711Y-114092297D01*
X101482711Y-114092297D02*
X101387473Y-114139916D01*
X126241905Y-120004819D02*
X126241905Y-119004819D01*
X126241905Y-119004819D02*
X126480000Y-119004819D01*
X126480000Y-119004819D02*
X126622857Y-119052438D01*
X126622857Y-119052438D02*
X126718095Y-119147676D01*
X126718095Y-119147676D02*
X126765714Y-119242914D01*
X126765714Y-119242914D02*
X126813333Y-119433390D01*
X126813333Y-119433390D02*
X126813333Y-119576247D01*
X126813333Y-119576247D02*
X126765714Y-119766723D01*
X126765714Y-119766723D02*
X126718095Y-119861961D01*
X126718095Y-119861961D02*
X126622857Y-119957200D01*
X126622857Y-119957200D02*
X126480000Y-120004819D01*
X126480000Y-120004819D02*
X126241905Y-120004819D01*
X127384762Y-119433390D02*
X127289524Y-119385771D01*
X127289524Y-119385771D02*
X127241905Y-119338152D01*
X127241905Y-119338152D02*
X127194286Y-119242914D01*
X127194286Y-119242914D02*
X127194286Y-119195295D01*
X127194286Y-119195295D02*
X127241905Y-119100057D01*
X127241905Y-119100057D02*
X127289524Y-119052438D01*
X127289524Y-119052438D02*
X127384762Y-119004819D01*
X127384762Y-119004819D02*
X127575238Y-119004819D01*
X127575238Y-119004819D02*
X127670476Y-119052438D01*
X127670476Y-119052438D02*
X127718095Y-119100057D01*
X127718095Y-119100057D02*
X127765714Y-119195295D01*
X127765714Y-119195295D02*
X127765714Y-119242914D01*
X127765714Y-119242914D02*
X127718095Y-119338152D01*
X127718095Y-119338152D02*
X127670476Y-119385771D01*
X127670476Y-119385771D02*
X127575238Y-119433390D01*
X127575238Y-119433390D02*
X127384762Y-119433390D01*
X127384762Y-119433390D02*
X127289524Y-119481009D01*
X127289524Y-119481009D02*
X127241905Y-119528628D01*
X127241905Y-119528628D02*
X127194286Y-119623866D01*
X127194286Y-119623866D02*
X127194286Y-119814342D01*
X127194286Y-119814342D02*
X127241905Y-119909580D01*
X127241905Y-119909580D02*
X127289524Y-119957200D01*
X127289524Y-119957200D02*
X127384762Y-120004819D01*
X127384762Y-120004819D02*
X127575238Y-120004819D01*
X127575238Y-120004819D02*
X127670476Y-119957200D01*
X127670476Y-119957200D02*
X127718095Y-119909580D01*
X127718095Y-119909580D02*
X127765714Y-119814342D01*
X127765714Y-119814342D02*
X127765714Y-119623866D01*
X127765714Y-119623866D02*
X127718095Y-119528628D01*
X127718095Y-119528628D02*
X127670476Y-119481009D01*
X127670476Y-119481009D02*
X127575238Y-119433390D01*
X164457142Y-118409580D02*
X164409523Y-118457200D01*
X164409523Y-118457200D02*
X164266666Y-118504819D01*
X164266666Y-118504819D02*
X164171428Y-118504819D01*
X164171428Y-118504819D02*
X164028571Y-118457200D01*
X164028571Y-118457200D02*
X163933333Y-118361961D01*
X163933333Y-118361961D02*
X163885714Y-118266723D01*
X163885714Y-118266723D02*
X163838095Y-118076247D01*
X163838095Y-118076247D02*
X163838095Y-117933390D01*
X163838095Y-117933390D02*
X163885714Y-117742914D01*
X163885714Y-117742914D02*
X163933333Y-117647676D01*
X163933333Y-117647676D02*
X164028571Y-117552438D01*
X164028571Y-117552438D02*
X164171428Y-117504819D01*
X164171428Y-117504819D02*
X164266666Y-117504819D01*
X164266666Y-117504819D02*
X164409523Y-117552438D01*
X164409523Y-117552438D02*
X164457142Y-117600057D01*
X165409523Y-118504819D02*
X164838095Y-118504819D01*
X165123809Y-118504819D02*
X165123809Y-117504819D01*
X165123809Y-117504819D02*
X165028571Y-117647676D01*
X165028571Y-117647676D02*
X164933333Y-117742914D01*
X164933333Y-117742914D02*
X164838095Y-117790533D01*
X166266666Y-117838152D02*
X166266666Y-118504819D01*
X166028571Y-117457200D02*
X165790476Y-118171485D01*
X165790476Y-118171485D02*
X166409523Y-118171485D01*
X158166666Y-129754819D02*
X158166666Y-130469104D01*
X158166666Y-130469104D02*
X158119047Y-130611961D01*
X158119047Y-130611961D02*
X158023809Y-130707200D01*
X158023809Y-130707200D02*
X157880952Y-130754819D01*
X157880952Y-130754819D02*
X157785714Y-130754819D01*
X159071428Y-129754819D02*
X158880952Y-129754819D01*
X158880952Y-129754819D02*
X158785714Y-129802438D01*
X158785714Y-129802438D02*
X158738095Y-129850057D01*
X158738095Y-129850057D02*
X158642857Y-129992914D01*
X158642857Y-129992914D02*
X158595238Y-130183390D01*
X158595238Y-130183390D02*
X158595238Y-130564342D01*
X158595238Y-130564342D02*
X158642857Y-130659580D01*
X158642857Y-130659580D02*
X158690476Y-130707200D01*
X158690476Y-130707200D02*
X158785714Y-130754819D01*
X158785714Y-130754819D02*
X158976190Y-130754819D01*
X158976190Y-130754819D02*
X159071428Y-130707200D01*
X159071428Y-130707200D02*
X159119047Y-130659580D01*
X159119047Y-130659580D02*
X159166666Y-130564342D01*
X159166666Y-130564342D02*
X159166666Y-130326247D01*
X159166666Y-130326247D02*
X159119047Y-130231009D01*
X159119047Y-130231009D02*
X159071428Y-130183390D01*
X159071428Y-130183390D02*
X158976190Y-130135771D01*
X158976190Y-130135771D02*
X158785714Y-130135771D01*
X158785714Y-130135771D02*
X158690476Y-130183390D01*
X158690476Y-130183390D02*
X158642857Y-130231009D01*
X158642857Y-130231009D02*
X158595238Y-130326247D01*
X175557142Y-124659580D02*
X175509523Y-124707200D01*
X175509523Y-124707200D02*
X175366666Y-124754819D01*
X175366666Y-124754819D02*
X175271428Y-124754819D01*
X175271428Y-124754819D02*
X175128571Y-124707200D01*
X175128571Y-124707200D02*
X175033333Y-124611961D01*
X175033333Y-124611961D02*
X174985714Y-124516723D01*
X174985714Y-124516723D02*
X174938095Y-124326247D01*
X174938095Y-124326247D02*
X174938095Y-124183390D01*
X174938095Y-124183390D02*
X174985714Y-123992914D01*
X174985714Y-123992914D02*
X175033333Y-123897676D01*
X175033333Y-123897676D02*
X175128571Y-123802438D01*
X175128571Y-123802438D02*
X175271428Y-123754819D01*
X175271428Y-123754819D02*
X175366666Y-123754819D01*
X175366666Y-123754819D02*
X175509523Y-123802438D01*
X175509523Y-123802438D02*
X175557142Y-123850057D01*
X176509523Y-124754819D02*
X175938095Y-124754819D01*
X176223809Y-124754819D02*
X176223809Y-123754819D01*
X176223809Y-123754819D02*
X176128571Y-123897676D01*
X176128571Y-123897676D02*
X176033333Y-123992914D01*
X176033333Y-123992914D02*
X175938095Y-124040533D01*
X177414285Y-123754819D02*
X176938095Y-123754819D01*
X176938095Y-123754819D02*
X176890476Y-124231009D01*
X176890476Y-124231009D02*
X176938095Y-124183390D01*
X176938095Y-124183390D02*
X177033333Y-124135771D01*
X177033333Y-124135771D02*
X177271428Y-124135771D01*
X177271428Y-124135771D02*
X177366666Y-124183390D01*
X177366666Y-124183390D02*
X177414285Y-124231009D01*
X177414285Y-124231009D02*
X177461904Y-124326247D01*
X177461904Y-124326247D02*
X177461904Y-124564342D01*
X177461904Y-124564342D02*
X177414285Y-124659580D01*
X177414285Y-124659580D02*
X177366666Y-124707200D01*
X177366666Y-124707200D02*
X177271428Y-124754819D01*
X177271428Y-124754819D02*
X177033333Y-124754819D01*
X177033333Y-124754819D02*
X176938095Y-124707200D01*
X176938095Y-124707200D02*
X176890476Y-124659580D01*
X146288095Y-124754819D02*
X146859523Y-124754819D01*
X146573809Y-125754819D02*
X146573809Y-124754819D01*
X147192857Y-125754819D02*
X147192857Y-124754819D01*
X147192857Y-124754819D02*
X147573809Y-124754819D01*
X147573809Y-124754819D02*
X147669047Y-124802438D01*
X147669047Y-124802438D02*
X147716666Y-124850057D01*
X147716666Y-124850057D02*
X147764285Y-124945295D01*
X147764285Y-124945295D02*
X147764285Y-125088152D01*
X147764285Y-125088152D02*
X147716666Y-125183390D01*
X147716666Y-125183390D02*
X147669047Y-125231009D01*
X147669047Y-125231009D02*
X147573809Y-125278628D01*
X147573809Y-125278628D02*
X147192857Y-125278628D01*
X148145238Y-124850057D02*
X148192857Y-124802438D01*
X148192857Y-124802438D02*
X148288095Y-124754819D01*
X148288095Y-124754819D02*
X148526190Y-124754819D01*
X148526190Y-124754819D02*
X148621428Y-124802438D01*
X148621428Y-124802438D02*
X148669047Y-124850057D01*
X148669047Y-124850057D02*
X148716666Y-124945295D01*
X148716666Y-124945295D02*
X148716666Y-125040533D01*
X148716666Y-125040533D02*
X148669047Y-125183390D01*
X148669047Y-125183390D02*
X148097619Y-125754819D01*
X148097619Y-125754819D02*
X148716666Y-125754819D01*
X103257142Y-127159580D02*
X103209523Y-127207200D01*
X103209523Y-127207200D02*
X103066666Y-127254819D01*
X103066666Y-127254819D02*
X102971428Y-127254819D01*
X102971428Y-127254819D02*
X102828571Y-127207200D01*
X102828571Y-127207200D02*
X102733333Y-127111961D01*
X102733333Y-127111961D02*
X102685714Y-127016723D01*
X102685714Y-127016723D02*
X102638095Y-126826247D01*
X102638095Y-126826247D02*
X102638095Y-126683390D01*
X102638095Y-126683390D02*
X102685714Y-126492914D01*
X102685714Y-126492914D02*
X102733333Y-126397676D01*
X102733333Y-126397676D02*
X102828571Y-126302438D01*
X102828571Y-126302438D02*
X102971428Y-126254819D01*
X102971428Y-126254819D02*
X103066666Y-126254819D01*
X103066666Y-126254819D02*
X103209523Y-126302438D01*
X103209523Y-126302438D02*
X103257142Y-126350057D01*
X104161904Y-126254819D02*
X103685714Y-126254819D01*
X103685714Y-126254819D02*
X103638095Y-126731009D01*
X103638095Y-126731009D02*
X103685714Y-126683390D01*
X103685714Y-126683390D02*
X103780952Y-126635771D01*
X103780952Y-126635771D02*
X104019047Y-126635771D01*
X104019047Y-126635771D02*
X104114285Y-126683390D01*
X104114285Y-126683390D02*
X104161904Y-126731009D01*
X104161904Y-126731009D02*
X104209523Y-126826247D01*
X104209523Y-126826247D02*
X104209523Y-127064342D01*
X104209523Y-127064342D02*
X104161904Y-127159580D01*
X104161904Y-127159580D02*
X104114285Y-127207200D01*
X104114285Y-127207200D02*
X104019047Y-127254819D01*
X104019047Y-127254819D02*
X103780952Y-127254819D01*
X103780952Y-127254819D02*
X103685714Y-127207200D01*
X103685714Y-127207200D02*
X103638095Y-127159580D01*
X105161904Y-127254819D02*
X104590476Y-127254819D01*
X104876190Y-127254819D02*
X104876190Y-126254819D01*
X104876190Y-126254819D02*
X104780952Y-126397676D01*
X104780952Y-126397676D02*
X104685714Y-126492914D01*
X104685714Y-126492914D02*
X104590476Y-126540533D01*
X121454819Y-135588094D02*
X120454819Y-135588094D01*
X120454819Y-135588094D02*
X120454819Y-135349999D01*
X120454819Y-135349999D02*
X120502438Y-135207142D01*
X120502438Y-135207142D02*
X120597676Y-135111904D01*
X120597676Y-135111904D02*
X120692914Y-135064285D01*
X120692914Y-135064285D02*
X120883390Y-135016666D01*
X120883390Y-135016666D02*
X121026247Y-135016666D01*
X121026247Y-135016666D02*
X121216723Y-135064285D01*
X121216723Y-135064285D02*
X121311961Y-135111904D01*
X121311961Y-135111904D02*
X121407200Y-135207142D01*
X121407200Y-135207142D02*
X121454819Y-135349999D01*
X121454819Y-135349999D02*
X121454819Y-135588094D01*
X120454819Y-134111904D02*
X120454819Y-134588094D01*
X120454819Y-134588094D02*
X120931009Y-134635713D01*
X120931009Y-134635713D02*
X120883390Y-134588094D01*
X120883390Y-134588094D02*
X120835771Y-134492856D01*
X120835771Y-134492856D02*
X120835771Y-134254761D01*
X120835771Y-134254761D02*
X120883390Y-134159523D01*
X120883390Y-134159523D02*
X120931009Y-134111904D01*
X120931009Y-134111904D02*
X121026247Y-134064285D01*
X121026247Y-134064285D02*
X121264342Y-134064285D01*
X121264342Y-134064285D02*
X121359580Y-134111904D01*
X121359580Y-134111904D02*
X121407200Y-134159523D01*
X121407200Y-134159523D02*
X121454819Y-134254761D01*
X121454819Y-134254761D02*
X121454819Y-134492856D01*
X121454819Y-134492856D02*
X121407200Y-134588094D01*
X121407200Y-134588094D02*
X121359580Y-134635713D01*
X150138095Y-110054819D02*
X150138095Y-110864342D01*
X150138095Y-110864342D02*
X150185714Y-110959580D01*
X150185714Y-110959580D02*
X150233333Y-111007200D01*
X150233333Y-111007200D02*
X150328571Y-111054819D01*
X150328571Y-111054819D02*
X150519047Y-111054819D01*
X150519047Y-111054819D02*
X150614285Y-111007200D01*
X150614285Y-111007200D02*
X150661904Y-110959580D01*
X150661904Y-110959580D02*
X150709523Y-110864342D01*
X150709523Y-110864342D02*
X150709523Y-110054819D01*
X151090476Y-110054819D02*
X151709523Y-110054819D01*
X151709523Y-110054819D02*
X151376190Y-110435771D01*
X151376190Y-110435771D02*
X151519047Y-110435771D01*
X151519047Y-110435771D02*
X151614285Y-110483390D01*
X151614285Y-110483390D02*
X151661904Y-110531009D01*
X151661904Y-110531009D02*
X151709523Y-110626247D01*
X151709523Y-110626247D02*
X151709523Y-110864342D01*
X151709523Y-110864342D02*
X151661904Y-110959580D01*
X151661904Y-110959580D02*
X151614285Y-111007200D01*
X151614285Y-111007200D02*
X151519047Y-111054819D01*
X151519047Y-111054819D02*
X151233333Y-111054819D01*
X151233333Y-111054819D02*
X151138095Y-111007200D01*
X151138095Y-111007200D02*
X151090476Y-110959580D01*
X143666666Y-129454819D02*
X143666666Y-130169104D01*
X143666666Y-130169104D02*
X143619047Y-130311961D01*
X143619047Y-130311961D02*
X143523809Y-130407200D01*
X143523809Y-130407200D02*
X143380952Y-130454819D01*
X143380952Y-130454819D02*
X143285714Y-130454819D01*
X144047619Y-129454819D02*
X144714285Y-129454819D01*
X144714285Y-129454819D02*
X144285714Y-130454819D01*
X83904819Y-107688094D02*
X82904819Y-107688094D01*
X82904819Y-107688094D02*
X82904819Y-107449999D01*
X82904819Y-107449999D02*
X82952438Y-107307142D01*
X82952438Y-107307142D02*
X83047676Y-107211904D01*
X83047676Y-107211904D02*
X83142914Y-107164285D01*
X83142914Y-107164285D02*
X83333390Y-107116666D01*
X83333390Y-107116666D02*
X83476247Y-107116666D01*
X83476247Y-107116666D02*
X83666723Y-107164285D01*
X83666723Y-107164285D02*
X83761961Y-107211904D01*
X83761961Y-107211904D02*
X83857200Y-107307142D01*
X83857200Y-107307142D02*
X83904819Y-107449999D01*
X83904819Y-107449999D02*
X83904819Y-107688094D01*
X83238152Y-106259523D02*
X83904819Y-106259523D01*
X82857200Y-106497618D02*
X83571485Y-106735713D01*
X83571485Y-106735713D02*
X83571485Y-106116666D01*
X155188095Y-125854819D02*
X155759523Y-125854819D01*
X155473809Y-126854819D02*
X155473809Y-125854819D01*
X156092857Y-126854819D02*
X156092857Y-125854819D01*
X156092857Y-125854819D02*
X156473809Y-125854819D01*
X156473809Y-125854819D02*
X156569047Y-125902438D01*
X156569047Y-125902438D02*
X156616666Y-125950057D01*
X156616666Y-125950057D02*
X156664285Y-126045295D01*
X156664285Y-126045295D02*
X156664285Y-126188152D01*
X156664285Y-126188152D02*
X156616666Y-126283390D01*
X156616666Y-126283390D02*
X156569047Y-126331009D01*
X156569047Y-126331009D02*
X156473809Y-126378628D01*
X156473809Y-126378628D02*
X156092857Y-126378628D01*
X156997619Y-125854819D02*
X157616666Y-125854819D01*
X157616666Y-125854819D02*
X157283333Y-126235771D01*
X157283333Y-126235771D02*
X157426190Y-126235771D01*
X157426190Y-126235771D02*
X157521428Y-126283390D01*
X157521428Y-126283390D02*
X157569047Y-126331009D01*
X157569047Y-126331009D02*
X157616666Y-126426247D01*
X157616666Y-126426247D02*
X157616666Y-126664342D01*
X157616666Y-126664342D02*
X157569047Y-126759580D01*
X157569047Y-126759580D02*
X157521428Y-126807200D01*
X157521428Y-126807200D02*
X157426190Y-126854819D01*
X157426190Y-126854819D02*
X157140476Y-126854819D01*
X157140476Y-126854819D02*
X157045238Y-126807200D01*
X157045238Y-126807200D02*
X156997619Y-126759580D01*
X97904819Y-121236904D02*
X98714342Y-121236904D01*
X98714342Y-121236904D02*
X98809580Y-121189285D01*
X98809580Y-121189285D02*
X98857200Y-121141666D01*
X98857200Y-121141666D02*
X98904819Y-121046428D01*
X98904819Y-121046428D02*
X98904819Y-120855952D01*
X98904819Y-120855952D02*
X98857200Y-120760714D01*
X98857200Y-120760714D02*
X98809580Y-120713095D01*
X98809580Y-120713095D02*
X98714342Y-120665476D01*
X98714342Y-120665476D02*
X97904819Y-120665476D01*
X97904819Y-119713095D02*
X97904819Y-120189285D01*
X97904819Y-120189285D02*
X98381009Y-120236904D01*
X98381009Y-120236904D02*
X98333390Y-120189285D01*
X98333390Y-120189285D02*
X98285771Y-120094047D01*
X98285771Y-120094047D02*
X98285771Y-119855952D01*
X98285771Y-119855952D02*
X98333390Y-119760714D01*
X98333390Y-119760714D02*
X98381009Y-119713095D01*
X98381009Y-119713095D02*
X98476247Y-119665476D01*
X98476247Y-119665476D02*
X98714342Y-119665476D01*
X98714342Y-119665476D02*
X98809580Y-119713095D01*
X98809580Y-119713095D02*
X98857200Y-119760714D01*
X98857200Y-119760714D02*
X98904819Y-119855952D01*
X98904819Y-119855952D02*
X98904819Y-120094047D01*
X98904819Y-120094047D02*
X98857200Y-120189285D01*
X98857200Y-120189285D02*
X98809580Y-120236904D01*
%TO.C,U1*%
D13*
X140265000Y-106510000D02*
X140265000Y-101890000D01*
X148335000Y-101890000D02*
X148335000Y-106510000D01*
X147880000Y-100340000D02*
X147640000Y-100010000D01*
X148120000Y-100010000D01*
X147880000Y-100340000D01*
G36*
X147880000Y-100340000D02*
G01*
X147640000Y-100010000D01*
X148120000Y-100010000D01*
X147880000Y-100340000D01*
G37*
%TO.C,TP4*%
X161550000Y-109550000D02*
G75*
G02*
X160150000Y-109550000I-700000J0D01*
G01*
X160150000Y-109550000D02*
G75*
G02*
X161550000Y-109550000I700000J0D01*
G01*
%TO.C,TP1*%
X157350000Y-122950000D02*
G75*
G02*
X155950000Y-122950000I-700000J0D01*
G01*
X155950000Y-122950000D02*
G75*
G02*
X157350000Y-122950000I700000J0D01*
G01*
%TO.C,J4*%
X86940000Y-146810000D02*
X86940000Y-132500000D01*
X96090000Y-128390000D02*
X92350000Y-128390000D01*
X102660000Y-146810000D02*
X86940000Y-146810000D01*
X102660000Y-146810000D02*
X102660000Y-132500000D01*
X86940000Y-132500000D02*
G75*
G02*
X89848352Y-128569587I4110000J0D01*
G01*
X100666806Y-128977042D02*
G75*
G02*
X102660000Y-132500000I-2116805J-3522957D01*
G01*
%TO.C,C50*%
X115940000Y-102840000D02*
X119690000Y-102840000D01*
X115940000Y-112295563D02*
X115940000Y-102840000D01*
X117004437Y-113360000D02*
X115940000Y-112295563D01*
X117004437Y-113360000D02*
X119690000Y-113360000D01*
X117815000Y-114225000D02*
X119065000Y-114225000D01*
X118440000Y-114850000D02*
X118440000Y-113600000D01*
X125395563Y-113360000D02*
X122710000Y-113360000D01*
X125395563Y-113360000D02*
X126460000Y-112295563D01*
X126460000Y-102840000D02*
X122710000Y-102840000D01*
X126460000Y-112295563D02*
X126460000Y-102840000D01*
%TO.C,J2*%
X107620000Y-92958272D02*
X108190000Y-92958272D01*
X107620000Y-98158272D02*
X107620000Y-92958272D01*
X107620000Y-98158272D02*
X108190000Y-98158272D01*
X108190000Y-92958272D02*
X108190000Y-91598272D01*
X109710000Y-92958272D02*
X110730000Y-92958272D01*
X109710000Y-98158272D02*
X110730000Y-98158272D01*
X112250000Y-92958272D02*
X113270000Y-92958272D01*
X112250000Y-98158272D02*
X113270000Y-98158272D01*
X114790000Y-92958272D02*
X115810000Y-92958272D01*
X114790000Y-98158272D02*
X115810000Y-98158272D01*
X117330000Y-92958272D02*
X118350000Y-92958272D01*
X117330000Y-98158272D02*
X118350000Y-98158272D01*
X119870000Y-92958272D02*
X120890000Y-92958272D01*
X119870000Y-98158272D02*
X120890000Y-98158272D01*
X122410000Y-92958272D02*
X123430000Y-92958272D01*
X122410000Y-98158272D02*
X123430000Y-98158272D01*
X124950000Y-92958272D02*
X125970000Y-92958272D01*
X124950000Y-98158272D02*
X125970000Y-98158272D01*
X127490000Y-92958272D02*
X128510000Y-92958272D01*
X127490000Y-98158272D02*
X128510000Y-98158272D01*
X130030000Y-92958272D02*
X131050000Y-92958272D01*
X130030000Y-98158272D02*
X131050000Y-98158272D01*
X132570000Y-92958272D02*
X133590000Y-92958272D01*
X132570000Y-98158272D02*
X133590000Y-98158272D01*
X135110000Y-92958272D02*
X136130000Y-92958272D01*
X135110000Y-98158272D02*
X136130000Y-98158272D01*
X137650000Y-92958272D02*
X138670000Y-92958272D01*
X137650000Y-98158272D02*
X138670000Y-98158272D01*
X140190000Y-92958272D02*
X141210000Y-92958272D01*
X140190000Y-98158272D02*
X141210000Y-98158272D01*
X142730000Y-92958272D02*
X143750000Y-92958272D01*
X142730000Y-98158272D02*
X143750000Y-98158272D01*
X145270000Y-92958272D02*
X146290000Y-92958272D01*
X145270000Y-98158272D02*
X146290000Y-98158272D01*
X147810000Y-92958272D02*
X148380000Y-92958272D01*
X147810000Y-98158272D02*
X148380000Y-98158272D01*
X148380000Y-98158272D02*
X148380000Y-92958272D01*
%TO.C,JP3*%
X127335000Y-109800000D02*
X130135000Y-109800000D01*
X127335000Y-111800000D02*
X127335000Y-109800000D01*
X130135000Y-109800000D02*
X130135000Y-111800000D01*
X130135000Y-111800000D02*
X127335000Y-111800000D01*
%TO.C,TP7*%
X139300000Y-115700000D02*
G75*
G02*
X137900000Y-115700000I-700000J0D01*
G01*
X137900000Y-115700000D02*
G75*
G02*
X139300000Y-115700000I700000J0D01*
G01*
%TO.C,L1*%
X85240000Y-96240000D02*
X88640000Y-96240000D01*
X85240000Y-108960000D02*
X85240000Y-96240000D01*
X88640000Y-108960000D02*
X85240000Y-108960000D01*
X94560000Y-96240000D02*
X97960000Y-96240000D01*
X97960000Y-96240000D02*
X97960000Y-108960000D01*
X97960000Y-108960000D02*
X94560000Y-108960000D01*
%TO.C,J3*%
X149790000Y-101380000D02*
X149790000Y-100000000D01*
X151170000Y-101380000D02*
X149790000Y-101380000D01*
X152440000Y-98620000D02*
X160170000Y-98620000D01*
X152440000Y-101380000D02*
X152440000Y-98620000D01*
X152440000Y-101380000D02*
X160170000Y-101380000D01*
X160170000Y-101380000D02*
X160170000Y-98620000D01*
%TO.C,TP6*%
X146700000Y-111700000D02*
G75*
G02*
X145300000Y-111700000I-700000J0D01*
G01*
X145300000Y-111700000D02*
G75*
G02*
X146700000Y-111700000I700000J0D01*
G01*
%TO.C,U2*%
D11*
X164090000Y-98250000D02*
X164090000Y-98340000D01*
X164090000Y-98250000D02*
X167910000Y-98250000D01*
X164090000Y-103250000D02*
X164090000Y-103160000D01*
X167910000Y-98250000D02*
X167910000Y-98340000D01*
X167910000Y-103250000D02*
X164090000Y-103250000D01*
X167910000Y-103250000D02*
X167910000Y-103160000D01*
X168280000Y-103250000D02*
G75*
G02*
X168220000Y-103250000I-30000J0D01*
G01*
X168220000Y-103250000D02*
G75*
G02*
X168280000Y-103250000I30000J0D01*
G01*
%TO.C,D2*%
D14*
X79090000Y-120800000D02*
X79090000Y-128000000D01*
X80060000Y-120800000D02*
X79090000Y-120800000D01*
X80060000Y-128000000D02*
X79090000Y-128000000D01*
X81690000Y-124400000D02*
X82710000Y-124400000D01*
X81690000Y-125420000D02*
X82710000Y-125420000D01*
X82200000Y-124400000D02*
X81690000Y-124400000D01*
X82200000Y-124400000D02*
X81690000Y-125420000D01*
X82200000Y-125920000D02*
X82200000Y-123890000D01*
X82710000Y-125420000D02*
X82200000Y-124400000D01*
X85310000Y-120800000D02*
X84340000Y-120800000D01*
X85310000Y-120800000D02*
X85310000Y-128000000D01*
X85310000Y-123210000D02*
X79090000Y-123210000D01*
X85310000Y-128000000D02*
X84340000Y-128000000D01*
D15*
X85180000Y-128340000D02*
G75*
G02*
X85120000Y-128340000I-30000J0D01*
G01*
X85120000Y-128340000D02*
G75*
G02*
X85180000Y-128340000I30000J0D01*
G01*
%TO.C,JP1*%
D13*
X127300000Y-104700000D02*
X130100000Y-104700000D01*
X127300000Y-106700000D02*
X127300000Y-104700000D01*
X130100000Y-104700000D02*
X130100000Y-106700000D01*
X130100000Y-106700000D02*
X127300000Y-106700000D01*
%TO.C,J5*%
X103640000Y-138110000D02*
X103640000Y-132500000D01*
X104490000Y-138110000D02*
X103640000Y-138110000D01*
X104490000Y-145810000D02*
X104490000Y-138110000D01*
X113950000Y-128390000D02*
X110210000Y-128390000D01*
X118510000Y-145810000D02*
X104490000Y-145810000D01*
X118510000Y-145810000D02*
X118510000Y-138110000D01*
X119360000Y-138110000D02*
X118510000Y-138110000D01*
X119360000Y-138110000D02*
X119360000Y-132500000D01*
X103640000Y-132500000D02*
G75*
G02*
X105633194Y-128977042I4110000J0D01*
G01*
X116489900Y-128541282D02*
G75*
G02*
X119360000Y-132500000I-1239898J-3918716D01*
G01*
%TO.C,C12*%
X130590000Y-113904437D02*
X130590000Y-119660000D01*
X130590000Y-119660000D02*
X132940000Y-119660000D01*
X131654437Y-112840000D02*
X130590000Y-113904437D01*
X131654437Y-112840000D02*
X132940000Y-112840000D01*
X135847500Y-111812500D02*
X135847500Y-112600000D01*
X136241250Y-112206250D02*
X135453750Y-112206250D01*
X136345563Y-112840000D02*
X135060000Y-112840000D01*
X136345563Y-112840000D02*
X137410000Y-113904437D01*
X137410000Y-113904437D02*
X137410000Y-119660000D01*
X137410000Y-119660000D02*
X135060000Y-119660000D01*
%TO.C,JP2*%
X127300000Y-107230000D02*
X130100000Y-107230000D01*
X127300000Y-109230000D02*
X127300000Y-107230000D01*
X130100000Y-107230000D02*
X130100000Y-109230000D01*
X130100000Y-109230000D02*
X127300000Y-109230000D01*
%TO.C,D6*%
D14*
X116900000Y-120960000D02*
X116900000Y-119990000D01*
X116900000Y-126210000D02*
X116900000Y-125240000D01*
X118980000Y-123100000D02*
X121010000Y-123100000D01*
X119480000Y-122590000D02*
X119480000Y-123610000D01*
X119480000Y-123610000D02*
X120500000Y-123100000D01*
X120500000Y-122590000D02*
X120500000Y-123610000D01*
X120500000Y-123100000D02*
X119480000Y-122590000D01*
X120500000Y-123100000D02*
X120500000Y-122590000D01*
X121690000Y-126210000D02*
X121690000Y-119990000D01*
X124100000Y-119990000D02*
X116900000Y-119990000D01*
X124100000Y-120960000D02*
X124100000Y-119990000D01*
X124100000Y-126210000D02*
X116900000Y-126210000D01*
X124100000Y-126210000D02*
X124100000Y-125240000D01*
D15*
X116590000Y-126050000D02*
G75*
G02*
X116530000Y-126050000I-30000J0D01*
G01*
X116530000Y-126050000D02*
G75*
G02*
X116590000Y-126050000I30000J0D01*
G01*
%TO.C,TP8*%
D13*
X106000000Y-101700000D02*
G75*
G02*
X104600000Y-101700000I-700000J0D01*
G01*
X104600000Y-101700000D02*
G75*
G02*
X106000000Y-101700000I700000J0D01*
G01*
%TO.C,TP5*%
X156100000Y-112050000D02*
G75*
G02*
X154700000Y-112050000I-700000J0D01*
G01*
X154700000Y-112050000D02*
G75*
G02*
X156100000Y-112050000I700000J0D01*
G01*
%TO.C,RV1*%
X162775000Y-106125000D02*
X167825000Y-106125000D01*
X162775000Y-115875000D02*
X162775000Y-106125000D01*
X167825000Y-106125000D02*
X167825000Y-115875000D01*
X167825000Y-115875000D02*
X162775000Y-115875000D01*
%TO.C,J8*%
X111820000Y-118480000D02*
X113200000Y-118480000D01*
X111820000Y-119860000D02*
X111820000Y-118480000D01*
X111820000Y-121130000D02*
X111820000Y-126320000D01*
X111820000Y-121130000D02*
X114580000Y-121130000D01*
X111820000Y-126320000D02*
X114580000Y-126320000D01*
X114580000Y-121130000D02*
X114580000Y-126320000D01*
%TO.C,SW1*%
X101452500Y-111845000D02*
X101452500Y-110462000D01*
X101452500Y-111845000D02*
X102762500Y-111845000D01*
X101692500Y-104785000D02*
X102842500Y-104785000D01*
X101692500Y-111605000D02*
X101692500Y-104785000D01*
X101692500Y-111605000D02*
X102762500Y-111605000D01*
X103167500Y-108798333D02*
X104437500Y-108798333D01*
X104762500Y-104785000D02*
X105382500Y-104785000D01*
X104842500Y-111605000D02*
X105382500Y-111605000D01*
X105707500Y-108798333D02*
X106977500Y-108798333D01*
X107302500Y-104785000D02*
X107922500Y-104785000D01*
X107302500Y-111605000D02*
X107922500Y-111605000D01*
X108247500Y-108798333D02*
X109517500Y-108798333D01*
X109842500Y-104785000D02*
X110462500Y-104785000D01*
X109842500Y-111605000D02*
X110462500Y-111605000D01*
X110787500Y-108798333D02*
X112057500Y-108798333D01*
X112382500Y-104785000D02*
X113532500Y-104785000D01*
X112382500Y-111605000D02*
X113532500Y-111605000D01*
X113532500Y-111605000D02*
X113532500Y-104785000D01*
X103167500Y-106385000D02*
X104437500Y-106385000D01*
X104437500Y-110005000D01*
X103167500Y-110005000D01*
X103167500Y-106385000D01*
X103167500Y-108798333D02*
X104437500Y-108798333D01*
X104437500Y-110005000D01*
X103167500Y-110005000D01*
X103167500Y-108798333D01*
G36*
X103167500Y-108798333D02*
G01*
X104437500Y-108798333D01*
X104437500Y-110005000D01*
X103167500Y-110005000D01*
X103167500Y-108798333D01*
G37*
X105707500Y-106385000D02*
X106977500Y-106385000D01*
X106977500Y-110005000D01*
X105707500Y-110005000D01*
X105707500Y-106385000D01*
X105707500Y-108798333D02*
X106977500Y-108798333D01*
X106977500Y-110005000D01*
X105707500Y-110005000D01*
X105707500Y-108798333D01*
G36*
X105707500Y-108798333D02*
G01*
X106977500Y-108798333D01*
X106977500Y-110005000D01*
X105707500Y-110005000D01*
X105707500Y-108798333D01*
G37*
X108247500Y-106385000D02*
X109517500Y-106385000D01*
X109517500Y-110005000D01*
X108247500Y-110005000D01*
X108247500Y-106385000D01*
X108247500Y-108798333D02*
X109517500Y-108798333D01*
X109517500Y-110005000D01*
X108247500Y-110005000D01*
X108247500Y-108798333D01*
G36*
X108247500Y-108798333D02*
G01*
X109517500Y-108798333D01*
X109517500Y-110005000D01*
X108247500Y-110005000D01*
X108247500Y-108798333D01*
G37*
X110787500Y-106385000D02*
X112057500Y-106385000D01*
X112057500Y-110005000D01*
X110787500Y-110005000D01*
X110787500Y-106385000D01*
X110787500Y-108798333D02*
X112057500Y-108798333D01*
X112057500Y-110005000D01*
X110787500Y-110005000D01*
X110787500Y-108798333D01*
G36*
X110787500Y-108798333D02*
G01*
X112057500Y-108798333D01*
X112057500Y-110005000D01*
X110787500Y-110005000D01*
X110787500Y-108798333D01*
G37*
%TO.C,D8*%
D14*
X125890000Y-121700000D02*
X125890000Y-128900000D01*
X126860000Y-121700000D02*
X125890000Y-121700000D01*
X126860000Y-128900000D02*
X125890000Y-128900000D01*
X128490000Y-125300000D02*
X129510000Y-125300000D01*
X128490000Y-126320000D02*
X129510000Y-126320000D01*
X129000000Y-125300000D02*
X128490000Y-125300000D01*
X129000000Y-125300000D02*
X128490000Y-126320000D01*
X129000000Y-126820000D02*
X129000000Y-124790000D01*
X129510000Y-126320000D02*
X129000000Y-125300000D01*
X132110000Y-121700000D02*
X131140000Y-121700000D01*
X132110000Y-121700000D02*
X132110000Y-128900000D01*
X132110000Y-124110000D02*
X125890000Y-124110000D01*
X132110000Y-128900000D02*
X131140000Y-128900000D01*
D15*
X131980000Y-129240000D02*
G75*
G02*
X131920000Y-129240000I-30000J0D01*
G01*
X131920000Y-129240000D02*
G75*
G02*
X131980000Y-129240000I30000J0D01*
G01*
%TO.C,C14*%
D13*
X167012500Y-117852500D02*
X167800000Y-117852500D01*
X167406250Y-117458750D02*
X167406250Y-118246250D01*
X168040000Y-117354437D02*
X168040000Y-118640000D01*
X168040000Y-117354437D02*
X169104437Y-116290000D01*
X168040000Y-122045563D02*
X168040000Y-120760000D01*
X168040000Y-122045563D02*
X169104437Y-123110000D01*
X169104437Y-116290000D02*
X174860000Y-116290000D01*
X169104437Y-123110000D02*
X174860000Y-123110000D01*
X174860000Y-116290000D02*
X174860000Y-118640000D01*
X174860000Y-123110000D02*
X174860000Y-120760000D01*
%TO.C,J6*%
X158440000Y-131340000D02*
X159860000Y-131340000D01*
X158440000Y-143060000D02*
X158440000Y-131340000D01*
X159860000Y-131340000D02*
X159860000Y-135840000D01*
X160700000Y-133250000D02*
X161300000Y-133250000D01*
X161000000Y-133850000D02*
X160700000Y-133250000D01*
X161300000Y-133250000D02*
X161000000Y-133850000D01*
X163500000Y-143060000D02*
X158440000Y-143060000D01*
X163500000Y-143060000D02*
X168560000Y-143060000D01*
X167140000Y-131340000D02*
X167140000Y-135840000D01*
X168560000Y-131340000D02*
X167140000Y-131340000D01*
X168560000Y-143060000D02*
X168560000Y-131340000D01*
X160750000Y-136950000D02*
X161250000Y-136950000D01*
X161250000Y-142450000D01*
X160750000Y-142450000D01*
X160750000Y-136950000D01*
X163250000Y-136950000D02*
X163750000Y-136950000D01*
X163750000Y-142450000D01*
X163250000Y-142450000D01*
X163250000Y-136950000D01*
X165750000Y-136950000D02*
X166250000Y-136950000D01*
X166250000Y-142450000D01*
X165750000Y-142450000D01*
X165750000Y-136950000D01*
%TO.C,C15*%
X166762500Y-125102500D02*
X167550000Y-125102500D01*
X167156250Y-124708750D02*
X167156250Y-125496250D01*
X167790000Y-124604437D02*
X167790000Y-125890000D01*
X167790000Y-124604437D02*
X168854437Y-123540000D01*
X167790000Y-129295563D02*
X167790000Y-128010000D01*
X167790000Y-129295563D02*
X168854437Y-130360000D01*
X168854437Y-123540000D02*
X174610000Y-123540000D01*
X168854437Y-130360000D02*
X174610000Y-130360000D01*
X174610000Y-123540000D02*
X174610000Y-125890000D01*
X174610000Y-130360000D02*
X174610000Y-128010000D01*
%TO.C,TP2*%
X150700000Y-124850000D02*
G75*
G02*
X149300000Y-124850000I-700000J0D01*
G01*
X149300000Y-124850000D02*
G75*
G02*
X150700000Y-124850000I700000J0D01*
G01*
%TO.C,C51*%
X98640000Y-115340000D02*
X98640000Y-119090000D01*
X98640000Y-125860000D02*
X98640000Y-122110000D01*
X108095563Y-115340000D02*
X98640000Y-115340000D01*
X108095563Y-125860000D02*
X98640000Y-125860000D01*
X109160000Y-116404437D02*
X108095563Y-115340000D01*
X109160000Y-116404437D02*
X109160000Y-119090000D01*
X109160000Y-124795563D02*
X108095563Y-125860000D01*
X109160000Y-124795563D02*
X109160000Y-122110000D01*
X110025000Y-123985000D02*
X110025000Y-122735000D01*
X110650000Y-123360000D02*
X109400000Y-123360000D01*
%TO.C,D5*%
D14*
X123400000Y-132460000D02*
X123400000Y-131490000D01*
X123400000Y-137710000D02*
X123400000Y-136740000D01*
X125480000Y-134600000D02*
X127510000Y-134600000D01*
X125980000Y-134090000D02*
X125980000Y-135110000D01*
X125980000Y-135110000D02*
X127000000Y-134600000D01*
X127000000Y-134090000D02*
X127000000Y-135110000D01*
X127000000Y-134600000D02*
X125980000Y-134090000D01*
X127000000Y-134600000D02*
X127000000Y-134090000D01*
X128190000Y-137710000D02*
X128190000Y-131490000D01*
X130600000Y-131490000D02*
X123400000Y-131490000D01*
X130600000Y-132460000D02*
X130600000Y-131490000D01*
X130600000Y-137710000D02*
X123400000Y-137710000D01*
X130600000Y-137710000D02*
X130600000Y-136740000D01*
D15*
X123090000Y-137550000D02*
G75*
G02*
X123030000Y-137550000I-30000J0D01*
G01*
X123030000Y-137550000D02*
G75*
G02*
X123090000Y-137550000I30000J0D01*
G01*
%TO.C,U3*%
D13*
X147015000Y-113015000D02*
X147465000Y-113015000D01*
X147015000Y-113465000D02*
X147015000Y-113015000D01*
X147015000Y-120235000D02*
X147015000Y-119785000D01*
X147465000Y-120235000D02*
X147015000Y-120235000D01*
X153785000Y-113015000D02*
X154235000Y-113015000D01*
X154235000Y-113015000D02*
X154235000Y-113465000D01*
X154235000Y-119785000D02*
X154235000Y-120235000D01*
X154235000Y-120235000D02*
X153785000Y-120235000D01*
X154255000Y-112715000D02*
X153785000Y-112375000D01*
X154255000Y-112035000D01*
X154255000Y-112715000D01*
G36*
X154255000Y-112715000D02*
G01*
X153785000Y-112375000D01*
X154255000Y-112035000D01*
X154255000Y-112715000D01*
G37*
%TO.C,D7*%
D11*
X174603662Y-100627037D02*
X174603662Y-102917037D01*
X174603662Y-102917037D02*
X176063662Y-102917037D01*
X176063662Y-102917037D02*
X176063662Y-100627037D01*
%TO.C,J7*%
D13*
X143940000Y-131245000D02*
X145360000Y-131245000D01*
X143940000Y-142965000D02*
X143940000Y-131245000D01*
X145360000Y-131245000D02*
X145360000Y-135745000D01*
X145360000Y-135745000D02*
X150250000Y-135745000D01*
X146200000Y-131555000D02*
X146800000Y-131555000D01*
X146500000Y-132155000D02*
X146200000Y-131555000D01*
X146800000Y-131555000D02*
X146500000Y-132155000D01*
X150250000Y-142965000D02*
X143940000Y-142965000D01*
X150250000Y-142965000D02*
X156560000Y-142965000D01*
X155140000Y-131245000D02*
X155140000Y-135745000D01*
X155140000Y-135745000D02*
X150250000Y-135745000D01*
X156560000Y-131245000D02*
X155140000Y-131245000D01*
X156560000Y-142965000D02*
X156560000Y-131245000D01*
X146250000Y-136855000D02*
X146750000Y-136855000D01*
X146750000Y-142355000D01*
X146250000Y-142355000D01*
X146250000Y-136855000D01*
X148750000Y-136855000D02*
X149250000Y-136855000D01*
X149250000Y-142355000D01*
X148750000Y-142355000D01*
X148750000Y-136855000D01*
X151250000Y-136855000D02*
X151750000Y-136855000D01*
X151750000Y-142355000D01*
X151250000Y-142355000D01*
X151250000Y-136855000D01*
X153750000Y-136855000D02*
X154250000Y-136855000D01*
X154250000Y-142355000D01*
X153750000Y-142355000D01*
X153750000Y-136855000D01*
%TO.C,D4*%
D14*
X79490000Y-109500000D02*
X79490000Y-116700000D01*
X80460000Y-109500000D02*
X79490000Y-109500000D01*
X80460000Y-116700000D02*
X79490000Y-116700000D01*
X82090000Y-113100000D02*
X83110000Y-113100000D01*
X82090000Y-114120000D02*
X83110000Y-114120000D01*
X82600000Y-113100000D02*
X82090000Y-113100000D01*
X82600000Y-113100000D02*
X82090000Y-114120000D01*
X82600000Y-114620000D02*
X82600000Y-112590000D01*
X83110000Y-114120000D02*
X82600000Y-113100000D01*
X85710000Y-109500000D02*
X84740000Y-109500000D01*
X85710000Y-109500000D02*
X85710000Y-116700000D01*
X85710000Y-111910000D02*
X79490000Y-111910000D01*
X85710000Y-116700000D02*
X84740000Y-116700000D01*
D15*
X85580000Y-117040000D02*
G75*
G02*
X85520000Y-117040000I-30000J0D01*
G01*
X85520000Y-117040000D02*
G75*
G02*
X85580000Y-117040000I30000J0D01*
G01*
%TO.C,U4*%
D11*
X160460000Y-91370000D02*
X163400000Y-91370000D01*
X160460000Y-98030000D02*
X160460000Y-91370000D01*
X163400000Y-91370000D02*
X163400000Y-98030000D01*
X163400000Y-98030000D02*
X160460000Y-98030000D01*
X163810000Y-97700000D02*
G75*
G02*
X163750000Y-97700000I-30000J0D01*
G01*
X163750000Y-97700000D02*
G75*
G02*
X163810000Y-97700000I30000J0D01*
G01*
%TO.C,TP3*%
D13*
X154550000Y-126400000D02*
G75*
G02*
X153150000Y-126400000I-700000J0D01*
G01*
X153150000Y-126400000D02*
G75*
G02*
X154550000Y-126400000I700000J0D01*
G01*
%TO.C,U5*%
X86600000Y-115650000D02*
X87550000Y-115650000D01*
X86600000Y-117015000D02*
X86600000Y-115650000D01*
X97000000Y-115650000D02*
X96050000Y-115650000D01*
X97000000Y-117015000D02*
X97000000Y-115650000D01*
X96480000Y-113165000D02*
X96010000Y-112825000D01*
X96480000Y-112485000D01*
X96480000Y-113165000D01*
G36*
X96480000Y-113165000D02*
G01*
X96010000Y-112825000D01*
X96480000Y-112485000D01*
X96480000Y-113165000D01*
G37*
%TO.C,D3*%
D11*
X142485000Y-108225000D02*
X136675000Y-108225000D01*
X142485000Y-112525000D02*
X136675000Y-112525000D01*
X142485000Y-112525000D02*
X142485000Y-108225000D01*
%TD*%
%LPC*%
%TO.C,JP3*%
G36*
X127510000Y-110050000D02*
G01*
X129960000Y-110050000D01*
X129960000Y-111550000D01*
X127510000Y-111550000D01*
X127510000Y-110050000D01*
G37*
%TO.C,JP1*%
G36*
X127475000Y-104950000D02*
G01*
X129925000Y-104950000D01*
X129925000Y-106450000D01*
X127475000Y-106450000D01*
X127475000Y-104950000D01*
G37*
%TO.C,JP2*%
G36*
X127475000Y-107480000D02*
G01*
X129925000Y-107480000D01*
X129925000Y-108980000D01*
X127475000Y-108980000D01*
X127475000Y-107480000D01*
G37*
%TD*%
D16*
%TO.C,R8*%
X130800000Y-104600000D03*
X130800000Y-103600000D03*
%TD*%
D17*
%TO.C,U1*%
X147875000Y-101337500D03*
X147225000Y-101337500D03*
X146575000Y-101337500D03*
X145925000Y-101337500D03*
X145275000Y-101337500D03*
X144625000Y-101337500D03*
X143975000Y-101337500D03*
X143325000Y-101337500D03*
X142675000Y-101337500D03*
X142025000Y-101337500D03*
X141375000Y-101337500D03*
X140725000Y-101337500D03*
X140725000Y-107062500D03*
X141375000Y-107062500D03*
X142025000Y-107062500D03*
X142675000Y-107062500D03*
X143325000Y-107062500D03*
X143975000Y-107062500D03*
X144625000Y-107062500D03*
X145275000Y-107062500D03*
X145925000Y-107062500D03*
X146575000Y-107062500D03*
X147225000Y-107062500D03*
X147875000Y-107062500D03*
%TD*%
D18*
%TO.C,R19*%
X154700000Y-102200000D03*
X153700000Y-102200000D03*
%TD*%
D19*
%TO.C,R24*%
X153900000Y-108800000D03*
X154900000Y-108800000D03*
%TD*%
D20*
%TO.C,C6*%
X152620000Y-122400000D03*
X154180000Y-122400000D03*
%TD*%
D21*
%TO.C,C24*%
X95480000Y-91900000D03*
X93920000Y-91900000D03*
%TD*%
D22*
%TO.C,H1*%
X82000000Y-134000000D03*
D23*
X82000000Y-134000000D03*
%TD*%
D19*
%TO.C,R12*%
X99300000Y-109200000D03*
X100300000Y-109200000D03*
%TD*%
D24*
%TO.C,TP4*%
X160850000Y-109550000D03*
%TD*%
D25*
%TO.C,R4*%
X151880000Y-124200000D03*
X154800000Y-124200000D03*
%TD*%
D19*
%TO.C,R9*%
X135300000Y-102050000D03*
X136300000Y-102050000D03*
%TD*%
%TO.C,R10*%
X110800000Y-117400000D03*
X111800000Y-117400000D03*
%TD*%
D18*
%TO.C,R13*%
X100300000Y-106800000D03*
X99300000Y-106800000D03*
%TD*%
D16*
%TO.C,R18*%
X96900000Y-92900000D03*
X96900000Y-91900000D03*
%TD*%
D26*
%TO.C,R2*%
X155700000Y-103200000D03*
X155700000Y-104200000D03*
%TD*%
D27*
%TO.C,R6*%
X157800000Y-112360000D03*
X157800000Y-109440000D03*
%TD*%
D24*
%TO.C,TP1*%
X156650000Y-122950000D03*
%TD*%
D18*
%TO.C,R21*%
X152200000Y-97700000D03*
X151200000Y-97700000D03*
%TD*%
D28*
%TO.C,J4*%
X101550000Y-136350000D03*
X88050000Y-136350000D03*
D29*
X98400000Y-130350000D03*
D30*
X91200000Y-130350000D03*
%TD*%
D18*
%TO.C,R14*%
X100300000Y-103800000D03*
X99300000Y-103800000D03*
%TD*%
D20*
%TO.C,C20*%
X111020000Y-116400000D03*
X112580000Y-116400000D03*
%TD*%
D16*
%TO.C,R23*%
X152800000Y-103300000D03*
X152800000Y-102300000D03*
%TD*%
D31*
%TO.C,C50*%
X121200000Y-112100000D03*
X121200000Y-104100000D03*
%TD*%
D32*
%TO.C,J2*%
X108950000Y-93038272D03*
X108950000Y-98078272D03*
X111490000Y-93038272D03*
X111490000Y-98078272D03*
X114030000Y-93038272D03*
X114030000Y-98078272D03*
X116570000Y-93038272D03*
X116570000Y-98078272D03*
X119110000Y-93038272D03*
X119110000Y-98078272D03*
X121650000Y-93038272D03*
X121650000Y-98078272D03*
X124190000Y-93038272D03*
X124190000Y-98078272D03*
X126730000Y-93038272D03*
X126730000Y-98078272D03*
X129270000Y-93038272D03*
X129270000Y-98078272D03*
X131810000Y-93038272D03*
X131810000Y-98078272D03*
X134350000Y-93038272D03*
X134350000Y-98078272D03*
X136890000Y-93038272D03*
X136890000Y-98078272D03*
X139430000Y-93038272D03*
X139430000Y-98078272D03*
X141970000Y-93038272D03*
X141970000Y-98078272D03*
X144510000Y-93038272D03*
X144510000Y-98078272D03*
X147050000Y-93038272D03*
X147050000Y-98078272D03*
%TD*%
D33*
%TO.C,JP3*%
X128010000Y-110800000D03*
D34*
X129460000Y-110800000D03*
%TD*%
D24*
%TO.C,TP7*%
X138600000Y-115700000D03*
%TD*%
D19*
%TO.C,R22*%
X153900000Y-107900000D03*
X154900000Y-107900000D03*
%TD*%
D18*
%TO.C,R16*%
X100300000Y-105800000D03*
X99300000Y-105800000D03*
%TD*%
D35*
%TO.C,L1*%
X91600000Y-107550000D03*
X91600000Y-97650000D03*
%TD*%
D36*
%TO.C,H8*%
X169700000Y-90300000D03*
%TD*%
D37*
%TO.C,J3*%
X151170000Y-100000000D03*
D38*
X153710000Y-100000000D03*
X156250000Y-100000000D03*
X158790000Y-100000000D03*
%TD*%
D24*
%TO.C,TP6*%
X146000000Y-111700000D03*
%TD*%
D20*
%TO.C,C21*%
X114020000Y-116400000D03*
X115580000Y-116400000D03*
%TD*%
D36*
%TO.C,H7*%
X79100000Y-137000000D03*
%TD*%
D39*
%TO.C,U2*%
X168710000Y-102660000D03*
X168710000Y-101390000D03*
X168710000Y-100110000D03*
X168710000Y-98840000D03*
X163290000Y-98840000D03*
X163290000Y-100110000D03*
X163290000Y-101390000D03*
X163290000Y-102660000D03*
%TD*%
D40*
%TO.C,C3*%
X148875000Y-110567500D03*
X148875000Y-109007500D03*
%TD*%
D27*
%TO.C,R7*%
X143750000Y-112860000D03*
X143750000Y-109940000D03*
%TD*%
D26*
%TO.C,R25*%
X154600000Y-104500000D03*
X154600000Y-105500000D03*
%TD*%
D41*
%TO.C,D2*%
X82200000Y-120970000D03*
X82200000Y-127830000D03*
%TD*%
D33*
%TO.C,JP1*%
X127975000Y-105700000D03*
D34*
X129425000Y-105700000D03*
%TD*%
D28*
%TO.C,J5*%
X118250000Y-136350000D03*
X104750000Y-136350000D03*
D29*
X107900000Y-130350000D03*
D30*
X115100000Y-130350000D03*
%TD*%
D42*
%TO.C,C12*%
X134000000Y-113550000D03*
X134000000Y-118950000D03*
%TD*%
D33*
%TO.C,JP2*%
X127975000Y-108230000D03*
D34*
X129425000Y-108230000D03*
%TD*%
D43*
%TO.C,D6*%
X123930000Y-123100000D03*
X117070000Y-123100000D03*
%TD*%
D44*
%TO.C,H6*%
X153000000Y-94000000D03*
%TD*%
D16*
%TO.C,R26*%
X173600000Y-101600000D03*
X173600000Y-100600000D03*
%TD*%
D20*
%TO.C,C5*%
X154620000Y-121180000D03*
X156180000Y-121180000D03*
%TD*%
D26*
%TO.C,R5*%
X160700000Y-106850000D03*
X160700000Y-107850000D03*
%TD*%
D45*
%TO.C,C2*%
X161450000Y-102670000D03*
X161450000Y-104230000D03*
%TD*%
D18*
%TO.C,R1*%
X154200000Y-110600000D03*
X153200000Y-110600000D03*
%TD*%
D45*
%TO.C,C7*%
X156600000Y-118020000D03*
X156600000Y-119580000D03*
%TD*%
D44*
%TO.C,H5*%
X103000000Y-94000000D03*
%TD*%
D24*
%TO.C,TP8*%
X105300000Y-101700000D03*
%TD*%
%TO.C,TP5*%
X155400000Y-112050000D03*
%TD*%
D46*
%TO.C,RV1*%
X165295000Y-108460000D03*
X165295000Y-111000000D03*
X165295000Y-113540000D03*
%TD*%
D37*
%TO.C,J8*%
X113200000Y-119860000D03*
D38*
X113200000Y-122400000D03*
X113200000Y-124940000D03*
%TD*%
D18*
%TO.C,R15*%
X100300000Y-104800000D03*
X99300000Y-104800000D03*
%TD*%
D47*
%TO.C,SW1*%
X103802500Y-112005000D03*
D48*
X106342500Y-112005000D03*
X108882500Y-112005000D03*
X111422500Y-112005000D03*
X111422500Y-104385000D03*
X108882500Y-104385000D03*
X106342500Y-104385000D03*
X103802500Y-104385000D03*
%TD*%
D44*
%TO.C,H2*%
X174000000Y-134000000D03*
%TD*%
D41*
%TO.C,D8*%
X129000000Y-121870000D03*
X129000000Y-128730000D03*
%TD*%
D49*
%TO.C,C14*%
X168750000Y-119700000D03*
X174150000Y-119700000D03*
%TD*%
D40*
%TO.C,C1*%
X149050000Y-106980000D03*
X149050000Y-105420000D03*
%TD*%
D44*
%TO.C,H4*%
X174000000Y-92000000D03*
%TD*%
D50*
%TO.C,J6*%
X161000000Y-135350000D03*
D51*
X163500000Y-135350000D03*
X166000000Y-135350000D03*
%TD*%
D49*
%TO.C,C15*%
X168500000Y-126950000D03*
X173900000Y-126950000D03*
%TD*%
D52*
%TO.C,C11*%
X135570000Y-104800000D03*
X138530000Y-104800000D03*
%TD*%
D24*
%TO.C,TP2*%
X150000000Y-124850000D03*
%TD*%
D53*
%TO.C,C51*%
X107900000Y-120600000D03*
X99900000Y-120600000D03*
%TD*%
D21*
%TO.C,C18*%
X158780000Y-97300000D03*
X157220000Y-97300000D03*
%TD*%
D19*
%TO.C,R11*%
X114050000Y-117400000D03*
X115050000Y-117400000D03*
%TD*%
D43*
%TO.C,D5*%
X130430000Y-134600000D03*
X123570000Y-134600000D03*
%TD*%
D54*
%TO.C,U3*%
X153375000Y-112462500D03*
X152875000Y-112462500D03*
X152375000Y-112462500D03*
X151875000Y-112462500D03*
X151375000Y-112462500D03*
X150875000Y-112462500D03*
X150375000Y-112462500D03*
X149875000Y-112462500D03*
X149375000Y-112462500D03*
X148875000Y-112462500D03*
X148375000Y-112462500D03*
X147875000Y-112462500D03*
D55*
X146462500Y-113875000D03*
X146462500Y-114375000D03*
X146462500Y-114875000D03*
X146462500Y-115375000D03*
X146462500Y-115875000D03*
X146462500Y-116375000D03*
X146462500Y-116875000D03*
X146462500Y-117375000D03*
X146462500Y-117875000D03*
X146462500Y-118375000D03*
X146462500Y-118875000D03*
X146462500Y-119375000D03*
D54*
X147875000Y-120787500D03*
X148375000Y-120787500D03*
X148875000Y-120787500D03*
X149375000Y-120787500D03*
X149875000Y-120787500D03*
X150375000Y-120787500D03*
X150875000Y-120787500D03*
X151375000Y-120787500D03*
X151875000Y-120787500D03*
X152375000Y-120787500D03*
X152875000Y-120787500D03*
X153375000Y-120787500D03*
D55*
X154787500Y-119375000D03*
X154787500Y-118875000D03*
X154787500Y-118375000D03*
X154787500Y-117875000D03*
X154787500Y-117375000D03*
X154787500Y-116875000D03*
X154787500Y-116375000D03*
X154787500Y-115875000D03*
X154787500Y-115375000D03*
X154787500Y-114875000D03*
X154787500Y-114375000D03*
X154787500Y-113875000D03*
D56*
X150625000Y-116625000D03*
%TD*%
D36*
%TO.C,H9*%
X79000000Y-89000000D03*
%TD*%
D26*
%TO.C,R20*%
X149900000Y-96300000D03*
X149900000Y-97300000D03*
%TD*%
D57*
%TO.C,C10*%
X133600000Y-106680000D03*
X133600000Y-103720000D03*
%TD*%
D20*
%TO.C,C16*%
X167120000Y-92800000D03*
X168680000Y-92800000D03*
%TD*%
D45*
%TO.C,C4*%
X151700000Y-125970000D03*
X151700000Y-127530000D03*
%TD*%
D16*
%TO.C,R3*%
X156900000Y-104700000D03*
X156900000Y-103700000D03*
%TD*%
D40*
%TO.C,C23*%
X95500000Y-94880000D03*
X95500000Y-93320000D03*
%TD*%
%TO.C,C8*%
X131800000Y-105180000D03*
X131800000Y-103620000D03*
%TD*%
D16*
%TO.C,R17*%
X96900000Y-95000000D03*
X96900000Y-94000000D03*
%TD*%
D58*
%TO.C,D7*%
X175333662Y-102217037D03*
X175333662Y-100637037D03*
%TD*%
D50*
%TO.C,J7*%
X146500000Y-133655000D03*
D51*
X149000000Y-133655000D03*
X151500000Y-133655000D03*
X154000000Y-133655000D03*
%TD*%
D41*
%TO.C,D4*%
X82600000Y-109670000D03*
X82600000Y-116530000D03*
%TD*%
D59*
%TO.C,U4*%
X165000000Y-97000000D03*
X165000000Y-94700000D03*
X165000000Y-92400000D03*
D60*
X159030000Y-93700000D03*
X159030000Y-94700000D03*
D61*
X159030000Y-94700000D03*
D60*
X159030000Y-95700000D03*
%TD*%
D24*
%TO.C,TP3*%
X153850000Y-126400000D03*
%TD*%
D44*
%TO.C,H3*%
X82000000Y-92000000D03*
%TD*%
D62*
%TO.C,U5*%
X95200000Y-112825000D03*
X93500000Y-112825000D03*
X91800000Y-112825000D03*
D63*
X91800000Y-121975000D03*
D62*
X90100000Y-112825000D03*
X88400000Y-112825000D03*
%TD*%
D21*
%TO.C,C22*%
X100330000Y-108000000D03*
X98770000Y-108000000D03*
%TD*%
D20*
%TO.C,C9*%
X135520000Y-103050000D03*
X137080000Y-103050000D03*
%TD*%
D64*
%TO.C,D3*%
X140975000Y-110375000D03*
X136675000Y-110375000D03*
%TD*%
%LPD*%
M02*
