%TF.GenerationSoftware,KiCad,Pcbnew,9.0.2*%
%TF.CreationDate,2026-04-11T23:14:24+02:00*%
%TF.ProjectId,MMS3_hat_stepper_controler,4d4d5333-5f68-4617-945f-737465707065,R0*%
%TF.SameCoordinates,Original*%
%TF.FileFunction,Soldermask,Top*%
%TF.FilePolarity,Negative*%
%FSLAX46Y46*%
G04 Gerber Fmt 4.6, Leading zero omitted, Abs format (unit mm)*
G04 Created by KiCad (PCBNEW 9.0.2) date 2026-04-11 23:14:24*
%MOMM*%
%LPD*%
G01*
G04 APERTURE LIST*
G04 Aperture macros list*
%AMRoundRect*
0 Rectangle with rounded corners*
0 $1 Rounding radius*
0 $2 $3 $4 $5 $6 $7 $8 $9 X,Y pos of 4 corners*
0 Add a 4 corners polygon primitive as box body*
4,1,4,$2,$3,$4,$5,$6,$7,$8,$9,$2,$3,0*
0 Add four circle primitives for the rounded corners*
1,1,$1+$1,$2,$3*
1,1,$1+$1,$4,$5*
1,1,$1+$1,$6,$7*
1,1,$1+$1,$8,$9*
0 Add four rect primitives between the rounded corners*
20,1,$1+$1,$2,$3,$4,$5,0*
20,1,$1+$1,$4,$5,$6,$7,0*
20,1,$1+$1,$6,$7,$8,$9,0*
20,1,$1+$1,$8,$9,$2,$3,0*%
%AMFreePoly0*
4,1,6,1.000000,0.000000,0.500000,-0.750000,-0.500000,-0.750000,-0.500000,0.750000,0.500000,0.750000,1.000000,0.000000,1.000000,0.000000,$1*%
%AMFreePoly1*
4,1,6,0.500000,-0.750000,-0.650000,-0.750000,-0.150000,0.000000,-0.650000,0.750000,0.500000,0.750000,0.500000,-0.750000,0.500000,-0.750000,$1*%
G04 Aperture macros list end*
%ADD10RoundRect,0.250000X-0.550000X1.500000X-0.550000X-1.500000X0.550000X-1.500000X0.550000X1.500000X0*%
%ADD11RoundRect,0.159000X0.189000X-0.159000X0.189000X0.159000X-0.189000X0.159000X-0.189000X-0.159000X0*%
%ADD12RoundRect,0.100000X-0.100000X0.637500X-0.100000X-0.637500X0.100000X-0.637500X0.100000X0.637500X0*%
%ADD13RoundRect,0.159000X-0.189000X0.159000X-0.189000X-0.159000X0.189000X-0.159000X0.189000X0.159000X0*%
%ADD14RoundRect,0.159000X-0.159000X-0.189000X0.159000X-0.189000X0.159000X0.189000X-0.159000X0.189000X0*%
%ADD15RoundRect,0.244000X-0.244000X-0.269000X0.244000X-0.269000X0.244000X0.269000X-0.244000X0.269000X0*%
%ADD16C,3.100000*%
%ADD17C,4.700000*%
%ADD18C,1.000000*%
%ADD19RoundRect,0.265778X-0.332222X-0.647222X0.332222X-0.647222X0.332222X0.647222X-0.332222X0.647222X0*%
%ADD20RoundRect,0.159000X0.159000X0.189000X-0.159000X0.189000X-0.159000X-0.189000X0.159000X-0.189000X0*%
%ADD21RoundRect,0.250000X0.550000X-1.500000X0.550000X1.500000X-0.550000X1.500000X-0.550000X-1.500000X0*%
%ADD22RoundRect,0.265778X0.647222X-0.332222X0.647222X0.332222X-0.647222X0.332222X-0.647222X-0.332222X0*%
%ADD23R,0.900000X2.000000*%
%ADD24RoundRect,1.025000X1.025000X1.025000X-1.025000X1.025000X-1.025000X-1.025000X1.025000X-1.025000X0*%
%ADD25C,4.100000*%
%ADD26R,1.000000X3.000000*%
%ADD27FreePoly0,0.000000*%
%ADD28FreePoly1,0.000000*%
%ADD29RoundRect,0.250000X-1.200000X-2.450000X1.200000X-2.450000X1.200000X2.450000X-1.200000X2.450000X0*%
%ADD30C,1.296000*%
%ADD31R,1.700000X1.700000*%
%ADD32C,1.700000*%
%ADD33O,1.950000X0.570000*%
%ADD34RoundRect,0.244000X0.269000X-0.244000X0.269000X0.244000X-0.269000X0.244000X-0.269000X-0.244000X0*%
%ADD35R,3.820000X3.030000*%
%ADD36R,3.030000X3.820000*%
%ADD37RoundRect,0.244000X-0.269000X0.244000X-0.269000X-0.244000X0.269000X-0.244000X0.269000X0.244000X0*%
%ADD38C,1.440000*%
%ADD39RoundRect,0.250000X0.550000X0.550000X-0.550000X0.550000X-0.550000X-0.550000X0.550000X-0.550000X0*%
%ADD40C,1.600000*%
%ADD41RoundRect,0.250000X-1.500000X-0.550000X1.500000X-0.550000X1.500000X0.550000X-1.500000X0.550000X0*%
%ADD42RoundRect,0.250000X-0.600000X-0.725000X0.600000X-0.725000X0.600000X0.725000X-0.600000X0.725000X0*%
%ADD43O,1.700000X1.950000*%
%ADD44RoundRect,0.250000X1.500000X0.550000X-1.500000X0.550000X-1.500000X-0.550000X1.500000X-0.550000X0*%
%ADD45RoundRect,0.266521X-0.346479X-0.671479X0.346479X-0.671479X0.346479X0.671479X-0.346479X0.671479X0*%
%ADD46RoundRect,0.244000X0.244000X0.269000X-0.244000X0.269000X-0.244000X-0.269000X0.244000X-0.269000X0*%
%ADD47RoundRect,0.075000X-0.075000X0.662500X-0.075000X-0.662500X0.075000X-0.662500X0.075000X0.662500X0*%
%ADD48RoundRect,0.075000X-0.662500X0.075000X-0.662500X-0.075000X0.662500X-0.075000X0.662500X0.075000X0*%
%ADD49R,5.000000X5.000000*%
%ADD50RoundRect,0.266521X0.671479X-0.346479X0.671479X0.346479X-0.671479X0.346479X-0.671479X-0.346479X0*%
%ADD51RoundRect,0.239000X0.274000X-0.239000X0.274000X0.239000X-0.274000X0.239000X-0.274000X-0.239000X0*%
%ADD52RoundRect,0.250000X-1.000000X-0.300000X1.000000X-0.300000X1.000000X0.300000X-1.000000X0.300000X0*%
%ADD53C,0.500000*%
%ADD54RoundRect,0.250000X-0.920000X-1.550000X0.920000X-1.550000X0.920000X1.550000X-0.920000X1.550000X0*%
%ADD55RoundRect,0.250000X2.050000X0.300000X-2.050000X0.300000X-2.050000X-0.300000X2.050000X-0.300000X0*%
%ADD56RoundRect,0.250002X4.449998X5.149998X-4.449998X5.149998X-4.449998X-5.149998X4.449998X-5.149998X0*%
%ADD57RoundRect,0.258261X1.029739X0.929739X-1.029739X0.929739X-1.029739X-0.929739X1.029739X-0.929739X0*%
G04 APERTURE END LIST*
%TO.C,JP3*%
G36*
X127510000Y-110050000D02*
G01*
X129960000Y-110050000D01*
X129960000Y-111550000D01*
X127510000Y-111550000D01*
X127510000Y-110050000D01*
G37*
%TO.C,JP1*%
G36*
X127475000Y-104950000D02*
G01*
X129925000Y-104950000D01*
X129925000Y-106450000D01*
X127475000Y-106450000D01*
X127475000Y-104950000D01*
G37*
%TO.C,JP2*%
G36*
X127475000Y-107480000D02*
G01*
X129925000Y-107480000D01*
X129925000Y-108980000D01*
X127475000Y-108980000D01*
X127475000Y-107480000D01*
G37*
%TD*%
D10*
%TO.C,C27*%
X88200000Y-120675000D03*
X88200000Y-126075000D03*
%TD*%
D11*
%TO.C,R8*%
X130800000Y-104600000D03*
X130800000Y-103600000D03*
%TD*%
D12*
%TO.C,U1*%
X147875000Y-101337500D03*
X147225000Y-101337500D03*
X146575000Y-101337500D03*
X145925000Y-101337500D03*
X145275000Y-101337500D03*
X144625000Y-101337500D03*
X143975000Y-101337500D03*
X143325000Y-101337500D03*
X142675000Y-101337500D03*
X142025000Y-101337500D03*
X141375000Y-101337500D03*
X140725000Y-101337500D03*
X140725000Y-107062500D03*
X141375000Y-107062500D03*
X142025000Y-107062500D03*
X142675000Y-107062500D03*
X143325000Y-107062500D03*
X143975000Y-107062500D03*
X144625000Y-107062500D03*
X145275000Y-107062500D03*
X145925000Y-107062500D03*
X146575000Y-107062500D03*
X147225000Y-107062500D03*
X147875000Y-107062500D03*
%TD*%
D13*
%TO.C,R19*%
X156600000Y-96000000D03*
X156600000Y-97000000D03*
%TD*%
D14*
%TO.C,R24*%
X153900000Y-108800000D03*
X154900000Y-108800000D03*
%TD*%
D15*
%TO.C,C6*%
X152620000Y-122400000D03*
X154180000Y-122400000D03*
%TD*%
D16*
%TO.C,H1*%
X82000000Y-134000000D03*
D17*
X82000000Y-134000000D03*
%TD*%
D14*
%TO.C,R12*%
X139750000Y-124750000D03*
X140750000Y-124750000D03*
%TD*%
D18*
%TO.C,TP4*%
X160850000Y-109550000D03*
%TD*%
D19*
%TO.C,R4*%
X151880000Y-124200000D03*
X154800000Y-124200000D03*
%TD*%
D14*
%TO.C,R9*%
X135300000Y-102050000D03*
X136300000Y-102050000D03*
%TD*%
%TO.C,R10*%
X97220000Y-116250000D03*
X98220000Y-116250000D03*
%TD*%
D20*
%TO.C,R13*%
X137250000Y-122250000D03*
X136250000Y-122250000D03*
%TD*%
D21*
%TO.C,C28*%
X123250000Y-110200000D03*
X123250000Y-104800000D03*
%TD*%
D13*
%TO.C,R2*%
X155700000Y-103200000D03*
X155700000Y-104200000D03*
%TD*%
D22*
%TO.C,R6*%
X157800000Y-112360000D03*
X157800000Y-109440000D03*
%TD*%
D18*
%TO.C,TP1*%
X156650000Y-122950000D03*
%TD*%
D20*
%TO.C,R21*%
X152200000Y-97700000D03*
X151200000Y-97700000D03*
%TD*%
D23*
%TO.C,J4*%
X119500000Y-135600000D03*
X106000000Y-135600000D03*
D24*
X116350000Y-129600000D03*
D25*
X109150000Y-129600000D03*
%TD*%
D11*
%TO.C,R14*%
X138000000Y-125000000D03*
X138000000Y-124000000D03*
%TD*%
D15*
%TO.C,C20*%
X96690000Y-115250000D03*
X98250000Y-115250000D03*
%TD*%
D13*
%TO.C,R23*%
X157800000Y-96600000D03*
X157800000Y-97600000D03*
%TD*%
D26*
%TO.C,J2*%
X108950000Y-93038272D03*
X108950000Y-98078272D03*
X111490000Y-93038272D03*
X111490000Y-98078272D03*
X114030000Y-93038272D03*
X114030000Y-98078272D03*
X116570000Y-93038272D03*
X116570000Y-98078272D03*
X119110000Y-93038272D03*
X119110000Y-98078272D03*
X121650000Y-93038272D03*
X121650000Y-98078272D03*
X124190000Y-93038272D03*
X124190000Y-98078272D03*
X126730000Y-93038272D03*
X126730000Y-98078272D03*
X129270000Y-93038272D03*
X129270000Y-98078272D03*
X131810000Y-93038272D03*
X131810000Y-98078272D03*
X134350000Y-93038272D03*
X134350000Y-98078272D03*
X136890000Y-93038272D03*
X136890000Y-98078272D03*
X139430000Y-93038272D03*
X139430000Y-98078272D03*
X141970000Y-93038272D03*
X141970000Y-98078272D03*
X144510000Y-93038272D03*
X144510000Y-98078272D03*
X147050000Y-93038272D03*
X147050000Y-98078272D03*
%TD*%
D27*
%TO.C,JP3*%
X128010000Y-110800000D03*
D28*
X129460000Y-110800000D03*
%TD*%
D18*
%TO.C,TP7*%
X138600000Y-115700000D03*
%TD*%
D14*
%TO.C,R22*%
X153900000Y-107900000D03*
X154900000Y-107900000D03*
%TD*%
D10*
%TO.C,C25*%
X126850000Y-114100000D03*
X126850000Y-119500000D03*
%TD*%
D11*
%TO.C,R18*%
X116000000Y-106500000D03*
X116000000Y-105500000D03*
%TD*%
%TO.C,R16*%
X134500000Y-125000000D03*
X134500000Y-124000000D03*
%TD*%
D29*
%TO.C,L1*%
X103050000Y-108000000D03*
X112950000Y-108000000D03*
%TD*%
D30*
%TO.C,H8*%
X169700000Y-90300000D03*
%TD*%
D31*
%TO.C,J3*%
X151170000Y-100000000D03*
D32*
X153710000Y-100000000D03*
X156250000Y-100000000D03*
X158790000Y-100000000D03*
%TD*%
D18*
%TO.C,TP6*%
X146000000Y-111700000D03*
%TD*%
D15*
%TO.C,C21*%
X99690000Y-115250000D03*
X101250000Y-115250000D03*
%TD*%
D30*
%TO.C,H7*%
X79500000Y-129250000D03*
%TD*%
D33*
%TO.C,U2*%
X168710000Y-102660000D03*
X168710000Y-101390000D03*
X168710000Y-100110000D03*
X168710000Y-98840000D03*
X163290000Y-98840000D03*
X163290000Y-100110000D03*
X163290000Y-101390000D03*
X163290000Y-102660000D03*
%TD*%
D34*
%TO.C,C3*%
X148875000Y-110567500D03*
X148875000Y-109007500D03*
%TD*%
D22*
%TO.C,R7*%
X143750000Y-112860000D03*
X143750000Y-109940000D03*
%TD*%
D13*
%TO.C,R25*%
X154600000Y-104500000D03*
X154600000Y-105500000D03*
%TD*%
D35*
%TO.C,D2*%
X81250000Y-118070000D03*
X81250000Y-124930000D03*
%TD*%
D18*
%TO.C,TP8*%
X118700000Y-108400000D03*
%TD*%
D27*
%TO.C,JP1*%
X127975000Y-105700000D03*
D28*
X129425000Y-105700000D03*
%TD*%
D23*
%TO.C,J5*%
X102400000Y-135750000D03*
X88900000Y-135750000D03*
D24*
X92050000Y-129750000D03*
D25*
X99250000Y-129750000D03*
%TD*%
D10*
%TO.C,C12*%
X134000000Y-113550000D03*
X134000000Y-118950000D03*
%TD*%
D27*
%TO.C,JP2*%
X127975000Y-108230000D03*
D28*
X129425000Y-108230000D03*
%TD*%
D36*
%TO.C,D6*%
X120430000Y-124000000D03*
X113570000Y-124000000D03*
%TD*%
D11*
%TO.C,R26*%
X173600000Y-101600000D03*
X173600000Y-100600000D03*
%TD*%
D15*
%TO.C,C5*%
X154620000Y-121180000D03*
X156180000Y-121180000D03*
%TD*%
D13*
%TO.C,R5*%
X160700000Y-106850000D03*
X160700000Y-107850000D03*
%TD*%
D37*
%TO.C,C2*%
X161450000Y-102670000D03*
X161450000Y-104230000D03*
%TD*%
D20*
%TO.C,R1*%
X154200000Y-110600000D03*
X153200000Y-110600000D03*
%TD*%
D37*
%TO.C,C7*%
X156600000Y-118020000D03*
X156600000Y-119580000D03*
%TD*%
D18*
%TO.C,TP5*%
X155400000Y-112050000D03*
%TD*%
D38*
%TO.C,RV1*%
X165295000Y-108460000D03*
X165295000Y-111000000D03*
X165295000Y-113540000D03*
%TD*%
D31*
%TO.C,J8*%
X103460000Y-124500000D03*
D32*
X106000000Y-124500000D03*
X108540000Y-124500000D03*
%TD*%
D11*
%TO.C,R15*%
X136250000Y-125000000D03*
X136250000Y-124000000D03*
%TD*%
D39*
%TO.C,SW1*%
X142250000Y-135500000D03*
D40*
X142250000Y-132960000D03*
X142250000Y-130420000D03*
X142250000Y-127880000D03*
X134630000Y-127880000D03*
X134630000Y-130420000D03*
X134630000Y-132960000D03*
X134630000Y-135500000D03*
%TD*%
D35*
%TO.C,D8*%
X130520000Y-126820000D03*
X130520000Y-133680000D03*
%TD*%
D34*
%TO.C,C24*%
X117000000Y-106280000D03*
X117000000Y-104720000D03*
%TD*%
D41*
%TO.C,C14*%
X168750000Y-119700000D03*
X174150000Y-119700000D03*
%TD*%
D34*
%TO.C,C1*%
X149050000Y-106980000D03*
X149050000Y-105420000D03*
%TD*%
D42*
%TO.C,J6*%
X161000000Y-135350000D03*
D43*
X163500000Y-135350000D03*
X166000000Y-135350000D03*
%TD*%
D41*
%TO.C,C15*%
X168500000Y-126950000D03*
X173900000Y-126950000D03*
%TD*%
D44*
%TO.C,C19*%
X99200000Y-123250000D03*
X93800000Y-123250000D03*
%TD*%
D45*
%TO.C,C11*%
X135570000Y-104800000D03*
X138530000Y-104800000D03*
%TD*%
D34*
%TO.C,C23*%
X117000000Y-109250000D03*
X117000000Y-107690000D03*
%TD*%
D18*
%TO.C,TP2*%
X150000000Y-124850000D03*
%TD*%
D44*
%TO.C,C17*%
X91000000Y-115000000D03*
X85600000Y-115000000D03*
%TD*%
D46*
%TO.C,C18*%
X157780000Y-91800000D03*
X156220000Y-91800000D03*
%TD*%
D14*
%TO.C,R11*%
X99720000Y-116250000D03*
X100720000Y-116250000D03*
%TD*%
D35*
%TO.C,D5*%
X124500000Y-133680000D03*
X124500000Y-126820000D03*
%TD*%
D47*
%TO.C,U3*%
X153375000Y-112462500D03*
X152875000Y-112462500D03*
X152375000Y-112462500D03*
X151875000Y-112462500D03*
X151375000Y-112462500D03*
X150875000Y-112462500D03*
X150375000Y-112462500D03*
X149875000Y-112462500D03*
X149375000Y-112462500D03*
X148875000Y-112462500D03*
X148375000Y-112462500D03*
X147875000Y-112462500D03*
D48*
X146462500Y-113875000D03*
X146462500Y-114375000D03*
X146462500Y-114875000D03*
X146462500Y-115375000D03*
X146462500Y-115875000D03*
X146462500Y-116375000D03*
X146462500Y-116875000D03*
X146462500Y-117375000D03*
X146462500Y-117875000D03*
X146462500Y-118375000D03*
X146462500Y-118875000D03*
X146462500Y-119375000D03*
D47*
X147875000Y-120787500D03*
X148375000Y-120787500D03*
X148875000Y-120787500D03*
X149375000Y-120787500D03*
X149875000Y-120787500D03*
X150375000Y-120787500D03*
X150875000Y-120787500D03*
X151375000Y-120787500D03*
X151875000Y-120787500D03*
X152375000Y-120787500D03*
X152875000Y-120787500D03*
X153375000Y-120787500D03*
D48*
X154787500Y-119375000D03*
X154787500Y-118875000D03*
X154787500Y-118375000D03*
X154787500Y-117875000D03*
X154787500Y-117375000D03*
X154787500Y-116875000D03*
X154787500Y-116375000D03*
X154787500Y-115875000D03*
X154787500Y-115375000D03*
X154787500Y-114875000D03*
X154787500Y-114375000D03*
X154787500Y-113875000D03*
D49*
X150625000Y-116625000D03*
%TD*%
D30*
%TO.C,H9*%
X80750000Y-97250000D03*
%TD*%
D13*
%TO.C,R20*%
X149900000Y-96300000D03*
X149900000Y-97300000D03*
%TD*%
D50*
%TO.C,C10*%
X133600000Y-106680000D03*
X133600000Y-103720000D03*
%TD*%
D37*
%TO.C,C16*%
X167030000Y-91520000D03*
X167030000Y-93080000D03*
%TD*%
%TO.C,C4*%
X151700000Y-125970000D03*
X151700000Y-127530000D03*
%TD*%
D11*
%TO.C,R3*%
X156900000Y-104700000D03*
X156900000Y-103700000D03*
%TD*%
D34*
%TO.C,C8*%
X131800000Y-105180000D03*
X131800000Y-103620000D03*
%TD*%
D51*
%TO.C,D7*%
X175333662Y-102217037D03*
X175333662Y-100637037D03*
%TD*%
D42*
%TO.C,J7*%
X146500000Y-133655000D03*
D43*
X149000000Y-133655000D03*
X151500000Y-133655000D03*
X154000000Y-133655000D03*
%TD*%
D36*
%TO.C,D4*%
X106220000Y-118600000D03*
X113080000Y-118600000D03*
%TD*%
D52*
%TO.C,U4*%
X164833758Y-96624225D03*
X164833758Y-94324225D03*
X164833758Y-92024225D03*
D53*
X158863758Y-93324225D03*
X158863758Y-94324225D03*
D54*
X158863758Y-94324225D03*
D53*
X158863758Y-95324225D03*
%TD*%
D18*
%TO.C,TP3*%
X153850000Y-126400000D03*
%TD*%
D10*
%TO.C,C26*%
X119500000Y-113550000D03*
X119500000Y-118950000D03*
%TD*%
D55*
%TO.C,U5*%
X96325000Y-108150000D03*
X96325000Y-106450000D03*
X96325000Y-104750000D03*
D56*
X87175000Y-104750000D03*
D55*
X96325000Y-103050000D03*
X96325000Y-101350000D03*
%TD*%
D46*
%TO.C,C22*%
X138030000Y-121000000D03*
X136470000Y-121000000D03*
%TD*%
D15*
%TO.C,C9*%
X135520000Y-103050000D03*
X137080000Y-103050000D03*
%TD*%
D11*
%TO.C,R17*%
X116000000Y-109000000D03*
X116000000Y-108000000D03*
%TD*%
D57*
%TO.C,D3*%
X140975000Y-110375000D03*
X136675000Y-110375000D03*
%TD*%
M02*
