%TF.GenerationSoftware,KiCad,Pcbnew,9.0.2*%
%TF.CreationDate,2026-04-08T21:54:35+02:00*%
%TF.ProjectId,MMS3_hat_stepper_controler,4d4d5333-5f68-4617-945f-737465707065,R0*%
%TF.SameCoordinates,Original*%
%TF.FileFunction,Copper,L1,Top*%
%TF.FilePolarity,Positive*%
%FSLAX46Y46*%
G04 Gerber Fmt 4.6, Leading zero omitted, Abs format (unit mm)*
G04 Created by KiCad (PCBNEW 9.0.2) date 2026-04-08 21:54:35*
%MOMM*%
%LPD*%
G01*
G04 APERTURE LIST*
G04 Aperture macros list*
%AMRoundRect*
0 Rectangle with rounded corners*
0 $1 Rounding radius*
0 $2 $3 $4 $5 $6 $7 $8 $9 X,Y pos of 4 corners*
0 Add a 4 corners polygon primitive as box body*
4,1,4,$2,$3,$4,$5,$6,$7,$8,$9,$2,$3,0*
0 Add four circle primitives for the rounded corners*
1,1,$1+$1,$2,$3*
1,1,$1+$1,$4,$5*
1,1,$1+$1,$6,$7*
1,1,$1+$1,$8,$9*
0 Add four rect primitives between the rounded corners*
20,1,$1+$1,$2,$3,$4,$5,0*
20,1,$1+$1,$4,$5,$6,$7,0*
20,1,$1+$1,$6,$7,$8,$9,0*
20,1,$1+$1,$8,$9,$2,$3,0*%
%AMFreePoly0*
4,1,6,1.000000,0.000000,0.500000,-0.750000,-0.500000,-0.750000,-0.500000,0.750000,0.500000,0.750000,1.000000,0.000000,1.000000,0.000000,$1*%
%AMFreePoly1*
4,1,6,0.500000,-0.750000,-0.650000,-0.750000,-0.150000,0.000000,-0.650000,0.750000,0.500000,0.750000,0.500000,-0.750000,0.500000,-0.750000,$1*%
G04 Aperture macros list end*
%TA.AperFunction,SMDPad,CuDef*%
%ADD10R,3.820000X3.030000*%
%TD*%
%TA.AperFunction,SMDPad,CuDef*%
%ADD11RoundRect,0.140000X0.170000X-0.140000X0.170000X0.140000X-0.170000X0.140000X-0.170000X-0.140000X0*%
%TD*%
%TA.AperFunction,SMDPad,CuDef*%
%ADD12RoundRect,0.100000X-0.100000X0.637500X-0.100000X-0.637500X0.100000X-0.637500X0.100000X0.637500X0*%
%TD*%
%TA.AperFunction,SMDPad,CuDef*%
%ADD13RoundRect,0.140000X-0.170000X0.140000X-0.170000X-0.140000X0.170000X-0.140000X0.170000X0.140000X0*%
%TD*%
%TA.AperFunction,SMDPad,CuDef*%
%ADD14R,3.030000X3.820000*%
%TD*%
%TA.AperFunction,SMDPad,CuDef*%
%ADD15RoundRect,0.140000X-0.140000X-0.170000X0.140000X-0.170000X0.140000X0.170000X-0.140000X0.170000X0*%
%TD*%
%TA.AperFunction,SMDPad,CuDef*%
%ADD16RoundRect,0.225000X-0.225000X-0.250000X0.225000X-0.250000X0.225000X0.250000X-0.225000X0.250000X0*%
%TD*%
%TA.AperFunction,SMDPad,CuDef*%
%ADD17RoundRect,0.250000X2.450000X-1.200000X2.450000X1.200000X-2.450000X1.200000X-2.450000X-1.200000X0*%
%TD*%
%TA.AperFunction,ComponentPad*%
%ADD18RoundRect,0.250000X0.550000X-0.550000X0.550000X0.550000X-0.550000X0.550000X-0.550000X-0.550000X0*%
%TD*%
%TA.AperFunction,ComponentPad*%
%ADD19C,1.600000*%
%TD*%
%TA.AperFunction,ComponentPad*%
%ADD20C,3.100000*%
%TD*%
%TA.AperFunction,ConnectorPad*%
%ADD21C,4.700000*%
%TD*%
%TA.AperFunction,SMDPad,CuDef*%
%ADD22C,1.000000*%
%TD*%
%TA.AperFunction,SMDPad,CuDef*%
%ADD23RoundRect,0.248889X-0.311111X-0.626111X0.311111X-0.626111X0.311111X0.626111X-0.311111X0.626111X0*%
%TD*%
%TA.AperFunction,SMDPad,CuDef*%
%ADD24RoundRect,0.250000X-0.550000X1.500000X-0.550000X-1.500000X0.550000X-1.500000X0.550000X1.500000X0*%
%TD*%
%TA.AperFunction,SMDPad,CuDef*%
%ADD25RoundRect,0.250000X0.550000X-1.500000X0.550000X1.500000X-0.550000X1.500000X-0.550000X-1.500000X0*%
%TD*%
%TA.AperFunction,SMDPad,CuDef*%
%ADD26RoundRect,0.248889X0.626111X-0.311111X0.626111X0.311111X-0.626111X0.311111X-0.626111X-0.311111X0*%
%TD*%
%TA.AperFunction,SMDPad,CuDef*%
%ADD27RoundRect,0.140000X0.140000X0.170000X-0.140000X0.170000X-0.140000X-0.170000X0.140000X-0.170000X0*%
%TD*%
%TA.AperFunction,SMDPad,CuDef*%
%ADD28RoundRect,0.225000X-0.250000X0.225000X-0.250000X-0.225000X0.250000X-0.225000X0.250000X0.225000X0*%
%TD*%
%TA.AperFunction,SMDPad,CuDef*%
%ADD29R,1.000000X3.000000*%
%TD*%
%TA.AperFunction,SMDPad,CuDef*%
%ADD30FreePoly0,0.000000*%
%TD*%
%TA.AperFunction,SMDPad,CuDef*%
%ADD31FreePoly1,0.000000*%
%TD*%
%TA.AperFunction,ComponentPad*%
%ADD32R,1.700000X1.700000*%
%TD*%
%TA.AperFunction,ComponentPad*%
%ADD33C,1.700000*%
%TD*%
%TA.AperFunction,SMDPad,CuDef*%
%ADD34O,1.950000X0.570000*%
%TD*%
%TA.AperFunction,SMDPad,CuDef*%
%ADD35RoundRect,0.225000X0.250000X-0.225000X0.250000X0.225000X-0.250000X0.225000X-0.250000X-0.225000X0*%
%TD*%
%TA.AperFunction,SMDPad,CuDef*%
%ADD36RoundRect,0.218750X0.256250X-0.218750X0.256250X0.218750X-0.256250X0.218750X-0.256250X-0.218750X0*%
%TD*%
%TA.AperFunction,ComponentPad*%
%ADD37C,1.440000*%
%TD*%
%TA.AperFunction,SMDPad,CuDef*%
%ADD38RoundRect,0.250000X0.300000X-2.050000X0.300000X2.050000X-0.300000X2.050000X-0.300000X-2.050000X0*%
%TD*%
%TA.AperFunction,SMDPad,CuDef*%
%ADD39RoundRect,0.250002X5.149998X-4.449998X5.149998X4.449998X-5.149998X4.449998X-5.149998X-4.449998X0*%
%TD*%
%TA.AperFunction,SMDPad,CuDef*%
%ADD40RoundRect,0.250000X-1.500000X-0.550000X1.500000X-0.550000X1.500000X0.550000X-1.500000X0.550000X0*%
%TD*%
%TA.AperFunction,ComponentPad*%
%ADD41RoundRect,0.250000X-0.600000X-0.725000X0.600000X-0.725000X0.600000X0.725000X-0.600000X0.725000X0*%
%TD*%
%TA.AperFunction,ComponentPad*%
%ADD42O,1.700000X1.950000*%
%TD*%
%TA.AperFunction,ComponentPad*%
%ADD43R,2.000000X0.900000*%
%TD*%
%TA.AperFunction,ComponentPad*%
%ADD44RoundRect,1.025000X1.025000X-1.025000X1.025000X1.025000X-1.025000X1.025000X-1.025000X-1.025000X0*%
%TD*%
%TA.AperFunction,ComponentPad*%
%ADD45C,4.100000*%
%TD*%
%TA.AperFunction,SMDPad,CuDef*%
%ADD46RoundRect,0.250000X-0.325000X-0.650000X0.325000X-0.650000X0.325000X0.650000X-0.325000X0.650000X0*%
%TD*%
%TA.AperFunction,SMDPad,CuDef*%
%ADD47RoundRect,0.225000X0.225000X0.250000X-0.225000X0.250000X-0.225000X-0.250000X0.225000X-0.250000X0*%
%TD*%
%TA.AperFunction,SMDPad,CuDef*%
%ADD48RoundRect,0.075000X-0.075000X0.662500X-0.075000X-0.662500X0.075000X-0.662500X0.075000X0.662500X0*%
%TD*%
%TA.AperFunction,SMDPad,CuDef*%
%ADD49RoundRect,0.075000X-0.662500X0.075000X-0.662500X-0.075000X0.662500X-0.075000X0.662500X0.075000X0*%
%TD*%
%TA.AperFunction,HeatsinkPad*%
%ADD50C,0.500000*%
%TD*%
%TA.AperFunction,HeatsinkPad*%
%ADD51R,5.000000X5.000000*%
%TD*%
%TA.AperFunction,SMDPad,CuDef*%
%ADD52RoundRect,0.250000X0.650000X-0.325000X0.650000X0.325000X-0.650000X0.325000X-0.650000X-0.325000X0*%
%TD*%
%TA.AperFunction,SMDPad,CuDef*%
%ADD53RoundRect,0.250000X-1.000000X-0.300000X1.000000X-0.300000X1.000000X0.300000X-1.000000X0.300000X0*%
%TD*%
%TA.AperFunction,ComponentPad*%
%ADD54C,0.500000*%
%TD*%
%TA.AperFunction,SMDPad,CuDef*%
%ADD55RoundRect,0.250000X-0.920000X-1.550000X0.920000X-1.550000X0.920000X1.550000X-0.920000X1.550000X0*%
%TD*%
%TA.AperFunction,SMDPad,CuDef*%
%ADD56RoundRect,0.250000X1.000000X0.900000X-1.000000X0.900000X-1.000000X-0.900000X1.000000X-0.900000X0*%
%TD*%
%TA.AperFunction,ViaPad*%
%ADD57C,0.500000*%
%TD*%
%TA.AperFunction,Conductor*%
%ADD58C,0.200000*%
%TD*%
%TA.AperFunction,Conductor*%
%ADD59C,1.000000*%
%TD*%
%TA.AperFunction,Conductor*%
%ADD60C,0.300000*%
%TD*%
%TA.AperFunction,Conductor*%
%ADD61C,2.000000*%
%TD*%
%TA.AperFunction,Conductor*%
%ADD62C,0.800000*%
%TD*%
G04 APERTURE END LIST*
D10*
%TO.P,D6,1,K*%
%TO.N,Net-(D5-A)*%
X120900000Y-133030000D03*
%TO.P,D6,2,A*%
%TO.N,Net-(D6-A)*%
X120900000Y-126170000D03*
%TD*%
D11*
%TO.P,R8,1*%
%TO.N,/Stepper controller/U_reg_after_jumper*%
X130800000Y-104600000D03*
%TO.P,R8,2*%
%TO.N,Net-(C10-Pad2)*%
X130800000Y-103600000D03*
%TD*%
D12*
%TO.P,U1,1,~{1OE}*%
%TO.N,/Bus_switch/SEL1*%
X147875000Y-101337500D03*
%TO.P,U1,2,1B1*%
%TO.N,/Bus_switch/Chainbus.RX*%
X147225000Y-101337500D03*
%TO.P,U1,3,1A1*%
%TO.N,/Bus_switch/Chainbus_In.RX*%
X146575000Y-101337500D03*
%TO.P,U1,4,1A2*%
%TO.N,/Bus_switch/Chainbus_In.TX*%
X145925000Y-101337500D03*
%TO.P,U1,5,1B2*%
%TO.N,/Bus_switch/Chainbus.TX*%
X145275000Y-101337500D03*
%TO.P,U1,6,1B3*%
%TO.N,/Bus_switch/Chainbus.MISO*%
X144625000Y-101337500D03*
%TO.P,U1,7,1A3*%
%TO.N,/Bus_switch/Chainbus_In.MISO*%
X143975000Y-101337500D03*
%TO.P,U1,8,1A4*%
%TO.N,/Bus_switch/Chainbus_In.MOSI*%
X143325000Y-101337500D03*
%TO.P,U1,9,1B4*%
%TO.N,/Bus_switch/Chainbus.MOSI*%
X142675000Y-101337500D03*
%TO.P,U1,10,1B5*%
%TO.N,/Bus_switch/Chainbus.SCK*%
X142025000Y-101337500D03*
%TO.P,U1,11,1A5*%
%TO.N,/Bus_switch/Chainbus_In.SCK*%
X141375000Y-101337500D03*
%TO.P,U1,12,GND*%
%TO.N,GND*%
X140725000Y-101337500D03*
%TO.P,U1,13,~{2OE}*%
%TO.N,/Bus_switch/SEL1*%
X140725000Y-107062500D03*
%TO.P,U1,14,2A1*%
%TO.N,/Bus_switch/Chainbus_In.CS*%
X141375000Y-107062500D03*
%TO.P,U1,15,2B1*%
%TO.N,/Bus_switch/Chainbus.CS*%
X142025000Y-107062500D03*
%TO.P,U1,16,2B2*%
%TO.N,/Bus_switch/Chainbus.SDA*%
X142675000Y-107062500D03*
%TO.P,U1,17,2A2*%
%TO.N,/Bus_switch/Chainbus_In.SDA*%
X143325000Y-107062500D03*
%TO.P,U1,18,2A3*%
%TO.N,/Bus_switch/Chainbus_In.SCL*%
X143975000Y-107062500D03*
%TO.P,U1,19,2B3*%
%TO.N,/Bus_switch/Chainbus.SCL*%
X144625000Y-107062500D03*
%TO.P,U1,20,2B4*%
%TO.N,unconnected-(U1-2B4-Pad20)*%
X145275000Y-107062500D03*
%TO.P,U1,21,2A4*%
%TO.N,unconnected-(U1-2A4-Pad21)*%
X145925000Y-107062500D03*
%TO.P,U1,22,2A5*%
%TO.N,unconnected-(U1-2A5-Pad22)*%
X146575000Y-107062500D03*
%TO.P,U1,23,2B5*%
%TO.N,unconnected-(U1-2B5-Pad23)*%
X147225000Y-107062500D03*
%TO.P,U1,24,VCC*%
%TO.N,+3V3*%
X147875000Y-107062500D03*
%TD*%
D13*
%TO.P,R19,1*%
%TO.N,+3V3*%
X156600000Y-96000000D03*
%TO.P,R19,2*%
%TO.N,/Bus_switch/Chainbus.SCL*%
X156600000Y-97000000D03*
%TD*%
D14*
%TO.P,D5,1,K*%
%TO.N,Net-(D5-K)*%
X133330000Y-134000000D03*
%TO.P,D5,2,A*%
%TO.N,Net-(D5-A)*%
X126470000Y-134000000D03*
%TD*%
D15*
%TO.P,R24,1*%
%TO.N,/Bus_switch/Chainbus.MOSI*%
X153900000Y-108800000D03*
%TO.P,R24,2*%
%TO.N,GND*%
X154900000Y-108800000D03*
%TD*%
D16*
%TO.P,C6,1*%
%TO.N,Net-(U3-VCC)*%
X152620000Y-122400000D03*
%TO.P,C6,2*%
%TO.N,GND*%
X154180000Y-122400000D03*
%TD*%
D17*
%TO.P,L1,1,1*%
%TO.N,Net-(D4-K)*%
X108750000Y-112450000D03*
%TO.P,L1,2,2*%
%TO.N,U_reg*%
X108750000Y-102550000D03*
%TD*%
D18*
%TO.P,SW1,1*%
%TO.N,unconnected-(SW1-Pad1)*%
X92120000Y-108400000D03*
D19*
%TO.P,SW1,2*%
%TO.N,Net-(U5-FB)*%
X94660000Y-108400000D03*
%TO.P,SW1,3*%
X97200000Y-108400000D03*
%TO.P,SW1,4*%
X99740000Y-108400000D03*
%TO.P,SW1,5*%
%TO.N,Net-(R16-Pad1)*%
X99740000Y-100780000D03*
%TO.P,SW1,6*%
%TO.N,Net-(R15-Pad1)*%
X97200000Y-100780000D03*
%TO.P,SW1,7*%
%TO.N,Net-(R14-Pad1)*%
X94660000Y-100780000D03*
%TO.P,SW1,8*%
%TO.N,unconnected-(SW1-Pad8)*%
X92120000Y-100780000D03*
%TD*%
D20*
%TO.P,H1,1,1*%
%TO.N,GND*%
X82000000Y-92000000D03*
D21*
X82000000Y-92000000D03*
%TD*%
D22*
%TO.P,TP4,1,1*%
%TO.N,Net-(U3-AIN_IREF)*%
X160850000Y-109550000D03*
%TD*%
D23*
%TO.P,R4,1*%
%TO.N,/Stepper controller/5VOUT*%
X151880000Y-124200000D03*
%TO.P,R4,2*%
%TO.N,Net-(U3-VCC)*%
X154800000Y-124200000D03*
%TD*%
D15*
%TO.P,R9,1*%
%TO.N,Net-(C10-Pad2)*%
X135300000Y-102050000D03*
%TO.P,R9,2*%
%TO.N,GND*%
X136300000Y-102050000D03*
%TD*%
D13*
%TO.P,R10,1*%
%TO.N,Net-(J8-Pin_1)*%
X90750000Y-128500000D03*
%TO.P,R10,2*%
%TO.N,Net-(C20-Pad2)*%
X90750000Y-129500000D03*
%TD*%
D24*
%TO.P,C19,1*%
%TO.N,Net-(J8-Pin_1)*%
X97250000Y-130300000D03*
%TO.P,C19,2*%
%TO.N,GND*%
X97250000Y-135700000D03*
%TD*%
D25*
%TO.P,C28,1*%
%TO.N,U_reg*%
X123250000Y-110200000D03*
%TO.P,C28,2*%
%TO.N,GND*%
X123250000Y-104800000D03*
%TD*%
D15*
%TO.P,R12,1*%
%TO.N,GND*%
X102590000Y-100250000D03*
%TO.P,R12,2*%
%TO.N,Net-(U5-FB)*%
X103590000Y-100250000D03*
%TD*%
D13*
%TO.P,R2,1*%
%TO.N,+3V3*%
X155700000Y-103200000D03*
%TO.P,R2,2*%
%TO.N,/Bus_switch/Chainbus.SCK*%
X155700000Y-104200000D03*
%TD*%
D26*
%TO.P,R6,1*%
%TO.N,Net-(U3-BRA)*%
X157800000Y-112360000D03*
%TO.P,R6,2*%
%TO.N,GND*%
X157800000Y-109440000D03*
%TD*%
D22*
%TO.P,TP1,1,1*%
%TO.N,Net-(U3-SWSEL)*%
X156650000Y-122950000D03*
%TD*%
D27*
%TO.P,R21,1*%
%TO.N,+3V3*%
X152200000Y-97700000D03*
%TO.P,R21,2*%
%TO.N,/Bus_switch/Chainbus.RX*%
X151200000Y-97700000D03*
%TD*%
D28*
%TO.P,C20,1*%
%TO.N,Net-(J8-Pin_1)*%
X91750000Y-127970000D03*
%TO.P,C20,2*%
%TO.N,Net-(C20-Pad2)*%
X91750000Y-129530000D03*
%TD*%
D13*
%TO.P,R23,1*%
%TO.N,+3V3*%
X157800000Y-96600000D03*
%TO.P,R23,2*%
%TO.N,/Bus_switch/Chainbus.SDA*%
X157800000Y-97600000D03*
%TD*%
D29*
%TO.P,J2,1,Pin_1*%
%TO.N,GND*%
X108950000Y-93038272D03*
%TO.P,J2,2,Pin_2*%
%TO.N,/Interboard_connector/SEL2*%
X108950000Y-98078272D03*
%TO.P,J2,3,Pin_3*%
%TO.N,+5V*%
X111490000Y-93038272D03*
%TO.P,J2,4,Pin_4*%
%TO.N,/Interboard_connector/SEL3*%
X111490000Y-98078272D03*
%TO.P,J2,5,Pin_5*%
%TO.N,+5V*%
X114030000Y-93038272D03*
%TO.P,J2,6,Pin_6*%
%TO.N,/Interboard_connector/SEL4*%
X114030000Y-98078272D03*
%TO.P,J2,7,Pin_7*%
%TO.N,GND*%
X116570000Y-93038272D03*
%TO.P,J2,8,Pin_8*%
%TO.N,/Interboard_connector/SEL5*%
X116570000Y-98078272D03*
%TO.P,J2,9,Pin_9*%
%TO.N,BRD_VIN*%
X119110000Y-93038272D03*
%TO.P,J2,10,Pin_10*%
%TO.N,/Interboard_connector/SEL6*%
X119110000Y-98078272D03*
%TO.P,J2,11,Pin_11*%
%TO.N,BRD_VIN*%
X121650000Y-93038272D03*
%TO.P,J2,12,Pin_12*%
%TO.N,/Interboard_connector/SEL7*%
X121650000Y-98078272D03*
%TO.P,J2,13,Pin_13*%
%TO.N,BRD_VIN*%
X124190000Y-93038272D03*
%TO.P,J2,14,Pin_14*%
%TO.N,/Interboard_connector/SEL8*%
X124190000Y-98078272D03*
%TO.P,J2,15,Pin_15*%
%TO.N,BRD_VIN*%
X126730000Y-93038272D03*
%TO.P,J2,16,Pin_16*%
%TO.N,unconnected-(J2-Pin_16-Pad16)*%
X126730000Y-98078272D03*
%TO.P,J2,17,Pin_17*%
%TO.N,GND*%
X129270000Y-93038272D03*
%TO.P,J2,18,Pin_18*%
%TO.N,/Bus_switch/Chainbus_In.SDA*%
X129270000Y-98078272D03*
%TO.P,J2,19,Pin_19*%
%TO.N,GND*%
X131810000Y-93038272D03*
%TO.P,J2,20,Pin_20*%
%TO.N,/Bus_switch/Chainbus_In.SCL*%
X131810000Y-98078272D03*
%TO.P,J2,21,Pin_21*%
%TO.N,GND*%
X134350000Y-93038272D03*
%TO.P,J2,22,Pin_22*%
%TO.N,/Bus_switch/Chainbus_In.CS*%
X134350000Y-98078272D03*
%TO.P,J2,23,Pin_23*%
%TO.N,GND*%
X136890000Y-93038272D03*
%TO.P,J2,24,Pin_24*%
%TO.N,/Bus_switch/Chainbus_In.SCK*%
X136890000Y-98078272D03*
%TO.P,J2,25,Pin_25*%
%TO.N,unconnected-(J2-Pin_25-Pad25)*%
X139430000Y-93038272D03*
%TO.P,J2,26,Pin_26*%
%TO.N,/Bus_switch/Chainbus_In.MOSI*%
X139430000Y-98078272D03*
%TO.P,J2,27,Pin_27*%
%TO.N,unconnected-(J2-Pin_27-Pad27)*%
X141970000Y-93038272D03*
%TO.P,J2,28,Pin_28*%
%TO.N,/Bus_switch/Chainbus_In.MISO*%
X141970000Y-98078272D03*
%TO.P,J2,29,Pin_29*%
%TO.N,+12V stby*%
X144510000Y-93038272D03*
%TO.P,J2,30,Pin_30*%
%TO.N,/Bus_switch/Chainbus_In.TX*%
X144510000Y-98078272D03*
%TO.P,J2,31,Pin_31*%
%TO.N,GND*%
X147050000Y-93038272D03*
%TO.P,J2,32,Pin_32*%
%TO.N,/Bus_switch/Chainbus_In.RX*%
X147050000Y-98078272D03*
%TD*%
D30*
%TO.P,JP3,1,A*%
%TO.N,U_reg*%
X128010000Y-110800000D03*
D31*
%TO.P,JP3,2,B*%
%TO.N,/Stepper controller/U_reg_after_jumper*%
X129460000Y-110800000D03*
%TD*%
D22*
%TO.P,TP7,1,1*%
%TO.N,/Stepper controller/U_reg_after_jumper*%
X138600000Y-115700000D03*
%TD*%
D15*
%TO.P,R22,1*%
%TO.N,/Bus_switch/Chainbus.MISO*%
X153900000Y-107900000D03*
%TO.P,R22,2*%
%TO.N,GND*%
X154900000Y-107900000D03*
%TD*%
D24*
%TO.P,C25,1*%
%TO.N,U_reg*%
X126850000Y-114100000D03*
%TO.P,C25,2*%
%TO.N,GND*%
X126850000Y-119500000D03*
%TD*%
D11*
%TO.P,R18,1*%
%TO.N,Net-(C23-Pad2)*%
X116000000Y-106500000D03*
%TO.P,R18,2*%
%TO.N,GND*%
X116000000Y-105500000D03*
%TD*%
D32*
%TO.P,J3,1,Pin_1*%
%TO.N,/Bus_switch/Chainbus.SDA*%
X151170000Y-100000000D03*
D33*
%TO.P,J3,2,Pin_2*%
%TO.N,/Bus_switch/Chainbus.SCL*%
X153710000Y-100000000D03*
%TO.P,J3,3,Pin_3*%
%TO.N,GND*%
X156250000Y-100000000D03*
%TO.P,J3,4,Pin_4*%
%TO.N,+3V3*%
X158790000Y-100000000D03*
%TD*%
D22*
%TO.P,TP6,1,1*%
%TO.N,Net-(U3-BRB)*%
X146000000Y-111700000D03*
%TD*%
D28*
%TO.P,C21,1*%
%TO.N,Net-(C20-Pad2)*%
X91750000Y-130970000D03*
%TO.P,C21,2*%
%TO.N,GND*%
X91750000Y-132530000D03*
%TD*%
D34*
%TO.P,U2,1,A0*%
%TO.N,GND*%
X168710000Y-102660000D03*
%TO.P,U2,2,A1*%
X168710000Y-101390000D03*
%TO.P,U2,3,A2*%
X168710000Y-100110000D03*
%TO.P,U2,4,VSS*%
X168710000Y-98840000D03*
%TO.P,U2,5,SDA*%
%TO.N,/Bus_switch/Chainbus.SDA*%
X163290000Y-98840000D03*
%TO.P,U2,6,SCL*%
%TO.N,/Bus_switch/Chainbus.SCL*%
X163290000Y-100110000D03*
%TO.P,U2,7,#WC*%
%TO.N,unconnected-(U2-#WC-Pad7)*%
X163290000Y-101390000D03*
%TO.P,U2,8,VCC*%
%TO.N,+3V3*%
X163290000Y-102660000D03*
%TD*%
D35*
%TO.P,C3,1*%
%TO.N,+3V3*%
X148875000Y-110567500D03*
%TO.P,C3,2*%
%TO.N,GND*%
X148875000Y-109007500D03*
%TD*%
D26*
%TO.P,R7,1*%
%TO.N,Net-(U3-BRB)*%
X143750000Y-112860000D03*
%TO.P,R7,2*%
%TO.N,GND*%
X143750000Y-109940000D03*
%TD*%
D13*
%TO.P,R25,1*%
%TO.N,+3V3*%
X154600000Y-104500000D03*
%TO.P,R25,2*%
%TO.N,/Bus_switch/SEL1*%
X154600000Y-105500000D03*
%TD*%
D14*
%TO.P,D2,1,K*%
%TO.N,BRD_VIN*%
X97983379Y-94595406D03*
%TO.P,D2,2,A*%
%TO.N,Vin*%
X91123379Y-94595406D03*
%TD*%
D22*
%TO.P,TP8,1,1*%
%TO.N,U_reg*%
X118700000Y-108400000D03*
%TD*%
D30*
%TO.P,JP1,1,A*%
%TO.N,U_reg*%
X127975000Y-105700000D03*
D31*
%TO.P,JP1,2,B*%
%TO.N,/Stepper controller/U_reg_after_jumper*%
X129425000Y-105700000D03*
%TD*%
D24*
%TO.P,C12,1*%
%TO.N,/Stepper controller/U_reg_after_jumper*%
X134000000Y-113550000D03*
%TO.P,C12,2*%
%TO.N,GND*%
X134000000Y-118950000D03*
%TD*%
D30*
%TO.P,JP2,1,A*%
%TO.N,U_reg*%
X127975000Y-108230000D03*
D31*
%TO.P,JP2,2,B*%
%TO.N,/Stepper controller/U_reg_after_jumper*%
X129425000Y-108230000D03*
%TD*%
D11*
%TO.P,R26,1*%
%TO.N,/Bus_switch/SEL1*%
X173600000Y-101600000D03*
%TO.P,R26,2*%
%TO.N,Net-(D1-A)*%
X173600000Y-100600000D03*
%TD*%
D16*
%TO.P,C5,1*%
%TO.N,Net-(U3-CP0)*%
X154620000Y-121180000D03*
%TO.P,C5,2*%
%TO.N,Net-(U3-CPI)*%
X156180000Y-121180000D03*
%TD*%
D13*
%TO.P,R5,1*%
%TO.N,/Stepper controller/5VOUT*%
X160700000Y-106850000D03*
%TO.P,R5,2*%
%TO.N,Net-(R5-Pad2)*%
X160700000Y-107850000D03*
%TD*%
D24*
%TO.P,C27,1*%
%TO.N,Net-(J8-Pin_1)*%
X104500000Y-130300000D03*
%TO.P,C27,2*%
%TO.N,GND*%
X104500000Y-135700000D03*
%TD*%
D28*
%TO.P,C2,1*%
%TO.N,+3V3*%
X161450000Y-102670000D03*
%TO.P,C2,2*%
%TO.N,GND*%
X161450000Y-104230000D03*
%TD*%
D24*
%TO.P,C17,1*%
%TO.N,Net-(J8-Pin_1)*%
X111750000Y-130500000D03*
%TO.P,C17,2*%
%TO.N,GND*%
X111750000Y-135900000D03*
%TD*%
D27*
%TO.P,R1,1*%
%TO.N,+3V3*%
X154200000Y-110600000D03*
%TO.P,R1,2*%
%TO.N,/Bus_switch/Chainbus.CS*%
X153200000Y-110600000D03*
%TD*%
D28*
%TO.P,C7,1*%
%TO.N,/Stepper controller/U_reg_after_jumper*%
X156600000Y-118020000D03*
%TO.P,C7,2*%
%TO.N,Net-(U3-VCP)*%
X156600000Y-119580000D03*
%TD*%
D36*
%TO.P,D1,1,K*%
%TO.N,GND*%
X175350000Y-102187500D03*
%TO.P,D1,2,A*%
%TO.N,Net-(D1-A)*%
X175350000Y-100612500D03*
%TD*%
D22*
%TO.P,TP5,1,1*%
%TO.N,Net-(U3-BRA)*%
X155400000Y-112050000D03*
%TD*%
D37*
%TO.P,RV1,1,1*%
%TO.N,Net-(R5-Pad2)*%
X165295000Y-108460000D03*
%TO.P,RV1,2,2*%
%TO.N,Net-(U3-AIN_IREF)*%
X165295000Y-111000000D03*
%TO.P,RV1,3,3*%
%TO.N,GND*%
X165295000Y-113540000D03*
%TD*%
D38*
%TO.P,U5,1,VIN*%
%TO.N,Net-(J8-Pin_1)*%
X92560000Y-123600000D03*
%TO.P,U5,2,OUT*%
%TO.N,Net-(D4-K)*%
X94260000Y-123600000D03*
%TO.P,U5,3,GND*%
%TO.N,GND*%
X95960000Y-123600000D03*
D39*
X95960000Y-114450000D03*
D38*
%TO.P,U5,4,FB*%
%TO.N,Net-(U5-FB)*%
X97660000Y-123600000D03*
%TO.P,U5,5,~{ON}/OFF*%
%TO.N,GND*%
X99360000Y-123600000D03*
%TD*%
D15*
%TO.P,R16,1*%
%TO.N,Net-(R16-Pad1)*%
X99700000Y-99000000D03*
%TO.P,R16,2*%
%TO.N,U_reg*%
X100700000Y-99000000D03*
%TD*%
D35*
%TO.P,C24,1*%
%TO.N,Net-(C23-Pad2)*%
X117000000Y-106280000D03*
%TO.P,C24,2*%
%TO.N,GND*%
X117000000Y-104720000D03*
%TD*%
D40*
%TO.P,C14,1*%
%TO.N,/Stepper controller/U_reg_after_jumper*%
X168750000Y-119700000D03*
%TO.P,C14,2*%
%TO.N,GND*%
X174150000Y-119700000D03*
%TD*%
D35*
%TO.P,C1,1*%
%TO.N,+3V3*%
X149050000Y-106980000D03*
%TO.P,C1,2*%
%TO.N,GND*%
X149050000Y-105420000D03*
%TD*%
D16*
%TO.P,C22,1*%
%TO.N,Net-(U5-FB)*%
X104760000Y-100050000D03*
%TO.P,C22,2*%
%TO.N,U_reg*%
X106320000Y-100050000D03*
%TD*%
D41*
%TO.P,J6,1,Pin_1*%
%TO.N,/Stepper controller/ENCN_DCO*%
X161000000Y-135350000D03*
D42*
%TO.P,J6,2,Pin_2*%
%TO.N,/Stepper controller/ENCB_DCEN_CFG4*%
X163500000Y-135350000D03*
%TO.P,J6,3,Pin_3*%
%TO.N,/Stepper controller/ENCA_DCIN_CFG5*%
X166000000Y-135350000D03*
%TD*%
D43*
%TO.P,J4,*%
%TO.N,*%
X81150000Y-128750000D03*
X81150000Y-115250000D03*
D44*
%TO.P,J4,1,Pin_1*%
%TO.N,GND*%
X87150000Y-125600000D03*
D45*
%TO.P,J4,2,Pin_2*%
%TO.N,Vin*%
X87150000Y-118400000D03*
%TD*%
D40*
%TO.P,C15,1*%
%TO.N,/Stepper controller/U_reg_after_jumper*%
X168500000Y-126950000D03*
%TO.P,C15,2*%
%TO.N,GND*%
X173900000Y-126950000D03*
%TD*%
D46*
%TO.P,C11,1*%
%TO.N,Net-(C10-Pad2)*%
X135570000Y-104800000D03*
%TO.P,C11,2*%
%TO.N,GND*%
X138530000Y-104800000D03*
%TD*%
D35*
%TO.P,C23,1*%
%TO.N,U_reg*%
X117000000Y-109250000D03*
%TO.P,C23,2*%
%TO.N,Net-(C23-Pad2)*%
X117000000Y-107690000D03*
%TD*%
D14*
%TO.P,D8,1,K*%
%TO.N,U_reg*%
X126870000Y-126800000D03*
%TO.P,D8,2,A*%
%TO.N,Net-(D5-K)*%
X133730000Y-126800000D03*
%TD*%
D32*
%TO.P,J8,1,Pin_1*%
%TO.N,Net-(J8-Pin_1)*%
X109210000Y-125800000D03*
D33*
%TO.P,J8,2,Pin_2*%
%TO.N,Vin*%
X111750000Y-125800000D03*
%TO.P,J8,3,Pin_3*%
%TO.N,Net-(D6-A)*%
X114290000Y-125800000D03*
%TD*%
D22*
%TO.P,TP2,1,1*%
%TO.N,Net-(U3-SWP_DIAG1)*%
X150000000Y-124850000D03*
%TD*%
D43*
%TO.P,J5,*%
%TO.N,*%
X81150000Y-111750000D03*
X81150000Y-98250000D03*
D44*
%TO.P,J5,1,Pin_1*%
%TO.N,GND*%
X87150000Y-101400000D03*
D45*
%TO.P,J5,2,Pin_2*%
%TO.N,Vin*%
X87150000Y-108600000D03*
%TD*%
D47*
%TO.P,C18,1*%
%TO.N,+3V3*%
X157780000Y-91800000D03*
%TO.P,C18,2*%
%TO.N,GND*%
X156220000Y-91800000D03*
%TD*%
D15*
%TO.P,R13,1*%
%TO.N,Net-(U5-FB)*%
X104950000Y-98940000D03*
%TO.P,R13,2*%
%TO.N,U_reg*%
X105950000Y-98940000D03*
%TD*%
D13*
%TO.P,R11,1*%
%TO.N,Net-(C20-Pad2)*%
X90750000Y-131000000D03*
%TO.P,R11,2*%
%TO.N,GND*%
X90750000Y-132000000D03*
%TD*%
D48*
%TO.P,U3,1,TST_MODE*%
%TO.N,GND*%
X153375000Y-112462500D03*
%TO.P,U3,2,CLK*%
X152875000Y-112462500D03*
%TO.P,U3,3,~{CS}_CFG3*%
%TO.N,/Bus_switch/Chainbus.CS*%
X152375000Y-112462500D03*
%TO.P,U3,4,SCK_CFG2*%
%TO.N,/Bus_switch/Chainbus.SCK*%
X151875000Y-112462500D03*
%TO.P,U3,5,SDI_NAI_CFG1*%
%TO.N,/Bus_switch/Chainbus.MOSI*%
X151375000Y-112462500D03*
%TO.P,U3,6,NC*%
%TO.N,unconnected-(U3-NC-Pad6)*%
X150875000Y-112462500D03*
%TO.P,U3,7,SDO_NAO_CFG0*%
%TO.N,/Bus_switch/Chainbus.MISO*%
X150375000Y-112462500D03*
%TO.P,U3,8,REFL_STEP*%
%TO.N,GND*%
X149875000Y-112462500D03*
%TO.P,U3,9,REFR_DIR*%
X149375000Y-112462500D03*
%TO.P,U3,10,VCC_IO*%
%TO.N,+3V3*%
X148875000Y-112462500D03*
%TO.P,U3,11,SD_MODE*%
%TO.N,GND*%
X148375000Y-112462500D03*
%TO.P,U3,12,SPI_MODE*%
%TO.N,unconnected-(U3-SPI_MODE-Pad12)*%
X147875000Y-112462500D03*
D49*
%TO.P,U3,13,GNDP*%
%TO.N,GND*%
X146462500Y-113875000D03*
%TO.P,U3,14,DNC*%
%TO.N,unconnected-(U3-DNC-Pad14)*%
X146462500Y-114375000D03*
%TO.P,U3,15,OB1*%
%TO.N,/Stepper controller/OB1*%
X146462500Y-114875000D03*
%TO.P,U3,16,DNC*%
%TO.N,unconnected-(U3-DNC-Pad16)*%
X146462500Y-115375000D03*
%TO.P,U3,17,BRB*%
%TO.N,Net-(U3-BRB)*%
X146462500Y-115875000D03*
%TO.P,U3,18,DNC*%
%TO.N,unconnected-(U3-DNC-Pad18)*%
X146462500Y-116375000D03*
%TO.P,U3,19,OB2*%
%TO.N,/Stepper controller/OB2*%
X146462500Y-116875000D03*
%TO.P,U3,20,DNC*%
%TO.N,unconnected-(U3-DNC-Pad20)*%
X146462500Y-117375000D03*
%TO.P,U3,21,VS*%
%TO.N,/Stepper controller/U_reg_after_jumper*%
X146462500Y-117875000D03*
%TO.P,U3,22,DNC*%
%TO.N,unconnected-(U3-DNC-Pad22)*%
X146462500Y-118375000D03*
%TO.P,U3,23,ENCN_DCO*%
%TO.N,/Stepper controller/ENCN_DCO*%
X146462500Y-118875000D03*
%TO.P,U3,24,ENCB_DCEN_CFG4*%
%TO.N,/Stepper controller/ENCB_DCEN_CFG4*%
X146462500Y-119375000D03*
D48*
%TO.P,U3,25,ENCA_DCIN_CFG5*%
%TO.N,/Stepper controller/ENCA_DCIN_CFG5*%
X147875000Y-120787500D03*
%TO.P,U3,26,SWN_DIAG0*%
%TO.N,Net-(U3-SWN_DIAG0)*%
X148375000Y-120787500D03*
%TO.P,U3,27,SWP_DIAG1*%
%TO.N,Net-(U3-SWP_DIAG1)*%
X148875000Y-120787500D03*
%TO.P,U3,28,SWSEL*%
%TO.N,Net-(U3-SWSEL)*%
X149375000Y-120787500D03*
%TO.P,U3,29,~{DRV_EN}_CFG6*%
%TO.N,GND*%
X149875000Y-120787500D03*
%TO.P,U3,30,AIN_IREF*%
%TO.N,Net-(U3-AIN_IREF)*%
X150375000Y-120787500D03*
%TO.P,U3,31,NC*%
%TO.N,unconnected-(U3-NC-Pad31)*%
X150875000Y-120787500D03*
%TO.P,U3,32,GNDA*%
%TO.N,GND*%
X151375000Y-120787500D03*
%TO.P,U3,33,5VOUT*%
%TO.N,/Stepper controller/5VOUT*%
X151875000Y-120787500D03*
%TO.P,U3,34,VCC*%
%TO.N,Net-(U3-VCC)*%
X152375000Y-120787500D03*
%TO.P,U3,35,CP0*%
%TO.N,Net-(U3-CP0)*%
X152875000Y-120787500D03*
%TO.P,U3,36,NC*%
%TO.N,unconnected-(U3-NC-Pad36)*%
X153375000Y-120787500D03*
D49*
%TO.P,U3,37,CPI*%
%TO.N,Net-(U3-CPI)*%
X154787500Y-119375000D03*
%TO.P,U3,38,VCP*%
%TO.N,Net-(U3-VCP)*%
X154787500Y-118875000D03*
%TO.P,U3,39,VSA*%
%TO.N,/Stepper controller/U_reg_after_jumper*%
X154787500Y-118375000D03*
%TO.P,U3,40,VS*%
X154787500Y-117875000D03*
%TO.P,U3,41,DNC*%
%TO.N,unconnected-(U3-DNC-Pad41)*%
X154787500Y-117375000D03*
%TO.P,U3,42,OA2*%
%TO.N,/Stepper controller/OA2*%
X154787500Y-116875000D03*
%TO.P,U3,43,DNC*%
%TO.N,unconnected-(U3-DNC-Pad43)*%
X154787500Y-116375000D03*
%TO.P,U3,44,BRA*%
%TO.N,Net-(U3-BRA)*%
X154787500Y-115875000D03*
%TO.P,U3,45,DNC*%
%TO.N,unconnected-(U3-DNC-Pad45)*%
X154787500Y-115375000D03*
%TO.P,U3,46,OA1*%
%TO.N,/Stepper controller/OA1*%
X154787500Y-114875000D03*
%TO.P,U3,47,DNC*%
%TO.N,unconnected-(U3-DNC-Pad47)*%
X154787500Y-114375000D03*
%TO.P,U3,48,GNDP*%
%TO.N,GND*%
X154787500Y-113875000D03*
D50*
%TO.P,U3,49,EP*%
X152875000Y-114375000D03*
X151750000Y-114375000D03*
X150625000Y-114375000D03*
X149500000Y-114375000D03*
X148375000Y-114375000D03*
X152875000Y-115500000D03*
X151750000Y-115500000D03*
X150625000Y-115500000D03*
X149500000Y-115500000D03*
X148375000Y-115500000D03*
X152875000Y-116625000D03*
X151750000Y-116625000D03*
X150625000Y-116625000D03*
D51*
X150625000Y-116625000D03*
D50*
X149500000Y-116625000D03*
X148375000Y-116625000D03*
X152875000Y-117750000D03*
X151750000Y-117750000D03*
X150625000Y-117750000D03*
X149500000Y-117750000D03*
X148375000Y-117750000D03*
X152875000Y-118875000D03*
X151750000Y-118875000D03*
X150625000Y-118875000D03*
X149500000Y-118875000D03*
X148375000Y-118875000D03*
%TD*%
D13*
%TO.P,R20,1*%
%TO.N,+3V3*%
X149900000Y-96300000D03*
%TO.P,R20,2*%
%TO.N,/Bus_switch/Chainbus.TX*%
X149900000Y-97300000D03*
%TD*%
D52*
%TO.P,C10,1*%
%TO.N,/Stepper controller/U_reg_after_jumper*%
X133600000Y-106680000D03*
%TO.P,C10,2*%
%TO.N,Net-(C10-Pad2)*%
X133600000Y-103720000D03*
%TD*%
D28*
%TO.P,C16,1*%
%TO.N,+5V*%
X167030000Y-91520000D03*
%TO.P,C16,2*%
%TO.N,GND*%
X167030000Y-93080000D03*
%TD*%
D15*
%TO.P,R14,1*%
%TO.N,Net-(R14-Pad1)*%
X94600000Y-98900000D03*
%TO.P,R14,2*%
%TO.N,U_reg*%
X95600000Y-98900000D03*
%TD*%
D28*
%TO.P,C4,1*%
%TO.N,/Stepper controller/5VOUT*%
X151700000Y-125970000D03*
%TO.P,C4,2*%
%TO.N,GND*%
X151700000Y-127530000D03*
%TD*%
D11*
%TO.P,R3,1*%
%TO.N,/Bus_switch/Chainbus.SCK*%
X156900000Y-104700000D03*
%TO.P,R3,2*%
%TO.N,GND*%
X156900000Y-103700000D03*
%TD*%
D35*
%TO.P,C8,1*%
%TO.N,/Stepper controller/U_reg_after_jumper*%
X131800000Y-105180000D03*
%TO.P,C8,2*%
%TO.N,Net-(C10-Pad2)*%
X131800000Y-103620000D03*
%TD*%
D15*
%TO.P,R15,1*%
%TO.N,Net-(R15-Pad1)*%
X97200000Y-99000000D03*
%TO.P,R15,2*%
%TO.N,U_reg*%
X98200000Y-99000000D03*
%TD*%
D41*
%TO.P,J7,1,Pin_1*%
%TO.N,/Stepper controller/OB1*%
X146500000Y-133655000D03*
D42*
%TO.P,J7,2,Pin_2*%
%TO.N,/Stepper controller/OB2*%
X149000000Y-133655000D03*
%TO.P,J7,3,Pin_3*%
%TO.N,/Stepper controller/OA2*%
X151500000Y-133655000D03*
%TO.P,J7,4,Pin_4*%
%TO.N,/Stepper controller/OA1*%
X154000000Y-133655000D03*
%TD*%
D14*
%TO.P,D4,1,K*%
%TO.N,Net-(D4-K)*%
X106220000Y-118600000D03*
%TO.P,D4,2,A*%
%TO.N,GND*%
X113080000Y-118600000D03*
%TD*%
D53*
%TO.P,U4,1,GND*%
%TO.N,GND*%
X164833758Y-96624225D03*
%TO.P,U4,2,VOUT*%
%TO.N,+3V3*%
X164833758Y-94324225D03*
%TO.P,U4,3,VIN*%
%TO.N,+5V*%
X164833758Y-92024225D03*
D54*
%TO.P,U4,4,VOUT*%
%TO.N,+3V3*%
X158863758Y-93324225D03*
X158863758Y-94324225D03*
D55*
X158863758Y-94324225D03*
D54*
X158863758Y-95324225D03*
%TD*%
D22*
%TO.P,TP3,1,1*%
%TO.N,Net-(U3-SWN_DIAG0)*%
X153850000Y-126400000D03*
%TD*%
D24*
%TO.P,C26,1*%
%TO.N,U_reg*%
X119500000Y-113550000D03*
%TO.P,C26,2*%
%TO.N,GND*%
X119500000Y-118950000D03*
%TD*%
D16*
%TO.P,C9,1*%
%TO.N,Net-(C10-Pad2)*%
X135520000Y-103050000D03*
%TO.P,C9,2*%
%TO.N,GND*%
X137080000Y-103050000D03*
%TD*%
D11*
%TO.P,R17,1*%
%TO.N,U_reg*%
X116000000Y-109000000D03*
%TO.P,R17,2*%
%TO.N,Net-(C23-Pad2)*%
X116000000Y-108000000D03*
%TD*%
D56*
%TO.P,D3,1*%
%TO.N,GND*%
X140975000Y-110375000D03*
%TO.P,D3,2*%
%TO.N,/Stepper controller/U_reg_after_jumper*%
X136675000Y-110375000D03*
%TD*%
D57*
%TO.N,GND*%
X90250000Y-133780000D03*
X128100000Y-120300000D03*
X170500000Y-102700000D03*
X125600000Y-119550000D03*
X133050000Y-92050000D03*
X92050000Y-112400000D03*
X102050000Y-135850000D03*
X139750000Y-104800000D03*
X98800000Y-111650000D03*
X141650000Y-108750000D03*
X115650000Y-93800000D03*
X115650000Y-91750000D03*
X173900000Y-125700000D03*
X92800000Y-112400000D03*
X101050000Y-112400000D03*
X91300000Y-111650000D03*
X125600000Y-118800000D03*
X98800000Y-112400000D03*
X110100000Y-92950000D03*
X95050000Y-111650000D03*
X111900000Y-118600000D03*
X156500000Y-93000000D03*
X95810000Y-110800000D03*
X99550000Y-111650000D03*
X90250000Y-133030000D03*
X102050000Y-135100000D03*
X174650000Y-128200000D03*
X96550000Y-112400000D03*
X148150000Y-92950000D03*
X100310000Y-110800000D03*
X113400000Y-118600000D03*
X110400000Y-135100000D03*
X173150000Y-125700000D03*
X139700000Y-101250000D03*
X93550000Y-112400000D03*
X94850000Y-136050000D03*
X95600000Y-135300000D03*
X98060000Y-110800000D03*
X106800000Y-135650000D03*
X102800000Y-135100000D03*
X92800000Y-111650000D03*
X106800000Y-134900000D03*
X114000000Y-135300000D03*
X114195413Y-119372036D03*
X95600000Y-136800000D03*
X117250000Y-103750000D03*
X100300000Y-111650000D03*
X132750000Y-119000000D03*
X106050000Y-135650000D03*
X95600000Y-136050000D03*
X170550000Y-98800000D03*
X162500000Y-104250000D03*
X130500000Y-94000000D03*
X173400000Y-120950000D03*
X98905212Y-136977963D03*
X120750000Y-119250000D03*
X110400000Y-136600000D03*
X95050000Y-112400000D03*
X112650000Y-118600000D03*
X115750000Y-103750000D03*
X112650000Y-117850000D03*
X120750000Y-118500000D03*
X114000000Y-136800000D03*
X106800000Y-136400000D03*
X173400000Y-118450000D03*
X98905212Y-136227963D03*
X155650000Y-108800000D03*
X174900000Y-120950000D03*
X96550000Y-111650000D03*
X95800000Y-112400000D03*
X101050000Y-111650000D03*
X152800000Y-127550000D03*
X166600000Y-96400000D03*
X138000000Y-103000000D03*
X155200000Y-122400000D03*
X124500000Y-105750000D03*
X90750000Y-133780000D03*
X157500000Y-102800000D03*
X170600000Y-100150000D03*
X97300000Y-112400000D03*
X91310000Y-110800000D03*
X109650000Y-135100000D03*
X128100000Y-119550000D03*
X94300000Y-112400000D03*
X113250000Y-135300000D03*
X102800000Y-136600000D03*
X92060000Y-110800000D03*
X116500000Y-103750000D03*
X135250000Y-119750000D03*
X113250000Y-136800000D03*
X118250000Y-120000000D03*
X106050000Y-136400000D03*
X174650000Y-125700000D03*
X175350000Y-103550000D03*
X148150000Y-94000000D03*
X111900000Y-117850000D03*
X148150000Y-91950000D03*
X114000000Y-136050000D03*
X124500000Y-104250000D03*
X167300000Y-95550000D03*
X167300000Y-96450000D03*
X97310000Y-110800000D03*
X141700000Y-112000000D03*
X140950000Y-112000000D03*
X92050000Y-111650000D03*
X173150000Y-128200000D03*
X113250000Y-136050000D03*
X98905212Y-135477963D03*
X94850000Y-136800000D03*
X102800000Y-135850000D03*
X174150000Y-120950000D03*
X111877963Y-119344788D03*
X124500000Y-105000000D03*
X99550000Y-112400000D03*
X143700000Y-111400000D03*
X94300000Y-111650000D03*
X94310000Y-110800000D03*
X170500000Y-101350000D03*
X115650000Y-92750000D03*
X125600000Y-120300000D03*
X174900000Y-118450000D03*
X135250000Y-119000000D03*
X166550000Y-95550000D03*
X91300000Y-112400000D03*
X120750000Y-120000000D03*
X93560000Y-110800000D03*
X118250000Y-119250000D03*
X150050000Y-105400000D03*
X110100000Y-91950000D03*
X97300000Y-111650000D03*
X122000000Y-105750000D03*
X140150000Y-108750000D03*
X140200000Y-112000000D03*
X98050000Y-112400000D03*
X133050000Y-94100000D03*
X99655212Y-136227963D03*
X94850000Y-135300000D03*
X140900000Y-108750000D03*
X101060000Y-110800000D03*
X130500000Y-92950000D03*
X114217450Y-118627248D03*
X132750000Y-118250000D03*
X113377963Y-119344788D03*
X112627963Y-119344788D03*
X109650000Y-135850000D03*
X95060000Y-110800000D03*
X106050000Y-134900000D03*
X135600000Y-92000000D03*
X98810000Y-110800000D03*
X92810000Y-110800000D03*
X118250000Y-118500000D03*
X99655212Y-136977963D03*
X139709886Y-104149980D03*
X122000000Y-105000000D03*
X155600000Y-107900000D03*
X157800000Y-108100000D03*
X93550000Y-111650000D03*
X109650000Y-136600000D03*
X135250000Y-118250000D03*
X95800000Y-111650000D03*
X98050000Y-111650000D03*
X113400000Y-117850000D03*
X114217450Y-117877248D03*
X132750000Y-119750000D03*
X135600000Y-94050000D03*
X148900000Y-107900000D03*
X135600000Y-93000000D03*
X137050000Y-102050000D03*
X100300000Y-112400000D03*
X102050000Y-136600000D03*
X122000000Y-104250000D03*
X110100000Y-94000000D03*
X102000000Y-100200000D03*
X173900000Y-128200000D03*
X139750000Y-105450000D03*
X133050000Y-93050000D03*
X99560000Y-110800000D03*
X130500000Y-91950000D03*
X128100000Y-118800000D03*
X110400000Y-135850000D03*
X174150000Y-118450000D03*
X99655212Y-135477963D03*
X96560000Y-110800000D03*
%TO.N,Net-(U5-FB)*%
X97660000Y-120140000D03*
%TO.N,/Stepper controller/5VOUT*%
X153300000Y-124850000D03*
X161800000Y-106600000D03*
%TO.N,+3V3*%
X155800000Y-106200000D03*
X150050000Y-107000000D03*
%TO.N,+5V*%
X167000000Y-90400000D03*
X112750000Y-92000000D03*
X112750000Y-93600000D03*
X112750000Y-92850000D03*
X112750000Y-94300000D03*
%TO.N,U_reg*%
X107200000Y-100300000D03*
X126840000Y-103560000D03*
%TO.N,/Bus_switch/Chainbus_In.RX*%
X148200000Y-98050000D03*
%TO.N,/Bus_switch/Chainbus_In.MOSI*%
X140450000Y-98000000D03*
%TO.N,/Bus_switch/Chainbus_In.SDA*%
X142200000Y-105600000D03*
X130300000Y-98100000D03*
%TO.N,/Bus_switch/SEL1*%
X140000000Y-107200000D03*
X141200000Y-105500000D03*
%TO.N,/Interboard_connector/SEL2*%
X110250000Y-98000000D03*
%TO.N,/Bus_switch/Chainbus_In.TX*%
X145650000Y-97950000D03*
%TO.N,/Interboard_connector/SEL8*%
X125563272Y-98063272D03*
%TO.N,/Interboard_connector/SEL5*%
X117750000Y-98000000D03*
%TO.N,/Interboard_connector/SEL7*%
X123063272Y-98063272D03*
%TO.N,/Interboard_connector/SEL4*%
X115250000Y-98000000D03*
%TO.N,/Bus_switch/Chainbus_In.SCK*%
X137850000Y-98050000D03*
%TO.N,/Bus_switch/Chainbus_In.MISO*%
X143000000Y-98000000D03*
%TO.N,+12V stby*%
X143400000Y-93050000D03*
%TO.N,/Bus_switch/Chainbus_In.SCL*%
X132850000Y-98050000D03*
X143900000Y-105900000D03*
%TO.N,/Bus_switch/Chainbus_In.CS*%
X135400000Y-98050000D03*
%TO.N,/Interboard_connector/SEL3*%
X112750000Y-98000000D03*
%TO.N,/Interboard_connector/SEL6*%
X120250000Y-98000000D03*
%TO.N,BRD_VIN*%
X122900000Y-92950000D03*
X120350000Y-93900000D03*
X125450000Y-91950000D03*
X120350000Y-92900000D03*
X122900000Y-93950000D03*
X125450000Y-92950000D03*
X120350000Y-91900000D03*
X122900000Y-91950000D03*
X125450000Y-93950000D03*
%TO.N,/Bus_switch/Chainbus.SCL*%
X156600000Y-97900000D03*
X144600000Y-108400000D03*
%TO.N,/Bus_switch/Chainbus.SDA*%
X143600000Y-108500000D03*
%TO.N,/Stepper controller/ENCN_DCO*%
X145192652Y-120967778D03*
%TO.N,/Stepper controller/ENCA_DCIN_CFG5*%
X147012437Y-122787563D03*
%TO.N,/Stepper controller/ENCB_DCEN_CFG4*%
X145987437Y-121762563D03*
%TO.N,Net-(U3-BRA)*%
X156450000Y-112250000D03*
X156308637Y-115878396D03*
%TO.N,Net-(U3-BRB)*%
X145000000Y-112800000D03*
X145000000Y-115900000D03*
%TO.N,Net-(U3-AIN_IREF)*%
X150600000Y-123400000D03*
%TO.N,Net-(U3-SWSEL)*%
X149350000Y-123400000D03*
X155950000Y-124000000D03*
%TO.N,Net-(U3-SWN_DIAG0)*%
X148150000Y-123900000D03*
X153300000Y-125900000D03*
%TO.N,/Bus_switch/Chainbus.CS*%
X142900000Y-108700000D03*
X152400000Y-110900000D03*
%TO.N,/Bus_switch/Chainbus.MOSI*%
X148600000Y-103600000D03*
X151375000Y-108800000D03*
X152900000Y-108800000D03*
X146100000Y-102900000D03*
%TO.N,/Bus_switch/Chainbus.TX*%
X149900000Y-97900000D03*
X145300000Y-100000000D03*
%TO.N,/Bus_switch/Chainbus.MISO*%
X149500000Y-104400000D03*
X153100000Y-107900000D03*
X144600000Y-102400000D03*
X150600000Y-107800000D03*
%TO.N,/Bus_switch/Chainbus.SCK*%
X155700000Y-105100000D03*
X154800000Y-106300000D03*
X148700000Y-102800000D03*
X147100000Y-102900000D03*
%TO.N,/Stepper controller/U_reg_after_jumper*%
X164600000Y-120000000D03*
X164600000Y-120800000D03*
X137700000Y-113000000D03*
X136900000Y-113000000D03*
X165400000Y-120800000D03*
X165400000Y-118600000D03*
X137700000Y-114500000D03*
X157700000Y-120000000D03*
X136900000Y-114500000D03*
X136853881Y-115320031D03*
X158350000Y-119350000D03*
X158350000Y-120000000D03*
X157700000Y-119350000D03*
X138500000Y-113000000D03*
X138500000Y-112300000D03*
X165400000Y-120000000D03*
X164600000Y-118600000D03*
X157700000Y-118700000D03*
X136900000Y-113700000D03*
X164600000Y-119300000D03*
X136900000Y-112300000D03*
X137700000Y-113700000D03*
X138500000Y-113700000D03*
X144700000Y-118250000D03*
X137700000Y-112300000D03*
X136775163Y-116119316D03*
X145100000Y-117850000D03*
X138500000Y-114500000D03*
X165400000Y-119300000D03*
%TD*%
D58*
%TO.N,GND*%
X139750000Y-104800000D02*
X138530000Y-104800000D01*
D59*
X90750000Y-132000000D02*
X90750000Y-133530000D01*
D58*
X151700000Y-127530000D02*
X152780000Y-127530000D01*
X139750000Y-105450000D02*
X139180000Y-105450000D01*
X138000000Y-103000000D02*
X137130000Y-103000000D01*
X139709886Y-104149980D02*
X139180020Y-104149980D01*
X151375000Y-120787500D02*
X151375000Y-117375000D01*
X168710000Y-101390000D02*
X170460000Y-101390000D01*
X151375000Y-117375000D02*
X150625000Y-116625000D01*
X170560000Y-100110000D02*
X170600000Y-100150000D01*
X149875000Y-117375000D02*
X150625000Y-116625000D01*
X152875000Y-114375000D02*
X150625000Y-116625000D01*
X137150000Y-102050000D02*
X136400000Y-102050000D01*
X148875000Y-109007500D02*
X148875000Y-107925000D01*
X168710000Y-102660000D02*
X170460000Y-102660000D01*
X149375000Y-115375000D02*
X149375000Y-112462500D01*
X154900000Y-107900000D02*
X155600000Y-107900000D01*
X157800000Y-109440000D02*
X157800000Y-108100000D01*
X161450000Y-104230000D02*
X162480000Y-104230000D01*
X152875000Y-112462500D02*
X152875000Y-114375000D01*
X143750000Y-111350000D02*
X143700000Y-111400000D01*
D59*
X167030000Y-95930000D02*
X167150000Y-96050000D01*
D58*
X155000000Y-122400000D02*
X155200000Y-122400000D01*
D59*
X164833758Y-96624225D02*
X166575775Y-96624225D01*
D58*
X156220000Y-92720000D02*
X156500000Y-93000000D01*
X170510000Y-98840000D02*
X170550000Y-98800000D01*
X149875000Y-115875000D02*
X150625000Y-116625000D01*
X154180000Y-122400000D02*
X155000000Y-122400000D01*
X154900000Y-108800000D02*
X155650000Y-108800000D01*
D59*
X91280000Y-132530000D02*
X91750000Y-132530000D01*
X164780000Y-96050000D02*
X167150000Y-96050000D01*
D58*
X149050000Y-105420000D02*
X150030000Y-105420000D01*
D59*
X90750000Y-133530000D02*
X90250000Y-133530000D01*
D58*
X156220000Y-91800000D02*
X156220000Y-92720000D01*
X150625000Y-116625000D02*
X149375000Y-115375000D01*
X139787500Y-101337500D02*
X139700000Y-101250000D01*
X175350000Y-101943655D02*
X175350000Y-103550000D01*
X148375000Y-114375000D02*
X150625000Y-116625000D01*
X150030000Y-105420000D02*
X150050000Y-105400000D01*
D59*
X90750000Y-132000000D02*
X91280000Y-132530000D01*
D58*
X168710000Y-98840000D02*
X170510000Y-98840000D01*
X139180000Y-105450000D02*
X138530000Y-104800000D01*
X148875000Y-107925000D02*
X148900000Y-107900000D01*
X149875000Y-120787500D02*
X149875000Y-117375000D01*
X156900000Y-103700000D02*
X156900000Y-103400000D01*
X146462500Y-113875000D02*
X147875000Y-113875000D01*
X170460000Y-102660000D02*
X170500000Y-102700000D01*
X154787500Y-113875000D02*
X153375000Y-113875000D01*
X137130000Y-103000000D02*
X137080000Y-103050000D01*
X162480000Y-104230000D02*
X162500000Y-104250000D01*
D59*
X166575775Y-96624225D02*
X167150000Y-96050000D01*
X167030000Y-93080000D02*
X167030000Y-95930000D01*
D58*
X140725000Y-101337500D02*
X139787500Y-101337500D01*
X153375000Y-112462500D02*
X153375000Y-113875000D01*
X148375000Y-112462500D02*
X148375000Y-114375000D01*
X156900000Y-103400000D02*
X157500000Y-102800000D01*
X102590000Y-100250000D02*
X102050000Y-100250000D01*
X153375000Y-113875000D02*
X152875000Y-114375000D01*
X152780000Y-127530000D02*
X152800000Y-127550000D01*
X102050000Y-100250000D02*
X102000000Y-100200000D01*
X170460000Y-101390000D02*
X170500000Y-101350000D01*
X143750000Y-109940000D02*
X143750000Y-111350000D01*
X153375000Y-113875000D02*
X151750000Y-115500000D01*
X168710000Y-100110000D02*
X170560000Y-100110000D01*
X147875000Y-113875000D02*
X148375000Y-114375000D01*
X149875000Y-112462500D02*
X149875000Y-115875000D01*
X139180020Y-104149980D02*
X138530000Y-104800000D01*
%TO.N,Net-(U5-FB)*%
X102200000Y-108400000D02*
X99740000Y-108400000D01*
X102200000Y-108400000D02*
X102200000Y-103400000D01*
X104760000Y-100050000D02*
X104971472Y-99838528D01*
X97200000Y-108400000D02*
X99740000Y-108400000D01*
X97660000Y-123600000D02*
X97660000Y-120140000D01*
X103590000Y-100250000D02*
X104100000Y-100250000D01*
X104100000Y-101500000D02*
X104100000Y-100250000D01*
X94660000Y-108400000D02*
X97200000Y-108400000D01*
X104100000Y-100250000D02*
X104560000Y-100250000D01*
X104560000Y-100250000D02*
X104760000Y-100050000D01*
X97700000Y-120100000D02*
X97660000Y-120140000D01*
X104971472Y-99838528D02*
X104971472Y-98961472D01*
X102200000Y-103400000D02*
X104100000Y-101500000D01*
X97660000Y-120140000D02*
X97720000Y-120200000D01*
%TO.N,/Stepper controller/5VOUT*%
X152250000Y-124200000D02*
X151880000Y-124200000D01*
X151875000Y-124195000D02*
X151880000Y-124200000D01*
X152350000Y-124300000D02*
X152250000Y-124200000D01*
X151880000Y-124200000D02*
X152650000Y-124200000D01*
X151880000Y-124200000D02*
X151880000Y-125790000D01*
X151880000Y-125790000D02*
X151700000Y-125970000D01*
X160950000Y-106600000D02*
X160700000Y-106850000D01*
X161800000Y-106600000D02*
X160950000Y-106600000D01*
X152650000Y-124200000D02*
X153300000Y-124850000D01*
X151875000Y-120787500D02*
X151875000Y-124195000D01*
%TO.N,Net-(U3-CP0)*%
X152875000Y-119925000D02*
X152875000Y-120787500D01*
X153051000Y-119749000D02*
X152875000Y-119925000D01*
X154620000Y-120705000D02*
X153664000Y-119749000D01*
X154620000Y-121180000D02*
X154620000Y-120705000D01*
X153664000Y-119749000D02*
X153051000Y-119749000D01*
D60*
%TO.N,+3V3*%
X152200000Y-97700000D02*
X154300000Y-97700000D01*
X155200000Y-110600000D02*
X156200000Y-109600000D01*
X157780000Y-93240467D02*
X158863758Y-94324225D01*
X154200000Y-110600000D02*
X155200000Y-110600000D01*
X154300000Y-97700000D02*
X156000000Y-96000000D01*
X148875000Y-110567500D02*
X148875000Y-112462500D01*
X150050000Y-107000000D02*
X147937500Y-107000000D01*
X161450000Y-102660000D02*
X158790000Y-100000000D01*
X150050000Y-107000000D02*
X150050000Y-109392500D01*
X147937500Y-107000000D02*
X147875000Y-107062500D01*
X157750000Y-94810000D02*
X158810000Y-93750000D01*
D59*
X159384225Y-94324225D02*
X158810000Y-93750000D01*
D60*
X154600000Y-103110432D02*
X154500000Y-103010432D01*
X150050000Y-109392500D02*
X148875000Y-110567500D01*
X155779568Y-103010432D02*
X158790000Y-100000000D01*
X156000000Y-96000000D02*
X156600000Y-96000000D01*
X154600000Y-104500000D02*
X154600000Y-103110432D01*
X156200000Y-106600000D02*
X155800000Y-106200000D01*
X157750000Y-96650000D02*
X157750000Y-94810000D01*
X149900000Y-96300000D02*
X150800000Y-96300000D01*
X156200000Y-109600000D02*
X156200000Y-106600000D01*
X163290000Y-102660000D02*
X161450000Y-102660000D01*
X158730000Y-92670000D02*
X158810000Y-92750000D01*
X155779568Y-103010432D02*
X154500000Y-103010432D01*
X156650000Y-95910000D02*
X158810000Y-93750000D01*
X150800000Y-96300000D02*
X152200000Y-97700000D01*
D59*
X164833758Y-94324225D02*
X159384225Y-94324225D01*
D60*
X156650000Y-96000000D02*
X156650000Y-95910000D01*
X157780000Y-91800000D02*
X157780000Y-93240467D01*
%TO.N,+5V*%
X164850000Y-91520000D02*
X164780000Y-91450000D01*
X167000000Y-91490000D02*
X167030000Y-91520000D01*
X167030000Y-91520000D02*
X164850000Y-91520000D01*
X165337983Y-91520000D02*
X164833758Y-92024225D01*
X167030000Y-91520000D02*
X165337983Y-91520000D01*
X167000000Y-90400000D02*
X167000000Y-91490000D01*
D58*
%TO.N,Net-(U3-CPI)*%
X156180000Y-120767500D02*
X156180000Y-121180000D01*
X154787500Y-119375000D02*
X156180000Y-120767500D01*
%TO.N,Net-(U3-VCC)*%
X154200000Y-124200000D02*
X152620000Y-122620000D01*
X152375000Y-122155000D02*
X152375000Y-120787500D01*
X152620000Y-122400000D02*
X152375000Y-122155000D01*
X154800000Y-124200000D02*
X154200000Y-124200000D01*
X152620000Y-122620000D02*
X152620000Y-122400000D01*
%TO.N,Net-(U3-VCP)*%
X155895000Y-118875000D02*
X154787500Y-118875000D01*
X156600000Y-119580000D02*
X155895000Y-118875000D01*
D59*
%TO.N,U_reg*%
X123200000Y-122100000D02*
X123200000Y-113700000D01*
D58*
X105950000Y-99680000D02*
X106320000Y-100050000D01*
X106570000Y-100300000D02*
X106320000Y-100050000D01*
X126840000Y-103560000D02*
X126840000Y-104650000D01*
D61*
X108750000Y-102550000D02*
X108750000Y-104000000D01*
D58*
X96500000Y-98000000D02*
X95600000Y-98900000D01*
D59*
X126870000Y-125770000D02*
X123200000Y-122100000D01*
D58*
X98200000Y-98000000D02*
X96500000Y-98000000D01*
X105703528Y-97996472D02*
X105700000Y-98000000D01*
X105950000Y-98940000D02*
X105950000Y-99680000D01*
D59*
X126870000Y-126800000D02*
X126870000Y-125770000D01*
D58*
X105950000Y-98940000D02*
X105950000Y-98242944D01*
X107200000Y-100300000D02*
X106570000Y-100300000D01*
D61*
X108750000Y-104000000D02*
X114500000Y-109750000D01*
D58*
X105700000Y-98000000D02*
X100700000Y-98000000D01*
X100700000Y-98000000D02*
X98200000Y-98000000D01*
X98200000Y-99000000D02*
X98200000Y-98000000D01*
X105950000Y-98242944D02*
X105703528Y-97996472D01*
X100700000Y-99000000D02*
X100700000Y-98000000D01*
%TO.N,Net-(R14-Pad1)*%
X94660000Y-98960000D02*
X94600000Y-98900000D01*
X94660000Y-100780000D02*
X94660000Y-98960000D01*
%TO.N,Net-(D1-A)*%
X175118655Y-100600000D02*
X175350000Y-100368655D01*
X173600000Y-100600000D02*
X175118655Y-100600000D01*
D59*
%TO.N,Vin*%
X87150000Y-108600000D02*
X83599000Y-105049000D01*
X88060682Y-94860000D02*
X90410000Y-94860000D01*
X90410000Y-94860000D02*
X91270000Y-94000000D01*
X83599000Y-105049000D02*
X83599000Y-99321682D01*
X83599000Y-99321682D02*
X88060682Y-94860000D01*
D58*
%TO.N,/Bus_switch/Chainbus_In.RX*%
X146575000Y-101337500D02*
X146575000Y-98553272D01*
X146575000Y-98553272D02*
X147050000Y-98078272D01*
X148171728Y-98078272D02*
X148200000Y-98050000D01*
X147050000Y-98078272D02*
X148171728Y-98078272D01*
%TO.N,/Bus_switch/Chainbus_In.MOSI*%
X139430000Y-98078272D02*
X141700728Y-100349000D01*
X139430000Y-98078272D02*
X140371728Y-98078272D01*
X143325000Y-100600001D02*
X143325000Y-101337500D01*
X141700728Y-100349000D02*
X143073999Y-100349000D01*
X143073999Y-100349000D02*
X143325000Y-100600001D01*
X140371728Y-98078272D02*
X140450000Y-98000000D01*
%TO.N,/Bus_switch/Chainbus_In.SDA*%
X130278272Y-98078272D02*
X130300000Y-98100000D01*
X143325000Y-106325001D02*
X143325000Y-107062500D01*
X142599999Y-105600000D02*
X143325000Y-106325001D01*
X129270000Y-98078272D02*
X130278272Y-98078272D01*
X142200000Y-105600000D02*
X142599999Y-105600000D01*
%TO.N,/Bus_switch/SEL1*%
X141200000Y-105500000D02*
X141601000Y-105099000D01*
X148437500Y-101900000D02*
X147875000Y-101337500D01*
X140587500Y-107200000D02*
X140725000Y-107062500D01*
X141601000Y-105099000D02*
X146799000Y-105099000D01*
X169500000Y-105700000D02*
X154541999Y-105700000D01*
X150741999Y-101900000D02*
X148437500Y-101900000D01*
X151920999Y-103079001D02*
X150741999Y-101900000D01*
X173600000Y-101600000D02*
X169500000Y-105700000D01*
X146800000Y-105100000D02*
X147875000Y-104025000D01*
X154541999Y-105700000D02*
X151920999Y-103079001D01*
X140000000Y-107200000D02*
X140587500Y-107200000D01*
X147875000Y-104025000D02*
X147875000Y-101337500D01*
X146799000Y-105099000D02*
X146800000Y-105100000D01*
%TO.N,/Interboard_connector/SEL2*%
X109028272Y-98000000D02*
X108950000Y-98078272D01*
X110250000Y-98000000D02*
X109028272Y-98000000D01*
%TO.N,/Bus_switch/Chainbus_In.TX*%
X144510000Y-98078272D02*
X145925000Y-99493272D01*
X145925000Y-99493272D02*
X145925000Y-101337500D01*
X145521728Y-98078272D02*
X145650000Y-97950000D01*
X144510000Y-98078272D02*
X145521728Y-98078272D01*
%TO.N,/Interboard_connector/SEL8*%
X124205000Y-98063272D02*
X124190000Y-98078272D01*
X125563272Y-98063272D02*
X124205000Y-98063272D01*
%TO.N,/Interboard_connector/SEL5*%
X116648272Y-98000000D02*
X116570000Y-98078272D01*
X117750000Y-98000000D02*
X116648272Y-98000000D01*
%TO.N,/Interboard_connector/SEL7*%
X123063272Y-98063272D02*
X121665000Y-98063272D01*
X121665000Y-98063272D02*
X121650000Y-98078272D01*
%TO.N,/Interboard_connector/SEL4*%
X114108272Y-98000000D02*
X114030000Y-98078272D01*
X115250000Y-98000000D02*
X114108272Y-98000000D01*
%TO.N,/Bus_switch/Chainbus_In.SCK*%
X136890000Y-98078272D02*
X137821728Y-98078272D01*
X141375000Y-101337500D02*
X141375000Y-100750840D01*
X140453432Y-99829272D02*
X138641000Y-99829272D01*
X141375000Y-100750840D02*
X140453432Y-99829272D01*
X138641000Y-99829272D02*
X136890000Y-98078272D01*
X137821728Y-98078272D02*
X137850000Y-98050000D01*
%TO.N,/Bus_switch/Chainbus_In.MISO*%
X141970000Y-98078272D02*
X143975000Y-100083272D01*
X143975000Y-100083272D02*
X143975000Y-101337500D01*
X143000000Y-98000000D02*
X142048272Y-98000000D01*
X142048272Y-98000000D02*
X141970000Y-98078272D01*
D60*
%TO.N,+12V stby*%
X144498272Y-93050000D02*
X144510000Y-93038272D01*
X143400000Y-93050000D02*
X144498272Y-93050000D01*
D58*
%TO.N,/Bus_switch/Chainbus_In.SCL*%
X143900000Y-105900000D02*
X143900000Y-106987500D01*
X131810000Y-98078272D02*
X132821728Y-98078272D01*
X132821728Y-98078272D02*
X132850000Y-98050000D01*
X143900000Y-106987500D02*
X143975000Y-107062500D01*
%TO.N,/Bus_switch/Chainbus_In.CS*%
X141375000Y-107062500D02*
X141176000Y-106863500D01*
X141176000Y-106863500D02*
X141176000Y-106276840D01*
X140973160Y-106074000D02*
X140600000Y-106074000D01*
X140600000Y-104328272D02*
X134350000Y-98078272D01*
X135371728Y-98078272D02*
X135400000Y-98050000D01*
X134350000Y-98078272D02*
X135371728Y-98078272D01*
X140600000Y-106074000D02*
X140600000Y-104328272D01*
X141176000Y-106276840D02*
X140973160Y-106074000D01*
%TO.N,/Interboard_connector/SEL3*%
X111568272Y-98000000D02*
X111490000Y-98078272D01*
X112750000Y-98000000D02*
X111568272Y-98000000D01*
%TO.N,/Interboard_connector/SEL6*%
X120250000Y-98000000D02*
X119188272Y-98000000D01*
X119188272Y-98000000D02*
X119110000Y-98078272D01*
D59*
%TO.N,BRD_VIN*%
X98130000Y-94000000D02*
X98130000Y-92870000D01*
X98130000Y-92870000D02*
X102000000Y-89000000D01*
X119110000Y-93038272D02*
X119110000Y-92110000D01*
X116000000Y-89000000D02*
X102000000Y-89000000D01*
X119110000Y-92110000D02*
X116000000Y-89000000D01*
D58*
%TO.N,/Bus_switch/Chainbus.SCL*%
X156600000Y-97050000D02*
X156650000Y-97000000D01*
X163290000Y-100110000D02*
X162600000Y-100110000D01*
X154811000Y-98899000D02*
X153710000Y-100000000D01*
X144600000Y-108400000D02*
X144600000Y-107087500D01*
X156600000Y-97900000D02*
X156600000Y-97050000D01*
X154811000Y-98899000D02*
X161389000Y-98899000D01*
X144600000Y-107087500D02*
X144625000Y-107062500D01*
X162600000Y-100110000D02*
X161389000Y-98899000D01*
%TO.N,/Bus_switch/Chainbus.SDA*%
X143600000Y-108500000D02*
X143151000Y-108051000D01*
X142800000Y-107187500D02*
X142675000Y-107062500D01*
X152622000Y-98548000D02*
X151170000Y-100000000D01*
X142800000Y-107700000D02*
X142800000Y-107187500D01*
X157750000Y-97650000D02*
X157750000Y-98548000D01*
X142874000Y-107848160D02*
X142874000Y-107774000D01*
X143151000Y-108051000D02*
X143076840Y-108051000D01*
X142874000Y-107774000D02*
X142800000Y-107700000D01*
X163290000Y-98840000D02*
X162998000Y-98548000D01*
X162998000Y-98548000D02*
X157750000Y-98548000D01*
X157750000Y-98548000D02*
X152622000Y-98548000D01*
X143076840Y-108051000D02*
X142874000Y-107848160D01*
%TO.N,/Stepper controller/ENCN_DCO*%
X160950000Y-135300000D02*
X161000000Y-135350000D01*
X145200000Y-120960430D02*
X145192652Y-120967778D01*
X145225000Y-118875000D02*
X145200000Y-118900000D01*
X146462500Y-118875000D02*
X145225000Y-118875000D01*
X145200000Y-118900000D02*
X145200000Y-120960430D01*
%TO.N,/Stepper controller/ENCA_DCIN_CFG5*%
X147875000Y-121925000D02*
X147875000Y-120787500D01*
X147012437Y-122787563D02*
X147875000Y-121925000D01*
%TO.N,/Stepper controller/ENCB_DCEN_CFG4*%
X145987437Y-119850063D02*
X145987437Y-121762563D01*
X146462500Y-119375000D02*
X145987437Y-119850063D01*
%TO.N,/Stepper controller/OA1*%
X158289128Y-114863946D02*
X158364128Y-114788946D01*
D59*
X160239000Y-125761000D02*
X156600000Y-129400000D01*
X154000000Y-133655000D02*
X154000000Y-132000000D01*
X157863946Y-114800000D02*
X159229842Y-114800000D01*
X162401000Y-123599000D02*
X160239000Y-125761000D01*
X159229842Y-114800000D02*
X162401000Y-117971158D01*
X157800000Y-114863946D02*
X157863946Y-114800000D01*
X162401000Y-117971158D02*
X162401000Y-123599000D01*
D60*
X154751628Y-114863946D02*
X158289128Y-114863946D01*
D59*
X154000000Y-132000000D02*
X160239000Y-125761000D01*
%TO.N,/Stepper controller/OB1*%
X146500000Y-127700000D02*
X140750000Y-121950000D01*
X140750000Y-121950000D02*
X140750000Y-117485844D01*
D58*
X144302503Y-114875000D02*
X144296406Y-114868903D01*
D60*
X146462500Y-114875000D02*
X144302503Y-114875000D01*
D59*
X140750000Y-117485844D02*
X143360844Y-114875000D01*
X146500000Y-133655000D02*
X146500000Y-127700000D01*
X143360844Y-114875000D02*
X144302503Y-114875000D01*
D60*
%TO.N,/Stepper controller/OA2*%
X154787500Y-116875000D02*
X158275000Y-116875000D01*
D59*
X151500000Y-133655000D02*
X151500000Y-131670158D01*
X160400000Y-122770158D02*
X160400000Y-118800000D01*
X160400000Y-118800000D02*
X158475000Y-116875000D01*
D58*
X158275000Y-116875000D02*
X158400000Y-117000000D01*
D59*
X158475000Y-116875000D02*
X157900000Y-116875000D01*
X151500000Y-131670158D02*
X160400000Y-122770158D01*
D60*
%TO.N,/Stepper controller/OB2*%
X146462500Y-116875000D02*
X143625000Y-116875000D01*
D59*
X149000000Y-133655000D02*
X149000000Y-127250000D01*
X143000000Y-121250000D02*
X143000000Y-118065686D01*
X143000000Y-118065686D02*
X144095343Y-116970343D01*
X149000000Y-127250000D02*
X143000000Y-121250000D01*
D58*
%TO.N,Net-(R16-Pad1)*%
X99700000Y-100740000D02*
X99740000Y-100780000D01*
X99700000Y-99000000D02*
X99700000Y-100740000D01*
%TO.N,Net-(R5-Pad2)*%
X160700000Y-107850000D02*
X164685000Y-107850000D01*
X164685000Y-107850000D02*
X165295000Y-108460000D01*
%TO.N,Net-(U3-BRA)*%
X157800000Y-112360000D02*
X156560000Y-112360000D01*
X156305241Y-115875000D02*
X156308637Y-115878396D01*
X154787500Y-115875000D02*
X156305241Y-115875000D01*
X156560000Y-112360000D02*
X156450000Y-112250000D01*
X156250000Y-112050000D02*
X156450000Y-112250000D01*
X155400000Y-112050000D02*
X156250000Y-112050000D01*
%TO.N,Net-(U3-BRB)*%
X144940000Y-112860000D02*
X145000000Y-112800000D01*
X145025000Y-115875000D02*
X145000000Y-115900000D01*
X146000000Y-111700000D02*
X145000000Y-112700000D01*
X143750000Y-112860000D02*
X144940000Y-112860000D01*
X146462500Y-115875000D02*
X145025000Y-115875000D01*
X145000000Y-112700000D02*
X145000000Y-112800000D01*
%TO.N,Net-(U3-AIN_IREF)*%
X162300000Y-111000000D02*
X160850000Y-109550000D01*
X150375000Y-120787500D02*
X150375000Y-123175000D01*
X150375000Y-123175000D02*
X150600000Y-123400000D01*
X165295000Y-111000000D02*
X162300000Y-111000000D01*
%TO.N,Net-(U3-SWSEL)*%
X149350000Y-123400000D02*
X149350000Y-120812500D01*
X155950000Y-124000000D02*
X156650000Y-123300000D01*
X149350000Y-120812500D02*
X149375000Y-120787500D01*
X156650000Y-123300000D02*
X156650000Y-122950000D01*
%TO.N,Net-(U3-SWP_DIAG1)*%
X148875000Y-120787500D02*
X148849000Y-120813500D01*
X148849000Y-120813500D02*
X148849000Y-123699000D01*
X148849000Y-123699000D02*
X150000000Y-124850000D01*
%TO.N,Net-(U3-SWN_DIAG0)*%
X148375000Y-123675000D02*
X148150000Y-123900000D01*
X153850000Y-126400000D02*
X153350000Y-125900000D01*
X148375000Y-120787500D02*
X148375000Y-123675000D01*
X153350000Y-125900000D02*
X153300000Y-125900000D01*
%TO.N,/Bus_switch/Chainbus.CS*%
X152700000Y-110600000D02*
X152400000Y-110900000D01*
X142025000Y-107825000D02*
X142025000Y-107062500D01*
X152375000Y-110925000D02*
X152400000Y-110900000D01*
X152375000Y-112462500D02*
X152375000Y-110925000D01*
X142900000Y-108700000D02*
X142025000Y-107825000D01*
X153200000Y-110600000D02*
X152700000Y-110600000D01*
%TO.N,/Bus_switch/Chainbus.MOSI*%
X150200000Y-103600000D02*
X148600000Y-103600000D01*
X151375000Y-104775000D02*
X150200000Y-103600000D01*
X151375000Y-112462500D02*
X151375000Y-108800000D01*
X143500001Y-102900000D02*
X142675000Y-102074999D01*
X142675000Y-102074999D02*
X142675000Y-101337500D01*
X151375000Y-108800000D02*
X151375000Y-104775000D01*
X153900000Y-108800000D02*
X152900000Y-108800000D01*
X146100000Y-102900000D02*
X143500001Y-102900000D01*
%TO.N,/Bus_switch/Chainbus.RX*%
X147225000Y-100600001D02*
X149339000Y-98486001D01*
X147225000Y-101337500D02*
X147225000Y-100600001D01*
X150313999Y-98486001D02*
X151100000Y-97700000D01*
X149339000Y-98486001D02*
X150313999Y-98486001D01*
%TO.N,/Bus_switch/Chainbus.TX*%
X149900000Y-97900000D02*
X149900000Y-97500000D01*
X145275000Y-101337500D02*
X145275000Y-100025000D01*
X145275000Y-100025000D02*
X145300000Y-100000000D01*
%TO.N,/Bus_switch/Chainbus.MISO*%
X153900000Y-107900000D02*
X153100000Y-107900000D01*
X150375000Y-111375000D02*
X150551000Y-111199000D01*
X144600000Y-101362500D02*
X144625000Y-101337500D01*
X144600000Y-102400000D02*
X144600000Y-101362500D01*
X150551000Y-107800000D02*
X150600000Y-107800000D01*
X150551000Y-105192479D02*
X149758521Y-104400000D01*
X150551000Y-111199000D02*
X150551000Y-107800000D01*
X150375000Y-112462500D02*
X150375000Y-111375000D01*
X150551000Y-107800000D02*
X150551000Y-105192479D01*
X149758521Y-104400000D02*
X149500000Y-104400000D01*
%TO.N,/Bus_switch/Chainbus.SCK*%
X154400000Y-106700000D02*
X154800000Y-106300000D01*
X156100000Y-104700000D02*
X155700000Y-105100000D01*
X152100000Y-104500000D02*
X150400000Y-102800000D01*
X155700000Y-104200000D02*
X155700000Y-105100000D01*
X147100000Y-102900000D02*
X146599000Y-103401000D01*
X156900000Y-104700000D02*
X156100000Y-104700000D01*
X151899000Y-112438500D02*
X151899000Y-110692479D01*
X146599000Y-103401000D02*
X143351001Y-103401000D01*
X151875000Y-112462500D02*
X151899000Y-112438500D01*
X143351001Y-103401000D02*
X142025000Y-102074999D01*
X150400000Y-102800000D02*
X148700000Y-102800000D01*
X142025000Y-102074999D02*
X142025000Y-101337500D01*
X151899000Y-110692479D02*
X152100000Y-110491479D01*
X152100000Y-106700000D02*
X152100000Y-104500000D01*
X152100000Y-106700000D02*
X154400000Y-106700000D01*
X152100000Y-110491479D02*
X152100000Y-106700000D01*
D59*
%TO.N,Net-(D4-K)*%
X94300000Y-126150701D02*
X95119299Y-126970000D01*
X95119299Y-126970000D02*
X100340000Y-126970000D01*
X100340000Y-126970000D02*
X106190000Y-121120000D01*
X106190000Y-121120000D02*
X106190000Y-118600000D01*
X105290000Y-117700000D02*
X106190000Y-118600000D01*
X94300000Y-123150000D02*
X94300000Y-126150701D01*
D58*
%TO.N,Net-(R15-Pad1)*%
X97200000Y-99000000D02*
X97200000Y-100780000D01*
D62*
%TO.N,/Stepper controller/U_reg_after_jumper*%
X156495000Y-118125000D02*
X154700000Y-118125000D01*
D58*
X145125000Y-117875000D02*
X145100000Y-117850000D01*
X146462500Y-117875000D02*
X145125000Y-117875000D01*
D59*
X158125000Y-119125000D02*
X158000000Y-119250000D01*
X157100000Y-118100000D02*
X158125000Y-119125000D01*
D58*
X145100000Y-117850000D02*
X144700000Y-118250000D01*
X156600000Y-118020000D02*
X156495000Y-118125000D01*
D59*
X158000000Y-119250000D02*
X158000000Y-119800000D01*
%TO.N,Net-(D5-K)*%
X133330000Y-127200000D02*
X133730000Y-126800000D01*
X133330000Y-134000000D02*
X133330000Y-127200000D01*
%TO.N,Net-(D5-A)*%
X125500000Y-133030000D02*
X126470000Y-134000000D01*
X120900000Y-133030000D02*
X125500000Y-133030000D01*
%TO.N,Net-(D6-A)*%
X114660000Y-126170000D02*
X114290000Y-125800000D01*
D58*
X114290000Y-125990000D02*
X114300000Y-126000000D01*
X114290000Y-125800000D02*
X114290000Y-125990000D01*
D59*
X120900000Y-126170000D02*
X114660000Y-126170000D01*
%TD*%
%TA.AperFunction,Conductor*%
%TO.N,/Stepper controller/U_reg_after_jumper*%
G36*
X171143039Y-116869685D02*
G01*
X171188794Y-116922489D01*
X171200000Y-116974000D01*
X171200000Y-126029083D01*
X171196241Y-126059382D01*
X171159905Y-126203582D01*
X171159904Y-126203586D01*
X171149500Y-126335777D01*
X171149500Y-127564208D01*
X171149501Y-127564223D01*
X171159904Y-127696413D01*
X171159905Y-127696417D01*
X171196241Y-127840617D01*
X171200000Y-127870916D01*
X171200000Y-130126000D01*
X171180315Y-130193039D01*
X171127511Y-130238794D01*
X171076000Y-130250000D01*
X163825355Y-130250000D01*
X163758316Y-130230315D01*
X163712561Y-130177511D01*
X163701362Y-130124652D01*
X163725860Y-127870916D01*
X163765160Y-124255254D01*
X163778667Y-124200311D01*
X163791568Y-124174992D01*
X163864553Y-123950368D01*
X163901500Y-123717097D01*
X163901500Y-117853060D01*
X163864554Y-117619795D01*
X163864553Y-117619793D01*
X163864553Y-117619790D01*
X163844447Y-117557912D01*
X163838388Y-117518262D01*
X163844319Y-116972652D01*
X163864732Y-116905830D01*
X163918030Y-116860652D01*
X163968312Y-116850000D01*
X171076000Y-116850000D01*
X171143039Y-116869685D01*
G37*
%TD.AperFunction*%
%TD*%
%TA.AperFunction,Conductor*%
%TO.N,GND*%
G36*
X135693039Y-117769685D02*
G01*
X135738794Y-117822489D01*
X135750000Y-117874000D01*
X135750000Y-120126000D01*
X135730315Y-120193039D01*
X135677511Y-120238794D01*
X135626000Y-120250000D01*
X132374000Y-120250000D01*
X132306961Y-120230315D01*
X132261206Y-120177511D01*
X132250000Y-120126000D01*
X132250000Y-117874000D01*
X132269685Y-117806961D01*
X132322489Y-117761206D01*
X132374000Y-117750000D01*
X135626000Y-117750000D01*
X135693039Y-117769685D01*
G37*
%TD.AperFunction*%
%TD*%
%TA.AperFunction,Conductor*%
%TO.N,GND*%
G36*
X124943039Y-103769685D02*
G01*
X124988794Y-103822489D01*
X125000000Y-103874000D01*
X125000000Y-106126000D01*
X124980315Y-106193039D01*
X124927511Y-106238794D01*
X124876000Y-106250000D01*
X121624000Y-106250000D01*
X121556961Y-106230315D01*
X121511206Y-106177511D01*
X121500000Y-106126000D01*
X121500000Y-103874000D01*
X121519685Y-103806961D01*
X121572489Y-103761206D01*
X121624000Y-103750000D01*
X124876000Y-103750000D01*
X124943039Y-103769685D01*
G37*
%TD.AperFunction*%
%TD*%
%TA.AperFunction,Conductor*%
%TO.N,GND*%
G36*
X117693039Y-103019685D02*
G01*
X117738794Y-103072489D01*
X117750000Y-103124000D01*
X117750000Y-105376000D01*
X117730315Y-105443039D01*
X117677511Y-105488794D01*
X117626000Y-105500000D01*
X115624000Y-105500000D01*
X115556961Y-105480315D01*
X115511206Y-105427511D01*
X115500000Y-105376000D01*
X115500000Y-103124000D01*
X115519685Y-103056961D01*
X115572489Y-103011206D01*
X115624000Y-103000000D01*
X117626000Y-103000000D01*
X117693039Y-103019685D01*
G37*
%TD.AperFunction*%
%TD*%
%TA.AperFunction,Conductor*%
%TO.N,GND*%
G36*
X128543039Y-118319685D02*
G01*
X128588794Y-118372489D01*
X128600000Y-118424000D01*
X128600000Y-120676000D01*
X128580315Y-120743039D01*
X128527511Y-120788794D01*
X128476000Y-120800000D01*
X125224000Y-120800000D01*
X125156961Y-120780315D01*
X125111206Y-120727511D01*
X125100000Y-120676000D01*
X125100000Y-118424000D01*
X125119685Y-118356961D01*
X125172489Y-118311206D01*
X125224000Y-118300000D01*
X128476000Y-118300000D01*
X128543039Y-118319685D01*
G37*
%TD.AperFunction*%
%TD*%
%TA.AperFunction,Conductor*%
%TO.N,Net-(D4-K)*%
G36*
X106130143Y-111069391D02*
G01*
X106145121Y-111076015D01*
X111139976Y-113692368D01*
X111190227Y-113740911D01*
X111206256Y-113808917D01*
X111192185Y-113859929D01*
X107790442Y-120328031D01*
X107741815Y-120378202D01*
X107673783Y-120394119D01*
X107607945Y-120370728D01*
X107582124Y-120345542D01*
X104834470Y-116745168D01*
X104809448Y-116679934D01*
X104811704Y-116644403D01*
X105966249Y-111160315D01*
X105999322Y-111098769D01*
X106060419Y-111064874D01*
X106130143Y-111069391D01*
G37*
%TD.AperFunction*%
%TD*%
%TA.AperFunction,Conductor*%
%TO.N,Net-(C20-Pad2)*%
G36*
X91937539Y-129525185D02*
G01*
X91983294Y-129577989D01*
X91994500Y-129629500D01*
X91994500Y-129819201D01*
X92000956Y-129932976D01*
X92000957Y-129932981D01*
X92004131Y-129960853D01*
X92023424Y-130073183D01*
X92087787Y-130352094D01*
X92115613Y-130450079D01*
X92115400Y-130450139D01*
X92120738Y-130488442D01*
X92104323Y-131155141D01*
X92082995Y-131221676D01*
X92029081Y-131266117D01*
X91974478Y-131275949D01*
X90406212Y-131201457D01*
X90340182Y-131178614D01*
X90296984Y-131123699D01*
X90288105Y-131076045D01*
X90306282Y-129627941D01*
X90326806Y-129561157D01*
X90380180Y-129516068D01*
X90430272Y-129505500D01*
X91870500Y-129505500D01*
X91937539Y-129525185D01*
G37*
%TD.AperFunction*%
%TD*%
%TA.AperFunction,Conductor*%
%TO.N,/Stepper controller/U_reg_after_jumper*%
G36*
X130523650Y-104260282D02*
G01*
X133985068Y-105765247D01*
X134038698Y-105810029D01*
X134055865Y-105848660D01*
X134059901Y-105864677D01*
X134059902Y-105864680D01*
X134152991Y-106069622D01*
X134152997Y-106069632D01*
X134281174Y-106254645D01*
X134281178Y-106254650D01*
X134281181Y-106254654D01*
X134440346Y-106413819D01*
X134440350Y-106413822D01*
X134440354Y-106413825D01*
X134558574Y-106495728D01*
X134625374Y-106542007D01*
X134830317Y-106635096D01*
X134830321Y-106635097D01*
X135048579Y-106690094D01*
X135048581Y-106690094D01*
X135048588Y-106690096D01*
X135180783Y-106700500D01*
X135959216Y-106700499D01*
X136078213Y-106691134D01*
X136137380Y-106701034D01*
X136250000Y-106750000D01*
X138660731Y-106750000D01*
X138727770Y-106769685D01*
X138773525Y-106822489D01*
X138783469Y-106891647D01*
X138781308Y-106902934D01*
X138780291Y-106907170D01*
X138749500Y-107101577D01*
X138749500Y-107298422D01*
X138780290Y-107492826D01*
X138841117Y-107680029D01*
X138930476Y-107855405D01*
X138976318Y-107918501D01*
X138983470Y-107938546D01*
X138994977Y-107956451D01*
X138998431Y-107980475D01*
X138999798Y-107984306D01*
X139000000Y-107991386D01*
X139000000Y-108223862D01*
X138991803Y-108265076D01*
X138992622Y-108265342D01*
X138991117Y-108269971D01*
X138991116Y-108269975D01*
X138972358Y-108327704D01*
X138930290Y-108457173D01*
X138899500Y-108651577D01*
X138899500Y-108793553D01*
X138884607Y-108849991D01*
X138885296Y-108850304D01*
X138883454Y-108854357D01*
X138883355Y-108854736D01*
X138882993Y-108855373D01*
X138789903Y-109060318D01*
X138789902Y-109060321D01*
X138734905Y-109278579D01*
X138734904Y-109278586D01*
X138724500Y-109410777D01*
X138724500Y-111339208D01*
X138724501Y-111339223D01*
X138734904Y-111471413D01*
X138734905Y-111471420D01*
X138789902Y-111689678D01*
X138789903Y-111689681D01*
X138882991Y-111894623D01*
X138882992Y-111894625D01*
X138927428Y-111958764D01*
X138949425Y-112025080D01*
X138949500Y-112029380D01*
X138949500Y-112098422D01*
X138980290Y-112292822D01*
X138980290Y-112292823D01*
X138993931Y-112334805D01*
X139000000Y-112373123D01*
X139000000Y-116376000D01*
X138980315Y-116443039D01*
X138927511Y-116488794D01*
X138876000Y-116500000D01*
X135413358Y-116500000D01*
X135346319Y-116480315D01*
X135342742Y-116477928D01*
X135169632Y-116357997D01*
X135169630Y-116357995D01*
X135169626Y-116357993D01*
X134964683Y-116264904D01*
X134964681Y-116264903D01*
X134964678Y-116264902D01*
X134746420Y-116209905D01*
X134746413Y-116209904D01*
X134702347Y-116206436D01*
X134614217Y-116199500D01*
X134614215Y-116199500D01*
X133385791Y-116199500D01*
X133385776Y-116199501D01*
X133253586Y-116209904D01*
X133253579Y-116209905D01*
X133035321Y-116264902D01*
X133035318Y-116264903D01*
X132830377Y-116357991D01*
X132830367Y-116357997D01*
X132694616Y-116452046D01*
X132628299Y-116474043D01*
X132560618Y-116456695D01*
X132513060Y-116405509D01*
X132500000Y-116350118D01*
X132500000Y-113000000D01*
X129124711Y-113000000D01*
X129057672Y-112980315D01*
X129011917Y-112927511D01*
X129000713Y-112875292D01*
X129006316Y-111894623D01*
X129010246Y-111206935D01*
X129030312Y-111140013D01*
X129030928Y-111139076D01*
X129180986Y-110913991D01*
X129205730Y-110862610D01*
X129213512Y-110771486D01*
X129180986Y-110686009D01*
X129180983Y-110686004D01*
X129180982Y-110686002D01*
X129108335Y-110577032D01*
X129035687Y-110468061D01*
X129014880Y-110401364D01*
X129014864Y-110398685D01*
X129025361Y-108561760D01*
X129045427Y-108494840D01*
X129045975Y-108494007D01*
X129145986Y-108343991D01*
X129170730Y-108292610D01*
X129178512Y-108201486D01*
X129145986Y-108116009D01*
X129145983Y-108116004D01*
X129145982Y-108116002D01*
X129094923Y-108039414D01*
X129049951Y-107971957D01*
X129029144Y-107905260D01*
X129029128Y-107902533D01*
X129039943Y-106009886D01*
X129060009Y-105942967D01*
X129060621Y-105942038D01*
X129145986Y-105813991D01*
X129170730Y-105762610D01*
X129178512Y-105671486D01*
X129145986Y-105586009D01*
X129145983Y-105586004D01*
X129145982Y-105586002D01*
X129098124Y-105514216D01*
X129064285Y-105463458D01*
X129043478Y-105396761D01*
X129043462Y-105394058D01*
X129049295Y-104373289D01*
X129069362Y-104306365D01*
X129122427Y-104260913D01*
X129173293Y-104250000D01*
X130474209Y-104250000D01*
X130523650Y-104260282D01*
G37*
%TD.AperFunction*%
%TD*%
%TA.AperFunction,Conductor*%
%TO.N,GND*%
G36*
X175093039Y-125219685D02*
G01*
X175138794Y-125272489D01*
X175150000Y-125324000D01*
X175150000Y-128576000D01*
X175130315Y-128643039D01*
X175077511Y-128688794D01*
X175026000Y-128700000D01*
X172774000Y-128700000D01*
X172706961Y-128680315D01*
X172661206Y-128627511D01*
X172650000Y-128576000D01*
X172650000Y-125324000D01*
X172669685Y-125256961D01*
X172722489Y-125211206D01*
X172774000Y-125200000D01*
X175026000Y-125200000D01*
X175093039Y-125219685D01*
G37*
%TD.AperFunction*%
%TD*%
%TA.AperFunction,Conductor*%
%TO.N,GND*%
G36*
X114743039Y-134219685D02*
G01*
X114788794Y-134272489D01*
X114800000Y-134324000D01*
X114800000Y-137674813D01*
X114780315Y-137741852D01*
X114727511Y-137787607D01*
X114674819Y-137798807D01*
X93922819Y-137601169D01*
X93855970Y-137580847D01*
X93810720Y-137527610D01*
X93800000Y-137477175D01*
X93800000Y-134324000D01*
X93819685Y-134256961D01*
X93872489Y-134211206D01*
X93924000Y-134200000D01*
X114676000Y-134200000D01*
X114743039Y-134219685D01*
G37*
%TD.AperFunction*%
%TD*%
%TA.AperFunction,Conductor*%
%TO.N,Net-(C10-Pad2)*%
G36*
X135589208Y-101619685D02*
G01*
X135633837Y-101670091D01*
X135857168Y-102132706D01*
X135869500Y-102186613D01*
X135869500Y-102263364D01*
X135869502Y-102263388D01*
X135872317Y-102287659D01*
X135872318Y-102287662D01*
X135916186Y-102387015D01*
X135916187Y-102387016D01*
X135992984Y-102463813D01*
X135992987Y-102463814D01*
X136001649Y-102469748D01*
X136043238Y-102518138D01*
X136287186Y-103023457D01*
X136299500Y-103079467D01*
X136257289Y-105569858D01*
X136255183Y-105576602D01*
X136256293Y-105583581D01*
X136244910Y-105609516D01*
X136236471Y-105636555D01*
X136231052Y-105641091D01*
X136228214Y-105647560D01*
X136204619Y-105663223D01*
X136182900Y-105681408D01*
X136174481Y-105683229D01*
X136170003Y-105686203D01*
X136143881Y-105689852D01*
X136135147Y-105691743D01*
X136132797Y-105691777D01*
X135999325Y-105688733D01*
X135920629Y-105694926D01*
X135916670Y-105694985D01*
X135916486Y-105694933D01*
X135914830Y-105694999D01*
X135229990Y-105694999D01*
X135199690Y-105691240D01*
X135174574Y-105684911D01*
X135153592Y-105677569D01*
X135133763Y-105668562D01*
X135114429Y-105657591D01*
X135096525Y-105645187D01*
X135079460Y-105630940D01*
X135064055Y-105615535D01*
X135049813Y-105598477D01*
X135037403Y-105580565D01*
X135026440Y-105561245D01*
X134987287Y-105475048D01*
X134982980Y-105464245D01*
X134974723Y-105440335D01*
X134974723Y-105440334D01*
X134957557Y-105401706D01*
X134957556Y-105401703D01*
X134935307Y-105354923D01*
X134896463Y-105294459D01*
X134825345Y-105183757D01*
X134825342Y-105183754D01*
X134825341Y-105183752D01*
X134683170Y-105038222D01*
X134629540Y-104993440D01*
X134563401Y-104942713D01*
X134563395Y-104942709D01*
X134385983Y-104843131D01*
X133087203Y-104278444D01*
X130924569Y-103338168D01*
X130924494Y-103338135D01*
X130922358Y-103337210D01*
X130922356Y-103337209D01*
X130922353Y-103337208D01*
X130734512Y-103277785D01*
X130728389Y-103275848D01*
X130728385Y-103275847D01*
X130728379Y-103275845D01*
X130728373Y-103275843D01*
X130728359Y-103275840D01*
X130679032Y-103265581D01*
X130679032Y-103265582D01*
X130676633Y-103265086D01*
X130676618Y-103265083D01*
X130676615Y-103265083D01*
X130474209Y-103244500D01*
X130424000Y-103244500D01*
X130356961Y-103224815D01*
X130311206Y-103172011D01*
X130300000Y-103120500D01*
X130300000Y-102726725D01*
X130319685Y-102659686D01*
X130372489Y-102613931D01*
X130426693Y-102602754D01*
X134900000Y-102700000D01*
X134900000Y-102699999D01*
X134900000Y-101724000D01*
X134919685Y-101656961D01*
X134972489Y-101611206D01*
X135024000Y-101600000D01*
X135522169Y-101600000D01*
X135589208Y-101619685D01*
G37*
%TD.AperFunction*%
%TD*%
%TA.AperFunction,Conductor*%
%TO.N,GND*%
G36*
X142040706Y-108269685D02*
G01*
X142061348Y-108286319D01*
X142163681Y-108388652D01*
X142197166Y-108449975D01*
X142200000Y-108476333D01*
X142200000Y-112376000D01*
X142180315Y-112443039D01*
X142127511Y-112488794D01*
X142076000Y-112500000D01*
X140129500Y-112500000D01*
X140062461Y-112480315D01*
X140016706Y-112427511D01*
X140005500Y-112376000D01*
X140005500Y-112373130D01*
X140005500Y-112373123D01*
X139993121Y-112215828D01*
X139987052Y-112177510D01*
X139967638Y-112096648D01*
X139965741Y-112087108D01*
X139956331Y-112027695D01*
X139954823Y-112010462D01*
X139954772Y-112007562D01*
X139954772Y-112007559D01*
X139954772Y-112007545D01*
X139947981Y-111907109D01*
X139903793Y-111708516D01*
X139903790Y-111708509D01*
X139903787Y-111708495D01*
X139881797Y-111642202D01*
X139852299Y-111564248D01*
X139852293Y-111564236D01*
X139770079Y-111415355D01*
X139765729Y-111406694D01*
X139747428Y-111366403D01*
X139740087Y-111345423D01*
X139733758Y-111320305D01*
X139730000Y-111290010D01*
X139730000Y-109459985D01*
X139733759Y-109429686D01*
X139740085Y-109404581D01*
X139747427Y-109383599D01*
X139798851Y-109270385D01*
X139800693Y-109266332D01*
X139800696Y-109266321D01*
X139801662Y-109264196D01*
X139801666Y-109264188D01*
X139809799Y-109246282D01*
X139809713Y-109245109D01*
X139814467Y-109228651D01*
X139853179Y-109122760D01*
X139853508Y-109120874D01*
X139855695Y-109110835D01*
X139855790Y-109110472D01*
X139855855Y-109110226D01*
X139871713Y-109050134D01*
X139871720Y-109050105D01*
X139884417Y-108995959D01*
X139905000Y-108793553D01*
X139905000Y-108740467D01*
X139906526Y-108721076D01*
X139909503Y-108702273D01*
X139914045Y-108683352D01*
X139947401Y-108580699D01*
X139947400Y-108580698D01*
X139948194Y-108578256D01*
X139948870Y-108576179D01*
X139948873Y-108576165D01*
X139949585Y-108573978D01*
X139949595Y-108573947D01*
X139954639Y-108558421D01*
X139954646Y-108552380D01*
X139965134Y-108509176D01*
X139970190Y-108500423D01*
X139977987Y-108461217D01*
X139983466Y-108433665D01*
X139984952Y-108427547D01*
X139985070Y-108425603D01*
X139986184Y-108420003D01*
X139991911Y-108361847D01*
X140018070Y-108297061D01*
X140075104Y-108256701D01*
X140115314Y-108250000D01*
X141973667Y-108250000D01*
X142040706Y-108269685D01*
G37*
%TD.AperFunction*%
%TD*%
%TA.AperFunction,Conductor*%
%TO.N,Net-(C23-Pad2)*%
G36*
X117443039Y-106519685D02*
G01*
X117488794Y-106572489D01*
X117500000Y-106624000D01*
X117500000Y-107458565D01*
X117480315Y-107525604D01*
X117476318Y-107531451D01*
X117416657Y-107613566D01*
X117309430Y-107824010D01*
X117280088Y-107914318D01*
X117240651Y-107971993D01*
X117176292Y-107999192D01*
X117162157Y-108000000D01*
X115874000Y-108000000D01*
X115806961Y-107980315D01*
X115761206Y-107927511D01*
X115750000Y-107876000D01*
X115750000Y-106624000D01*
X115769685Y-106556961D01*
X115822489Y-106511206D01*
X115874000Y-106500000D01*
X117376000Y-106500000D01*
X117443039Y-106519685D01*
G37*
%TD.AperFunction*%
%TD*%
%TA.AperFunction,Conductor*%
%TO.N,GND*%
G36*
X121193039Y-118019685D02*
G01*
X121238794Y-118072489D01*
X121250000Y-118124000D01*
X121250000Y-120376000D01*
X121230315Y-120443039D01*
X121177511Y-120488794D01*
X121126000Y-120500000D01*
X117874000Y-120500000D01*
X117806961Y-120480315D01*
X117761206Y-120427511D01*
X117750000Y-120376000D01*
X117750000Y-118124000D01*
X117769685Y-118056961D01*
X117822489Y-118011206D01*
X117874000Y-118000000D01*
X121126000Y-118000000D01*
X121193039Y-118019685D01*
G37*
%TD.AperFunction*%
%TD*%
%TA.AperFunction,Conductor*%
%TO.N,Net-(J8-Pin_1)*%
G36*
X93193039Y-120769685D02*
G01*
X93238794Y-120822489D01*
X93250000Y-120874000D01*
X93250000Y-122026611D01*
X93230315Y-122093650D01*
X93213681Y-122114292D01*
X93155485Y-122172487D01*
X93155485Y-122172488D01*
X93155483Y-122172490D01*
X93151185Y-122178406D01*
X93016657Y-122363566D01*
X92909433Y-122574003D01*
X92836446Y-122798631D01*
X92799500Y-123031902D01*
X92799500Y-126268798D01*
X92836446Y-126502069D01*
X92909433Y-126726697D01*
X93016657Y-126937135D01*
X93155484Y-127128212D01*
X93155485Y-127128213D01*
X94141790Y-128114519D01*
X94141795Y-128114523D01*
X94308454Y-128235606D01*
X94332866Y-128253343D01*
X94466958Y-128321666D01*
X94543302Y-128360566D01*
X94543304Y-128360566D01*
X94543307Y-128360568D01*
X94590802Y-128376000D01*
X94767930Y-128433553D01*
X95001202Y-128470500D01*
X95001207Y-128470500D01*
X100458097Y-128470500D01*
X100691368Y-128433553D01*
X100709963Y-128427511D01*
X100915992Y-128360568D01*
X101126434Y-128253343D01*
X101317510Y-128114517D01*
X101552181Y-127879845D01*
X101613498Y-127846364D01*
X101641588Y-127843543D01*
X105751388Y-127901428D01*
X105750044Y-124124043D01*
X105769705Y-124056998D01*
X105822492Y-124011224D01*
X105874044Y-124000000D01*
X110126000Y-124000000D01*
X110193039Y-124019685D01*
X110238794Y-124072489D01*
X110250000Y-124124000D01*
X110250000Y-128000000D01*
X112626000Y-128000000D01*
X112693039Y-128019685D01*
X112738794Y-128072489D01*
X112750000Y-128124000D01*
X112750000Y-131876000D01*
X112730315Y-131943039D01*
X112677511Y-131988794D01*
X112626000Y-132000000D01*
X96500000Y-132000000D01*
X93598644Y-132000000D01*
X93531605Y-131980315D01*
X93485850Y-131927511D01*
X93477819Y-131903883D01*
X93471384Y-131876000D01*
X93228674Y-130824253D01*
X93225499Y-130796370D01*
X93225499Y-130682075D01*
X93225498Y-130682060D01*
X93215304Y-130552515D01*
X93161404Y-130338607D01*
X93075466Y-130149408D01*
X93067541Y-130126011D01*
X93003175Y-129847089D01*
X93000000Y-129819207D01*
X93000000Y-128500000D01*
X90374000Y-128500000D01*
X90306961Y-128480315D01*
X90261206Y-128427511D01*
X90250000Y-128376000D01*
X90250000Y-123537543D01*
X90269685Y-123470504D01*
X90270790Y-123468813D01*
X90750000Y-122750000D01*
X91226518Y-120843924D01*
X91261875Y-120783662D01*
X91324199Y-120752080D01*
X91346816Y-120750000D01*
X93126000Y-120750000D01*
X93193039Y-120769685D01*
G37*
%TD.AperFunction*%
%TD*%
%TA.AperFunction,Conductor*%
%TO.N,GND*%
G36*
X112774020Y-115619685D02*
G01*
X112795046Y-115637154D01*
X112795216Y-115636981D01*
X112797055Y-115638778D01*
X112916168Y-115755179D01*
X113085264Y-115868308D01*
X113273671Y-115945083D01*
X113273677Y-115945085D01*
X113288687Y-115949492D01*
X113340710Y-115964768D01*
X113421594Y-115984917D01*
X113556531Y-115998639D01*
X113623999Y-116005500D01*
X114526000Y-116005500D01*
X114593039Y-116025185D01*
X114638794Y-116077989D01*
X114650000Y-116129500D01*
X114650000Y-121476000D01*
X114630315Y-121543039D01*
X114577511Y-121588794D01*
X114526000Y-121600000D01*
X111774000Y-121600000D01*
X111706961Y-121580315D01*
X111661206Y-121527511D01*
X111650000Y-121476000D01*
X111650000Y-115724000D01*
X111669685Y-115656961D01*
X111722489Y-115611206D01*
X111774000Y-115600000D01*
X112706981Y-115600000D01*
X112774020Y-115619685D01*
G37*
%TD.AperFunction*%
%TD*%
%TA.AperFunction,Conductor*%
%TO.N,GND*%
G36*
X101303039Y-109719685D02*
G01*
X101348794Y-109772489D01*
X101360000Y-109824000D01*
X101360000Y-118976000D01*
X101340315Y-119043039D01*
X101287511Y-119088794D01*
X101236000Y-119100000D01*
X99860000Y-119100000D01*
X99860000Y-121976000D01*
X99840315Y-122043039D01*
X99787511Y-122088794D01*
X99736000Y-122100000D01*
X98984000Y-122100000D01*
X98916961Y-122080315D01*
X98871206Y-122027511D01*
X98860000Y-121976000D01*
X98860000Y-119100000D01*
X96610000Y-119100000D01*
X96610000Y-122226000D01*
X96590315Y-122293039D01*
X96537511Y-122338794D01*
X96486000Y-122350000D01*
X95636667Y-122350000D01*
X95634474Y-122349356D01*
X95632260Y-122349922D01*
X95601106Y-122339558D01*
X95569628Y-122330315D01*
X95567454Y-122328363D01*
X95565963Y-122327867D01*
X95555492Y-122317620D01*
X95540127Y-122303821D01*
X95538180Y-122301405D01*
X95444517Y-122172490D01*
X95391621Y-122119594D01*
X95387460Y-122114432D01*
X95376523Y-122088038D01*
X95362834Y-122062969D01*
X95361677Y-122052212D01*
X95360713Y-122049885D01*
X95361160Y-122047403D01*
X95360000Y-122036611D01*
X95360000Y-119100000D01*
X90734000Y-119100000D01*
X90666961Y-119080315D01*
X90621206Y-119027511D01*
X90610000Y-118976000D01*
X90610000Y-109824000D01*
X90629685Y-109756961D01*
X90682489Y-109711206D01*
X90734000Y-109700000D01*
X101236000Y-109700000D01*
X101303039Y-109719685D01*
G37*
%TD.AperFunction*%
%TD*%
%TA.AperFunction,Conductor*%
%TO.N,U_reg*%
G36*
X127986811Y-104269685D02*
G01*
X128032566Y-104322489D01*
X128043770Y-104374709D01*
X128037978Y-105388316D01*
X128037979Y-105399969D01*
X128037996Y-105402723D01*
X128037996Y-105402725D01*
X128039984Y-105440334D01*
X128042972Y-105496856D01*
X128042974Y-105496865D01*
X128077725Y-105667374D01*
X128076372Y-105722798D01*
X128056200Y-105801840D01*
X128056198Y-105801856D01*
X128034459Y-106004140D01*
X128025997Y-107485096D01*
X128023644Y-107896791D01*
X128023644Y-107908394D01*
X128023661Y-107911171D01*
X128023661Y-107911176D01*
X128028636Y-108005348D01*
X128028637Y-108005351D01*
X128068477Y-108200832D01*
X128065753Y-108261202D01*
X128062229Y-108272955D01*
X128041614Y-108353737D01*
X128019877Y-108556011D01*
X128009380Y-110392943D01*
X128009381Y-110404647D01*
X128009398Y-110407380D01*
X128014374Y-110501460D01*
X128055002Y-110700802D01*
X128073621Y-110760488D01*
X128074794Y-110830348D01*
X128069815Y-110844852D01*
X128067175Y-110851226D01*
X128047109Y-110918146D01*
X128026503Y-110998893D01*
X128026500Y-110998910D01*
X128004762Y-111201187D01*
X127995228Y-112869529D01*
X127995250Y-112884013D01*
X128017588Y-113086233D01*
X128017589Y-113086238D01*
X128028787Y-113138425D01*
X128028792Y-113138448D01*
X128053927Y-113232938D01*
X128135015Y-113419520D01*
X128135021Y-113419531D01*
X128252005Y-113585966D01*
X128252011Y-113585974D01*
X128297766Y-113638778D01*
X128416879Y-113755179D01*
X128585975Y-113868308D01*
X128585977Y-113868308D01*
X128585981Y-113868311D01*
X128630197Y-113886328D01*
X128672793Y-113903686D01*
X128727447Y-113947212D01*
X128749893Y-114013378D01*
X128750000Y-114018517D01*
X128750000Y-114876000D01*
X128730315Y-114943039D01*
X128677511Y-114988794D01*
X128626000Y-115000000D01*
X113624000Y-115000000D01*
X113556961Y-114980315D01*
X113511206Y-114927511D01*
X113500000Y-114876000D01*
X113500000Y-110301361D01*
X113519685Y-110234322D01*
X113536314Y-110213685D01*
X114992834Y-108757165D01*
X115054153Y-108723683D01*
X115123845Y-108728667D01*
X115161128Y-108752326D01*
X115161734Y-108751580D01*
X115166168Y-108755179D01*
X115335264Y-108868308D01*
X115475315Y-108925378D01*
X115523671Y-108945083D01*
X115523677Y-108945085D01*
X115538687Y-108949492D01*
X115590710Y-108964768D01*
X115671594Y-108984917D01*
X115806531Y-108998639D01*
X115873999Y-109005500D01*
X115874000Y-109005500D01*
X117162173Y-109005500D01*
X117219521Y-109003862D01*
X117219535Y-109003861D01*
X117219541Y-109003861D01*
X117233676Y-109003053D01*
X117233682Y-109003052D01*
X117233685Y-109003052D01*
X117254215Y-109000427D01*
X117373259Y-108985211D01*
X117567711Y-108925378D01*
X117632070Y-108898179D01*
X117779583Y-108820864D01*
X117939427Y-108695002D01*
X118070664Y-108539539D01*
X118110101Y-108481864D01*
X118154257Y-108411166D01*
X118233589Y-108231345D01*
X118278656Y-108177959D01*
X118299331Y-108166945D01*
X118677109Y-108009538D01*
X118724801Y-108000000D01*
X126000000Y-108000000D01*
X126000000Y-106186375D01*
X126000636Y-106173829D01*
X126004322Y-106137588D01*
X126005500Y-106126000D01*
X126005500Y-104374000D01*
X126025185Y-104306961D01*
X126077989Y-104261206D01*
X126129500Y-104250000D01*
X127919772Y-104250000D01*
X127986811Y-104269685D01*
G37*
%TD.AperFunction*%
%TD*%
%TA.AperFunction,Conductor*%
%TO.N,GND*%
G36*
X175343039Y-117969685D02*
G01*
X175388794Y-118022489D01*
X175400000Y-118074000D01*
X175400000Y-121326000D01*
X175380315Y-121393039D01*
X175327511Y-121438794D01*
X175276000Y-121450000D01*
X173024000Y-121450000D01*
X172956961Y-121430315D01*
X172911206Y-121377511D01*
X172900000Y-121326000D01*
X172900000Y-118074000D01*
X172919685Y-118006961D01*
X172972489Y-117961206D01*
X173024000Y-117950000D01*
X175276000Y-117950000D01*
X175343039Y-117969685D01*
G37*
%TD.AperFunction*%
%TD*%
%TA.AperFunction,Conductor*%
%TO.N,GND*%
G36*
X117243039Y-91319685D02*
G01*
X117288794Y-91372489D01*
X117300000Y-91424000D01*
X117300000Y-94326000D01*
X117280315Y-94393039D01*
X117227511Y-94438794D01*
X117176000Y-94450000D01*
X115374000Y-94450000D01*
X115306961Y-94430315D01*
X115261206Y-94377511D01*
X115250000Y-94326000D01*
X115250000Y-91424000D01*
X115269685Y-91356961D01*
X115322489Y-91311206D01*
X115374000Y-91300000D01*
X117176000Y-91300000D01*
X117243039Y-91319685D01*
G37*
%TD.AperFunction*%
%TD*%
%TA.AperFunction,Conductor*%
%TO.N,Vin*%
G36*
X89943039Y-104769685D02*
G01*
X89988794Y-104822489D01*
X90000000Y-104874000D01*
X90000000Y-108917078D01*
X89980315Y-108984117D01*
X89964685Y-109003744D01*
X89854819Y-109116169D01*
X89741693Y-109285261D01*
X89741690Y-109285268D01*
X89664916Y-109473671D01*
X89664914Y-109473677D01*
X89645233Y-109540706D01*
X89625082Y-109621597D01*
X89604500Y-109823998D01*
X89604500Y-118975989D01*
X89604566Y-118987579D01*
X89604567Y-118987593D01*
X89627481Y-119189745D01*
X89638685Y-119241246D01*
X89663217Y-119332941D01*
X89744306Y-119519524D01*
X89744310Y-119519531D01*
X89859794Y-119683832D01*
X89861300Y-119685974D01*
X89907055Y-119738778D01*
X89962666Y-119793123D01*
X89996854Y-119854052D01*
X90000000Y-119881806D01*
X90000000Y-121588950D01*
X89996298Y-121619024D01*
X89924536Y-121906074D01*
X89889180Y-121966338D01*
X89826855Y-121997920D01*
X89804238Y-122000000D01*
X82374000Y-122000000D01*
X82306961Y-121980315D01*
X82261206Y-121927511D01*
X82250000Y-121876000D01*
X82250000Y-116805533D01*
X82269685Y-116738494D01*
X82322489Y-116692739D01*
X82339881Y-116686319D01*
X82523049Y-116633909D01*
X82703407Y-116539698D01*
X82861109Y-116411109D01*
X82989698Y-116253407D01*
X83083909Y-116073049D01*
X83139886Y-115877418D01*
X83150500Y-115758037D01*
X83150499Y-114741964D01*
X83139886Y-114622582D01*
X83083909Y-114426951D01*
X82989698Y-114246593D01*
X82937684Y-114182803D01*
X82861109Y-114088890D01*
X82703409Y-113960304D01*
X82703410Y-113960304D01*
X82703407Y-113960302D01*
X82523049Y-113866091D01*
X82339888Y-113813682D01*
X82280850Y-113776314D01*
X82251387Y-113712961D01*
X82250000Y-113694466D01*
X82250000Y-113305533D01*
X82269685Y-113238494D01*
X82322489Y-113192739D01*
X82339881Y-113186319D01*
X82523049Y-113133909D01*
X82703407Y-113039698D01*
X82861109Y-112911109D01*
X82989698Y-112753407D01*
X83083909Y-112573049D01*
X83139886Y-112377418D01*
X83150500Y-112258037D01*
X83150499Y-111241964D01*
X83139886Y-111122582D01*
X83083909Y-110926951D01*
X82989698Y-110746593D01*
X82937684Y-110682803D01*
X82861109Y-110588890D01*
X82703409Y-110460304D01*
X82703410Y-110460304D01*
X82703407Y-110460302D01*
X82523049Y-110366091D01*
X82339888Y-110313682D01*
X82280850Y-110276314D01*
X82251387Y-110212961D01*
X82250000Y-110194466D01*
X82250000Y-104874000D01*
X82269685Y-104806961D01*
X82322489Y-104761206D01*
X82374000Y-104750000D01*
X89876000Y-104750000D01*
X89943039Y-104769685D01*
G37*
%TD.AperFunction*%
%TD*%
%TA.AperFunction,Conductor*%
%TO.N,GND*%
G36*
X137343039Y-91469685D02*
G01*
X137388794Y-91522489D01*
X137400000Y-91574000D01*
X137400000Y-94476000D01*
X137380315Y-94543039D01*
X137327511Y-94588794D01*
X137276000Y-94600000D01*
X128824000Y-94600000D01*
X128756961Y-94580315D01*
X128711206Y-94527511D01*
X128700000Y-94476000D01*
X128700000Y-91574000D01*
X128719685Y-91506961D01*
X128772489Y-91461206D01*
X128824000Y-91450000D01*
X137276000Y-91450000D01*
X137343039Y-91469685D01*
G37*
%TD.AperFunction*%
%TD*%
%TA.AperFunction,Conductor*%
%TO.N,GND*%
G36*
X110293039Y-91469685D02*
G01*
X110338794Y-91522489D01*
X110350000Y-91574000D01*
X110350000Y-94476000D01*
X110330315Y-94543039D01*
X110277511Y-94588794D01*
X110226000Y-94600000D01*
X108424000Y-94600000D01*
X108356961Y-94580315D01*
X108311206Y-94527511D01*
X108300000Y-94476000D01*
X108300000Y-91574000D01*
X108319685Y-91506961D01*
X108372489Y-91461206D01*
X108424000Y-91450000D01*
X110226000Y-91450000D01*
X110293039Y-91469685D01*
G37*
%TD.AperFunction*%
%TD*%
%TA.AperFunction,Conductor*%
%TO.N,GND*%
G36*
X148343039Y-91469685D02*
G01*
X148388794Y-91522489D01*
X148400000Y-91574000D01*
X148400000Y-94476000D01*
X148380315Y-94543039D01*
X148327511Y-94588794D01*
X148276000Y-94600000D01*
X146474000Y-94600000D01*
X146406961Y-94580315D01*
X146361206Y-94527511D01*
X146350000Y-94476000D01*
X146350000Y-91574000D01*
X146369685Y-91506961D01*
X146422489Y-91461206D01*
X146474000Y-91450000D01*
X148276000Y-91450000D01*
X148343039Y-91469685D01*
G37*
%TD.AperFunction*%
%TD*%
%TA.AperFunction,Conductor*%
%TO.N,+5V*%
G36*
X114443039Y-91469685D02*
G01*
X114488794Y-91522489D01*
X114500000Y-91574000D01*
X114500000Y-94476000D01*
X114480315Y-94543039D01*
X114427511Y-94588794D01*
X114376000Y-94600000D01*
X111124000Y-94600000D01*
X111056961Y-94580315D01*
X111011206Y-94527511D01*
X111000000Y-94476000D01*
X111000000Y-91574000D01*
X111019685Y-91506961D01*
X111072489Y-91461206D01*
X111124000Y-91450000D01*
X114376000Y-91450000D01*
X114443039Y-91469685D01*
G37*
%TD.AperFunction*%
%TD*%
%TA.AperFunction,Conductor*%
%TO.N,BRD_VIN*%
G36*
X127340955Y-91469685D02*
G01*
X127386710Y-91522489D01*
X127397899Y-91576066D01*
X127352032Y-94328066D01*
X127331233Y-94394769D01*
X127277674Y-94439637D01*
X127228049Y-94450000D01*
X118721951Y-94450000D01*
X118654912Y-94430315D01*
X118609157Y-94377511D01*
X118597968Y-94328066D01*
X118552101Y-91576066D01*
X118570666Y-91508708D01*
X118622700Y-91462080D01*
X118676084Y-91450000D01*
X127273916Y-91450000D01*
X127340955Y-91469685D01*
G37*
%TD.AperFunction*%
%TD*%
M02*
