%TF.GenerationSoftware,KiCad,Pcbnew,9.0.2*%
%TF.CreationDate,2026-04-08T17:33:48+02:00*%
%TF.ProjectId,MMS3_hat_stepper_controler,4d4d5333-5f68-4617-945f-737465707065,R0*%
%TF.SameCoordinates,Original*%
%TF.FileFunction,Copper,L4,Bot*%
%TF.FilePolarity,Positive*%
%FSLAX46Y46*%
G04 Gerber Fmt 4.6, Leading zero omitted, Abs format (unit mm)*
G04 Created by KiCad (PCBNEW 9.0.2) date 2026-04-08 17:33:48*
%MOMM*%
%LPD*%
G01*
G04 APERTURE LIST*
G04 Aperture macros list*
%AMRoundRect*
0 Rectangle with rounded corners*
0 $1 Rounding radius*
0 $2 $3 $4 $5 $6 $7 $8 $9 X,Y pos of 4 corners*
0 Add a 4 corners polygon primitive as box body*
4,1,4,$2,$3,$4,$5,$6,$7,$8,$9,$2,$3,0*
0 Add four circle primitives for the rounded corners*
1,1,$1+$1,$2,$3*
1,1,$1+$1,$4,$5*
1,1,$1+$1,$6,$7*
1,1,$1+$1,$8,$9*
0 Add four rect primitives between the rounded corners*
20,1,$1+$1,$2,$3,$4,$5,0*
20,1,$1+$1,$4,$5,$6,$7,0*
20,1,$1+$1,$6,$7,$8,$9,0*
20,1,$1+$1,$8,$9,$2,$3,0*%
G04 Aperture macros list end*
%TA.AperFunction,ComponentPad*%
%ADD10RoundRect,0.250000X0.550000X-0.550000X0.550000X0.550000X-0.550000X0.550000X-0.550000X-0.550000X0*%
%TD*%
%TA.AperFunction,ComponentPad*%
%ADD11C,1.600000*%
%TD*%
%TA.AperFunction,ComponentPad*%
%ADD12C,3.100000*%
%TD*%
%TA.AperFunction,ComponentPad*%
%ADD13R,1.700000X1.700000*%
%TD*%
%TA.AperFunction,ComponentPad*%
%ADD14C,1.700000*%
%TD*%
%TA.AperFunction,ComponentPad*%
%ADD15C,1.440000*%
%TD*%
%TA.AperFunction,ComponentPad*%
%ADD16RoundRect,0.250000X-0.600000X-0.725000X0.600000X-0.725000X0.600000X0.725000X-0.600000X0.725000X0*%
%TD*%
%TA.AperFunction,ComponentPad*%
%ADD17O,1.700000X1.950000*%
%TD*%
%TA.AperFunction,ComponentPad*%
%ADD18R,2.000000X0.900000*%
%TD*%
%TA.AperFunction,ComponentPad*%
%ADD19RoundRect,1.025000X1.025000X-1.025000X1.025000X1.025000X-1.025000X1.025000X-1.025000X-1.025000X0*%
%TD*%
%TA.AperFunction,ComponentPad*%
%ADD20C,4.100000*%
%TD*%
%TA.AperFunction,HeatsinkPad*%
%ADD21C,0.500000*%
%TD*%
%TA.AperFunction,HeatsinkPad*%
%ADD22R,5.000000X5.000000*%
%TD*%
%TA.AperFunction,ComponentPad*%
%ADD23C,0.500000*%
%TD*%
%TA.AperFunction,SMDPad,CuDef*%
%ADD24RoundRect,0.250000X-0.920000X-1.550000X0.920000X-1.550000X0.920000X1.550000X-0.920000X1.550000X0*%
%TD*%
%TA.AperFunction,SMDPad,CuDef*%
%ADD25R,1.000000X3.150000*%
%TD*%
%TA.AperFunction,ViaPad*%
%ADD26C,0.500000*%
%TD*%
%TA.AperFunction,Conductor*%
%ADD27C,0.200000*%
%TD*%
%TA.AperFunction,Conductor*%
%ADD28C,0.300000*%
%TD*%
%TA.AperFunction,Conductor*%
%ADD29C,1.000000*%
%TD*%
G04 APERTURE END LIST*
D10*
%TO.P,SW1,1*%
%TO.N,unconnected-(SW1-Pad1)*%
X92170000Y-105590000D03*
D11*
%TO.P,SW1,2*%
%TO.N,Net-(U5-FB)*%
X94710000Y-105590000D03*
%TO.P,SW1,3*%
X97250000Y-105590000D03*
%TO.P,SW1,4*%
X99790000Y-105590000D03*
%TO.P,SW1,5*%
%TO.N,Net-(R16-Pad1)*%
X99790000Y-97970000D03*
%TO.P,SW1,6*%
%TO.N,Net-(R15-Pad1)*%
X97250000Y-97970000D03*
%TO.P,SW1,7*%
%TO.N,Net-(R14-Pad1)*%
X94710000Y-97970000D03*
%TO.P,SW1,8*%
%TO.N,unconnected-(SW1-Pad8)*%
X92170000Y-97970000D03*
%TD*%
D12*
%TO.P,H1,1,1*%
%TO.N,GND*%
X82000000Y-92000000D03*
%TD*%
D13*
%TO.P,J3,1,Pin_1*%
%TO.N,/Bus_switch/Chainbus.SDA*%
X151170000Y-100000000D03*
D14*
%TO.P,J3,2,Pin_2*%
%TO.N,/Bus_switch/Chainbus.SCL*%
X153710000Y-100000000D03*
%TO.P,J3,3,Pin_3*%
%TO.N,GND*%
X156250000Y-100000000D03*
%TO.P,J3,4,Pin_4*%
%TO.N,+3V3*%
X158790000Y-100000000D03*
%TD*%
D15*
%TO.P,RV1,1,1*%
%TO.N,Net-(R5-Pad2)*%
X165295000Y-108460000D03*
%TO.P,RV1,2,2*%
%TO.N,Net-(U3-AIN_IREF)*%
X165295000Y-111000000D03*
%TO.P,RV1,3,3*%
%TO.N,GND*%
X165295000Y-113540000D03*
%TD*%
D16*
%TO.P,J6,1,Pin_1*%
%TO.N,/Stepper controller/ENCN_DCO*%
X161000000Y-135350000D03*
D17*
%TO.P,J6,2,Pin_2*%
%TO.N,/Stepper controller/ENCB_DCEN_CFG4*%
X163500000Y-135350000D03*
%TO.P,J6,3,Pin_3*%
%TO.N,/Stepper controller/ENCA_DCIN_CFG5*%
X166000000Y-135350000D03*
%TD*%
D18*
%TO.P,J4,*%
%TO.N,*%
X81150000Y-128750000D03*
X81150000Y-115250000D03*
D19*
%TO.P,J4,1,Pin_1*%
%TO.N,GND*%
X87150000Y-125600000D03*
D20*
%TO.P,J4,2,Pin_2*%
%TO.N,Vin*%
X87150000Y-118400000D03*
%TD*%
D13*
%TO.P,J8,1,Pin_1*%
%TO.N,Net-(J8-Pin_1)*%
X109210000Y-125800000D03*
D14*
%TO.P,J8,2,Pin_2*%
%TO.N,Vin*%
X111750000Y-125800000D03*
%TO.P,J8,3,Pin_3*%
%TO.N,Net-(J8-Pin_3)*%
X114290000Y-125800000D03*
%TD*%
D18*
%TO.P,J5,*%
%TO.N,*%
X81150000Y-111750000D03*
X81150000Y-98250000D03*
D19*
%TO.P,J5,1,Pin_1*%
%TO.N,GND*%
X87150000Y-101400000D03*
D20*
%TO.P,J5,2,Pin_2*%
%TO.N,Vin*%
X87150000Y-108600000D03*
%TD*%
D21*
%TO.P,U3,49,EP*%
%TO.N,GND*%
X152875000Y-114375000D03*
X151750000Y-114375000D03*
X150625000Y-114375000D03*
X149500000Y-114375000D03*
X148375000Y-114375000D03*
X152875000Y-115500000D03*
X151750000Y-115500000D03*
X150625000Y-115500000D03*
X149500000Y-115500000D03*
X148375000Y-115500000D03*
X152875000Y-116625000D03*
X151750000Y-116625000D03*
X150625000Y-116625000D03*
D22*
X150625000Y-116625000D03*
D21*
X149500000Y-116625000D03*
X148375000Y-116625000D03*
X152875000Y-117750000D03*
X151750000Y-117750000D03*
X150625000Y-117750000D03*
X149500000Y-117750000D03*
X148375000Y-117750000D03*
X152875000Y-118875000D03*
X151750000Y-118875000D03*
X150625000Y-118875000D03*
X149500000Y-118875000D03*
X148375000Y-118875000D03*
%TD*%
D16*
%TO.P,J7,1,Pin_1*%
%TO.N,/Stepper controller/OB1*%
X146500000Y-133655000D03*
D17*
%TO.P,J7,2,Pin_2*%
%TO.N,/Stepper controller/OB2*%
X149000000Y-133655000D03*
%TO.P,J7,3,Pin_3*%
%TO.N,/Stepper controller/OA2*%
X151500000Y-133655000D03*
%TO.P,J7,4,Pin_4*%
%TO.N,/Stepper controller/OA1*%
X154000000Y-133655000D03*
%TD*%
D23*
%TO.P,U4,4,VOUT*%
%TO.N,+3V3*%
X158810000Y-92750000D03*
X158810000Y-93750000D03*
D24*
X158810000Y-93750000D03*
D23*
X158810000Y-94750000D03*
%TD*%
D25*
%TO.P,J1,1,Pin_1*%
%TO.N,GND*%
X108940000Y-93013272D03*
%TO.P,J1,2,Pin_2*%
%TO.N,/Bus_switch/SEL1*%
X108940000Y-98063272D03*
%TO.P,J1,3,Pin_3*%
%TO.N,+5V*%
X111480000Y-93013272D03*
%TO.P,J1,4,Pin_4*%
%TO.N,/Interboard_connector/SEL2*%
X111480000Y-98063272D03*
%TO.P,J1,5,Pin_5*%
%TO.N,+5V*%
X114020000Y-93013272D03*
%TO.P,J1,6,Pin_6*%
%TO.N,/Interboard_connector/SEL3*%
X114020000Y-98063272D03*
%TO.P,J1,7,Pin_7*%
%TO.N,GND*%
X116560000Y-93013272D03*
%TO.P,J1,8,Pin_8*%
%TO.N,/Interboard_connector/SEL4*%
X116560000Y-98063272D03*
%TO.P,J1,9,Pin_9*%
%TO.N,BRD_VIN*%
X119100000Y-93013272D03*
%TO.P,J1,10,Pin_10*%
%TO.N,/Interboard_connector/SEL5*%
X119100000Y-98063272D03*
%TO.P,J1,11,Pin_11*%
%TO.N,BRD_VIN*%
X121640000Y-93013272D03*
%TO.P,J1,12,Pin_12*%
%TO.N,/Interboard_connector/SEL6*%
X121640000Y-98063272D03*
%TO.P,J1,13,Pin_13*%
%TO.N,BRD_VIN*%
X124180000Y-93013272D03*
%TO.P,J1,14,Pin_14*%
%TO.N,/Interboard_connector/SEL7*%
X124180000Y-98063272D03*
%TO.P,J1,15,Pin_15*%
%TO.N,BRD_VIN*%
X126720000Y-93013272D03*
%TO.P,J1,16,Pin_16*%
%TO.N,/Interboard_connector/SEL8*%
X126720000Y-98063272D03*
%TO.P,J1,17,Pin_17*%
%TO.N,GND*%
X129260000Y-93013272D03*
%TO.P,J1,18,Pin_18*%
%TO.N,/Bus_switch/Chainbus_In.SDA*%
X129260000Y-98063272D03*
%TO.P,J1,19,Pin_19*%
%TO.N,GND*%
X131800000Y-93013272D03*
%TO.P,J1,20,Pin_20*%
%TO.N,/Bus_switch/Chainbus_In.SCL*%
X131800000Y-98063272D03*
%TO.P,J1,21,Pin_21*%
%TO.N,GND*%
X134340000Y-93013272D03*
%TO.P,J1,22,Pin_22*%
%TO.N,/Bus_switch/Chainbus_In.CS*%
X134340000Y-98063272D03*
%TO.P,J1,23,Pin_23*%
%TO.N,GND*%
X136880000Y-93013272D03*
%TO.P,J1,24,Pin_24*%
%TO.N,/Bus_switch/Chainbus_In.SCK*%
X136880000Y-98063272D03*
%TO.P,J1,25,Pin_25*%
%TO.N,unconnected-(J1-Pin_25-Pad25)*%
X139420000Y-93013272D03*
%TO.P,J1,26,Pin_26*%
%TO.N,/Bus_switch/Chainbus_In.MOSI*%
X139420000Y-98063272D03*
%TO.P,J1,27,Pin_27*%
%TO.N,unconnected-(J1-Pin_27-Pad27)*%
X141960000Y-93013272D03*
%TO.P,J1,28,Pin_28*%
%TO.N,/Bus_switch/Chainbus_In.MISO*%
X141960000Y-98063272D03*
%TO.P,J1,29,Pin_29*%
%TO.N,+12V stby*%
X144500000Y-93013272D03*
%TO.P,J1,30,Pin_30*%
%TO.N,/Bus_switch/Chainbus_In.TX*%
X144500000Y-98063272D03*
%TO.P,J1,31,Pin_31*%
%TO.N,GND*%
X147040000Y-93013272D03*
%TO.P,J1,32,Pin_32*%
%TO.N,/Bus_switch/Chainbus_In.RX*%
X147040000Y-98063272D03*
%TD*%
D26*
%TO.N,GND*%
X90250000Y-133780000D03*
X128100000Y-120300000D03*
X170500000Y-102700000D03*
X125600000Y-119550000D03*
X133050000Y-92050000D03*
X91860000Y-109100000D03*
X155800000Y-90700000D03*
X102050000Y-135850000D03*
X139750000Y-104800000D03*
X98610000Y-108350000D03*
X141650000Y-108750000D03*
X101460000Y-100560000D03*
X115650000Y-93800000D03*
X115650000Y-91750000D03*
X173900000Y-125700000D03*
X92610000Y-109100000D03*
X100860000Y-109100000D03*
X91110000Y-108350000D03*
X125600000Y-118800000D03*
X98610000Y-109100000D03*
X110100000Y-92950000D03*
X94860000Y-108350000D03*
X111900000Y-118600000D03*
X95810000Y-110750000D03*
X99360000Y-108350000D03*
X90250000Y-133030000D03*
X102050000Y-135100000D03*
X174650000Y-128200000D03*
X96360000Y-109100000D03*
X148150000Y-92950000D03*
X100310000Y-110750000D03*
X113400000Y-118600000D03*
X110400000Y-135100000D03*
X173150000Y-125700000D03*
X139700000Y-101250000D03*
X93360000Y-109100000D03*
X94850000Y-136050000D03*
X95600000Y-135300000D03*
X98060000Y-110750000D03*
X106800000Y-135650000D03*
X102800000Y-135100000D03*
X92610000Y-108350000D03*
X106800000Y-134900000D03*
X114000000Y-135300000D03*
X114195413Y-119372036D03*
X95600000Y-136800000D03*
X117250000Y-103750000D03*
X100110000Y-108350000D03*
X132750000Y-119000000D03*
X106050000Y-135650000D03*
X95600000Y-136050000D03*
X170550000Y-98800000D03*
X162500000Y-104250000D03*
X130500000Y-94000000D03*
X173400000Y-120950000D03*
X98905212Y-136977963D03*
X120750000Y-119250000D03*
X110400000Y-136600000D03*
X94860000Y-109100000D03*
X112650000Y-118600000D03*
X115750000Y-103750000D03*
X112650000Y-117850000D03*
X120750000Y-118500000D03*
X114000000Y-136800000D03*
X106800000Y-136400000D03*
X173400000Y-118450000D03*
X98905212Y-136227963D03*
X155650000Y-108800000D03*
X174900000Y-120950000D03*
X96360000Y-108350000D03*
X95610000Y-109100000D03*
X100860000Y-108350000D03*
X152800000Y-127550000D03*
X166600000Y-96400000D03*
X138000000Y-103000000D03*
X155200000Y-122400000D03*
X124500000Y-105750000D03*
X90750000Y-133780000D03*
X157500000Y-102800000D03*
X170600000Y-100150000D03*
X97110000Y-109100000D03*
X91310000Y-110750000D03*
X109650000Y-135100000D03*
X128100000Y-119550000D03*
X94110000Y-109100000D03*
X113250000Y-135300000D03*
X102800000Y-136600000D03*
X92060000Y-110750000D03*
X116500000Y-103750000D03*
X135250000Y-119750000D03*
X113250000Y-136800000D03*
X118250000Y-120000000D03*
X106050000Y-136400000D03*
X174650000Y-125700000D03*
X175350000Y-103550000D03*
X148150000Y-94000000D03*
X111900000Y-117850000D03*
X148150000Y-91950000D03*
X114000000Y-136050000D03*
X124500000Y-104250000D03*
X167300000Y-95550000D03*
X167300000Y-96450000D03*
X97310000Y-110750000D03*
X141700000Y-112000000D03*
X140950000Y-112000000D03*
X91860000Y-108350000D03*
X173150000Y-128200000D03*
X113250000Y-136050000D03*
X98905212Y-135477963D03*
X94850000Y-136800000D03*
X102800000Y-135850000D03*
X174150000Y-120950000D03*
X111877963Y-119344788D03*
X124500000Y-105000000D03*
X99360000Y-109100000D03*
X143700000Y-111400000D03*
X94110000Y-108350000D03*
X94310000Y-110750000D03*
X170500000Y-101350000D03*
X115650000Y-92750000D03*
X125600000Y-120300000D03*
X174900000Y-118450000D03*
X135250000Y-119000000D03*
X166550000Y-95550000D03*
X91110000Y-109100000D03*
X120750000Y-120000000D03*
X93560000Y-110750000D03*
X118250000Y-119250000D03*
X150050000Y-105400000D03*
X110100000Y-91950000D03*
X97110000Y-108350000D03*
X122000000Y-105750000D03*
X140150000Y-108750000D03*
X140200000Y-112000000D03*
X97860000Y-109100000D03*
X133050000Y-94100000D03*
X99655212Y-136227963D03*
X94850000Y-135300000D03*
X140900000Y-108750000D03*
X101060000Y-110750000D03*
X130500000Y-92950000D03*
X114217450Y-118627248D03*
X132750000Y-118250000D03*
X113377963Y-119344788D03*
X112627963Y-119344788D03*
X109650000Y-135850000D03*
X95060000Y-110750000D03*
X106050000Y-134900000D03*
X135600000Y-92000000D03*
X98810000Y-110750000D03*
X92810000Y-110750000D03*
X118250000Y-118500000D03*
X99655212Y-136977963D03*
X139709886Y-104149980D03*
X122000000Y-105000000D03*
X155600000Y-107900000D03*
X157800000Y-108100000D03*
X93360000Y-108350000D03*
X109650000Y-136600000D03*
X135250000Y-118250000D03*
X95610000Y-108350000D03*
X97860000Y-108350000D03*
X113400000Y-117850000D03*
X114217450Y-117877248D03*
X132750000Y-119750000D03*
X135600000Y-94050000D03*
X148900000Y-107900000D03*
X135600000Y-93000000D03*
X137050000Y-102050000D03*
X100110000Y-109100000D03*
X102050000Y-136600000D03*
X122000000Y-104250000D03*
X110100000Y-94000000D03*
X173900000Y-128200000D03*
X139750000Y-105450000D03*
X133050000Y-93050000D03*
X99560000Y-110750000D03*
X130500000Y-91950000D03*
X128100000Y-118800000D03*
X110400000Y-135850000D03*
X174150000Y-118450000D03*
X99655212Y-135477963D03*
X96560000Y-110750000D03*
%TO.N,Net-(U5-FB)*%
X97750000Y-119775000D03*
%TO.N,/Stepper controller/5VOUT*%
X153300000Y-124850000D03*
X161800000Y-106600000D03*
%TO.N,+3V3*%
X155800000Y-106200000D03*
X150050000Y-107000000D03*
%TO.N,+5V*%
X167000000Y-90400000D03*
X112750000Y-92000000D03*
X112750000Y-93600000D03*
X112750000Y-92850000D03*
X112750000Y-94300000D03*
%TO.N,U_reg*%
X106720000Y-99000000D03*
X126840000Y-103560000D03*
%TO.N,Net-(R14-Pad1)*%
X106240000Y-96000000D03*
%TO.N,/Bus_switch/Chainbus_In.RX*%
X148200000Y-98050000D03*
%TO.N,/Bus_switch/Chainbus_In.MOSI*%
X140450000Y-98000000D03*
%TO.N,/Bus_switch/Chainbus_In.SDA*%
X142200000Y-105600000D03*
X130300000Y-98100000D03*
%TO.N,/Bus_switch/SEL1*%
X140000000Y-107200000D03*
X141200000Y-105500000D03*
%TO.N,/Interboard_connector/SEL2*%
X110250000Y-98000000D03*
%TO.N,/Bus_switch/Chainbus_In.TX*%
X145650000Y-97950000D03*
%TO.N,/Interboard_connector/SEL8*%
X125563272Y-98063272D03*
%TO.N,/Interboard_connector/SEL5*%
X117750000Y-98000000D03*
%TO.N,/Interboard_connector/SEL7*%
X123063272Y-98063272D03*
%TO.N,/Interboard_connector/SEL4*%
X115250000Y-98000000D03*
%TO.N,/Bus_switch/Chainbus_In.SCK*%
X137850000Y-98050000D03*
%TO.N,/Bus_switch/Chainbus_In.MISO*%
X143000000Y-98000000D03*
%TO.N,+12V stby*%
X143400000Y-93050000D03*
%TO.N,/Bus_switch/Chainbus_In.SCL*%
X132850000Y-98050000D03*
X143900000Y-105900000D03*
%TO.N,/Bus_switch/Chainbus_In.CS*%
X135400000Y-98050000D03*
%TO.N,/Interboard_connector/SEL3*%
X112750000Y-98000000D03*
%TO.N,/Interboard_connector/SEL6*%
X120250000Y-98000000D03*
%TO.N,BRD_VIN*%
X122900000Y-92950000D03*
X120350000Y-93900000D03*
X125450000Y-91950000D03*
X120350000Y-92900000D03*
X122900000Y-93950000D03*
X125450000Y-92950000D03*
X120350000Y-91900000D03*
X122900000Y-91950000D03*
X125450000Y-93950000D03*
%TO.N,/Bus_switch/Chainbus.SCL*%
X156600000Y-97900000D03*
X144600000Y-108400000D03*
%TO.N,/Bus_switch/Chainbus.SDA*%
X143600000Y-108500000D03*
%TO.N,/Stepper controller/ENCN_DCO*%
X145192652Y-120967778D03*
%TO.N,/Stepper controller/ENCA_DCIN_CFG5*%
X147012437Y-122787563D03*
%TO.N,/Stepper controller/ENCB_DCEN_CFG4*%
X145987437Y-121762563D03*
%TO.N,Net-(U3-BRA)*%
X156450000Y-112250000D03*
X156308637Y-115878396D03*
%TO.N,Net-(U3-BRB)*%
X145000000Y-112800000D03*
X145000000Y-115900000D03*
%TO.N,Net-(U3-AIN_IREF)*%
X150600000Y-123400000D03*
%TO.N,Net-(U3-SWSEL)*%
X149350000Y-123400000D03*
X155950000Y-124000000D03*
%TO.N,Net-(U3-SWN_DIAG0)*%
X148150000Y-123900000D03*
X153300000Y-125900000D03*
%TO.N,/Bus_switch/Chainbus.CS*%
X142900000Y-108700000D03*
X152400000Y-110900000D03*
%TO.N,/Bus_switch/Chainbus.MOSI*%
X148600000Y-103600000D03*
X151375000Y-108800000D03*
X152900000Y-108800000D03*
X146100000Y-102900000D03*
%TO.N,/Bus_switch/Chainbus.TX*%
X149900000Y-97900000D03*
X145300000Y-100000000D03*
%TO.N,/Bus_switch/Chainbus.MISO*%
X149500000Y-104400000D03*
X153100000Y-107900000D03*
X144600000Y-102400000D03*
X150600000Y-107800000D03*
%TO.N,/Bus_switch/Chainbus.SCK*%
X155700000Y-105100000D03*
X154800000Y-106300000D03*
X148700000Y-102800000D03*
X147100000Y-102900000D03*
%TO.N,/Stepper controller/U_reg_after_jumper*%
X164600000Y-120000000D03*
X164600000Y-120800000D03*
X137700000Y-113000000D03*
X136900000Y-113000000D03*
X165400000Y-120800000D03*
X165400000Y-118600000D03*
X137700000Y-114500000D03*
X157700000Y-120000000D03*
X136900000Y-114500000D03*
X136853881Y-115320031D03*
X158350000Y-119350000D03*
X158350000Y-120000000D03*
X157700000Y-119350000D03*
X138500000Y-113000000D03*
X138500000Y-112300000D03*
X165400000Y-120000000D03*
X164600000Y-118600000D03*
X157700000Y-118700000D03*
X136900000Y-113700000D03*
X164600000Y-119300000D03*
X136900000Y-112300000D03*
X137700000Y-113700000D03*
X138500000Y-113700000D03*
X144700000Y-118250000D03*
X137700000Y-112300000D03*
X136775163Y-116119316D03*
X145100000Y-117850000D03*
X138500000Y-114500000D03*
X165400000Y-119300000D03*
%TD*%
D27*
%TO.N,Net-(U5-FB)*%
X99925000Y-113950000D02*
X102450000Y-111425000D01*
X102450000Y-111425000D02*
X102450000Y-107250000D01*
X97750000Y-119775000D02*
X99925000Y-117600000D01*
X102450000Y-107250000D02*
X100950000Y-105750000D01*
X100950000Y-105750000D02*
X99870000Y-105750000D01*
X99925000Y-117600000D02*
X99925000Y-113950000D01*
%TO.N,/Stepper controller/5VOUT*%
X166250000Y-106600000D02*
X161800000Y-106600000D01*
X153300000Y-124850000D02*
X170496388Y-124850000D01*
X172151000Y-112501000D02*
X166250000Y-106600000D01*
X161800000Y-106600000D02*
X161700000Y-106500000D01*
X170496388Y-124850000D02*
X172151000Y-123195388D01*
X172151000Y-123195388D02*
X172151000Y-112501000D01*
D28*
%TO.N,+3V3*%
X158810000Y-94750000D02*
X158810000Y-99980000D01*
X158810000Y-99980000D02*
X158790000Y-100000000D01*
X158790000Y-100000000D02*
X158790000Y-103110000D01*
X154900000Y-107000000D02*
X150050000Y-107000000D01*
X158790000Y-103110000D02*
X154900000Y-107000000D01*
%TO.N,+5V*%
X167000000Y-90400000D02*
X165700000Y-89100000D01*
X115650000Y-89100000D02*
X112750000Y-92000000D01*
X165700000Y-89100000D02*
X115650000Y-89100000D01*
D27*
%TO.N,U_reg*%
X115240000Y-100770000D02*
X116620000Y-102150000D01*
X116620000Y-102150000D02*
X126250000Y-102150000D01*
X106720000Y-99930000D02*
X107560000Y-100770000D01*
X126840000Y-102740000D02*
X126840000Y-103560000D01*
X126250000Y-102150000D02*
X126840000Y-102740000D01*
X107560000Y-100770000D02*
X115240000Y-100770000D01*
X106720000Y-99000000D02*
X106720000Y-99930000D01*
%TO.N,Net-(R14-Pad1)*%
X106190000Y-95950000D02*
X96730000Y-95950000D01*
X106240000Y-96000000D02*
X106190000Y-95950000D01*
X96730000Y-95950000D02*
X94710000Y-97970000D01*
D29*
%TO.N,Vin*%
X90900000Y-122150000D02*
X87150000Y-118400000D01*
X91651000Y-133149000D02*
X90900000Y-132398000D01*
X108051000Y-133149000D02*
X91651000Y-133149000D01*
X90900000Y-132398000D02*
X90900000Y-122150000D01*
X111750000Y-125800000D02*
X111750000Y-129450000D01*
X111750000Y-129450000D02*
X108051000Y-133149000D01*
D27*
%TO.N,/Bus_switch/Chainbus_In.RX*%
X148200000Y-98050000D02*
X147053272Y-98050000D01*
X147053272Y-98050000D02*
X147040000Y-98063272D01*
%TO.N,/Bus_switch/Chainbus_In.MOSI*%
X140450000Y-98000000D02*
X139483272Y-98000000D01*
X139483272Y-98000000D02*
X139420000Y-98063272D01*
%TO.N,/Bus_switch/Chainbus_In.SDA*%
X129296728Y-98100000D02*
X129260000Y-98063272D01*
X134900000Y-101198000D02*
X137994388Y-101198000D01*
X130300000Y-98100000D02*
X129296728Y-98100000D01*
X137994388Y-101198000D02*
X142200000Y-105403612D01*
X142200000Y-105403612D02*
X142200000Y-105600000D01*
X132394728Y-101198000D02*
X134900000Y-101198000D01*
X129260000Y-98063272D02*
X132394728Y-101198000D01*
%TO.N,/Bus_switch/SEL1*%
X132249340Y-101549000D02*
X137849000Y-101549000D01*
X111323272Y-95680000D02*
X127180000Y-95680000D01*
X140251000Y-105200000D02*
X140251000Y-106949000D01*
X128919000Y-101549000D02*
X132249340Y-101549000D01*
X140251000Y-103951000D02*
X140251000Y-105200000D01*
X137849000Y-101549000D02*
X140251000Y-103951000D01*
X140900000Y-105200000D02*
X141200000Y-105500000D01*
X140251000Y-105200000D02*
X140900000Y-105200000D01*
X108940000Y-98063272D02*
X111323272Y-95680000D01*
X140251000Y-106949000D02*
X140000000Y-107200000D01*
X128140000Y-96640000D02*
X128140000Y-100770000D01*
X127180000Y-95680000D02*
X128140000Y-96640000D01*
X128140000Y-100770000D02*
X128919000Y-101549000D01*
%TO.N,/Interboard_connector/SEL2*%
X110250000Y-98000000D02*
X110000000Y-98000000D01*
X110313272Y-98063272D02*
X110250000Y-98000000D01*
X111480000Y-98063272D02*
X110313272Y-98063272D01*
%TO.N,/Bus_switch/Chainbus_In.TX*%
X145536728Y-98063272D02*
X145650000Y-97950000D01*
X144500000Y-98063272D02*
X145536728Y-98063272D01*
%TO.N,/Interboard_connector/SEL8*%
X126720000Y-98063272D02*
X125563272Y-98063272D01*
X125500000Y-98000000D02*
X125563272Y-98063272D01*
%TO.N,/Interboard_connector/SEL5*%
X117813272Y-98063272D02*
X117750000Y-98000000D01*
X119100000Y-98063272D02*
X117813272Y-98063272D01*
%TO.N,/Interboard_connector/SEL7*%
X124180000Y-98063272D02*
X123063272Y-98063272D01*
X123000000Y-98000000D02*
X123063272Y-98063272D01*
%TO.N,/Interboard_connector/SEL4*%
X115313272Y-98063272D02*
X115250000Y-98000000D01*
X116560000Y-98063272D02*
X115313272Y-98063272D01*
%TO.N,/Bus_switch/Chainbus_In.SCK*%
X137850000Y-98050000D02*
X136893272Y-98050000D01*
X136893272Y-98050000D02*
X136880000Y-98063272D01*
%TO.N,/Bus_switch/Chainbus_In.MISO*%
X141960000Y-98063272D02*
X142936728Y-98063272D01*
X142936728Y-98063272D02*
X143000000Y-98000000D01*
D28*
%TO.N,+12V stby*%
X143436728Y-93013272D02*
X143400000Y-93050000D01*
X144500000Y-93013272D02*
X143436728Y-93013272D01*
D27*
%TO.N,/Bus_switch/Chainbus_In.SCL*%
X132850000Y-98050000D02*
X131813272Y-98050000D01*
X142100000Y-104100000D02*
X143900000Y-105900000D01*
X131800000Y-98063272D02*
X134583728Y-100847000D01*
X138147000Y-100847000D02*
X141400000Y-104100000D01*
X134583728Y-100847000D02*
X138147000Y-100847000D01*
X131813272Y-98050000D02*
X131800000Y-98063272D01*
X141400000Y-104100000D02*
X142100000Y-104100000D01*
%TO.N,/Bus_switch/Chainbus_In.CS*%
X135400000Y-98050000D02*
X134353272Y-98050000D01*
X134353272Y-98050000D02*
X134340000Y-98063272D01*
%TO.N,/Interboard_connector/SEL3*%
X114020000Y-98063272D02*
X112813272Y-98063272D01*
X112813272Y-98063272D02*
X112750000Y-98000000D01*
%TO.N,/Interboard_connector/SEL6*%
X120313272Y-98063272D02*
X120250000Y-98000000D01*
X121640000Y-98063272D02*
X120313272Y-98063272D01*
%TO.N,/Bus_switch/Chainbus.SCL*%
X153200000Y-106400000D02*
X146600000Y-106400000D01*
X153710000Y-100000000D02*
X153710000Y-105890000D01*
X155810000Y-97900000D02*
X156600000Y-97900000D01*
X153710000Y-100000000D02*
X155810000Y-97900000D01*
X153710000Y-105890000D02*
X153200000Y-106400000D01*
X146600000Y-106400000D02*
X144600000Y-108400000D01*
%TO.N,/Bus_switch/Chainbus.SDA*%
X145300000Y-106000000D02*
X150500000Y-106000000D01*
X150500000Y-106000000D02*
X151170000Y-105330000D01*
X143600000Y-108500000D02*
X143600000Y-107700000D01*
X143600000Y-107700000D02*
X145300000Y-106000000D01*
X151170000Y-105330000D02*
X151170000Y-100000000D01*
%TO.N,/Stepper controller/ENCN_DCO*%
X144050000Y-122110430D02*
X145192652Y-120967778D01*
X161000000Y-135350000D02*
X156600000Y-130950000D01*
X149500000Y-130950000D02*
X144050000Y-125500000D01*
X156600000Y-130950000D02*
X156150000Y-130950000D01*
X144050000Y-125500000D02*
X144050000Y-122110430D01*
X156150000Y-130950000D02*
X149500000Y-130950000D01*
%TO.N,/Stepper controller/ENCA_DCIN_CFG5*%
X148500000Y-126800000D02*
X157450000Y-126800000D01*
X147000000Y-125700000D02*
X147400000Y-125700000D01*
X147400000Y-125700000D02*
X148500000Y-126800000D01*
X147000000Y-122800000D02*
X147000000Y-125700000D01*
X157450000Y-126800000D02*
X166000000Y-135350000D01*
X147012437Y-122787563D02*
X147000000Y-122800000D01*
%TO.N,/Stepper controller/ENCB_DCEN_CFG4*%
X145850000Y-122300000D02*
X145987437Y-122162563D01*
X146649000Y-125750000D02*
X145850000Y-124951000D01*
X163500000Y-135350000D02*
X158050000Y-129900000D01*
X146649000Y-125845389D02*
X146649000Y-125750000D01*
X150703611Y-129900000D02*
X146649000Y-125845389D01*
X145987437Y-122162563D02*
X145987437Y-121762563D01*
X158050000Y-129900000D02*
X150703611Y-129900000D01*
X145850000Y-124951000D02*
X145850000Y-122300000D01*
%TO.N,Net-(U3-BRA)*%
X156308637Y-115878396D02*
X156450000Y-115737033D01*
X156450000Y-115737033D02*
X156450000Y-112250000D01*
%TO.N,Net-(U3-BRB)*%
X145000000Y-115900000D02*
X145000000Y-112800000D01*
%TO.N,Net-(U3-AIN_IREF)*%
X171750000Y-123000000D02*
X171750000Y-117100000D01*
X150600000Y-123400000D02*
X171450000Y-123400000D01*
X171450000Y-123400000D02*
X171800000Y-123050000D01*
X171750000Y-117100000D02*
X171395000Y-117100000D01*
X171800000Y-123050000D02*
X171750000Y-123000000D01*
X171395000Y-117100000D02*
X165295000Y-111000000D01*
%TO.N,Net-(U3-SWSEL)*%
X149350000Y-123200000D02*
X150150000Y-124000000D01*
X149350000Y-123400000D02*
X149350000Y-123200000D01*
X150150000Y-124000000D02*
X155950000Y-124000000D01*
%TO.N,Net-(U3-SWN_DIAG0)*%
X150150000Y-125900000D02*
X153300000Y-125900000D01*
X148150000Y-123900000D02*
X150150000Y-125900000D01*
%TO.N,/Bus_switch/Chainbus.CS*%
X142900000Y-109100000D02*
X142900000Y-109000000D01*
X144700000Y-110900000D02*
X142900000Y-109100000D01*
X142900000Y-109000000D02*
X142900000Y-108700000D01*
X152400000Y-110900000D02*
X144700000Y-110900000D01*
%TO.N,/Bus_switch/Chainbus.MOSI*%
X152900000Y-108800000D02*
X151375000Y-108800000D01*
X148600000Y-103600000D02*
X146800000Y-103600000D01*
X146800000Y-103600000D02*
X146100000Y-102900000D01*
%TO.N,/Bus_switch/Chainbus.TX*%
X147800000Y-100000000D02*
X149900000Y-97900000D01*
X145300000Y-100000000D02*
X147800000Y-100000000D01*
%TO.N,/Bus_switch/Chainbus.MISO*%
X153000000Y-107800000D02*
X153100000Y-107900000D01*
X150600000Y-107800000D02*
X153000000Y-107800000D01*
X149500000Y-104400000D02*
X146600000Y-104400000D01*
X146600000Y-104400000D02*
X144600000Y-102400000D01*
%TO.N,/Bus_switch/Chainbus.SCK*%
X154800000Y-106300000D02*
X155700000Y-105400000D01*
X148700000Y-102800000D02*
X147200000Y-102800000D01*
X155700000Y-105400000D02*
X155700000Y-105100000D01*
X147200000Y-102800000D02*
X147100000Y-102900000D01*
%TD*%
%TA.AperFunction,Conductor*%
%TO.N,GND*%
G36*
X117243039Y-91319685D02*
G01*
X117288794Y-91372489D01*
X117300000Y-91424000D01*
X117300000Y-94326000D01*
X117280315Y-94393039D01*
X117227511Y-94438794D01*
X117176000Y-94450000D01*
X115374000Y-94450000D01*
X115306961Y-94430315D01*
X115261206Y-94377511D01*
X115250000Y-94326000D01*
X115250000Y-91424000D01*
X115269685Y-91356961D01*
X115322489Y-91311206D01*
X115374000Y-91300000D01*
X117176000Y-91300000D01*
X117243039Y-91319685D01*
G37*
%TD.AperFunction*%
%TD*%
%TA.AperFunction,Conductor*%
%TO.N,Vin*%
G36*
X89943039Y-104769685D02*
G01*
X89988794Y-104822489D01*
X90000000Y-104874000D01*
X90000000Y-107744264D01*
X89986485Y-107800559D01*
X89951117Y-107869970D01*
X89890290Y-108057173D01*
X89859500Y-108251577D01*
X89859500Y-108448422D01*
X89890291Y-108642827D01*
X89890291Y-108642830D01*
X89904540Y-108686682D01*
X89906535Y-108756523D01*
X89904540Y-108763318D01*
X89890291Y-108807169D01*
X89890291Y-108807172D01*
X89859500Y-109001577D01*
X89859500Y-109198422D01*
X89890290Y-109392826D01*
X89951117Y-109580029D01*
X89974713Y-109626338D01*
X89986485Y-109649441D01*
X90000000Y-109705735D01*
X90000000Y-121876000D01*
X89980315Y-121943039D01*
X89927511Y-121988794D01*
X89876000Y-122000000D01*
X82374000Y-122000000D01*
X82306961Y-121980315D01*
X82261206Y-121927511D01*
X82250000Y-121876000D01*
X82250000Y-116805533D01*
X82269685Y-116738494D01*
X82322489Y-116692739D01*
X82339881Y-116686319D01*
X82523049Y-116633909D01*
X82703407Y-116539698D01*
X82861109Y-116411109D01*
X82989698Y-116253407D01*
X83083909Y-116073049D01*
X83139886Y-115877418D01*
X83150500Y-115758037D01*
X83150499Y-114741964D01*
X83139886Y-114622582D01*
X83083909Y-114426951D01*
X82989698Y-114246593D01*
X82937684Y-114182803D01*
X82861109Y-114088890D01*
X82703409Y-113960304D01*
X82703410Y-113960304D01*
X82703407Y-113960302D01*
X82523049Y-113866091D01*
X82339888Y-113813682D01*
X82280850Y-113776314D01*
X82251387Y-113712961D01*
X82250000Y-113694466D01*
X82250000Y-113305533D01*
X82269685Y-113238494D01*
X82322489Y-113192739D01*
X82339881Y-113186319D01*
X82523049Y-113133909D01*
X82703407Y-113039698D01*
X82861109Y-112911109D01*
X82989698Y-112753407D01*
X83083909Y-112573049D01*
X83139886Y-112377418D01*
X83150500Y-112258037D01*
X83150499Y-111241964D01*
X83139886Y-111122582D01*
X83083909Y-110926951D01*
X82989698Y-110746593D01*
X82937684Y-110682803D01*
X82861109Y-110588890D01*
X82703409Y-110460304D01*
X82703410Y-110460304D01*
X82703407Y-110460302D01*
X82523049Y-110366091D01*
X82339888Y-110313682D01*
X82280850Y-110276314D01*
X82251387Y-110212961D01*
X82250000Y-110194466D01*
X82250000Y-104874000D01*
X82269685Y-104806961D01*
X82322489Y-104761206D01*
X82374000Y-104750000D01*
X89876000Y-104750000D01*
X89943039Y-104769685D01*
G37*
%TD.AperFunction*%
%TD*%
%TA.AperFunction,Conductor*%
%TO.N,GND*%
G36*
X137343039Y-91469685D02*
G01*
X137388794Y-91522489D01*
X137400000Y-91574000D01*
X137400000Y-94476000D01*
X137380315Y-94543039D01*
X137327511Y-94588794D01*
X137276000Y-94600000D01*
X128824000Y-94600000D01*
X128756961Y-94580315D01*
X128711206Y-94527511D01*
X128700000Y-94476000D01*
X128700000Y-91574000D01*
X128719685Y-91506961D01*
X128772489Y-91461206D01*
X128824000Y-91450000D01*
X137276000Y-91450000D01*
X137343039Y-91469685D01*
G37*
%TD.AperFunction*%
%TD*%
%TA.AperFunction,Conductor*%
%TO.N,GND*%
G36*
X110293039Y-91469685D02*
G01*
X110338794Y-91522489D01*
X110350000Y-91574000D01*
X110350000Y-94476000D01*
X110330315Y-94543039D01*
X110277511Y-94588794D01*
X110226000Y-94600000D01*
X108424000Y-94600000D01*
X108356961Y-94580315D01*
X108311206Y-94527511D01*
X108300000Y-94476000D01*
X108300000Y-91574000D01*
X108319685Y-91506961D01*
X108372489Y-91461206D01*
X108424000Y-91450000D01*
X110226000Y-91450000D01*
X110293039Y-91469685D01*
G37*
%TD.AperFunction*%
%TD*%
%TA.AperFunction,Conductor*%
%TO.N,GND*%
G36*
X148343039Y-91469685D02*
G01*
X148388794Y-91522489D01*
X148400000Y-91574000D01*
X148400000Y-94476000D01*
X148380315Y-94543039D01*
X148327511Y-94588794D01*
X148276000Y-94600000D01*
X146474000Y-94600000D01*
X146406961Y-94580315D01*
X146361206Y-94527511D01*
X146350000Y-94476000D01*
X146350000Y-91574000D01*
X146369685Y-91506961D01*
X146422489Y-91461206D01*
X146474000Y-91450000D01*
X148276000Y-91450000D01*
X148343039Y-91469685D01*
G37*
%TD.AperFunction*%
%TD*%
%TA.AperFunction,Conductor*%
%TO.N,+5V*%
G36*
X114443039Y-91469685D02*
G01*
X114488794Y-91522489D01*
X114500000Y-91574000D01*
X114500000Y-94476000D01*
X114480315Y-94543039D01*
X114427511Y-94588794D01*
X114376000Y-94600000D01*
X111124000Y-94600000D01*
X111056961Y-94580315D01*
X111011206Y-94527511D01*
X111000000Y-94476000D01*
X111000000Y-91574000D01*
X111019685Y-91506961D01*
X111072489Y-91461206D01*
X111124000Y-91450000D01*
X114376000Y-91450000D01*
X114443039Y-91469685D01*
G37*
%TD.AperFunction*%
%TD*%
%TA.AperFunction,Conductor*%
%TO.N,BRD_VIN*%
G36*
X127340955Y-91469685D02*
G01*
X127386710Y-91522489D01*
X127397899Y-91576066D01*
X127352032Y-94328066D01*
X127331233Y-94394769D01*
X127277674Y-94439637D01*
X127228049Y-94450000D01*
X118721951Y-94450000D01*
X118654912Y-94430315D01*
X118609157Y-94377511D01*
X118597968Y-94328066D01*
X118552101Y-91576066D01*
X118570666Y-91508708D01*
X118622700Y-91462080D01*
X118676084Y-91450000D01*
X127273916Y-91450000D01*
X127340955Y-91469685D01*
G37*
%TD.AperFunction*%
%TD*%
%TA.AperFunction,Conductor*%
%TO.N,/Stepper controller/U_reg_after_jumper*%
G36*
X136455035Y-111800411D02*
G01*
X138803666Y-111992136D01*
X138868882Y-112017210D01*
X138910188Y-112073561D01*
X138915889Y-112095337D01*
X139000000Y-112600000D01*
X139576485Y-113368647D01*
X139600961Y-113434088D01*
X139601224Y-113439173D01*
X139649999Y-114999999D01*
X139650000Y-115000000D01*
X144244898Y-116901337D01*
X144270368Y-116915595D01*
X144344595Y-116969524D01*
X144403427Y-116999500D01*
X144519970Y-117058882D01*
X144519972Y-117058882D01*
X144519975Y-117058884D01*
X144707174Y-117119709D01*
X144798749Y-117134212D01*
X144826752Y-117142104D01*
X145011919Y-117218725D01*
X145051280Y-117244723D01*
X145840601Y-118017935D01*
X147982975Y-120116587D01*
X153380000Y-120150000D01*
X154233794Y-119875215D01*
X154267011Y-119869345D01*
X156675789Y-119776645D01*
X157613769Y-118017932D01*
X157662684Y-117968046D01*
X157726956Y-117952346D01*
X165731704Y-118196393D01*
X165798111Y-118218111D01*
X165842236Y-118272285D01*
X165851908Y-118318335D01*
X165898082Y-121181130D01*
X165879481Y-121248478D01*
X165827422Y-121295079D01*
X165781316Y-121306920D01*
X156408315Y-121853481D01*
X156340244Y-121837732D01*
X156291493Y-121787681D01*
X156290693Y-121786141D01*
X156269524Y-121744595D01*
X156269522Y-121744592D01*
X156269521Y-121744590D01*
X156228394Y-121687985D01*
X156153828Y-121585354D01*
X156014646Y-121446172D01*
X155855405Y-121330476D01*
X155680029Y-121241117D01*
X155492826Y-121180290D01*
X155298422Y-121149500D01*
X155298417Y-121149500D01*
X155101583Y-121149500D01*
X155101578Y-121149500D01*
X154907173Y-121180290D01*
X154719970Y-121241117D01*
X154544594Y-121330476D01*
X154457848Y-121393502D01*
X154385354Y-121446172D01*
X154385352Y-121446174D01*
X154385351Y-121446174D01*
X154246174Y-121585351D01*
X154246174Y-121585352D01*
X154246172Y-121585354D01*
X154214694Y-121628680D01*
X154130476Y-121744594D01*
X154041113Y-121919978D01*
X154040492Y-121921480D01*
X154040103Y-121921962D01*
X154038904Y-121924316D01*
X154038409Y-121924064D01*
X153996649Y-121975881D01*
X153933152Y-121997812D01*
X152466484Y-122083338D01*
X152455915Y-122083503D01*
X149070093Y-121991994D01*
X149070087Y-121991994D01*
X148222291Y-122197590D01*
X148152500Y-122194260D01*
X148095590Y-122153726D01*
X148082583Y-122133378D01*
X148081965Y-122132166D01*
X148081958Y-122132153D01*
X148046491Y-122083338D01*
X147966265Y-121972917D01*
X147827083Y-121833735D01*
X147667842Y-121718039D01*
X147492462Y-121628679D01*
X147305263Y-121567854D01*
X147305261Y-121567853D01*
X147305259Y-121567853D01*
X147300523Y-121566716D01*
X147301045Y-121564541D01*
X147246283Y-121538490D01*
X147209432Y-121479128D01*
X147208414Y-121474432D01*
X147208281Y-121474465D01*
X147207146Y-121469736D01*
X147146319Y-121282533D01*
X147056960Y-121107157D01*
X146941265Y-120947917D01*
X146802083Y-120808735D01*
X146642842Y-120693039D01*
X146467463Y-120603679D01*
X146440051Y-120594772D01*
X146382376Y-120555333D01*
X146360441Y-120515159D01*
X146351538Y-120487758D01*
X146351535Y-120487752D01*
X146341020Y-120467114D01*
X146262176Y-120312373D01*
X146146480Y-120153132D01*
X146007298Y-120013950D01*
X145848057Y-119898254D01*
X145672681Y-119808895D01*
X145485478Y-119748068D01*
X145291074Y-119717278D01*
X145291069Y-119717278D01*
X145094235Y-119717278D01*
X145094230Y-119717278D01*
X144899825Y-119748068D01*
X144712622Y-119808895D01*
X144537246Y-119898254D01*
X144446393Y-119964263D01*
X144378006Y-120013950D01*
X144378004Y-120013952D01*
X144378003Y-120013952D01*
X144238826Y-120153129D01*
X144238826Y-120153130D01*
X144238824Y-120153132D01*
X144189137Y-120221519D01*
X144123128Y-120312372D01*
X144070165Y-120416318D01*
X144022190Y-120467114D01*
X143954369Y-120483909D01*
X143901352Y-120469448D01*
X136521688Y-116535794D01*
X136471788Y-116486889D01*
X136456086Y-116430548D01*
X136352876Y-113368646D01*
X136304321Y-111928177D01*
X136307099Y-111917383D01*
X136305513Y-111906353D01*
X136315652Y-111884151D01*
X136321736Y-111860513D01*
X136329908Y-111852935D01*
X136334538Y-111842797D01*
X136355072Y-111829600D01*
X136372969Y-111813005D01*
X136385472Y-111810063D01*
X136393316Y-111805023D01*
X136428251Y-111800000D01*
X136444946Y-111800000D01*
X136455035Y-111800411D01*
G37*
%TD.AperFunction*%
%TD*%
M02*
