M48
; DRILL file KiCad 10.0.1 date 2026-04-20T10:06:42
; FORMAT={-:-/ absolute / inch / decimal}
; #@! TF.CreationDate,2026-04-20T10:06:42+02:00
; #@! TF.GenerationSoftware,Kicad,Pcbnew,10.0.1
; #@! TF.FileFunction,Plated,1,4,PTH
FMAT,2
INCH
; #@! TA.AperFunction,Plated,PTH,ComponentDrill
T1C0.0079
; #@! TA.AperFunction,Plated,PTH,ViaDrill
T2C0.0118
; #@! TA.AperFunction,Plated,PTH,ComponentDrill
T3C0.0118
; #@! TA.AperFunction,Plated,PTH,ComponentDrill
T4C0.0236
; #@! TA.AperFunction,Plated,PTH,ComponentDrill
T5C0.0315
; #@! TA.AperFunction,Plated,PTH,ComponentDrill
T6C0.0374
; #@! TA.AperFunction,Plated,PTH,ComponentDrill
T7C0.0394
; #@! TA.AperFunction,Plated,PTH,ComponentDrill
T8C0.1063
%
G90
G05
T1
X5.8415Y-4.503
X5.8415Y-4.5472
X5.8415Y-4.5915
X5.8415Y-4.6358
X5.8415Y-4.6801
X5.8858Y-4.503
X5.8858Y-4.5472
X5.8858Y-4.5915
X5.8858Y-4.6358
X5.8858Y-4.6801
X5.9301Y-4.503
X5.9301Y-4.5472
X5.9301Y-4.5915
X5.9301Y-4.6358
X5.9301Y-4.6801
X5.9744Y-4.503
X5.9744Y-4.5472
X5.9744Y-4.5915
X5.9744Y-4.6358
X5.9744Y-4.6801
X6.0187Y-4.503
X6.0187Y-4.5472
X6.0187Y-4.5915
X6.0187Y-4.6358
X6.0187Y-4.6801
T2
X3.0984Y-4.7598
X3.0984Y-4.7913
X3.0984Y-4.8189
X3.0984Y-4.8504
X3.0984Y-4.8819
X3.0984Y-4.9134
X3.122Y-4.7598
X3.122Y-4.7913
X3.122Y-4.8189
X3.122Y-4.8504
X3.122Y-4.8819
X3.122Y-4.9134
X3.1496Y-4.8819
X3.1496Y-4.9134
X3.1732Y-4.8819
X3.1732Y-4.9134
X3.1969Y-4.8819
X3.1969Y-4.9134
X3.2205Y-4.8819
X3.2205Y-4.9134
X3.2441Y-4.8819
X3.2441Y-4.9134
X3.2677Y-4.8819
X3.2677Y-4.9134
X3.5472Y-4.5748
X3.5591Y-5.2598
X3.5591Y-5.2874
X3.5591Y-5.315
X3.5591Y-5.3425
X3.5591Y-5.3701
X3.5591Y-5.3976
X3.5866Y-5.2598
X3.5866Y-5.2874
X3.5866Y-5.315
X3.5866Y-5.3425
X3.5866Y-5.3701
X3.5866Y-5.3976
X3.6142Y-5.2598
X3.6142Y-5.2874
X3.6142Y-5.315
X3.6142Y-5.3425
X3.6142Y-5.3701
X3.6142Y-5.3976
X3.6378Y-5.2598
X3.6378Y-5.2874
X3.6378Y-5.315
X3.6378Y-5.3425
X3.6378Y-5.3701
X3.6378Y-5.3976
X3.6575Y-3.6181
X3.6654Y-5.2598
X3.6654Y-5.2874
X3.6654Y-5.315
X3.6654Y-5.3425
X3.6654Y-5.3701
X3.6654Y-5.3976
X3.6929Y-5.2913
X3.6929Y-5.3189
X3.6929Y-5.3425
X3.6929Y-5.3701
X3.6929Y-5.3976
X3.7205Y-5.2913
X3.7205Y-5.3189
X3.7205Y-5.3425
X3.7205Y-5.3701
X3.7205Y-5.3976
X3.748Y-5.2913
X3.748Y-5.3189
X3.748Y-5.3425
X3.748Y-5.3701
X3.748Y-5.3976
X3.7756Y-5.2913
X3.7756Y-5.3189
X3.7756Y-5.3425
X3.7756Y-5.3701
X3.7756Y-5.3976
X3.8031Y-5.2913
X3.8031Y-5.3189
X3.8031Y-5.3425
X3.8031Y-5.3701
X3.8031Y-5.3976
X3.8307Y-5.2913
X3.8307Y-5.3189
X3.8307Y-5.3425
X3.8307Y-5.3701
X3.8307Y-5.3976
X3.8425Y-3.6181
X3.876Y-4.8661
X3.876Y-4.8976
X3.876Y-4.9252
X3.878Y-4.8386
X3.8819Y-4.3307
X3.9055Y-4.8661
X3.9055Y-4.8976
X3.9055Y-4.9252
X3.9075Y-4.8386
X3.935Y-4.8661
X3.935Y-4.8976
X3.935Y-4.9252
X3.937Y-4.8386
X3.9665Y-4.8661
X3.9665Y-4.8976
X3.9665Y-4.9252
X3.9685Y-4.8386
X3.9961Y-4.8661
X3.9961Y-4.8976
X3.9961Y-4.9252
X3.998Y-4.8386
X4.0256Y-4.8661
X4.0256Y-4.8976
X4.0256Y-4.9252
X4.0276Y-4.8386
X4.0433Y-4.3543
X4.2874Y-5.2913
X4.2874Y-5.3189
X4.2874Y-5.3425
X4.2874Y-5.3701
X4.2874Y-5.3976
X4.315Y-5.2913
X4.315Y-5.3189
X4.315Y-5.3425
X4.315Y-5.3701
X4.315Y-5.3976
X4.3346Y-3.6201
X4.3346Y-3.6594
X4.3346Y-3.7008
X4.3406Y-3.8583
X4.3425Y-5.2913
X4.3425Y-5.3189
X4.3425Y-5.3425
X4.3425Y-5.3701
X4.3425Y-5.3976
X4.3701Y-5.2913
X4.3701Y-5.3189
X4.3701Y-5.3425
X4.3701Y-5.3701
X4.3701Y-5.3976
X4.3976Y-5.2913
X4.3976Y-5.3189
X4.3976Y-5.3425
X4.3976Y-5.3701
X4.3976Y-5.3976
X4.4252Y-5.2913
X4.4252Y-5.3189
X4.4252Y-5.3425
X4.4252Y-5.3701
X4.4252Y-5.3976
X4.439Y-3.622
X4.439Y-3.6555
X4.439Y-3.685
X4.439Y-3.7126
X4.439Y-3.8583
X4.4685Y-5.2598
X4.4685Y-5.2874
X4.4685Y-5.315
X4.4685Y-5.3425
X4.4685Y-5.3701
X4.4685Y-5.3976
X4.4961Y-5.2598
X4.4961Y-5.2874
X4.4961Y-5.315
X4.4961Y-5.3425
X4.4961Y-5.3701
X4.4961Y-5.3976
X4.5236Y-5.2598
X4.5236Y-5.2874
X4.5236Y-5.315
X4.5236Y-5.3425
X4.5236Y-5.3701
X4.5236Y-5.3976
X4.5374Y-3.8583
X4.5472Y-5.2598
X4.5472Y-5.2874
X4.5472Y-5.315
X4.5472Y-5.3425
X4.5472Y-5.3701
X4.5472Y-5.3976
X4.5531Y-3.6122
X4.5531Y-3.6516
X4.5531Y-3.6929
X4.5748Y-4.6535
X4.5748Y-5.2598
X4.5748Y-5.2874
X4.5748Y-5.315
X4.5748Y-5.3425
X4.5748Y-5.3701
X4.5748Y-5.3976
X4.6024Y-4.5394
X4.6024Y-4.5669
X4.6043Y-4.5945
X4.6043Y-4.626
X4.6043Y-4.6535
X4.6358Y-3.8583
X4.7343Y-3.8583
X4.7382Y-3.6181
X4.7382Y-3.6575
X4.7382Y-3.6969
X4.8386Y-3.6201
X4.8386Y-3.6594
X4.8386Y-3.6988
X4.845Y-3.8608
X4.8602Y-4.0866
X4.8602Y-4.1181
X4.8602Y-4.1457
X4.8622Y-4.0591
X4.8898Y-4.0866
X4.8898Y-4.1181
X4.8898Y-4.1457
X4.8917Y-4.0591
X4.939Y-3.6201
X4.939Y-3.6594
X4.939Y-3.6988
X4.9434Y-3.8608
X5.1299Y-3.8622
X5.1378Y-3.6201
X5.1378Y-3.6594
X5.1378Y-3.7008
X5.2264Y-4.6555
X5.2264Y-4.685
X5.2264Y-4.7146
X5.2303Y-3.8602
X5.2382Y-3.624
X5.2382Y-3.6634
X5.2382Y-3.7047
X5.3248Y-4.6555
X5.3248Y-4.685
X5.3248Y-4.7146
X5.3307Y-3.8602
X5.3386Y-3.622
X5.3386Y-3.6614
X5.3386Y-3.7028
X5.3848Y-4.5716
X5.3879Y-4.5402
X5.3898Y-4.4213
X5.3898Y-4.4488
X5.3898Y-4.4764
X5.3898Y-4.5079
X5.3957Y-4.0177
X5.4213Y-4.4213
X5.4213Y-4.4488
X5.4213Y-4.4764
X5.4213Y-4.5079
X5.4272Y-3.8602
X5.4331Y-4.0551
X5.4528Y-4.4213
X5.4528Y-4.4488
X5.4528Y-4.4764
X5.4528Y-4.5079
X5.5Y-3.9862
X5.5004Y-4.1004
X5.502Y-4.126
X5.502Y-4.1516
X5.5118Y-4.2205
X5.5177Y-4.2815
X5.5197Y-4.4094
X5.5295Y-3.8583
X5.5472Y-4.2815
X5.5492Y-4.4094
X5.5591Y-4.1535
X5.5768Y-4.2815
X5.5787Y-4.4094
X5.5984Y-4.1575
X5.626Y-4.2795
X5.6299Y-3.8583
X5.6457Y-3.6634
X5.6535Y-4.2717
X5.6575Y-4.3858
X5.6654Y-4.1693
X5.6929Y-4.0315
X5.6929Y-4.2677
X5.6969Y-4.6555
X5.7087Y-4.4409
X5.7087Y-4.563
X5.7126Y-4.6398
X5.7162Y-4.7625
X5.7205Y-3.937
X5.7343Y-3.8563
X5.7475Y-4.7938
X5.752Y-4.0512
X5.7879Y-4.8342
X5.7913Y-4.0512
X5.8327Y-3.6201
X5.8327Y-3.6594
X5.8327Y-3.7008
X5.8327Y-4.878
X5.8346Y-3.8602
X5.8504Y-4.0787
X5.8543Y-4.0472
X5.8622Y-4.248
X5.8799Y-4.8583
X5.8858Y-4.1102
X5.9016Y-3.8543
X5.9075Y-4.1496
X5.9075Y-4.2126
X5.9291Y-4.2441
X5.9291Y-4.8583
X5.9596Y-4.2835
X6.0Y-4.3661
X6.0157Y-5.0217
X6.0197Y-4.2835
X6.0276Y-4.248
X6.0354Y-4.9154
X6.0354Y-4.9567
X6.0945Y-4.185
X6.1102Y-4.8189
X6.126Y-4.248
X6.128Y-4.2835
X6.1299Y-4.1378
X6.1339Y-4.1811
X6.1398Y-4.8819
X6.1496Y-3.8307
X6.1539Y-4.5621
X6.1594Y-4.4193
X6.2008Y-4.0472
X6.2087Y-4.6732
X6.2087Y-4.6988
X6.2087Y-4.7244
X6.2126Y-4.2559
X6.2343Y-4.6988
X6.2343Y-4.7244
X6.3701Y-4.1969
X6.3976Y-4.1043
X6.4803Y-4.6693
X6.4803Y-4.6969
X6.4803Y-4.7244
X6.4803Y-4.7559
X6.5118Y-4.6693
X6.5118Y-4.6969
X6.5118Y-4.7244
X6.5118Y-4.7559
X6.5748Y-3.6142
X6.5768Y-3.8031
X6.5768Y-3.8307
X6.6063Y-3.8031
X6.6063Y-3.8307
X6.7126Y-3.9902
X6.7126Y-4.0433
X6.7146Y-3.8898
X6.7165Y-3.9429
X6.8169Y-4.9488
X6.8169Y-5.0472
X6.8268Y-4.6634
X6.8268Y-4.7618
X6.8465Y-4.9488
X6.8465Y-5.0472
X6.8563Y-4.6634
X6.8563Y-4.7618
X6.876Y-4.9488
X6.876Y-5.0472
X6.8858Y-4.6634
X6.8858Y-4.7618
X6.9035Y-4.0768
T3
X6.261Y-3.689
X6.261Y-3.7283
X6.261Y-3.7677
T5
X4.0867Y-4.1096
X4.0867Y-4.4096
X4.1867Y-4.1096
X4.1867Y-4.4096
X4.2867Y-4.1096
X4.2867Y-4.4096
X4.3867Y-4.1096
X4.3867Y-4.4096
X6.5077Y-4.2701
X6.5077Y-4.3701
X6.5077Y-4.4701
T6
X5.7677Y-5.262
X5.8661Y-5.262
X5.9646Y-5.262
X6.063Y-5.262
X6.3386Y-5.3287
X6.437Y-5.3287
X6.5354Y-5.3287
T7
X4.4567Y-4.7189
X4.4567Y-4.8189
X4.4567Y-4.9189
X5.9516Y-3.937
X6.0516Y-3.937
X6.1516Y-3.937
X6.2516Y-3.937
T8
X3.2283Y-5.2756
X3.5906Y-5.1319
X3.874Y-5.1319
X4.248Y-5.1319
X4.5315Y-5.1319
T4
G00X3.4665Y-5.3898
M15
G01X3.4665Y-5.3465
M16
G05
G00X3.998Y-5.3898
M15
G01X3.998Y-5.3465
M16
G05
G00X4.124Y-5.3898
M15
G01X4.124Y-5.3465
M16
G05
G00X4.6555Y-5.3898
M15
G01X4.6555Y-5.3465
M16
G05
M30
